<?xml version="1.0" encoding="UTF-8" standalone="no"?>
<!DOCTYPE svg PUBLIC "-//W3C//DTD SVG 1.1//EN"
 "http://www.w3.org/Graphics/SVG/1.1/DTD/svg11.dtd">
<!-- Generated by graphviz version 15.1.0 (20260618.0150)
 -->
<!-- Title: mrbc_symbol_new Pages: 1 -->
<svg width="1165pt" height="181pt"
 viewBox="0.00 0.00 1165.00 181.00" xmlns="http://www.w3.org/2000/svg" xmlns:xlink="http://www.w3.org/1999/xlink">
<g id="graph0" class="graph" transform="scale(1 1) rotate(0) translate(4 177.38)">
<title>mrbc_symbol_new</title>
<!-- Node1 -->
<g id="Node000001" class="node">
<title>Node1</title>
<g id="a_Node000001"><a xlink:title=" ">
<polygon fill="#999999" stroke="#666666" points="1156.5,-93.38 1058.75,-93.38 1058.75,-74.13 1156.5,-74.13 1156.5,-93.38"/>
<text xml:space="preserve" text-anchor="middle" x="1107.62" y="-79.88" font-family="Helvetica,sans-Serif" font-size="10.00">mrbc_symbol_new</text>
</a>
</g>
</g>
<!-- Node2 -->
<g id="Node000002" class="node">
<title>Node2</title>
<g id="a_Node000002"><a xlink:href="global_8c.html#a938cbf13d795ec85cb4071e2b87803ea" target="_top" xlink:title=" ">
<polygon fill="white" stroke="#666666" points="1022.75,-133.38 908.5,-133.38 908.5,-114.13 1022.75,-114.13 1022.75,-133.38"/>
<text xml:space="preserve" text-anchor="middle" x="965.62" y="-119.88" font-family="Helvetica,sans-Serif" font-size="10.00">mrbc_set_class_const</text>
</a>
</g>
</g>
<!-- Node1&#45;&gt;Node2 -->
<g id="edge1_Node000001_Node000002" class="edge">
<title>Node1&#45;&gt;Node2</title>
<g id="a_edge1_Node000001_Node000002"><a xlink:title=" ">
<path fill="none" stroke="#63b8ff" d="M1060.44,-96.95C1041.4,-102.39 1019.68,-108.6 1001.94,-113.67"/>
<polygon fill="#63b8ff" stroke="#63b8ff" points="1061.19,-100.38 1069.84,-94.27 1059.26,-93.65 1061.19,-100.38"/>
</a>
</g>
</g>
<!-- Node10 -->
<g id="Node000010" class="node">
<title>Node10</title>
<g id="a_Node000010"><a xlink:href="class_8c.html#a5374aa0c0b4967f428ae92cb94c8d4b5" target="_top" xlink:title=" ">
<polygon fill="white" stroke="#666666" points="872.5,-99.01 753.75,-99.01 753.75,-68.51 872.5,-68.51 872.5,-99.01"/>
<text xml:space="preserve" text-anchor="start" x="761.75" y="-85.51" font-family="Helvetica,sans-Serif" font-size="10.00">sub_mrbc_define_class</text>
<text xml:space="preserve" text-anchor="middle" x="813.12" y="-74.26" font-family="Helvetica,sans-Serif" font-size="10.00">_module_under</text>
</a>
</g>
</g>
<!-- Node1&#45;&gt;Node10 -->
<g id="edge19_Node000001_Node000010" class="edge">
<title>Node1&#45;&gt;Node10</title>
<g id="a_edge19_Node000001_Node000010"><a xlink:title=" ">
<path fill="none" stroke="#63b8ff" d="M1046.86,-83.76C996.01,-83.76 923.39,-83.76 872.84,-83.76"/>
<polygon fill="#63b8ff" stroke="#63b8ff" points="1046.81,-87.26 1056.81,-83.76 1046.81,-80.26 1046.81,-87.26"/>
</a>
</g>
</g>
<!-- Node15 -->
<g id="Node000015" class="node">
<title>Node15</title>
<g id="a_Node000015"><a xlink:href="vm_8c.html#a986e6b9710a9b4d0f8b3eefa8da2c567" target="_top" xlink:title=" ">
<polygon fill="white" stroke="#666666" points="993.5,-34.38 937.75,-34.38 937.75,-15.13 993.5,-15.13 993.5,-34.38"/>
<text xml:space="preserve" text-anchor="middle" x="965.62" y="-20.88" font-family="Helvetica,sans-Serif" font-size="10.00">op_intern</text>
</a>
</g>
</g>
<!-- Node1&#45;&gt;Node15 -->
<g id="edge17_Node000001_Node000015" class="edge">
<title>Node1&#45;&gt;Node15</title>
<g id="a_edge17_Node000001_Node000015"><a xlink:title=" ">
<path fill="none" stroke="#63b8ff" d="M1072.57,-69.41C1047.15,-58.7 1013.06,-44.33 990.49,-34.82"/>
<polygon fill="#63b8ff" stroke="#63b8ff" points="1070.91,-72.5 1081.48,-73.16 1073.63,-66.05 1070.91,-72.5"/>
</a>
</g>
</g>
<!-- Node3 -->
<g id="Node000003" class="node">
<title>Node3</title>
<g id="a_Node000003"><a xlink:href="c__math_8c.html#ae3fb2a5b1877b8e6602ce134bf5c538a" target="_top" xlink:title=" ">
<polygon fill="white" stroke="#666666" points="455.5,-173.38 336,-173.38 336,-154.13 455.5,-154.13 455.5,-173.38"/>
<text xml:space="preserve" text-anchor="middle" x="395.75" y="-159.88" font-family="Helvetica,sans-Serif" font-size="10.00">mrbc_init_module_math</text>
</a>
</g>
</g>
<!-- Node2&#45;&gt;Node3 -->
<g id="edge2_Node000002_Node000003" class="edge">
<title>Node2&#45;&gt;Node3</title>
<g id="a_edge2_Node000002_Node000003"><a xlink:title=" ">
<path fill="none" stroke="#63b8ff" d="M901.8,-135.72C892.02,-137.28 882.01,-138.7 872.5,-139.76 723.12,-156.44 546.05,-161.53 455.9,-163.08"/>
<polygon fill="#63b8ff" stroke="#63b8ff" points="902.35,-139.17 911.64,-134.09 901.2,-132.27 902.35,-139.17"/>
</a>
</g>
</g>
<!-- Node6 -->
<g id="Node000006" class="node">
<title>Node6</title>
<g id="a_Node000006"><a xlink:href="vm_8c.html#aad9207108d66e985c0f4a59acd69af0a" target="_top" xlink:title=" ">
<polygon fill="white" stroke="#666666" points="688.88,-136.38 619.62,-136.38 619.62,-117.13 688.88,-117.13 688.88,-136.38"/>
<text xml:space="preserve" text-anchor="middle" x="654.25" y="-122.88" font-family="Helvetica,sans-Serif" font-size="10.00">op_setconst</text>
</a>
</g>
</g>
<!-- Node2&#45;&gt;Node6 -->
<g id="edge5_Node000002_Node000006" class="edge">
<title>Node2&#45;&gt;Node6</title>
<g id="a_edge5_Node000002_Node000006"><a xlink:title=" ">
<path fill="none" stroke="#63b8ff" d="M897.02,-124.41C832.85,-125.04 739.04,-125.95 689.24,-126.43"/>
<polygon fill="#63b8ff" stroke="#63b8ff" points="896.76,-127.92 906.73,-124.32 896.69,-120.92 896.76,-127.92"/>
</a>
</g>
</g>
<!-- Node2&#45;&gt;Node10 -->
<g id="edge10_Node000002_Node000010" class="edge">
<title>Node2&#45;&gt;Node10</title>
<g id="a_edge10_Node000002_Node000010"><a xlink:title=" ">
<path fill="none" stroke="#63b8ff" d="M915.56,-110.72C901.94,-107.1 887.01,-103.13 872.9,-99.38"/>
<polygon fill="#63b8ff" stroke="#63b8ff" points="914.62,-114.09 925.18,-113.28 916.42,-107.32 914.62,-114.09"/>
</a>
</g>
</g>
<!-- Node4 -->
<g id="Node000004" class="node">
<title>Node4</title>
<g id="a_Node000004"><a xlink:href="class_8c.html#a33245c1a2325726c07d41ee637fe943d" target="_top" xlink:title=" ">
<polygon fill="white" stroke="#666666" points="176,-135.38 91.75,-135.38 91.75,-116.13 176,-116.13 176,-135.38"/>
<text xml:space="preserve" text-anchor="middle" x="133.88" y="-121.88" font-family="Helvetica,sans-Serif" font-size="10.00">mrbc_init_class</text>
</a>
</g>
</g>
<!-- Node3&#45;&gt;Node4 -->
<g id="edge3_Node000003_Node000004" class="edge">
<title>Node3&#45;&gt;Node4</title>
<g id="a_edge3_Node000003_Node000004"><a xlink:title=" ">
<path fill="none" stroke="#63b8ff" d="M324.36,-158.72C290.27,-155.71 248.84,-151.18 212,-144.76 198.55,-142.41 183.97,-139.04 171.14,-135.79"/>
<polygon fill="#63b8ff" stroke="#63b8ff" points="323.85,-162.19 334.11,-159.56 324.45,-155.22 323.85,-162.19"/>
</a>
</g>
</g>
<!-- Node5 -->
<g id="Node000005" class="node">
<title>Node5</title>
<g id="a_Node000005"><a xlink:href="rrt0_8c.html#a3790d80a30b7528debb507271c042f0e" target="_top" xlink:title=" ">
<polygon fill="white" stroke="#666666" points="55.75,-135.38 0,-135.38 0,-116.13 55.75,-116.13 55.75,-135.38"/>
<text xml:space="preserve" text-anchor="middle" x="27.88" y="-121.88" font-family="Helvetica,sans-Serif" font-size="10.00">mrbc_init</text>
</a>
</g>
</g>
<!-- Node4&#45;&gt;Node5 -->
<g id="edge4_Node000004_Node000005" class="edge">
<title>Node4&#45;&gt;Node5</title>
<g id="a_edge4_Node000004_Node000005"><a xlink:title=" ">
<path fill="none" stroke="#63b8ff" d="M80.17,-125.76C71.84,-125.76 63.53,-125.76 56.1,-125.76"/>
<polygon fill="#63b8ff" stroke="#63b8ff" points="79.96,-129.26 89.96,-125.76 79.96,-122.26 79.96,-129.26"/>
</a>
</g>
</g>
<!-- Node7 -->
<g id="Node000007" class="node">
<title>Node7</title>
<g id="a_Node000007"><a xlink:href="vm_8c.html#aa60d1dd27f07546d0c60b082f32360d8" target="_top" xlink:title=" ">
<polygon fill="white" stroke="#666666" points="433.38,-98.38 358.12,-98.38 358.12,-79.13 433.38,-79.13 433.38,-98.38"/>
<text xml:space="preserve" text-anchor="middle" x="395.75" y="-84.88" font-family="Helvetica,sans-Serif" font-size="10.00">mrbc_vm_run</text>
</a>
</g>
</g>
<!-- Node6&#45;&gt;Node7 -->
<g id="edge6_Node000006_Node000007" class="edge">
<title>Node6&#45;&gt;Node7</title>
<g id="a_edge6_Node000006_Node000007"><a xlink:title=" ">
<path fill="none" stroke="#63b8ff" d="M607.99,-122.43C575.48,-119.08 530.67,-113.98 491.5,-107.76 472.28,-104.71 451.02,-100.52 433.52,-96.85"/>
<polygon fill="#63b8ff" stroke="#63b8ff" points="607.57,-125.91 617.87,-123.43 608.27,-118.94 607.57,-125.91"/>
</a>
</g>
</g>
<!-- Node8 -->
<g id="Node000008" class="node">
<title>Node8</title>
<g id="a_Node000008"><a xlink:href="rrt0_8c.html#ae684e409f06a0a28190d3961151737df" target="_top" xlink:title=" ">
<polygon fill="white" stroke="#666666" points="284.25,-135.38 227.75,-135.38 227.75,-116.13 284.25,-116.13 284.25,-135.38"/>
<text xml:space="preserve" text-anchor="middle" x="256" y="-121.88" font-family="Helvetica,sans-Serif" font-size="10.00">mrbc_run</text>
</a>
</g>
</g>
<!-- Node7&#45;&gt;Node8 -->
<g id="edge7_Node000007_Node000008" class="edge">
<title>Node7&#45;&gt;Node8</title>
<g id="a_edge7_Node000007_Node000008"><a xlink:title=" ">
<path fill="none" stroke="#63b8ff" d="M346.89,-101.61C325.99,-107.23 302.24,-113.61 284.4,-118.4"/>
<polygon fill="#63b8ff" stroke="#63b8ff" points="347.62,-105.04 356.37,-99.07 345.81,-98.28 347.62,-105.04"/>
</a>
</g>
</g>
<!-- Node9 -->
<g id="Node000009" class="node">
<title>Node9</title>
<g id="a_Node000009"><a xlink:href="class_8c.html#ad12d568598d06f67848857cff37c4a58" target="_top" xlink:title=" ">
<polygon fill="white" stroke="#666666" points="300,-98.38 212,-98.38 212,-79.13 300,-79.13 300,-98.38"/>
<text xml:space="preserve" text-anchor="middle" x="256" y="-84.88" font-family="Helvetica,sans-Serif" font-size="10.00">mrbc_run_mrblib</text>
</a>
</g>
</g>
<!-- Node7&#45;&gt;Node9 -->
<g id="edge8_Node000007_Node000009" class="edge">
<title>Node7&#45;&gt;Node9</title>
<g id="a_edge8_Node000007_Node000009"><a xlink:title=" ">
<path fill="none" stroke="#63b8ff" d="M346.66,-88.76C331.6,-88.76 315.09,-88.76 300.38,-88.76"/>
<polygon fill="#63b8ff" stroke="#63b8ff" points="346.32,-92.26 356.32,-88.76 346.32,-85.26 346.32,-92.26"/>
</a>
</g>
</g>
<!-- Node9&#45;&gt;Node4 -->
<g id="edge9_Node000009_Node000004" class="edge">
<title>Node9&#45;&gt;Node4</title>
<g id="a_edge9_Node000009_Node000004"><a xlink:title=" ">
<path fill="none" stroke="#63b8ff" d="M211.45,-102.17C197,-106.62 181.16,-111.5 167.66,-115.66"/>
<polygon fill="#63b8ff" stroke="#63b8ff" points="212.2,-105.6 220.73,-99.31 210.14,-98.91 212.2,-105.6"/>
</a>
</g>
</g>
<!-- Node11 -->
<g id="Node000011" class="node">
<title>Node11</title>
<g id="a_Node000011"><a xlink:href="class_8c.html#aed6d762996964477830b217ae49f8796" target="_top" xlink:title=" ">
<polygon fill="white" stroke="#666666" points="717.75,-99.38 590.75,-99.38 590.75,-80.13 717.75,-80.13 717.75,-99.38"/>
<text xml:space="preserve" text-anchor="middle" x="654.25" y="-85.88" font-family="Helvetica,sans-Serif" font-size="10.00">mrbc_define_class_under</text>
</a>
</g>
</g>
<!-- Node10&#45;&gt;Node11 -->
<g id="edge11_Node000010_Node000011" class="edge">
<title>Node10&#45;&gt;Node11</title>
<g id="a_edge11_Node000010_Node000011"><a xlink:title=" ">
<path fill="none" stroke="#63b8ff" d="M741.81,-86.45C733.92,-86.75 725.91,-87.06 718.11,-87.35"/>
<polygon fill="#63b8ff" stroke="#63b8ff" points="741.89,-89.95 751.75,-86.07 741.63,-82.95 741.89,-89.95"/>
</a>
</g>
</g>
<!-- Node13 -->
<g id="Node000013" class="node">
<title>Node13</title>
<g id="a_Node000013"><a xlink:href="class_8c.html#a4b4d1d77b1d9cb2c06523cdff0d079d2" target="_top" xlink:title=" ">
<polygon fill="white" stroke="#666666" points="707.25,-62.01 601.25,-62.01 601.25,-31.51 707.25,-31.51 707.25,-62.01"/>
<text xml:space="preserve" text-anchor="start" x="609.25" y="-48.51" font-family="Helvetica,sans-Serif" font-size="10.00">mrbc_define_module</text>
<text xml:space="preserve" text-anchor="middle" x="654.25" y="-37.26" font-family="Helvetica,sans-Serif" font-size="10.00">_under</text>
</a>
</g>
</g>
<!-- Node10&#45;&gt;Node13 -->
<g id="edge14_Node000010_Node000013" class="edge">
<title>Node10&#45;&gt;Node13</title>
<g id="a_edge14_Node000010_Node000013"><a xlink:title=" ">
<path fill="none" stroke="#63b8ff" d="M742.25,-67.28C730.66,-64.54 718.8,-61.75 707.73,-59.14"/>
<polygon fill="#63b8ff" stroke="#63b8ff" points="741.25,-70.64 751.79,-69.53 742.86,-63.83 741.25,-70.64"/>
</a>
</g>
</g>
<!-- Node12 -->
<g id="Node000012" class="node">
<title>Node12</title>
<g id="a_Node000012"><a xlink:href="vm_8c.html#a53ac5608ade8b83ff4d489007a757709" target="_top" xlink:title=" ">
<polygon fill="white" stroke="#666666" points="550.62,-98.38 495.62,-98.38 495.62,-79.13 550.62,-79.13 550.62,-98.38"/>
<text xml:space="preserve" text-anchor="middle" x="523.12" y="-84.88" font-family="Helvetica,sans-Serif" font-size="10.00">op_class</text>
</a>
</g>
</g>
<!-- Node11&#45;&gt;Node12 -->
<g id="edge12_Node000011_Node000012" class="edge">
<title>Node11&#45;&gt;Node12</title>
<g id="a_edge12_Node000011_Node000012"><a xlink:title=" ">
<path fill="none" stroke="#63b8ff" d="M579.12,-89.18C569.03,-89.11 559.27,-89.03 550.84,-88.97"/>
<polygon fill="#63b8ff" stroke="#63b8ff" points="579.04,-92.68 589.07,-89.26 579.09,-85.68 579.04,-92.68"/>
</a>
</g>
</g>
<!-- Node12&#45;&gt;Node7 -->
<g id="edge13_Node000012_Node000007" class="edge">
<title>Node12&#45;&gt;Node7</title>
<g id="a_edge13_Node000012_Node000007"><a xlink:title=" ">
<path fill="none" stroke="#63b8ff" d="M484.09,-88.76C468.06,-88.76 449.48,-88.76 433.59,-88.76"/>
<polygon fill="#63b8ff" stroke="#63b8ff" points="483.72,-92.26 493.72,-88.76 483.72,-85.26 483.72,-92.26"/>
</a>
</g>
</g>
<!-- Node14 -->
<g id="Node000014" class="node">
<title>Node14</title>
<g id="a_Node000014"><a xlink:href="vm_8c.html#a5ee1936b951dce69bfb1e90457002be0" target="_top" xlink:title=" ">
<polygon fill="white" stroke="#666666" points="554.75,-59.38 491.5,-59.38 491.5,-40.13 554.75,-40.13 554.75,-59.38"/>
<text xml:space="preserve" text-anchor="middle" x="523.12" y="-45.88" font-family="Helvetica,sans-Serif" font-size="10.00">op_module</text>
</a>
</g>
</g>
<!-- Node13&#45;&gt;Node14 -->
<g id="edge15_Node000013_Node000014" class="edge">
<title>Node13&#45;&gt;Node14</title>
<g id="a_edge15_Node000013_Node000014"><a xlink:title=" ">
<path fill="none" stroke="#63b8ff" d="M589.96,-48.23C577.76,-48.51 565.49,-48.8 554.91,-49.04"/>
<polygon fill="#63b8ff" stroke="#63b8ff" points="589.67,-51.74 599.59,-48 589.51,-44.74 589.67,-51.74"/>
</a>
</g>
</g>
<!-- Node14&#45;&gt;Node7 -->
<g id="edge16_Node000014_Node000007" class="edge">
<title>Node14&#45;&gt;Node7</title>
<g id="a_edge16_Node000014_Node000007"><a xlink:title=" ">
<path fill="none" stroke="#63b8ff" d="M480.53,-62.7C463.8,-67.9 444.8,-73.81 429.13,-78.68"/>
<polygon fill="#63b8ff" stroke="#63b8ff" points="481.18,-66.16 489.69,-59.85 479.1,-59.48 481.18,-66.16"/>
</a>
</g>
</g>
<!-- Node15&#45;&gt;Node7 -->
<g id="edge18_Node000015_Node000007" class="edge">
<title>Node15&#45;&gt;Node7</title>
<g id="a_edge18_Node000015_Node000007"><a xlink:title=" ">
<path fill="none" stroke="#63b8ff" d="M926.01,-17.69C843.67,-4.23 645.79,19.49 491.5,-30.76 458.86,-41.39 425.8,-65.28 408.69,-78.85"/>
<polygon fill="#63b8ff" stroke="#63b8ff" points="925.36,-21.13 935.81,-19.34 926.53,-14.23 925.36,-21.13"/>
</a>
</g>
</g>
</g>
</svg>
