<?xml version="1.0" encoding="UTF-8" standalone="no"?>
<!DOCTYPE svg PUBLIC "-//W3C//DTD SVG 1.1//EN"
 "http://www.w3.org/Graphics/SVG/1.1/DTD/svg11.dtd">
<!-- Generated by graphviz version 15.1.0 (20260618.0150)
 -->
<!-- Title: sub_op_return Pages: 1 -->
<!--zoomable 251 -->

<svg id="main" version="1.1" xmlns="http://www.w3.org/2000/svg" xmlns:xlink="http://www.w3.org/1999/xlink" xml:space="preserve" onload="init(evt)">

<style type="text/css"><![CDATA[
.node, .edge {opacity: 0.7;}
.node.selected, .edge.selected {opacity: 1;}
.edge:hover path { stroke: red; }
.edge:hover polygon { stroke: red; fill: red; }
]]></style>

<defs>
  <circle id="rim" cx="0" cy="0" r="7"/>
  <circle id="rim2" cx="0" cy="0" r="3.5"/>
  <g id="zoomPlus">
    <use xlink:href="#rim" fill="#404040"><set attributeName="fill" to="#808080" begin="zoomplus.mouseover" end="zoomplus.mouseout"/></use>
    <path d="M-4,0h8M0,-4v8" fill="none" stroke="white" stroke-width="1.5" pointer-events="none"/>
  </g>
  <g id="zoomMin">
    <use xlink:href="#rim" fill="#404040"><set attributeName="fill" to="#808080" begin="zoomminus.mouseover" end="zoomminus.mouseout"/></use>
    <path d="M-4,0h8" fill="none" stroke="white" stroke-width="1.5" pointer-events="none"/>
  </g>
  <g id="arrowUp" transform="translate(30 24)">
    <use xlink:href="#rim"/>
    <path pointer-events="none" fill="none" stroke="white" stroke-width="1.5" d="M0,-3.0v7 M-2.5,-0.5L0,-3.0L2.5,-0.5"/>
  </g>
  <g id="arrowRight" transform="rotate(90) translate(36 -43)">
    <use xlink:href="#rim"/>
    <path pointer-events="none" fill="none" stroke="white" stroke-width="1.5" d="M0,-3.0v7 M-2.5,-0.5L0,-3.0L2.5,-0.5"/>
  </g>
  <g id="arrowDown" transform="rotate(180) translate(-30 -48)">
    <use xlink:href="#rim"/>
    <path pointer-events="none" fill="none" stroke="white" stroke-width="1.5" d="M0,-3.0v7 M-2.5,-0.5L0,-3.0L2.5,-0.5"/>
  </g>
  <g id="arrowLeft" transform="rotate(270) translate(-36 17)">
    <use xlink:href="#rim"/>
    <path pointer-events="none" fill="none" stroke="white" stroke-width="1.5" d="M0,-3.0v7 M-2.5,-0.5L0,-3.0L2.5,-0.5"/>
  </g>
  <g id="resetDef">
    <use xlink:href="#rim2" fill="#404040"><set attributeName="fill" to="#808080" begin="reset.mouseover" end="reset.mouseout"/></use>
  </g>
</defs>
<script type="application/ecmascript">
var viewWidth = 1081;
var viewHeight = 251;
var sectionId = 'dynsection-219';
</script>
<script type="application/ecmascript" xlink:href="svg.min.js"/>
<svg id="graph" class="graph">
<g id="viewport">
<title>sub_op_return</title>
<!-- Node1 -->
<g id="Node000001" class="node">
<title>Node1</title>
<g id="a_Node000001"><a xlink:title=" ">
<polygon fill="#999999" stroke="#666666" points="77.5,-152.25 0,-152.25 0,-133 77.5,-133 77.5,-152.25"/>
<text xml:space="preserve" text-anchor="middle" x="38.75" y="-138.75" font-family="Helvetica,sans-Serif" font-size="10.00">sub_op_return</text>
</a>
</g>
</g>
<!-- Node2 -->
<g id="Node000002" class="node">
<title>Node2</title>
<g id="a_Node000002"><a xlink:href="value_8h.html#a547d790605b024e684d716a95129361b" target="_top" xlink:title=" ">
<polygon fill="white" stroke="#666666" points="335.25,-235.25 261.5,-235.25 261.5,-216 335.25,-216 335.25,-235.25"/>
<text xml:space="preserve" text-anchor="middle" x="298.38" y="-221.75" font-family="Helvetica,sans-Serif" font-size="10.00">bin_to_uint32</text>
</a>
</g>
</g>
<!-- Node1&#45;&gt;Node2 -->
<g id="edge1_Node000001_Node000002" class="edge">
<title>Node1&#45;&gt;Node2</title>
<g id="a_edge1_Node000001_Node000002"><a xlink:title=" ">
<path fill="none" stroke="#63b8ff" d="M44.53,-152.51C54.35,-171.52 78.83,-212.68 113.5,-228.62 156.67,-248.47 211.78,-244.23 250.36,-237.2"/>
<polygon fill="#63b8ff" stroke="#63b8ff" points="250.66,-240.71 259.8,-235.35 249.31,-233.84 250.66,-240.71"/>
</a>
</g>
</g>
<!-- Node3 -->
<g id="Node000003" class="node">
<title>Node3</title>
<g id="a_Node000003"><a xlink:href="vm_8c.html#abaf03553edbb3d3d6f839a97a2f19c72" target="_top" xlink:title=" ">
<polygon fill="white" stroke="#666666" points="211.25,-219.88 113.5,-219.88 113.5,-189.38 211.25,-189.38 211.25,-219.88"/>
<text xml:space="preserve" text-anchor="start" x="121.5" y="-206.38" font-family="Helvetica,sans-Serif" font-size="10.00">find_catch_handler</text>
<text xml:space="preserve" text-anchor="middle" x="162.38" y="-195.12" font-family="Helvetica,sans-Serif" font-size="10.00">_ensure</text>
</a>
</g>
</g>
<!-- Node1&#45;&gt;Node3 -->
<g id="edge2_Node000001_Node000003" class="edge">
<title>Node1&#45;&gt;Node3</title>
<g id="a_edge2_Node000001_Node000003"><a xlink:title=" ">
<path fill="none" stroke="#63b8ff" d="M59.13,-152.68C73.99,-160.38 95.01,-171.23 113.5,-180.62 115.57,-181.68 117.7,-182.75 119.84,-183.84"/>
<polygon fill="#63b8ff" stroke="#63b8ff" points="118.08,-186.87 128.58,-188.24 121.23,-180.62 118.08,-186.87"/>
</a>
</g>
</g>
<!-- Node4 -->
<g id="Node000004" class="node">
<title>Node4</title>
<g id="a_Node000004"><a xlink:href="value_8h.html#a264e272a50b44a8873fa9928be7cda0c" target="_top" xlink:title=" ">
<polygon fill="white" stroke="#666666" points="617.75,-133.25 547.75,-133.25 547.75,-114 617.75,-114 617.75,-133.25"/>
<text xml:space="preserve" text-anchor="middle" x="582.75" y="-119.75" font-family="Helvetica,sans-Serif" font-size="10.00">mrbc_decref</text>
</a>
</g>
</g>
<!-- Node1&#45;&gt;Node4 -->
<g id="edge4_Node000001_Node000004" class="edge">
<title>Node1&#45;&gt;Node4</title>
<g id="a_edge4_Node000001_Node000004"><a xlink:title=" ">
<path fill="none" stroke="#63b8ff" d="M77.86,-141.29C174.96,-137.89 431.35,-128.9 536.14,-125.22"/>
<polygon fill="#63b8ff" stroke="#63b8ff" points="536.18,-128.72 546.05,-124.88 535.93,-121.73 536.18,-128.72"/>
</a>
</g>
</g>
<!-- Node5 -->
<g id="Node000005" class="node">
<title>Node5</title>
<g id="a_Node000005"><a xlink:href="value_8h.html#a82f06d6fe162ccb4ac65783e3e9e8d3a" target="_top" xlink:title=" ">
<polygon fill="white" stroke="#666666" points="195.88,-19.25 128.88,-19.25 128.88,0 195.88,0 195.88,-19.25"/>
<text xml:space="preserve" text-anchor="middle" x="162.38" y="-5.75" font-family="Helvetica,sans-Serif" font-size="10.00">mrbc_incref</text>
</a>
</g>
</g>
<!-- Node1&#45;&gt;Node5 -->
<g id="edge5_Node000001_Node000005" class="edge">
<title>Node1&#45;&gt;Node5</title>
<g id="a_edge5_Node000001_Node000005"><a xlink:title=" ">
<path fill="none" stroke="#63b8ff" d="M44.31,-132.66C54.23,-111.86 79.67,-63.32 113.5,-33.62 117.12,-30.45 121.23,-27.58 125.48,-25.02"/>
<polygon fill="#63b8ff" stroke="#63b8ff" points="127.05,-28.15 134.19,-20.33 123.73,-21.99 127.05,-28.15"/>
</a>
</g>
</g>
<!-- Node6 -->
<g id="Node000006" class="node">
<title>Node6</title>
<g id="a_Node000006"><a xlink:href="vm_8c.html#a317278751cec6f65d2a86b03693f9c75" target="_top" xlink:title=" ">
<polygon fill="white" stroke="#666666" points="209.75,-171.25 115,-171.25 115,-152 209.75,-152 209.75,-171.25"/>
<text xml:space="preserve" text-anchor="middle" x="162.38" y="-157.75" font-family="Helvetica,sans-Serif" font-size="10.00">mrbc_pop_callinfo</text>
</a>
</g>
</g>
<!-- Node1&#45;&gt;Node6 -->
<g id="edge6_Node000001_Node000006" class="edge">
<title>Node1&#45;&gt;Node6</title>
<g id="a_edge6_Node000001_Node000006"><a xlink:title=" ">
<path fill="none" stroke="#63b8ff" d="M77.9,-148.58C86.04,-149.86 94.81,-151.23 103.5,-152.58"/>
<polygon fill="#63b8ff" stroke="#63b8ff" points="102.9,-156.03 113.32,-154.12 103.98,-149.12 102.9,-156.03"/>
</a>
</g>
</g>
<!-- Node8 -->
<g id="Node000008" class="node">
<title>Node8</title>
<g id="a_Node000008"><a xlink:href="boxing__no_8h.html#a6c12366cf50b8c85c08cf62acc56aeed" target="_top" xlink:title=" ">
<polygon fill="white" stroke="#666666" points="467.5,-57.25 399.75,-57.25 399.75,-38 467.5,-38 467.5,-57.25"/>
<text xml:space="preserve" text-anchor="middle" x="433.62" y="-43.75" font-family="Helvetica,sans-Serif" font-size="10.00">mrbc_set_tt</text>
</a>
</g>
</g>
<!-- Node1&#45;&gt;Node8 -->
<g id="edge22_Node000001_Node000008" class="edge">
<title>Node1&#45;&gt;Node8</title>
<g id="a_edge22_Node000001_Node000008"><a xlink:title=" ">
<path fill="none" stroke="#63b8ff" d="M60.47,-132.62C75.12,-125.73 95.29,-116.6 113.5,-109.62 171.81,-87.28 186.14,-79.43 247.25,-66.62 294.88,-56.64 350.55,-51.83 388.36,-49.56"/>
<polygon fill="#63b8ff" stroke="#63b8ff" points="388.19,-53.07 397.98,-49.02 387.8,-46.09 388.19,-53.07"/>
</a>
</g>
</g>
<!-- Node3&#45;&gt;Node2 -->
<g id="edge3_Node000003_Node000002" class="edge">
<title>Node3&#45;&gt;Node2</title>
<g id="a_edge3_Node000003_Node000002"><a xlink:title=" ">
<path fill="none" stroke="#63b8ff" d="M211.37,-212.15C223.91,-214.11 237.41,-216.23 249.92,-218.19"/>
<polygon fill="#63b8ff" stroke="#63b8ff" points="249.15,-221.61 259.57,-219.7 250.23,-214.69 249.15,-221.61"/>
</a>
</g>
</g>
<!-- Node7 -->
<g id="Node000007" class="node">
<title>Node7</title>
<g id="a_Node000007"><a xlink:href="value_8h.html#a4f1376bbcce4190199b3521c453edf91" target="_top" xlink:title=" ">
<polygon fill="white" stroke="#666666" points="349.5,-95.25 247.25,-95.25 247.25,-76 349.5,-76 349.5,-95.25"/>
<text xml:space="preserve" text-anchor="middle" x="298.38" y="-81.75" font-family="Helvetica,sans-Serif" font-size="10.00">mrbc_decref_empty</text>
</a>
</g>
</g>
<!-- Node6&#45;&gt;Node7 -->
<g id="edge7_Node000006_Node000007" class="edge">
<title>Node6&#45;&gt;Node7</title>
<g id="a_edge7_Node000006_Node000007"><a xlink:title=" ">
<path fill="none" stroke="#63b8ff" d="M181.17,-151.53C203.92,-138.63 243.54,-116.16 270.11,-101.09"/>
<polygon fill="#63b8ff" stroke="#63b8ff" points="271.64,-104.24 278.62,-96.26 268.19,-98.15 271.64,-104.24"/>
</a>
</g>
</g>
<!-- Node9 -->
<g id="Node000009" class="node">
<title>Node9</title>
<g id="a_Node000009"><a xlink:href="c__hash_8c.html#ab102b3e684e3ec8bfeccc23b6df356af" target="_top" xlink:title=" ">
<polygon fill="white" stroke="#666666" points="346.12,-171.25 250.62,-171.25 250.62,-152 346.12,-152 346.12,-171.25"/>
<text xml:space="preserve" text-anchor="middle" x="298.38" y="-157.75" font-family="Helvetica,sans-Serif" font-size="10.00">mrbc_hash_delete</text>
</a>
</g>
</g>
<!-- Node6&#45;&gt;Node9 -->
<g id="edge10_Node000006_Node000009" class="edge">
<title>Node6&#45;&gt;Node9</title>
<g id="a_edge10_Node000006_Node000009"><a xlink:title=" ">
<path fill="none" stroke="#63b8ff" d="M210.24,-161.62C219.47,-161.62 229.26,-161.62 238.82,-161.62"/>
<polygon fill="#63b8ff" stroke="#63b8ff" points="238.79,-165.13 248.79,-161.63 238.79,-158.13 238.79,-165.13"/>
</a>
</g>
</g>
<!-- Node7&#45;&gt;Node4 -->
<g id="edge8_Node000007_Node000004" class="edge">
<title>Node7&#45;&gt;Node4</title>
<g id="a_edge8_Node000007_Node000004"><a xlink:title=" ">
<path fill="none" stroke="#63b8ff" d="M349.71,-92.14C386.34,-96.9 437.13,-103.57 481.75,-109.62 499.53,-112.04 519.09,-114.76 536.15,-117.16"/>
<polygon fill="#63b8ff" stroke="#63b8ff" points="535.62,-120.62 546.01,-118.55 536.6,-113.69 535.62,-120.62"/>
</a>
</g>
</g>
<!-- Node7&#45;&gt;Node8 -->
<g id="edge9_Node000007_Node000008" class="edge">
<title>Node7&#45;&gt;Node8</title>
<g id="a_edge9_Node000007_Node000008"><a xlink:title=" ">
<path fill="none" stroke="#63b8ff" d="M334.73,-75.54C351.18,-70.85 370.91,-65.23 388.33,-60.26"/>
<polygon fill="#63b8ff" stroke="#63b8ff" points="389.28,-63.62 397.94,-57.52 387.36,-56.89 389.28,-63.62"/>
</a>
</g>
</g>
<!-- Node10 -->
<g id="Node000010" class="node">
<title>Node10</title>
<g id="a_Node000010"><a xlink:href="c__array_8c.html#afd486250ed1dbd4aade486efcd73a921" target="_top" xlink:title=" ">
<polygon fill="white" stroke="#666666" points="481.75,-171.25 385.5,-171.25 385.5,-152 481.75,-152 481.75,-171.25"/>
<text xml:space="preserve" text-anchor="middle" x="433.62" y="-157.75" font-family="Helvetica,sans-Serif" font-size="10.00">mrbc_array_delete</text>
</a>
</g>
</g>
<!-- Node9&#45;&gt;Node10 -->
<g id="edge11_Node000009_Node000010" class="edge">
<title>Node9&#45;&gt;Node10</title>
<g id="a_edge11_Node000009_Node000010"><a xlink:title=" ">
<path fill="none" stroke="#63b8ff" d="M346.35,-161.62C355.2,-161.62 364.56,-161.62 373.73,-161.62"/>
<polygon fill="#63b8ff" stroke="#63b8ff" points="373.66,-165.13 383.66,-161.63 373.66,-158.13 373.66,-165.13"/>
</a>
</g>
</g>
<!-- Node10&#45;&gt;Node4 -->
<g id="edge21_Node000010_Node000004" class="edge">
<title>Node10&#45;&gt;Node4</title>
<g id="a_edge21_Node000010_Node000004"><a xlink:title=" ">
<path fill="none" stroke="#63b8ff" d="M473.67,-151.54C492.97,-146.56 516.38,-140.51 536.46,-135.32"/>
<polygon fill="#63b8ff" stroke="#63b8ff" points="537.27,-138.73 546.08,-132.84 535.52,-131.95 537.27,-138.73"/>
</a>
</g>
</g>
<!-- Node11 -->
<g id="Node000011" class="node">
<title>Node11</title>
<g id="a_Node000011"><a xlink:href="c__array_8h.html#a3826f7936d1bffc4f940e4738835cdbf" target="_top" xlink:title=" ">
<polygon fill="white" stroke="#666666" points="647.75,-171.25 517.75,-171.25 517.75,-152 647.75,-152 647.75,-171.25"/>
<text xml:space="preserve" text-anchor="middle" x="582.75" y="-157.75" font-family="Helvetica,sans-Serif" font-size="10.00">mrbc_array_delete_handle</text>
</a>
</g>
</g>
<!-- Node10&#45;&gt;Node11 -->
<g id="edge12_Node000010_Node000011" class="edge">
<title>Node10&#45;&gt;Node11</title>
<g id="a_edge12_Node000010_Node000011"><a xlink:title=" ">
<path fill="none" stroke="#63b8ff" d="M481.99,-161.62C489.64,-161.62 497.72,-161.62 505.85,-161.62"/>
<polygon fill="#63b8ff" stroke="#63b8ff" points="505.8,-165.13 515.8,-161.63 505.8,-158.13 505.8,-165.13"/>
</a>
</g>
</g>
<!-- Node12 -->
<g id="Node000012" class="node">
<title>Node12</title>
<g id="a_Node000012"><a xlink:href="alloc_8c.html#add284a6bc6f81677d520f64896974572" target="_top" xlink:title=" ">
<polygon fill="white" stroke="#666666" points="764.25,-171.25 683.75,-171.25 683.75,-152 764.25,-152 764.25,-171.25"/>
<text xml:space="preserve" text-anchor="middle" x="724" y="-157.75" font-family="Helvetica,sans-Serif" font-size="10.00">mrbc_raw_free</text>
</a>
</g>
</g>
<!-- Node11&#45;&gt;Node12 -->
<g id="edge13_Node000011_Node000012" class="edge">
<title>Node11&#45;&gt;Node12</title>
<g id="a_edge13_Node000011_Node000012"><a xlink:title=" ">
<path fill="none" stroke="#63b8ff" d="M648.08,-161.62C656.22,-161.62 664.45,-161.62 672.34,-161.62"/>
<polygon fill="#63b8ff" stroke="#63b8ff" points="672.07,-165.13 682.07,-161.63 672.07,-158.13 672.07,-165.13"/>
</a>
</g>
</g>
<!-- Node13 -->
<g id="Node000013" class="node">
<title>Node13</title>
<g id="a_Node000013"><a xlink:href="alloc_8c.html#acbd68132d9dfec3fedba1162c215d54d" target="_top" xlink:title=" ">
<polygon fill="white" stroke="#666666" points="890.5,-171.25 808.5,-171.25 808.5,-152 890.5,-152 890.5,-171.25"/>
<text xml:space="preserve" text-anchor="middle" x="849.5" y="-157.75" font-family="Helvetica,sans-Serif" font-size="10.00">add_free_block</text>
</a>
</g>
</g>
<!-- Node12&#45;&gt;Node13 -->
<g id="edge14_Node000012_Node000013" class="edge">
<title>Node12&#45;&gt;Node13</title>
<g id="a_edge14_Node000012_Node000013"><a xlink:title=" ">
<path fill="none" stroke="#63b8ff" d="M764.42,-161.62C774.68,-161.62 785.9,-161.62 796.7,-161.62"/>
<polygon fill="#63b8ff" stroke="#63b8ff" points="796.67,-165.13 806.67,-161.63 796.67,-158.13 796.67,-165.13"/>
</a>
</g>
</g>
<!-- Node17 -->
<g id="Node000017" class="node">
<title>Node17</title>
<g id="a_Node000017"><a xlink:href="alloc_8c.html#a696771a6c693f71089a410fd62cb8a29" target="_top" xlink:title=" ">
<polygon fill="white" stroke="#666666" points="885.25,-134.25 813.75,-134.25 813.75,-115 885.25,-115 885.25,-134.25"/>
<text xml:space="preserve" text-anchor="middle" x="849.5" y="-120.75" font-family="Helvetica,sans-Serif" font-size="10.00">merge_block</text>
</a>
</g>
</g>
<!-- Node12&#45;&gt;Node17 -->
<g id="edge18_Node000012_Node000017" class="edge">
<title>Node12&#45;&gt;Node17</title>
<g id="a_edge18_Node000012_Node000017"><a xlink:title=" ">
<path fill="none" stroke="#63b8ff" d="M758.75,-151.51C772.63,-147.35 788.92,-142.48 803.77,-138.02"/>
<polygon fill="#63b8ff" stroke="#63b8ff" points="804.77,-141.38 813.34,-135.16 802.76,-134.67 804.77,-141.38"/>
</a>
</g>
</g>
<!-- Node18 -->
<g id="Node000018" class="node">
<title>Node18</title>
<g id="a_Node000018"><a xlink:href="alloc_8c.html#a87aaed59b60a8efef0f064c04abbd359" target="_top" xlink:title=" ">
<polygon fill="white" stroke="#666666" points="898.75,-208.25 800.25,-208.25 800.25,-189 898.75,-189 898.75,-208.25"/>
<text xml:space="preserve" text-anchor="middle" x="849.5" y="-194.75" font-family="Helvetica,sans-Serif" font-size="10.00">remove_free_block</text>
</a>
</g>
</g>
<!-- Node12&#45;&gt;Node18 -->
<g id="edge19_Node000012_Node000018" class="edge">
<title>Node12&#45;&gt;Node18</title>
<g id="a_edge19_Node000012_Node000018"><a xlink:title=" ">
<path fill="none" stroke="#63b8ff" d="M758.75,-171.74C772.63,-175.9 788.92,-180.77 803.77,-185.23"/>
<polygon fill="#63b8ff" stroke="#63b8ff" points="802.76,-188.58 813.34,-188.09 804.77,-181.87 802.76,-188.58"/>
</a>
</g>
</g>
<!-- Node14 -->
<g id="Node000014" class="node">
<title>Node14</title>
<g id="a_Node000014"><a xlink:href="alloc_8c.html#a10f255e05f2f49686909348175f3a5ef" target="_top" xlink:title=" ">
<polygon fill="white" stroke="#666666" points="997.25,-189.25 934.75,-189.25 934.75,-170 997.25,-170 997.25,-189.25"/>
<text xml:space="preserve" text-anchor="middle" x="966" y="-175.75" font-family="Helvetica,sans-Serif" font-size="10.00">calc_index</text>
</a>
</g>
</g>
<!-- Node13&#45;&gt;Node14 -->
<g id="edge15_Node000013_Node000014" class="edge">
<title>Node13&#45;&gt;Node14</title>
<g id="a_edge15_Node000013_Node000014"><a xlink:title=" ">
<path fill="none" stroke="#63b8ff" d="M890.87,-167.97C901.37,-169.62 912.69,-171.4 923.26,-173.06"/>
<polygon fill="#63b8ff" stroke="#63b8ff" points="922.43,-176.48 932.86,-174.57 923.52,-169.56 922.43,-176.48"/>
</a>
</g>
</g>
<!-- Node15 -->
<g id="Node000015" class="node">
<title>Node15</title>
<g id="a_Node000015"><a xlink:href="alloc_8c.html#ab77fd7c768950db893e8736d4a27b771" target="_top" xlink:title=" ">
<polygon fill="white" stroke="#666666" points="1072.5,-208.25 1033.25,-208.25 1033.25,-189 1072.5,-189 1072.5,-208.25"/>
<text xml:space="preserve" text-anchor="middle" x="1052.88" y="-194.75" font-family="Helvetica,sans-Serif" font-size="10.00">nlz16</text>
</a>
</g>
</g>
<!-- Node14&#45;&gt;Node15 -->
<g id="edge16_Node000014_Node000015" class="edge">
<title>Node14&#45;&gt;Node15</title>
<g id="a_edge16_Node000014_Node000015"><a xlink:title=" ">
<path fill="none" stroke="#63b8ff" d="M997.64,-186.48C1005.46,-188.23 1013.86,-190.12 1021.66,-191.86"/>
<polygon fill="#63b8ff" stroke="#63b8ff" points="1020.88,-195.27 1031.4,-194.04 1022.41,-188.44 1020.88,-195.27"/>
</a>
</g>
</g>
<!-- Node16 -->
<g id="Node000016" class="node">
<title>Node16</title>
<g id="a_Node000016"><a xlink:href="c__numeric_8c.html#a750ec222833802c9789cee1f456cfb21" target="_top" xlink:title=" ">
<polygon fill="white" stroke="#666666" points="1070.25,-171.25 1035.5,-171.25 1035.5,-152 1070.25,-152 1070.25,-171.25"/>
<text xml:space="preserve" text-anchor="middle" x="1052.88" y="-157.75" font-family="Helvetica,sans-Serif" font-size="10.00">shift</text>
</a>
</g>
</g>
<!-- Node14&#45;&gt;Node16 -->
<g id="edge17_Node000014_Node000016" class="edge">
<title>Node14&#45;&gt;Node16</title>
<g id="a_edge17_Node000014_Node000016"><a xlink:title=" ">
<path fill="none" stroke="#63b8ff" d="M997.64,-173.13C1006.29,-171.29 1015.65,-169.31 1024.12,-167.51"/>
<polygon fill="#63b8ff" stroke="#63b8ff" points="1024.8,-170.95 1033.85,-165.45 1023.34,-164.1 1024.8,-170.95"/>
</a>
</g>
</g>
<!-- Node18&#45;&gt;Node14 -->
<g id="edge20_Node000018_Node000014" class="edge">
<title>Node18&#45;&gt;Node14</title>
<g id="a_edge20_Node000018_Node000014"><a xlink:title=" ">
<path fill="none" stroke="#63b8ff" d="M899.06,-190.57C907.08,-189.24 915.34,-187.86 923.19,-186.56"/>
<polygon fill="#63b8ff" stroke="#63b8ff" points="923.52,-190.06 932.81,-184.97 922.37,-183.15 923.52,-190.06"/>
</a>
</g>
</g>
</g>
</svg>

<g id="navigator" transform="translate(0 0)" fill="#404254">
  <rect fill="#f2f5e9" fill-opacity="0.5" stroke="#606060" stroke-width=".5" x="0" y="0" width="60" height="60"/>
  <use id="zoomplus" xlink:href="#zoomPlus" x="17" y="9" onmousedown="handleZoom(evt,'in')"/>
  <use id="zoomminus" xlink:href="#zoomMin" x="42" y="9" onmousedown="handleZoom(evt,'out')"/>
  <use id="reset" xlink:href="#resetDef" x="30" y="36" onmousedown="handleReset()"/>
   <use id="arrowup" xlink:href="#arrowUp" x="0" y="0" onmousedown="handlePan(0,-1)"/>
  <use id="arrowright" xlink:href="#arrowRight" x="0" y="0" onmousedown="handlePan(1,0)"/>
  <use id="arrowdown" xlink:href="#arrowDown" x="0" y="0" onmousedown="handlePan(0,1)"/>
  <use id="arrowleft" xlink:href="#arrowLeft" x="0" y="0" onmousedown="handlePan(-1,0)"/>
</g>
<svg viewBox="0 0 15 15" width="100%" height="30px" preserveAspectRatio="xMaxYMin meet">
 <g id="arrow_out" transform="scale(0.3 0.3)">
  <a xlink:href="vm_8c_a79677f042c875763c1de50667019aada_cgraph_org.svg" target="_base">
   <rect id="button" ry="5" rx="5" y="6" x="6" height="38" width="38"
        fill="#f2f5e9" fill-opacity="0.5" stroke="#606060" stroke-width="1.0"/>
   <path id="arrow"
     d="M 11.500037,31.436501 C 11.940474,20.09759 22.043105,11.32322 32.158766,21.979434 L 37.068811,17.246167 C 37.068811,17.246167 37.088388,32 37.088388,32 L 22.160133,31.978069 C 22.160133,31.978069 26.997745,27.140456 26.997745,27.140456 C 18.528582,18.264221 13.291696,25.230495 11.500037,31.436501 z"
     style="fill:#404040;"/>
  </a>
 </g>
</svg>

<style type='text/css'>
<![CDATA[
[data-mouse-over-selected='false'] { opacity: 0.7; }
[data-mouse-over-selected='true']  { opacity: 1.0; }
]]>
</style>
<script type="application/ecmascript"><![CDATA[
document.addEventListener('DOMContentLoaded', (event) => {
  highlightEdges();
  highlightAdjacentNodes();
});
]]></script>
</svg>
