<?xml version="1.0" encoding="UTF-8" standalone="no"?>
<!DOCTYPE svg PUBLIC "-//W3C//DTD SVG 1.1//EN"
 "http://www.w3.org/Graphics/SVG/1.1/DTD/svg11.dtd">
<!-- Generated by graphviz version 15.1.0 (20260618.0150)
 -->
<!-- Title: sub_irep_inc_dec_ref Pages: 1 -->
<svg width="876pt" height="129pt"
 viewBox="0.00 0.00 876.00 129.00" xmlns="http://www.w3.org/2000/svg" xmlns:xlink="http://www.w3.org/1999/xlink">
<g id="graph0" class="graph" transform="scale(1 1) rotate(0) translate(4 125.25)">
<title>sub_irep_inc_dec_ref</title>
<!-- Node1 -->
<g id="Node000001" class="node">
<title>Node1</title>
<g id="a_Node000001"><a xlink:title=" ">
<polygon fill="#999999" stroke="#666666" points="867.5,-92.25 759.25,-92.25 759.25,-73 867.5,-73 867.5,-92.25"/>
<text xml:space="preserve" text-anchor="middle" x="813.38" y="-78.75" font-family="Helvetica,sans-Serif" font-size="10.00">sub_irep_inc_dec_ref</text>
</a>
</g>
</g>
<!-- Node1&#45;&gt;Node1 -->
<g id="edge1_Node000001_Node000001" class="edge">
<title>Node1&#45;&gt;Node1</title>
<g id="a_edge1_Node000001_Node000001"><a xlink:title=" ">
<path fill="none" stroke="#63b8ff" d="M837.12,-103.65C834.15,-107.53 826.23,-110.25 813.38,-110.25 789.86,-110.25 782.88,-101.15 792.44,-92.54"/>
<polygon fill="#63b8ff" stroke="#63b8ff" points="840.52,-102.85 834.68,-94.01 833.73,-104.56 840.52,-102.85"/>
</a>
</g>
</g>
<!-- Node2 -->
<g id="Node000002" class="node">
<title>Node2</title>
<g id="a_Node000002"><a xlink:href="vm_8c.html#a913826ee0838e9d048af047ab82dd5b7" target="_top" xlink:title=" ">
<polygon fill="white" stroke="#666666" points="723.25,-92.25 636,-92.25 636,-73 723.25,-73 723.25,-92.25"/>
<text xml:space="preserve" text-anchor="middle" x="679.62" y="-78.75" font-family="Helvetica,sans-Serif" font-size="10.00">sub_newmethod</text>
</a>
</g>
</g>
<!-- Node1&#45;&gt;Node2 -->
<g id="edge2_Node000001_Node000002" class="edge">
<title>Node1&#45;&gt;Node2</title>
<g id="a_edge2_Node000001_Node000002"><a xlink:title=" ">
<path fill="none" stroke="#63b8ff" d="M747.45,-82.62C739.38,-82.62 731.29,-82.62 723.67,-82.62"/>
<polygon fill="#63b8ff" stroke="#63b8ff" points="747.27,-86.13 757.27,-82.63 747.27,-79.13 747.27,-86.13"/>
</a>
</g>
</g>
<!-- Node3 -->
<g id="Node000003" class="node">
<title>Node3</title>
<g id="a_Node000003"><a xlink:href="vm_8c.html#a2ce2559362d38ef8fcc2aa03eb51a2d8" target="_top" xlink:title=" ">
<polygon fill="white" stroke="#666666" points="592.88,-121.25 540.88,-121.25 540.88,-102 592.88,-102 592.88,-121.25"/>
<text xml:space="preserve" text-anchor="middle" x="566.88" y="-107.75" font-family="Helvetica,sans-Serif" font-size="10.00">op_alias</text>
</a>
</g>
</g>
<!-- Node2&#45;&gt;Node3 -->
<g id="edge3_Node000002_Node000003" class="edge">
<title>Node2&#45;&gt;Node3</title>
<g id="a_edge3_Node000002_Node000003"><a xlink:title=" ">
<path fill="none" stroke="#63b8ff" d="M629.43,-95.51C616.98,-98.77 604.11,-102.14 593.37,-104.95"/>
<polygon fill="#63b8ff" stroke="#63b8ff" points="629.95,-98.99 638.74,-93.07 628.18,-92.22 629.95,-98.99"/>
</a>
</g>
</g>
<!-- Node9 -->
<g id="Node000009" class="node">
<title>Node9</title>
<g id="a_Node000009"><a xlink:href="vm_8c.html#a656cbf3e05e76aec1ba5167f4ae70fb0" target="_top" xlink:title=" ">
<polygon fill="white" stroke="#666666" points="600,-74.25 533.75,-74.25 533.75,-55 600,-55 600,-74.25"/>
<text xml:space="preserve" text-anchor="middle" x="566.88" y="-60.75" font-family="Helvetica,sans-Serif" font-size="10.00">sub_op_def</text>
</a>
</g>
</g>
<!-- Node2&#45;&gt;Node9 -->
<g id="edge9_Node000002_Node000009" class="edge">
<title>Node2&#45;&gt;Node9</title>
<g id="a_edge9_Node000002_Node000009"><a xlink:title=" ">
<path fill="none" stroke="#63b8ff" d="M624.57,-73.84C616.26,-72.49 607.91,-71.13 600.27,-69.89"/>
<polygon fill="#63b8ff" stroke="#63b8ff" points="623.88,-77.27 634.31,-75.42 625,-70.36 623.88,-77.27"/>
</a>
</g>
</g>
<!-- Node4 -->
<g id="Node000004" class="node">
<title>Node4</title>
<g id="a_Node000004"><a xlink:href="vm_8c.html#aa60d1dd27f07546d0c60b082f32360d8" target="_top" xlink:title=" ">
<polygon fill="white" stroke="#666666" points="411.25,-74.25 336,-74.25 336,-55 411.25,-55 411.25,-74.25"/>
<text xml:space="preserve" text-anchor="middle" x="373.62" y="-60.75" font-family="Helvetica,sans-Serif" font-size="10.00">mrbc_vm_run</text>
</a>
</g>
</g>
<!-- Node3&#45;&gt;Node4 -->
<g id="edge4_Node000003_Node000004" class="edge">
<title>Node3&#45;&gt;Node4</title>
<g id="a_edge4_Node000003_Node000004"><a xlink:title=" ">
<path fill="none" stroke="#63b8ff" d="M529.48,-112.64C505.65,-112.39 474.09,-110.31 447.25,-102.62 425.91,-96.51 403.61,-83.74 389.44,-74.69"/>
<polygon fill="#63b8ff" stroke="#63b8ff" points="529.32,-116.14 539.31,-112.63 529.31,-109.14 529.32,-116.14"/>
</a>
</g>
</g>
<!-- Node5 -->
<g id="Node000005" class="node">
<title>Node5</title>
<g id="a_Node000005"><a xlink:href="rrt0_8c.html#ae684e409f06a0a28190d3961151737df" target="_top" xlink:title=" ">
<polygon fill="white" stroke="#666666" points="284.25,-93.25 227.75,-93.25 227.75,-74 284.25,-74 284.25,-93.25"/>
<text xml:space="preserve" text-anchor="middle" x="256" y="-79.75" font-family="Helvetica,sans-Serif" font-size="10.00">mrbc_run</text>
</a>
</g>
</g>
<!-- Node4&#45;&gt;Node5 -->
<g id="edge5_Node000004_Node000005" class="edge">
<title>Node4&#45;&gt;Node5</title>
<g id="a_edge5_Node000004_Node000005"><a xlink:title=" ">
<path fill="none" stroke="#63b8ff" d="M324.48,-72.54C310.8,-74.78 296.38,-77.15 284.4,-79.12"/>
<polygon fill="#63b8ff" stroke="#63b8ff" points="324.93,-76.01 334.23,-70.93 323.79,-69.1 324.93,-76.01"/>
</a>
</g>
</g>
<!-- Node6 -->
<g id="Node000006" class="node">
<title>Node6</title>
<g id="a_Node000006"><a xlink:href="class_8c.html#ad12d568598d06f67848857cff37c4a58" target="_top" xlink:title=" ">
<polygon fill="white" stroke="#666666" points="300,-56.25 212,-56.25 212,-37 300,-37 300,-56.25"/>
<text xml:space="preserve" text-anchor="middle" x="256" y="-42.75" font-family="Helvetica,sans-Serif" font-size="10.00">mrbc_run_mrblib</text>
</a>
</g>
</g>
<!-- Node4&#45;&gt;Node6 -->
<g id="edge6_Node000004_Node000006" class="edge">
<title>Node4&#45;&gt;Node6</title>
<g id="a_edge6_Node000004_Node000006"><a xlink:title=" ">
<path fill="none" stroke="#63b8ff" d="M324.62,-57.15C316.59,-55.9 308.31,-54.61 300.41,-53.38"/>
<polygon fill="#63b8ff" stroke="#63b8ff" points="323.81,-60.57 334.23,-58.65 324.88,-53.65 323.81,-60.57"/>
</a>
</g>
</g>
<!-- Node7 -->
<g id="Node000007" class="node">
<title>Node7</title>
<g id="a_Node000007"><a xlink:href="class_8c.html#a33245c1a2325726c07d41ee637fe943d" target="_top" xlink:title=" ">
<polygon fill="white" stroke="#666666" points="176,-56.25 91.75,-56.25 91.75,-37 176,-37 176,-56.25"/>
<text xml:space="preserve" text-anchor="middle" x="133.88" y="-42.75" font-family="Helvetica,sans-Serif" font-size="10.00">mrbc_init_class</text>
</a>
</g>
</g>
<!-- Node6&#45;&gt;Node7 -->
<g id="edge7_Node000006_Node000007" class="edge">
<title>Node6&#45;&gt;Node7</title>
<g id="a_edge7_Node000006_Node000007"><a xlink:title=" ">
<path fill="none" stroke="#63b8ff" d="M200.31,-46.62C192.2,-46.62 183.95,-46.62 176.17,-46.62"/>
<polygon fill="#63b8ff" stroke="#63b8ff" points="200.12,-50.13 210.12,-46.63 200.12,-43.13 200.12,-50.13"/>
</a>
</g>
</g>
<!-- Node8 -->
<g id="Node000008" class="node">
<title>Node8</title>
<g id="a_Node000008"><a xlink:href="rrt0_8c.html#a3790d80a30b7528debb507271c042f0e" target="_top" xlink:title=" ">
<polygon fill="white" stroke="#666666" points="55.75,-56.25 0,-56.25 0,-37 55.75,-37 55.75,-56.25"/>
<text xml:space="preserve" text-anchor="middle" x="27.88" y="-42.75" font-family="Helvetica,sans-Serif" font-size="10.00">mrbc_init</text>
</a>
</g>
</g>
<!-- Node7&#45;&gt;Node8 -->
<g id="edge8_Node000007_Node000008" class="edge">
<title>Node7&#45;&gt;Node8</title>
<g id="a_edge8_Node000007_Node000008"><a xlink:title=" ">
<path fill="none" stroke="#63b8ff" d="M80.17,-46.62C71.84,-46.62 63.53,-46.62 56.1,-46.62"/>
<polygon fill="#63b8ff" stroke="#63b8ff" points="79.96,-50.13 89.96,-46.63 79.96,-43.13 79.96,-50.13"/>
</a>
</g>
</g>
<!-- Node10 -->
<g id="Node000010" class="node">
<title>Node10</title>
<g id="a_Node000010"><a xlink:href="vm_8c.html#a272bea95951eacaa85a9190426710c1a" target="_top" xlink:title=" ">
<polygon fill="white" stroke="#666666" points="495.12,-93.25 449.88,-93.25 449.88,-74 495.12,-74 495.12,-93.25"/>
<text xml:space="preserve" text-anchor="middle" x="472.5" y="-79.75" font-family="Helvetica,sans-Serif" font-size="10.00">op_def</text>
</a>
</g>
</g>
<!-- Node9&#45;&gt;Node10 -->
<g id="edge10_Node000009_Node000010" class="edge">
<title>Node9&#45;&gt;Node10</title>
<g id="a_edge10_Node000009_Node000010"><a xlink:title=" ">
<path fill="none" stroke="#63b8ff" d="M522.14,-73.62C512.84,-75.53 503.42,-77.47 495.37,-79.13"/>
<polygon fill="#63b8ff" stroke="#63b8ff" points="522.73,-77.07 531.82,-71.63 521.32,-70.22 522.73,-77.07"/>
</a>
</g>
</g>
<!-- Node11 -->
<g id="Node000011" class="node">
<title>Node11</title>
<g id="a_Node000011"><a xlink:href="vm_8c.html#a18d3d5cc4e9a140c3e368da921a115a8" target="_top" xlink:title=" ">
<polygon fill="white" stroke="#666666" points="497.75,-56.25 447.25,-56.25 447.25,-37 497.75,-37 497.75,-56.25"/>
<text xml:space="preserve" text-anchor="middle" x="472.5" y="-42.75" font-family="Helvetica,sans-Serif" font-size="10.00">op_sdef</text>
</a>
</g>
</g>
<!-- Node9&#45;&gt;Node11 -->
<g id="edge12_Node000009_Node000011" class="edge">
<title>Node9&#45;&gt;Node11</title>
<g id="a_edge12_Node000009_Node000011"><a xlink:title=" ">
<path fill="none" stroke="#63b8ff" d="M522.23,-56.12C513.99,-54.51 505.63,-52.89 498.23,-51.44"/>
<polygon fill="#63b8ff" stroke="#63b8ff" points="521.34,-59.51 531.82,-57.99 522.68,-52.64 521.34,-59.51"/>
</a>
</g>
</g>
<!-- Node12 -->
<g id="Node000012" class="node">
<title>Node12</title>
<g id="a_Node000012"><a xlink:href="vm_8c.html#a2cb1bf74012cbe0f863d8b48faef1e5b" target="_top" xlink:title=" ">
<polygon fill="white" stroke="#666666" points="496.62,-19.25 448.38,-19.25 448.38,0 496.62,0 496.62,-19.25"/>
<text xml:space="preserve" text-anchor="middle" x="472.5" y="-5.75" font-family="Helvetica,sans-Serif" font-size="10.00">op_tdef</text>
</a>
</g>
</g>
<!-- Node9&#45;&gt;Node12 -->
<g id="edge14_Node000009_Node000012" class="edge">
<title>Node9&#45;&gt;Node12</title>
<g id="a_edge14_Node000009_Node000012"><a xlink:title=" ">
<path fill="none" stroke="#63b8ff" d="M539.21,-48.75C523.45,-39.37 503.98,-27.77 490.34,-19.65"/>
<polygon fill="#63b8ff" stroke="#63b8ff" points="537.25,-51.65 547.63,-53.76 540.83,-45.64 537.25,-51.65"/>
</a>
</g>
</g>
<!-- Node10&#45;&gt;Node4 -->
<g id="edge11_Node000010_Node000004" class="edge">
<title>Node10&#45;&gt;Node4</title>
<g id="a_edge11_Node000010_Node000004"><a xlink:title=" ">
<path fill="none" stroke="#63b8ff" d="M438.37,-77.13C429.79,-75.44 420.5,-73.62 411.72,-71.9"/>
<polygon fill="#63b8ff" stroke="#63b8ff" points="437.55,-80.53 448.03,-79.02 438.89,-73.66 437.55,-80.53"/>
</a>
</g>
</g>
<!-- Node11&#45;&gt;Node4 -->
<g id="edge13_Node000011_Node000004" class="edge">
<title>Node11&#45;&gt;Node4</title>
<g id="a_edge13_Node000011_Node000004"><a xlink:title=" ">
<path fill="none" stroke="#63b8ff" d="M435.49,-53.32C427.74,-54.76 419.52,-56.28 411.72,-57.73"/>
<polygon fill="#63b8ff" stroke="#63b8ff" points="436.12,-56.76 445.32,-51.49 434.84,-49.88 436.12,-56.76"/>
</a>
</g>
</g>
<!-- Node12&#45;&gt;Node4 -->
<g id="edge15_Node000012_Node000004" class="edge">
<title>Node12&#45;&gt;Node4</title>
<g id="a_edge15_Node000012_Node000004"><a xlink:title=" ">
<path fill="none" stroke="#63b8ff" d="M444.01,-25.23C427.4,-34.66 406.72,-46.4 392.28,-54.6"/>
<polygon fill="#63b8ff" stroke="#63b8ff" points="445.45,-28.44 452.42,-20.46 441.99,-22.35 445.45,-28.44"/>
</a>
</g>
</g>
</g>
</svg>
