<?xml version="1.0" encoding="UTF-8" standalone="no"?>
<!DOCTYPE svg PUBLIC "-//W3C//DTD SVG 1.1//EN"
 "http://www.w3.org/Graphics/SVG/1.1/DTD/svg11.dtd">
<!-- Generated by graphviz version 15.1.0 (20260618.0150)
 -->
<!-- Title: sub_define_class_or_module Pages: 1 -->
<!--zoomable 150 -->

<svg id="main" version="1.1" xmlns="http://www.w3.org/2000/svg" xmlns:xlink="http://www.w3.org/1999/xlink" xml:space="preserve" onload="init(evt)">

<style type="text/css"><![CDATA[
.node, .edge {opacity: 0.7;}
.node.selected, .edge.selected {opacity: 1;}
.edge:hover path { stroke: red; }
.edge:hover polygon { stroke: red; fill: red; }
]]></style>

<defs>
  <circle id="rim" cx="0" cy="0" r="7"/>
  <circle id="rim2" cx="0" cy="0" r="3.5"/>
  <g id="zoomPlus">
    <use xlink:href="#rim" fill="#404040"><set attributeName="fill" to="#808080" begin="zoomplus.mouseover" end="zoomplus.mouseout"/></use>
    <path d="M-4,0h8M0,-4v8" fill="none" stroke="white" stroke-width="1.5" pointer-events="none"/>
  </g>
  <g id="zoomMin">
    <use xlink:href="#rim" fill="#404040"><set attributeName="fill" to="#808080" begin="zoomminus.mouseover" end="zoomminus.mouseout"/></use>
    <path d="M-4,0h8" fill="none" stroke="white" stroke-width="1.5" pointer-events="none"/>
  </g>
  <g id="arrowUp" transform="translate(30 24)">
    <use xlink:href="#rim"/>
    <path pointer-events="none" fill="none" stroke="white" stroke-width="1.5" d="M0,-3.0v7 M-2.5,-0.5L0,-3.0L2.5,-0.5"/>
  </g>
  <g id="arrowRight" transform="rotate(90) translate(36 -43)">
    <use xlink:href="#rim"/>
    <path pointer-events="none" fill="none" stroke="white" stroke-width="1.5" d="M0,-3.0v7 M-2.5,-0.5L0,-3.0L2.5,-0.5"/>
  </g>
  <g id="arrowDown" transform="rotate(180) translate(-30 -48)">
    <use xlink:href="#rim"/>
    <path pointer-events="none" fill="none" stroke="white" stroke-width="1.5" d="M0,-3.0v7 M-2.5,-0.5L0,-3.0L2.5,-0.5"/>
  </g>
  <g id="arrowLeft" transform="rotate(270) translate(-36 17)">
    <use xlink:href="#rim"/>
    <path pointer-events="none" fill="none" stroke="white" stroke-width="1.5" d="M0,-3.0v7 M-2.5,-0.5L0,-3.0L2.5,-0.5"/>
  </g>
  <g id="resetDef">
    <use xlink:href="#rim2" fill="#404040"><set attributeName="fill" to="#808080" begin="reset.mouseover" end="reset.mouseout"/></use>
  </g>
</defs>
<script type="application/ecmascript">
var viewWidth = 919;
var viewHeight = 150;
var sectionId = 'dynsection-34';
</script>
<script type="application/ecmascript" xlink:href="svg.min.js"/>
<svg id="graph" class="graph">
<g id="viewport">
<title>sub_define_class_or_module</title>
<!-- Node1 -->
<g id="Node000001" class="node">
<title>Node1</title>
<g id="a_Node000001"><a xlink:title=" ">
<polygon fill="#999999" stroke="#666666" points="910.75,-82.88 805.5,-82.88 805.5,-52.38 910.75,-52.38 910.75,-82.88"/>
<text xml:space="preserve" text-anchor="start" x="813.5" y="-69.38" font-family="Helvetica,sans-Serif" font-size="10.00">sub_define_class_or</text>
<text xml:space="preserve" text-anchor="middle" x="858.12" y="-58.12" font-family="Helvetica,sans-Serif" font-size="10.00">_module</text>
</a>
</g>
</g>
<!-- Node2 -->
<g id="Node000002" class="node">
<title>Node2</title>
<g id="a_Node000002"><a xlink:href="class_8c.html#afe2ecc71369716c4868b52dd603832a9" target="_top" xlink:title=" ">
<polygon fill="white" stroke="#666666" points="754.88,-56.25 657.12,-56.25 657.12,-37 754.88,-37 754.88,-56.25"/>
<text xml:space="preserve" text-anchor="middle" x="706" y="-42.75" font-family="Helvetica,sans-Serif" font-size="10.00">mrbc_define_class</text>
</a>
</g>
</g>
<!-- Node1&#45;&gt;Node2 -->
<g id="edge1_Node000001_Node000002" class="edge">
<title>Node1&#45;&gt;Node2</title>
<g id="a_edge1_Node000001_Node000002"><a xlink:title=" ">
<path fill="none" stroke="#63b8ff" d="M793.84,-58.77C780.92,-56.96 767.51,-55.09 755.21,-53.37"/>
<polygon fill="#63b8ff" stroke="#63b8ff" points="793.15,-62.21 803.54,-60.13 794.12,-55.28 793.15,-62.21"/>
</a>
</g>
</g>
<!-- Node10 -->
<g id="Node000010" class="node">
<title>Node10</title>
<g id="a_Node000010"><a xlink:href="class_8c.html#aed6d762996964477830b217ae49f8796" target="_top" xlink:title=" ">
<polygon fill="white" stroke="#666666" points="769.5,-19.25 642.5,-19.25 642.5,0 769.5,0 769.5,-19.25"/>
<text xml:space="preserve" text-anchor="middle" x="706" y="-5.75" font-family="Helvetica,sans-Serif" font-size="10.00">mrbc_define_class_under</text>
</a>
</g>
</g>
<!-- Node1&#45;&gt;Node10 -->
<g id="edge9_Node000001_Node000010" class="edge">
<title>Node1&#45;&gt;Node10</title>
<g id="a_edge9_Node000001_Node000010"><a xlink:title=" ">
<path fill="none" stroke="#63b8ff" d="M815.83,-47.26C801.37,-40.53 784.9,-33.32 769.5,-27.62 761.77,-24.77 753.37,-22.07 745.3,-19.68"/>
<polygon fill="#63b8ff" stroke="#63b8ff" points="814.06,-50.29 824.59,-51.39 817.04,-43.96 814.06,-50.29"/>
</a>
</g>
</g>
<!-- Node12 -->
<g id="Node000012" class="node">
<title>Node12</title>
<g id="a_Node000012"><a xlink:href="class_8c.html#ac36d863018ac03686975116e08bc5f66" target="_top" xlink:title=" ">
<polygon fill="white" stroke="#666666" points="759,-142.25 653,-142.25 653,-123 759,-123 759,-142.25"/>
<text xml:space="preserve" text-anchor="middle" x="706" y="-128.75" font-family="Helvetica,sans-Serif" font-size="10.00">mrbc_define_module</text>
</a>
</g>
</g>
<!-- Node1&#45;&gt;Node12 -->
<g id="edge13_Node000001_Node000012" class="edge">
<title>Node1&#45;&gt;Node12</title>
<g id="a_edge13_Node000001_Node000012"><a xlink:title=" ">
<path fill="none" stroke="#63b8ff" d="M820.81,-88.65C805.32,-97.11 786.84,-106.51 769.5,-113.62 761.53,-116.9 752.78,-119.9 744.42,-122.51"/>
<polygon fill="#63b8ff" stroke="#63b8ff" points="822.15,-91.92 829.2,-84.01 818.75,-85.79 822.15,-91.92"/>
</a>
</g>
</g>
<!-- Node14 -->
<g id="Node000014" class="node">
<title>Node14</title>
<g id="a_Node000014"><a xlink:href="class_8c.html#a4b4d1d77b1d9cb2c06523cdff0d079d2" target="_top" xlink:title=" ">
<polygon fill="white" stroke="#666666" points="759,-104.88 653,-104.88 653,-74.38 759,-74.38 759,-104.88"/>
<text xml:space="preserve" text-anchor="start" x="661" y="-91.38" font-family="Helvetica,sans-Serif" font-size="10.00">mrbc_define_module</text>
<text xml:space="preserve" text-anchor="middle" x="706" y="-80.12" font-family="Helvetica,sans-Serif" font-size="10.00">_under</text>
</a>
</g>
</g>
<!-- Node1&#45;&gt;Node14 -->
<g id="edge16_Node000001_Node000014" class="edge">
<title>Node1&#45;&gt;Node14</title>
<g id="a_edge16_Node000001_Node000014"><a xlink:title=" ">
<path fill="none" stroke="#63b8ff" d="M793.72,-76.92C782.23,-78.6 770.37,-80.34 759.25,-81.97"/>
<polygon fill="#63b8ff" stroke="#63b8ff" points="794.16,-80.39 803.54,-75.48 793.14,-73.46 794.16,-80.39"/>
</a>
</g>
</g>
<!-- Node3 -->
<g id="Node000003" class="node">
<title>Node3</title>
<g id="a_Node000003"><a xlink:href="vm_8c.html#a53ac5608ade8b83ff4d489007a757709" target="_top" xlink:title=" ">
<polygon fill="white" stroke="#666666" points="602.38,-57.25 547.38,-57.25 547.38,-38 602.38,-38 602.38,-57.25"/>
<text xml:space="preserve" text-anchor="middle" x="574.88" y="-43.75" font-family="Helvetica,sans-Serif" font-size="10.00">op_class</text>
</a>
</g>
</g>
<!-- Node2&#45;&gt;Node3 -->
<g id="edge2_Node000002_Node000003" class="edge">
<title>Node2&#45;&gt;Node3</title>
<g id="a_edge2_Node000002_Node000003"><a xlink:title=" ">
<path fill="none" stroke="#63b8ff" d="M645.55,-47.09C630.52,-47.2 615.12,-47.32 602.63,-47.42"/>
<polygon fill="#63b8ff" stroke="#63b8ff" points="645.43,-50.59 655.41,-47.01 645.38,-43.59 645.43,-50.59"/>
</a>
</g>
</g>
<!-- Node4 -->
<g id="Node000004" class="node">
<title>Node4</title>
<g id="a_Node000004"><a xlink:href="vm_8c.html#aa60d1dd27f07546d0c60b082f32360d8" target="_top" xlink:title=" ">
<polygon fill="white" stroke="#666666" points="489.25,-75.25 414,-75.25 414,-56 489.25,-56 489.25,-75.25"/>
<text xml:space="preserve" text-anchor="middle" x="451.62" y="-61.75" font-family="Helvetica,sans-Serif" font-size="10.00">mrbc_vm_run</text>
</a>
</g>
</g>
<!-- Node3&#45;&gt;Node4 -->
<g id="edge3_Node000003_Node000004" class="edge">
<title>Node3&#45;&gt;Node4</title>
<g id="a_edge3_Node000003_Node000004"><a xlink:title=" ">
<path fill="none" stroke="#63b8ff" d="M535.68,-53.3C520.96,-55.48 504.18,-57.97 489.58,-60.14"/>
<polygon fill="#63b8ff" stroke="#63b8ff" points="536.09,-56.77 545.47,-51.84 535.06,-49.85 536.09,-56.77"/>
</a>
</g>
</g>
<!-- Node5 -->
<g id="Node000005" class="node">
<title>Node5</title>
<g id="a_Node000005"><a xlink:href="rrt0_8c.html#ae684e409f06a0a28190d3961151737df" target="_top" xlink:title=" ">
<polygon fill="white" stroke="#666666" points="344.25,-57.25 287.75,-57.25 287.75,-38 344.25,-38 344.25,-57.25"/>
<text xml:space="preserve" text-anchor="middle" x="316" y="-43.75" font-family="Helvetica,sans-Serif" font-size="10.00">mrbc_run</text>
</a>
</g>
</g>
<!-- Node4&#45;&gt;Node5 -->
<g id="edge4_Node000004_Node000005" class="edge">
<title>Node4&#45;&gt;Node5</title>
<g id="a_edge4_Node000004_Node000005"><a xlink:title=" ">
<path fill="none" stroke="#63b8ff" d="M402.58,-59.15C383.04,-56.52 361.16,-53.57 344.42,-51.32"/>
<polygon fill="#63b8ff" stroke="#63b8ff" points="401.88,-62.59 412.26,-60.46 402.81,-55.65 401.88,-62.59"/>
</a>
</g>
</g>
<!-- Node6 -->
<g id="Node000006" class="node">
<title>Node6</title>
<g id="a_Node000006"><a xlink:href="class_8c.html#ad12d568598d06f67848857cff37c4a58" target="_top" xlink:title=" ">
<polygon fill="white" stroke="#666666" points="360,-94.25 272,-94.25 272,-75 360,-75 360,-94.25"/>
<text xml:space="preserve" text-anchor="middle" x="316" y="-80.75" font-family="Helvetica,sans-Serif" font-size="10.00">mrbc_run_mrblib</text>
</a>
</g>
</g>
<!-- Node4&#45;&gt;Node6 -->
<g id="edge5_Node000004_Node000006" class="edge">
<title>Node4&#45;&gt;Node6</title>
<g id="a_edge5_Node000004_Node000006"><a xlink:title=" ">
<path fill="none" stroke="#63b8ff" d="M402.52,-72.46C388.76,-74.42 373.84,-76.54 360.38,-78.46"/>
<polygon fill="#63b8ff" stroke="#63b8ff" points="402.85,-75.95 412.26,-71.08 401.87,-69.02 402.85,-75.95"/>
</a>
</g>
</g>
<!-- Node7 -->
<g id="Node000007" class="node">
<title>Node7</title>
<g id="a_Node000007"><a xlink:href="class_8c.html#ab4ac4a017209001c79b0304df0b2cec5" target="_top" xlink:title=" ">
<polygon fill="white" stroke="#666666" points="236,-75.25 120.25,-75.25 120.25,-56 236,-56 236,-75.25"/>
<text xml:space="preserve" text-anchor="middle" x="178.12" y="-61.75" font-family="Helvetica,sans-Serif" font-size="10.00">mrbc_init_class_mrblib</text>
</a>
</g>
</g>
<!-- Node6&#45;&gt;Node7 -->
<g id="edge6_Node000006_Node000007" class="edge">
<title>Node6&#45;&gt;Node7</title>
<g id="a_edge6_Node000006_Node000007"><a xlink:title=" ">
<path fill="none" stroke="#63b8ff" d="M260.35,-76.98C252.48,-75.88 244.38,-74.75 236.47,-73.64"/>
<polygon fill="#63b8ff" stroke="#63b8ff" points="259.75,-80.43 270.14,-78.35 260.72,-73.5 259.75,-80.43"/>
</a>
</g>
</g>
<!-- Node8 -->
<g id="Node000008" class="node">
<title>Node8</title>
<g id="a_Node000008"><a xlink:href="rrt0_8c.html#a3790d80a30b7528debb507271c042f0e" target="_top" xlink:title=" ">
<polygon fill="white" stroke="#666666" points="70,-38.25 14.25,-38.25 14.25,-19 70,-19 70,-38.25"/>
<text xml:space="preserve" text-anchor="middle" x="42.12" y="-24.75" font-family="Helvetica,sans-Serif" font-size="10.00">mrbc_init</text>
</a>
</g>
</g>
<!-- Node7&#45;&gt;Node8 -->
<g id="edge7_Node000007_Node000008" class="edge">
<title>Node7&#45;&gt;Node8</title>
<g id="a_edge7_Node000007_Node000008"><a xlink:title=" ">
<path fill="none" stroke="#63b8ff" d="M129.48,-52.47C109.64,-46.99 87.32,-40.83 70.34,-36.14"/>
<polygon fill="#63b8ff" stroke="#63b8ff" points="128.48,-55.82 139.05,-55.11 130.34,-49.08 128.48,-55.82"/>
</a>
</g>
</g>
<!-- Node9 -->
<g id="Node000009" class="node">
<title>Node9</title>
<g id="a_Node000009"><a xlink:href="class_8c.html#a33245c1a2325726c07d41ee637fe943d" target="_top" xlink:title=" ">
<polygon fill="white" stroke="#666666" points="84.25,-75.25 0,-75.25 0,-56 84.25,-56 84.25,-75.25"/>
<text xml:space="preserve" text-anchor="middle" x="42.12" y="-61.75" font-family="Helvetica,sans-Serif" font-size="10.00">mrbc_init_class</text>
</a>
</g>
</g>
<!-- Node7&#45;&gt;Node9 -->
<g id="edge8_Node000007_Node000009" class="edge">
<title>Node7&#45;&gt;Node9</title>
<g id="a_edge8_Node000007_Node000009"><a xlink:title=" ">
<path fill="none" stroke="#63b8ff" d="M108.63,-65.62C100.33,-65.62 92.07,-65.62 84.35,-65.62"/>
<polygon fill="#63b8ff" stroke="#63b8ff" points="108.39,-69.13 118.39,-65.63 108.39,-62.13 108.39,-69.13"/>
</a>
</g>
</g>
<!-- Node10&#45;&gt;Node3 -->
<g id="edge12_Node000010_Node000003" class="edge">
<title>Node10&#45;&gt;Node3</title>
<g id="a_edge12_Node000010_Node000003"><a xlink:title=" ">
<path fill="none" stroke="#63b8ff" d="M658.6,-22.93C653.17,-24.5 647.71,-26.09 642.5,-27.62 629.41,-31.48 614.89,-35.82 602.76,-39.48"/>
<polygon fill="#63b8ff" stroke="#63b8ff" points="659.52,-26.3 668.16,-20.16 657.58,-19.58 659.52,-26.3"/>
</a>
</g>
</g>
<!-- Node11 -->
<g id="Node000011" class="node">
<title>Node11</title>
<g id="a_Node000011"><a xlink:href="c__task__queue_8c.html#ac61ba5bfb6660a9990c352a22bd48722" target="_top" xlink:title=" ">
<polygon fill="white" stroke="#666666" points="507.25,-19.25 396,-19.25 396,0 507.25,0 507.25,-19.25"/>
<text xml:space="preserve" text-anchor="middle" x="451.62" y="-5.75" font-family="Helvetica,sans-Serif" font-size="10.00">mrbc_init_task_queue</text>
</a>
</g>
</g>
<!-- Node10&#45;&gt;Node11 -->
<g id="edge10_Node000010_Node000011" class="edge">
<title>Node10&#45;&gt;Node11</title>
<g id="a_edge10_Node000010_Node000011"><a xlink:title=" ">
<path fill="none" stroke="#63b8ff" d="M630.88,-9.62C591.46,-9.62 543.82,-9.62 507.72,-9.62"/>
<polygon fill="#63b8ff" stroke="#63b8ff" points="630.78,-13.13 640.78,-9.63 630.78,-6.13 630.78,-13.13"/>
</a>
</g>
</g>
<!-- Node11&#45;&gt;Node8 -->
<g id="edge11_Node000011_Node000008" class="edge">
<title>Node11&#45;&gt;Node8</title>
<g id="a_edge11_Node000011_Node000008"><a xlink:title=" ">
<path fill="none" stroke="#63b8ff" d="M384.39,-12.71C293.43,-16.95 133.91,-24.39 70.37,-27.35"/>
<polygon fill="#63b8ff" stroke="#63b8ff" points="384.33,-16.22 394.16,-12.26 384,-9.23 384.33,-16.22"/>
</a>
</g>
</g>
<!-- Node13 -->
<g id="Node000013" class="node">
<title>Node13</title>
<g id="a_Node000013"><a xlink:href="vm_8c.html#a5ee1936b951dce69bfb1e90457002be0" target="_top" xlink:title=" ">
<polygon fill="white" stroke="#666666" points="606.5,-99.25 543.25,-99.25 543.25,-80 606.5,-80 606.5,-99.25"/>
<text xml:space="preserve" text-anchor="middle" x="574.88" y="-85.75" font-family="Helvetica,sans-Serif" font-size="10.00">op_module</text>
</a>
</g>
</g>
<!-- Node12&#45;&gt;Node13 -->
<g id="edge14_Node000012_Node000013" class="edge">
<title>Node12&#45;&gt;Node13</title>
<g id="a_edge14_Node000012_Node000013"><a xlink:title=" ">
<path fill="none" stroke="#63b8ff" d="M660.23,-119.32C654.25,-117.45 648.22,-115.52 642.5,-113.62 629.43,-109.29 615.05,-104.15 603,-99.75"/>
<polygon fill="#63b8ff" stroke="#63b8ff" points="658.81,-122.54 669.4,-122.14 660.87,-115.85 658.81,-122.54"/>
</a>
</g>
</g>
<!-- Node13&#45;&gt;Node4 -->
<g id="edge15_Node000013_Node000004" class="edge">
<title>Node13&#45;&gt;Node4</title>
<g id="a_edge15_Node000013_Node000004"><a xlink:title=" ">
<path fill="none" stroke="#63b8ff" d="M531.81,-81.3C518.05,-78.57 502.87,-75.57 489.52,-72.93"/>
<polygon fill="#63b8ff" stroke="#63b8ff" points="530.99,-84.7 541.48,-83.21 532.35,-77.84 530.99,-84.7"/>
</a>
</g>
</g>
<!-- Node14&#45;&gt;Node13 -->
<g id="edge17_Node000014_Node000013" class="edge">
<title>Node14&#45;&gt;Node13</title>
<g id="a_edge17_Node000014_Node000013"><a xlink:title=" ">
<path fill="none" stroke="#63b8ff" d="M641.71,-89.62C629.51,-89.62 617.24,-89.62 606.66,-89.62"/>
<polygon fill="#63b8ff" stroke="#63b8ff" points="641.34,-93.13 651.34,-89.63 641.34,-86.13 641.34,-93.13"/>
</a>
</g>
</g>
</g>
</svg>

<g id="navigator" transform="translate(0 0)" fill="#404254">
  <rect fill="#f2f5e9" fill-opacity="0.5" stroke="#606060" stroke-width=".5" x="0" y="0" width="60" height="60"/>
  <use id="zoomplus" xlink:href="#zoomPlus" x="17" y="9" onmousedown="handleZoom(evt,'in')"/>
  <use id="zoomminus" xlink:href="#zoomMin" x="42" y="9" onmousedown="handleZoom(evt,'out')"/>
  <use id="reset" xlink:href="#resetDef" x="30" y="36" onmousedown="handleReset()"/>
   <use id="arrowup" xlink:href="#arrowUp" x="0" y="0" onmousedown="handlePan(0,-1)"/>
  <use id="arrowright" xlink:href="#arrowRight" x="0" y="0" onmousedown="handlePan(1,0)"/>
  <use id="arrowdown" xlink:href="#arrowDown" x="0" y="0" onmousedown="handlePan(0,1)"/>
  <use id="arrowleft" xlink:href="#arrowLeft" x="0" y="0" onmousedown="handlePan(-1,0)"/>
</g>
<svg viewBox="0 0 15 15" width="100%" height="30px" preserveAspectRatio="xMaxYMin meet">
 <g id="arrow_out" transform="scale(0.3 0.3)">
  <a xlink:href="class_8c_aef9814db229ece6ab002c8e84c47c9f6_icgraph_org.svg" target="_base">
   <rect id="button" ry="5" rx="5" y="6" x="6" height="38" width="38"
        fill="#f2f5e9" fill-opacity="0.5" stroke="#606060" stroke-width="1.0"/>
   <path id="arrow"
     d="M 11.500037,31.436501 C 11.940474,20.09759 22.043105,11.32322 32.158766,21.979434 L 37.068811,17.246167 C 37.068811,17.246167 37.088388,32 37.088388,32 L 22.160133,31.978069 C 22.160133,31.978069 26.997745,27.140456 26.997745,27.140456 C 18.528582,18.264221 13.291696,25.230495 11.500037,31.436501 z"
     style="fill:#404040;"/>
  </a>
 </g>
</svg>

<style type='text/css'>
<![CDATA[
[data-mouse-over-selected='false'] { opacity: 0.7; }
[data-mouse-over-selected='true']  { opacity: 1.0; }
]]>
</style>
<script type="application/ecmascript"><![CDATA[
document.addEventListener('DOMContentLoaded', (event) => {
  highlightEdges();
  highlightAdjacentNodes();
});
]]></script>
</svg>
