<?xml version="1.0" encoding="UTF-8" standalone="no"?>
<!DOCTYPE svg PUBLIC "-//W3C//DTD SVG 1.1//EN"
 "http://www.w3.org/Graphics/SVG/1.1/DTD/svg11.dtd">
<!-- Generated by graphviz version 15.1.0 (20260618.0150)
 -->
<!-- Title: mrbc_get_class_by_name Pages: 1 -->
<!--zoomable 138 -->

<svg id="main" version="1.1" xmlns="http://www.w3.org/2000/svg" xmlns:xlink="http://www.w3.org/1999/xlink" xml:space="preserve" onload="init(evt)">

<style type="text/css"><![CDATA[
.node, .edge {opacity: 0.7;}
.node.selected, .edge.selected {opacity: 1;}
.edge:hover path { stroke: red; }
.edge:hover polygon { stroke: red; fill: red; }
]]></style>

<defs>
  <circle id="rim" cx="0" cy="0" r="7"/>
  <circle id="rim2" cx="0" cy="0" r="3.5"/>
  <g id="zoomPlus">
    <use xlink:href="#rim" fill="#404040"><set attributeName="fill" to="#808080" begin="zoomplus.mouseover" end="zoomplus.mouseout"/></use>
    <path d="M-4,0h8M0,-4v8" fill="none" stroke="white" stroke-width="1.5" pointer-events="none"/>
  </g>
  <g id="zoomMin">
    <use xlink:href="#rim" fill="#404040"><set attributeName="fill" to="#808080" begin="zoomminus.mouseover" end="zoomminus.mouseout"/></use>
    <path d="M-4,0h8" fill="none" stroke="white" stroke-width="1.5" pointer-events="none"/>
  </g>
  <g id="arrowUp" transform="translate(30 24)">
    <use xlink:href="#rim"/>
    <path pointer-events="none" fill="none" stroke="white" stroke-width="1.5" d="M0,-3.0v7 M-2.5,-0.5L0,-3.0L2.5,-0.5"/>
  </g>
  <g id="arrowRight" transform="rotate(90) translate(36 -43)">
    <use xlink:href="#rim"/>
    <path pointer-events="none" fill="none" stroke="white" stroke-width="1.5" d="M0,-3.0v7 M-2.5,-0.5L0,-3.0L2.5,-0.5"/>
  </g>
  <g id="arrowDown" transform="rotate(180) translate(-30 -48)">
    <use xlink:href="#rim"/>
    <path pointer-events="none" fill="none" stroke="white" stroke-width="1.5" d="M0,-3.0v7 M-2.5,-0.5L0,-3.0L2.5,-0.5"/>
  </g>
  <g id="arrowLeft" transform="rotate(270) translate(-36 17)">
    <use xlink:href="#rim"/>
    <path pointer-events="none" fill="none" stroke="white" stroke-width="1.5" d="M0,-3.0v7 M-2.5,-0.5L0,-3.0L2.5,-0.5"/>
  </g>
  <g id="resetDef">
    <use xlink:href="#rim2" fill="#404040"><set attributeName="fill" to="#808080" begin="reset.mouseover" end="reset.mouseout"/></use>
  </g>
</defs>
<script type="application/ecmascript">
var viewWidth = 539;
var viewHeight = 138;
var sectionId = 'dynsection-13';
</script>
<script type="application/ecmascript" xlink:href="svg.min.js"/>
<svg id="graph" class="graph">
<g id="viewport">
<title>mrbc_get_class_by_name</title>
<!-- Node1 -->
<g id="Node000001" class="node">
<title>Node1</title>
<g id="a_Node000001"><a xlink:title=" ">
<polygon fill="#999999" stroke="#666666" points="130,-92.25 0,-92.25 0,-73 130,-73 130,-92.25"/>
<text xml:space="preserve" text-anchor="middle" x="65" y="-78.75" font-family="Helvetica,sans-Serif" font-size="10.00">mrbc_get_class_by_name</text>
</a>
</g>
</g>
<!-- Node2 -->
<g id="Node000002" class="node">
<title>Node2</title>
<g id="a_Node000002"><a xlink:href="global_8c.html#a9c14b559b38791260adeb0a47a5ef74e" target="_top" xlink:title=" ">
<polygon fill="white" stroke="#666666" points="260.75,-120.25 175,-120.25 175,-101 260.75,-101 260.75,-120.25"/>
<text xml:space="preserve" text-anchor="middle" x="217.88" y="-106.75" font-family="Helvetica,sans-Serif" font-size="10.00">mrbc_get_const</text>
</a>
</g>
</g>
<!-- Node1&#45;&gt;Node2 -->
<g id="edge1_Node000001_Node000002" class="edge">
<title>Node1&#45;&gt;Node2</title>
<g id="a_edge1_Node000001_Node000002"><a xlink:title=" ">
<path fill="none" stroke="#63b8ff" d="M120.47,-92.73C134.59,-95.35 149.77,-98.17 163.82,-100.78"/>
<polygon fill="#63b8ff" stroke="#63b8ff" points="162.84,-104.16 173.31,-102.54 164.12,-97.27 162.84,-104.16"/>
</a>
</g>
</g>
<!-- Node5 -->
<g id="Node000005" class="node">
<title>Node5</title>
<g id="a_Node000005"><a xlink:href="symbol_8c.html#a093bafc9e16d180f68c65762d83321c0" target="_top" xlink:title=" ">
<polygon fill="white" stroke="#666666" points="269.75,-74.25 166,-74.25 166,-55 269.75,-55 269.75,-74.25"/>
<text xml:space="preserve" text-anchor="middle" x="217.88" y="-60.75" font-family="Helvetica,sans-Serif" font-size="10.00">mrbc_search_symid</text>
</a>
</g>
</g>
<!-- Node1&#45;&gt;Node5 -->
<g id="edge4_Node000001_Node000005" class="edge">
<title>Node1&#45;&gt;Node5</title>
<g id="a_edge4_Node000001_Node000005"><a xlink:title=" ">
<path fill="none" stroke="#63b8ff" d="M130.42,-74.94C138.48,-73.98 146.71,-73 154.73,-72.04"/>
<polygon fill="#63b8ff" stroke="#63b8ff" points="154.87,-75.55 164.39,-70.89 154.04,-68.6 154.87,-75.55"/>
</a>
</g>
</g>
<!-- Node3 -->
<g id="Node000003" class="node">
<title>Node3</title>
<g id="a_Node000003"><a xlink:href="keyvalue_8c.html#ae1ca64c77e80539715506e17fd081c01" target="_top" xlink:title=" ">
<polygon fill="white" stroke="#666666" points="398.25,-130.25 326,-130.25 326,-111 398.25,-111 398.25,-130.25"/>
<text xml:space="preserve" text-anchor="middle" x="362.12" y="-116.75" font-family="Helvetica,sans-Serif" font-size="10.00">mrbc_kv_get</text>
</a>
</g>
</g>
<!-- Node2&#45;&gt;Node3 -->
<g id="edge2_Node000002_Node000003" class="edge">
<title>Node2&#45;&gt;Node3</title>
<g id="a_edge2_Node000002_Node000003"><a xlink:title=" ">
<path fill="none" stroke="#63b8ff" d="M261.17,-113.6C278.1,-114.79 297.65,-116.16 314.95,-117.38"/>
<polygon fill="#63b8ff" stroke="#63b8ff" points="314.21,-120.84 324.43,-118.05 314.7,-113.85 314.21,-120.84"/>
</a>
</g>
</g>
<!-- Node4 -->
<g id="Node000004" class="node">
<title>Node4</title>
<g id="a_Node000004"><a xlink:href="keyvalue_8c.html#a82f625f231c944d8f17621ea1ee9c312" target="_top" xlink:title=" ">
<polygon fill="white" stroke="#666666" points="531.25,-130.25 454.5,-130.25 454.5,-111 531.25,-111 531.25,-130.25"/>
<text xml:space="preserve" text-anchor="middle" x="492.88" y="-116.75" font-family="Helvetica,sans-Serif" font-size="10.00">binary_search</text>
</a>
</g>
</g>
<!-- Node3&#45;&gt;Node4 -->
<g id="edge3_Node000003_Node000004" class="edge">
<title>Node3&#45;&gt;Node4</title>
<g id="a_edge3_Node000003_Node000004"><a xlink:title=" ">
<path fill="none" stroke="#63b8ff" d="M398.65,-120.62C412.27,-120.62 428.07,-120.62 442.75,-120.62"/>
<polygon fill="#63b8ff" stroke="#63b8ff" points="442.71,-124.13 452.71,-120.63 442.71,-117.13 442.71,-124.13"/>
</a>
</g>
</g>
<!-- Node6 -->
<g id="Node000006" class="node">
<title>Node6</title>
<g id="a_Node000006"><a xlink:href="symbol_8c.html#aacabe68c9ef9878bae1502ca119a9c19" target="_top" xlink:title=" ">
<polygon fill="white" stroke="#666666" points="392.25,-93.25 332,-93.25 332,-74 392.25,-74 392.25,-93.25"/>
<text xml:space="preserve" text-anchor="middle" x="362.12" y="-79.75" font-family="Helvetica,sans-Serif" font-size="10.00">calc_hash</text>
</a>
</g>
</g>
<!-- Node5&#45;&gt;Node6 -->
<g id="edge5_Node000005_Node000006" class="edge">
<title>Node5&#45;&gt;Node6</title>
<g id="a_edge5_Node000005_Node000006"><a xlink:title=" ">
<path fill="none" stroke="#63b8ff" d="M270.23,-71.48C286.72,-73.69 304.75,-76.09 320.37,-78.18"/>
<polygon fill="#63b8ff" stroke="#63b8ff" points="319.9,-81.65 330.28,-79.51 320.83,-74.71 319.9,-81.65"/>
</a>
</g>
</g>
<!-- Node7 -->
<g id="Node000007" class="node">
<title>Node7</title>
<g id="a_Node000007"><a xlink:href="symbol_8c.html#afbc194ba3468c8f594d9543051d060e0" target="_top" xlink:title=" ">
<polygon fill="white" stroke="#666666" points="418.5,-56.25 305.75,-56.25 305.75,-37 418.5,-37 418.5,-56.25"/>
<text xml:space="preserve" text-anchor="middle" x="362.12" y="-42.75" font-family="Helvetica,sans-Serif" font-size="10.00">search_builtin_symbol</text>
</a>
</g>
</g>
<!-- Node5&#45;&gt;Node7 -->
<g id="edge6_Node000005_Node000007" class="edge">
<title>Node5&#45;&gt;Node7</title>
<g id="a_edge6_Node000005_Node000007"><a xlink:title=" ">
<path fill="none" stroke="#63b8ff" d="M270.23,-58.13C278.02,-57.14 286.15,-56.11 294.21,-55.09"/>
<polygon fill="#63b8ff" stroke="#63b8ff" points="294.53,-58.58 304.01,-53.85 293.65,-51.63 294.53,-58.58"/>
</a>
</g>
</g>
<!-- Node8 -->
<g id="Node000008" class="node">
<title>Node8</title>
<g id="a_Node000008"><a xlink:href="symbol_8c.html#a60fed3f73babd50a1d5ba20c9db2f9bd" target="_top" xlink:title=" ">
<polygon fill="white" stroke="#666666" points="399,-19.25 325.25,-19.25 325.25,0 399,0 399,-19.25"/>
<text xml:space="preserve" text-anchor="middle" x="362.12" y="-5.75" font-family="Helvetica,sans-Serif" font-size="10.00">search_index</text>
</a>
</g>
</g>
<!-- Node5&#45;&gt;Node8 -->
<g id="edge7_Node000005_Node000008" class="edge">
<title>Node5&#45;&gt;Node8</title>
<g id="a_edge7_Node000005_Node000008"><a xlink:title=" ">
<path fill="none" stroke="#63b8ff" d="M240.8,-54.65C258.23,-46.88 283.34,-36.02 305.75,-27.62 309.62,-26.17 313.67,-24.73 317.74,-23.32"/>
<polygon fill="#63b8ff" stroke="#63b8ff" points="318.66,-26.7 327.02,-20.2 316.43,-20.07 318.66,-26.7"/>
</a>
</g>
</g>
</g>
</svg>

<g id="navigator" transform="translate(0 0)" fill="#404254">
  <rect fill="#f2f5e9" fill-opacity="0.5" stroke="#606060" stroke-width=".5" x="0" y="0" width="60" height="60"/>
  <use id="zoomplus" xlink:href="#zoomPlus" x="17" y="9" onmousedown="handleZoom(evt,'in')"/>
  <use id="zoomminus" xlink:href="#zoomMin" x="42" y="9" onmousedown="handleZoom(evt,'out')"/>
  <use id="reset" xlink:href="#resetDef" x="30" y="36" onmousedown="handleReset()"/>
   <use id="arrowup" xlink:href="#arrowUp" x="0" y="0" onmousedown="handlePan(0,-1)"/>
  <use id="arrowright" xlink:href="#arrowRight" x="0" y="0" onmousedown="handlePan(1,0)"/>
  <use id="arrowdown" xlink:href="#arrowDown" x="0" y="0" onmousedown="handlePan(0,1)"/>
  <use id="arrowleft" xlink:href="#arrowLeft" x="0" y="0" onmousedown="handlePan(-1,0)"/>
</g>
<svg viewBox="0 0 15 15" width="100%" height="30px" preserveAspectRatio="xMaxYMin meet">
 <g id="arrow_out" transform="scale(0.3 0.3)">
  <a xlink:href="class_8c_a2154a96fcc63d15c581329842cf5479e_cgraph_org.svg" target="_base">
   <rect id="button" ry="5" rx="5" y="6" x="6" height="38" width="38"
        fill="#f2f5e9" fill-opacity="0.5" stroke="#606060" stroke-width="1.0"/>
   <path id="arrow"
     d="M 11.500037,31.436501 C 11.940474,20.09759 22.043105,11.32322 32.158766,21.979434 L 37.068811,17.246167 C 37.068811,17.246167 37.088388,32 37.088388,32 L 22.160133,31.978069 C 22.160133,31.978069 26.997745,27.140456 26.997745,27.140456 C 18.528582,18.264221 13.291696,25.230495 11.500037,31.436501 z"
     style="fill:#404040;"/>
  </a>
 </g>
</svg>

<style type='text/css'>
<![CDATA[
[data-mouse-over-selected='false'] { opacity: 0.7; }
[data-mouse-over-selected='true']  { opacity: 1.0; }
]]>
</style>
<script type="application/ecmascript"><![CDATA[
document.addEventListener('DOMContentLoaded', (event) => {
  highlightEdges();
  highlightAdjacentNodes();
});
]]></script>
</svg>
