<?xml version="1.0" encoding="UTF-8" standalone="no"?>
<!DOCTYPE svg PUBLIC "-//W3C//DTD SVG 1.1//EN"
 "http://www.w3.org/Graphics/SVG/1.1/DTD/svg11.dtd">
<!-- Generated by graphviz version 15.1.0 (20260618.0150)
 -->
<!-- Title: Graphical Class Hierarchy Pages: 1 -->
<svg width="159pt" height="249pt"
 viewBox="0.00 0.00 159.00 249.00" xmlns="http://www.w3.org/2000/svg" xmlns:xlink="http://www.w3.org/1999/xlink">
<g id="graph0" class="graph" transform="scale(1 1) rotate(0) translate(4 245.25)">
<title>Graphical Class Hierarchy</title>
<!-- Node0 -->
<g id="Node000000" class="node">
<title>Node0</title>
<g id="a_Node000000"><a xlink:href="struct_r_basic.html" target="_top" xlink:title=" ">
<polygon fill="white" stroke="#666666" points="48.25,-130.25 0,-130.25 0,-111 48.25,-111 48.25,-130.25"/>
<text xml:space="preserve" text-anchor="middle" x="24.12" y="-116.75" font-family="Helvetica,sans-Serif" font-size="10.00">RBasic</text>
</a>
</g>
</g>
<!-- Node1 -->
<g id="Node000001" class="node">
<title>Node1</title>
<g id="a_Node000001"><a xlink:href="struct_r_array.html" target="_top" xlink:title="Array object.">
<polygon fill="white" stroke="#666666" points="141.12,-241.25 94.38,-241.25 94.38,-222 141.12,-222 141.12,-241.25"/>
<text xml:space="preserve" text-anchor="middle" x="117.75" y="-227.75" font-family="Helvetica,sans-Serif" font-size="10.00">RArray</text>
</a>
</g>
</g>
<!-- Node0&#45;&gt;Node1 -->
<g id="edge1_Node000000_Node000001" class="edge">
<title>Node0&#45;&gt;Node1</title>
<g id="a_edge1_Node000000_Node000001"><a xlink:title=" ">
<path fill="none" stroke="#63b8ff" d="M34.35,-141.04C44.35,-161.4 61.9,-192.59 84.25,-213.62 87.44,-216.63 91.23,-219.31 95.08,-221.62"/>
<polygon fill="#63b8ff" stroke="#63b8ff" points="37.56,-139.64 30.12,-132.09 31.23,-142.63 37.56,-139.64"/>
</a>
</g>
</g>
<!-- Node2 -->
<g id="Node000002" class="node">
<title>Node2</title>
<g id="a_Node000002"><a xlink:href="struct_r_exception.html" target="_top" xlink:title="Exception object.">
<polygon fill="white" stroke="#666666" points="151.25,-204.25 84.25,-204.25 84.25,-185 151.25,-185 151.25,-204.25"/>
<text xml:space="preserve" text-anchor="middle" x="117.75" y="-190.75" font-family="Helvetica,sans-Serif" font-size="10.00">RException</text>
</a>
</g>
</g>
<!-- Node0&#45;&gt;Node2 -->
<g id="edge2_Node000000_Node000002" class="edge">
<title>Node0&#45;&gt;Node2</title>
<g id="a_edge2_Node000000_Node000002"><a xlink:title=" ">
<path fill="none" stroke="#63b8ff" d="M41.83,-138.65C53.14,-150.29 68.8,-165.31 84.25,-176.62 88.1,-179.44 92.44,-182.14 96.67,-184.54"/>
<polygon fill="#63b8ff" stroke="#63b8ff" points="44.57,-136.46 35.14,-131.63 39.5,-141.28 44.57,-136.46"/>
</a>
</g>
</g>
<!-- Node3 -->
<g id="Node000003" class="node">
<title>Node3</title>
<g id="a_Node000003"><a xlink:href="struct_r_hash.html" target="_top" xlink:title="Hash object.">
<polygon fill="white" stroke="#666666" points="141.12,-167.25 94.38,-167.25 94.38,-148 141.12,-148 141.12,-167.25"/>
<text xml:space="preserve" text-anchor="middle" x="117.75" y="-153.75" font-family="Helvetica,sans-Serif" font-size="10.00">RHash</text>
</a>
</g>
</g>
<!-- Node0&#45;&gt;Node3 -->
<g id="edge3_Node000000_Node000003" class="edge">
<title>Node0&#45;&gt;Node3</title>
<g id="a_edge3_Node000000_Node000003"><a xlink:title=" ">
<path fill="none" stroke="#63b8ff" d="M59.07,-134.33C70.78,-139.06 83.61,-144.24 94.18,-148.51"/>
<polygon fill="#63b8ff" stroke="#63b8ff" points="60.71,-131.22 50.12,-130.72 58.09,-137.71 60.71,-131.22"/>
</a>
</g>
</g>
<!-- Node4 -->
<g id="Node000004" class="node">
<title>Node4</title>
<g id="a_Node000004"><a xlink:href="struct_r_instance.html" target="_top" xlink:title="Instance object.">
<polygon fill="white" stroke="#666666" points="148.25,-130.25 87.25,-130.25 87.25,-111 148.25,-111 148.25,-130.25"/>
<text xml:space="preserve" text-anchor="middle" x="117.75" y="-116.75" font-family="Helvetica,sans-Serif" font-size="10.00">RInstance</text>
</a>
</g>
</g>
<!-- Node0&#45;&gt;Node4 -->
<g id="edge4_Node000000_Node000004" class="edge">
<title>Node0&#45;&gt;Node4</title>
<g id="a_edge4_Node000000_Node000004"><a xlink:title=" ">
<path fill="none" stroke="#63b8ff" d="M59.97,-120.62C68.87,-120.62 78.37,-120.62 86.99,-120.62"/>
<polygon fill="#63b8ff" stroke="#63b8ff" points="60.23,-117.13 50.23,-120.63 60.23,-124.13 60.23,-117.13"/>
</a>
</g>
</g>
<!-- Node5 -->
<g id="Node000005" class="node">
<title>Node5</title>
<g id="a_Node000005"><a xlink:href="struct_r_proc.html" target="_top" xlink:title="Proc object.">
<polygon fill="white" stroke="#666666" points="139.62,-93.25 95.88,-93.25 95.88,-74 139.62,-74 139.62,-93.25"/>
<text xml:space="preserve" text-anchor="middle" x="117.75" y="-79.75" font-family="Helvetica,sans-Serif" font-size="10.00">RProc</text>
</a>
</g>
</g>
<!-- Node0&#45;&gt;Node5 -->
<g id="edge5_Node000000_Node000005" class="edge">
<title>Node0&#45;&gt;Node5</title>
<g id="a_edge5_Node000000_Node000005"><a xlink:title=" ">
<path fill="none" stroke="#63b8ff" d="M59.39,-106.79C71.48,-101.9 84.72,-96.56 95.43,-92.24"/>
<polygon fill="#63b8ff" stroke="#63b8ff" points="58.09,-103.54 50.12,-110.53 60.71,-110.03 58.09,-103.54"/>
</a>
</g>
</g>
<!-- Node6 -->
<g id="Node000006" class="node">
<title>Node6</title>
<g id="a_Node000006"><a xlink:href="struct_r_range.html" target="_top" xlink:title="Range object.">
<polygon fill="white" stroke="#666666" points="143.75,-56.25 91.75,-56.25 91.75,-37 143.75,-37 143.75,-56.25"/>
<text xml:space="preserve" text-anchor="middle" x="117.75" y="-42.75" font-family="Helvetica,sans-Serif" font-size="10.00">RRange</text>
</a>
</g>
</g>
<!-- Node0&#45;&gt;Node6 -->
<g id="edge6_Node000000_Node000006" class="edge">
<title>Node0&#45;&gt;Node6</title>
<g id="a_edge6_Node000000_Node000006"><a xlink:title=" ">
<path fill="none" stroke="#63b8ff" d="M41.83,-102.6C53.14,-90.96 68.8,-75.94 84.25,-64.62 88.1,-61.81 92.44,-59.11 96.67,-56.71"/>
<polygon fill="#63b8ff" stroke="#63b8ff" points="39.5,-99.97 35.14,-109.62 44.57,-104.79 39.5,-99.97"/>
</a>
</g>
</g>
<!-- Node7 -->
<g id="Node000007" class="node">
<title>Node7</title>
<g id="a_Node000007"><a xlink:href="struct_r_string.html" target="_top" xlink:title="String object.">
<polygon fill="white" stroke="#666666" points="142.25,-19.25 93.25,-19.25 93.25,0 142.25,0 142.25,-19.25"/>
<text xml:space="preserve" text-anchor="middle" x="117.75" y="-5.75" font-family="Helvetica,sans-Serif" font-size="10.00">RString</text>
</a>
</g>
</g>
<!-- Node0&#45;&gt;Node7 -->
<g id="edge7_Node000000_Node000007" class="edge">
<title>Node0&#45;&gt;Node7</title>
<g id="a_edge7_Node000000_Node000007"><a xlink:title=" ">
<path fill="none" stroke="#63b8ff" d="M34.35,-100.21C44.35,-79.85 61.9,-48.66 84.25,-27.62 87.44,-24.62 91.23,-21.94 95.08,-19.63"/>
<polygon fill="#63b8ff" stroke="#63b8ff" points="31.23,-98.62 30.12,-109.16 37.56,-101.61 31.23,-98.62"/>
</a>
</g>
</g>
</g>
</svg>
