<?xml version="1.0" encoding="UTF-8" standalone="no"?>
<!DOCTYPE svg PUBLIC "-//W3C//DTD SVG 1.1//EN"
 "http://www.w3.org/Graphics/SVG/1.1/DTD/svg11.dtd">
<!-- Generated by graphviz version 15.1.0 (20260618.0150)
 -->
<!-- Title: get_timed_wakeup_tick Pages: 1 -->
<svg width="399pt" height="103pt"
 viewBox="0.00 0.00 399.00 103.00" xmlns="http://www.w3.org/2000/svg" xmlns:xlink="http://www.w3.org/1999/xlink">

<svg id="main" version="1.1" xmlns="http://www.w3.org/2000/svg" xmlns:xlink="http://www.w3.org/1999/xlink" xml:space="preserve">

<style type="text/css"><![CDATA[
.node, .edge {opacity: 0.7;}
.node.selected, .edge.selected {opacity: 1;}
.edge:hover path { stroke: red; }
.edge:hover polygon { stroke: red; fill: red; }
]]></style>
<script type="application/ecmascript" xlink:href="svg.min.js"/>
<svg id="graph" class="graph">
<g id="graph0" class="graph" transform="scale(1 1) rotate(0) translate(4 99.25)">
<title>get_timed_wakeup_tick</title>
<!-- Node1 -->
<g id="Node000001" class="node">
<title>Node1</title>
<g id="a_Node000001"><a xlink:title=" ">
<polygon fill="#999999" stroke="#666666" points="390.75,-57.25 272,-57.25 272,-38 390.75,-38 390.75,-57.25"/>
<text xml:space="preserve" text-anchor="middle" x="331.38" y="-43.75" font-family="Helvetica,sans-Serif" font-size="10.00">get_timed_wakeup_tick</text>
</a>
</g>
</g>
<!-- Node2 -->
<g id="Node000002" class="node">
<title>Node2</title>
<g id="a_Node000002"><a xlink:href="rrt0_8c.html#a4cedec83506f121c8300d1311c2ed0b1" target="_top" xlink:title=" ">
<polygon fill="white" stroke="#666666" points="236,-95.25 136.75,-95.25 136.75,-76 236,-76 236,-95.25"/>
<text xml:space="preserve" text-anchor="middle" x="186.38" y="-81.75" font-family="Helvetica,sans-Serif" font-size="10.00">mrbc_resume_task</text>
</a>
</g>
</g>
<!-- Node1&#45;&gt;Node2 -->
<g id="edge1_Node000001_Node000002" class="edge">
<title>Node1&#45;&gt;Node2</title>
<g id="a_edge1_Node000001_Node000002"><a xlink:title=" ">
<path fill="none" stroke="#63b8ff" d="M281.55,-60.6C263.06,-65.51 242.31,-71.03 225,-75.63"/>
<polygon fill="#63b8ff" stroke="#63b8ff" points="282.2,-64.05 290.97,-58.1 280.4,-57.28 282.2,-64.05"/>
</a>
</g>
</g>
<!-- Node3 -->
<g id="Node000003" class="node">
<title>Node3</title>
<g id="a_Node000003"><a xlink:href="rrt0_8c.html#abf7622f074335f655fe60b8f694b9397" target="_top" xlink:title=" ">
<polygon fill="white" stroke="#666666" points="100.75,-76.25 0,-76.25 0,-57 100.75,-57 100.75,-76.25"/>
<text xml:space="preserve" text-anchor="middle" x="50.38" y="-62.75" font-family="Helvetica,sans-Serif" font-size="10.00">mrbc_wakeup_task</text>
</a>
</g>
</g>
<!-- Node1&#45;&gt;Node3 -->
<g id="edge5_Node000001_Node000003" class="edge">
<title>Node1&#45;&gt;Node3</title>
<g id="a_edge5_Node000001_Node000003"><a xlink:title=" ">
<path fill="none" stroke="#63b8ff" d="M260.24,-52.4C210.54,-55.79 145.09,-60.24 100.8,-63.26"/>
<polygon fill="#63b8ff" stroke="#63b8ff" points="260.3,-55.91 270.04,-51.73 259.82,-48.92 260.3,-55.91"/>
</a>
</g>
</g>
<!-- Node4 -->
<g id="Node000004" class="node">
<title>Node4</title>
<g id="a_Node000004"><a xlink:href="rrt0_8c.html#a7637de91192c80cd443c830058446797" target="_top" xlink:title=" ">
<polygon fill="white" stroke="#666666" points="215.75,-19.25 157,-19.25 157,0 215.75,0 215.75,-19.25"/>
<text xml:space="preserve" text-anchor="middle" x="186.38" y="-5.75" font-family="Helvetica,sans-Serif" font-size="10.00">mrbc_tick</text>
</a>
</g>
</g>
<!-- Node1&#45;&gt;Node4 -->
<g id="edge3_Node000001_Node000004" class="edge">
<title>Node1&#45;&gt;Node4</title>
<g id="a_edge3_Node000001_Node000004"><a xlink:title=" ">
<path fill="none" stroke="#63b8ff" d="M281.36,-34.6C259.56,-28.81 234.66,-22.19 215.97,-17.22"/>
<polygon fill="#63b8ff" stroke="#63b8ff" points="280.4,-37.97 290.97,-37.15 282.2,-31.2 280.4,-37.97"/>
</a>
</g>
</g>
<!-- Node2&#45;&gt;Node3 -->
<g id="edge2_Node000002_Node000003" class="edge">
<title>Node2&#45;&gt;Node3</title>
<g id="a_edge2_Node000002_Node000003"><a xlink:title=" ">
<path fill="none" stroke="#63b8ff" d="M125.35,-77.11C117.29,-75.97 109.08,-74.81 101.22,-73.69"/>
<polygon fill="#63b8ff" stroke="#63b8ff" points="124.73,-80.56 135.12,-78.5 125.71,-73.63 124.73,-80.56"/>
</a>
</g>
</g>
<!-- Node5 -->
<g id="Node000005" class="node">
<title>Node5</title>
<g id="a_Node000005"><a xlink:href="rrt0_8c.html#ae684e409f06a0a28190d3961151737df" target="_top" xlink:title=" ">
<polygon fill="white" stroke="#666666" points="78.62,-19.25 22.12,-19.25 22.12,0 78.62,0 78.62,-19.25"/>
<text xml:space="preserve" text-anchor="middle" x="50.38" y="-5.75" font-family="Helvetica,sans-Serif" font-size="10.00">mrbc_run</text>
</a>
</g>
</g>
<!-- Node4&#45;&gt;Node5 -->
<g id="edge4_Node000004_Node000005" class="edge">
<title>Node4&#45;&gt;Node5</title>
<g id="a_edge4_Node000004_Node000005"><a xlink:title=" ">
<path fill="none" stroke="#63b8ff" d="M145.22,-9.62C123.74,-9.62 97.84,-9.62 78.7,-9.62"/>
<polygon fill="#63b8ff" stroke="#63b8ff" points="145.12,-13.13 155.12,-9.63 145.12,-6.13 145.12,-13.13"/>
</a>
</g>
</g>
</g>
</svg>
</svg>

<style type='text/css'>
<![CDATA[
[data-mouse-over-selected='false'] { opacity: 0.7; }
[data-mouse-over-selected='true']  { opacity: 1.0; }
]]>
</style>
<script type="application/ecmascript"><![CDATA[
document.addEventListener('DOMContentLoaded', (event) => {
  highlightEdges();
  highlightAdjacentNodes();
});
]]></script>
</svg>
