<?xml version="1.0" encoding="UTF-8" standalone="no"?>
<!DOCTYPE svg PUBLIC "-//W3C//DTD SVG 1.1//EN"
 "http://www.w3.org/Graphics/SVG/1.1/DTD/svg11.dtd">
<!-- Generated by graphviz version 15.1.0 (20260618.0150)
 -->
<!-- Title: mrbc_symbol_new Pages: 1 -->
<svg width="1259pt" height="280pt"
 viewBox="0.00 0.00 1259.00 280.00" xmlns="http://www.w3.org/2000/svg" xmlns:xlink="http://www.w3.org/1999/xlink">
<g id="graph0" class="graph" transform="scale(1 1) rotate(0) translate(4 276.12)">
<title>mrbc_symbol_new</title>
<!-- Node1 -->
<g id="Node000001" class="node">
<title>Node1</title>
<g id="a_Node000001"><a xlink:title=" ">
<polygon fill="#999999" stroke="#666666" points="1251,-121.12 1153.25,-121.12 1153.25,-101.87 1251,-101.87 1251,-121.12"/>
<text xml:space="preserve" text-anchor="middle" x="1202.12" y="-107.62" font-family="Helvetica,sans-Serif" font-size="10.00">mrbc_symbol_new</text>
</a>
</g>
</g>
<!-- Node2 -->
<g id="Node000002" class="node">
<title>Node2</title>
<g id="a_Node000002"><a xlink:href="global_8c.html#a938cbf13d795ec85cb4071e2b87803ea" target="_top" xlink:title=" ">
<polygon fill="white" stroke="#666666" points="1117.25,-196.12 1003,-196.12 1003,-176.87 1117.25,-176.87 1117.25,-196.12"/>
<text xml:space="preserve" text-anchor="middle" x="1060.12" y="-182.62" font-family="Helvetica,sans-Serif" font-size="10.00">mrbc_set_class_const</text>
</a>
</g>
</g>
<!-- Node1&#45;&gt;Node2 -->
<g id="edge1_Node000001_Node000002" class="edge">
<title>Node1&#45;&gt;Node2</title>
<g id="a_edge1_Node000001_Node000002"><a xlink:title=" ">
<path fill="none" stroke="#63b8ff" d="M1172.33,-126.92C1144.57,-141.79 1103.39,-163.85 1079.71,-176.54"/>
<polygon fill="#63b8ff" stroke="#63b8ff" points="1173.75,-130.13 1180.91,-122.32 1170.44,-123.96 1173.75,-130.13"/>
</a>
</g>
</g>
<!-- Node13 -->
<g id="Node000013" class="node">
<title>Node13</title>
<g id="a_Node000013"><a xlink:href="class_8c.html#aef9814db229ece6ab002c8e84c47c9f6" target="_top" xlink:title=" ">
<polygon fill="white" stroke="#666666" points="967,-126.74 861.75,-126.74 861.75,-96.24 967,-96.24 967,-126.74"/>
<text xml:space="preserve" text-anchor="start" x="869.75" y="-113.24" font-family="Helvetica,sans-Serif" font-size="10.00">sub_define_class_or</text>
<text xml:space="preserve" text-anchor="middle" x="914.38" y="-101.99" font-family="Helvetica,sans-Serif" font-size="10.00">_module</text>
</a>
</g>
</g>
<!-- Node1&#45;&gt;Node13 -->
<g id="edge29_Node000001_Node000013" class="edge">
<title>Node1&#45;&gt;Node13</title>
<g id="a_edge29_Node000001_Node000013"><a xlink:title=" ">
<path fill="none" stroke="#63b8ff" d="M1141.68,-111.49C1090.13,-111.49 1016.26,-111.49 967.11,-111.49"/>
<polygon fill="#63b8ff" stroke="#63b8ff" points="1141.46,-114.99 1151.46,-111.49 1141.46,-107.99 1141.46,-114.99"/>
</a>
</g>
</g>
<!-- Node20 -->
<g id="Node000020" class="node">
<title>Node20</title>
<g id="a_Node000020"><a xlink:href="vm_8c.html#a986e6b9710a9b4d0f8b3eefa8da2c567" target="_top" xlink:title=" ">
<polygon fill="white" stroke="#666666" points="1088,-41.12 1032.25,-41.12 1032.25,-21.87 1088,-21.87 1088,-41.12"/>
<text xml:space="preserve" text-anchor="middle" x="1060.12" y="-27.62" font-family="Helvetica,sans-Serif" font-size="10.00">op_intern</text>
</a>
</g>
</g>
<!-- Node1&#45;&gt;Node20 -->
<g id="edge27_Node000001_Node000020" class="edge">
<title>Node1&#45;&gt;Node20</title>
<g id="a_edge27_Node000001_Node000020"><a xlink:title=" ">
<path fill="none" stroke="#63b8ff" d="M1173.7,-95.82C1145.58,-79.76 1102.7,-55.25 1078.79,-41.59"/>
<polygon fill="#63b8ff" stroke="#63b8ff" points="1171.94,-98.85 1182.36,-100.77 1175.42,-92.77 1171.94,-98.85"/>
</a>
</g>
</g>
<!-- Node3 -->
<g id="Node000003" class="node">
<title>Node3</title>
<g id="a_Node000003"><a xlink:href="c__math_8c.html#ae3fb2a5b1877b8e6602ce134bf5c538a" target="_top" xlink:title=" ">
<polygon fill="white" stroke="#666666" points="515.5,-272.12 396,-272.12 396,-252.87 515.5,-252.87 515.5,-272.12"/>
<text xml:space="preserve" text-anchor="middle" x="455.75" y="-258.62" font-family="Helvetica,sans-Serif" font-size="10.00">mrbc_init_module_math</text>
</a>
</g>
</g>
<!-- Node2&#45;&gt;Node3 -->
<g id="edge2_Node000002_Node000003" class="edge">
<title>Node2&#45;&gt;Node3</title>
<g id="a_edge2_Node000002_Node000003"><a xlink:title=" ">
<path fill="none" stroke="#63b8ff" d="M1029.71,-201.41C1012,-209.67 988.74,-219.3 967,-224.49 807.16,-262.67 611.87,-265.52 515.84,-264.16"/>
<polygon fill="#63b8ff" stroke="#63b8ff" points="1031.09,-204.63 1038.59,-197.14 1028.06,-198.32 1031.09,-204.63"/>
</a>
</g>
</g>
<!-- Node7 -->
<g id="Node000007" class="node">
<title>Node7</title>
<g id="a_Node000007"><a xlink:href="c__task__queue_8c.html#ac61ba5bfb6660a9990c352a22bd48722" target="_top" xlink:title=" ">
<polygon fill="white" stroke="#666666" points="662.75,-234.12 551.5,-234.12 551.5,-214.87 662.75,-214.87 662.75,-234.12"/>
<text xml:space="preserve" text-anchor="middle" x="607.12" y="-220.62" font-family="Helvetica,sans-Serif" font-size="10.00">mrbc_init_task_queue</text>
</a>
</g>
</g>
<!-- Node2&#45;&gt;Node7 -->
<g id="edge6_Node000002_Node000007" class="edge">
<title>Node2&#45;&gt;Node7</title>
<g id="a_edge6_Node000002_Node000007"><a xlink:title=" ">
<path fill="none" stroke="#63b8ff" d="M1006.2,-198.83C993.43,-201.41 979.78,-203.85 967,-205.49 859.95,-219.29 733.69,-223.12 663.08,-224.15"/>
<polygon fill="#63b8ff" stroke="#63b8ff" points="1006.6,-202.32 1015.67,-196.85 1005.17,-195.47 1006.6,-202.32"/>
</a>
</g>
</g>
<!-- Node8 -->
<g id="Node000008" class="node">
<title>Node8</title>
<g id="a_Node000008"><a xlink:href="vm_8c.html#aad9207108d66e985c0f4a59acd69af0a" target="_top" xlink:title=" ">
<polygon fill="white" stroke="#666666" points="949,-196.12 879.75,-196.12 879.75,-176.87 949,-176.87 949,-196.12"/>
<text xml:space="preserve" text-anchor="middle" x="914.38" y="-182.62" font-family="Helvetica,sans-Serif" font-size="10.00">op_setconst</text>
</a>
</g>
</g>
<!-- Node2&#45;&gt;Node8 -->
<g id="edge8_Node000002_Node000008" class="edge">
<title>Node2&#45;&gt;Node8</title>
<g id="a_edge8_Node000002_Node000008"><a xlink:title=" ">
<path fill="none" stroke="#63b8ff" d="M991.57,-186.49C976.87,-186.49 961.93,-186.49 949.22,-186.49"/>
<polygon fill="#63b8ff" stroke="#63b8ff" points="991.21,-189.99 1001.21,-186.49 991.21,-182.99 991.21,-189.99"/>
</a>
</g>
</g>
<!-- Node2&#45;&gt;Node13 -->
<g id="edge15_Node000002_Node000013" class="edge">
<title>Node2&#45;&gt;Node13</title>
<g id="a_edge15_Node000002_Node000013"><a xlink:title=" ">
<path fill="none" stroke="#63b8ff" d="M1029.57,-171.07C1004.99,-158.25 970.17,-140.08 945.45,-127.19"/>
<polygon fill="#63b8ff" stroke="#63b8ff" points="1027.91,-174.16 1038.4,-175.68 1031.15,-167.95 1027.91,-174.16"/>
</a>
</g>
</g>
<!-- Node4 -->
<g id="Node000004" class="node">
<title>Node4</title>
<g id="a_Node000004"><a xlink:href="class_8c.html#a67c91c20572a7c458ff281a24a082c49" target="_top" xlink:title=" ">
<polygon fill="white" stroke="#666666" points="225.5,-272.12 130.75,-272.12 130.75,-252.87 225.5,-252.87 225.5,-272.12"/>
<text xml:space="preserve" text-anchor="middle" x="178.12" y="-258.62" font-family="Helvetica,sans-Serif" font-size="10.00">mrbc_init_class_c</text>
</a>
</g>
</g>
<!-- Node3&#45;&gt;Node4 -->
<g id="edge3_Node000003_Node000004" class="edge">
<title>Node3&#45;&gt;Node4</title>
<g id="a_edge3_Node000003_Node000004"><a xlink:title=" ">
<path fill="none" stroke="#63b8ff" d="M384.3,-262.49C334.54,-262.49 269.26,-262.49 225.83,-262.49"/>
<polygon fill="#63b8ff" stroke="#63b8ff" points="384.11,-265.99 394.11,-262.49 384.11,-258.99 384.11,-265.99"/>
</a>
</g>
</g>
<!-- Node5 -->
<g id="Node000005" class="node">
<title>Node5</title>
<g id="a_Node000005"><a xlink:href="rrt0_8c.html#a3790d80a30b7528debb507271c042f0e" target="_top" xlink:title=" ">
<polygon fill="white" stroke="#666666" points="70,-234.12 14.25,-234.12 14.25,-214.87 70,-214.87 70,-234.12"/>
<text xml:space="preserve" text-anchor="middle" x="42.12" y="-220.62" font-family="Helvetica,sans-Serif" font-size="10.00">mrbc_init</text>
</a>
</g>
</g>
<!-- Node4&#45;&gt;Node5 -->
<g id="edge4_Node000004_Node000005" class="edge">
<title>Node4&#45;&gt;Node5</title>
<g id="a_edge4_Node000004_Node000005"><a xlink:title=" ">
<path fill="none" stroke="#63b8ff" d="M130.71,-249.33C110.57,-243.62 87.67,-237.13 70.34,-232.21"/>
<polygon fill="#63b8ff" stroke="#63b8ff" points="129.54,-252.64 140.11,-252 131.45,-245.9 129.54,-252.64"/>
</a>
</g>
</g>
<!-- Node6 -->
<g id="Node000006" class="node">
<title>Node6</title>
<g id="a_Node000006"><a xlink:href="class_8c.html#a33245c1a2325726c07d41ee637fe943d" target="_top" xlink:title=" ">
<polygon fill="white" stroke="#666666" points="84.25,-197.12 0,-197.12 0,-177.87 84.25,-177.87 84.25,-197.12"/>
<text xml:space="preserve" text-anchor="middle" x="42.12" y="-183.62" font-family="Helvetica,sans-Serif" font-size="10.00">mrbc_init_class</text>
</a>
</g>
</g>
<!-- Node4&#45;&gt;Node6 -->
<g id="edge5_Node000004_Node000006" class="edge">
<title>Node4&#45;&gt;Node6</title>
<g id="a_edge5_Node000004_Node000006"><a xlink:title=" ">
<path fill="none" stroke="#63b8ff" d="M153,-246.41C134.56,-234.44 108.3,-218.06 84.25,-205.49 79,-202.75 73.24,-200.05 67.74,-197.61"/>
<polygon fill="#63b8ff" stroke="#63b8ff" points="150.83,-249.18 161.11,-251.73 154.66,-243.32 150.83,-249.18"/>
</a>
</g>
</g>
<!-- Node7&#45;&gt;Node5 -->
<g id="edge7_Node000007_Node000005" class="edge">
<title>Node7&#45;&gt;Node5</title>
<g id="a_edge7_Node000007_Node000005"><a xlink:title=" ">
<path fill="none" stroke="#63b8ff" d="M539.95,-224.49C416.36,-224.49 155.27,-224.49 70.4,-224.49"/>
<polygon fill="#63b8ff" stroke="#63b8ff" points="539.6,-227.99 549.6,-224.49 539.6,-220.99 539.6,-227.99"/>
</a>
</g>
</g>
<!-- Node9 -->
<g id="Node000009" class="node">
<title>Node9</title>
<g id="a_Node000009"><a xlink:href="vm_8c.html#aa60d1dd27f07546d0c60b082f32360d8" target="_top" xlink:title=" ">
<polygon fill="white" stroke="#666666" points="493.38,-130.12 418.12,-130.12 418.12,-110.87 493.38,-110.87 493.38,-130.12"/>
<text xml:space="preserve" text-anchor="middle" x="455.75" y="-116.62" font-family="Helvetica,sans-Serif" font-size="10.00">mrbc_vm_run</text>
</a>
</g>
</g>
<!-- Node8&#45;&gt;Node9 -->
<g id="edge9_Node000008_Node000009" class="edge">
<title>Node8&#45;&gt;Node9</title>
<g id="a_edge9_Node000008_Node000009"><a xlink:title=" ">
<path fill="none" stroke="#63b8ff" d="M868.09,-183.8C824.55,-180.9 756.96,-175.58 698.75,-167.49 632.77,-158.32 616.88,-152.27 551.5,-139.49 532.4,-135.76 511.15,-131.51 493.63,-127.98"/>
<polygon fill="#63b8ff" stroke="#63b8ff" points="867.71,-187.28 877.92,-184.44 868.17,-180.3 867.71,-187.28"/>
</a>
</g>
</g>
<!-- Node10 -->
<g id="Node000010" class="node">
<title>Node10</title>
<g id="a_Node000010"><a xlink:href="rrt0_8c.html#ae684e409f06a0a28190d3961151737df" target="_top" xlink:title=" ">
<polygon fill="white" stroke="#666666" points="344.25,-130.12 287.75,-130.12 287.75,-110.87 344.25,-110.87 344.25,-130.12"/>
<text xml:space="preserve" text-anchor="middle" x="316" y="-116.62" font-family="Helvetica,sans-Serif" font-size="10.00">mrbc_run</text>
</a>
</g>
</g>
<!-- Node9&#45;&gt;Node10 -->
<g id="edge10_Node000009_Node000010" class="edge">
<title>Node9&#45;&gt;Node10</title>
<g id="a_edge10_Node000009_Node000010"><a xlink:title=" ">
<path fill="none" stroke="#63b8ff" d="M406.61,-120.49C385.78,-120.49 362.16,-120.49 344.4,-120.49"/>
<polygon fill="#63b8ff" stroke="#63b8ff" points="406.32,-123.99 416.32,-120.49 406.32,-116.99 406.32,-123.99"/>
</a>
</g>
</g>
<!-- Node11 -->
<g id="Node000011" class="node">
<title>Node11</title>
<g id="a_Node000011"><a xlink:href="class_8c.html#ad12d568598d06f67848857cff37c4a58" target="_top" xlink:title=" ">
<polygon fill="white" stroke="#666666" points="360,-177.12 272,-177.12 272,-157.87 360,-157.87 360,-177.12"/>
<text xml:space="preserve" text-anchor="middle" x="316" y="-163.62" font-family="Helvetica,sans-Serif" font-size="10.00">mrbc_run_mrblib</text>
</a>
</g>
</g>
<!-- Node9&#45;&gt;Node11 -->
<g id="edge11_Node000009_Node000011" class="edge">
<title>Node9&#45;&gt;Node11</title>
<g id="a_edge11_Node000009_Node000011"><a xlink:title=" ">
<path fill="none" stroke="#63b8ff" d="M414.31,-134.29C392.59,-141.7 366.28,-150.68 346.5,-157.43"/>
<polygon fill="#63b8ff" stroke="#63b8ff" points="415.43,-137.61 423.77,-131.07 413.17,-130.98 415.43,-137.61"/>
</a>
</g>
</g>
<!-- Node12 -->
<g id="Node000012" class="node">
<title>Node12</title>
<g id="a_Node000012"><a xlink:href="class_8c.html#ab4ac4a017209001c79b0304df0b2cec5" target="_top" xlink:title=" ">
<polygon fill="white" stroke="#666666" points="236,-196.12 120.25,-196.12 120.25,-176.87 236,-176.87 236,-196.12"/>
<text xml:space="preserve" text-anchor="middle" x="178.12" y="-182.62" font-family="Helvetica,sans-Serif" font-size="10.00">mrbc_init_class_mrblib</text>
</a>
</g>
</g>
<!-- Node11&#45;&gt;Node12 -->
<g id="edge12_Node000011_Node000012" class="edge">
<title>Node11&#45;&gt;Node12</title>
<g id="a_edge12_Node000011_Node000012"><a xlink:title=" ">
<path fill="none" stroke="#63b8ff" d="M260.35,-175.14C252.48,-176.24 244.38,-177.37 236.47,-178.48"/>
<polygon fill="#63b8ff" stroke="#63b8ff" points="260.72,-178.62 270.14,-173.77 259.75,-171.69 260.72,-178.62"/>
</a>
</g>
</g>
<!-- Node12&#45;&gt;Node5 -->
<g id="edge13_Node000012_Node000005" class="edge">
<title>Node12&#45;&gt;Node5</title>
<g id="a_edge13_Node000012_Node000005"><a xlink:title=" ">
<path fill="none" stroke="#63b8ff" d="M130.71,-199.66C110.57,-205.37 87.67,-211.86 70.34,-216.78"/>
<polygon fill="#63b8ff" stroke="#63b8ff" points="131.45,-203.09 140.11,-196.99 129.54,-196.35 131.45,-203.09"/>
</a>
</g>
</g>
<!-- Node12&#45;&gt;Node6 -->
<g id="edge14_Node000012_Node000006" class="edge">
<title>Node12&#45;&gt;Node6</title>
<g id="a_edge14_Node000012_Node000006"><a xlink:title=" ">
<path fill="none" stroke="#63b8ff" d="M108.63,-187.01C100.33,-187.07 92.07,-187.13 84.35,-187.19"/>
<polygon fill="#63b8ff" stroke="#63b8ff" points="108.42,-190.51 118.39,-186.93 108.37,-183.51 108.42,-190.51"/>
</a>
</g>
</g>
<!-- Node14 -->
<g id="Node000014" class="node">
<title>Node14</title>
<g id="a_Node000014"><a xlink:href="class_8c.html#afe2ecc71369716c4868b52dd603832a9" target="_top" xlink:title=" ">
<polygon fill="white" stroke="#666666" points="811.12,-121.12 713.38,-121.12 713.38,-101.87 811.12,-101.87 811.12,-121.12"/>
<text xml:space="preserve" text-anchor="middle" x="762.25" y="-107.62" font-family="Helvetica,sans-Serif" font-size="10.00">mrbc_define_class</text>
</a>
</g>
</g>
<!-- Node13&#45;&gt;Node14 -->
<g id="edge16_Node000013_Node000014" class="edge">
<title>Node13&#45;&gt;Node14</title>
<g id="a_edge16_Node000013_Node000014"><a xlink:title=" ">
<path fill="none" stroke="#63b8ff" d="M850.09,-111.49C837.17,-111.49 823.76,-111.49 811.46,-111.49"/>
<polygon fill="#63b8ff" stroke="#63b8ff" points="849.78,-114.99 859.78,-111.49 849.78,-107.99 849.78,-114.99"/>
</a>
</g>
</g>
<!-- Node16 -->
<g id="Node000016" class="node">
<title>Node16</title>
<g id="a_Node000016"><a xlink:href="class_8c.html#aed6d762996964477830b217ae49f8796" target="_top" xlink:title=" ">
<polygon fill="white" stroke="#666666" points="825.75,-158.12 698.75,-158.12 698.75,-138.87 825.75,-138.87 825.75,-158.12"/>
<text xml:space="preserve" text-anchor="middle" x="762.25" y="-144.62" font-family="Helvetica,sans-Serif" font-size="10.00">mrbc_define_class_under</text>
</a>
</g>
</g>
<!-- Node13&#45;&gt;Node16 -->
<g id="edge19_Node000013_Node000016" class="edge">
<title>Node13&#45;&gt;Node16</title>
<g id="a_edge19_Node000013_Node000016"><a xlink:title=" ">
<path fill="none" stroke="#63b8ff" d="M850.53,-126.98C834.76,-130.87 818.25,-134.94 803.88,-138.48"/>
<polygon fill="#63b8ff" stroke="#63b8ff" points="850.95,-130.48 859.82,-124.69 849.27,-123.69 850.95,-130.48"/>
</a>
</g>
</g>
<!-- Node17 -->
<g id="Node000017" class="node">
<title>Node17</title>
<g id="a_Node000017"><a xlink:href="class_8c.html#ac36d863018ac03686975116e08bc5f66" target="_top" xlink:title=" ">
<polygon fill="white" stroke="#666666" points="815.25,-84.12 709.25,-84.12 709.25,-64.87 815.25,-64.87 815.25,-84.12"/>
<text xml:space="preserve" text-anchor="middle" x="762.25" y="-70.62" font-family="Helvetica,sans-Serif" font-size="10.00">mrbc_define_module</text>
</a>
</g>
</g>
<!-- Node13&#45;&gt;Node17 -->
<g id="edge22_Node000013_Node000017" class="edge">
<title>Node13&#45;&gt;Node17</title>
<g id="a_edge22_Node000013_Node000017"><a xlink:title=" ">
<path fill="none" stroke="#63b8ff" d="M850.53,-96C834.76,-92.12 818.25,-88.05 803.88,-84.51"/>
<polygon fill="#63b8ff" stroke="#63b8ff" points="849.27,-99.3 859.82,-98.3 850.95,-92.5 849.27,-99.3"/>
</a>
</g>
</g>
<!-- Node19 -->
<g id="Node000019" class="node">
<title>Node19</title>
<g id="a_Node000019"><a xlink:href="class_8c.html#a4b4d1d77b1d9cb2c06523cdff0d079d2" target="_top" xlink:title=" ">
<polygon fill="white" stroke="#666666" points="815.25,-46.74 709.25,-46.74 709.25,-16.24 815.25,-16.24 815.25,-46.74"/>
<text xml:space="preserve" text-anchor="start" x="717.25" y="-33.24" font-family="Helvetica,sans-Serif" font-size="10.00">mrbc_define_module</text>
<text xml:space="preserve" text-anchor="middle" x="762.25" y="-21.99" font-family="Helvetica,sans-Serif" font-size="10.00">_under</text>
</a>
</g>
</g>
<!-- Node13&#45;&gt;Node19 -->
<g id="edge25_Node000013_Node000019" class="edge">
<title>Node13&#45;&gt;Node19</title>
<g id="a_edge25_Node000013_Node000019"><a xlink:title=" ">
<path fill="none" stroke="#63b8ff" d="M882.66,-89.7C866.25,-78.62 845.42,-65.43 825.75,-55.49 819.94,-52.56 813.68,-49.76 807.45,-47.18"/>
<polygon fill="#63b8ff" stroke="#63b8ff" points="880.3,-92.32 890.53,-95.09 884.26,-86.55 880.3,-92.32"/>
</a>
</g>
</g>
<!-- Node15 -->
<g id="Node000015" class="node">
<title>Node15</title>
<g id="a_Node000015"><a xlink:href="vm_8c.html#a53ac5608ade8b83ff4d489007a757709" target="_top" xlink:title=" ">
<polygon fill="white" stroke="#666666" points="634.62,-130.12 579.62,-130.12 579.62,-110.87 634.62,-110.87 634.62,-130.12"/>
<text xml:space="preserve" text-anchor="middle" x="607.12" y="-116.62" font-family="Helvetica,sans-Serif" font-size="10.00">op_class</text>
</a>
</g>
</g>
<!-- Node14&#45;&gt;Node15 -->
<g id="edge17_Node000014_Node000015" class="edge">
<title>Node14&#45;&gt;Node15</title>
<g id="a_edge17_Node000014_Node000015"><a xlink:title=" ">
<path fill="none" stroke="#63b8ff" d="M701.77,-114.99C678.72,-116.35 653.49,-117.83 635.03,-118.91"/>
<polygon fill="#63b8ff" stroke="#63b8ff" points="701.93,-118.49 711.71,-114.41 701.52,-111.5 701.93,-118.49"/>
</a>
</g>
</g>
<!-- Node15&#45;&gt;Node9 -->
<g id="edge18_Node000015_Node000009" class="edge">
<title>Node15&#45;&gt;Node9</title>
<g id="a_edge18_Node000015_Node000009"><a xlink:title=" ">
<path fill="none" stroke="#63b8ff" d="M568.08,-120.49C545.22,-120.49 516.26,-120.49 493.6,-120.49"/>
<polygon fill="#63b8ff" stroke="#63b8ff" points="567.91,-123.99 577.91,-120.49 567.91,-116.99 567.91,-123.99"/>
</a>
</g>
</g>
<!-- Node16&#45;&gt;Node7 -->
<g id="edge20_Node000016_Node000007" class="edge">
<title>Node16&#45;&gt;Node7</title>
<g id="a_edge20_Node000016_Node000007"><a xlink:title=" ">
<path fill="none" stroke="#63b8ff" d="M730.83,-163.59C700.31,-178.74 654.2,-201.63 628.06,-214.6"/>
<polygon fill="#63b8ff" stroke="#63b8ff" points="732.16,-166.84 739.56,-159.26 729.05,-160.57 732.16,-166.84"/>
</a>
</g>
</g>
<!-- Node16&#45;&gt;Node15 -->
<g id="edge21_Node000016_Node000015" class="edge">
<title>Node16&#45;&gt;Node15</title>
<g id="a_edge21_Node000016_Node000015"><a xlink:title=" ">
<path fill="none" stroke="#63b8ff" d="M694.75,-136.33C673.69,-132.48 651.6,-128.44 634.99,-125.41"/>
<polygon fill="#63b8ff" stroke="#63b8ff" points="694.01,-139.76 704.48,-138.11 695.27,-132.87 694.01,-139.76"/>
</a>
</g>
</g>
<!-- Node18 -->
<g id="Node000018" class="node">
<title>Node18</title>
<g id="a_Node000018"><a xlink:href="vm_8c.html#a5ee1936b951dce69bfb1e90457002be0" target="_top" xlink:title=" ">
<polygon fill="white" stroke="#666666" points="638.75,-84.12 575.5,-84.12 575.5,-64.87 638.75,-64.87 638.75,-84.12"/>
<text xml:space="preserve" text-anchor="middle" x="607.12" y="-70.62" font-family="Helvetica,sans-Serif" font-size="10.00">op_module</text>
</a>
</g>
</g>
<!-- Node17&#45;&gt;Node18 -->
<g id="edge23_Node000017_Node000018" class="edge">
<title>Node17&#45;&gt;Node18</title>
<g id="a_edge23_Node000017_Node000018"><a xlink:title=" ">
<path fill="none" stroke="#63b8ff" d="M697.61,-74.49C677.43,-74.49 656.01,-74.49 639.19,-74.49"/>
<polygon fill="#63b8ff" stroke="#63b8ff" points="697.47,-77.99 707.47,-74.49 697.47,-70.99 697.47,-77.99"/>
</a>
</g>
</g>
<!-- Node18&#45;&gt;Node9 -->
<g id="edge24_Node000018_Node000009" class="edge">
<title>Node18&#45;&gt;Node9</title>
<g id="a_edge24_Node000018_Node000009"><a xlink:title=" ">
<path fill="none" stroke="#63b8ff" d="M564.39,-87.35C540.7,-94.64 511.49,-103.64 489.47,-110.42"/>
<polygon fill="#63b8ff" stroke="#63b8ff" points="565.2,-90.76 573.73,-84.47 563.14,-84.07 565.2,-90.76"/>
</a>
</g>
</g>
<!-- Node19&#45;&gt;Node18 -->
<g id="edge26_Node000019_Node000018" class="edge">
<title>Node19&#45;&gt;Node18</title>
<g id="a_edge26_Node000019_Node000018"><a xlink:title=" ">
<path fill="none" stroke="#63b8ff" d="M698.17,-49.21C677.83,-54.92 656.17,-61 639.19,-65.77"/>
<polygon fill="#63b8ff" stroke="#63b8ff" points="698.84,-52.65 707.52,-46.58 696.95,-45.92 698.84,-52.65"/>
</a>
</g>
</g>
<!-- Node20&#45;&gt;Node9 -->
<g id="edge28_Node000020_Node000009" class="edge">
<title>Node20&#45;&gt;Node9</title>
<g id="a_edge28_Node000020_Node000009"><a xlink:title=" ">
<path fill="none" stroke="#63b8ff" d="M1020.71,-23.34C954.55,-10.55 815,10.98 698.75,-7.49 630.77,-18.29 613.23,-25.05 551.5,-55.49 519.65,-71.2 486.29,-96.49 468.91,-110.44"/>
<polygon fill="#63b8ff" stroke="#63b8ff" points="1019.84,-26.74 1030.33,-25.25 1021.2,-19.87 1019.84,-26.74"/>
</a>
</g>
</g>
</g>
</svg>
