<?xml version="1.0" encoding="UTF-8" standalone="no"?>
<!DOCTYPE svg PUBLIC "-//W3C//DTD SVG 1.1//EN"
 "http://www.w3.org/Graphics/SVG/1.1/DTD/svg11.dtd">
<!-- Generated by graphviz version 15.1.0 (20260618.0150)
 -->
<!-- Title: op_aset Pages: 1 -->
<svg width="867pt" height="201pt"
 viewBox="0.00 0.00 867.00 201.00" xmlns="http://www.w3.org/2000/svg" xmlns:xlink="http://www.w3.org/1999/xlink">
<g id="graph0" class="graph" transform="scale(1 1) rotate(0) translate(4 197.48)">
<title>op_aset</title>
<!-- Node1 -->
<g id="Node000001" class="node">
<title>Node1</title>
<g id="a_Node000001"><a xlink:title=" ">
<polygon fill="#999999" stroke="#666666" points="50.5,-58.25 0,-58.25 0,-39 50.5,-39 50.5,-58.25"/>
<text xml:space="preserve" text-anchor="middle" x="25.25" y="-44.75" font-family="Helvetica,sans-Serif" font-size="10.00">op_aset</text>
</a>
</g>
</g>
<!-- Node2 -->
<g id="Node000002" class="node">
<title>Node2</title>
<g id="a_Node000002"><a xlink:href="c__array_8c.html#a4266711bd361eda8bcc3d2aa6d9b9816" target="_top" xlink:title=" ">
<polygon fill="white" stroke="#666666" points="170,-77.25 86.5,-77.25 86.5,-58 170,-58 170,-77.25"/>
<text xml:space="preserve" text-anchor="middle" x="128.25" y="-63.75" font-family="Helvetica,sans-Serif" font-size="10.00">mrbc_array_set</text>
</a>
</g>
</g>
<!-- Node1&#45;&gt;Node2 -->
<g id="edge1_Node000001_Node000002" class="edge">
<title>Node1&#45;&gt;Node2</title>
<g id="a_edge1_Node000001_Node000002"><a xlink:title=" ">
<path fill="none" stroke="#63b8ff" d="M50.96,-53.27C58.35,-54.66 66.75,-56.24 75.2,-57.83"/>
<polygon fill="#63b8ff" stroke="#63b8ff" points="74.31,-61.23 84.78,-59.64 75.6,-54.35 74.31,-61.23"/>
</a>
</g>
</g>
<!-- Node16 -->
<g id="Node000016" class="node">
<title>Node16</title>
<g id="a_Node000016"><a xlink:href="value_8h.html#a82f06d6fe162ccb4ac65783e3e9e8d3a" target="_top" xlink:title=" ">
<polygon fill="white" stroke="#666666" points="161.75,-40.25 94.75,-40.25 94.75,-21 161.75,-21 161.75,-40.25"/>
<text xml:space="preserve" text-anchor="middle" x="128.25" y="-26.75" font-family="Helvetica,sans-Serif" font-size="10.00">mrbc_incref</text>
</a>
</g>
</g>
<!-- Node1&#45;&gt;Node16 -->
<g id="edge23_Node000001_Node000016" class="edge">
<title>Node1&#45;&gt;Node16</title>
<g id="a_edge23_Node000001_Node000016"><a xlink:title=" ">
<path fill="none" stroke="#63b8ff" d="M50.96,-44.22C60.67,-42.49 72.11,-40.45 83.15,-38.48"/>
<polygon fill="#63b8ff" stroke="#63b8ff" points="83.69,-41.94 92.92,-36.74 82.46,-35.05 83.69,-41.94"/>
</a>
</g>
</g>
<!-- Node3 -->
<g id="Node000003" class="node">
<title>Node3</title>
<g id="a_Node000003"><a xlink:href="c__array_8c.html#aaf729f3fa126207cb3a09070678a5132" target="_top" xlink:title=" ">
<polygon fill="white" stroke="#666666" points="302.25,-114.25 206,-114.25 206,-95 302.25,-95 302.25,-114.25"/>
<text xml:space="preserve" text-anchor="middle" x="254.12" y="-100.75" font-family="Helvetica,sans-Serif" font-size="10.00">mrbc_array_resize</text>
</a>
</g>
</g>
<!-- Node2&#45;&gt;Node3 -->
<g id="edge2_Node000002_Node000003" class="edge">
<title>Node2&#45;&gt;Node3</title>
<g id="a_edge2_Node000002_Node000003"><a xlink:title=" ">
<path fill="none" stroke="#63b8ff" d="M163.1,-77.74C177.16,-81.94 193.68,-86.87 208.7,-91.36"/>
<polygon fill="#63b8ff" stroke="#63b8ff" points="207.28,-94.59 217.87,-94.09 209.29,-87.88 207.28,-94.59"/>
</a>
</g>
</g>
<!-- Node14 -->
<g id="Node000014" class="node">
<title>Node14</title>
<g id="a_Node000014"><a xlink:href="value_8h.html#a264e272a50b44a8873fa9928be7cda0c" target="_top" xlink:title=" ">
<polygon fill="white" stroke="#666666" points="289.12,-77.25 219.12,-77.25 219.12,-58 289.12,-58 289.12,-77.25"/>
<text xml:space="preserve" text-anchor="middle" x="254.12" y="-63.75" font-family="Helvetica,sans-Serif" font-size="10.00">mrbc_decref</text>
</a>
</g>
</g>
<!-- Node2&#45;&gt;Node14 -->
<g id="edge21_Node000002_Node000014" class="edge">
<title>Node2&#45;&gt;Node14</title>
<g id="a_edge21_Node000002_Node000014"><a xlink:title=" ">
<path fill="none" stroke="#63b8ff" d="M170.5,-67.62C182.34,-67.62 195.32,-67.62 207.41,-67.62"/>
<polygon fill="#63b8ff" stroke="#63b8ff" points="207.15,-71.13 217.15,-67.63 207.15,-64.13 207.15,-71.13"/>
</a>
</g>
</g>
<!-- Node15 -->
<g id="Node000015" class="node">
<title>Node15</title>
<g id="a_Node000015"><a xlink:href="boxing__no_8h.html#a01cbf302aec87b5f1ed5fde9dd1c1f95" target="_top" xlink:title=" ">
<polygon fill="white" stroke="#666666" points="289.88,-40.25 218.38,-40.25 218.38,-21 289.88,-21 289.88,-40.25"/>
<text xml:space="preserve" text-anchor="middle" x="254.12" y="-26.75" font-family="Helvetica,sans-Serif" font-size="10.00">mrbc_set_nil</text>
</a>
</g>
</g>
<!-- Node2&#45;&gt;Node15 -->
<g id="edge22_Node000002_Node000015" class="edge">
<title>Node2&#45;&gt;Node15</title>
<g id="a_edge22_Node000002_Node000015"><a xlink:title=" ">
<path fill="none" stroke="#63b8ff" d="M163.1,-57.51C177.16,-53.31 193.68,-48.38 208.7,-43.89"/>
<polygon fill="#63b8ff" stroke="#63b8ff" points="209.29,-47.37 217.87,-41.16 207.28,-40.66 209.29,-47.37"/>
</a>
</g>
</g>
<!-- Node4 -->
<g id="Node000004" class="node">
<title>Node4</title>
<g id="a_Node000004"><a xlink:href="alloc_8c.html#aa98e87f44a9739075b3ef4a0da12494e" target="_top" xlink:title=" ">
<polygon fill="white" stroke="#666666" points="430.75,-114.25 338.25,-114.25 338.25,-95 430.75,-95 430.75,-114.25"/>
<text xml:space="preserve" text-anchor="middle" x="384.5" y="-100.75" font-family="Helvetica,sans-Serif" font-size="10.00">mrbc_raw_realloc</text>
</a>
</g>
</g>
<!-- Node3&#45;&gt;Node4 -->
<g id="edge3_Node000003_Node000004" class="edge">
<title>Node3&#45;&gt;Node4</title>
<g id="a_edge3_Node000003_Node000004"><a xlink:title=" ">
<path fill="none" stroke="#63b8ff" d="M302.56,-104.62C310.43,-104.62 318.65,-104.62 326.72,-104.62"/>
<polygon fill="#63b8ff" stroke="#63b8ff" points="326.45,-108.13 336.45,-104.63 326.45,-101.13 326.45,-108.13"/>
</a>
</g>
</g>
<!-- Node5 -->
<g id="Node000005" class="node">
<title>Node5</title>
<g id="a_Node000005"><a xlink:href="alloc_8c.html#acbd68132d9dfec3fedba1162c215d54d" target="_top" xlink:title=" ">
<polygon fill="white" stroke="#666666" points="677.25,-133.25 595.25,-133.25 595.25,-114 677.25,-114 677.25,-133.25"/>
<text xml:space="preserve" text-anchor="middle" x="636.25" y="-119.75" font-family="Helvetica,sans-Serif" font-size="10.00">add_free_block</text>
</a>
</g>
</g>
<!-- Node4&#45;&gt;Node5 -->
<g id="edge4_Node000004_Node000005" class="edge">
<title>Node4&#45;&gt;Node5</title>
<g id="a_edge4_Node000004_Node000005"><a xlink:title=" ">
<path fill="none" stroke="#63b8ff" d="M431.02,-108.09C474.12,-111.37 538.75,-116.28 583.73,-119.71"/>
<polygon fill="#63b8ff" stroke="#63b8ff" points="583.25,-123.18 593.49,-120.45 583.78,-116.2 583.25,-123.18"/>
</a>
</g>
</g>
<!-- Node9 -->
<g id="Node000009" class="node">
<title>Node9</title>
<g id="a_Node000009"><a xlink:href="alloc_8c.html#a696771a6c693f71089a410fd62cb8a29" target="_top" xlink:title=" ">
<polygon fill="white" stroke="#666666" points="672,-190.25 600.5,-190.25 600.5,-171 672,-171 672,-190.25"/>
<text xml:space="preserve" text-anchor="middle" x="636.25" y="-176.75" font-family="Helvetica,sans-Serif" font-size="10.00">merge_block</text>
</a>
</g>
</g>
<!-- Node4&#45;&gt;Node9 -->
<g id="edge8_Node000004_Node000009" class="edge">
<title>Node4&#45;&gt;Node9</title>
<g id="a_edge8_Node000004_Node000009"><a xlink:title=" ">
<path fill="none" stroke="#63b8ff" d="M392.11,-114.49C404.39,-131.81 432.62,-167.15 466.75,-180.62 505.86,-196.07 554.18,-194.17 589.03,-189.53"/>
<polygon fill="#63b8ff" stroke="#63b8ff" points="589.42,-193.01 598.8,-188.1 588.4,-186.09 589.42,-193.01"/>
</a>
</g>
</g>
<!-- Node10 -->
<g id="Node000010" class="node">
<title>Node10</title>
<g id="a_Node000010"><a xlink:href="alloc_8c.html#a20488f515fa00a7f76e400191605d0e5" target="_top" xlink:title=" ">
<polygon fill="white" stroke="#666666" points="551,-57.25 466.75,-57.25 466.75,-38 551,-38 551,-57.25"/>
<text xml:space="preserve" text-anchor="middle" x="508.88" y="-43.75" font-family="Helvetica,sans-Serif" font-size="10.00">mrbc_raw_alloc</text>
</a>
</g>
</g>
<!-- Node4&#45;&gt;Node10 -->
<g id="edge9_Node000004_Node000010" class="edge">
<title>Node4&#45;&gt;Node10</title>
<g id="a_edge9_Node000004_Node000010"><a xlink:title=" ">
<path fill="none" stroke="#63b8ff" d="M407.1,-94.57C426.23,-85.65 454.42,-72.52 476.12,-62.41"/>
<polygon fill="#63b8ff" stroke="#63b8ff" points="477.54,-65.62 485.12,-58.22 474.58,-59.27 477.54,-65.62"/>
</a>
</g>
</g>
<!-- Node11 -->
<g id="Node000011" class="node">
<title>Node11</title>
<g id="a_Node000011"><a xlink:href="alloc_8c.html#a87aaed59b60a8efef0f064c04abbd359" target="_top" xlink:title=" ">
<polygon fill="white" stroke="#666666" points="685.5,-95.25 587,-95.25 587,-76 685.5,-76 685.5,-95.25"/>
<text xml:space="preserve" text-anchor="middle" x="636.25" y="-81.75" font-family="Helvetica,sans-Serif" font-size="10.00">remove_free_block</text>
</a>
</g>
</g>
<!-- Node4&#45;&gt;Node11 -->
<g id="edge19_Node000004_Node000011" class="edge">
<title>Node4&#45;&gt;Node11</title>
<g id="a_edge19_Node000004_Node000011"><a xlink:title=" ">
<path fill="none" stroke="#63b8ff" d="M431.02,-101.16C471.53,-98.08 531.07,-93.55 575.42,-90.18"/>
<polygon fill="#63b8ff" stroke="#63b8ff" points="575.42,-93.69 585.12,-89.44 574.89,-86.71 575.42,-93.69"/>
</a>
</g>
</g>
<!-- Node12 -->
<g id="Node000012" class="node">
<title>Node12</title>
<g id="a_Node000012"><a xlink:href="alloc_8c.html#a27f88c822326846ffe3755109bee2926" target="_top" xlink:title=" ">
<polygon fill="white" stroke="#666666" points="667.5,-19.25 605,-19.25 605,0 667.5,0 667.5,-19.25"/>
<text xml:space="preserve" text-anchor="middle" x="636.25" y="-5.75" font-family="Helvetica,sans-Serif" font-size="10.00">split_block</text>
</a>
</g>
</g>
<!-- Node4&#45;&gt;Node12 -->
<g id="edge20_Node000004_Node000012" class="edge">
<title>Node4&#45;&gt;Node12</title>
<g id="a_edge20_Node000004_Node000012"><a xlink:title=" ">
<path fill="none" stroke="#63b8ff" d="M392.67,-94.61C405.41,-77.69 433.78,-43.83 466.75,-28.62 506.86,-10.13 557.83,-6.78 593.16,-7.19"/>
<polygon fill="#63b8ff" stroke="#63b8ff" points="592.91,-10.68 602.99,-7.42 593.07,-3.68 592.91,-10.68"/>
</a>
</g>
</g>
<!-- Node13 -->
<g id="Node000013" class="node">
<title>Node13</title>
<g id="a_Node000013"><a xlink:href="alloc_8c.html#add284a6bc6f81677d520f64896974572" target="_top" xlink:title=" ">
<polygon fill="white" stroke="#666666" points="549.12,-171.25 468.62,-171.25 468.62,-152 549.12,-152 549.12,-171.25"/>
<text xml:space="preserve" text-anchor="middle" x="508.88" y="-157.75" font-family="Helvetica,sans-Serif" font-size="10.00">mrbc_raw_free</text>
</a>
</g>
</g>
<!-- Node4&#45;&gt;Node13 -->
<g id="edge15_Node000004_Node000013" class="edge">
<title>Node4&#45;&gt;Node13</title>
<g id="a_edge15_Node000004_Node000013"><a xlink:title=" ">
<path fill="none" stroke="#63b8ff" d="M407.1,-114.68C426.23,-123.6 454.42,-136.73 476.12,-146.84"/>
<polygon fill="#63b8ff" stroke="#63b8ff" points="474.58,-149.98 485.12,-151.03 477.54,-143.63 474.58,-149.98"/>
</a>
</g>
</g>
<!-- Node6 -->
<g id="Node000006" class="node">
<title>Node6</title>
<g id="a_Node000006"><a xlink:href="alloc_8c.html#a10f255e05f2f49686909348175f3a5ef" target="_top" xlink:title=" ">
<polygon fill="white" stroke="#666666" points="784,-95.25 721.5,-95.25 721.5,-76 784,-76 784,-95.25"/>
<text xml:space="preserve" text-anchor="middle" x="752.75" y="-81.75" font-family="Helvetica,sans-Serif" font-size="10.00">calc_index</text>
</a>
</g>
</g>
<!-- Node5&#45;&gt;Node6 -->
<g id="edge5_Node000005_Node000006" class="edge">
<title>Node5&#45;&gt;Node6</title>
<g id="a_edge5_Node000005_Node000006"><a xlink:title=" ">
<path fill="none" stroke="#63b8ff" d="M667.63,-113.54C680.94,-109.13 696.75,-103.88 711.05,-99.13"/>
<polygon fill="#63b8ff" stroke="#63b8ff" points="711.8,-102.57 720.19,-96.1 709.59,-95.93 711.8,-102.57"/>
</a>
</g>
</g>
<!-- Node7 -->
<g id="Node000007" class="node">
<title>Node7</title>
<g id="a_Node000007"><a xlink:href="alloc_8c.html#ab77fd7c768950db893e8736d4a27b771" target="_top" xlink:title=" ">
<polygon fill="white" stroke="#666666" points="859.25,-114.25 820,-114.25 820,-95 859.25,-95 859.25,-114.25"/>
<text xml:space="preserve" text-anchor="middle" x="839.62" y="-100.75" font-family="Helvetica,sans-Serif" font-size="10.00">nlz16</text>
</a>
</g>
</g>
<!-- Node6&#45;&gt;Node7 -->
<g id="edge6_Node000006_Node000007" class="edge">
<title>Node6&#45;&gt;Node7</title>
<g id="a_edge6_Node000006_Node000007"><a xlink:title=" ">
<path fill="none" stroke="#63b8ff" d="M784.39,-92.48C792.21,-94.23 800.61,-96.12 808.41,-97.86"/>
<polygon fill="#63b8ff" stroke="#63b8ff" points="807.63,-101.27 818.15,-100.04 809.16,-94.44 807.63,-101.27"/>
</a>
</g>
</g>
<!-- Node8 -->
<g id="Node000008" class="node">
<title>Node8</title>
<g id="a_Node000008"><a xlink:href="c__numeric_8c.html#a750ec222833802c9789cee1f456cfb21" target="_top" xlink:title=" ">
<polygon fill="white" stroke="#666666" points="857,-77.25 822.25,-77.25 822.25,-58 857,-58 857,-77.25"/>
<text xml:space="preserve" text-anchor="middle" x="839.62" y="-63.75" font-family="Helvetica,sans-Serif" font-size="10.00">shift</text>
</a>
</g>
</g>
<!-- Node6&#45;&gt;Node8 -->
<g id="edge7_Node000006_Node000008" class="edge">
<title>Node6&#45;&gt;Node8</title>
<g id="a_edge7_Node000006_Node000008"><a xlink:title=" ">
<path fill="none" stroke="#63b8ff" d="M784.39,-79.13C793.04,-77.29 802.4,-75.31 810.87,-73.51"/>
<polygon fill="#63b8ff" stroke="#63b8ff" points="811.55,-76.95 820.6,-71.45 810.09,-70.1 811.55,-76.95"/>
</a>
</g>
</g>
<!-- Node10&#45;&gt;Node5 -->
<g id="edge10_Node000010_Node000005" class="edge">
<title>Node10&#45;&gt;Node5</title>
<g id="a_edge10_Node000010_Node000005"><a xlink:title=" ">
<path fill="none" stroke="#63b8ff" d="M521.5,-57.74C536.05,-70.03 562.09,-90.83 587,-104.62 589.81,-106.18 592.76,-107.67 595.78,-109.08"/>
<polygon fill="#63b8ff" stroke="#63b8ff" points="594.16,-112.19 604.72,-112.97 596.95,-105.77 594.16,-112.19"/>
</a>
</g>
</g>
<!-- Node10&#45;&gt;Node6 -->
<g id="edge11_Node000010_Node000006" class="edge">
<title>Node10&#45;&gt;Node6</title>
<g id="a_edge11_Node000010_Node000006"><a xlink:title=" ">
<path fill="none" stroke="#63b8ff" d="M551.34,-50.1C587.12,-52.71 640.06,-57.72 685.5,-66.62 693.48,-68.19 701.89,-70.26 709.95,-72.46"/>
<polygon fill="#63b8ff" stroke="#63b8ff" points="708.98,-75.83 719.55,-75.21 710.9,-69.1 708.98,-75.83"/>
</a>
</g>
</g>
<!-- Node10&#45;&gt;Node11 -->
<g id="edge12_Node000010_Node000011" class="edge">
<title>Node10&#45;&gt;Node11</title>
<g id="a_edge12_Node000010_Node000011"><a xlink:title=" ">
<path fill="none" stroke="#63b8ff" d="M543.14,-57.71C558,-62.21 575.7,-67.58 591.6,-72.39"/>
<polygon fill="#63b8ff" stroke="#63b8ff" points="590.23,-75.64 600.81,-75.19 592.26,-68.94 590.23,-75.64"/>
</a>
</g>
</g>
<!-- Node10&#45;&gt;Node12 -->
<g id="edge14_Node000010_Node000012" class="edge">
<title>Node10&#45;&gt;Node12</title>
<g id="a_edge14_Node000010_Node000012"><a xlink:title=" ">
<path fill="none" stroke="#63b8ff" d="M543.14,-37.54C558.7,-32.83 577.39,-27.16 593.86,-22.17"/>
<polygon fill="#63b8ff" stroke="#63b8ff" points="594.83,-25.53 603.39,-19.28 592.8,-18.83 594.83,-25.53"/>
</a>
</g>
</g>
<!-- Node11&#45;&gt;Node6 -->
<g id="edge13_Node000011_Node000006" class="edge">
<title>Node11&#45;&gt;Node6</title>
<g id="a_edge13_Node000011_Node000006"><a xlink:title=" ">
<path fill="none" stroke="#63b8ff" d="M685.81,-85.62C693.74,-85.62 701.9,-85.62 709.66,-85.62"/>
<polygon fill="#63b8ff" stroke="#63b8ff" points="709.54,-89.13 719.54,-85.63 709.54,-82.13 709.54,-89.13"/>
</a>
</g>
</g>
<!-- Node13&#45;&gt;Node5 -->
<g id="edge16_Node000013_Node000005" class="edge">
<title>Node13&#45;&gt;Node5</title>
<g id="a_edge16_Node000013_Node000005"><a xlink:title=" ">
<path fill="none" stroke="#63b8ff" d="M543.14,-151.54C558,-147.04 575.7,-141.67 591.6,-136.86"/>
<polygon fill="#63b8ff" stroke="#63b8ff" points="592.26,-140.31 600.81,-134.06 590.23,-133.61 592.26,-140.31"/>
</a>
</g>
</g>
<!-- Node13&#45;&gt;Node9 -->
<g id="edge17_Node000013_Node000009" class="edge">
<title>Node13&#45;&gt;Node9</title>
<g id="a_edge17_Node000013_Node000009"><a xlink:title=" ">
<path fill="none" stroke="#63b8ff" d="M549.54,-167.64C562.08,-169.54 576.05,-171.65 589.01,-173.62"/>
<polygon fill="#63b8ff" stroke="#63b8ff" points="588.17,-177.03 598.58,-175.07 589.22,-170.11 588.17,-177.03"/>
</a>
</g>
</g>
<!-- Node13&#45;&gt;Node11 -->
<g id="edge18_Node000013_Node000011" class="edge">
<title>Node13&#45;&gt;Node11</title>
<g id="a_edge18_Node000013_Node000011"><a xlink:title=" ">
<path fill="none" stroke="#63b8ff" d="M521.5,-151.51C536.05,-139.22 562.09,-118.42 587,-104.62 589.81,-103.07 592.76,-101.58 595.78,-100.17"/>
<polygon fill="#63b8ff" stroke="#63b8ff" points="596.95,-103.48 604.72,-96.28 594.16,-97.06 596.95,-103.48"/>
</a>
</g>
</g>
</g>
</svg>
