<?xml version="1.0" encoding="UTF-8" standalone="no"?>
<!DOCTYPE svg PUBLIC "-//W3C//DTD SVG 1.1//EN"
 "http://www.w3.org/Graphics/SVG/1.1/DTD/svg11.dtd">
<!-- Generated by graphviz version 3.0.0 (20220226.1711)
 -->
<!-- Title: mrbc_raw_free Pages: 1 -->
<svg width="390pt" height="236pt"
 viewBox="0.00 0.00 390.00 236.00" xmlns="http://www.w3.org/2000/svg" xmlns:xlink="http://www.w3.org/1999/xlink">
<g id="graph0" class="graph" transform="scale(1 1) rotate(0) translate(4 232)">
<title>mrbc_raw_free</title>
<polygon fill="white" stroke="transparent" points="-4,4 -4,-232 386,-232 386,4 -4,4"/>
<!-- Node1 -->
<g id="node1" class="node">
<title>Node1</title>
<g id="a_node1"><a xlink:title=" ">
<polygon fill="#bfbfbf" stroke="black" points="301,-95.5 301,-114.5 382,-114.5 382,-95.5 301,-95.5"/>
<text text-anchor="middle" x="341.5" y="-102.5" font-family="Helvetica,sans-Serif" font-size="10.00">mrbc_raw_free</text>
</a>
</g>
</g>
<!-- Node2 -->
<g id="node2" class="node">
<title>Node2</title>
<g id="a_node2"><a xlink:href="error_8c.html#a504402af94fb1f6a42c364c46524f747" target="_top" xlink:title=" ">
<polygon fill="white" stroke="black" points="148,-208.5 148,-227.5 265,-227.5 265,-208.5 148,-208.5"/>
<text text-anchor="middle" x="206.5" y="-215.5" font-family="Helvetica,sans-Serif" font-size="10.00">mrbc_exception_delete</text>
</a>
</g>
</g>
<!-- Node1&#45;&gt;Node2 -->
<g id="edge1" class="edge">
<title>Node1&#45;&gt;Node2</title>
<path fill="none" stroke="midnightblue" d="M329.07,-122.99C315.77,-142.71 292.11,-174.18 265,-194 256.88,-199.94 247.07,-204.73 237.87,-208.42"/>
<polygon fill="midnightblue" stroke="midnightblue" points="332.02,-124.88 334.59,-114.6 326.17,-121.03 332.02,-124.88"/>
</g>
<!-- Node3 -->
<g id="node3" class="node">
<title>Node3</title>
<g id="a_node3"><a xlink:href="class_8c.html#ab65c16388fcf33ff5fd13cc9f8e0af1f" target="_top" xlink:title=" ">
<polygon fill="white" stroke="black" points="0,-95.5 0,-114.5 112,-114.5 112,-95.5 0,-95.5"/>
<text text-anchor="middle" x="56" y="-102.5" font-family="Helvetica,sans-Serif" font-size="10.00">mrbc_instance_delete</text>
</a>
</g>
</g>
<!-- Node1&#45;&gt;Node3 -->
<g id="edge2" class="edge">
<title>Node1&#45;&gt;Node3</title>
<path fill="none" stroke="midnightblue" d="M324,-122.23C309.82,-135.7 288.06,-153.38 265,-161 215.62,-177.31 198.03,-175.16 148,-161 116.05,-151.96 84.29,-128.18 68.07,-114.7"/>
<polygon fill="midnightblue" stroke="midnightblue" points="326.77,-124.41 331.43,-114.89 321.85,-119.43 326.77,-124.41"/>
</g>
<!-- Node4 -->
<g id="node4" class="node">
<title>Node4</title>
<g id="a_node4"><a xlink:href="load_8c.html#a94bca2ae8a874f839d1eaf3857b5fde5" target="_top" xlink:title=" ">
<polygon fill="white" stroke="black" points="166,-114.5 166,-133.5 247,-133.5 247,-114.5 166,-114.5"/>
<text text-anchor="middle" x="206.5" y="-121.5" font-family="Helvetica,sans-Serif" font-size="10.00">mrbc_irep_free</text>
</a>
</g>
</g>
<!-- Node1&#45;&gt;Node4 -->
<g id="edge3" class="edge">
<title>Node1&#45;&gt;Node4</title>
<path fill="none" stroke="midnightblue" d="M290.71,-112.11C276.32,-114.17 260.81,-116.38 247.12,-118.34"/>
<polygon fill="midnightblue" stroke="midnightblue" points="291.55,-115.53 300.96,-110.65 290.56,-108.6 291.55,-115.53"/>
</g>
<!-- Node5 -->
<g id="node5" class="node">
<title>Node5</title>
<g id="a_node5"><a xlink:href="keyvalue_8c.html#a450e6844b6e260f02700354f5b5040bd" target="_top" xlink:title=" ">
<polygon fill="white" stroke="black" points="13,-57.5 13,-76.5 99,-76.5 99,-57.5 13,-57.5"/>
<text text-anchor="middle" x="56" y="-64.5" font-family="Helvetica,sans-Serif" font-size="10.00">mrbc_kv_delete</text>
</a>
</g>
</g>
<!-- Node1&#45;&gt;Node5 -->
<g id="edge5" class="edge">
<title>Node1&#45;&gt;Node5</title>
<path fill="none" stroke="midnightblue" d="M317.81,-90.05C303.35,-81.45 283.86,-71.48 265,-67 208.79,-53.65 141.59,-56.99 99.1,-61.37"/>
<polygon fill="midnightblue" stroke="midnightblue" points="316.17,-93.16 326.52,-95.44 319.86,-87.21 316.17,-93.16"/>
</g>
<!-- Node6 -->
<g id="node6" class="node">
<title>Node6</title>
<g id="a_node6"><a xlink:href="keyvalue_8c.html#aaadb690b23d5c4cec82764c05b52cab8" target="_top" xlink:title=" ">
<polygon fill="white" stroke="black" points="151.5,-76.5 151.5,-95.5 261.5,-95.5 261.5,-76.5 151.5,-76.5"/>
<text text-anchor="middle" x="206.5" y="-83.5" font-family="Helvetica,sans-Serif" font-size="10.00">mrbc_kv_delete_data</text>
</a>
</g>
</g>
<!-- Node1&#45;&gt;Node6 -->
<g id="edge6" class="edge">
<title>Node1&#45;&gt;Node6</title>
<path fill="none" stroke="midnightblue" d="M290.92,-97.92C281.46,-96.57 271.51,-95.14 261.91,-93.77"/>
<polygon fill="midnightblue" stroke="midnightblue" points="290.56,-101.4 300.96,-99.35 291.55,-94.47 290.56,-101.4"/>
</g>
<!-- Node7 -->
<g id="node7" class="node">
<title>Node7</title>
<g id="a_node7"><a xlink:href="class_8c.html#a788d9272071cb02b778dc1e99bf7a86f" target="_top" xlink:title=" ">
<polygon fill="white" stroke="black" points="159.5,-0.5 159.5,-19.5 253.5,-19.5 253.5,-0.5 159.5,-0.5"/>
<text text-anchor="middle" x="206.5" y="-7.5" font-family="Helvetica,sans-Serif" font-size="10.00">mrbc_proc_delete</text>
</a>
</g>
</g>
<!-- Node1&#45;&gt;Node7 -->
<g id="edge9" class="edge">
<title>Node1&#45;&gt;Node7</title>
<path fill="none" stroke="midnightblue" d="M325.44,-87.64C311.14,-71.99 288.4,-49.17 265,-34 256.1,-28.23 245.59,-23.37 236.01,-19.55"/>
<polygon fill="midnightblue" stroke="midnightblue" points="322.83,-89.98 332.11,-95.1 328.05,-85.31 322.83,-89.98"/>
</g>
<!-- Node4&#45;&gt;Node4 -->
<g id="edge4" class="edge">
<title>Node4&#45;&gt;Node4</title>
<path fill="none" stroke="midnightblue" d="M231.43,-143.03C230.07,-148.13 221.76,-152 206.5,-152 182.68,-152 175.8,-142.57 185.85,-133.76"/>
<polygon fill="midnightblue" stroke="midnightblue" points="234.52,-141.37 227.15,-133.76 228.16,-144.3 234.52,-141.37"/>
</g>
<!-- Node6&#45;&gt;Node3 -->
<g id="edge7" class="edge">
<title>Node6&#45;&gt;Node3</title>
<path fill="none" stroke="midnightblue" d="M141.45,-94.2C131.72,-95.44 121.76,-96.71 112.24,-97.93"/>
<polygon fill="midnightblue" stroke="midnightblue" points="141.99,-97.65 151.47,-92.91 141.1,-90.71 141.99,-97.65"/>
</g>
<!-- Node6&#45;&gt;Node5 -->
<g id="edge8" class="edge">
<title>Node6&#45;&gt;Node5</title>
<path fill="none" stroke="midnightblue" d="M141.21,-77.77C126.96,-75.95 112.22,-74.06 99.12,-72.39"/>
<polygon fill="midnightblue" stroke="midnightblue" points="141.1,-81.29 151.47,-79.09 141.99,-74.35 141.1,-81.29"/>
</g>
</g>
</svg>
