<?xml version="1.0" encoding="UTF-8" standalone="no"?>
<!DOCTYPE svg PUBLIC "-//W3C//DTD SVG 1.1//EN"
 "http://www.w3.org/Graphics/SVG/1.1/DTD/svg11.dtd">
<!-- Generated by graphviz version 3.0.0 (20220226.1711)
 -->
<!-- Title: mrbc_raw_alloc Pages: 1 -->
<svg width="349pt" height="78pt"
 viewBox="0.00 0.00 349.00 78.49" xmlns="http://www.w3.org/2000/svg" xmlns:xlink="http://www.w3.org/1999/xlink">
<g id="graph0" class="graph" transform="scale(1 1) rotate(0) translate(4 74.49)">
<title>mrbc_raw_alloc</title>
<polygon fill="white" stroke="transparent" points="-4,4 -4,-74.49 345,-74.49 345,4 -4,4"/>
<!-- Node1 -->
<g id="node1" class="node">
<title>Node1</title>
<g id="a_node1"><a xlink:title=" ">
<polygon fill="#bfbfbf" stroke="black" points="256,-38.5 256,-57.5 341,-57.5 341,-38.5 256,-38.5"/>
<text text-anchor="middle" x="298.5" y="-45.5" font-family="Helvetica,sans-Serif" font-size="10.00">mrbc_raw_alloc</text>
</a>
</g>
</g>
<!-- Node2 -->
<g id="node2" class="node">
<title>Node2</title>
<g id="a_node2"><a xlink:href="rrt0_8c.html#a48d2ad8da9b64902068a7a3a68d141a8" target="_top" xlink:title=" ">
<polygon fill="white" stroke="black" points="0,-38.5 0,-57.5 95,-57.5 95,-38.5 0,-38.5"/>
<text text-anchor="middle" x="47.5" y="-45.5" font-family="Helvetica,sans-Serif" font-size="10.00">mrbc_create_task</text>
</a>
</g>
</g>
<!-- Node1&#45;&gt;Node2 -->
<g id="edge1" class="edge">
<title>Node1&#45;&gt;Node2</title>
<path fill="none" stroke="midnightblue" d="M256.26,-60.06C244.64,-62.92 231.91,-65.56 220,-67 180.73,-71.74 170.3,-71.47 131,-67 114.64,-65.14 96.81,-61.27 81.92,-57.51"/>
<polygon fill="midnightblue" stroke="midnightblue" points="257.34,-63.39 266.14,-57.51 255.59,-56.62 257.34,-63.39"/>
</g>
<!-- Node3 -->
<g id="node3" class="node">
<title>Node3</title>
<g id="a_node3"><a xlink:href="rrt0_8c.html#a7a0950b0db43e8e83b62e89b5a9cb16a" target="_top" xlink:title=" ">
<polygon fill="white" stroke="black" points="131,-38.5 131,-57.5 220,-57.5 220,-38.5 131,-38.5"/>
<text text-anchor="middle" x="175.5" y="-45.5" font-family="Helvetica,sans-Serif" font-size="10.00">mrbc_mutex_init</text>
</a>
</g>
</g>
<!-- Node1&#45;&gt;Node3 -->
<g id="edge2" class="edge">
<title>Node1&#45;&gt;Node3</title>
<path fill="none" stroke="midnightblue" d="M245.69,-48C237.23,-48 228.53,-48 220.28,-48"/>
<polygon fill="midnightblue" stroke="midnightblue" points="245.86,-51.5 255.86,-48 245.86,-44.5 245.86,-51.5"/>
</g>
<!-- Node4 -->
<g id="node4" class="node">
<title>Node4</title>
<g id="a_node4"><a xlink:href="vm_8c.html#abfc6caf79c0e62d19b8fd79fa2c735d1" target="_top" xlink:title=" ">
<polygon fill="white" stroke="black" points="134,-0.5 134,-19.5 217,-19.5 217,-0.5 134,-0.5"/>
<text text-anchor="middle" x="175.5" y="-7.5" font-family="Helvetica,sans-Serif" font-size="10.00">mrbc_vm_open</text>
</a>
</g>
</g>
<!-- Node1&#45;&gt;Node4 -->
<g id="edge3" class="edge">
<title>Node1&#45;&gt;Node4</title>
<path fill="none" stroke="midnightblue" d="M257.12,-35.32C240.77,-30.19 222.21,-24.36 207.02,-19.59"/>
<polygon fill="midnightblue" stroke="midnightblue" points="256.38,-38.75 266.97,-38.41 258.47,-32.08 256.38,-38.75"/>
</g>
<!-- Node4&#45;&gt;Node2 -->
<g id="edge4" class="edge">
<title>Node4&#45;&gt;Node2</title>
<path fill="none" stroke="midnightblue" d="M132.94,-22.54C115.79,-27.7 96.25,-33.6 80.28,-38.41"/>
<polygon fill="midnightblue" stroke="midnightblue" points="134.14,-25.83 142.7,-19.59 132.12,-19.13 134.14,-25.83"/>
</g>
</g>
</svg>
