<?xml version="1.0" encoding="UTF-8" standalone="no"?>
<!DOCTYPE svg PUBLIC "-//W3C//DTD SVG 1.1//EN"
 "http://www.w3.org/Graphics/SVG/1.1/DTD/svg11.dtd">
<!-- Generated by graphviz version 3.0.0 (20220226.1711)
 -->
<!-- Title: mrbc_raw_realloc Pages: 1 -->
<svg width="234pt" height="66pt"
 viewBox="0.00 0.00 234.00 66.00" xmlns="http://www.w3.org/2000/svg" xmlns:xlink="http://www.w3.org/1999/xlink">
<g id="graph0" class="graph" transform="scale(1 1) rotate(0) translate(4 62)">
<title>mrbc_raw_realloc</title>
<polygon fill="white" stroke="transparent" points="-4,4 -4,-62 230,-62 230,4 -4,4"/>
<!-- Node1 -->
<g id="node1" class="node">
<title>Node1</title>
<g id="a_node1"><a xlink:title=" ">
<polygon fill="#bfbfbf" stroke="black" points="133,-19.5 133,-38.5 226,-38.5 226,-19.5 133,-19.5"/>
<text text-anchor="middle" x="179.5" y="-26.5" font-family="Helvetica,sans-Serif" font-size="10.00">mrbc_raw_realloc</text>
</a>
</g>
</g>
<!-- Node2 -->
<g id="node2" class="node">
<title>Node2</title>
<g id="a_node2"><a xlink:href="c__array_8c.html#aaf729f3fa126207cb3a09070678a5132" target="_top" xlink:title=" ">
<polygon fill="white" stroke="red" points="0,-38.5 0,-57.5 97,-57.5 97,-38.5 0,-38.5"/>
<text text-anchor="middle" x="48.5" y="-45.5" font-family="Helvetica,sans-Serif" font-size="10.00">mrbc_array_resize</text>
</a>
</g>
</g>
<!-- Node1&#45;&gt;Node2 -->
<g id="edge1" class="edge">
<title>Node1&#45;&gt;Node2</title>
<path fill="none" stroke="midnightblue" d="M122.56,-37.24C114.17,-38.48 105.58,-39.74 97.38,-40.95"/>
<polygon fill="midnightblue" stroke="midnightblue" points="123.27,-40.67 132.66,-35.75 122.25,-33.75 123.27,-40.67"/>
</g>
<!-- Node7 -->
<g id="node3" class="node">
<title>Node7</title>
<g id="a_node3"><a xlink:href="keyvalue_8c.html#a63cf63b86fa897a279700852f0b037c9" target="_top" xlink:title=" ">
<polygon fill="white" stroke="black" points="5.5,-0.5 5.5,-19.5 91.5,-19.5 91.5,-0.5 5.5,-0.5"/>
<text text-anchor="middle" x="48.5" y="-7.5" font-family="Helvetica,sans-Serif" font-size="10.00">mrbc_kv_resize</text>
</a>
</g>
</g>
<!-- Node1&#45;&gt;Node7 -->
<g id="edge2" class="edge">
<title>Node1&#45;&gt;Node7</title>
<path fill="none" stroke="midnightblue" d="M122.48,-20.75C112.17,-19.23 101.57,-17.67 91.75,-16.22"/>
<polygon fill="midnightblue" stroke="midnightblue" points="122.25,-24.25 132.66,-22.25 123.27,-17.33 122.25,-24.25"/>
</g>
</g>
</svg>
