<?xml version="1.0" encoding="UTF-8" standalone="no"?>
<!DOCTYPE svg PUBLIC "-//W3C//DTD SVG 1.1//EN"
 "http://www.w3.org/Graphics/SVG/1.1/DTD/svg11.dtd">
<!-- Generated by graphviz version 3.0.0 (20220226.1711)
 -->
<!-- Title: alloc.h Pages: 1 -->
<svg width="820pt" height="140pt"
 viewBox="0.00 0.00 819.50 140.00" xmlns="http://www.w3.org/2000/svg" xmlns:xlink="http://www.w3.org/1999/xlink">
<g id="graph0" class="graph" transform="scale(1 1) rotate(0) translate(4 136)">
<title>alloc.h</title>
<polygon fill="white" stroke="transparent" points="-4,4 -4,-136 815.5,-136 815.5,4 -4,4"/>
<!-- Node1 -->
<g id="node1" class="node">
<title>Node1</title>
<g id="a_node1"><a xlink:title="mruby/c memory management.">
<polygon fill="#bfbfbf" stroke="black" points="362.5,-112.5 362.5,-131.5 407.5,-131.5 407.5,-112.5 362.5,-112.5"/>
<text text-anchor="middle" x="385" y="-119.5" font-family="Helvetica,sans-Serif" font-size="10.00">alloc.h</text>
</a>
</g>
</g>
<!-- Node2 -->
<g id="node2" class="node">
<title>Node2</title>
<g id="a_node2"><a xlink:href="alloc_8c.html" target="_top" xlink:title="mruby/c memory management.">
<polygon fill="white" stroke="black" points="47.5,-56.5 47.5,-75.5 92.5,-75.5 92.5,-56.5 47.5,-56.5"/>
<text text-anchor="middle" x="70" y="-63.5" font-family="Helvetica,sans-Serif" font-size="10.00">alloc.c</text>
</a>
</g>
</g>
<!-- Node1&#45;&gt;Node2 -->
<g id="edge1" class="edge">
<title>Node1&#45;&gt;Node2</title>
<path fill="none" stroke="midnightblue" d="M352.18,-116.54C300.03,-109.25 195.1,-93.82 107,-76 102.33,-75.06 97.37,-73.93 92.64,-72.8"/>
<polygon fill="midnightblue" stroke="midnightblue" points="351.8,-120.02 362.19,-117.92 352.76,-113.08 351.8,-120.02"/>
</g>
<!-- Node3 -->
<g id="node3" class="node">
<title>Node3</title>
<g id="a_node3"><a xlink:href="c__array_8c.html" target="_top" xlink:title="mruby/c Array class">
<polygon fill="white" stroke="black" points="0,-0.5 0,-19.5 56,-19.5 56,-0.5 0,-0.5"/>
<text text-anchor="middle" x="28" y="-7.5" font-family="Helvetica,sans-Serif" font-size="10.00">c_array.c</text>
</a>
</g>
</g>
<!-- Node1&#45;&gt;Node3 -->
<g id="edge2" class="edge">
<title>Node1&#45;&gt;Node3</title>
<path fill="none" stroke="midnightblue" d="M352.34,-116.28C310.22,-109.69 235,-96.22 173,-76 124.48,-60.17 70.36,-33.28 44.08,-19.57"/>
<polygon fill="midnightblue" stroke="midnightblue" points="351.89,-119.75 362.31,-117.8 352.95,-112.83 351.89,-119.75"/>
</g>
<!-- Node4 -->
<g id="node4" class="node">
<title>Node4</title>
<g id="a_node4"><a xlink:href="c__array_8h.html" target="_top" xlink:title="mruby/c Array class">
<polygon fill="white" stroke="red" points="263,-56.5 263,-75.5 319,-75.5 319,-56.5 263,-56.5"/>
<text text-anchor="middle" x="291" y="-63.5" font-family="Helvetica,sans-Serif" font-size="10.00">c_array.h</text>
</a>
</g>
</g>
<!-- Node1&#45;&gt;Node4 -->
<g id="edge3" class="edge">
<title>Node1&#45;&gt;Node4</title>
<path fill="none" stroke="midnightblue" d="M360.94,-107.18C343.64,-97.24 320.85,-84.15 306.07,-75.65"/>
<polygon fill="midnightblue" stroke="midnightblue" points="359.48,-110.38 369.9,-112.32 362.97,-104.31 359.48,-110.38"/>
</g>
<!-- Node5 -->
<g id="node5" class="node">
<title>Node5</title>
<g id="a_node5"><a xlink:href="c__hash_8c.html" target="_top" xlink:title="mruby/c Hash class">
<polygon fill="white" stroke="black" points="74,-0.5 74,-19.5 130,-19.5 130,-0.5 74,-0.5"/>
<text text-anchor="middle" x="102" y="-7.5" font-family="Helvetica,sans-Serif" font-size="10.00">c_hash.c</text>
</a>
</g>
</g>
<!-- Node1&#45;&gt;Node5 -->
<g id="edge12" class="edge">
<title>Node1&#45;&gt;Node5</title>
<path fill="none" stroke="midnightblue" d="M352.29,-115.01C317.44,-108.02 261.06,-94.95 215,-76 176.28,-60.07 134.51,-33.22 114.32,-19.55"/>
<polygon fill="midnightblue" stroke="midnightblue" points="351.9,-118.5 362.38,-116.99 353.24,-111.63 351.9,-118.5"/>
</g>
<!-- Node7 -->
<g id="node6" class="node">
<title>Node7</title>
<g id="a_node6"><a xlink:href="c__object_8c.html" target="_top" xlink:title="Object, Proc, Nil, True and False class.">
<polygon fill="white" stroke="black" points="148,-0.5 148,-19.5 210,-19.5 210,-0.5 148,-0.5"/>
<text text-anchor="middle" x="179" y="-7.5" font-family="Helvetica,sans-Serif" font-size="10.00">c_object.c</text>
</a>
</g>
</g>
<!-- Node1&#45;&gt;Node7 -->
<g id="edge13" class="edge">
<title>Node1&#45;&gt;Node7</title>
<path fill="none" stroke="midnightblue" d="M352.47,-115.21C322.64,-108.88 278.06,-96.75 244,-76 218.92,-60.72 196.31,-33.83 185.58,-19.91"/>
<polygon fill="midnightblue" stroke="midnightblue" points="351.87,-118.66 362.37,-117.22 353.26,-111.8 351.87,-118.66"/>
</g>
<!-- Node13 -->
<g id="node7" class="node">
<title>Node13</title>
<g id="a_node7"><a xlink:href="c__string_8c.html" target="_top" xlink:title="mruby/c String class">
<polygon fill="white" stroke="black" points="228.5,-0.5 228.5,-19.5 287.5,-19.5 287.5,-0.5 228.5,-0.5"/>
<text text-anchor="middle" x="258" y="-7.5" font-family="Helvetica,sans-Serif" font-size="10.00">c_string.c</text>
</a>
</g>
</g>
<!-- Node1&#45;&gt;Node13 -->
<g id="edge15" class="edge">
<title>Node1&#45;&gt;Node13</title>
<path fill="none" stroke="midnightblue" d="M352.01,-119.88C320.99,-116.86 276.12,-106.99 254,-76 241.91,-59.07 249.27,-32.9 254.36,-19.51"/>
<polygon fill="midnightblue" stroke="midnightblue" points="352.1,-123.4 362.34,-120.69 352.64,-116.42 352.1,-123.4"/>
</g>
<!-- Node8 -->
<g id="node8" class="node">
<title>Node8</title>
<g id="a_node8"><a xlink:href="class_8c.html" target="_top" xlink:title="Class related functions.">
<polygon fill="white" stroke="black" points="306,-0.5 306,-19.5 354,-19.5 354,-0.5 306,-0.5"/>
<text text-anchor="middle" x="330" y="-7.5" font-family="Helvetica,sans-Serif" font-size="10.00">class.c</text>
</a>
</g>
</g>
<!-- Node1&#45;&gt;Node8 -->
<g id="edge16" class="edge">
<title>Node1&#45;&gt;Node8</title>
<path fill="none" stroke="midnightblue" d="M376.16,-103.32C364.18,-79.37 343.27,-37.55 334.3,-19.59"/>
<polygon fill="midnightblue" stroke="midnightblue" points="373.08,-104.99 380.68,-112.37 379.34,-101.86 373.08,-104.99"/>
</g>
<!-- Node9 -->
<g id="node9" class="node">
<title>Node9</title>
<g id="a_node9"><a xlink:href="console_8c.html" target="_top" xlink:title="console output module. (not yet input)">
<polygon fill="white" stroke="black" points="372.5,-0.5 372.5,-19.5 431.5,-19.5 431.5,-0.5 372.5,-0.5"/>
<text text-anchor="middle" x="402" y="-7.5" font-family="Helvetica,sans-Serif" font-size="10.00">console.c</text>
</a>
</g>
</g>
<!-- Node1&#45;&gt;Node9 -->
<g id="edge17" class="edge">
<title>Node1&#45;&gt;Node9</title>
<path fill="none" stroke="midnightblue" d="M387.88,-102.35C391.61,-78.25 397.93,-37.31 400.67,-19.59"/>
<polygon fill="midnightblue" stroke="midnightblue" points="384.4,-101.95 386.33,-112.37 391.32,-103.02 384.4,-101.95"/>
</g>
<!-- Node14 -->
<g id="node10" class="node">
<title>Node14</title>
<g id="a_node10"><a xlink:href="symbol_8c.html" target="_top" xlink:title="mruby/c Symbol class">
<polygon fill="white" stroke="black" points="450,-0.5 450,-19.5 506,-19.5 506,-0.5 450,-0.5"/>
<text text-anchor="middle" x="478" y="-7.5" font-family="Helvetica,sans-Serif" font-size="10.00">symbol.c</text>
</a>
</g>
</g>
<!-- Node1&#45;&gt;Node14 -->
<g id="edge22" class="edge">
<title>Node1&#45;&gt;Node14</title>
<path fill="none" stroke="midnightblue" d="M398.88,-104.59C418.93,-80.87 455.28,-37.87 470.74,-19.59"/>
<polygon fill="midnightblue" stroke="midnightblue" points="396.08,-102.47 392.3,-112.37 401.43,-106.99 396.08,-102.47"/>
</g>
<!-- Node12 -->
<g id="node11" class="node">
<title>Node12</title>
<g id="a_node11"><a xlink:href="vm_8c.html" target="_top" xlink:title="mruby bytecode executor.">
<polygon fill="white" stroke="black" points="524,-0.5 524,-19.5 562,-19.5 562,-0.5 524,-0.5"/>
<text text-anchor="middle" x="543" y="-7.5" font-family="Helvetica,sans-Serif" font-size="10.00">vm.c</text>
</a>
</g>
</g>
<!-- Node1&#45;&gt;Node12 -->
<g id="edge23" class="edge">
<title>Node1&#45;&gt;Node12</title>
<path fill="none" stroke="midnightblue" d="M405.95,-106.42C439.36,-83.15 503.72,-38.35 530.66,-19.59"/>
<polygon fill="midnightblue" stroke="midnightblue" points="403.61,-103.78 397.4,-112.37 407.6,-109.53 403.61,-103.78"/>
</g>
<!-- Node15 -->
<g id="node12" class="node">
<title>Node15</title>
<g id="a_node12"><a xlink:href="c__range_8c.html" target="_top" xlink:title="mruby/c Range class">
<polygon fill="white" stroke="black" points="489.5,-56.5 489.5,-75.5 548.5,-75.5 548.5,-56.5 489.5,-56.5"/>
<text text-anchor="middle" x="519" y="-63.5" font-family="Helvetica,sans-Serif" font-size="10.00">c_range.c</text>
</a>
</g>
</g>
<!-- Node1&#45;&gt;Node15 -->
<g id="edge14" class="edge">
<title>Node1&#45;&gt;Node15</title>
<path fill="none" stroke="midnightblue" d="M415.68,-108.64C440.82,-98.5 475.75,-84.43 497.87,-75.52"/>
<polygon fill="midnightblue" stroke="midnightblue" points="414.2,-105.46 406.23,-112.44 416.82,-111.95 414.2,-105.46"/>
</g>
<!-- Node16 -->
<g id="node13" class="node">
<title>Node16</title>
<g id="a_node13"><a xlink:href="error_8c.html" target="_top" xlink:title="exception classes">
<polygon fill="white" stroke="black" points="567,-56.5 567,-75.5 611,-75.5 611,-56.5 567,-56.5"/>
<text text-anchor="middle" x="589" y="-63.5" font-family="Helvetica,sans-Serif" font-size="10.00">error.c</text>
</a>
</g>
</g>
<!-- Node1&#45;&gt;Node16 -->
<g id="edge18" class="edge">
<title>Node1&#45;&gt;Node16</title>
<path fill="none" stroke="midnightblue" d="M417.81,-112.76C452.66,-103.94 509.33,-89.39 558,-76 560.81,-75.23 563.76,-74.4 566.67,-73.56"/>
<polygon fill="midnightblue" stroke="midnightblue" points="416.56,-109.46 407.72,-115.31 418.28,-116.25 416.56,-109.46"/>
</g>
<!-- Node17 -->
<g id="node14" class="node">
<title>Node17</title>
<g id="a_node14"><a xlink:href="keyvalue_8c.html" target="_top" xlink:title="mruby/c Key(Symbol) &#45; Value store.">
<polygon fill="white" stroke="black" points="629,-56.5 629,-75.5 693,-75.5 693,-56.5 629,-56.5"/>
<text text-anchor="middle" x="661" y="-63.5" font-family="Helvetica,sans-Serif" font-size="10.00">keyvalue.c</text>
</a>
</g>
</g>
<!-- Node1&#45;&gt;Node17 -->
<g id="edge19" class="edge">
<title>Node1&#45;&gt;Node17</title>
<path fill="none" stroke="midnightblue" d="M417.6,-115.04C463.02,-106.68 547.9,-90.81 620,-76 622.86,-75.41 625.82,-74.79 628.79,-74.16"/>
<polygon fill="midnightblue" stroke="midnightblue" points="416.93,-111.61 407.73,-116.86 418.19,-118.49 416.93,-111.61"/>
</g>
<!-- Node18 -->
<g id="node15" class="node">
<title>Node18</title>
<g id="a_node15"><a xlink:href="load_8c.html" target="_top" xlink:title="mruby bytecode loader.">
<polygon fill="white" stroke="black" points="711.5,-56.5 711.5,-75.5 754.5,-75.5 754.5,-56.5 711.5,-56.5"/>
<text text-anchor="middle" x="733" y="-63.5" font-family="Helvetica,sans-Serif" font-size="10.00">load.c</text>
</a>
</g>
</g>
<!-- Node1&#45;&gt;Node18 -->
<g id="edge20" class="edge">
<title>Node1&#45;&gt;Node18</title>
<path fill="none" stroke="midnightblue" d="M417.9,-117.88C475.78,-112.05 599.42,-98.05 702,-76 705.07,-75.34 708.28,-74.54 711.42,-73.69"/>
<polygon fill="midnightblue" stroke="midnightblue" points="417.48,-114.41 407.87,-118.88 418.17,-121.37 417.48,-114.41"/>
</g>
<!-- Node19 -->
<g id="node16" class="node">
<title>Node19</title>
<g id="a_node16"><a xlink:href="rrt0_8c.html" target="_top" xlink:title="Realtime multitask monitor for mruby/c.">
<polygon fill="white" stroke="black" points="772.5,-56.5 772.5,-75.5 811.5,-75.5 811.5,-56.5 772.5,-56.5"/>
<text text-anchor="middle" x="792" y="-63.5" font-family="Helvetica,sans-Serif" font-size="10.00">rrt0.c</text>
</a>
</g>
</g>
<!-- Node1&#45;&gt;Node19 -->
<g id="edge21" class="edge">
<title>Node1&#45;&gt;Node19</title>
<path fill="none" stroke="midnightblue" d="M418.14,-119.22C484.47,-115.18 637.97,-103.47 764,-76 766.69,-75.41 769.5,-74.67 772.24,-73.87"/>
<polygon fill="midnightblue" stroke="midnightblue" points="417.67,-115.74 407.89,-119.82 418.08,-122.73 417.67,-115.74"/>
</g>
<!-- Node4&#45;&gt;Node3 -->
<g id="edge4" class="edge">
<title>Node4&#45;&gt;Node3</title>
<path fill="none" stroke="midnightblue" d="M252.82,-57.9C207.8,-49.42 130.78,-34.54 65,-20 62.16,-19.37 59.2,-18.69 56.25,-18"/>
<polygon fill="midnightblue" stroke="midnightblue" points="252.26,-61.36 262.73,-59.77 253.55,-54.48 252.26,-61.36"/>
</g>
<!-- Node4&#45;&gt;Node5 -->
<g id="edge5" class="edge">
<title>Node4&#45;&gt;Node5</title>
<path fill="none" stroke="midnightblue" d="M252.96,-54.13C216.66,-43.76 162.79,-28.37 130.18,-19.05"/>
<polygon fill="midnightblue" stroke="midnightblue" points="252.13,-57.53 262.7,-56.92 254.05,-50.8 252.13,-57.53"/>
</g>
<!-- Node4&#45;&gt;Node7 -->
<g id="edge6" class="edge">
<title>Node4&#45;&gt;Node7</title>
<path fill="none" stroke="midnightblue" d="M263.75,-51.86C242.98,-41.85 214.98,-28.35 196.95,-19.65"/>
<polygon fill="midnightblue" stroke="midnightblue" points="262.48,-55.13 273.01,-56.32 265.52,-48.83 262.48,-55.13"/>
</g>
<!-- Node4&#45;&gt;Node13 -->
<g id="edge7" class="edge">
<title>Node4&#45;&gt;Node13</title>
<path fill="none" stroke="midnightblue" d="M280.17,-47.27C274.53,-38.05 267.88,-27.17 263.35,-19.75"/>
<polygon fill="midnightblue" stroke="midnightblue" points="277.35,-49.38 285.55,-56.08 283.32,-45.73 277.35,-49.38"/>
</g>
<!-- Node4&#45;&gt;Node8 -->
<g id="edge8" class="edge">
<title>Node4&#45;&gt;Node8</title>
<path fill="none" stroke="midnightblue" d="M303.38,-47.86C310.14,-38.5 318.21,-27.33 323.68,-19.75"/>
<polygon fill="midnightblue" stroke="midnightblue" points="300.46,-45.93 297.44,-56.08 306.13,-50.03 300.46,-45.93"/>
</g>
<!-- Node4&#45;&gt;Node9 -->
<g id="edge9" class="edge">
<title>Node4&#45;&gt;Node9</title>
<path fill="none" stroke="midnightblue" d="M318.01,-51.86C338.59,-41.85 366.34,-28.35 384.21,-19.65"/>
<polygon fill="midnightblue" stroke="midnightblue" points="316.3,-48.8 308.83,-56.32 319.36,-55.1 316.3,-48.8"/>
</g>
<!-- Node4&#45;&gt;Node14 -->
<g id="edge10" class="edge">
<title>Node4&#45;&gt;Node14</title>
<path fill="none" stroke="midnightblue" d="M329.03,-54.02C364.88,-43.66 417.78,-28.39 449.94,-19.1"/>
<polygon fill="midnightblue" stroke="midnightblue" points="328.04,-50.66 319.4,-56.8 329.98,-57.39 328.04,-50.66"/>
</g>
<!-- Node4&#45;&gt;Node12 -->
<g id="edge11" class="edge">
<title>Node4&#45;&gt;Node12</title>
<path fill="none" stroke="midnightblue" d="M329.04,-58.71C373.85,-50.98 450.36,-36.82 515,-20 517.87,-19.25 520.87,-18.38 523.8,-17.48"/>
<polygon fill="midnightblue" stroke="midnightblue" points="328.44,-55.26 319.17,-60.39 329.62,-62.16 328.44,-55.26"/>
</g>
</g>
</svg>
