<?xml version="1.0" encoding="UTF-8" standalone="no"?>
<!DOCTYPE svg PUBLIC "-//W3C//DTD SVG 1.1//EN"
 "http://www.w3.org/Graphics/SVG/1.1/DTD/svg11.dtd">
<!-- Generated by graphviz version 3.0.0 (20220226.1711)
 -->
<!-- Title: mrbc_array_divide Pages: 1 -->
<svg width="237pt" height="66pt"
 viewBox="0.00 0.00 237.00 66.00" xmlns="http://www.w3.org/2000/svg" xmlns:xlink="http://www.w3.org/1999/xlink">
<g id="graph0" class="graph" transform="scale(1 1) rotate(0) translate(4 62)">
<title>mrbc_array_divide</title>
<polygon fill="white" stroke="transparent" points="-4,4 -4,-62 233,-62 233,4 -4,4"/>
<!-- Node1 -->
<g id="node1" class="node">
<title>Node1</title>
<g id="a_node1"><a xlink:title=" ">
<polygon fill="#bfbfbf" stroke="black" points="0,-19.5 0,-38.5 96,-38.5 96,-19.5 0,-19.5"/>
<text text-anchor="middle" x="48" y="-26.5" font-family="Helvetica,sans-Serif" font-size="10.00">mrbc_array_divide</text>
</a>
</g>
</g>
<!-- Node2 -->
<g id="node2" class="node">
<title>Node2</title>
<g id="a_node2"><a xlink:href="c__array_8c.html#a747f16740034869e6f3cdc99d4084f0e" target="_top" xlink:title=" ">
<polygon fill="white" stroke="black" points="136,-38.5 136,-57.5 225,-57.5 225,-38.5 136,-38.5"/>
<text text-anchor="middle" x="180.5" y="-45.5" font-family="Helvetica,sans-Serif" font-size="10.00">mrbc_array_new</text>
</a>
</g>
</g>
<!-- Node1&#45;&gt;Node2 -->
<g id="edge1" class="edge">
<title>Node1&#45;&gt;Node2</title>
<path fill="none" stroke="midnightblue" d="M96.11,-35.86C105.76,-37.26 115.98,-38.75 125.83,-40.19"/>
<polygon fill="midnightblue" stroke="midnightblue" points="125.53,-43.68 135.93,-41.66 126.54,-36.75 125.53,-43.68"/>
</g>
<!-- Node3 -->
<g id="node3" class="node">
<title>Node3</title>
<g id="a_node3"><a xlink:href="c__array_8c.html#aaf729f3fa126207cb3a09070678a5132" target="_top" xlink:title=" ">
<polygon fill="white" stroke="red" points="132,-0.5 132,-19.5 229,-19.5 229,-0.5 132,-0.5"/>
<text text-anchor="middle" x="180.5" y="-7.5" font-family="Helvetica,sans-Serif" font-size="10.00">mrbc_array_resize</text>
</a>
</g>
</g>
<!-- Node1&#45;&gt;Node3 -->
<g id="edge2" class="edge">
<title>Node1&#45;&gt;Node3</title>
<path fill="none" stroke="midnightblue" d="M96.11,-22.14C104.4,-20.93 113.12,-19.66 121.66,-18.42"/>
<polygon fill="midnightblue" stroke="midnightblue" points="122.19,-21.88 131.58,-16.98 121.18,-14.95 122.19,-21.88"/>
</g>
</g>
</svg>
