<?xml version="1.0" encoding="UTF-8" standalone="no"?>
<!DOCTYPE svg PUBLIC "-//W3C//DTD SVG 1.1//EN"
 "http://www.w3.org/Graphics/SVG/1.1/DTD/svg11.dtd">
<!-- Generated by graphviz version 3.0.0 (20220226.1711)
 -->
<!-- Title: c_array.h Pages: 1 -->
<svg width="120pt" height="84pt"
 viewBox="0.00 0.00 119.50 84.00" xmlns="http://www.w3.org/2000/svg" xmlns:xlink="http://www.w3.org/1999/xlink">
<g id="graph0" class="graph" transform="scale(1 1) rotate(0) translate(4 80)">
<title>c_array.h</title>
<polygon fill="white" stroke="transparent" points="-4,4 -4,-80 115.5,-80 115.5,4 -4,4"/>
<!-- Node1 -->
<g id="node1" class="node">
<title>Node1</title>
<g id="a_node1"><a xlink:title="mruby/c Array class">
<polygon fill="#bfbfbf" stroke="black" points="26.5,-56.5 26.5,-75.5 82.5,-75.5 82.5,-56.5 26.5,-56.5"/>
<text text-anchor="middle" x="54.5" y="-63.5" font-family="Helvetica,sans-Serif" font-size="10.00">c_array.h</text>
</a>
</g>
</g>
<!-- Node2 -->
<g id="node2" class="node">
<title>Node2</title>
<g id="a_node2"><a xlink:href="alloc_8h.html" target="_top" xlink:title="mruby/c memory management.">
<polygon fill="white" stroke="black" points="0,-0.5 0,-19.5 45,-19.5 45,-0.5 0,-0.5"/>
<text text-anchor="middle" x="22.5" y="-7.5" font-family="Helvetica,sans-Serif" font-size="10.00">alloc.h</text>
</a>
</g>
</g>
<!-- Node1&#45;&gt;Node2 -->
<g id="edge1" class="edge">
<title>Node1&#45;&gt;Node2</title>
<path fill="none" stroke="midnightblue" d="M49.22,-56.08C44.79,-48.61 38.34,-37.72 32.88,-28.52"/>
<polygon fill="midnightblue" stroke="midnightblue" points="35.79,-26.57 27.69,-19.75 29.77,-30.14 35.79,-26.57"/>
</g>
<!-- Node3 -->
<g id="node3" class="node">
<title>Node3</title>
<g id="a_node3"><a xlink:href="value_8h.html" target="_top" xlink:title="mruby/c value definitions">
<polygon fill="white" stroke="black" points="63.5,-0.5 63.5,-19.5 111.5,-19.5 111.5,-0.5 63.5,-0.5"/>
<text text-anchor="middle" x="87.5" y="-7.5" font-family="Helvetica,sans-Serif" font-size="10.00">value.h</text>
</a>
</g>
</g>
<!-- Node1&#45;&gt;Node3 -->
<g id="edge2" class="edge">
<title>Node1&#45;&gt;Node3</title>
<path fill="none" stroke="midnightblue" d="M59.95,-56.08C64.51,-48.61 71.17,-37.72 76.79,-28.52"/>
<polygon fill="midnightblue" stroke="midnightblue" points="79.92,-30.11 82.15,-19.75 73.95,-26.46 79.92,-30.11"/>
</g>
</g>
</svg>
