<?xml version="1.0" encoding="UTF-8" standalone="no"?>
<!DOCTYPE svg PUBLIC "-//W3C//DTD SVG 1.1//EN"
 "http://www.w3.org/Graphics/SVG/1.1/DTD/svg11.dtd">
<!-- Generated by graphviz version 3.0.0 (20220226.1711)
 -->
<!-- Title: c_array.c Pages: 1 -->
<svg width="482pt" height="140pt"
 viewBox="0.00 0.00 482.00 140.00" xmlns="http://www.w3.org/2000/svg" xmlns:xlink="http://www.w3.org/1999/xlink">
<g id="graph0" class="graph" transform="scale(1 1) rotate(0) translate(4 136)">
<title>c_array.c</title>
<polygon fill="white" stroke="transparent" points="-4,4 -4,-136 478,-136 478,4 -4,4"/>
<!-- Node1 -->
<g id="node1" class="node">
<title>Node1</title>
<g id="a_node1"><a xlink:title="mruby/c Array class">
<polygon fill="#bfbfbf" stroke="black" points="130.5,-112.5 130.5,-131.5 186.5,-131.5 186.5,-112.5 130.5,-112.5"/>
<text text-anchor="middle" x="158.5" y="-119.5" font-family="Helvetica,sans-Serif" font-size="10.00">c_array.c</text>
</a>
</g>
</g>
<!-- Node2 -->
<g id="node2" class="node">
<title>Node2</title>
<g id="a_node2"><a xlink:href="alloc_8h.html" target="_top" xlink:title="mruby/c memory management.">
<polygon fill="white" stroke="black" points="0,-0.5 0,-19.5 45,-19.5 45,-0.5 0,-0.5"/>
<text text-anchor="middle" x="22.5" y="-7.5" font-family="Helvetica,sans-Serif" font-size="10.00">alloc.h</text>
</a>
</g>
</g>
<!-- Node1&#45;&gt;Node2 -->
<g id="edge1" class="edge">
<title>Node1&#45;&gt;Node2</title>
<path fill="none" stroke="midnightblue" d="M130.3,-121.42C96.28,-120.22 40.31,-112.39 13.5,-76 3.5,-62.42 8.07,-42.8 13.71,-28.68"/>
<polygon fill="midnightblue" stroke="midnightblue" points="16.92,-30.08 17.81,-19.53 10.53,-27.22 16.92,-30.08"/>
</g>
<!-- Node3 -->
<g id="node3" class="node">
<title>Node3</title>
<g id="a_node3"><a xlink:href="value_8h.html" target="_top" xlink:title="mruby/c value definitions">
<polygon fill="white" stroke="black" points="134.5,-0.5 134.5,-19.5 182.5,-19.5 182.5,-0.5 134.5,-0.5"/>
<text text-anchor="middle" x="158.5" y="-7.5" font-family="Helvetica,sans-Serif" font-size="10.00">value.h</text>
</a>
</g>
</g>
<!-- Node1&#45;&gt;Node3 -->
<g id="edge2" class="edge">
<title>Node1&#45;&gt;Node3</title>
<path fill="none" stroke="midnightblue" d="M149.48,-112.34C141.43,-103.93 130.2,-90.36 125.5,-76 119.82,-58.64 131.04,-40.18 141.91,-27.39"/>
<polygon fill="midnightblue" stroke="midnightblue" points="144.63,-29.61 148.82,-19.87 139.47,-24.87 144.63,-29.61"/>
</g>
<!-- Node4 -->
<g id="node4" class="node">
<title>Node4</title>
<g id="a_node4"><a xlink:href="class_8h.html" target="_top" xlink:title="Class related functions.">
<polygon fill="white" stroke="red" points="134.5,-56.5 134.5,-75.5 182.5,-75.5 182.5,-56.5 134.5,-56.5"/>
<text text-anchor="middle" x="158.5" y="-63.5" font-family="Helvetica,sans-Serif" font-size="10.00">class.h</text>
</a>
</g>
</g>
<!-- Node1&#45;&gt;Node4 -->
<g id="edge3" class="edge">
<title>Node1&#45;&gt;Node4</title>
<path fill="none" stroke="midnightblue" d="M158.5,-112.08C158.5,-105.01 158.5,-94.86 158.5,-85.99"/>
<polygon fill="midnightblue" stroke="midnightblue" points="162,-85.75 158.5,-75.75 155,-85.75 162,-85.75"/>
</g>
<!-- Node7 -->
<g id="node5" class="node">
<title>Node7</title>
<g id="a_node5"><a xlink:href="c__string_8h.html" target="_top" xlink:title="mruby/c String class">
<polygon fill="white" stroke="black" points="201,-56.5 201,-75.5 260,-75.5 260,-56.5 201,-56.5"/>
<text text-anchor="middle" x="230.5" y="-63.5" font-family="Helvetica,sans-Serif" font-size="10.00">c_string.h</text>
</a>
</g>
</g>
<!-- Node1&#45;&gt;Node7 -->
<g id="edge5" class="edge">
<title>Node1&#45;&gt;Node7</title>
<path fill="none" stroke="midnightblue" d="M170.07,-112.32C180.92,-104.18 197.38,-91.84 210.38,-82.09"/>
<polygon fill="midnightblue" stroke="midnightblue" points="212.82,-84.63 218.72,-75.83 208.62,-79.03 212.82,-84.63"/>
</g>
<!-- Node8 -->
<g id="node6" class="node">
<title>Node8</title>
<g id="a_node6"><a xlink:href="c__array_8h.html" target="_top" xlink:title="mruby/c Array class">
<polygon fill="white" stroke="black" points="22.5,-56.5 22.5,-75.5 78.5,-75.5 78.5,-56.5 22.5,-56.5"/>
<text text-anchor="middle" x="50.5" y="-63.5" font-family="Helvetica,sans-Serif" font-size="10.00">c_array.h</text>
</a>
</g>
</g>
<!-- Node1&#45;&gt;Node8 -->
<g id="edge7" class="edge">
<title>Node1&#45;&gt;Node8</title>
<path fill="none" stroke="midnightblue" d="M141.15,-112.32C123.83,-103.66 96.98,-90.24 77,-80.25"/>
<polygon fill="midnightblue" stroke="midnightblue" points="78.32,-77 67.81,-75.65 75.19,-83.26 78.32,-77"/>
</g>
<!-- Node9 -->
<g id="node7" class="node">
<title>Node9</title>
<g id="a_node7"><a xlink:href="console_8h.html" target="_top" xlink:title="console output module. (not yet input)">
<polygon fill="white" stroke="black" points="278,-56.5 278,-75.5 337,-75.5 337,-56.5 278,-56.5"/>
<text text-anchor="middle" x="307.5" y="-63.5" font-family="Helvetica,sans-Serif" font-size="10.00">console.h</text>
</a>
</g>
</g>
<!-- Node1&#45;&gt;Node9 -->
<g id="edge10" class="edge">
<title>Node1&#45;&gt;Node9</title>
<path fill="none" stroke="midnightblue" d="M182.11,-112.44C206.96,-103.44 246.27,-89.19 274.25,-79.05"/>
<polygon fill="midnightblue" stroke="midnightblue" points="275.79,-82.21 284,-75.52 273.41,-75.63 275.79,-82.21"/>
</g>
<!-- Node10 -->
<g id="node8" class="node">
<title>Node10</title>
<g id="a_node8"><a xlink:title=" ">
<polygon fill="white" stroke="#bfbfbf" points="355,-56.5 355,-75.5 474,-75.5 474,-56.5 355,-56.5"/>
<text text-anchor="middle" x="414.5" y="-63.5" font-family="Helvetica,sans-Serif" font-size="10.00">_autogen_class_array.h</text>
</a>
</g>
</g>
<!-- Node1&#45;&gt;Node10 -->
<g id="edge12" class="edge">
<title>Node1&#45;&gt;Node10</title>
<path fill="none" stroke="midnightblue" d="M186.87,-115.01C229.56,-106.01 310.92,-88.85 363.92,-77.67"/>
<polygon fill="midnightblue" stroke="midnightblue" points="364.73,-81.08 373.79,-75.59 363.29,-74.23 364.73,-81.08"/>
</g>
<!-- Node4&#45;&gt;Node3 -->
<g id="edge4" class="edge">
<title>Node4&#45;&gt;Node3</title>
<path fill="none" stroke="midnightblue" d="M158.5,-56.08C158.5,-49.01 158.5,-38.86 158.5,-29.99"/>
<polygon fill="midnightblue" stroke="midnightblue" points="162,-29.75 158.5,-19.75 155,-29.75 162,-29.75"/>
</g>
<!-- Node7&#45;&gt;Node3 -->
<g id="edge6" class="edge">
<title>Node7&#45;&gt;Node3</title>
<path fill="none" stroke="midnightblue" d="M218.93,-56.32C208.08,-48.18 191.62,-35.84 178.62,-26.09"/>
<polygon fill="midnightblue" stroke="midnightblue" points="180.38,-23.03 170.28,-19.83 176.18,-28.63 180.38,-23.03"/>
</g>
<!-- Node8&#45;&gt;Node2 -->
<g id="edge8" class="edge">
<title>Node8&#45;&gt;Node2</title>
<path fill="none" stroke="midnightblue" d="M45.88,-56.08C42.04,-48.69 36.48,-37.95 31.74,-28.81"/>
<polygon fill="midnightblue" stroke="midnightblue" points="34.75,-27.02 27.04,-19.75 28.53,-30.24 34.75,-27.02"/>
</g>
<!-- Node8&#45;&gt;Node3 -->
<g id="edge9" class="edge">
<title>Node8&#45;&gt;Node3</title>
<path fill="none" stroke="midnightblue" d="M67.85,-56.32C85.17,-47.66 112.02,-34.24 132,-24.25"/>
<polygon fill="midnightblue" stroke="midnightblue" points="133.81,-27.26 141.19,-19.65 130.68,-21 133.81,-27.26"/>
</g>
<!-- Node9&#45;&gt;Node3 -->
<g id="edge11" class="edge">
<title>Node9&#45;&gt;Node3</title>
<path fill="none" stroke="midnightblue" d="M283.89,-56.44C259.04,-47.44 219.73,-33.19 191.75,-23.05"/>
<polygon fill="midnightblue" stroke="midnightblue" points="192.59,-19.63 182,-19.52 190.21,-26.21 192.59,-19.63"/>
</g>
</g>
</svg>
