<?xml version="1.0" encoding="UTF-8" standalone="no"?>
<!DOCTYPE svg PUBLIC "-//W3C//DTD SVG 1.1//EN"
 "http://www.w3.org/Graphics/SVG/1.1/DTD/svg11.dtd">
<!-- Generated by graphviz version 3.0.0 (20220226.1711)
 -->
<!-- Title: mrbc_array_resize Pages: 1 -->
<svg width="246pt" height="104pt"
 viewBox="0.00 0.00 246.00 104.00" xmlns="http://www.w3.org/2000/svg" xmlns:xlink="http://www.w3.org/1999/xlink">
<g id="graph0" class="graph" transform="scale(1 1) rotate(0) translate(4 100)">
<title>mrbc_array_resize</title>
<polygon fill="white" stroke="transparent" points="-4,4 -4,-100 242,-100 242,4 -4,4"/>
<!-- Node1 -->
<g id="node1" class="node">
<title>Node1</title>
<g id="a_node1"><a xlink:title=" ">
<polygon fill="#bfbfbf" stroke="black" points="141,-38.5 141,-57.5 238,-57.5 238,-38.5 141,-38.5"/>
<text text-anchor="middle" x="189.5" y="-45.5" font-family="Helvetica,sans-Serif" font-size="10.00">mrbc_array_resize</text>
</a>
</g>
</g>
<!-- Node2 -->
<g id="node2" class="node">
<title>Node2</title>
<g id="a_node2"><a xlink:href="c__array_8c.html#a6ce6d008077d238f8cce74e1883ef276" target="_top" xlink:title=" ">
<polygon fill="white" stroke="black" points="4.5,-76.5 4.5,-95.5 100.5,-95.5 100.5,-76.5 4.5,-76.5"/>
<text text-anchor="middle" x="52.5" y="-83.5" font-family="Helvetica,sans-Serif" font-size="10.00">mrbc_array_divide</text>
</a>
</g>
</g>
<!-- Node1&#45;&gt;Node2 -->
<g id="edge1" class="edge">
<title>Node1&#45;&gt;Node2</title>
<path fill="none" stroke="midnightblue" d="M144.74,-60.32C126.19,-65.54 104.9,-71.53 87.56,-76.41"/>
<polygon fill="midnightblue" stroke="midnightblue" points="145.76,-63.67 154.43,-57.59 143.86,-56.93 145.76,-63.67"/>
</g>
<!-- Node3 -->
<g id="node3" class="node">
<title>Node3</title>
<g id="a_node3"><a xlink:href="c__array_8c.html#a09d89fb052dfd07fdfa591035f521820" target="_top" xlink:title=" ">
<polygon fill="white" stroke="red" points="6.5,-38.5 6.5,-57.5 98.5,-57.5 98.5,-38.5 6.5,-38.5"/>
<text text-anchor="middle" x="52.5" y="-45.5" font-family="Helvetica,sans-Serif" font-size="10.00">mrbc_array_push</text>
</a>
</g>
</g>
<!-- Node1&#45;&gt;Node3 -->
<g id="edge2" class="edge">
<title>Node1&#45;&gt;Node3</title>
<path fill="none" stroke="midnightblue" d="M130.8,-48C120.12,-48 109.1,-48 98.86,-48"/>
<polygon fill="midnightblue" stroke="midnightblue" points="130.9,-51.5 140.9,-48 130.9,-44.5 130.9,-51.5"/>
</g>
<!-- Node5 -->
<g id="node4" class="node">
<title>Node5</title>
<g id="a_node4"><a xlink:href="c__array_8c.html#ae06f5cc5812406f6a0659a11a6ad0b7d" target="_top" xlink:title=" ">
<polygon fill="white" stroke="black" points="0,-0.5 0,-19.5 105,-19.5 105,-0.5 0,-0.5"/>
<text text-anchor="middle" x="52.5" y="-7.5" font-family="Helvetica,sans-Serif" font-size="10.00">mrbc_array_push_m</text>
</a>
</g>
</g>
<!-- Node1&#45;&gt;Node5 -->
<g id="edge3" class="edge">
<title>Node1&#45;&gt;Node5</title>
<path fill="none" stroke="midnightblue" d="M144.74,-35.68C126.19,-30.46 104.9,-24.47 87.56,-19.59"/>
<polygon fill="midnightblue" stroke="midnightblue" points="143.86,-39.07 154.43,-38.41 145.76,-32.33 143.86,-39.07"/>
</g>
</g>
</svg>
