<?xml version="1.0" encoding="UTF-8" standalone="no"?>
<!DOCTYPE svg PUBLIC "-//W3C//DTD SVG 1.1//EN"
 "http://www.w3.org/Graphics/SVG/1.1/DTD/svg11.dtd">
<!-- Generated by graphviz version 3.0.0 (20220226.1711)
 -->
<!-- Title: mrbc_array_new Pages: 1 -->
<svg width="229pt" height="66pt"
 viewBox="0.00 0.00 229.00 66.00" xmlns="http://www.w3.org/2000/svg" xmlns:xlink="http://www.w3.org/1999/xlink">
<g id="graph0" class="graph" transform="scale(1 1) rotate(0) translate(4 62)">
<title>mrbc_array_new</title>
<polygon fill="white" stroke="transparent" points="-4,4 -4,-62 225,-62 225,4 -4,4"/>
<!-- Node1 -->
<g id="node1" class="node">
<title>Node1</title>
<g id="a_node1"><a xlink:title=" ">
<polygon fill="#bfbfbf" stroke="black" points="132,-19.5 132,-38.5 221,-38.5 221,-19.5 132,-19.5"/>
<text text-anchor="middle" x="176.5" y="-26.5" font-family="Helvetica,sans-Serif" font-size="10.00">mrbc_array_new</text>
</a>
</g>
</g>
<!-- Node2 -->
<g id="node2" class="node">
<title>Node2</title>
<g id="a_node2"><a xlink:href="c__array_8c.html#a6ce6d008077d238f8cce74e1883ef276" target="_top" xlink:title=" ">
<polygon fill="white" stroke="black" points="0,-38.5 0,-57.5 96,-57.5 96,-38.5 0,-38.5"/>
<text text-anchor="middle" x="48" y="-45.5" font-family="Helvetica,sans-Serif" font-size="10.00">mrbc_array_divide</text>
</a>
</g>
</g>
<!-- Node1&#45;&gt;Node2 -->
<g id="edge1" class="edge">
<title>Node1&#45;&gt;Node2</title>
<path fill="none" stroke="midnightblue" d="M122,-37.03C113.39,-38.33 104.52,-39.66 96.07,-40.93"/>
<polygon fill="midnightblue" stroke="midnightblue" points="122.6,-40.49 131.97,-35.54 121.56,-33.56 122.6,-40.49"/>
</g>
<!-- Node3 -->
<g id="node3" class="node">
<title>Node3</title>
<g id="a_node3"><a xlink:href="c__array_8c.html#acdda62d4931ba9e7921a0ee1c89df7c3" target="_top" xlink:title=" ">
<polygon fill="white" stroke="black" points="5,-0.5 5,-19.5 91,-19.5 91,-0.5 5,-0.5"/>
<text text-anchor="middle" x="48" y="-7.5" font-family="Helvetica,sans-Serif" font-size="10.00">mrbc_array_dup</text>
</a>
</g>
</g>
<!-- Node1&#45;&gt;Node3 -->
<g id="edge2" class="edge">
<title>Node1&#45;&gt;Node3</title>
<path fill="none" stroke="midnightblue" d="M121.91,-20.95C111.69,-19.42 101.13,-17.83 91.33,-16.36"/>
<polygon fill="midnightblue" stroke="midnightblue" points="121.56,-24.44 131.97,-22.46 122.6,-17.51 121.56,-24.44"/>
</g>
</g>
</svg>
