<?xml version="1.0" encoding="UTF-8" standalone="no"?>
<!DOCTYPE svg PUBLIC "-//W3C//DTD SVG 1.1//EN"
 "http://www.w3.org/Graphics/SVG/1.1/DTD/svg11.dtd">
<!-- Generated by graphviz version 3.0.0 (20220226.1711)
 -->
<!-- Title: c_array.h Pages: 1 -->
<svg width="573pt" height="140pt"
 viewBox="0.00 0.00 573.00 140.00" xmlns="http://www.w3.org/2000/svg" xmlns:xlink="http://www.w3.org/1999/xlink">
<g id="graph0" class="graph" transform="scale(1 1) rotate(0) translate(4 136)">
<title>c_array.h</title>
<polygon fill="white" stroke="transparent" points="-4,4 -4,-136 569,-136 569,4 -4,4"/>
<!-- Node1 -->
<g id="node1" class="node">
<title>Node1</title>
<g id="a_node1"><a xlink:title="mruby/c Array class">
<polygon fill="#bfbfbf" stroke="black" points="243,-112.5 243,-131.5 299,-131.5 299,-112.5 243,-112.5"/>
<text text-anchor="middle" x="271" y="-119.5" font-family="Helvetica,sans-Serif" font-size="10.00">c_array.h</text>
</a>
</g>
</g>
<!-- Node2 -->
<g id="node2" class="node">
<title>Node2</title>
<g id="a_node2"><a xlink:href="c__array_8c.html" target="_top" xlink:title="mruby/c Array class">
<polygon fill="white" stroke="black" points="17,-56.5 17,-75.5 73,-75.5 73,-56.5 17,-56.5"/>
<text text-anchor="middle" x="45" y="-63.5" font-family="Helvetica,sans-Serif" font-size="10.00">c_array.c</text>
</a>
</g>
</g>
<!-- Node1&#45;&gt;Node2 -->
<g id="edge1" class="edge">
<title>Node1&#45;&gt;Node2</title>
<path fill="none" stroke="midnightblue" d="M232.83,-111.88C187.64,-101.08 113.45,-83.36 73.17,-73.73"/>
<polygon fill="midnightblue" stroke="midnightblue" points="232.29,-115.35 242.83,-114.27 233.92,-108.54 232.29,-115.35"/>
</g>
<!-- Node3 -->
<g id="node3" class="node">
<title>Node3</title>
<g id="a_node3"><a xlink:href="c__hash_8c.html" target="_top" xlink:title="mruby/c Hash class">
<polygon fill="white" stroke="black" points="0,-0.5 0,-19.5 56,-19.5 56,-0.5 0,-0.5"/>
<text text-anchor="middle" x="28" y="-7.5" font-family="Helvetica,sans-Serif" font-size="10.00">c_hash.c</text>
</a>
</g>
</g>
<!-- Node1&#45;&gt;Node3 -->
<g id="edge2" class="edge">
<title>Node1&#45;&gt;Node3</title>
<path fill="none" stroke="midnightblue" d="M242.33,-108.32C222.09,-99.34 194.36,-87 170,-76 125.77,-56.02 73.97,-32.2 46.81,-19.68"/>
<polygon fill="midnightblue" stroke="midnightblue" points="241.05,-111.58 251.61,-112.43 243.89,-105.18 241.05,-111.58"/>
</g>
<!-- Node4 -->
<g id="node4" class="node">
<title>Node4</title>
<g id="a_node4"><a xlink:href="c__hash_8h.html" target="_top" xlink:title="mruby/c Hash class">
<polygon fill="white" stroke="black" points="243,-56.5 243,-75.5 299,-75.5 299,-56.5 243,-56.5"/>
<text text-anchor="middle" x="271" y="-63.5" font-family="Helvetica,sans-Serif" font-size="10.00">c_hash.h</text>
</a>
</g>
</g>
<!-- Node1&#45;&gt;Node4 -->
<g id="edge3" class="edge">
<title>Node1&#45;&gt;Node4</title>
<path fill="none" stroke="midnightblue" d="M271,-101.8C271,-92.91 271,-82.78 271,-75.75"/>
<polygon fill="midnightblue" stroke="midnightblue" points="267.5,-102.08 271,-112.08 274.5,-102.08 267.5,-102.08"/>
</g>
<!-- Node5 -->
<g id="node5" class="node">
<title>Node5</title>
<g id="a_node5"><a xlink:href="c__object_8c.html" target="_top" xlink:title="Object, Proc, Nil, True and False class.">
<polygon fill="white" stroke="black" points="74,-0.5 74,-19.5 136,-19.5 136,-0.5 74,-0.5"/>
<text text-anchor="middle" x="105" y="-7.5" font-family="Helvetica,sans-Serif" font-size="10.00">c_object.c</text>
</a>
</g>
</g>
<!-- Node1&#45;&gt;Node5 -->
<g id="edge11" class="edge">
<title>Node1&#45;&gt;Node5</title>
<path fill="none" stroke="midnightblue" d="M249.44,-106.71C214.46,-83.53 146.39,-38.43 117.97,-19.59"/>
<polygon fill="midnightblue" stroke="midnightblue" points="247.7,-109.76 257.97,-112.37 251.57,-103.93 247.7,-109.76"/>
</g>
<!-- Node6 -->
<g id="node6" class="node">
<title>Node6</title>
<g id="a_node6"><a xlink:href="class_8c.html" target="_top" xlink:title="Class related functions.">
<polygon fill="white" stroke="black" points="154,-0.5 154,-19.5 202,-19.5 202,-0.5 154,-0.5"/>
<text text-anchor="middle" x="178" y="-7.5" font-family="Helvetica,sans-Serif" font-size="10.00">class.c</text>
</a>
</g>
</g>
<!-- Node1&#45;&gt;Node6 -->
<g id="edge13" class="edge">
<title>Node1&#45;&gt;Node6</title>
<path fill="none" stroke="midnightblue" d="M254.89,-104.99C246.63,-96.56 236.53,-85.94 228,-76 211.31,-56.55 193.37,-32.32 184.19,-19.64"/>
<polygon fill="midnightblue" stroke="midnightblue" points="252.62,-107.66 262.14,-112.3 257.59,-102.73 252.62,-107.66"/>
</g>
<!-- Node7 -->
<g id="node7" class="node">
<title>Node7</title>
<g id="a_node7"><a xlink:href="console_8c.html" target="_top" xlink:title="console output module. (not yet input)">
<polygon fill="white" stroke="black" points="220.5,-0.5 220.5,-19.5 279.5,-19.5 279.5,-0.5 220.5,-0.5"/>
<text text-anchor="middle" x="250" y="-7.5" font-family="Helvetica,sans-Serif" font-size="10.00">console.c</text>
</a>
</g>
</g>
<!-- Node1&#45;&gt;Node7 -->
<g id="edge14" class="edge">
<title>Node1&#45;&gt;Node7</title>
<path fill="none" stroke="midnightblue" d="M253.36,-105.15C245.86,-97.23 237.94,-87 234,-76 226.94,-56.31 237.72,-32.17 244.74,-19.58"/>
<polygon fill="midnightblue" stroke="midnightblue" points="250.98,-107.72 260.56,-112.24 255.89,-102.73 250.98,-107.72"/>
</g>
<!-- Node8 -->
<g id="node8" class="node">
<title>Node8</title>
<g id="a_node8"><a xlink:href="mrubyc_8h.html" target="_top" xlink:title="Include at once the necessary header files for user program.">
<polygon fill="white" stroke="black" points="297.5,-0.5 297.5,-19.5 354.5,-19.5 354.5,-0.5 297.5,-0.5"/>
<text text-anchor="middle" x="326" y="-7.5" font-family="Helvetica,sans-Serif" font-size="10.00">mrubyc.h</text>
</a>
</g>
</g>
<!-- Node1&#45;&gt;Node8 -->
<g id="edge15" class="edge">
<title>Node1&#45;&gt;Node8</title>
<path fill="none" stroke="midnightblue" d="M286.77,-105.2C294.14,-97.07 302.47,-86.64 308,-76 317.72,-57.3 322.67,-32.76 324.75,-19.84"/>
<polygon fill="midnightblue" stroke="midnightblue" points="284.2,-102.83 279.88,-112.5 289.29,-107.64 284.2,-102.83"/>
</g>
<!-- Node9 -->
<g id="node9" class="node">
<title>Node9</title>
<g id="a_node9"><a xlink:href="value_8c.html" target="_top" xlink:title="mruby/c value definitions">
<polygon fill="white" stroke="black" points="373,-0.5 373,-19.5 421,-19.5 421,-0.5 373,-0.5"/>
<text text-anchor="middle" x="397" y="-7.5" font-family="Helvetica,sans-Serif" font-size="10.00">value.c</text>
</a>
</g>
</g>
<!-- Node1&#45;&gt;Node9 -->
<g id="edge17" class="edge">
<title>Node1&#45;&gt;Node9</title>
<path fill="none" stroke="midnightblue" d="M289.99,-105.89C300.69,-97.28 314.22,-86.19 326,-76 348.74,-56.31 374.61,-32.18 387.96,-19.58"/>
<polygon fill="midnightblue" stroke="midnightblue" points="287.72,-103.23 282.11,-112.21 292.1,-108.69 287.72,-103.23"/>
</g>
<!-- Node10 -->
<g id="node10" class="node">
<title>Node10</title>
<g id="a_node10"><a xlink:href="vm_8c.html" target="_top" xlink:title="mruby bytecode executor.">
<polygon fill="white" stroke="black" points="439,-0.5 439,-19.5 477,-19.5 477,-0.5 439,-0.5"/>
<text text-anchor="middle" x="458" y="-7.5" font-family="Helvetica,sans-Serif" font-size="10.00">vm.c</text>
</a>
</g>
</g>
<!-- Node1&#45;&gt;Node10 -->
<g id="edge18" class="edge">
<title>Node1&#45;&gt;Node10</title>
<path fill="none" stroke="midnightblue" d="M295.87,-107.29C311.72,-98.48 332.66,-86.73 351,-76 384.77,-56.25 423.95,-32.14 444.24,-19.56"/>
<polygon fill="midnightblue" stroke="midnightblue" points="293.78,-104.45 286.72,-112.36 297.17,-110.57 293.78,-104.45"/>
</g>
<!-- Node11 -->
<g id="node11" class="node">
<title>Node11</title>
<g id="a_node11"><a xlink:href="c__string_8c.html" target="_top" xlink:title="mruby/c String class">
<polygon fill="white" stroke="black" points="431.5,-56.5 431.5,-75.5 490.5,-75.5 490.5,-56.5 431.5,-56.5"/>
<text text-anchor="middle" x="461" y="-63.5" font-family="Helvetica,sans-Serif" font-size="10.00">c_string.c</text>
</a>
</g>
</g>
<!-- Node1&#45;&gt;Node11 -->
<g id="edge12" class="edge">
<title>Node1&#45;&gt;Node11</title>
<path fill="none" stroke="midnightblue" d="M308.69,-110.29C344.69,-100.06 398.21,-84.85 431.28,-75.45"/>
<polygon fill="midnightblue" stroke="midnightblue" points="307.7,-106.93 299.04,-113.03 309.61,-113.66 307.7,-106.93"/>
</g>
<!-- Node12 -->
<g id="node12" class="node">
<title>Node12</title>
<g id="a_node12"><a xlink:href="symbol_8c.html" target="_top" xlink:title="mruby/c Symbol class">
<polygon fill="white" stroke="black" points="509,-56.5 509,-75.5 565,-75.5 565,-56.5 509,-56.5"/>
<text text-anchor="middle" x="537" y="-63.5" font-family="Helvetica,sans-Serif" font-size="10.00">symbol.c</text>
</a>
</g>
</g>
<!-- Node1&#45;&gt;Node12 -->
<g id="edge16" class="edge">
<title>Node1&#45;&gt;Node12</title>
<path fill="none" stroke="midnightblue" d="M309.32,-114.01C354.89,-105.57 433.18,-90.68 500,-76 502.84,-75.38 505.8,-74.7 508.75,-74.01"/>
<polygon fill="midnightblue" stroke="midnightblue" points="308.49,-110.6 299.29,-115.86 309.76,-117.49 308.49,-110.6"/>
</g>
<!-- Node4&#45;&gt;Node3 -->
<g id="edge4" class="edge">
<title>Node4&#45;&gt;Node3</title>
<path fill="none" stroke="midnightblue" d="M233.04,-56.99C191.67,-48.19 123.53,-33.51 65,-20 62.17,-19.35 59.21,-18.65 56.27,-17.95"/>
<polygon fill="midnightblue" stroke="midnightblue" points="232.46,-60.44 242.96,-59.09 233.91,-53.59 232.46,-60.44"/>
</g>
<!-- Node4&#45;&gt;Node5 -->
<g id="edge5" class="edge">
<title>Node4&#45;&gt;Node5</title>
<path fill="none" stroke="midnightblue" d="M235.05,-53.3C203.77,-43.13 159.18,-28.62 131.18,-19.52"/>
<polygon fill="midnightblue" stroke="midnightblue" points="234.1,-56.68 244.7,-56.44 236.27,-50.02 234.1,-56.68"/>
</g>
<!-- Node4&#45;&gt;Node6 -->
<g id="edge6" class="edge">
<title>Node4&#45;&gt;Node6</title>
<path fill="none" stroke="midnightblue" d="M247.19,-51.18C230.08,-41.24 207.53,-28.15 192.9,-19.65"/>
<polygon fill="midnightblue" stroke="midnightblue" points="245.65,-54.33 256.06,-56.32 249.17,-48.28 245.65,-54.33"/>
</g>
<!-- Node4&#45;&gt;Node7 -->
<g id="edge7" class="edge">
<title>Node4&#45;&gt;Node7</title>
<path fill="none" stroke="midnightblue" d="M263.88,-46.69C260.34,-37.59 256.23,-27.01 253.4,-19.75"/>
<polygon fill="midnightblue" stroke="midnightblue" points="260.65,-48.03 267.53,-56.08 267.17,-45.49 260.65,-48.03"/>
</g>
<!-- Node4&#45;&gt;Node8 -->
<g id="edge8" class="edge">
<title>Node4&#45;&gt;Node8</title>
<path fill="none" stroke="midnightblue" d="M287.29,-49C297.04,-39.43 309.05,-27.64 317.09,-19.75"/>
<polygon fill="midnightblue" stroke="midnightblue" points="284.77,-46.58 280.08,-56.08 289.67,-51.57 284.77,-46.58"/>
</g>
<!-- Node4&#45;&gt;Node9 -->
<g id="edge9" class="edge">
<title>Node4&#45;&gt;Node9</title>
<path fill="none" stroke="midnightblue" d="M300.16,-52.5C323.78,-42.38 356.43,-28.39 377.13,-19.52"/>
<polygon fill="midnightblue" stroke="midnightblue" points="298.78,-49.29 290.97,-56.44 301.54,-55.72 298.78,-49.29"/>
</g>
<!-- Node4&#45;&gt;Node10 -->
<g id="edge10" class="edge">
<title>Node4&#45;&gt;Node10</title>
<path fill="none" stroke="midnightblue" d="M309.15,-54.61C341.43,-45.72 388.86,-32.43 430,-20 432.83,-19.14 435.82,-18.21 438.75,-17.29"/>
<polygon fill="midnightblue" stroke="midnightblue" points="307.95,-51.31 299.23,-57.33 309.8,-58.06 307.95,-51.31"/>
</g>
</g>
</svg>
