<?xml version="1.0" encoding="UTF-8" standalone="no"?>
<!DOCTYPE svg PUBLIC "-//W3C//DTD SVG 1.1//EN"
 "http://www.w3.org/Graphics/SVG/1.1/DTD/svg11.dtd">
<!-- Generated by graphviz version 3.0.0 (20220226.1711)
 -->
<!-- Title: c_hash.c Pages: 1 -->
<svg width="416pt" height="196pt"
 viewBox="0.00 0.00 416.00 196.00" xmlns="http://www.w3.org/2000/svg" xmlns:xlink="http://www.w3.org/1999/xlink">
<g id="graph0" class="graph" transform="scale(1 1) rotate(0) translate(4 192)">
<title>c_hash.c</title>
<polygon fill="white" stroke="transparent" points="-4,4 -4,-192 412,-192 412,4 -4,4"/>
<!-- Node1 -->
<g id="node1" class="node">
<title>Node1</title>
<g id="a_node1"><a xlink:title="mruby/c Hash class">
<polygon fill="#bfbfbf" stroke="black" points="136.5,-168.5 136.5,-187.5 192.5,-187.5 192.5,-168.5 136.5,-168.5"/>
<text text-anchor="middle" x="164.5" y="-175.5" font-family="Helvetica,sans-Serif" font-size="10.00">c_hash.c</text>
</a>
</g>
</g>
<!-- Node2 -->
<g id="node2" class="node">
<title>Node2</title>
<g id="a_node2"><a xlink:href="alloc_8h.html" target="_top" xlink:title="mruby/c memory management.">
<polygon fill="white" stroke="black" points="0,-0.5 0,-19.5 45,-19.5 45,-0.5 0,-0.5"/>
<text text-anchor="middle" x="22.5" y="-7.5" font-family="Helvetica,sans-Serif" font-size="10.00">alloc.h</text>
</a>
</g>
</g>
<!-- Node1&#45;&gt;Node2 -->
<g id="edge1" class="edge">
<title>Node1&#45;&gt;Node2</title>
<path fill="none" stroke="midnightblue" d="M136.4,-169.92C113.02,-163.03 79.77,-150.81 55.5,-132 30.91,-112.94 23.34,-105.51 13.5,-76 8.43,-60.8 11.65,-42.69 15.58,-29.45"/>
<polygon fill="midnightblue" stroke="midnightblue" points="19,-30.24 18.88,-19.64 12.37,-28 19,-30.24"/>
</g>
<!-- Node3 -->
<g id="node3" class="node">
<title>Node3</title>
<g id="a_node3"><a xlink:href="value_8h.html" target="_top" xlink:title="mruby/c value definitions">
<polygon fill="white" stroke="black" points="140.5,-0.5 140.5,-19.5 188.5,-19.5 188.5,-0.5 140.5,-0.5"/>
<text text-anchor="middle" x="164.5" y="-7.5" font-family="Helvetica,sans-Serif" font-size="10.00">value.h</text>
</a>
</g>
</g>
<!-- Node1&#45;&gt;Node3 -->
<g id="edge2" class="edge">
<title>Node1&#45;&gt;Node3</title>
<path fill="none" stroke="midnightblue" d="M171.27,-168.4C186.12,-148.45 219.01,-97.57 203.5,-56 199.33,-44.81 190.98,-34.56 183.08,-26.68"/>
<polygon fill="midnightblue" stroke="midnightblue" points="185.2,-23.87 175.49,-19.63 180.44,-29 185.2,-23.87"/>
</g>
<!-- Node4 -->
<g id="node4" class="node">
<title>Node4</title>
<g id="a_node4"><a xlink:href="class_8h.html" target="_top" xlink:title="Class related functions.">
<polygon fill="white" stroke="red" points="250.5,-56.5 250.5,-75.5 298.5,-75.5 298.5,-56.5 250.5,-56.5"/>
<text text-anchor="middle" x="274.5" y="-63.5" font-family="Helvetica,sans-Serif" font-size="10.00">class.h</text>
</a>
</g>
</g>
<!-- Node1&#45;&gt;Node4 -->
<g id="edge3" class="edge">
<title>Node1&#45;&gt;Node4</title>
<path fill="none" stroke="midnightblue" d="M183.39,-168.4C199.03,-160.59 221.1,-147.86 236.5,-132 249.71,-118.4 260.14,-99.35 266.71,-85.38"/>
<polygon fill="midnightblue" stroke="midnightblue" points="270.08,-86.43 270.96,-75.87 263.69,-83.58 270.08,-86.43"/>
</g>
<!-- Node7 -->
<g id="node5" class="node">
<title>Node7</title>
<g id="a_node5"><a xlink:href="c__string_8h.html" target="_top" xlink:title="mruby/c String class">
<polygon fill="white" stroke="black" points="135,-56.5 135,-75.5 194,-75.5 194,-56.5 135,-56.5"/>
<text text-anchor="middle" x="164.5" y="-63.5" font-family="Helvetica,sans-Serif" font-size="10.00">c_string.h</text>
</a>
</g>
</g>
<!-- Node1&#45;&gt;Node7 -->
<g id="edge5" class="edge">
<title>Node1&#45;&gt;Node7</title>
<path fill="none" stroke="midnightblue" d="M164.5,-168.37C164.5,-150.62 164.5,-109.67 164.5,-85.6"/>
<polygon fill="midnightblue" stroke="midnightblue" points="168,-85.59 164.5,-75.59 161,-85.59 168,-85.59"/>
</g>
<!-- Node8 -->
<g id="node6" class="node">
<title>Node8</title>
<g id="a_node6"><a xlink:href="c__array_8h.html" target="_top" xlink:title="mruby/c Array class">
<polygon fill="white" stroke="black" points="22.5,-56.5 22.5,-75.5 78.5,-75.5 78.5,-56.5 22.5,-56.5"/>
<text text-anchor="middle" x="50.5" y="-63.5" font-family="Helvetica,sans-Serif" font-size="10.00">c_array.h</text>
</a>
</g>
</g>
<!-- Node1&#45;&gt;Node8 -->
<g id="edge7" class="edge">
<title>Node1&#45;&gt;Node8</title>
<path fill="none" stroke="midnightblue" d="M136.1,-170.31C114.87,-163.89 86.68,-152.13 69.5,-132 58.42,-119.02 53.8,-99.85 51.87,-85.69"/>
<polygon fill="midnightblue" stroke="midnightblue" points="55.34,-85.22 50.83,-75.63 48.38,-85.93 55.34,-85.22"/>
</g>
<!-- Node9 -->
<g id="node7" class="node">
<title>Node9</title>
<g id="a_node7"><a xlink:href="c__hash_8h.html" target="_top" xlink:title="mruby/c Hash class">
<polygon fill="white" stroke="black" points="78.5,-112.5 78.5,-131.5 134.5,-131.5 134.5,-112.5 78.5,-112.5"/>
<text text-anchor="middle" x="106.5" y="-119.5" font-family="Helvetica,sans-Serif" font-size="10.00">c_hash.h</text>
</a>
</g>
</g>
<!-- Node1&#45;&gt;Node9 -->
<g id="edge10" class="edge">
<title>Node1&#45;&gt;Node9</title>
<path fill="none" stroke="midnightblue" d="M155.18,-168.32C146.61,-160.34 133.69,-148.31 123.31,-138.65"/>
<polygon fill="midnightblue" stroke="midnightblue" points="125.69,-136.09 115.99,-131.83 120.92,-141.21 125.69,-136.09"/>
</g>
<!-- Node10 -->
<g id="node8" class="node">
<title>Node10</title>
<g id="a_node8"><a xlink:title=" ">
<polygon fill="white" stroke="#bfbfbf" points="289,-112.5 289,-131.5 408,-131.5 408,-112.5 289,-112.5"/>
<text text-anchor="middle" x="348.5" y="-119.5" font-family="Helvetica,sans-Serif" font-size="10.00">_autogen_class_hash.h</text>
</a>
</g>
</g>
<!-- Node1&#45;&gt;Node10 -->
<g id="edge13" class="edge">
<title>Node1&#45;&gt;Node10</title>
<path fill="none" stroke="midnightblue" d="M192.85,-168.68C224.13,-159.5 274.68,-144.66 309.65,-134.4"/>
<polygon fill="midnightblue" stroke="midnightblue" points="310.9,-137.68 319.51,-131.51 308.93,-130.96 310.9,-137.68"/>
</g>
<!-- Node4&#45;&gt;Node3 -->
<g id="edge4" class="edge">
<title>Node4&#45;&gt;Node3</title>
<path fill="none" stroke="midnightblue" d="M256.83,-56.32C239.11,-47.62 211.6,-34.12 191.21,-24.11"/>
<polygon fill="midnightblue" stroke="midnightblue" points="192.65,-20.92 182.13,-19.65 189.56,-27.2 192.65,-20.92"/>
</g>
<!-- Node7&#45;&gt;Node3 -->
<g id="edge6" class="edge">
<title>Node7&#45;&gt;Node3</title>
<path fill="none" stroke="midnightblue" d="M164.5,-56.08C164.5,-49.01 164.5,-38.86 164.5,-29.99"/>
<polygon fill="midnightblue" stroke="midnightblue" points="168,-29.75 164.5,-19.75 161,-29.75 168,-29.75"/>
</g>
<!-- Node8&#45;&gt;Node2 -->
<g id="edge8" class="edge">
<title>Node8&#45;&gt;Node2</title>
<path fill="none" stroke="midnightblue" d="M45.88,-56.08C42.04,-48.69 36.48,-37.95 31.74,-28.81"/>
<polygon fill="midnightblue" stroke="midnightblue" points="34.75,-27.02 27.04,-19.75 28.53,-30.24 34.75,-27.02"/>
</g>
<!-- Node8&#45;&gt;Node3 -->
<g id="edge9" class="edge">
<title>Node8&#45;&gt;Node3</title>
<path fill="none" stroke="midnightblue" d="M68.56,-56.44C87.07,-47.68 116.08,-33.94 137.36,-23.86"/>
<polygon fill="midnightblue" stroke="midnightblue" points="138.98,-26.96 146.52,-19.52 135.99,-20.63 138.98,-26.96"/>
</g>
<!-- Node9&#45;&gt;Node3 -->
<g id="edge11" class="edge">
<title>Node9&#45;&gt;Node3</title>
<path fill="none" stroke="midnightblue" d="M108.05,-112.15C110.56,-99.21 116.31,-74.65 126.5,-56 132.31,-45.37 140.88,-34.93 148.42,-26.8"/>
<polygon fill="midnightblue" stroke="midnightblue" points="151.03,-29.13 155.46,-19.5 146,-24.26 151.03,-29.13"/>
</g>
<!-- Node9&#45;&gt;Node8 -->
<g id="edge12" class="edge">
<title>Node9&#45;&gt;Node8</title>
<path fill="none" stroke="midnightblue" d="M97.5,-112.32C89.31,-104.42 76.99,-92.55 67.03,-82.94"/>
<polygon fill="midnightblue" stroke="midnightblue" points="69.29,-80.26 59.66,-75.83 64.43,-85.29 69.29,-80.26"/>
</g>
</g>
</svg>
