<?xml version="1.0" encoding="UTF-8" standalone="no"?>
<!DOCTYPE svg PUBLIC "-//W3C//DTD SVG 1.1//EN"
 "http://www.w3.org/Graphics/SVG/1.1/DTD/svg11.dtd">
<!-- Generated by graphviz version 3.0.0 (20220226.1711)
 -->
<!-- Title: mrbc_hash_search Pages: 1 -->
<svg width="245pt" height="104pt"
 viewBox="0.00 0.00 245.00 104.00" xmlns="http://www.w3.org/2000/svg" xmlns:xlink="http://www.w3.org/1999/xlink">
<g id="graph0" class="graph" transform="scale(1 1) rotate(0) translate(4 100)">
<title>mrbc_hash_search</title>
<polygon fill="white" stroke="transparent" points="-4,4 -4,-100 241,-100 241,4 -4,4"/>
<!-- Node1 -->
<g id="node1" class="node">
<title>Node1</title>
<g id="a_node1"><a xlink:title=" ">
<polygon fill="#bfbfbf" stroke="black" points="138,-38.5 138,-57.5 237,-57.5 237,-38.5 138,-38.5"/>
<text text-anchor="middle" x="187.5" y="-45.5" font-family="Helvetica,sans-Serif" font-size="10.00">mrbc_hash_search</text>
</a>
</g>
</g>
<!-- Node2 -->
<g id="node2" class="node">
<title>Node2</title>
<g id="a_node2"><a xlink:href="c__hash_8c.html#a5a11089fa223665b3ea76cf488a55b81" target="_top" xlink:title=" ">
<polygon fill="white" stroke="black" points="9.5,-76.5 9.5,-95.5 92.5,-95.5 92.5,-76.5 9.5,-76.5"/>
<text text-anchor="middle" x="51" y="-83.5" font-family="Helvetica,sans-Serif" font-size="10.00">mrbc_hash_get</text>
</a>
</g>
</g>
<!-- Node1&#45;&gt;Node2 -->
<g id="edge1" class="edge">
<title>Node1&#45;&gt;Node2</title>
<path fill="none" stroke="midnightblue" d="M142.9,-60.32C124.42,-65.54 103.21,-71.53 85.93,-76.41"/>
<polygon fill="midnightblue" stroke="midnightblue" points="143.89,-63.68 152.56,-57.59 141.99,-56.94 143.89,-63.68"/>
</g>
<!-- Node3 -->
<g id="node3" class="node">
<title>Node3</title>
<g id="a_node3"><a xlink:href="c__hash_8c.html#aebb15cb843f43dc951311ac711fdde72" target="_top" xlink:title=" ">
<polygon fill="white" stroke="black" points="0,-38.5 0,-57.5 102,-57.5 102,-38.5 0,-38.5"/>
<text text-anchor="middle" x="51" y="-45.5" font-family="Helvetica,sans-Serif" font-size="10.00">mrbc_hash_remove</text>
</a>
</g>
</g>
<!-- Node1&#45;&gt;Node3 -->
<g id="edge2" class="edge">
<title>Node1&#45;&gt;Node3</title>
<path fill="none" stroke="midnightblue" d="M127.73,-48C119.25,-48 110.59,-48 102.3,-48"/>
<polygon fill="midnightblue" stroke="midnightblue" points="127.94,-51.5 137.94,-48 127.94,-44.5 127.94,-51.5"/>
</g>
<!-- Node4 -->
<g id="node4" class="node">
<title>Node4</title>
<g id="a_node4"><a xlink:href="c__hash_8c.html#aedbcfcba61ee01161a6f5296559d875c" target="_top" xlink:title=" ">
<polygon fill="white" stroke="black" points="9.5,-0.5 9.5,-19.5 92.5,-19.5 92.5,-0.5 9.5,-0.5"/>
<text text-anchor="middle" x="51" y="-7.5" font-family="Helvetica,sans-Serif" font-size="10.00">mrbc_hash_set</text>
</a>
</g>
</g>
<!-- Node1&#45;&gt;Node4 -->
<g id="edge3" class="edge">
<title>Node1&#45;&gt;Node4</title>
<path fill="none" stroke="midnightblue" d="M142.9,-35.68C124.42,-30.46 103.21,-24.47 85.93,-19.59"/>
<polygon fill="midnightblue" stroke="midnightblue" points="141.99,-39.06 152.56,-38.41 143.89,-32.32 141.99,-39.06"/>
</g>
</g>
</svg>
