<?xml version="1.0" encoding="UTF-8" standalone="no"?>
<!DOCTYPE svg PUBLIC "-//W3C//DTD SVG 1.1//EN"
 "http://www.w3.org/Graphics/SVG/1.1/DTD/svg11.dtd">
<!-- Generated by graphviz version 3.0.0 (20220226.1711)
 -->
<!-- Title: c_hash.h Pages: 1 -->
<svg width="92pt" height="140pt"
 viewBox="0.00 0.00 92.00 140.00" xmlns="http://www.w3.org/2000/svg" xmlns:xlink="http://www.w3.org/1999/xlink">
<g id="graph0" class="graph" transform="scale(1 1) rotate(0) translate(4 136)">
<title>c_hash.h</title>
<polygon fill="white" stroke="transparent" points="-4,4 -4,-136 88,-136 88,4 -4,4"/>
<!-- Node1 -->
<g id="node1" class="node">
<title>Node1</title>
<g id="a_node1"><a xlink:title="mruby/c Hash class">
<polygon fill="#bfbfbf" stroke="black" points="0,-112.5 0,-131.5 56,-131.5 56,-112.5 0,-112.5"/>
<text text-anchor="middle" x="28" y="-119.5" font-family="Helvetica,sans-Serif" font-size="10.00">c_hash.h</text>
</a>
</g>
</g>
<!-- Node2 -->
<g id="node2" class="node">
<title>Node2</title>
<g id="a_node2"><a xlink:href="value_8h.html" target="_top" xlink:title="mruby/c value definitions">
<polygon fill="white" stroke="black" points="4,-0.5 4,-19.5 52,-19.5 52,-0.5 4,-0.5"/>
<text text-anchor="middle" x="28" y="-7.5" font-family="Helvetica,sans-Serif" font-size="10.00">value.h</text>
</a>
</g>
</g>
<!-- Node1&#45;&gt;Node2 -->
<g id="edge1" class="edge">
<title>Node1&#45;&gt;Node2</title>
<path fill="none" stroke="midnightblue" d="M25.45,-112.19C22.13,-99.72 17,-76.18 19,-56 19.87,-47.17 21.69,-37.51 23.47,-29.4"/>
<polygon fill="midnightblue" stroke="midnightblue" points="26.9,-30.08 25.77,-19.55 20.08,-28.49 26.9,-30.08"/>
</g>
<!-- Node3 -->
<g id="node3" class="node">
<title>Node3</title>
<g id="a_node3"><a xlink:href="c__array_8h.html" target="_top" xlink:title="mruby/c Array class">
<polygon fill="white" stroke="red" points="28,-56.5 28,-75.5 84,-75.5 84,-56.5 28,-56.5"/>
<text text-anchor="middle" x="56" y="-63.5" font-family="Helvetica,sans-Serif" font-size="10.00">c_array.h</text>
</a>
</g>
</g>
<!-- Node1&#45;&gt;Node3 -->
<g id="edge2" class="edge">
<title>Node1&#45;&gt;Node3</title>
<path fill="none" stroke="midnightblue" d="M32.62,-112.08C36.46,-104.69 42.02,-93.95 46.76,-84.81"/>
<polygon fill="midnightblue" stroke="midnightblue" points="49.97,-86.24 51.46,-75.75 43.75,-83.02 49.97,-86.24"/>
</g>
<!-- Node3&#45;&gt;Node2 -->
<g id="edge3" class="edge">
<title>Node3&#45;&gt;Node2</title>
<path fill="none" stroke="midnightblue" d="M51.38,-56.08C47.54,-48.69 41.98,-37.95 37.24,-28.81"/>
<polygon fill="midnightblue" stroke="midnightblue" points="40.25,-27.02 32.54,-19.75 34.03,-30.24 40.25,-27.02"/>
</g>
</g>
</svg>
