<?xml version="1.0" encoding="UTF-8" standalone="no"?>
<!DOCTYPE svg PUBLIC "-//W3C//DTD SVG 1.1//EN"
 "http://www.w3.org/Graphics/SVG/1.1/DTD/svg11.dtd">
<!-- Generated by graphviz version 3.0.0 (20220226.1711)
 -->
<!-- Title: c_hash.h Pages: 1 -->
<svg width="485pt" height="84pt"
 viewBox="0.00 0.00 485.00 84.00" xmlns="http://www.w3.org/2000/svg" xmlns:xlink="http://www.w3.org/1999/xlink">
<g id="graph0" class="graph" transform="scale(1 1) rotate(0) translate(4 80)">
<title>c_hash.h</title>
<polygon fill="white" stroke="transparent" points="-4,4 -4,-80 481,-80 481,4 -4,4"/>
<!-- Node1 -->
<g id="node1" class="node">
<title>Node1</title>
<g id="a_node1"><a xlink:title="mruby/c Hash class">
<polygon fill="#bfbfbf" stroke="black" points="222,-56.5 222,-75.5 278,-75.5 278,-56.5 222,-56.5"/>
<text text-anchor="middle" x="250" y="-63.5" font-family="Helvetica,sans-Serif" font-size="10.00">c_hash.h</text>
</a>
</g>
</g>
<!-- Node2 -->
<g id="node2" class="node">
<title>Node2</title>
<g id="a_node2"><a xlink:href="c__hash_8c.html" target="_top" xlink:title="mruby/c Hash class">
<polygon fill="white" stroke="black" points="0,-0.5 0,-19.5 56,-19.5 56,-0.5 0,-0.5"/>
<text text-anchor="middle" x="28" y="-7.5" font-family="Helvetica,sans-Serif" font-size="10.00">c_hash.c</text>
</a>
</g>
</g>
<!-- Node1&#45;&gt;Node2 -->
<g id="edge1" class="edge">
<title>Node1&#45;&gt;Node2</title>
<path fill="none" stroke="midnightblue" d="M212.09,-55.78C167.87,-45.02 95.81,-27.5 56.24,-17.87"/>
<polygon fill="midnightblue" stroke="midnightblue" points="211.34,-59.2 221.88,-58.16 212.99,-52.4 211.34,-59.2"/>
</g>
<!-- Node3 -->
<g id="node3" class="node">
<title>Node3</title>
<g id="a_node3"><a xlink:href="c__object_8c.html" target="_top" xlink:title="Object, Proc, Nil, True and False class.">
<polygon fill="white" stroke="black" points="74,-0.5 74,-19.5 136,-19.5 136,-0.5 74,-0.5"/>
<text text-anchor="middle" x="105" y="-7.5" font-family="Helvetica,sans-Serif" font-size="10.00">c_object.c</text>
</a>
</g>
</g>
<!-- Node1&#45;&gt;Node3 -->
<g id="edge2" class="edge">
<title>Node1&#45;&gt;Node3</title>
<path fill="none" stroke="midnightblue" d="M217.52,-52.91C190.26,-42.75 152.01,-28.51 127.87,-19.52"/>
<polygon fill="midnightblue" stroke="midnightblue" points="216.43,-56.23 227.02,-56.44 218.87,-49.67 216.43,-56.23"/>
</g>
<!-- Node4 -->
<g id="node4" class="node">
<title>Node4</title>
<g id="a_node4"><a xlink:href="class_8c.html" target="_top" xlink:title="Class related functions.">
<polygon fill="white" stroke="black" points="154,-0.5 154,-19.5 202,-19.5 202,-0.5 154,-0.5"/>
<text text-anchor="middle" x="178" y="-7.5" font-family="Helvetica,sans-Serif" font-size="10.00">class.c</text>
</a>
</g>
</g>
<!-- Node1&#45;&gt;Node4 -->
<g id="edge3" class="edge">
<title>Node1&#45;&gt;Node4</title>
<path fill="none" stroke="midnightblue" d="M230.13,-50.1C217.18,-40.38 200.7,-28.03 189.78,-19.83"/>
<polygon fill="midnightblue" stroke="midnightblue" points="228.33,-53.12 238.43,-56.32 232.53,-47.52 228.33,-53.12"/>
</g>
<!-- Node5 -->
<g id="node5" class="node">
<title>Node5</title>
<g id="a_node5"><a xlink:href="console_8c.html" target="_top" xlink:title="console output module. (not yet input)">
<polygon fill="white" stroke="black" points="220.5,-0.5 220.5,-19.5 279.5,-19.5 279.5,-0.5 220.5,-0.5"/>
<text text-anchor="middle" x="250" y="-7.5" font-family="Helvetica,sans-Serif" font-size="10.00">console.c</text>
</a>
</g>
</g>
<!-- Node1&#45;&gt;Node5 -->
<g id="edge4" class="edge">
<title>Node1&#45;&gt;Node5</title>
<path fill="none" stroke="midnightblue" d="M250,-45.8C250,-36.91 250,-26.78 250,-19.75"/>
<polygon fill="midnightblue" stroke="midnightblue" points="246.5,-46.08 250,-56.08 253.5,-46.08 246.5,-46.08"/>
</g>
<!-- Node6 -->
<g id="node6" class="node">
<title>Node6</title>
<g id="a_node6"><a xlink:href="mrubyc_8h.html" target="_top" xlink:title="Include at once the necessary header files for user program.">
<polygon fill="white" stroke="black" points="297.5,-0.5 297.5,-19.5 354.5,-19.5 354.5,-0.5 297.5,-0.5"/>
<text text-anchor="middle" x="326" y="-7.5" font-family="Helvetica,sans-Serif" font-size="10.00">mrubyc.h</text>
</a>
</g>
</g>
<!-- Node1&#45;&gt;Node6 -->
<g id="edge5" class="edge">
<title>Node1&#45;&gt;Node6</title>
<path fill="none" stroke="midnightblue" d="M270.58,-50.38C284.31,-40.62 301.93,-28.11 313.57,-19.83"/>
<polygon fill="midnightblue" stroke="midnightblue" points="268.34,-47.68 262.21,-56.32 272.39,-53.38 268.34,-47.68"/>
</g>
<!-- Node7 -->
<g id="node7" class="node">
<title>Node7</title>
<g id="a_node7"><a xlink:href="value_8c.html" target="_top" xlink:title="mruby/c value definitions">
<polygon fill="white" stroke="black" points="373,-0.5 373,-19.5 421,-19.5 421,-0.5 373,-0.5"/>
<text text-anchor="middle" x="397" y="-7.5" font-family="Helvetica,sans-Serif" font-size="10.00">value.c</text>
</a>
</g>
</g>
<!-- Node1&#45;&gt;Node7 -->
<g id="edge6" class="edge">
<title>Node1&#45;&gt;Node7</title>
<path fill="none" stroke="midnightblue" d="M282.92,-52.91C310.56,-42.75 349.34,-28.51 373.82,-19.52"/>
<polygon fill="midnightblue" stroke="midnightblue" points="281.47,-49.71 273.29,-56.44 283.89,-56.28 281.47,-49.71"/>
</g>
<!-- Node8 -->
<g id="node8" class="node">
<title>Node8</title>
<g id="a_node8"><a xlink:href="vm_8c.html" target="_top" xlink:title="mruby bytecode executor.">
<polygon fill="white" stroke="black" points="439,-0.5 439,-19.5 477,-19.5 477,-0.5 439,-0.5"/>
<text text-anchor="middle" x="458" y="-7.5" font-family="Helvetica,sans-Serif" font-size="10.00">vm.c</text>
</a>
</g>
</g>
<!-- Node1&#45;&gt;Node8 -->
<g id="edge7" class="edge">
<title>Node1&#45;&gt;Node8</title>
<path fill="none" stroke="midnightblue" d="M287.97,-56.28C324.53,-47.7 381.3,-33.9 430,-20 432.85,-19.19 435.84,-18.28 438.77,-17.36"/>
<polygon fill="midnightblue" stroke="midnightblue" points="287.16,-52.87 278.21,-58.56 288.75,-59.69 287.16,-52.87"/>
</g>
</g>
</svg>
