<?xml version="1.0" encoding="UTF-8" standalone="no"?>
<!DOCTYPE svg PUBLIC "-//W3C//DTD SVG 1.1//EN"
 "http://www.w3.org/Graphics/SVG/1.1/DTD/svg11.dtd">
<!-- Generated by graphviz version 3.0.0 (20220226.1711)
 -->
<!-- Title: mrbc_hash_set Pages: 1 -->
<svg width="226pt" height="66pt"
 viewBox="0.00 0.00 226.00 66.00" xmlns="http://www.w3.org/2000/svg" xmlns:xlink="http://www.w3.org/1999/xlink">
<g id="graph0" class="graph" transform="scale(1 1) rotate(0) translate(4 62)">
<title>mrbc_hash_set</title>
<polygon fill="white" stroke="transparent" points="-4,4 -4,-62 222,-62 222,4 -4,4"/>
<!-- Node1 -->
<g id="node1" class="node">
<title>Node1</title>
<g id="a_node1"><a xlink:title=" ">
<polygon fill="#bfbfbf" stroke="black" points="0,-19.5 0,-38.5 83,-38.5 83,-19.5 0,-19.5"/>
<text text-anchor="middle" x="41.5" y="-26.5" font-family="Helvetica,sans-Serif" font-size="10.00">mrbc_hash_set</text>
</a>
</g>
</g>
<!-- Node2 -->
<g id="node2" class="node">
<title>Node2</title>
<g id="a_node2"><a xlink:href="c__array_8c.html#a09d89fb052dfd07fdfa591035f521820" target="_top" xlink:title=" ">
<polygon fill="white" stroke="red" points="122.5,-38.5 122.5,-57.5 214.5,-57.5 214.5,-38.5 122.5,-38.5"/>
<text text-anchor="middle" x="168.5" y="-45.5" font-family="Helvetica,sans-Serif" font-size="10.00">mrbc_array_push</text>
</a>
</g>
</g>
<!-- Node1&#45;&gt;Node2 -->
<g id="edge1" class="edge">
<title>Node1&#45;&gt;Node2</title>
<path fill="none" stroke="midnightblue" d="M83.08,-35.17C92.4,-36.58 102.45,-38.11 112.26,-39.6"/>
<polygon fill="midnightblue" stroke="midnightblue" points="111.95,-43.1 122.36,-41.14 113,-36.18 111.95,-43.1"/>
</g>
<!-- Node5 -->
<g id="node3" class="node">
<title>Node5</title>
<g id="a_node3"><a xlink:href="c__hash_8c.html#a0e4c17d3dce62a7ff54dcbcd7788003f" target="_top" xlink:title=" ">
<polygon fill="white" stroke="red" points="119,-0.5 119,-19.5 218,-19.5 218,-0.5 119,-0.5"/>
<text text-anchor="middle" x="168.5" y="-7.5" font-family="Helvetica,sans-Serif" font-size="10.00">mrbc_hash_search</text>
</a>
</g>
</g>
<!-- Node1&#45;&gt;Node5 -->
<g id="edge2" class="edge">
<title>Node1&#45;&gt;Node5</title>
<path fill="none" stroke="midnightblue" d="M83.08,-22.83C91.28,-21.59 100.06,-20.25 108.73,-18.93"/>
<polygon fill="midnightblue" stroke="midnightblue" points="109.48,-22.36 118.84,-17.4 108.42,-15.44 109.48,-22.36"/>
</g>
</g>
</svg>
