<?xml version="1.0" encoding="UTF-8" standalone="no"?>
<!DOCTYPE svg PUBLIC "-//W3C//DTD SVG 1.1//EN"
 "http://www.w3.org/Graphics/SVG/1.1/DTD/svg11.dtd">
<!-- Generated by graphviz version 3.0.0 (20220226.1711)
 -->
<!-- Title: c_math.c Pages: 1 -->
<svg width="233pt" height="196pt"
 viewBox="0.00 0.00 233.19 196.00" xmlns="http://www.w3.org/2000/svg" xmlns:xlink="http://www.w3.org/1999/xlink">
<g id="graph0" class="graph" transform="scale(1 1) rotate(0) translate(4 192)">
<title>c_math.c</title>
<polygon fill="white" stroke="transparent" points="-4,4 -4,-192 229.19,-192 229.19,4 -4,4"/>
<!-- Node1 -->
<g id="node1" class="node">
<title>Node1</title>
<g id="a_node1"><a xlink:title="mruby/c Math class">
<polygon fill="#bfbfbf" stroke="black" points="52.69,-168.5 52.69,-187.5 109.69,-187.5 109.69,-168.5 52.69,-168.5"/>
<text text-anchor="middle" x="81.19" y="-175.5" font-family="Helvetica,sans-Serif" font-size="10.00">c_math.c</text>
</a>
</g>
</g>
<!-- Node2 -->
<g id="node2" class="node">
<title>Node2</title>
<g id="a_node2"><a xlink:href="value_8h.html" target="_top" xlink:title="mruby/c value definitions">
<polygon fill="white" stroke="black" points="88.19,-0.5 88.19,-19.5 136.19,-19.5 136.19,-0.5 88.19,-0.5"/>
<text text-anchor="middle" x="112.19" y="-7.5" font-family="Helvetica,sans-Serif" font-size="10.00">value.h</text>
</a>
</g>
</g>
<!-- Node1&#45;&gt;Node2 -->
<g id="edge1" class="edge">
<title>Node1&#45;&gt;Node2</title>
<path fill="none" stroke="midnightblue" d="M68.64,-168.37C41.1,-148.35 -20.05,-97.32 7.19,-56 22.76,-32.39 53.58,-21.12 77.81,-15.77"/>
<polygon fill="midnightblue" stroke="midnightblue" points="78.6,-19.18 87.74,-13.82 77.25,-12.31 78.6,-19.18"/>
</g>
<!-- Node3 -->
<g id="node3" class="node">
<title>Node3</title>
<g id="a_node3"><a xlink:href="symbol_8h.html" target="_top" xlink:title="mruby/c Symbol class">
<polygon fill="white" stroke="red" points="16.19,-56.5 16.19,-75.5 72.19,-75.5 72.19,-56.5 16.19,-56.5"/>
<text text-anchor="middle" x="44.19" y="-63.5" font-family="Helvetica,sans-Serif" font-size="10.00">symbol.h</text>
</a>
</g>
</g>
<!-- Node1&#45;&gt;Node3 -->
<g id="edge2" class="edge">
<title>Node1&#45;&gt;Node3</title>
<path fill="none" stroke="midnightblue" d="M78.29,-168.37C72.29,-150.54 58.42,-109.3 50.34,-85.27"/>
<polygon fill="midnightblue" stroke="midnightblue" points="53.59,-83.95 47.08,-75.59 46.95,-86.19 53.59,-83.95"/>
</g>
<!-- Node5 -->
<g id="node4" class="node">
<title>Node5</title>
<g id="a_node4"><a xlink:href="error_8h.html" target="_top" xlink:title="exception classes">
<polygon fill="white" stroke="black" points="90.19,-56.5 90.19,-75.5 134.19,-75.5 134.19,-56.5 90.19,-56.5"/>
<text text-anchor="middle" x="112.19" y="-63.5" font-family="Helvetica,sans-Serif" font-size="10.00">error.h</text>
</a>
</g>
</g>
<!-- Node1&#45;&gt;Node5 -->
<g id="edge4" class="edge">
<title>Node1&#45;&gt;Node5</title>
<path fill="none" stroke="midnightblue" d="M83.63,-168.37C88.65,-150.54 100.27,-109.3 107.04,-85.27"/>
<polygon fill="midnightblue" stroke="midnightblue" points="110.43,-86.17 109.77,-75.59 103.69,-84.27 110.43,-86.17"/>
</g>
<!-- Node6 -->
<g id="node5" class="node">
<title>Node6</title>
<g id="a_node5"><a xlink:href="class_8h.html" target="_top" xlink:title="Class related functions.">
<polygon fill="white" stroke="red" points="109.19,-112.5 109.19,-131.5 157.19,-131.5 157.19,-112.5 109.19,-112.5"/>
<text text-anchor="middle" x="133.19" y="-119.5" font-family="Helvetica,sans-Serif" font-size="10.00">class.h</text>
</a>
</g>
</g>
<!-- Node1&#45;&gt;Node6 -->
<g id="edge6" class="edge">
<title>Node1&#45;&gt;Node6</title>
<path fill="none" stroke="midnightblue" d="M89.78,-168.08C97.35,-160.22 108.57,-148.57 117.71,-139.08"/>
<polygon fill="midnightblue" stroke="midnightblue" points="120.35,-141.38 124.77,-131.75 115.31,-136.53 120.35,-141.38"/>
</g>
<!-- Node8 -->
<g id="node6" class="node">
<title>Node8</title>
<g id="a_node6"><a xlink:href="global_8h.html" target="_top" xlink:title="Constant and global variables.">
<polygon fill="white" stroke="black" points="175.19,-112.5 175.19,-131.5 225.19,-131.5 225.19,-112.5 175.19,-112.5"/>
<text text-anchor="middle" x="200.19" y="-119.5" font-family="Helvetica,sans-Serif" font-size="10.00">global.h</text>
</a>
</g>
</g>
<!-- Node1&#45;&gt;Node8 -->
<g id="edge9" class="edge">
<title>Node1&#45;&gt;Node8</title>
<path fill="none" stroke="midnightblue" d="M100.05,-168.44C119.46,-159.64 149.92,-145.81 172.16,-135.72"/>
<polygon fill="midnightblue" stroke="midnightblue" points="173.77,-138.84 181.43,-131.52 170.87,-132.46 173.77,-138.84"/>
</g>
<!-- Node3&#45;&gt;Node2 -->
<g id="edge3" class="edge">
<title>Node3&#45;&gt;Node2</title>
<path fill="none" stroke="midnightblue" d="M55.12,-56.32C65.37,-48.18 80.91,-35.84 93.19,-26.09"/>
<polygon fill="midnightblue" stroke="midnightblue" points="95.41,-28.79 101.07,-19.83 91.06,-23.31 95.41,-28.79"/>
</g>
<!-- Node5&#45;&gt;Node2 -->
<g id="edge5" class="edge">
<title>Node5&#45;&gt;Node2</title>
<path fill="none" stroke="midnightblue" d="M112.19,-56.08C112.19,-49.01 112.19,-38.86 112.19,-29.99"/>
<polygon fill="midnightblue" stroke="midnightblue" points="115.69,-29.75 112.19,-19.75 108.69,-29.75 115.69,-29.75"/>
</g>
<!-- Node6&#45;&gt;Node2 -->
<g id="edge7" class="edge">
<title>Node6&#45;&gt;Node2</title>
<path fill="none" stroke="midnightblue" d="M136.93,-112.4C141.87,-99.79 149.3,-75.62 143.19,-56 139.96,-45.62 133.42,-35.52 127.17,-27.53"/>
<polygon fill="midnightblue" stroke="midnightblue" points="129.78,-25.19 120.68,-19.77 124.41,-29.68 129.78,-25.19"/>
</g>
<!-- Node6&#45;&gt;Node5 -->
<g id="edge8" class="edge">
<title>Node6&#45;&gt;Node5</title>
<path fill="none" stroke="midnightblue" d="M129.73,-112.08C126.88,-104.77 122.76,-94.18 119.23,-85.1"/>
<polygon fill="midnightblue" stroke="midnightblue" points="122.48,-83.8 115.6,-75.75 115.96,-86.34 122.48,-83.8"/>
</g>
<!-- Node8&#45;&gt;Node2 -->
<g id="edge10" class="edge">
<title>Node8&#45;&gt;Node2</title>
<path fill="none" stroke="midnightblue" d="M195.33,-112.17C188.04,-99.25 173.49,-74.73 158.19,-56 149.64,-45.53 138.9,-34.91 129.95,-26.62"/>
<polygon fill="midnightblue" stroke="midnightblue" points="132.11,-23.85 122.35,-19.73 127.4,-29.03 132.11,-23.85"/>
</g>
</g>
</svg>
