<?xml version="1.0" encoding="UTF-8" standalone="no"?>
<!DOCTYPE svg PUBLIC "-//W3C//DTD SVG 1.1//EN"
 "http://www.w3.org/Graphics/SVG/1.1/DTD/svg11.dtd">
<!-- Generated by graphviz version 3.0.0 (20220226.1711)
 -->
<!-- Title: c_numeric.c Pages: 1 -->
<svg width="338pt" height="196pt"
 viewBox="0.00 0.00 338.37 196.00" xmlns="http://www.w3.org/2000/svg" xmlns:xlink="http://www.w3.org/1999/xlink">
<g id="graph0" class="graph" transform="scale(1 1) rotate(0) translate(4 192)">
<title>c_numeric.c</title>
<polygon fill="white" stroke="transparent" points="-4,4 -4,-192 334.37,-192 334.37,4 -4,4"/>
<!-- Node1 -->
<g id="node1" class="node">
<title>Node1</title>
<g id="a_node1"><a xlink:title="mruby/c Integer and Float class">
<polygon fill="#bfbfbf" stroke="black" points="75.87,-168.5 75.87,-187.5 145.87,-187.5 145.87,-168.5 75.87,-168.5"/>
<text text-anchor="middle" x="110.87" y="-175.5" font-family="Helvetica,sans-Serif" font-size="10.00">c_numeric.c</text>
</a>
</g>
</g>
<!-- Node2 -->
<g id="node2" class="node">
<title>Node2</title>
<g id="a_node2"><a xlink:href="value_8h.html" target="_top" xlink:title="mruby/c value definitions">
<polygon fill="white" stroke="black" points="59.87,-0.5 59.87,-19.5 107.87,-19.5 107.87,-0.5 59.87,-0.5"/>
<text text-anchor="middle" x="83.87" y="-7.5" font-family="Helvetica,sans-Serif" font-size="10.00">value.h</text>
</a>
</g>
</g>
<!-- Node1&#45;&gt;Node2 -->
<g id="edge1" class="edge">
<title>Node1&#45;&gt;Node2</title>
<path fill="none" stroke="midnightblue" d="M92.15,-168.5C76.34,-160.66 53.81,-147.85 37.87,-132 17.05,-111.31 10.96,-104.21 2.87,-76 0.42,-67.46 -1.64,-63.66 2.87,-56 13.03,-38.73 32.48,-27.61 49.77,-20.75"/>
<polygon fill="midnightblue" stroke="midnightblue" points="51.4,-23.88 59.61,-17.19 49.02,-17.3 51.4,-23.88"/>
</g>
<!-- Node3 -->
<g id="node3" class="node">
<title>Node3</title>
<g id="a_node3"><a xlink:href="error_8h.html" target="_top" xlink:title="exception classes">
<polygon fill="white" stroke="black" points="11.87,-56.5 11.87,-75.5 55.87,-75.5 55.87,-56.5 11.87,-56.5"/>
<text text-anchor="middle" x="33.87" y="-63.5" font-family="Helvetica,sans-Serif" font-size="10.00">error.h</text>
</a>
</g>
</g>
<!-- Node1&#45;&gt;Node3 -->
<g id="edge2" class="edge">
<title>Node1&#45;&gt;Node3</title>
<path fill="none" stroke="midnightblue" d="M94.47,-168.48C81.09,-160.7 62.69,-148.01 51.87,-132 42.54,-118.21 38.02,-99.69 35.85,-85.94"/>
<polygon fill="midnightblue" stroke="midnightblue" points="39.28,-85.19 34.52,-75.73 32.34,-86.1 39.28,-85.19"/>
</g>
<!-- Node4 -->
<g id="node4" class="node">
<title>Node4</title>
<g id="a_node4"><a xlink:href="class_8h.html" target="_top" xlink:title="Class related functions.">
<polygon fill="white" stroke="red" points="60.87,-112.5 60.87,-131.5 108.87,-131.5 108.87,-112.5 60.87,-112.5"/>
<text text-anchor="middle" x="84.87" y="-119.5" font-family="Helvetica,sans-Serif" font-size="10.00">class.h</text>
</a>
</g>
</g>
<!-- Node1&#45;&gt;Node4 -->
<g id="edge4" class="edge">
<title>Node1&#45;&gt;Node4</title>
<path fill="none" stroke="midnightblue" d="M106.57,-168.08C103.01,-160.69 97.84,-149.95 93.44,-140.81"/>
<polygon fill="midnightblue" stroke="midnightblue" points="96.57,-139.24 89.08,-131.75 90.26,-142.28 96.57,-139.24"/>
</g>
<!-- Node6 -->
<g id="node5" class="node">
<title>Node6</title>
<g id="a_node5"><a xlink:href="c__string_8h.html" target="_top" xlink:title="mruby/c String class">
<polygon fill="white" stroke="black" points="112.37,-56.5 112.37,-75.5 171.37,-75.5 171.37,-56.5 112.37,-56.5"/>
<text text-anchor="middle" x="141.87" y="-63.5" font-family="Helvetica,sans-Serif" font-size="10.00">c_string.h</text>
</a>
</g>
</g>
<!-- Node1&#45;&gt;Node6 -->
<g id="edge7" class="edge">
<title>Node1&#45;&gt;Node6</title>
<path fill="none" stroke="midnightblue" d="M113.3,-168.37C118.32,-150.54 129.95,-109.3 136.72,-85.27"/>
<polygon fill="midnightblue" stroke="midnightblue" points="140.1,-86.17 139.45,-75.59 133.36,-84.27 140.1,-86.17"/>
</g>
<!-- Node7 -->
<g id="node6" class="node">
<title>Node7</title>
<g id="a_node6"><a xlink:href="console_8h.html" target="_top" xlink:title="console output module. (not yet input)">
<polygon fill="white" stroke="black" points="189.37,-56.5 189.37,-75.5 248.37,-75.5 248.37,-56.5 189.37,-56.5"/>
<text text-anchor="middle" x="218.87" y="-63.5" font-family="Helvetica,sans-Serif" font-size="10.00">console.h</text>
</a>
</g>
</g>
<!-- Node1&#45;&gt;Node7 -->
<g id="edge9" class="edge">
<title>Node1&#45;&gt;Node7</title>
<path fill="none" stroke="midnightblue" d="M119.34,-168.37C137.48,-149.89 180.29,-106.29 203.41,-82.74"/>
<polygon fill="midnightblue" stroke="midnightblue" points="205.92,-85.18 210.43,-75.59 200.93,-80.28 205.92,-85.18"/>
</g>
<!-- Node8 -->
<g id="node7" class="node">
<title>Node8</title>
<g id="a_node7"><a xlink:title=" ">
<polygon fill="white" stroke="#bfbfbf" points="203.37,-112.5 203.37,-131.5 330.37,-131.5 330.37,-112.5 203.37,-112.5"/>
<text text-anchor="middle" x="266.87" y="-119.5" font-family="Helvetica,sans-Serif" font-size="10.00">_autogen_class_integer.h</text>
</a>
</g>
</g>
<!-- Node1&#45;&gt;Node8 -->
<g id="edge11" class="edge">
<title>Node1&#45;&gt;Node8</title>
<path fill="none" stroke="midnightblue" d="M135.59,-168.44C161.72,-159.4 203.13,-145.06 232.44,-134.92"/>
<polygon fill="midnightblue" stroke="midnightblue" points="233.96,-138.1 242.26,-131.52 231.67,-131.48 233.96,-138.1"/>
</g>
<!-- Node3&#45;&gt;Node2 -->
<g id="edge3" class="edge">
<title>Node3&#45;&gt;Node2</title>
<path fill="none" stroke="midnightblue" d="M42.12,-56.08C49.33,-48.3 59.98,-36.8 68.71,-27.37"/>
<polygon fill="midnightblue" stroke="midnightblue" points="71.54,-29.47 75.76,-19.75 66.4,-24.71 71.54,-29.47"/>
</g>
<!-- Node4&#45;&gt;Node2 -->
<g id="edge5" class="edge">
<title>Node4&#45;&gt;Node2</title>
<path fill="none" stroke="midnightblue" d="M84.79,-112.37C84.63,-94.62 84.25,-53.67 84.04,-29.6"/>
<polygon fill="midnightblue" stroke="midnightblue" points="87.54,-29.56 83.94,-19.59 80.54,-29.62 87.54,-29.56"/>
</g>
<!-- Node4&#45;&gt;Node3 -->
<g id="edge6" class="edge">
<title>Node4&#45;&gt;Node3</title>
<path fill="none" stroke="midnightblue" d="M76.44,-112.08C69.02,-104.22 58.01,-92.57 49.05,-83.08"/>
<polygon fill="midnightblue" stroke="midnightblue" points="51.54,-80.62 42.13,-75.75 46.45,-85.42 51.54,-80.62"/>
</g>
<!-- Node6&#45;&gt;Node2 -->
<g id="edge8" class="edge">
<title>Node6&#45;&gt;Node2</title>
<path fill="none" stroke="midnightblue" d="M132.55,-56.32C123.97,-48.34 111.05,-36.31 100.68,-26.65"/>
<polygon fill="midnightblue" stroke="midnightblue" points="103.06,-24.09 93.35,-19.83 98.29,-29.21 103.06,-24.09"/>
</g>
<!-- Node7&#45;&gt;Node2 -->
<g id="edge10" class="edge">
<title>Node7&#45;&gt;Node2</title>
<path fill="none" stroke="midnightblue" d="M197.48,-56.44C175.16,-47.52 139.96,-33.44 114.66,-23.32"/>
<polygon fill="midnightblue" stroke="midnightblue" points="115.74,-19.98 105.16,-19.52 113.14,-26.48 115.74,-19.98"/>
</g>
</g>
</svg>
