<?xml version="1.0" encoding="UTF-8" standalone="no"?>
<!DOCTYPE svg PUBLIC "-//W3C//DTD SVG 1.1//EN"
 "http://www.w3.org/Graphics/SVG/1.1/DTD/svg11.dtd">
<!-- Generated by graphviz version 3.0.0 (20220226.1711)
 -->
<!-- Title: c_numeric.c Pages: 1 -->
<svg width="368pt" height="140pt"
 viewBox="0.00 0.00 368.38 140.00" xmlns="http://www.w3.org/2000/svg" xmlns:xlink="http://www.w3.org/1999/xlink">
<g id="graph0" class="graph" transform="scale(1 1) rotate(0) translate(4 136)">
<title>c_numeric.c</title>
<polygon fill="white" stroke="transparent" points="-4,4 -4,-136 364.38,-136 364.38,4 -4,4"/>
<!-- Node1 -->
<g id="node1" class="node">
<title>Node1</title>
<g id="a_node1"><a xlink:title="mruby/c Integer and Float class">
<polygon fill="#bfbfbf" stroke="black" points="73.88,-112.5 73.88,-131.5 143.88,-131.5 143.88,-112.5 73.88,-112.5"/>
<text text-anchor="middle" x="108.88" y="-119.5" font-family="Helvetica,sans-Serif" font-size="10.00">c_numeric.c</text>
</a>
</g>
</g>
<!-- Node2 -->
<g id="node2" class="node">
<title>Node2</title>
<g id="a_node2"><a xlink:href="value_8h.html" target="_top" xlink:title="mruby/c value definitions">
<polygon fill="white" stroke="black" points="48.88,-0.5 48.88,-19.5 96.88,-19.5 96.88,-0.5 48.88,-0.5"/>
<text text-anchor="middle" x="72.88" y="-7.5" font-family="Helvetica,sans-Serif" font-size="10.00">value.h</text>
</a>
</g>
</g>
<!-- Node1&#45;&gt;Node2 -->
<g id="edge1" class="edge">
<title>Node1&#45;&gt;Node2</title>
<path fill="none" stroke="midnightblue" d="M73.67,-116.05C49.57,-110.63 19.28,-99.35 3.88,-76 -9.95,-55.02 17.28,-35.94 41.5,-23.96"/>
<polygon fill="midnightblue" stroke="midnightblue" points="43.3,-26.98 50.88,-19.57 40.34,-20.63 43.3,-26.98"/>
</g>
<!-- Node3 -->
<g id="node3" class="node">
<title>Node3</title>
<g id="a_node3"><a xlink:href="class_8h.html" target="_top" xlink:title="Class related functions.">
<polygon fill="white" stroke="red" points="12.88,-56.5 12.88,-75.5 60.88,-75.5 60.88,-56.5 12.88,-56.5"/>
<text text-anchor="middle" x="36.88" y="-63.5" font-family="Helvetica,sans-Serif" font-size="10.00">class.h</text>
</a>
</g>
</g>
<!-- Node1&#45;&gt;Node3 -->
<g id="edge2" class="edge">
<title>Node1&#45;&gt;Node3</title>
<path fill="none" stroke="midnightblue" d="M97.31,-112.32C86.46,-104.18 70,-91.84 57,-82.09"/>
<polygon fill="midnightblue" stroke="midnightblue" points="58.76,-79.03 48.66,-75.83 54.56,-84.63 58.76,-79.03"/>
</g>
<!-- Node6 -->
<g id="node4" class="node">
<title>Node6</title>
<g id="a_node4"><a xlink:href="c__string_8h.html" target="_top" xlink:title="mruby/c String class">
<polygon fill="white" stroke="black" points="79.38,-56.5 79.38,-75.5 138.38,-75.5 138.38,-56.5 79.38,-56.5"/>
<text text-anchor="middle" x="108.88" y="-63.5" font-family="Helvetica,sans-Serif" font-size="10.00">c_string.h</text>
</a>
</g>
</g>
<!-- Node1&#45;&gt;Node6 -->
<g id="edge4" class="edge">
<title>Node1&#45;&gt;Node6</title>
<path fill="none" stroke="midnightblue" d="M108.88,-112.08C108.88,-105.01 108.88,-94.86 108.88,-85.99"/>
<polygon fill="midnightblue" stroke="midnightblue" points="112.38,-85.75 108.88,-75.75 105.38,-85.75 112.38,-85.75"/>
</g>
<!-- Node7 -->
<g id="node5" class="node">
<title>Node7</title>
<g id="a_node5"><a xlink:href="console_8h.html" target="_top" xlink:title="console output module. (not yet input)">
<polygon fill="white" stroke="black" points="156.38,-56.5 156.38,-75.5 215.38,-75.5 215.38,-56.5 156.38,-56.5"/>
<text text-anchor="middle" x="185.88" y="-63.5" font-family="Helvetica,sans-Serif" font-size="10.00">console.h</text>
</a>
</g>
</g>
<!-- Node1&#45;&gt;Node7 -->
<g id="edge6" class="edge">
<title>Node1&#45;&gt;Node7</title>
<path fill="none" stroke="midnightblue" d="M121.25,-112.32C133.04,-104.06 151.01,-91.45 165.02,-81.63"/>
<polygon fill="midnightblue" stroke="midnightblue" points="167.36,-84.26 173.54,-75.65 163.34,-78.53 167.36,-84.26"/>
</g>
<!-- Node8 -->
<g id="node6" class="node">
<title>Node8</title>
<g id="a_node6"><a xlink:title=" ">
<polygon fill="white" stroke="#bfbfbf" points="233.38,-56.5 233.38,-75.5 360.38,-75.5 360.38,-56.5 233.38,-56.5"/>
<text text-anchor="middle" x="296.88" y="-63.5" font-family="Helvetica,sans-Serif" font-size="10.00">_autogen_class_integer.h</text>
</a>
</g>
</g>
<!-- Node1&#45;&gt;Node8 -->
<g id="edge8" class="edge">
<title>Node1&#45;&gt;Node8</title>
<path fill="none" stroke="midnightblue" d="M138.67,-112.44C170.71,-103.24 221.82,-88.56 257.24,-78.39"/>
<polygon fill="midnightblue" stroke="midnightblue" points="258.59,-81.64 267.23,-75.52 256.65,-74.91 258.59,-81.64"/>
</g>
<!-- Node3&#45;&gt;Node2 -->
<g id="edge3" class="edge">
<title>Node3&#45;&gt;Node2</title>
<path fill="none" stroke="midnightblue" d="M42.83,-56.08C47.86,-48.53 55.22,-37.49 61.4,-28.23"/>
<polygon fill="midnightblue" stroke="midnightblue" points="64.41,-30.01 67.05,-19.75 58.59,-26.13 64.41,-30.01"/>
</g>
<!-- Node6&#45;&gt;Node2 -->
<g id="edge5" class="edge">
<title>Node6&#45;&gt;Node2</title>
<path fill="none" stroke="midnightblue" d="M102.94,-56.08C97.9,-48.53 90.55,-37.49 84.37,-28.23"/>
<polygon fill="midnightblue" stroke="midnightblue" points="87.18,-26.13 78.72,-19.75 81.35,-30.01 87.18,-26.13"/>
</g>
<!-- Node7&#45;&gt;Node2 -->
<g id="edge7" class="edge">
<title>Node7&#45;&gt;Node2</title>
<path fill="none" stroke="midnightblue" d="M167.98,-56.44C149.63,-47.68 120.88,-33.94 99.79,-23.86"/>
<polygon fill="midnightblue" stroke="midnightblue" points="101.24,-20.67 90.7,-19.52 98.22,-26.99 101.24,-20.67"/>
</g>
</g>
</svg>
