<?xml version="1.0" encoding="UTF-8" standalone="no"?>
<!DOCTYPE svg PUBLIC "-//W3C//DTD SVG 1.1//EN"
 "http://www.w3.org/Graphics/SVG/1.1/DTD/svg11.dtd">
<!-- Generated by graphviz version 3.0.0 (20220226.1711)
 -->
<!-- Title: c_object.c Pages: 1 -->
<!--zoomable 252 -->
<svg id="main" version="1.1" xmlns="http://www.w3.org/2000/svg" xmlns:xlink="http://www.w3.org/1999/xlink" xml:space="preserve" onload="init(evt)">
<style type="text/css"><![CDATA[
.edge:hover path { stroke: red; }
.edge:hover polygon { stroke: red; fill: red; }
]]></style>
<script type="text/javascript"><![CDATA[
var edges = document.getElementsByTagName('g');
if (edges && edges.length) {
  for (var i=0;i<edges.length;i++) {
    if (edges[i].id.substr(0,4)=='edge') {
      edges[i].setAttribute('class','edge');
    }
  }
}
]]></script>
        <defs>
                <circle id="rim" cx="0" cy="0" r="7"/>
                <circle id="rim2" cx="0" cy="0" r="3.5"/>
                <g id="zoomPlus">
                        <use xlink:href="#rim" fill="#404040">
                                <set attributeName="fill" to="#808080" begin="zoomplus.mouseover" end="zoomplus.mouseout"/>
                        </use>
                        <path d="M-4,0h8M0,-4v8" fill="none" stroke="white" stroke-width="1.5" pointer-events="none"/>
                </g>
                <g id="zoomMin">
                        <use xlink:href="#rim" fill="#404040">
                                <set attributeName="fill" to="#808080" begin="zoomminus.mouseover" end="zoomminus.mouseout"/>
                        </use>
                        <path d="M-4,0h8" fill="none" stroke="white" stroke-width="1.5" pointer-events="none"/>
                </g>
                <g id="dirArrow">
                        <path fill="none" stroke="white" stroke-width="1.5" d="M0,-3.0v7 M-2.5,-0.5L0,-3.0L2.5,-0.5"/>
                </g>
               <g id="resetDef">
                       <use xlink:href="#rim2" fill="#404040">
                               <set attributeName="fill" to="#808080" begin="reset.mouseover" end="reset.mouseout"/>
                       </use>
               </g>
        </defs>

<script type="text/javascript">
var viewWidth = 660;
var viewHeight = 252;
var sectionId = 'dynsection-0';
</script>
<script xlink:href="svgpan.js"/>
<svg id="graph" class="graph">
<g id="viewport">
<title>c_object.c</title>
<polygon fill="white" stroke="transparent" points="-4,4 -4,-248 655.5,-248 655.5,4 -4,4"/>
<!-- Node1 -->
<g id="node1" class="node">
<title>Node1</title>
<g id="a_node1"><a xlink:title="Object, Proc, Nil, True and False class.">
<polygon fill="#bfbfbf" stroke="black" points="247,-224.5 247,-243.5 309,-243.5 309,-224.5 247,-224.5"/>
<text text-anchor="middle" x="278" y="-231.5" font-family="Helvetica,sans-Serif" font-size="10.00">c_object.c</text>
</a>
</g>
</g>
<!-- Node2 -->
<g id="node2" class="node">
<title>Node2</title>
<g id="a_node2"><a xlink:href="alloc_8h.html" target="_top" xlink:title="mruby/c memory management.">
<polygon fill="white" stroke="black" points="128.5,-56.5 128.5,-75.5 173.5,-75.5 173.5,-56.5 128.5,-56.5"/>
<text text-anchor="middle" x="151" y="-63.5" font-family="Helvetica,sans-Serif" font-size="10.00">alloc.h</text>
</a>
</g>
</g>
<!-- Node1&#45;&gt;Node2 -->
<g id="edge1" class="edge">
<title>Node1&#45;&gt;Node2</title>
<path fill="none" stroke="midnightblue" d="M246.87,-225.53C224.59,-218.84 195.09,-207.08 175,-188 148.9,-163.21 145.4,-147.96 147,-112 147.38,-103.37 148.18,-93.84 148.96,-85.78"/>
<polygon fill="midnightblue" stroke="midnightblue" points="152.46,-85.92 150.01,-75.61 145.5,-85.2 152.46,-85.92"/>
</g>
<!-- Node3 -->
<g id="node3" class="node">
<title>Node3</title>
<g id="a_node3"><a xlink:href="value_8h.html" target="_top" xlink:title="mruby/c value definitions">
<polygon fill="white" stroke="black" points="266,-0.5 266,-19.5 314,-19.5 314,-0.5 266,-0.5"/>
<text text-anchor="middle" x="290" y="-7.5" font-family="Helvetica,sans-Serif" font-size="10.00">value.h</text>
</a>
</g>
</g>
<!-- Node1&#45;&gt;Node3 -->
<g id="edge2" class="edge">
<title>Node1&#45;&gt;Node3</title>
<path fill="none" stroke="midnightblue" d="M309.31,-229.12C357.97,-221.11 449.23,-197.61 479,-132 510.11,-63.44 386.56,-29.44 324.12,-16.89"/>
<polygon fill="midnightblue" stroke="midnightblue" points="324.77,-13.45 314.29,-14.99 323.45,-20.32 324.77,-13.45"/>
</g>
<!-- Node4 -->
<g id="node4" class="node">
<title>Node4</title>
<g id="a_node4"><a xlink:href="symbol_8h.html" target="_top" xlink:title="mruby/c Symbol class">
<polygon fill="white" stroke="red" points="0,-112.5 0,-131.5 56,-131.5 56,-112.5 0,-112.5"/>
<text text-anchor="middle" x="28" y="-119.5" font-family="Helvetica,sans-Serif" font-size="10.00">symbol.h</text>
</a>
</g>
</g>
<!-- Node1&#45;&gt;Node4 -->
<g id="edge3" class="edge">
<title>Node1&#45;&gt;Node4</title>
<path fill="none" stroke="midnightblue" d="M246.74,-233.3C203.55,-232.25 124.87,-224.87 71,-188 54.13,-176.45 42.19,-155.89 35.24,-140.97"/>
<polygon fill="midnightblue" stroke="midnightblue" points="38.42,-139.51 31.23,-131.73 32,-142.3 38.42,-139.51"/>
</g>
<!-- Node6 -->
<g id="node5" class="node">
<title>Node6</title>
<g id="a_node5"><a xlink:href="error_8h.html" target="_top" xlink:title="exception classes">
<polygon fill="white" stroke="black" points="268,-56.5 268,-75.5 312,-75.5 312,-56.5 268,-56.5"/>
<text text-anchor="middle" x="290" y="-63.5" font-family="Helvetica,sans-Serif" font-size="10.00">error.h</text>
</a>
</g>
</g>
<!-- Node1&#45;&gt;Node6 -->
<g id="edge5" class="edge">
<title>Node1&#45;&gt;Node6</title>
<path fill="none" stroke="midnightblue" d="M278.65,-224.08C280.53,-197.95 286.08,-121.21 288.66,-85.58"/>
<polygon fill="midnightblue" stroke="midnightblue" points="292.15,-85.79 289.38,-75.57 285.17,-85.29 292.15,-85.79"/>
</g>
<!-- Node7 -->
<g id="node6" class="node">
<title>Node7</title>
<g id="a_node6"><a xlink:href="class_8h.html" target="_top" xlink:title="Class related functions.">
<polygon fill="white" stroke="red" points="306,-112.5 306,-131.5 354,-131.5 354,-112.5 306,-112.5"/>
<text text-anchor="middle" x="330" y="-119.5" font-family="Helvetica,sans-Serif" font-size="10.00">class.h</text>
</a>
</g>
</g>
<!-- Node1&#45;&gt;Node7 -->
<g id="edge7" class="edge">
<title>Node1&#45;&gt;Node7</title>
<path fill="none" stroke="midnightblue" d="M282.08,-224.37C290.55,-206.46 310.18,-164.92 321.52,-140.95"/>
<polygon fill="midnightblue" stroke="midnightblue" points="324.83,-142.13 325.94,-131.59 318.5,-139.14 324.83,-142.13"/>
</g>
<!-- Node9 -->
<g id="node7" class="node">
<title>Node9</title>
<g id="a_node7"><a xlink:href="c__string_8h.html" target="_top" xlink:title="mruby/c String class">
<polygon fill="white" stroke="black" points="51.5,-56.5 51.5,-75.5 110.5,-75.5 110.5,-56.5 51.5,-56.5"/>
<text text-anchor="middle" x="81" y="-63.5" font-family="Helvetica,sans-Serif" font-size="10.00">c_string.h</text>
</a>
</g>
</g>
<!-- Node1&#45;&gt;Node9 -->
<g id="edge10" class="edge">
<title>Node1&#45;&gt;Node9</title>
<path fill="none" stroke="midnightblue" d="M246.81,-227.76C219.82,-221.9 180.98,-210.18 154,-188 119.85,-159.93 97.61,-111.43 87.43,-85.17"/>
<polygon fill="midnightblue" stroke="midnightblue" points="90.67,-83.85 83.91,-75.69 84.11,-86.28 90.67,-83.85"/>
</g>
<!-- Node10 -->
<g id="node8" class="node">
<title>Node10</title>
<g id="a_node8"><a xlink:href="c__array_8h.html" target="_top" xlink:title="mruby/c Array class">
<polygon fill="white" stroke="black" points="156,-112.5 156,-131.5 212,-131.5 212,-112.5 156,-112.5"/>
<text text-anchor="middle" x="184" y="-119.5" font-family="Helvetica,sans-Serif" font-size="10.00">c_array.h</text>
</a>
</g>
</g>
<!-- Node1&#45;&gt;Node10 -->
<g id="edge12" class="edge">
<title>Node1&#45;&gt;Node10</title>
<path fill="none" stroke="midnightblue" d="M246.79,-226.82C225.43,-220.81 198.6,-209.32 185,-188 176.28,-174.34 177.03,-155.55 179.37,-141.68"/>
<polygon fill="midnightblue" stroke="midnightblue" points="182.81,-142.32 181.43,-131.81 175.96,-140.88 182.81,-142.32"/>
</g>
<!-- Node11 -->
<g id="node9" class="node">
<title>Node11</title>
<g id="a_node9"><a xlink:href="c__hash_8h.html" target="_top" xlink:title="mruby/c Hash class">
<polygon fill="white" stroke="black" points="194,-168.5 194,-187.5 250,-187.5 250,-168.5 194,-168.5"/>
<text text-anchor="middle" x="222" y="-175.5" font-family="Helvetica,sans-Serif" font-size="10.00">c_hash.h</text>
</a>
</g>
</g>
<!-- Node1&#45;&gt;Node11 -->
<g id="edge15" class="edge">
<title>Node1&#45;&gt;Node11</title>
<path fill="none" stroke="midnightblue" d="M269,-224.32C260.81,-216.42 248.49,-204.55 238.53,-194.94"/>
<polygon fill="midnightblue" stroke="midnightblue" points="240.79,-192.26 231.16,-187.83 235.93,-197.29 240.79,-192.26"/>
</g>
<!-- Node12 -->
<g id="node10" class="node">
<title>Node12</title>
<g id="a_node10"><a xlink:href="vm_8h.html" target="_top" xlink:title="mruby bytecode executor.">
<polygon fill="white" stroke="black" points="344,-168.5 344,-187.5 382,-187.5 382,-168.5 344,-168.5"/>
<text text-anchor="middle" x="363" y="-175.5" font-family="Helvetica,sans-Serif" font-size="10.00">vm.h</text>
</a>
</g>
</g>
<!-- Node1&#45;&gt;Node12 -->
<g id="edge18" class="edge">
<title>Node1&#45;&gt;Node12</title>
<path fill="none" stroke="midnightblue" d="M291.66,-224.32C304.92,-215.9 325.27,-202.97 340.85,-193.07"/>
<polygon fill="midnightblue" stroke="midnightblue" points="342.81,-195.97 349.38,-187.65 339.06,-190.06 342.81,-195.97"/>
</g>
<!-- Node13 -->
<g id="node11" class="node">
<title>Node13</title>
<g id="a_node11"><a xlink:href="console_8h.html" target="_top" xlink:title="console output module. (not yet input)">
<polygon fill="white" stroke="black" points="410.5,-112.5 410.5,-131.5 469.5,-131.5 469.5,-112.5 410.5,-112.5"/>
<text text-anchor="middle" x="440" y="-119.5" font-family="Helvetica,sans-Serif" font-size="10.00">console.h</text>
</a>
</g>
</g>
<!-- Node1&#45;&gt;Node13 -->
<g id="edge21" class="edge">
<title>Node1&#45;&gt;Node13</title>
<path fill="none" stroke="midnightblue" d="M309.09,-225.58C333.18,-218.71 366.49,-206.7 391,-188 407.79,-175.18 421.68,-155.17 430.33,-140.73"/>
<polygon fill="midnightblue" stroke="midnightblue" points="433.52,-142.21 435.46,-131.79 427.45,-138.73 433.52,-142.21"/>
</g>
<!-- Node14 -->
<g id="node12" class="node">
<title>Node14</title>
<g id="a_node12"><a xlink:title=" ">
<polygon fill="white" stroke="#bfbfbf" points="526.5,-168.5 526.5,-187.5 651.5,-187.5 651.5,-168.5 526.5,-168.5"/>
<text text-anchor="middle" x="589" y="-175.5" font-family="Helvetica,sans-Serif" font-size="10.00">_autogen_class_object.h</text>
</a>
</g>
</g>
<!-- Node1&#45;&gt;Node14 -->
<g id="edge23" class="edge">
<title>Node1&#45;&gt;Node14</title>
<path fill="none" stroke="midnightblue" d="M309.24,-227.58C360.71,-218.64 464.14,-200.68 529.8,-189.28"/>
<polygon fill="midnightblue" stroke="midnightblue" points="530.75,-192.67 540,-187.51 529.55,-185.77 530.75,-192.67"/>
</g>
<!-- Node4&#45;&gt;Node3 -->
<g id="edge4" class="edge">
<title>Node4&#45;&gt;Node3</title>
<path fill="none" stroke="midnightblue" d="M27.11,-112.43C26.17,-98.48 26.57,-70.93 42,-56 71.96,-27 194.73,-16.24 255.54,-12.63"/>
<polygon fill="midnightblue" stroke="midnightblue" points="256,-16.11 265.79,-12.06 255.61,-9.12 256,-16.11"/>
</g>
<!-- Node6&#45;&gt;Node3 -->
<g id="edge6" class="edge">
<title>Node6&#45;&gt;Node3</title>
<path fill="none" stroke="midnightblue" d="M290,-56.08C290,-49.01 290,-38.86 290,-29.99"/>
<polygon fill="midnightblue" stroke="midnightblue" points="293.5,-29.75 290,-19.75 286.5,-29.75 293.5,-29.75"/>
</g>
<!-- Node7&#45;&gt;Node3 -->
<g id="edge8" class="edge">
<title>Node7&#45;&gt;Node3</title>
<path fill="none" stroke="midnightblue" d="M330.05,-112.27C329.86,-99.48 328.42,-75.12 321,-56 317.02,-45.74 310.27,-35.53 304.09,-27.44"/>
<polygon fill="midnightblue" stroke="midnightblue" points="306.77,-25.18 297.77,-19.59 301.32,-29.57 306.77,-25.18"/>
</g>
<!-- Node7&#45;&gt;Node6 -->
<g id="edge9" class="edge">
<title>Node7&#45;&gt;Node6</title>
<path fill="none" stroke="midnightblue" d="M323.39,-112.08C317.74,-104.46 309.46,-93.26 302.55,-83.94"/>
<polygon fill="midnightblue" stroke="midnightblue" points="305.25,-81.7 296.48,-75.75 299.62,-85.87 305.25,-81.7"/>
</g>
<!-- Node9&#45;&gt;Node3 -->
<g id="edge11" class="edge">
<title>Node9&#45;&gt;Node3</title>
<path fill="none" stroke="midnightblue" d="M110.5,-57.38C148.8,-47.48 215.51,-30.25 255.92,-19.8"/>
<polygon fill="midnightblue" stroke="midnightblue" points="257.04,-23.13 265.84,-17.24 255.29,-16.35 257.04,-23.13"/>
</g>
<!-- Node10&#45;&gt;Node2 -->
<g id="edge13" class="edge">
<title>Node10&#45;&gt;Node2</title>
<path fill="none" stroke="midnightblue" d="M178.55,-112.08C173.99,-104.61 167.33,-93.72 161.71,-84.52"/>
<polygon fill="midnightblue" stroke="midnightblue" points="164.55,-82.46 156.35,-75.75 158.58,-86.11 164.55,-82.46"/>
</g>
<!-- Node10&#45;&gt;Node3 -->
<g id="edge14" class="edge">
<title>Node10&#45;&gt;Node3</title>
<path fill="none" stroke="midnightblue" d="M188.25,-112.26C194.97,-99.04 209.05,-73.63 226,-56 237.67,-43.87 253.04,-32.94 265.79,-24.89"/>
<polygon fill="midnightblue" stroke="midnightblue" points="267.81,-27.75 274.52,-19.56 264.16,-21.78 267.81,-27.75"/>
</g>
<!-- Node11&#45;&gt;Node3 -->
<g id="edge16" class="edge">
<title>Node11&#45;&gt;Node3</title>
<path fill="none" stroke="midnightblue" d="M223.67,-168.45C227.82,-148.19 239.7,-95.96 259,-56 263.79,-46.09 270.6,-35.92 276.63,-27.76"/>
<polygon fill="midnightblue" stroke="midnightblue" points="279.42,-29.87 282.72,-19.8 273.86,-25.61 279.42,-29.87"/>
</g>
<!-- Node11&#45;&gt;Node10 -->
<g id="edge17" class="edge">
<title>Node11&#45;&gt;Node10</title>
<path fill="none" stroke="midnightblue" d="M215.73,-168.08C210.36,-160.46 202.48,-149.26 195.92,-139.94"/>
<polygon fill="midnightblue" stroke="midnightblue" points="198.78,-137.91 190.16,-131.75 193.05,-141.94 198.78,-137.91"/>
</g>
<!-- Node12&#45;&gt;Node3 -->
<g id="edge19" class="edge">
<title>Node12&#45;&gt;Node3</title>
<path fill="none" stroke="midnightblue" d="M364.12,-168.47C365.51,-155.93 367.23,-131.87 363,-112 357.32,-85.34 353.81,-78.2 338,-56 330.01,-44.77 318.88,-34.13 309.36,-26.02"/>
<polygon fill="midnightblue" stroke="midnightblue" points="311.47,-23.22 301.52,-19.59 307.03,-28.64 311.47,-23.22"/>
</g>
<!-- Node12&#45;&gt;Node7 -->
<g id="edge20" class="edge">
<title>Node12&#45;&gt;Node7</title>
<path fill="none" stroke="midnightblue" d="M357.55,-168.08C352.99,-160.61 346.33,-149.72 340.71,-140.52"/>
<polygon fill="midnightblue" stroke="midnightblue" points="343.55,-138.46 335.35,-131.75 337.58,-142.11 343.55,-138.46"/>
</g>
<!-- Node13&#45;&gt;Node3 -->
<g id="edge22" class="edge">
<title>Node13&#45;&gt;Node3</title>
<path fill="none" stroke="midnightblue" d="M436.11,-112.25C429.62,-98.54 415.36,-71.93 396,-56 374.98,-38.7 346.34,-27.08 324.13,-19.98"/>
<polygon fill="midnightblue" stroke="midnightblue" points="325.01,-16.59 314.42,-17.04 322.98,-23.29 325.01,-16.59"/>
</g>
</g>
</svg>
        <g id="navigator" transform="translate(0 0)" fill="#404254">
                <rect fill="#f2f5e9" fill-opacity="0.5" stroke="#606060" stroke-width=".5" x="0" y="0" width="60" height="60"/>
                <use id="zoomplus" xlink:href="#zoomPlus" x="17" y="9" onmousedown="handleZoom(evt,'in')"/>
                <use id="zoomminus" xlink:href="#zoomMin" x="42" y="9" onmousedown="handleZoom(evt,'out')"/>
                <use id="reset" xlink:href="#resetDef" x="30" y="36" onmousedown="handleReset()"/>
                <g id="arrowUp" xlink:href="#dirArrow" transform="translate(30 24)" onmousedown="handlePan(0,-1)">
                  <use xlink:href="#rim" fill="#404040">
                        <set attributeName="fill" to="#808080" begin="arrowUp.mouseover" end="arrowUp.mouseout"/>
                  </use>
                  <path fill="none" stroke="white" stroke-width="1.5" d="M0,-3.0v7 M-2.5,-0.5L0,-3.0L2.5,-0.5"/>
                </g>
                <g id="arrowRight" xlink:href="#dirArrow" transform="rotate(90) translate(36 -43)" onmousedown="handlePan(1,0)">
                  <use xlink:href="#rim" fill="#404040">
                        <set attributeName="fill" to="#808080" begin="arrowRight.mouseover" end="arrowRight.mouseout"/>
                  </use>
                  <path fill="none" stroke="white" stroke-width="1.5" d="M0,-3.0v7 M-2.5,-0.5L0,-3.0L2.5,-0.5"/>
                </g>
                <g id="arrowDown" xlink:href="#dirArrow" transform="rotate(180) translate(-30 -48)" onmousedown="handlePan(0,1)">
                  <use xlink:href="#rim" fill="#404040">
                        <set attributeName="fill" to="#808080" begin="arrowDown.mouseover" end="arrowDown.mouseout"/>
                  </use>
                  <path fill="none" stroke="white" stroke-width="1.5" d="M0,-3.0v7 M-2.5,-0.5L0,-3.0L2.5,-0.5"/>
                </g>
                <g id="arrowLeft" xlink:href="#dirArrow" transform="rotate(270) translate(-36 17)" onmousedown="handlePan(-1,0)">
                  <use xlink:href="#rim" fill="#404040">
                        <set attributeName="fill" to="#808080" begin="arrowLeft.mouseover" end="arrowLeft.mouseout"/>
                  </use>
                  <path fill="none" stroke="white" stroke-width="1.5" d="M0,-3.0v7 M-2.5,-0.5L0,-3.0L2.5,-0.5"/>
                </g>
        </g>
        <svg viewBox="0 0 15 15" width="100%" height="30px" preserveAspectRatio="xMaxYMin meet">
         <g id="arrow_out" transform="scale(0.3 0.3)">
          <a xlink:href="c__object_8c__incl_org.svg" target="_base">
           <rect id="button" ry="5" rx="5" y="6" x="6" height="38" width="38"
                fill="#f2f5e9" fill-opacity="0.5" stroke="#606060" stroke-width="1.0"/>
           <path id="arrow"
             d="M 11.500037,31.436501 C 11.940474,20.09759 22.043105,11.32322 32.158766,21.979434 L 37.068811,17.246167 C 37.068811,17.246167 37.088388,32 37.088388,32 L 22.160133,31.978069 C 22.160133,31.978069 26.997745,27.140456 26.997745,27.140456 C 18.528582,18.264221 13.291696,25.230495 11.500037,31.436501 z"
             style="fill:#404040;"/>
          </a>
         </g>
        </svg>
</svg>
