<?xml version="1.0" encoding="UTF-8" standalone="no"?>
<!DOCTYPE svg PUBLIC "-//W3C//DTD SVG 1.1//EN"
 "http://www.w3.org/Graphics/SVG/1.1/DTD/svg11.dtd">
<!-- Generated by graphviz version 3.0.0 (20220226.1711)
 -->
<!-- Title: c_range.h Pages: 1 -->
<svg width="342pt" height="84pt"
 viewBox="0.00 0.00 341.50 84.00" xmlns="http://www.w3.org/2000/svg" xmlns:xlink="http://www.w3.org/1999/xlink">
<g id="graph0" class="graph" transform="scale(1 1) rotate(0) translate(4 80)">
<title>c_range.h</title>
<polygon fill="white" stroke="transparent" points="-4,4 -4,-80 337.5,-80 337.5,4 -4,4"/>
<!-- Node1 -->
<g id="node1" class="node">
<title>Node1</title>
<g id="a_node1"><a xlink:title="mruby/c Range class">
<polygon fill="#bfbfbf" stroke="black" points="153,-56.5 153,-75.5 212,-75.5 212,-56.5 153,-56.5"/>
<text text-anchor="middle" x="182.5" y="-63.5" font-family="Helvetica,sans-Serif" font-size="10.00">c_range.h</text>
</a>
</g>
</g>
<!-- Node2 -->
<g id="node2" class="node">
<title>Node2</title>
<g id="a_node2"><a xlink:href="c__range_8c.html" target="_top" xlink:title="mruby/c Range class">
<polygon fill="white" stroke="black" points="0,-0.5 0,-19.5 59,-19.5 59,-0.5 0,-0.5"/>
<text text-anchor="middle" x="29.5" y="-7.5" font-family="Helvetica,sans-Serif" font-size="10.00">c_range.c</text>
</a>
</g>
</g>
<!-- Node1&#45;&gt;Node2 -->
<g id="edge1" class="edge">
<title>Node1&#45;&gt;Node2</title>
<path fill="none" stroke="midnightblue" d="M148.61,-53.04C119.82,-42.88 79.21,-28.55 53.63,-19.52"/>
<polygon fill="midnightblue" stroke="midnightblue" points="147.66,-56.42 158.26,-56.44 149.99,-49.81 147.66,-56.42"/>
</g>
<!-- Node3 -->
<g id="node3" class="node">
<title>Node3</title>
<g id="a_node3"><a xlink:href="console_8c.html" target="_top" xlink:title="console output module. (not yet input)">
<polygon fill="white" stroke="black" points="77,-0.5 77,-19.5 136,-19.5 136,-0.5 77,-0.5"/>
<text text-anchor="middle" x="106.5" y="-7.5" font-family="Helvetica,sans-Serif" font-size="10.00">console.c</text>
</a>
</g>
</g>
<!-- Node1&#45;&gt;Node3 -->
<g id="edge2" class="edge">
<title>Node1&#45;&gt;Node3</title>
<path fill="none" stroke="midnightblue" d="M161.92,-50.38C148.19,-40.62 130.57,-28.11 118.93,-19.83"/>
<polygon fill="midnightblue" stroke="midnightblue" points="160.11,-53.38 170.29,-56.32 164.16,-47.68 160.11,-53.38"/>
</g>
<!-- Node4 -->
<g id="node4" class="node">
<title>Node4</title>
<g id="a_node4"><a xlink:href="mrubyc_8h.html" target="_top" xlink:title="Include at once the necessary header files for user program.">
<polygon fill="white" stroke="black" points="154,-0.5 154,-19.5 211,-19.5 211,-0.5 154,-0.5"/>
<text text-anchor="middle" x="182.5" y="-7.5" font-family="Helvetica,sans-Serif" font-size="10.00">mrubyc.h</text>
</a>
</g>
</g>
<!-- Node1&#45;&gt;Node4 -->
<g id="edge3" class="edge">
<title>Node1&#45;&gt;Node4</title>
<path fill="none" stroke="midnightblue" d="M182.5,-45.8C182.5,-36.91 182.5,-26.78 182.5,-19.75"/>
<polygon fill="midnightblue" stroke="midnightblue" points="179,-46.08 182.5,-56.08 186,-46.08 179,-46.08"/>
</g>
<!-- Node5 -->
<g id="node5" class="node">
<title>Node5</title>
<g id="a_node5"><a xlink:href="value_8c.html" target="_top" xlink:title="mruby/c value definitions">
<polygon fill="white" stroke="black" points="229.5,-0.5 229.5,-19.5 277.5,-19.5 277.5,-0.5 229.5,-0.5"/>
<text text-anchor="middle" x="253.5" y="-7.5" font-family="Helvetica,sans-Serif" font-size="10.00">value.c</text>
</a>
</g>
</g>
<!-- Node1&#45;&gt;Node5 -->
<g id="edge4" class="edge">
<title>Node1&#45;&gt;Node5</title>
<path fill="none" stroke="midnightblue" d="M202.09,-50.1C214.87,-40.38 231.11,-28.03 241.89,-19.83"/>
<polygon fill="midnightblue" stroke="midnightblue" points="199.75,-47.48 193.91,-56.32 203.99,-53.06 199.75,-47.48"/>
</g>
<!-- Node6 -->
<g id="node6" class="node">
<title>Node6</title>
<g id="a_node6"><a xlink:href="vm_8c.html" target="_top" xlink:title="mruby bytecode executor.">
<polygon fill="white" stroke="black" points="295.5,-0.5 295.5,-19.5 333.5,-19.5 333.5,-0.5 295.5,-0.5"/>
<text text-anchor="middle" x="314.5" y="-7.5" font-family="Helvetica,sans-Serif" font-size="10.00">vm.c</text>
</a>
</g>
</g>
<!-- Node1&#45;&gt;Node6 -->
<g id="edge5" class="edge">
<title>Node1&#45;&gt;Node6</title>
<path fill="none" stroke="midnightblue" d="M212.95,-52.54C238.37,-42.15 273.81,-27.65 295.4,-18.82"/>
<polygon fill="midnightblue" stroke="midnightblue" points="211.35,-49.42 203.42,-56.44 214,-55.9 211.35,-49.42"/>
</g>
</g>
</svg>
