<?xml version="1.0" encoding="UTF-8" standalone="no"?>
<!DOCTYPE svg PUBLIC "-//W3C//DTD SVG 1.1//EN"
 "http://www.w3.org/Graphics/SVG/1.1/DTD/svg11.dtd">
<!-- Generated by graphviz version 3.0.0 (20220226.1711)
 -->
<!-- Title: c_range.c Pages: 1 -->
<svg width="530pt" height="140pt"
 viewBox="0.00 0.00 529.50 140.00" xmlns="http://www.w3.org/2000/svg" xmlns:xlink="http://www.w3.org/1999/xlink">
<g id="graph0" class="graph" transform="scale(1 1) rotate(0) translate(4 136)">
<title>c_range.c</title>
<polygon fill="white" stroke="transparent" points="-4,4 -4,-136 525.5,-136 525.5,4 -4,4"/>
<!-- Node1 -->
<g id="node1" class="node">
<title>Node1</title>
<g id="a_node1"><a xlink:title="mruby/c Range class">
<polygon fill="#bfbfbf" stroke="black" points="168,-112.5 168,-131.5 227,-131.5 227,-112.5 168,-112.5"/>
<text text-anchor="middle" x="197.5" y="-119.5" font-family="Helvetica,sans-Serif" font-size="10.00">c_range.c</text>
</a>
</g>
</g>
<!-- Node2 -->
<g id="node2" class="node">
<title>Node2</title>
<g id="a_node2"><a xlink:href="alloc_8h.html" target="_top" xlink:title="mruby/c memory management.">
<polygon fill="white" stroke="black" points="0,-56.5 0,-75.5 45,-75.5 45,-56.5 0,-56.5"/>
<text text-anchor="middle" x="22.5" y="-63.5" font-family="Helvetica,sans-Serif" font-size="10.00">alloc.h</text>
</a>
</g>
</g>
<!-- Node1&#45;&gt;Node2 -->
<g id="edge1" class="edge">
<title>Node1&#45;&gt;Node2</title>
<path fill="none" stroke="midnightblue" d="M169.77,-112.44C138.5,-102.79 87.73,-87.13 54.72,-76.94"/>
<polygon fill="midnightblue" stroke="midnightblue" points="55.68,-73.58 45.09,-73.97 53.61,-80.26 55.68,-73.58"/>
</g>
<!-- Node3 -->
<g id="node3" class="node">
<title>Node3</title>
<g id="a_node3"><a xlink:href="value_8h.html" target="_top" xlink:title="mruby/c value definitions">
<polygon fill="white" stroke="black" points="173.5,-0.5 173.5,-19.5 221.5,-19.5 221.5,-0.5 173.5,-0.5"/>
<text text-anchor="middle" x="197.5" y="-7.5" font-family="Helvetica,sans-Serif" font-size="10.00">value.h</text>
</a>
</g>
</g>
<!-- Node1&#45;&gt;Node3 -->
<g id="edge2" class="edge">
<title>Node1&#45;&gt;Node3</title>
<path fill="none" stroke="midnightblue" d="M167.81,-117.21C143,-112.31 109.09,-101.17 92.5,-76 72.43,-45.57 125.33,-26.89 163.13,-17.77"/>
<polygon fill="midnightblue" stroke="midnightblue" points="164.34,-21.09 173.32,-15.45 162.79,-14.26 164.34,-21.09"/>
</g>
<!-- Node4 -->
<g id="node4" class="node">
<title>Node4</title>
<g id="a_node4"><a xlink:href="class_8h.html" target="_top" xlink:title="Class related functions.">
<polygon fill="white" stroke="red" points="101.5,-56.5 101.5,-75.5 149.5,-75.5 149.5,-56.5 101.5,-56.5"/>
<text text-anchor="middle" x="125.5" y="-63.5" font-family="Helvetica,sans-Serif" font-size="10.00">class.h</text>
</a>
</g>
</g>
<!-- Node1&#45;&gt;Node4 -->
<g id="edge3" class="edge">
<title>Node1&#45;&gt;Node4</title>
<path fill="none" stroke="midnightblue" d="M185.93,-112.32C175.08,-104.18 158.62,-91.84 145.62,-82.09"/>
<polygon fill="midnightblue" stroke="midnightblue" points="147.38,-79.03 137.28,-75.83 143.18,-84.63 147.38,-79.03"/>
</g>
<!-- Node7 -->
<g id="node5" class="node">
<title>Node7</title>
<g id="a_node5"><a xlink:href="c__string_8h.html" target="_top" xlink:title="mruby/c String class">
<polygon fill="white" stroke="black" points="168,-56.5 168,-75.5 227,-75.5 227,-56.5 168,-56.5"/>
<text text-anchor="middle" x="197.5" y="-63.5" font-family="Helvetica,sans-Serif" font-size="10.00">c_string.h</text>
</a>
</g>
</g>
<!-- Node1&#45;&gt;Node7 -->
<g id="edge5" class="edge">
<title>Node1&#45;&gt;Node7</title>
<path fill="none" stroke="midnightblue" d="M197.5,-112.08C197.5,-105.01 197.5,-94.86 197.5,-85.99"/>
<polygon fill="midnightblue" stroke="midnightblue" points="201,-85.75 197.5,-75.75 194,-85.75 201,-85.75"/>
</g>
<!-- Node8 -->
<g id="node6" class="node">
<title>Node8</title>
<g id="a_node6"><a xlink:href="c__range_8h.html" target="_top" xlink:title="mruby/c Range class">
<polygon fill="white" stroke="black" points="245,-56.5 245,-75.5 304,-75.5 304,-56.5 245,-56.5"/>
<text text-anchor="middle" x="274.5" y="-63.5" font-family="Helvetica,sans-Serif" font-size="10.00">c_range.h</text>
</a>
</g>
</g>
<!-- Node1&#45;&gt;Node8 -->
<g id="edge7" class="edge">
<title>Node1&#45;&gt;Node8</title>
<path fill="none" stroke="midnightblue" d="M209.87,-112.32C221.66,-104.06 239.63,-91.45 253.64,-81.63"/>
<polygon fill="midnightblue" stroke="midnightblue" points="255.98,-84.26 262.16,-75.65 251.96,-78.53 255.98,-84.26"/>
</g>
<!-- Node9 -->
<g id="node7" class="node">
<title>Node9</title>
<g id="a_node7"><a xlink:href="console_8h.html" target="_top" xlink:title="console output module. (not yet input)">
<polygon fill="white" stroke="black" points="322,-56.5 322,-75.5 381,-75.5 381,-56.5 322,-56.5"/>
<text text-anchor="middle" x="351.5" y="-63.5" font-family="Helvetica,sans-Serif" font-size="10.00">console.h</text>
</a>
</g>
</g>
<!-- Node1&#45;&gt;Node9 -->
<g id="edge9" class="edge">
<title>Node1&#45;&gt;Node9</title>
<path fill="none" stroke="midnightblue" d="M221.9,-112.44C247.7,-103.4 288.58,-89.06 317.52,-78.92"/>
<polygon fill="midnightblue" stroke="midnightblue" points="318.93,-82.13 327.21,-75.52 316.62,-75.52 318.93,-82.13"/>
</g>
<!-- Node10 -->
<g id="node8" class="node">
<title>Node10</title>
<g id="a_node8"><a xlink:title=" ">
<polygon fill="white" stroke="#bfbfbf" points="399.5,-56.5 399.5,-75.5 521.5,-75.5 521.5,-56.5 399.5,-56.5"/>
<text text-anchor="middle" x="460.5" y="-63.5" font-family="Helvetica,sans-Serif" font-size="10.00">_autogen_class_range.h</text>
</a>
</g>
</g>
<!-- Node1&#45;&gt;Node10 -->
<g id="edge11" class="edge">
<title>Node1&#45;&gt;Node10</title>
<path fill="none" stroke="midnightblue" d="M227.16,-114.91C271.2,-105.87 354.53,-88.76 408.76,-77.62"/>
<polygon fill="midnightblue" stroke="midnightblue" points="409.77,-80.99 418.86,-75.55 408.36,-74.13 409.77,-80.99"/>
</g>
<!-- Node4&#45;&gt;Node3 -->
<g id="edge4" class="edge">
<title>Node4&#45;&gt;Node3</title>
<path fill="none" stroke="midnightblue" d="M137.07,-56.32C147.92,-48.18 164.38,-35.84 177.38,-26.09"/>
<polygon fill="midnightblue" stroke="midnightblue" points="179.82,-28.63 185.72,-19.83 175.62,-23.03 179.82,-28.63"/>
</g>
<!-- Node7&#45;&gt;Node3 -->
<g id="edge6" class="edge">
<title>Node7&#45;&gt;Node3</title>
<path fill="none" stroke="midnightblue" d="M197.5,-56.08C197.5,-49.01 197.5,-38.86 197.5,-29.99"/>
<polygon fill="midnightblue" stroke="midnightblue" points="201,-29.75 197.5,-19.75 194,-29.75 201,-29.75"/>
</g>
<!-- Node8&#45;&gt;Node3 -->
<g id="edge8" class="edge">
<title>Node8&#45;&gt;Node3</title>
<path fill="none" stroke="midnightblue" d="M262.13,-56.32C250.34,-48.06 232.37,-35.45 218.36,-25.63"/>
<polygon fill="midnightblue" stroke="midnightblue" points="220.04,-22.53 209.84,-19.65 216.02,-28.26 220.04,-22.53"/>
</g>
<!-- Node9&#45;&gt;Node3 -->
<g id="edge10" class="edge">
<title>Node9&#45;&gt;Node3</title>
<path fill="none" stroke="midnightblue" d="M327.1,-56.44C301.23,-47.37 260.18,-32.98 231.23,-22.83"/>
<polygon fill="midnightblue" stroke="midnightblue" points="232.13,-19.43 221.53,-19.43 229.81,-26.04 232.13,-19.43"/>
</g>
</g>
</svg>
