<?xml version="1.0" encoding="UTF-8" standalone="no"?>
<!DOCTYPE svg PUBLIC "-//W3C//DTD SVG 1.1//EN"
 "http://www.w3.org/Graphics/SVG/1.1/DTD/svg11.dtd">
<!-- Generated by graphviz version 3.0.0 (20220226.1711)
 -->
<!-- Title: c_string.c Pages: 1 -->
<svg width="406pt" height="196pt"
 viewBox="0.00 0.00 405.88 196.00" xmlns="http://www.w3.org/2000/svg" xmlns:xlink="http://www.w3.org/1999/xlink">
<g id="graph0" class="graph" transform="scale(1 1) rotate(0) translate(4 192)">
<title>c_string.c</title>
<polygon fill="white" stroke="transparent" points="-4,4 -4,-192 401.88,-192 401.88,4 -4,4"/>
<!-- Node1 -->
<g id="node1" class="node">
<title>Node1</title>
<g id="a_node1"><a xlink:title="mruby/c String class">
<polygon fill="#bfbfbf" stroke="black" points="194.5,-168.5 194.5,-187.5 253.5,-187.5 253.5,-168.5 194.5,-168.5"/>
<text text-anchor="middle" x="224" y="-175.5" font-family="Helvetica,sans-Serif" font-size="10.00">c_string.c</text>
</a>
</g>
</g>
<!-- Node2 -->
<g id="node2" class="node">
<title>Node2</title>
<g id="a_node2"><a xlink:href="alloc_8h.html" target="_top" xlink:title="mruby/c memory management.">
<polygon fill="white" stroke="black" points="118.5,-56.5 118.5,-75.5 163.5,-75.5 163.5,-56.5 118.5,-56.5"/>
<text text-anchor="middle" x="141" y="-63.5" font-family="Helvetica,sans-Serif" font-size="10.00">alloc.h</text>
</a>
</g>
</g>
<!-- Node1&#45;&gt;Node2 -->
<g id="edge1" class="edge">
<title>Node1&#45;&gt;Node2</title>
<path fill="none" stroke="midnightblue" d="M205.04,-168.42C190.38,-160.84 170.69,-148.45 159,-132 149.36,-118.43 144.87,-99.88 142.79,-86.07"/>
<polygon fill="midnightblue" stroke="midnightblue" points="146.23,-85.31 141.55,-75.8 139.28,-86.15 146.23,-85.31"/>
</g>
<!-- Node3 -->
<g id="node3" class="node">
<title>Node3</title>
<g id="a_node3"><a xlink:href="value_8h.html" target="_top" xlink:title="mruby/c value definitions">
<polygon fill="white" stroke="black" points="222,-0.5 222,-19.5 270,-19.5 270,-0.5 222,-0.5"/>
<text text-anchor="middle" x="246" y="-7.5" font-family="Helvetica,sans-Serif" font-size="10.00">value.h</text>
</a>
</g>
</g>
<!-- Node1&#45;&gt;Node3 -->
<g id="edge2" class="edge">
<title>Node1&#45;&gt;Node3</title>
<path fill="none" stroke="midnightblue" d="M253.5,-171.23C296.41,-160.93 373.29,-134.69 395,-76 412.83,-27.79 329.87,-15.28 280.51,-12.07"/>
<polygon fill="midnightblue" stroke="midnightblue" points="280.42,-8.56 270.24,-11.5 280.03,-15.55 280.42,-8.56"/>
</g>
<!-- Node4 -->
<g id="node4" class="node">
<title>Node4</title>
<g id="a_node4"><a xlink:href="symbol_8h.html" target="_top" xlink:title="mruby/c Symbol class">
<polygon fill="white" stroke="red" points="0,-56.5 0,-75.5 56,-75.5 56,-56.5 0,-56.5"/>
<text text-anchor="middle" x="28" y="-63.5" font-family="Helvetica,sans-Serif" font-size="10.00">symbol.h</text>
</a>
</g>
</g>
<!-- Node1&#45;&gt;Node4 -->
<g id="edge3" class="edge">
<title>Node1&#45;&gt;Node4</title>
<path fill="none" stroke="midnightblue" d="M194.26,-173.31C148.75,-167.06 64.92,-152.99 44,-132 32.09,-120.05 28.54,-100.75 27.7,-86.27"/>
<polygon fill="midnightblue" stroke="midnightblue" points="31.2,-85.87 27.5,-75.94 24.2,-86 31.2,-85.87"/>
</g>
<!-- Node6 -->
<g id="node5" class="node">
<title>Node6</title>
<g id="a_node5"><a xlink:href="class_8h.html" target="_top" xlink:title="Class related functions.">
<polygon fill="white" stroke="red" points="222,-56.5 222,-75.5 270,-75.5 270,-56.5 222,-56.5"/>
<text text-anchor="middle" x="246" y="-63.5" font-family="Helvetica,sans-Serif" font-size="10.00">class.h</text>
</a>
</g>
</g>
<!-- Node1&#45;&gt;Node6 -->
<g id="edge5" class="edge">
<title>Node1&#45;&gt;Node6</title>
<path fill="none" stroke="midnightblue" d="M225.73,-168.37C229.28,-150.62 237.47,-109.67 242.28,-85.6"/>
<polygon fill="midnightblue" stroke="midnightblue" points="245.75,-86.08 244.28,-75.59 238.89,-84.71 245.75,-86.08"/>
</g>
<!-- Node9 -->
<g id="node6" class="node">
<title>Node9</title>
<g id="a_node6"><a xlink:href="c__string_8h.html" target="_top" xlink:title="mruby/c String class">
<polygon fill="white" stroke="black" points="52.5,-112.5 52.5,-131.5 111.5,-131.5 111.5,-112.5 52.5,-112.5"/>
<text text-anchor="middle" x="82" y="-119.5" font-family="Helvetica,sans-Serif" font-size="10.00">c_string.h</text>
</a>
</g>
</g>
<!-- Node1&#45;&gt;Node9 -->
<g id="edge7" class="edge">
<title>Node1&#45;&gt;Node9</title>
<path fill="none" stroke="midnightblue" d="M201.5,-168.44C177.92,-159.48 140.68,-145.31 114.04,-135.18"/>
<polygon fill="midnightblue" stroke="midnightblue" points="114.99,-131.8 104.4,-131.52 112.5,-138.34 114.99,-131.8"/>
</g>
<!-- Node10 -->
<g id="node7" class="node">
<title>Node10</title>
<g id="a_node7"><a xlink:href="c__array_8h.html" target="_top" xlink:title="mruby/c Array class">
<polygon fill="white" stroke="black" points="168,-112.5 168,-131.5 224,-131.5 224,-112.5 168,-112.5"/>
<text text-anchor="middle" x="196" y="-119.5" font-family="Helvetica,sans-Serif" font-size="10.00">c_array.h</text>
</a>
</g>
</g>
<!-- Node1&#45;&gt;Node10 -->
<g id="edge9" class="edge">
<title>Node1&#45;&gt;Node10</title>
<path fill="none" stroke="midnightblue" d="M219.38,-168.08C215.54,-160.69 209.98,-149.95 205.24,-140.81"/>
<polygon fill="midnightblue" stroke="midnightblue" points="208.25,-139.02 200.54,-131.75 202.03,-142.24 208.25,-139.02"/>
</g>
<!-- Node11 -->
<g id="node8" class="node">
<title>Node11</title>
<g id="a_node8"><a xlink:href="vm_8h.html" target="_top" xlink:title="mruby bytecode executor.">
<polygon fill="white" stroke="black" points="280,-112.5 280,-131.5 318,-131.5 318,-112.5 280,-112.5"/>
<text text-anchor="middle" x="299" y="-119.5" font-family="Helvetica,sans-Serif" font-size="10.00">vm.h</text>
</a>
</g>
</g>
<!-- Node1&#45;&gt;Node11 -->
<g id="edge12" class="edge">
<title>Node1&#45;&gt;Node11</title>
<path fill="none" stroke="midnightblue" d="M236.05,-168.32C247.46,-160.11 264.83,-147.6 278.43,-137.81"/>
<polygon fill="midnightblue" stroke="midnightblue" points="280.66,-140.52 286.73,-131.83 276.57,-134.84 280.66,-140.52"/>
</g>
<!-- Node12 -->
<g id="node9" class="node">
<title>Node12</title>
<g id="a_node9"><a xlink:href="console_8h.html" target="_top" xlink:title="console output module. (not yet input)">
<polygon fill="white" stroke="black" points="326.5,-56.5 326.5,-75.5 385.5,-75.5 385.5,-56.5 326.5,-56.5"/>
<text text-anchor="middle" x="356" y="-63.5" font-family="Helvetica,sans-Serif" font-size="10.00">console.h</text>
</a>
</g>
</g>
<!-- Node1&#45;&gt;Node12 -->
<g id="edge15" class="edge">
<title>Node1&#45;&gt;Node12</title>
<path fill="none" stroke="midnightblue" d="M253.51,-170.33C276.12,-163.88 306.78,-152.07 327,-132 339.86,-119.24 347.5,-99.77 351.69,-85.47"/>
<polygon fill="midnightblue" stroke="midnightblue" points="355.09,-86.29 354.24,-75.73 348.32,-84.52 355.09,-86.29"/>
</g>
<!-- Node4&#45;&gt;Node3 -->
<g id="edge4" class="edge">
<title>Node4&#45;&gt;Node3</title>
<path fill="none" stroke="midnightblue" d="M56.05,-58.05C95.98,-48.16 169.09,-30.05 212.03,-19.41"/>
<polygon fill="midnightblue" stroke="midnightblue" points="212.88,-22.81 221.74,-17.01 211.19,-16.02 212.88,-22.81"/>
</g>
<!-- Node6&#45;&gt;Node3 -->
<g id="edge6" class="edge">
<title>Node6&#45;&gt;Node3</title>
<path fill="none" stroke="midnightblue" d="M246,-56.08C246,-49.01 246,-38.86 246,-29.99"/>
<polygon fill="midnightblue" stroke="midnightblue" points="249.5,-29.75 246,-19.75 242.5,-29.75 249.5,-29.75"/>
</g>
<!-- Node9&#45;&gt;Node3 -->
<g id="edge8" class="edge">
<title>Node9&#45;&gt;Node3</title>
<path fill="none" stroke="midnightblue" d="M83.44,-112.09C86.16,-98.17 93.33,-71.27 110,-56 138.21,-30.15 181.64,-19.12 211.8,-14.43"/>
<polygon fill="midnightblue" stroke="midnightblue" points="212.45,-17.87 221.87,-13.02 211.48,-10.94 212.45,-17.87"/>
</g>
<!-- Node10&#45;&gt;Node2 -->
<g id="edge10" class="edge">
<title>Node10&#45;&gt;Node2</title>
<path fill="none" stroke="midnightblue" d="M186.92,-112.08C178.83,-104.14 166.8,-92.34 157.09,-82.8"/>
<polygon fill="midnightblue" stroke="midnightblue" points="159.5,-80.26 149.91,-75.75 154.6,-85.25 159.5,-80.26"/>
</g>
<!-- Node10&#45;&gt;Node3 -->
<g id="edge11" class="edge">
<title>Node10&#45;&gt;Node3</title>
<path fill="none" stroke="midnightblue" d="M197.22,-112.23C199.24,-99.39 203.98,-74.96 213,-56 217.83,-45.85 225.06,-35.66 231.53,-27.54"/>
<polygon fill="midnightblue" stroke="midnightblue" points="234.38,-29.58 238.09,-19.66 229,-25.11 234.38,-29.58"/>
</g>
<!-- Node11&#45;&gt;Node3 -->
<g id="edge13" class="edge">
<title>Node11&#45;&gt;Node3</title>
<path fill="none" stroke="midnightblue" d="M297.28,-112.24C294.55,-99.41 288.54,-74.99 279,-56 273.95,-45.96 266.7,-35.77 260.28,-27.64"/>
<polygon fill="midnightblue" stroke="midnightblue" points="262.83,-25.23 253.78,-19.72 257.42,-29.67 262.83,-25.23"/>
</g>
<!-- Node11&#45;&gt;Node6 -->
<g id="edge14" class="edge">
<title>Node11&#45;&gt;Node6</title>
<path fill="none" stroke="midnightblue" d="M290.25,-112.08C282.53,-104.22 271.1,-92.57 261.78,-83.08"/>
<polygon fill="midnightblue" stroke="midnightblue" points="264.09,-80.44 254.59,-75.75 259.1,-85.34 264.09,-80.44"/>
</g>
<!-- Node12&#45;&gt;Node3 -->
<g id="edge16" class="edge">
<title>Node12&#45;&gt;Node3</title>
<path fill="none" stroke="midnightblue" d="M338.33,-56.32C320.61,-47.62 293.1,-34.12 272.71,-24.11"/>
<polygon fill="midnightblue" stroke="midnightblue" points="274.15,-20.92 263.63,-19.65 271.06,-27.2 274.15,-20.92"/>
</g>
</g>
</svg>
