<?xml version="1.0" encoding="UTF-8" standalone="no"?>
<!DOCTYPE svg PUBLIC "-//W3C//DTD SVG 1.1//EN"
 "http://www.w3.org/Graphics/SVG/1.1/DTD/svg11.dtd">
<!-- Generated by graphviz version 3.0.0 (20220226.1711)
 -->
<!-- Title: c_string.h Pages: 1 -->
<!--zoomable 84 -->
<svg id="main" version="1.1" xmlns="http://www.w3.org/2000/svg" xmlns:xlink="http://www.w3.org/1999/xlink" xml:space="preserve" onload="init(evt)">
<style type="text/css"><![CDATA[
.edge:hover path { stroke: red; }
.edge:hover polygon { stroke: red; fill: red; }
]]></style>
<script type="text/javascript"><![CDATA[
var edges = document.getElementsByTagName('g');
if (edges && edges.length) {
  for (var i=0;i<edges.length;i++) {
    if (edges[i].id.substr(0,4)=='edge') {
      edges[i].setAttribute('class','edge');
    }
  }
}
]]></script>
        <defs>
                <circle id="rim" cx="0" cy="0" r="7"/>
                <circle id="rim2" cx="0" cy="0" r="3.5"/>
                <g id="zoomPlus">
                        <use xlink:href="#rim" fill="#404040">
                                <set attributeName="fill" to="#808080" begin="zoomplus.mouseover" end="zoomplus.mouseout"/>
                        </use>
                        <path d="M-4,0h8M0,-4v8" fill="none" stroke="white" stroke-width="1.5" pointer-events="none"/>
                </g>
                <g id="zoomMin">
                        <use xlink:href="#rim" fill="#404040">
                                <set attributeName="fill" to="#808080" begin="zoomminus.mouseover" end="zoomminus.mouseout"/>
                        </use>
                        <path d="M-4,0h8" fill="none" stroke="white" stroke-width="1.5" pointer-events="none"/>
                </g>
                <g id="dirArrow">
                        <path fill="none" stroke="white" stroke-width="1.5" d="M0,-3.0v7 M-2.5,-0.5L0,-3.0L2.5,-0.5"/>
                </g>
               <g id="resetDef">
                       <use xlink:href="#rim2" fill="#404040">
                               <set attributeName="fill" to="#808080" begin="reset.mouseover" end="reset.mouseout"/>
                       </use>
               </g>
        </defs>

<script type="text/javascript">
var viewWidth = 1000;
var viewHeight = 84;
var sectionId = 'dynsection-1';
</script>
<script xlink:href="svgpan.js"/>
<svg id="graph" class="graph">
<g id="viewport">
<title>c_string.h</title>
<polygon fill="white" stroke="transparent" points="-4,4 -4,-80 996,-80 996,4 -4,4"/>
<!-- Node1 -->
<g id="node1" class="node">
<title>Node1</title>
<g id="a_node1"><a xlink:title="mruby/c String class">
<polygon fill="#bfbfbf" stroke="black" points="501.5,-56.5 501.5,-75.5 560.5,-75.5 560.5,-56.5 501.5,-56.5"/>
<text text-anchor="middle" x="531" y="-63.5" font-family="Helvetica,sans-Serif" font-size="10.00">c_string.h</text>
</a>
</g>
</g>
<!-- Node2 -->
<g id="node2" class="node">
<title>Node2</title>
<g id="a_node2"><a xlink:href="c__array_8c.html" target="_top" xlink:title="mruby/c Array class">
<polygon fill="white" stroke="black" points="0,-0.5 0,-19.5 56,-19.5 56,-0.5 0,-0.5"/>
<text text-anchor="middle" x="28" y="-7.5" font-family="Helvetica,sans-Serif" font-size="10.00">c_array.c</text>
</a>
</g>
</g>
<!-- Node1&#45;&gt;Node2 -->
<g id="edge1" class="edge">
<title>Node1&#45;&gt;Node2</title>
<path fill="none" stroke="midnightblue" d="M491.14,-63.07C410.31,-58.73 221.47,-46.45 65,-20 62.13,-19.52 59.16,-18.93 56.2,-18.3"/>
<polygon fill="midnightblue" stroke="midnightblue" points="491.2,-66.57 501.37,-63.6 491.56,-59.58 491.2,-66.57"/>
</g>
<!-- Node3 -->
<g id="node3" class="node">
<title>Node3</title>
<g id="a_node3"><a xlink:href="c__hash_8c.html" target="_top" xlink:title="mruby/c Hash class">
<polygon fill="white" stroke="black" points="74,-0.5 74,-19.5 130,-19.5 130,-0.5 74,-0.5"/>
<text text-anchor="middle" x="102" y="-7.5" font-family="Helvetica,sans-Serif" font-size="10.00">c_hash.c</text>
</a>
</g>
</g>
<!-- Node1&#45;&gt;Node3 -->
<g id="edge2" class="edge">
<title>Node1&#45;&gt;Node3</title>
<path fill="none" stroke="midnightblue" d="M491.01,-62.06C419.84,-56.46 266.65,-42.76 139,-20 136.14,-19.49 133.16,-18.89 130.21,-18.24"/>
<polygon fill="midnightblue" stroke="midnightblue" points="491.07,-65.58 501.31,-62.86 491.61,-58.6 491.07,-65.58"/>
</g>
<!-- Node4 -->
<g id="node4" class="node">
<title>Node4</title>
<g id="a_node4"><a xlink:href="c__numeric_8c.html" target="_top" xlink:title="mruby/c Integer and Float class">
<polygon fill="white" stroke="black" points="148,-0.5 148,-19.5 218,-19.5 218,-0.5 148,-0.5"/>
<text text-anchor="middle" x="183" y="-7.5" font-family="Helvetica,sans-Serif" font-size="10.00">c_numeric.c</text>
</a>
</g>
</g>
<!-- Node1&#45;&gt;Node4 -->
<g id="edge3" class="edge">
<title>Node1&#45;&gt;Node4</title>
<path fill="none" stroke="midnightblue" d="M490.89,-59.78C432.63,-52.03 321.23,-36.6 227,-20 224.08,-19.49 221.06,-18.93 218.03,-18.35"/>
<polygon fill="midnightblue" stroke="midnightblue" points="490.77,-63.29 501.14,-61.13 491.68,-56.35 490.77,-63.29"/>
</g>
<!-- Node5 -->
<g id="node5" class="node">
<title>Node5</title>
<g id="a_node5"><a xlink:href="c__object_8c.html" target="_top" xlink:title="Object, Proc, Nil, True and False class.">
<polygon fill="white" stroke="black" points="236,-0.5 236,-19.5 298,-19.5 298,-0.5 236,-0.5"/>
<text text-anchor="middle" x="267" y="-7.5" font-family="Helvetica,sans-Serif" font-size="10.00">c_object.c</text>
</a>
</g>
</g>
<!-- Node1&#45;&gt;Node5 -->
<g id="edge4" class="edge">
<title>Node1&#45;&gt;Node5</title>
<path fill="none" stroke="midnightblue" d="M491.34,-57.32C446.53,-48.57 371.43,-33.72 307,-20 304.22,-19.41 301.32,-18.78 298.43,-18.14"/>
<polygon fill="midnightblue" stroke="midnightblue" points="490.76,-60.77 501.24,-59.25 492.1,-53.9 490.76,-60.77"/>
</g>
<!-- Node6 -->
<g id="node6" class="node">
<title>Node6</title>
<g id="a_node6"><a xlink:href="c__range_8c.html" target="_top" xlink:title="mruby/c Range class">
<polygon fill="white" stroke="black" points="316.5,-0.5 316.5,-19.5 375.5,-19.5 375.5,-0.5 316.5,-0.5"/>
<text text-anchor="middle" x="346" y="-7.5" font-family="Helvetica,sans-Serif" font-size="10.00">c_range.c</text>
</a>
</g>
</g>
<!-- Node1&#45;&gt;Node6 -->
<g id="edge5" class="edge">
<title>Node1&#45;&gt;Node6</title>
<path fill="none" stroke="midnightblue" d="M491.83,-53.57C456.93,-43.38 406.65,-28.7 375.18,-19.52"/>
<polygon fill="midnightblue" stroke="midnightblue" points="491.11,-57 501.69,-56.44 493.07,-50.28 491.11,-57"/>
</g>
<!-- Node7 -->
<g id="node7" class="node">
<title>Node7</title>
<g id="a_node7"><a xlink:href="c__string_8c.html" target="_top" xlink:title="mruby/c String class">
<polygon fill="white" stroke="black" points="393.5,-0.5 393.5,-19.5 452.5,-19.5 452.5,-0.5 393.5,-0.5"/>
<text text-anchor="middle" x="423" y="-7.5" font-family="Helvetica,sans-Serif" font-size="10.00">c_string.c</text>
</a>
</g>
</g>
<!-- Node1&#45;&gt;Node7 -->
<g id="edge6" class="edge">
<title>Node1&#45;&gt;Node7</title>
<path fill="none" stroke="midnightblue" d="M504.45,-51.73C484.45,-41.73 457.61,-28.31 440.31,-19.65"/>
<polygon fill="midnightblue" stroke="midnightblue" points="503.14,-54.98 513.65,-56.32 506.27,-48.72 503.14,-54.98"/>
</g>
<!-- Node8 -->
<g id="node8" class="node">
<title>Node8</title>
<g id="a_node8"><a xlink:href="class_8c.html" target="_top" xlink:title="Class related functions.">
<polygon fill="white" stroke="black" points="471,-0.5 471,-19.5 519,-19.5 519,-0.5 471,-0.5"/>
<text text-anchor="middle" x="495" y="-7.5" font-family="Helvetica,sans-Serif" font-size="10.00">class.c</text>
</a>
</g>
</g>
<!-- Node1&#45;&gt;Node8 -->
<g id="edge7" class="edge">
<title>Node1&#45;&gt;Node8</title>
<path fill="none" stroke="midnightblue" d="M519.38,-47.57C513.18,-38.27 505.83,-27.25 500.83,-19.75"/>
<polygon fill="midnightblue" stroke="midnightblue" points="516.6,-49.7 525.06,-56.08 522.42,-45.82 516.6,-49.7"/>
</g>
<!-- Node9 -->
<g id="node9" class="node">
<title>Node9</title>
<g id="a_node9"><a xlink:href="console_8c.html" target="_top" xlink:title="console output module. (not yet input)">
<polygon fill="white" stroke="black" points="537.5,-0.5 537.5,-19.5 596.5,-19.5 596.5,-0.5 537.5,-0.5"/>
<text text-anchor="middle" x="567" y="-7.5" font-family="Helvetica,sans-Serif" font-size="10.00">console.c</text>
</a>
</g>
</g>
<!-- Node1&#45;&gt;Node9 -->
<g id="edge8" class="edge">
<title>Node1&#45;&gt;Node9</title>
<path fill="none" stroke="midnightblue" d="M542.62,-47.57C548.82,-38.27 556.17,-27.25 561.17,-19.75"/>
<polygon fill="midnightblue" stroke="midnightblue" points="539.58,-45.82 536.94,-56.08 545.4,-49.7 539.58,-45.82"/>
</g>
<!-- Node10 -->
<g id="node10" class="node">
<title>Node10</title>
<g id="a_node10"><a xlink:href="error_8c.html" target="_top" xlink:title="exception classes">
<polygon fill="white" stroke="black" points="615,-0.5 615,-19.5 659,-19.5 659,-0.5 615,-0.5"/>
<text text-anchor="middle" x="637" y="-7.5" font-family="Helvetica,sans-Serif" font-size="10.00">error.c</text>
</a>
</g>
</g>
<!-- Node1&#45;&gt;Node10 -->
<g id="edge9" class="edge">
<title>Node1&#45;&gt;Node10</title>
<path fill="none" stroke="midnightblue" d="M557.06,-51.73C576.68,-41.73 603.03,-28.31 620.01,-19.65"/>
<polygon fill="midnightblue" stroke="midnightblue" points="555.35,-48.67 548.03,-56.32 558.53,-54.9 555.35,-48.67"/>
</g>
<!-- Node11 -->
<g id="node11" class="node">
<title>Node11</title>
<g id="a_node11"><a xlink:href="load_8c.html" target="_top" xlink:title="mruby bytecode loader.">
<polygon fill="white" stroke="black" points="677.5,-0.5 677.5,-19.5 720.5,-19.5 720.5,-0.5 677.5,-0.5"/>
<text text-anchor="middle" x="699" y="-7.5" font-family="Helvetica,sans-Serif" font-size="10.00">load.c</text>
</a>
</g>
</g>
<!-- Node1&#45;&gt;Node11 -->
<g id="edge10" class="edge">
<title>Node1&#45;&gt;Node11</title>
<path fill="none" stroke="midnightblue" d="M567.5,-53.27C601.01,-42.5 649.54,-26.9 677.31,-17.97"/>
<polygon fill="midnightblue" stroke="midnightblue" points="566.07,-50.05 557.62,-56.44 568.21,-56.72 566.07,-50.05"/>
</g>
<!-- Node12 -->
<g id="node12" class="node">
<title>Node12</title>
<g id="a_node12"><a xlink:href="mrubyc_8h.html" target="_top" xlink:title="Include at once the necessary header files for user program.">
<polygon fill="white" stroke="black" points="738.5,-0.5 738.5,-19.5 795.5,-19.5 795.5,-0.5 738.5,-0.5"/>
<text text-anchor="middle" x="767" y="-7.5" font-family="Helvetica,sans-Serif" font-size="10.00">mrubyc.h</text>
</a>
</g>
</g>
<!-- Node1&#45;&gt;Node12 -->
<g id="edge11" class="edge">
<title>Node1&#45;&gt;Node12</title>
<path fill="none" stroke="midnightblue" d="M570.64,-56.24C610.83,-47.3 674.8,-32.95 730,-20 732.7,-19.37 735.52,-18.7 738.33,-18.02"/>
<polygon fill="midnightblue" stroke="midnightblue" points="569.71,-52.86 560.7,-58.44 571.22,-59.69 569.71,-52.86"/>
</g>
<!-- Node13 -->
<g id="node13" class="node">
<title>Node13</title>
<g id="a_node13"><a xlink:href="symbol_8c.html" target="_top" xlink:title="mruby/c Symbol class">
<polygon fill="white" stroke="black" points="814,-0.5 814,-19.5 870,-19.5 870,-0.5 814,-0.5"/>
<text text-anchor="middle" x="842" y="-7.5" font-family="Helvetica,sans-Serif" font-size="10.00">symbol.c</text>
</a>
</g>
</g>
<!-- Node1&#45;&gt;Node13 -->
<g id="edge12" class="edge">
<title>Node1&#45;&gt;Node13</title>
<path fill="none" stroke="midnightblue" d="M570.82,-59.43C624.3,-51.72 722.18,-36.85 805,-20 807.85,-19.42 810.81,-18.77 813.77,-18.1"/>
<polygon fill="midnightblue" stroke="midnightblue" points="570.14,-55.99 560.73,-60.87 571.13,-62.92 570.14,-55.99"/>
</g>
<!-- Node14 -->
<g id="node14" class="node">
<title>Node14</title>
<g id="a_node14"><a xlink:href="value_8c.html" target="_top" xlink:title="mruby/c value definitions">
<polygon fill="white" stroke="black" points="888,-0.5 888,-19.5 936,-19.5 936,-0.5 888,-0.5"/>
<text text-anchor="middle" x="912" y="-7.5" font-family="Helvetica,sans-Serif" font-size="10.00">value.c</text>
</a>
</g>
</g>
<!-- Node1&#45;&gt;Node14 -->
<g id="edge13" class="edge">
<title>Node1&#45;&gt;Node14</title>
<path fill="none" stroke="midnightblue" d="M570.75,-61.66C635.69,-55.79 768.37,-42.13 879,-20 881.91,-19.42 884.94,-18.72 887.94,-17.97"/>
<polygon fill="midnightblue" stroke="midnightblue" points="570.2,-58.19 560.55,-62.56 570.82,-65.16 570.2,-58.19"/>
</g>
<!-- Node15 -->
<g id="node15" class="node">
<title>Node15</title>
<g id="a_node15"><a xlink:href="vm_8c.html" target="_top" xlink:title="mruby bytecode executor.">
<polygon fill="white" stroke="black" points="954,-0.5 954,-19.5 992,-19.5 992,-0.5 954,-0.5"/>
<text text-anchor="middle" x="973" y="-7.5" font-family="Helvetica,sans-Serif" font-size="10.00">vm.c</text>
</a>
</g>
</g>
<!-- Node1&#45;&gt;Node15 -->
<g id="edge14" class="edge">
<title>Node1&#45;&gt;Node15</title>
<path fill="none" stroke="midnightblue" d="M571,-63.35C645.37,-59.68 809.69,-48.79 945,-20 947.9,-19.38 950.92,-18.58 953.86,-17.72"/>
<polygon fill="midnightblue" stroke="midnightblue" points="570.51,-59.87 560.69,-63.84 570.84,-66.86 570.51,-59.87"/>
</g>
</g>
</svg>
        <g id="navigator" transform="translate(0 0)" fill="#404254">
                <rect fill="#f2f5e9" fill-opacity="0.5" stroke="#606060" stroke-width=".5" x="0" y="0" width="60" height="60"/>
                <use id="zoomplus" xlink:href="#zoomPlus" x="17" y="9" onmousedown="handleZoom(evt,'in')"/>
                <use id="zoomminus" xlink:href="#zoomMin" x="42" y="9" onmousedown="handleZoom(evt,'out')"/>
                <use id="reset" xlink:href="#resetDef" x="30" y="36" onmousedown="handleReset()"/>
                <g id="arrowUp" xlink:href="#dirArrow" transform="translate(30 24)" onmousedown="handlePan(0,-1)">
                  <use xlink:href="#rim" fill="#404040">
                        <set attributeName="fill" to="#808080" begin="arrowUp.mouseover" end="arrowUp.mouseout"/>
                  </use>
                  <path fill="none" stroke="white" stroke-width="1.5" d="M0,-3.0v7 M-2.5,-0.5L0,-3.0L2.5,-0.5"/>
                </g>
                <g id="arrowRight" xlink:href="#dirArrow" transform="rotate(90) translate(36 -43)" onmousedown="handlePan(1,0)">
                  <use xlink:href="#rim" fill="#404040">
                        <set attributeName="fill" to="#808080" begin="arrowRight.mouseover" end="arrowRight.mouseout"/>
                  </use>
                  <path fill="none" stroke="white" stroke-width="1.5" d="M0,-3.0v7 M-2.5,-0.5L0,-3.0L2.5,-0.5"/>
                </g>
                <g id="arrowDown" xlink:href="#dirArrow" transform="rotate(180) translate(-30 -48)" onmousedown="handlePan(0,1)">
                  <use xlink:href="#rim" fill="#404040">
                        <set attributeName="fill" to="#808080" begin="arrowDown.mouseover" end="arrowDown.mouseout"/>
                  </use>
                  <path fill="none" stroke="white" stroke-width="1.5" d="M0,-3.0v7 M-2.5,-0.5L0,-3.0L2.5,-0.5"/>
                </g>
                <g id="arrowLeft" xlink:href="#dirArrow" transform="rotate(270) translate(-36 17)" onmousedown="handlePan(-1,0)">
                  <use xlink:href="#rim" fill="#404040">
                        <set attributeName="fill" to="#808080" begin="arrowLeft.mouseover" end="arrowLeft.mouseout"/>
                  </use>
                  <path fill="none" stroke="white" stroke-width="1.5" d="M0,-3.0v7 M-2.5,-0.5L0,-3.0L2.5,-0.5"/>
                </g>
        </g>
        <svg viewBox="0 0 15 15" width="100%" height="30px" preserveAspectRatio="xMaxYMin meet">
         <g id="arrow_out" transform="scale(0.3 0.3)">
          <a xlink:href="c__string_8h__dep__incl_org.svg" target="_base">
           <rect id="button" ry="5" rx="5" y="6" x="6" height="38" width="38"
                fill="#f2f5e9" fill-opacity="0.5" stroke="#606060" stroke-width="1.0"/>
           <path id="arrow"
             d="M 11.500037,31.436501 C 11.940474,20.09759 22.043105,11.32322 32.158766,21.979434 L 37.068811,17.246167 C 37.068811,17.246167 37.088388,32 37.088388,32 L 22.160133,31.978069 C 22.160133,31.978069 26.997745,27.140456 26.997745,27.140456 C 18.528582,18.264221 13.291696,25.230495 11.500037,31.436501 z"
             style="fill:#404040;"/>
          </a>
         </g>
        </svg>
</svg>
