<?xml version="1.0" encoding="UTF-8" standalone="no"?>
<!DOCTYPE svg PUBLIC "-//W3C//DTD SVG 1.1//EN"
 "http://www.w3.org/Graphics/SVG/1.1/DTD/svg11.dtd">
<!-- Generated by graphviz version 13.0.1 (20250615.1724)
 -->
<!-- Title: mrbc_string_strip Pages: 1 -->
<!--zoomable 205 -->

<svg id="main" version="1.1" xmlns="http://www.w3.org/2000/svg" xmlns:xlink="http://www.w3.org/1999/xlink" xml:space="preserve" onload="init(evt)">

<style type="text/css"><![CDATA[
.node, .edge {opacity: 0.7;}
.node.selected, .edge.selected {opacity: 1;}
.edge:hover path { stroke: red; }
.edge:hover polygon { stroke: red; fill: red; }
]]></style>

<defs>
  <circle id="rim" cx="0" cy="0" r="7"/>
  <circle id="rim2" cx="0" cy="0" r="3.5"/>
  <g id="zoomPlus">
    <use xlink:href="#rim" fill="#404040"><set attributeName="fill" to="#808080" begin="zoomplus.mouseover" end="zoomplus.mouseout"/></use>
    <path d="M-4,0h8M0,-4v8" fill="none" stroke="white" stroke-width="1.5" pointer-events="none"/>
  </g>
  <g id="zoomMin">
    <use xlink:href="#rim" fill="#404040"><set attributeName="fill" to="#808080" begin="zoomminus.mouseover" end="zoomminus.mouseout"/></use>
    <path d="M-4,0h8" fill="none" stroke="white" stroke-width="1.5" pointer-events="none"/>
  </g>
  <g id="arrowUp" transform="translate(30 24)">
    <use xlink:href="#rim"/>
    <path pointer-events="none" fill="none" stroke="white" stroke-width="1.5" d="M0,-3.0v7 M-2.5,-0.5L0,-3.0L2.5,-0.5"/>
  </g>
  <g id="arrowRight" transform="rotate(90) translate(36 -43)">
    <use xlink:href="#rim"/>
    <path pointer-events="none" fill="none" stroke="white" stroke-width="1.5" d="M0,-3.0v7 M-2.5,-0.5L0,-3.0L2.5,-0.5"/>
  </g>
  <g id="arrowDown" transform="rotate(180) translate(-30 -48)">
    <use xlink:href="#rim"/>
    <path pointer-events="none" fill="none" stroke="white" stroke-width="1.5" d="M0,-3.0v7 M-2.5,-0.5L0,-3.0L2.5,-0.5"/>
  </g>
  <g id="arrowLeft" transform="rotate(270) translate(-36 17)">
    <use xlink:href="#rim"/>
    <path pointer-events="none" fill="none" stroke="white" stroke-width="1.5" d="M0,-3.0v7 M-2.5,-0.5L0,-3.0L2.5,-0.5"/>
  </g>
  <g id="resetDef">
    <use xlink:href="#rim2" fill="#404040"><set attributeName="fill" to="#808080" begin="reset.mouseover" end="reset.mouseout"/></use>
  </g>
</defs>
<script type="application/ecmascript">
var viewWidth = 656;
var viewHeight = 205;
var sectionId = 'dynsection-14';
</script>
<script type="application/ecmascript" xlink:href="svg.min.js"/>
<svg id="graph" class="graph">
<g id="viewport">
<title>mrbc_string_strip</title>
<!-- Node1 -->
<g id="Node000001" class="node">
<title>Node1</title>
<g id="a_Node000001"><a xlink:title=" ">
<polygon fill="#999999" stroke="#666666" points="91,-95.25 0,-95.25 0,-76 91,-76 91,-95.25"/>
<text xml:space="preserve" text-anchor="middle" x="45.5" y="-81.75" font-family="Helvetica,sans-Serif" font-size="10.00">mrbc_string_strip</text>
</a>
</g>
</g>
<!-- Node2 -->
<g id="Node000002" class="node">
<title>Node2</title>
<g id="a_Node000002"><a xlink:href="c__string_8c.html#a7345a98706986f24e2f620d4f18a6e26" target="_top" xlink:title=" ">
<polygon fill="white" stroke="#666666" points="200.75,-151.25 145.75,-151.25 145.75,-132 200.75,-132 200.75,-151.25"/>
<text xml:space="preserve" text-anchor="middle" x="173.25" y="-137.75" font-family="Helvetica,sans-Serif" font-size="10.00">is_space</text>
</a>
</g>
</g>
<!-- Node1&#45;&gt;Node2 -->
<g id="edge1_Node000001_Node000002" class="edge">
<title>Node1&#45;&gt;Node2</title>
<g id="a_edge1_Node000001_Node000002"><a xlink:title=" ">
<path fill="none" stroke="#63b8ff" d="M66.85,-95.66C83.03,-103.54 106.3,-114.63 127,-123.62 129.81,-124.85 132.73,-126.08 135.68,-127.3"/>
<polygon fill="#63b8ff" stroke="#63b8ff" points="134.31,-130.53 144.89,-131.05 136.94,-124.04 134.31,-130.53"/>
</a>
</g>
</g>
<!-- Node3 -->
<g id="Node000003" class="node">
<title>Node3</title>
<g id="a_Node000003"><a xlink:href="alloc_8c.html#aa98e87f44a9739075b3ef4a0da12494e" target="_top" xlink:title=" ">
<polygon fill="white" stroke="#666666" points="219.5,-114.25 127,-114.25 127,-95 219.5,-95 219.5,-114.25"/>
<text xml:space="preserve" text-anchor="middle" x="173.25" y="-100.75" font-family="Helvetica,sans-Serif" font-size="10.00">mrbc_raw_realloc</text>
</a>
</g>
</g>
<!-- Node1&#45;&gt;Node3 -->
<g id="edge2_Node000001_Node000003" class="edge">
<title>Node1&#45;&gt;Node3</title>
<g id="a_edge2_Node000001_Node000003"><a xlink:title=" ">
<path fill="none" stroke="#63b8ff" d="M91.19,-92.38C99.06,-93.57 107.34,-94.82 115.49,-96.05"/>
<polygon fill="#63b8ff" stroke="#63b8ff" points="114.95,-99.51 125.36,-97.54 116,-92.59 114.95,-99.51"/>
</a>
</g>
</g>
<!-- Node13 -->
<g id="Node000013" class="node">
<title>Node13</title>
<g id="a_Node000013"><a xlink:href="c__string_8h.html#a52d2a294c698f58949dcc06f85277724" target="_top" xlink:title=" ">
<polygon fill="white" stroke="#666666" points="217.62,-77.25 128.88,-77.25 128.88,-58 217.62,-58 217.62,-77.25"/>
<text xml:space="preserve" text-anchor="middle" x="173.25" y="-63.75" font-family="Helvetica,sans-Serif" font-size="10.00">mrbc_string_cstr</text>
</a>
</g>
</g>
<!-- Node1&#45;&gt;Node13 -->
<g id="edge20_Node000001_Node000013" class="edge">
<title>Node1&#45;&gt;Node13</title>
<g id="a_edge20_Node000001_Node000013"><a xlink:title=" ">
<path fill="none" stroke="#63b8ff" d="M91.19,-79.23C99.63,-78.02 108.55,-76.74 117.27,-75.5"/>
<polygon fill="#63b8ff" stroke="#63b8ff" points="117.65,-78.98 127.05,-74.09 116.66,-72.05 117.65,-78.98"/>
</a>
</g>
</g>
<!-- Node14 -->
<g id="Node000014" class="node">
<title>Node14</title>
<g id="a_Node000014"><a xlink:href="c__string_8h.html#aab0c9abd681f22088c6a6be9ed1e7f85" target="_top" xlink:title=" ">
<polygon fill="white" stroke="#666666" points="218.38,-40.25 128.12,-40.25 128.12,-21 218.38,-21 218.38,-40.25"/>
<text xml:space="preserve" text-anchor="middle" x="173.25" y="-26.75" font-family="Helvetica,sans-Serif" font-size="10.00">mrbc_string_size</text>
</a>
</g>
</g>
<!-- Node1&#45;&gt;Node14 -->
<g id="edge21_Node000001_Node000014" class="edge">
<title>Node1&#45;&gt;Node14</title>
<g id="a_edge21_Node000001_Node000014"><a xlink:title=" ">
<path fill="none" stroke="#63b8ff" d="M67.55,-75.58C83.71,-67.96 106.64,-57.35 127,-48.62 129.82,-47.42 132.74,-46.19 135.69,-44.98"/>
<polygon fill="#63b8ff" stroke="#63b8ff" points="136.95,-48.24 144.91,-41.24 134.33,-41.75 136.95,-48.24"/>
</a>
</g>
</g>
<!-- Node4 -->
<g id="Node000004" class="node">
<title>Node4</title>
<g id="a_Node000004"><a xlink:href="alloc_8c.html#acbd68132d9dfec3fedba1162c215d54d" target="_top" xlink:title=" ">
<polygon fill="white" stroke="#666666" points="466,-133.25 384,-133.25 384,-114 466,-114 466,-133.25"/>
<text xml:space="preserve" text-anchor="middle" x="425" y="-119.75" font-family="Helvetica,sans-Serif" font-size="10.00">add_free_block</text>
</a>
</g>
</g>
<!-- Node3&#45;&gt;Node4 -->
<g id="edge3_Node000003_Node000004" class="edge">
<title>Node3&#45;&gt;Node4</title>
<g id="a_edge3_Node000003_Node000004"><a xlink:title=" ">
<path fill="none" stroke="#63b8ff" d="M219.77,-108.09C262.87,-111.37 327.5,-116.28 372.48,-119.71"/>
<polygon fill="#63b8ff" stroke="#63b8ff" points="372,-123.18 382.24,-120.45 372.53,-116.2 372,-123.18"/>
</a>
</g>
</g>
<!-- Node8 -->
<g id="Node000008" class="node">
<title>Node8</title>
<g id="a_Node000008"><a xlink:href="alloc_8c.html#a696771a6c693f71089a410fd62cb8a29" target="_top" xlink:title=" ">
<polygon fill="white" stroke="#666666" points="460.75,-190.25 389.25,-190.25 389.25,-171 460.75,-171 460.75,-190.25"/>
<text xml:space="preserve" text-anchor="middle" x="425" y="-176.75" font-family="Helvetica,sans-Serif" font-size="10.00">merge_block</text>
</a>
</g>
</g>
<!-- Node3&#45;&gt;Node8 -->
<g id="edge7_Node000003_Node000008" class="edge">
<title>Node3&#45;&gt;Node8</title>
<g id="a_edge7_Node000003_Node000008"><a xlink:title=" ">
<path fill="none" stroke="#63b8ff" d="M206.84,-114.62C211.36,-116.83 215.74,-119.48 219.5,-122.62 242.76,-142.1 228.99,-165.88 255.5,-180.62 292.75,-201.35 342.2,-198.48 377.88,-192.16"/>
<polygon fill="#63b8ff" stroke="#63b8ff" points="378.31,-195.64 387.46,-190.3 376.98,-188.77 378.31,-195.64"/>
</a>
</g>
</g>
<!-- Node9 -->
<g id="Node000009" class="node">
<title>Node9</title>
<g id="a_Node000009"><a xlink:href="alloc_8c.html#a20488f515fa00a7f76e400191605d0e5" target="_top" xlink:title=" ">
<polygon fill="white" stroke="#666666" points="339.75,-57.25 255.5,-57.25 255.5,-38 339.75,-38 339.75,-57.25"/>
<text xml:space="preserve" text-anchor="middle" x="297.62" y="-43.75" font-family="Helvetica,sans-Serif" font-size="10.00">mrbc_raw_alloc</text>
</a>
</g>
</g>
<!-- Node3&#45;&gt;Node9 -->
<g id="edge8_Node000003_Node000009" class="edge">
<title>Node3&#45;&gt;Node9</title>
<g id="a_edge8_Node000003_Node000009"><a xlink:title=" ">
<path fill="none" stroke="#63b8ff" d="M200.74,-94.55C206.94,-92.06 213.49,-89.33 219.5,-86.62 235.79,-79.28 253.62,-70.33 268.02,-62.86"/>
<polygon fill="#63b8ff" stroke="#63b8ff" points="269.26,-66.16 276.5,-58.42 266.01,-59.96 269.26,-66.16"/>
</a>
</g>
</g>
<!-- Node10 -->
<g id="Node000010" class="node">
<title>Node10</title>
<g id="a_Node000010"><a xlink:href="alloc_8c.html#a87aaed59b60a8efef0f064c04abbd359" target="_top" xlink:title=" ">
<polygon fill="white" stroke="#666666" points="474.25,-95.25 375.75,-95.25 375.75,-76 474.25,-76 474.25,-95.25"/>
<text xml:space="preserve" text-anchor="middle" x="425" y="-81.75" font-family="Helvetica,sans-Serif" font-size="10.00">remove_free_block</text>
</a>
</g>
</g>
<!-- Node3&#45;&gt;Node10 -->
<g id="edge18_Node000003_Node000010" class="edge">
<title>Node3&#45;&gt;Node10</title>
<g id="a_edge18_Node000003_Node000010"><a xlink:title=" ">
<path fill="none" stroke="#63b8ff" d="M219.77,-101.16C260.28,-98.08 319.82,-93.55 364.17,-90.18"/>
<polygon fill="#63b8ff" stroke="#63b8ff" points="364.17,-93.69 373.87,-89.44 363.64,-86.71 364.17,-93.69"/>
</a>
</g>
</g>
<!-- Node11 -->
<g id="Node000011" class="node">
<title>Node11</title>
<g id="a_Node000011"><a xlink:href="alloc_8c.html#a27f88c822326846ffe3755109bee2926" target="_top" xlink:title=" ">
<polygon fill="white" stroke="#666666" points="456.25,-19.25 393.75,-19.25 393.75,0 456.25,0 456.25,-19.25"/>
<text xml:space="preserve" text-anchor="middle" x="425" y="-5.75" font-family="Helvetica,sans-Serif" font-size="10.00">split_block</text>
</a>
</g>
</g>
<!-- Node3&#45;&gt;Node11 -->
<g id="edge19_Node000003_Node000011" class="edge">
<title>Node3&#45;&gt;Node11</title>
<g id="a_edge19_Node000003_Node000011"><a xlink:title=" ">
<path fill="none" stroke="#63b8ff" d="M206.84,-94.63C211.36,-92.42 215.74,-89.77 219.5,-86.62 242.76,-67.15 229.86,-44.84 255.5,-28.62 293.45,-4.63 345.97,-2.48 382.25,-4.67"/>
<polygon fill="#63b8ff" stroke="#63b8ff" points="381.67,-8.13 391.91,-5.39 382.2,-1.15 381.67,-8.13"/>
</a>
</g>
</g>
<!-- Node12 -->
<g id="Node000012" class="node">
<title>Node12</title>
<g id="a_Node000012"><a xlink:href="alloc_8c.html#add284a6bc6f81677d520f64896974572" target="_top" xlink:title=" ">
<polygon fill="white" stroke="#666666" points="337.88,-171.25 257.38,-171.25 257.38,-152 337.88,-152 337.88,-171.25"/>
<text xml:space="preserve" text-anchor="middle" x="297.62" y="-157.75" font-family="Helvetica,sans-Serif" font-size="10.00">mrbc_raw_free</text>
</a>
</g>
</g>
<!-- Node3&#45;&gt;Node12 -->
<g id="edge14_Node000003_Node000012" class="edge">
<title>Node3&#45;&gt;Node12</title>
<g id="a_edge14_Node000003_Node000012"><a xlink:title=" ">
<path fill="none" stroke="#63b8ff" d="M200.74,-114.7C206.94,-117.19 213.49,-119.92 219.5,-122.62 235.79,-129.97 253.62,-138.92 268.02,-146.39"/>
<polygon fill="#63b8ff" stroke="#63b8ff" points="266.01,-149.29 276.5,-150.83 269.26,-143.09 266.01,-149.29"/>
</a>
</g>
</g>
<!-- Node5 -->
<g id="Node000005" class="node">
<title>Node5</title>
<g id="a_Node000005"><a xlink:href="alloc_8c.html#a10f255e05f2f49686909348175f3a5ef" target="_top" xlink:title=" ">
<polygon fill="white" stroke="#666666" points="572.75,-95.25 510.25,-95.25 510.25,-76 572.75,-76 572.75,-95.25"/>
<text xml:space="preserve" text-anchor="middle" x="541.5" y="-81.75" font-family="Helvetica,sans-Serif" font-size="10.00">calc_index</text>
</a>
</g>
</g>
<!-- Node4&#45;&gt;Node5 -->
<g id="edge4_Node000004_Node000005" class="edge">
<title>Node4&#45;&gt;Node5</title>
<g id="a_edge4_Node000004_Node000005"><a xlink:title=" ">
<path fill="none" stroke="#63b8ff" d="M456.38,-113.54C469.69,-109.13 485.5,-103.88 499.8,-99.13"/>
<polygon fill="#63b8ff" stroke="#63b8ff" points="500.55,-102.57 508.94,-96.1 498.34,-95.93 500.55,-102.57"/>
</a>
</g>
</g>
<!-- Node6 -->
<g id="Node000006" class="node">
<title>Node6</title>
<g id="a_Node000006"><a xlink:href="alloc_8c.html#ab77fd7c768950db893e8736d4a27b771" target="_top" xlink:title=" ">
<polygon fill="white" stroke="#666666" points="648,-114.25 608.75,-114.25 608.75,-95 648,-95 648,-114.25"/>
<text xml:space="preserve" text-anchor="middle" x="628.38" y="-100.75" font-family="Helvetica,sans-Serif" font-size="10.00">nlz16</text>
</a>
</g>
</g>
<!-- Node5&#45;&gt;Node6 -->
<g id="edge5_Node000005_Node000006" class="edge">
<title>Node5&#45;&gt;Node6</title>
<g id="a_edge5_Node000005_Node000006"><a xlink:title=" ">
<path fill="none" stroke="#63b8ff" d="M573.14,-92.48C580.96,-94.23 589.36,-96.12 597.16,-97.86"/>
<polygon fill="#63b8ff" stroke="#63b8ff" points="596.38,-101.27 606.9,-100.04 597.91,-94.44 596.38,-101.27"/>
</a>
</g>
</g>
<!-- Node7 -->
<g id="Node000007" class="node">
<title>Node7</title>
<g id="a_Node000007"><a xlink:href="c__numeric_8c.html#a750ec222833802c9789cee1f456cfb21" target="_top" xlink:title=" ">
<polygon fill="white" stroke="#666666" points="645.75,-77.25 611,-77.25 611,-58 645.75,-58 645.75,-77.25"/>
<text xml:space="preserve" text-anchor="middle" x="628.38" y="-63.75" font-family="Helvetica,sans-Serif" font-size="10.00">shift</text>
</a>
</g>
</g>
<!-- Node5&#45;&gt;Node7 -->
<g id="edge6_Node000005_Node000007" class="edge">
<title>Node5&#45;&gt;Node7</title>
<g id="a_edge6_Node000005_Node000007"><a xlink:title=" ">
<path fill="none" stroke="#63b8ff" d="M573.14,-79.13C581.79,-77.29 591.15,-75.31 599.62,-73.51"/>
<polygon fill="#63b8ff" stroke="#63b8ff" points="600.3,-76.95 609.35,-71.45 598.84,-70.1 600.3,-76.95"/>
</a>
</g>
</g>
<!-- Node9&#45;&gt;Node4 -->
<g id="edge9_Node000009_Node000004" class="edge">
<title>Node9&#45;&gt;Node4</title>
<g id="a_edge9_Node000009_Node000004"><a xlink:title=" ">
<path fill="none" stroke="#63b8ff" d="M310.25,-57.74C324.8,-70.03 350.84,-90.83 375.75,-104.62 378.56,-106.18 381.51,-107.67 384.53,-109.08"/>
<polygon fill="#63b8ff" stroke="#63b8ff" points="382.91,-112.19 393.47,-112.97 385.7,-105.77 382.91,-112.19"/>
</a>
</g>
</g>
<!-- Node9&#45;&gt;Node5 -->
<g id="edge10_Node000009_Node000005" class="edge">
<title>Node9&#45;&gt;Node5</title>
<g id="a_edge10_Node000009_Node000005"><a xlink:title=" ">
<path fill="none" stroke="#63b8ff" d="M340.09,-50.1C375.87,-52.71 428.81,-57.72 474.25,-66.62 482.23,-68.19 490.64,-70.26 498.7,-72.46"/>
<polygon fill="#63b8ff" stroke="#63b8ff" points="497.73,-75.83 508.3,-75.21 499.65,-69.1 497.73,-75.83"/>
</a>
</g>
</g>
<!-- Node9&#45;&gt;Node10 -->
<g id="edge11_Node000009_Node000010" class="edge">
<title>Node9&#45;&gt;Node10</title>
<g id="a_edge11_Node000009_Node000010"><a xlink:title=" ">
<path fill="none" stroke="#63b8ff" d="M331.89,-57.71C346.75,-62.21 364.45,-67.58 380.35,-72.39"/>
<polygon fill="#63b8ff" stroke="#63b8ff" points="378.98,-75.64 389.56,-75.19 381.01,-68.94 378.98,-75.64"/>
</a>
</g>
</g>
<!-- Node9&#45;&gt;Node11 -->
<g id="edge13_Node000009_Node000011" class="edge">
<title>Node9&#45;&gt;Node11</title>
<g id="a_edge13_Node000009_Node000011"><a xlink:title=" ">
<path fill="none" stroke="#63b8ff" d="M331.89,-37.54C347.45,-32.83 366.14,-27.16 382.61,-22.17"/>
<polygon fill="#63b8ff" stroke="#63b8ff" points="383.58,-25.53 392.14,-19.28 381.55,-18.83 383.58,-25.53"/>
</a>
</g>
</g>
<!-- Node10&#45;&gt;Node5 -->
<g id="edge12_Node000010_Node000005" class="edge">
<title>Node10&#45;&gt;Node5</title>
<g id="a_edge12_Node000010_Node000005"><a xlink:title=" ">
<path fill="none" stroke="#63b8ff" d="M474.56,-85.62C482.49,-85.62 490.65,-85.62 498.41,-85.62"/>
<polygon fill="#63b8ff" stroke="#63b8ff" points="498.29,-89.13 508.29,-85.63 498.29,-82.13 498.29,-89.13"/>
</a>
</g>
</g>
<!-- Node12&#45;&gt;Node4 -->
<g id="edge15_Node000012_Node000004" class="edge">
<title>Node12&#45;&gt;Node4</title>
<g id="a_edge15_Node000012_Node000004"><a xlink:title=" ">
<path fill="none" stroke="#63b8ff" d="M331.89,-151.54C346.75,-147.04 364.45,-141.67 380.35,-136.86"/>
<polygon fill="#63b8ff" stroke="#63b8ff" points="381.01,-140.31 389.56,-134.06 378.98,-133.61 381.01,-140.31"/>
</a>
</g>
</g>
<!-- Node12&#45;&gt;Node8 -->
<g id="edge16_Node000012_Node000008" class="edge">
<title>Node12&#45;&gt;Node8</title>
<g id="a_edge16_Node000012_Node000008"><a xlink:title=" ">
<path fill="none" stroke="#63b8ff" d="M338.29,-167.64C350.83,-169.54 364.8,-171.65 377.76,-173.62"/>
<polygon fill="#63b8ff" stroke="#63b8ff" points="376.92,-177.03 387.33,-175.07 377.97,-170.11 376.92,-177.03"/>
</a>
</g>
</g>
<!-- Node12&#45;&gt;Node10 -->
<g id="edge17_Node000012_Node000010" class="edge">
<title>Node12&#45;&gt;Node10</title>
<g id="a_edge17_Node000012_Node000010"><a xlink:title=" ">
<path fill="none" stroke="#63b8ff" d="M310.25,-151.51C324.8,-139.22 350.84,-118.42 375.75,-104.62 378.56,-103.07 381.51,-101.58 384.53,-100.17"/>
<polygon fill="#63b8ff" stroke="#63b8ff" points="385.7,-103.48 393.47,-96.28 382.91,-97.06 385.7,-103.48"/>
</a>
</g>
</g>
</g>
</svg>

<g id="navigator" transform="translate(0 0)" fill="#404254">
  <rect fill="#f2f5e9" fill-opacity="0.5" stroke="#606060" stroke-width=".5" x="0" y="0" width="60" height="60"/>
  <use id="zoomplus" xlink:href="#zoomPlus" x="17" y="9" onmousedown="handleZoom(evt,'in')"/>
  <use id="zoomminus" xlink:href="#zoomMin" x="42" y="9" onmousedown="handleZoom(evt,'out')"/>
  <use id="reset" xlink:href="#resetDef" x="30" y="36" onmousedown="handleReset()"/>
   <use id="arrowup" xlink:href="#arrowUp" x="0" y="0" onmousedown="handlePan(0,-1)"/>
  <use id="arrowright" xlink:href="#arrowRight" x="0" y="0" onmousedown="handlePan(1,0)"/>
  <use id="arrowdown" xlink:href="#arrowDown" x="0" y="0" onmousedown="handlePan(0,1)"/>
  <use id="arrowleft" xlink:href="#arrowLeft" x="0" y="0" onmousedown="handlePan(-1,0)"/>
</g>
<svg viewBox="0 0 15 15" width="100%" height="30px" preserveAspectRatio="xMaxYMin meet">
 <g id="arrow_out" transform="scale(0.3 0.3)">
  <a xlink:href="c__string_8c_af503f749a0a7df664c057e9cb24239c6_cgraph_org.svg" target="_base">
   <rect id="button" ry="5" rx="5" y="6" x="6" height="38" width="38"
        fill="#f2f5e9" fill-opacity="0.5" stroke="#606060" stroke-width="1.0"/>
   <path id="arrow"
     d="M 11.500037,31.436501 C 11.940474,20.09759 22.043105,11.32322 32.158766,21.979434 L 37.068811,17.246167 C 37.068811,17.246167 37.088388,32 37.088388,32 L 22.160133,31.978069 C 22.160133,31.978069 26.997745,27.140456 26.997745,27.140456 C 18.528582,18.264221 13.291696,25.230495 11.500037,31.436501 z"
     style="fill:#404040;"/>
  </a>
 </g>
</svg>

<style type='text/css'>
<![CDATA[
[data-mouse-over-selected='false'] { opacity: 0.7; }
[data-mouse-over-selected='true']  { opacity: 1.0; }
]]>
</style>
<script type="application/ecmascript"><![CDATA[
document.addEventListener('DOMContentLoaded', (event) => {
  highlightEdges();
  highlightAdjacentNodes();
});
]]></script>
</svg>
