<?xml version="1.0" encoding="UTF-8" standalone="no"?>
<!DOCTYPE svg PUBLIC "-//W3C//DTD SVG 1.1//EN"
 "http://www.w3.org/Graphics/SVG/1.1/DTD/svg11.dtd">
<!-- Generated by graphviz version 3.0.0 (20220226.1711)
 -->
<!-- Title: class.c Pages: 1 -->
<!--zoomable 252 -->
<svg id="main" version="1.1" xmlns="http://www.w3.org/2000/svg" xmlns:xlink="http://www.w3.org/1999/xlink" xml:space="preserve" onload="init(evt)">
<style type="text/css"><![CDATA[
.edge:hover path { stroke: red; }
.edge:hover polygon { stroke: red; fill: red; }
]]></style>
<script type="text/javascript"><![CDATA[
var edges = document.getElementsByTagName('g');
if (edges && edges.length) {
  for (var i=0;i<edges.length;i++) {
    if (edges[i].id.substr(0,4)=='edge') {
      edges[i].setAttribute('class','edge');
    }
  }
}
]]></script>
        <defs>
                <circle id="rim" cx="0" cy="0" r="7"/>
                <circle id="rim2" cx="0" cy="0" r="3.5"/>
                <g id="zoomPlus">
                        <use xlink:href="#rim" fill="#404040">
                                <set attributeName="fill" to="#808080" begin="zoomplus.mouseover" end="zoomplus.mouseout"/>
                        </use>
                        <path d="M-4,0h8M0,-4v8" fill="none" stroke="white" stroke-width="1.5" pointer-events="none"/>
                </g>
                <g id="zoomMin">
                        <use xlink:href="#rim" fill="#404040">
                                <set attributeName="fill" to="#808080" begin="zoomminus.mouseover" end="zoomminus.mouseout"/>
                        </use>
                        <path d="M-4,0h8" fill="none" stroke="white" stroke-width="1.5" pointer-events="none"/>
                </g>
                <g id="dirArrow">
                        <path fill="none" stroke="white" stroke-width="1.5" d="M0,-3.0v7 M-2.5,-0.5L0,-3.0L2.5,-0.5"/>
                </g>
               <g id="resetDef">
                       <use xlink:href="#rim2" fill="#404040">
                               <set attributeName="fill" to="#808080" begin="reset.mouseover" end="reset.mouseout"/>
                       </use>
               </g>
        </defs>

<script type="text/javascript">
var viewWidth = 669;
var viewHeight = 252;
var sectionId = 'dynsection-0';
</script>
<script xlink:href="svgpan.js"/>
<svg id="graph" class="graph">
<g id="viewport">
<title>class.c</title>
<polygon fill="white" stroke="transparent" points="-4,4 -4,-248 665.19,-248 665.19,4 -4,4"/>
<!-- Node1 -->
<g id="node1" class="node">
<title>Node1</title>
<g id="a_node1"><a xlink:title="Class related functions.">
<polygon fill="#bfbfbf" stroke="black" points="321,-224.5 321,-243.5 369,-243.5 369,-224.5 321,-224.5"/>
<text text-anchor="middle" x="345" y="-231.5" font-family="Helvetica,sans-Serif" font-size="10.00">class.c</text>
</a>
</g>
</g>
<!-- Node2 -->
<g id="node2" class="node">
<title>Node2</title>
<g id="a_node2"><a xlink:href="alloc_8h.html" target="_top" xlink:title="mruby/c memory management.">
<polygon fill="white" stroke="black" points="150.5,-56.5 150.5,-75.5 195.5,-75.5 195.5,-56.5 150.5,-56.5"/>
<text text-anchor="middle" x="173" y="-63.5" font-family="Helvetica,sans-Serif" font-size="10.00">alloc.h</text>
</a>
</g>
</g>
<!-- Node1&#45;&gt;Node2 -->
<g id="edge1" class="edge">
<title>Node1&#45;&gt;Node2</title>
<path fill="none" stroke="midnightblue" d="M335.75,-224.08C307.98,-197.27 225,-117.19 189.46,-82.89"/>
<polygon fill="midnightblue" stroke="midnightblue" points="191.5,-79.99 181.88,-75.57 186.64,-85.03 191.5,-79.99"/>
</g>
<!-- Node3 -->
<g id="node3" class="node">
<title>Node3</title>
<g id="a_node3"><a xlink:href="value_8h.html" target="_top" xlink:title="mruby/c value definitions">
<polygon fill="white" stroke="black" points="363,-0.5 363,-19.5 411,-19.5 411,-0.5 363,-0.5"/>
<text text-anchor="middle" x="387" y="-7.5" font-family="Helvetica,sans-Serif" font-size="10.00">value.h</text>
</a>
</g>
</g>
<!-- Node1&#45;&gt;Node3 -->
<g id="edge2" class="edge">
<title>Node1&#45;&gt;Node3</title>
<path fill="none" stroke="midnightblue" d="M369.09,-231.23C427.08,-226.61 572.7,-212.81 614,-188 640.9,-171.84 646.91,-161.71 657,-132 690.56,-33.2 500.87,-15.01 421.09,-11.71"/>
<polygon fill="midnightblue" stroke="midnightblue" points="421.15,-8.21 411.03,-11.35 420.9,-15.2 421.15,-8.21"/>
</g>
<!-- Node4 -->
<g id="node4" class="node">
<title>Node4</title>
<g id="a_node4"><a xlink:href="symbol_8h.html" target="_top" xlink:title="mruby/c Symbol class">
<polygon fill="white" stroke="red" points="0,-112.5 0,-131.5 56,-131.5 56,-112.5 0,-112.5"/>
<text text-anchor="middle" x="28" y="-119.5" font-family="Helvetica,sans-Serif" font-size="10.00">symbol.h</text>
</a>
</g>
</g>
<!-- Node1&#45;&gt;Node4 -->
<g id="edge3" class="edge">
<title>Node1&#45;&gt;Node4</title>
<path fill="none" stroke="midnightblue" d="M320.79,-233.23C274.36,-232.7 170.72,-226.86 95,-188 72.58,-176.49 52.68,-154.99 40.51,-139.87"/>
<polygon fill="midnightblue" stroke="midnightblue" points="43.17,-137.59 34.27,-131.83 37.64,-141.88 43.17,-137.59"/>
</g>
<!-- Node6 -->
<g id="node5" class="node">
<title>Node6</title>
<g id="a_node5"><a xlink:href="error_8h.html" target="_top" xlink:title="exception classes">
<polygon fill="white" stroke="black" points="214,-56.5 214,-75.5 258,-75.5 258,-56.5 214,-56.5"/>
<text text-anchor="middle" x="236" y="-63.5" font-family="Helvetica,sans-Serif" font-size="10.00">error.h</text>
</a>
</g>
</g>
<!-- Node1&#45;&gt;Node6 -->
<g id="edge5" class="edge">
<title>Node1&#45;&gt;Node6</title>
<path fill="none" stroke="midnightblue" d="M339.14,-224.08C321.76,-197.61 270.28,-119.21 247.3,-84.21"/>
<polygon fill="midnightblue" stroke="midnightblue" points="250.04,-82.01 241.63,-75.57 244.19,-85.85 250.04,-82.01"/>
</g>
<!-- Node7 -->
<g id="node6" class="node">
<title>Node7</title>
<g id="a_node6"><a xlink:href="keyvalue_8h.html" target="_top" xlink:title="mruby/c Key(Symbol) &#45; Value store.">
<polygon fill="white" stroke="black" points="276,-56.5 276,-75.5 340,-75.5 340,-56.5 276,-56.5"/>
<text text-anchor="middle" x="308" y="-63.5" font-family="Helvetica,sans-Serif" font-size="10.00">keyvalue.h</text>
</a>
</g>
</g>
<!-- Node1&#45;&gt;Node7 -->
<g id="edge7" class="edge">
<title>Node1&#45;&gt;Node7</title>
<path fill="none" stroke="midnightblue" d="M342.84,-224.38C338.5,-206.96 328.51,-166.33 321,-132 317.61,-116.52 314.11,-98.89 311.59,-85.9"/>
<polygon fill="midnightblue" stroke="midnightblue" points="314.99,-85.01 309.67,-75.85 308.11,-86.33 314.99,-85.01"/>
</g>
<!-- Node8 -->
<g id="node7" class="node">
<title>Node8</title>
<g id="a_node7"><a xlink:href="class_8h.html" target="_top" xlink:title="Class related functions.">
<polygon fill="white" stroke="black" points="330,-112.5 330,-131.5 378,-131.5 378,-112.5 330,-112.5"/>
<text text-anchor="middle" x="354" y="-119.5" font-family="Helvetica,sans-Serif" font-size="10.00">class.h</text>
</a>
</g>
</g>
<!-- Node1&#45;&gt;Node8 -->
<g id="edge9" class="edge">
<title>Node1&#45;&gt;Node8</title>
<path fill="none" stroke="midnightblue" d="M345.71,-224.37C347.16,-206.62 350.51,-165.67 352.48,-141.6"/>
<polygon fill="midnightblue" stroke="midnightblue" points="355.97,-141.84 353.3,-131.59 348.99,-141.27 355.97,-141.84"/>
</g>
<!-- Node9 -->
<g id="node8" class="node">
<title>Node9</title>
<g id="a_node8"><a xlink:href="c__string_8h.html" target="_top" xlink:title="mruby/c String class">
<polygon fill="white" stroke="black" points="434.5,-56.5 434.5,-75.5 493.5,-75.5 493.5,-56.5 434.5,-56.5"/>
<text text-anchor="middle" x="464" y="-63.5" font-family="Helvetica,sans-Serif" font-size="10.00">c_string.h</text>
</a>
</g>
</g>
<!-- Node1&#45;&gt;Node9 -->
<g id="edge13" class="edge">
<title>Node1&#45;&gt;Node9</title>
<path fill="none" stroke="midnightblue" d="M367.52,-224.38C384.1,-217 406.09,-204.87 420,-188 445.16,-157.49 456.56,-111.37 461.2,-85.78"/>
<polygon fill="midnightblue" stroke="midnightblue" points="464.7,-86.03 462.88,-75.59 457.8,-84.89 464.7,-86.03"/>
</g>
<!-- Node10 -->
<g id="node9" class="node">
<title>Node10</title>
<g id="a_node9"><a xlink:href="c__array_8h.html" target="_top" xlink:title="mruby/c Array class">
<polygon fill="white" stroke="black" points="127,-112.5 127,-131.5 183,-131.5 183,-112.5 127,-112.5"/>
<text text-anchor="middle" x="155" y="-119.5" font-family="Helvetica,sans-Serif" font-size="10.00">c_array.h</text>
</a>
</g>
</g>
<!-- Node1&#45;&gt;Node10 -->
<g id="edge15" class="edge">
<title>Node1&#45;&gt;Node10</title>
<path fill="none" stroke="midnightblue" d="M320.73,-228.76C292.7,-223.01 246.06,-210.74 212,-188 193.16,-175.42 176.72,-155.08 166.4,-140.5"/>
<polygon fill="midnightblue" stroke="midnightblue" points="169.06,-138.19 160.54,-131.89 163.27,-142.13 169.06,-138.19"/>
</g>
<!-- Node11 -->
<g id="node10" class="node">
<title>Node11</title>
<g id="a_node10"><a xlink:href="c__hash_8h.html" target="_top" xlink:title="mruby/c Hash class">
<polygon fill="white" stroke="black" points="104,-168.5 104,-187.5 160,-187.5 160,-168.5 104,-168.5"/>
<text text-anchor="middle" x="132" y="-175.5" font-family="Helvetica,sans-Serif" font-size="10.00">c_hash.h</text>
</a>
</g>
</g>
<!-- Node1&#45;&gt;Node11 -->
<g id="edge18" class="edge">
<title>Node1&#45;&gt;Node11</title>
<path fill="none" stroke="midnightblue" d="M320.98,-226.91C284.24,-217.6 213.75,-199.73 170.02,-188.64"/>
<polygon fill="midnightblue" stroke="midnightblue" points="170.87,-185.24 160.32,-186.18 169.15,-192.03 170.87,-185.24"/>
</g>
<!-- Node12 -->
<g id="node11" class="node">
<title>Node12</title>
<g id="a_node11"><a xlink:href="global_8h.html" target="_top" xlink:title="Constant and global variables.">
<polygon fill="white" stroke="black" points="472,-168.5 472,-187.5 522,-187.5 522,-168.5 472,-168.5"/>
<text text-anchor="middle" x="497" y="-175.5" font-family="Helvetica,sans-Serif" font-size="10.00">global.h</text>
</a>
</g>
</g>
<!-- Node1&#45;&gt;Node12 -->
<g id="edge21" class="edge">
<title>Node1&#45;&gt;Node12</title>
<path fill="none" stroke="midnightblue" d="M369.08,-224.44C394.54,-215.4 434.89,-201.06 463.46,-190.92"/>
<polygon fill="midnightblue" stroke="midnightblue" points="464.78,-194.16 473.03,-187.52 462.43,-187.57 464.78,-194.16"/>
</g>
<!-- Node13 -->
<g id="node12" class="node">
<title>Node13</title>
<g id="a_node12"><a xlink:href="vm_8h.html" target="_top" xlink:title="mruby bytecode executor.">
<polygon fill="white" stroke="black" points="373,-168.5 373,-187.5 411,-187.5 411,-168.5 373,-168.5"/>
<text text-anchor="middle" x="392" y="-175.5" font-family="Helvetica,sans-Serif" font-size="10.00">vm.h</text>
</a>
</g>
</g>
<!-- Node1&#45;&gt;Node13 -->
<g id="edge23" class="edge">
<title>Node1&#45;&gt;Node13</title>
<path fill="none" stroke="midnightblue" d="M352.76,-224.08C359.54,-216.3 369.54,-204.8 377.76,-195.37"/>
<polygon fill="midnightblue" stroke="midnightblue" points="380.46,-197.59 384.38,-187.75 375.18,-193 380.46,-197.59"/>
</g>
<!-- Node14 -->
<g id="node13" class="node">
<title>Node14</title>
<g id="a_node13"><a xlink:href="load_8h.html" target="_top" xlink:title="mruby bytecode loader.">
<polygon fill="white" stroke="black" points="540.5,-168.5 540.5,-187.5 583.5,-187.5 583.5,-168.5 540.5,-168.5"/>
<text text-anchor="middle" x="562" y="-175.5" font-family="Helvetica,sans-Serif" font-size="10.00">load.h</text>
</a>
</g>
</g>
<!-- Node1&#45;&gt;Node14 -->
<g id="edge26" class="edge">
<title>Node1&#45;&gt;Node14</title>
<path fill="none" stroke="midnightblue" d="M369.17,-227.52C402.99,-219.77 466.6,-204.92 530.51,-188.03"/>
<polygon fill="midnightblue" stroke="midnightblue" points="531.59,-191.37 540.35,-185.42 529.79,-184.6 531.59,-191.37"/>
</g>
<!-- Node15 -->
<g id="node14" class="node">
<title>Node15</title>
<g id="a_node14"><a xlink:href="console_8h.html" target="_top" xlink:title="console output module. (not yet input)">
<polygon fill="white" stroke="black" points="588.5,-112.5 588.5,-131.5 647.5,-131.5 647.5,-112.5 588.5,-112.5"/>
<text text-anchor="middle" x="618" y="-119.5" font-family="Helvetica,sans-Serif" font-size="10.00">console.h</text>
</a>
</g>
</g>
<!-- Node1&#45;&gt;Node15 -->
<g id="edge28" class="edge">
<title>Node1&#45;&gt;Node15</title>
<path fill="none" stroke="midnightblue" d="M369.32,-231.57C424.9,-227.85 559.04,-216.12 593,-188 606.8,-176.57 613,-156.59 615.78,-141.79"/>
<polygon fill="midnightblue" stroke="midnightblue" points="619.27,-142.12 617.3,-131.71 612.35,-141.07 619.27,-142.12"/>
</g>
<!-- Node4&#45;&gt;Node3 -->
<g id="edge4" class="edge">
<title>Node4&#45;&gt;Node3</title>
<path fill="none" stroke="midnightblue" d="M30.98,-112.1C36.32,-97.68 48.95,-69.47 70,-56 116.32,-26.37 280.38,-15.66 352.53,-12.32"/>
<polygon fill="midnightblue" stroke="midnightblue" points="353.05,-15.81 362.88,-11.87 352.74,-8.81 353.05,-15.81"/>
</g>
<!-- Node6&#45;&gt;Node3 -->
<g id="edge6" class="edge">
<title>Node6&#45;&gt;Node3</title>
<path fill="none" stroke="midnightblue" d="M258.28,-57.03C283.38,-48.06 324.44,-33.37 353.43,-23.01"/>
<polygon fill="midnightblue" stroke="midnightblue" points="354.89,-26.2 363.13,-19.54 352.54,-19.61 354.89,-26.2"/>
</g>
<!-- Node7&#45;&gt;Node3 -->
<g id="edge8" class="edge">
<title>Node7&#45;&gt;Node3</title>
<path fill="none" stroke="midnightblue" d="M320.69,-56.32C332.9,-47.98 351.58,-35.21 366,-25.35"/>
<polygon fill="midnightblue" stroke="midnightblue" points="368.06,-28.19 374.34,-19.65 364.11,-22.41 368.06,-28.19"/>
</g>
<!-- Node8&#45;&gt;Node3 -->
<g id="edge10" class="edge">
<title>Node8&#45;&gt;Node3</title>
<path fill="none" stroke="midnightblue" d="M356.59,-112.37C361.94,-94.54 374.31,-53.3 381.52,-29.27"/>
<polygon fill="midnightblue" stroke="midnightblue" points="384.9,-30.18 384.42,-19.59 378.2,-28.16 384.9,-30.18"/>
</g>
<!-- Node8&#45;&gt;Node6 -->
<g id="edge12" class="edge">
<title>Node8&#45;&gt;Node6</title>
<path fill="none" stroke="midnightblue" d="M335.3,-112.44C316.06,-103.64 285.85,-89.81 263.8,-79.72"/>
<polygon fill="midnightblue" stroke="midnightblue" points="265.16,-76.5 254.61,-75.52 262.25,-82.86 265.16,-76.5"/>
</g>
<!-- Node8&#45;&gt;Node7 -->
<g id="edge11" class="edge">
<title>Node8&#45;&gt;Node7</title>
<path fill="none" stroke="midnightblue" d="M346.4,-112.08C339.77,-104.3 329.98,-92.8 321.94,-83.37"/>
<polygon fill="midnightblue" stroke="midnightblue" points="324.6,-81.09 315.45,-75.75 319.27,-85.63 324.6,-81.09"/>
</g>
<!-- Node9&#45;&gt;Node3 -->
<g id="edge14" class="edge">
<title>Node9&#45;&gt;Node3</title>
<path fill="none" stroke="midnightblue" d="M451.63,-56.32C439.84,-48.06 421.87,-35.45 407.86,-25.63"/>
<polygon fill="midnightblue" stroke="midnightblue" points="409.54,-22.53 399.34,-19.65 405.52,-28.26 409.54,-22.53"/>
</g>
<!-- Node10&#45;&gt;Node2 -->
<g id="edge16" class="edge">
<title>Node10&#45;&gt;Node2</title>
<path fill="none" stroke="midnightblue" d="M157.97,-112.08C160.38,-104.85 163.86,-94.41 166.87,-85.4"/>
<polygon fill="midnightblue" stroke="midnightblue" points="170.24,-86.34 170.08,-75.75 163.6,-84.13 170.24,-86.34"/>
</g>
<!-- Node10&#45;&gt;Node3 -->
<g id="edge17" class="edge">
<title>Node10&#45;&gt;Node3</title>
<path fill="none" stroke="midnightblue" d="M149.07,-112.34C140.58,-98.76 127.4,-72.31 141,-56 167.55,-24.15 291.46,-14.77 352.64,-12.07"/>
<polygon fill="midnightblue" stroke="midnightblue" points="353.1,-15.55 362.95,-11.65 352.81,-8.56 353.1,-15.55"/>
</g>
<!-- Node11&#45;&gt;Node3 -->
<g id="edge19" class="edge">
<title>Node11&#45;&gt;Node3</title>
<path fill="none" stroke="midnightblue" d="M128.38,-168.33C119.63,-145.88 100.34,-85.51 132,-56 163.48,-26.66 290.46,-16.04 352.52,-12.55"/>
<polygon fill="midnightblue" stroke="midnightblue" points="352.81,-16.04 362.61,-12.01 352.43,-9.04 352.81,-16.04"/>
</g>
<!-- Node11&#45;&gt;Node10 -->
<g id="edge20" class="edge">
<title>Node11&#45;&gt;Node10</title>
<path fill="none" stroke="midnightblue" d="M135.8,-168.08C138.91,-160.77 143.42,-150.18 147.29,-141.1"/>
<polygon fill="midnightblue" stroke="midnightblue" points="150.57,-142.32 151.27,-131.75 144.13,-139.58 150.57,-142.32"/>
</g>
<!-- Node12&#45;&gt;Node3 -->
<g id="edge22" class="edge">
<title>Node12&#45;&gt;Node3</title>
<path fill="none" stroke="midnightblue" d="M500.53,-168.44C508.65,-147.23 526.18,-91.43 502,-56 484.07,-29.74 448.32,-18.8 421.41,-14.25"/>
<polygon fill="midnightblue" stroke="midnightblue" points="421.63,-10.74 411.23,-12.75 420.61,-17.67 421.63,-10.74"/>
</g>
<!-- Node13&#45;&gt;Node3 -->
<g id="edge24" class="edge">
<title>Node13&#45;&gt;Node3</title>
<path fill="none" stroke="midnightblue" d="M391.73,-168.08C390.94,-141.95 388.63,-65.21 387.56,-29.58"/>
<polygon fill="midnightblue" stroke="midnightblue" points="391.06,-29.46 387.26,-19.57 384.06,-29.67 391.06,-29.46"/>
</g>
<!-- Node13&#45;&gt;Node8 -->
<g id="edge25" class="edge">
<title>Node13&#45;&gt;Node8</title>
<path fill="none" stroke="midnightblue" d="M385.73,-168.08C380.36,-160.46 372.48,-149.26 365.92,-139.94"/>
<polygon fill="midnightblue" stroke="midnightblue" points="368.78,-137.91 360.16,-131.75 363.05,-141.94 368.78,-137.91"/>
</g>
<!-- Node14&#45;&gt;Node3 -->
<g id="edge27" class="edge">
<title>Node14&#45;&gt;Node3</title>
<path fill="none" stroke="midnightblue" d="M561.6,-168.33C560.12,-146.38 553.2,-88.11 521,-56 494.26,-29.34 451.26,-18.47 421.2,-14.04"/>
<polygon fill="midnightblue" stroke="midnightblue" points="421.53,-10.55 411.16,-12.73 420.62,-17.49 421.53,-10.55"/>
</g>
<!-- Node15&#45;&gt;Node3 -->
<g id="edge29" class="edge">
<title>Node15&#45;&gt;Node3</title>
<path fill="none" stroke="midnightblue" d="M614.6,-112.32C608.62,-98.21 594.83,-70.44 574,-56 527.64,-23.88 461.05,-14.55 421.11,-11.93"/>
<polygon fill="midnightblue" stroke="midnightblue" points="421.25,-8.43 411.07,-11.37 420.86,-15.42 421.25,-8.43"/>
</g>
</g>
</svg>
        <g id="navigator" transform="translate(0 0)" fill="#404254">
                <rect fill="#f2f5e9" fill-opacity="0.5" stroke="#606060" stroke-width=".5" x="0" y="0" width="60" height="60"/>
                <use id="zoomplus" xlink:href="#zoomPlus" x="17" y="9" onmousedown="handleZoom(evt,'in')"/>
                <use id="zoomminus" xlink:href="#zoomMin" x="42" y="9" onmousedown="handleZoom(evt,'out')"/>
                <use id="reset" xlink:href="#resetDef" x="30" y="36" onmousedown="handleReset()"/>
                <g id="arrowUp" xlink:href="#dirArrow" transform="translate(30 24)" onmousedown="handlePan(0,-1)">
                  <use xlink:href="#rim" fill="#404040">
                        <set attributeName="fill" to="#808080" begin="arrowUp.mouseover" end="arrowUp.mouseout"/>
                  </use>
                  <path fill="none" stroke="white" stroke-width="1.5" d="M0,-3.0v7 M-2.5,-0.5L0,-3.0L2.5,-0.5"/>
                </g>
                <g id="arrowRight" xlink:href="#dirArrow" transform="rotate(90) translate(36 -43)" onmousedown="handlePan(1,0)">
                  <use xlink:href="#rim" fill="#404040">
                        <set attributeName="fill" to="#808080" begin="arrowRight.mouseover" end="arrowRight.mouseout"/>
                  </use>
                  <path fill="none" stroke="white" stroke-width="1.5" d="M0,-3.0v7 M-2.5,-0.5L0,-3.0L2.5,-0.5"/>
                </g>
                <g id="arrowDown" xlink:href="#dirArrow" transform="rotate(180) translate(-30 -48)" onmousedown="handlePan(0,1)">
                  <use xlink:href="#rim" fill="#404040">
                        <set attributeName="fill" to="#808080" begin="arrowDown.mouseover" end="arrowDown.mouseout"/>
                  </use>
                  <path fill="none" stroke="white" stroke-width="1.5" d="M0,-3.0v7 M-2.5,-0.5L0,-3.0L2.5,-0.5"/>
                </g>
                <g id="arrowLeft" xlink:href="#dirArrow" transform="rotate(270) translate(-36 17)" onmousedown="handlePan(-1,0)">
                  <use xlink:href="#rim" fill="#404040">
                        <set attributeName="fill" to="#808080" begin="arrowLeft.mouseover" end="arrowLeft.mouseout"/>
                  </use>
                  <path fill="none" stroke="white" stroke-width="1.5" d="M0,-3.0v7 M-2.5,-0.5L0,-3.0L2.5,-0.5"/>
                </g>
        </g>
        <svg viewBox="0 0 15 15" width="100%" height="30px" preserveAspectRatio="xMaxYMin meet">
         <g id="arrow_out" transform="scale(0.3 0.3)">
          <a xlink:href="class_8c__incl_org.svg" target="_base">
           <rect id="button" ry="5" rx="5" y="6" x="6" height="38" width="38"
                fill="#f2f5e9" fill-opacity="0.5" stroke="#606060" stroke-width="1.0"/>
           <path id="arrow"
             d="M 11.500037,31.436501 C 11.940474,20.09759 22.043105,11.32322 32.158766,21.979434 L 37.068811,17.246167 C 37.068811,17.246167 37.088388,32 37.088388,32 L 22.160133,31.978069 C 22.160133,31.978069 26.997745,27.140456 26.997745,27.140456 C 18.528582,18.264221 13.291696,25.230495 11.500037,31.436501 z"
             style="fill:#404040;"/>
          </a>
         </g>
        </svg>
</svg>
