<?xml version="1.0" encoding="UTF-8" standalone="no"?>
<!DOCTYPE svg PUBLIC "-//W3C//DTD SVG 1.1//EN"
 "http://www.w3.org/Graphics/SVG/1.1/DTD/svg11.dtd">
<!-- Generated by graphviz version 3.0.0 (20220226.1711)
 -->
<!-- Title: class.h Pages: 1 -->
<svg width="145pt" height="140pt"
 viewBox="0.00 0.00 145.19 140.00" xmlns="http://www.w3.org/2000/svg" xmlns:xlink="http://www.w3.org/1999/xlink">
<g id="graph0" class="graph" transform="scale(1 1) rotate(0) translate(4 136)">
<title>class.h</title>
<polygon fill="white" stroke="transparent" points="-4,4 -4,-136 141.19,-136 141.19,4 -4,4"/>
<!-- Node1 -->
<g id="node1" class="node">
<title>Node1</title>
<g id="a_node1"><a xlink:title="Class related functions.">
<polygon fill="#bfbfbf" stroke="black" points="19.19,-112.5 19.19,-131.5 67.19,-131.5 67.19,-112.5 19.19,-112.5"/>
<text text-anchor="middle" x="43.19" y="-119.5" font-family="Helvetica,sans-Serif" font-size="10.00">class.h</text>
</a>
</g>
</g>
<!-- Node2 -->
<g id="node2" class="node">
<title>Node2</title>
<g id="a_node2"><a xlink:href="value_8h.html" target="_top" xlink:title="mruby/c value definitions">
<polygon fill="white" stroke="black" points="19.19,-0.5 19.19,-19.5 67.19,-19.5 67.19,-0.5 19.19,-0.5"/>
<text text-anchor="middle" x="43.19" y="-7.5" font-family="Helvetica,sans-Serif" font-size="10.00">value.h</text>
</a>
</g>
</g>
<!-- Node1&#45;&gt;Node2 -->
<g id="edge1" class="edge">
<title>Node1&#45;&gt;Node2</title>
<path fill="none" stroke="midnightblue" d="M31.65,-112.49C21.71,-104.38 8.07,-91.18 2.19,-76 -4.9,-57.69 9.7,-38.96 23.4,-26.34"/>
<polygon fill="midnightblue" stroke="midnightblue" points="25.88,-28.82 31.2,-19.66 21.32,-23.51 25.88,-28.82"/>
</g>
<!-- Node3 -->
<g id="node3" class="node">
<title>Node3</title>
<g id="a_node3"><a xlink:href="keyvalue_8h.html" target="_top" xlink:title="mruby/c Key(Symbol) &#45; Value store.">
<polygon fill="white" stroke="black" points="11.19,-56.5 11.19,-75.5 75.19,-75.5 75.19,-56.5 11.19,-56.5"/>
<text text-anchor="middle" x="43.19" y="-63.5" font-family="Helvetica,sans-Serif" font-size="10.00">keyvalue.h</text>
</a>
</g>
</g>
<!-- Node1&#45;&gt;Node3 -->
<g id="edge2" class="edge">
<title>Node1&#45;&gt;Node3</title>
<path fill="none" stroke="midnightblue" d="M43.19,-112.08C43.19,-105.01 43.19,-94.86 43.19,-85.99"/>
<polygon fill="midnightblue" stroke="midnightblue" points="46.69,-85.75 43.19,-75.75 39.69,-85.75 46.69,-85.75"/>
</g>
<!-- Node4 -->
<g id="node4" class="node">
<title>Node4</title>
<g id="a_node4"><a xlink:href="error_8h.html" target="_top" xlink:title="exception classes">
<polygon fill="white" stroke="black" points="93.19,-56.5 93.19,-75.5 137.19,-75.5 137.19,-56.5 93.19,-56.5"/>
<text text-anchor="middle" x="115.19" y="-63.5" font-family="Helvetica,sans-Serif" font-size="10.00">error.h</text>
</a>
</g>
</g>
<!-- Node1&#45;&gt;Node4 -->
<g id="edge4" class="edge">
<title>Node1&#45;&gt;Node4</title>
<path fill="none" stroke="midnightblue" d="M54.76,-112.32C65.61,-104.18 82.07,-91.84 95.07,-82.09"/>
<polygon fill="midnightblue" stroke="midnightblue" points="97.51,-84.63 103.41,-75.83 93.31,-79.03 97.51,-84.63"/>
</g>
<!-- Node3&#45;&gt;Node2 -->
<g id="edge3" class="edge">
<title>Node3&#45;&gt;Node2</title>
<path fill="none" stroke="midnightblue" d="M43.19,-56.08C43.19,-49.01 43.19,-38.86 43.19,-29.99"/>
<polygon fill="midnightblue" stroke="midnightblue" points="46.69,-29.75 43.19,-19.75 39.69,-29.75 46.69,-29.75"/>
</g>
<!-- Node4&#45;&gt;Node2 -->
<g id="edge5" class="edge">
<title>Node4&#45;&gt;Node2</title>
<path fill="none" stroke="midnightblue" d="M103.62,-56.32C92.77,-48.18 76.31,-35.84 63.31,-26.09"/>
<polygon fill="midnightblue" stroke="midnightblue" points="65.07,-23.03 54.97,-19.83 60.87,-28.63 65.07,-23.03"/>
</g>
</g>
</svg>
