<?xml version="1.0" encoding="UTF-8" standalone="no"?>
<!DOCTYPE svg PUBLIC "-//W3C//DTD SVG 1.1//EN"
 "http://www.w3.org/Graphics/SVG/1.1/DTD/svg11.dtd">
<!-- Generated by graphviz version 3.0.0 (20220226.1711)
 -->
<!-- Title: class.h Pages: 1 -->
<svg width="987pt" height="140pt"
 viewBox="0.00 0.00 987.00 140.00" xmlns="http://www.w3.org/2000/svg" xmlns:xlink="http://www.w3.org/1999/xlink">
<g id="graph0" class="graph" transform="scale(1 1) rotate(0) translate(4 136)">
<title>class.h</title>
<polygon fill="white" stroke="transparent" points="-4,4 -4,-136 983,-136 983,4 -4,4"/>
<!-- Node1 -->
<g id="node1" class="node">
<title>Node1</title>
<g id="a_node1"><a xlink:title="Class related functions.">
<polygon fill="#bfbfbf" stroke="black" points="459,-112.5 459,-131.5 507,-131.5 507,-112.5 459,-112.5"/>
<text text-anchor="middle" x="483" y="-119.5" font-family="Helvetica,sans-Serif" font-size="10.00">class.h</text>
</a>
</g>
</g>
<!-- Node2 -->
<g id="node2" class="node">
<title>Node2</title>
<g id="a_node2"><a xlink:href="c__array_8c.html" target="_top" xlink:title="mruby/c Array class">
<polygon fill="white" stroke="black" points="0,-56.5 0,-75.5 56,-75.5 56,-56.5 0,-56.5"/>
<text text-anchor="middle" x="28" y="-63.5" font-family="Helvetica,sans-Serif" font-size="10.00">c_array.c</text>
</a>
</g>
</g>
<!-- Node1&#45;&gt;Node2 -->
<g id="edge1" class="edge">
<title>Node1&#45;&gt;Node2</title>
<path fill="none" stroke="midnightblue" d="M448.56,-118.83C376.81,-113.97 206.22,-100.67 65,-76 62.13,-75.5 59.16,-74.91 56.2,-74.26"/>
<polygon fill="midnightblue" stroke="midnightblue" points="448.6,-122.34 458.81,-119.51 449.07,-115.36 448.6,-122.34"/>
</g>
<!-- Node3 -->
<g id="node3" class="node">
<title>Node3</title>
<g id="a_node3"><a xlink:href="c__hash_8c.html" target="_top" xlink:title="mruby/c Hash class">
<polygon fill="white" stroke="black" points="74,-56.5 74,-75.5 130,-75.5 130,-56.5 74,-56.5"/>
<text text-anchor="middle" x="102" y="-63.5" font-family="Helvetica,sans-Serif" font-size="10.00">c_hash.c</text>
</a>
</g>
</g>
<!-- Node1&#45;&gt;Node3 -->
<g id="edge2" class="edge">
<title>Node1&#45;&gt;Node3</title>
<path fill="none" stroke="midnightblue" d="M448.64,-117.75C386.51,-111.61 251.5,-96.98 139,-76 136.14,-75.47 133.17,-74.85 130.21,-74.2"/>
<polygon fill="midnightblue" stroke="midnightblue" points="448.37,-121.24 458.67,-118.73 449.06,-114.28 448.37,-121.24"/>
</g>
<!-- Node4 -->
<g id="node4" class="node">
<title>Node4</title>
<g id="a_node4"><a xlink:href="c__math_8c.html" target="_top" xlink:title="mruby/c Math class">
<polygon fill="white" stroke="black" points="148.5,-56.5 148.5,-75.5 205.5,-75.5 205.5,-56.5 148.5,-56.5"/>
<text text-anchor="middle" x="177" y="-63.5" font-family="Helvetica,sans-Serif" font-size="10.00">c_math.c</text>
</a>
</g>
</g>
<!-- Node1&#45;&gt;Node4 -->
<g id="edge3" class="edge">
<title>Node1&#45;&gt;Node4</title>
<path fill="none" stroke="midnightblue" d="M448.73,-115.99C397.63,-108.35 298.54,-92.89 215,-76 211.94,-75.38 208.76,-74.7 205.59,-73.99"/>
<polygon fill="midnightblue" stroke="midnightblue" points="448.47,-119.49 458.88,-117.5 449.5,-112.57 448.47,-119.49"/>
</g>
<!-- Node5 -->
<g id="node5" class="node">
<title>Node5</title>
<g id="a_node5"><a xlink:href="c__numeric_8c.html" target="_top" xlink:title="mruby/c Integer and Float class">
<polygon fill="white" stroke="black" points="224,-56.5 224,-75.5 294,-75.5 294,-56.5 224,-56.5"/>
<text text-anchor="middle" x="259" y="-63.5" font-family="Helvetica,sans-Serif" font-size="10.00">c_numeric.c</text>
</a>
</g>
</g>
<!-- Node1&#45;&gt;Node5 -->
<g id="edge4" class="edge">
<title>Node1&#45;&gt;Node5</title>
<path fill="none" stroke="midnightblue" d="M448.62,-112.71C406.82,-102.63 336.63,-85.72 294.38,-75.53"/>
<polygon fill="midnightblue" stroke="midnightblue" points="448.06,-116.18 458.6,-115.12 449.7,-109.37 448.06,-116.18"/>
</g>
<!-- Node6 -->
<g id="node6" class="node">
<title>Node6</title>
<g id="a_node6"><a xlink:href="c__object_8c.html" target="_top" xlink:title="Object, Proc, Nil, True and False class.">
<polygon fill="white" stroke="black" points="215,-0.5 215,-19.5 277,-19.5 277,-0.5 215,-0.5"/>
<text text-anchor="middle" x="246" y="-7.5" font-family="Helvetica,sans-Serif" font-size="10.00">c_object.c</text>
</a>
</g>
</g>
<!-- Node1&#45;&gt;Node6 -->
<g id="edge5" class="edge">
<title>Node1&#45;&gt;Node6</title>
<path fill="none" stroke="midnightblue" d="M455.23,-108.12C435.83,-99.12 409.34,-86.83 386,-76 342.49,-55.81 291.38,-32.07 264.57,-19.62"/>
<polygon fill="midnightblue" stroke="midnightblue" points="453.86,-111.34 464.4,-112.37 456.8,-104.99 453.86,-111.34"/>
</g>
<!-- Node7 -->
<g id="node7" class="node">
<title>Node7</title>
<g id="a_node7"><a xlink:href="c__range_8c.html" target="_top" xlink:title="mruby/c Range class">
<polygon fill="white" stroke="black" points="634.5,-56.5 634.5,-75.5 693.5,-75.5 693.5,-56.5 634.5,-56.5"/>
<text text-anchor="middle" x="664" y="-63.5" font-family="Helvetica,sans-Serif" font-size="10.00">c_range.c</text>
</a>
</g>
</g>
<!-- Node1&#45;&gt;Node7 -->
<g id="edge6" class="edge">
<title>Node1&#45;&gt;Node7</title>
<path fill="none" stroke="midnightblue" d="M517.02,-110.85C551.2,-100.65 603.27,-85.12 635.38,-75.54"/>
<polygon fill="midnightblue" stroke="midnightblue" points="515.62,-107.62 507.04,-113.83 517.62,-114.32 515.62,-107.62"/>
</g>
<!-- Node8 -->
<g id="node8" class="node">
<title>Node8</title>
<g id="a_node8"><a xlink:href="c__string_8c.html" target="_top" xlink:title="mruby/c String class">
<polygon fill="white" stroke="black" points="295.5,-0.5 295.5,-19.5 354.5,-19.5 354.5,-0.5 295.5,-0.5"/>
<text text-anchor="middle" x="325" y="-7.5" font-family="Helvetica,sans-Serif" font-size="10.00">c_string.c</text>
</a>
</g>
</g>
<!-- Node1&#45;&gt;Node8 -->
<g id="edge7" class="edge">
<title>Node1&#45;&gt;Node8</title>
<path fill="none" stroke="midnightblue" d="M462.05,-106.42C428.64,-83.15 364.28,-38.35 337.34,-19.59"/>
<polygon fill="midnightblue" stroke="midnightblue" points="460.4,-109.53 470.6,-112.37 464.39,-103.78 460.4,-109.53"/>
</g>
<!-- Node9 -->
<g id="node9" class="node">
<title>Node9</title>
<g id="a_node9"><a xlink:href="class_8c.html" target="_top" xlink:title="Class related functions.">
<polygon fill="white" stroke="black" points="373,-0.5 373,-19.5 421,-19.5 421,-0.5 373,-0.5"/>
<text text-anchor="middle" x="397" y="-7.5" font-family="Helvetica,sans-Serif" font-size="10.00">class.c</text>
</a>
</g>
</g>
<!-- Node1&#45;&gt;Node9 -->
<g id="edge8" class="edge">
<title>Node1&#45;&gt;Node9</title>
<path fill="none" stroke="midnightblue" d="M469.92,-104.27C451.33,-80.49 417.94,-37.79 403.72,-19.59"/>
<polygon fill="midnightblue" stroke="midnightblue" points="467.34,-106.65 476.25,-112.37 472.85,-102.33 467.34,-106.65"/>
</g>
<!-- Node10 -->
<g id="node10" class="node">
<title>Node10</title>
<g id="a_node10"><a xlink:href="console_8c.html" target="_top" xlink:title="console output module. (not yet input)">
<polygon fill="white" stroke="black" points="711.5,-56.5 711.5,-75.5 770.5,-75.5 770.5,-56.5 711.5,-56.5"/>
<text text-anchor="middle" x="741" y="-63.5" font-family="Helvetica,sans-Serif" font-size="10.00">console.c</text>
</a>
</g>
</g>
<!-- Node1&#45;&gt;Node10 -->
<g id="edge9" class="edge">
<title>Node1&#45;&gt;Node10</title>
<path fill="none" stroke="midnightblue" d="M517.14,-114.35C560.45,-105.85 637.41,-90.47 703,-76 705.65,-75.42 708.4,-74.79 711.15,-74.16"/>
<polygon fill="midnightblue" stroke="midnightblue" points="516.28,-110.96 507.14,-116.31 517.63,-117.83 516.28,-110.96"/>
</g>
<!-- Node11 -->
<g id="node11" class="node">
<title>Node11</title>
<g id="a_node11"><a xlink:href="error_8c.html" target="_top" xlink:title="exception classes">
<polygon fill="white" stroke="black" points="439,-0.5 439,-19.5 483,-19.5 483,-0.5 439,-0.5"/>
<text text-anchor="middle" x="461" y="-7.5" font-family="Helvetica,sans-Serif" font-size="10.00">error.c</text>
</a>
</g>
</g>
<!-- Node1&#45;&gt;Node11 -->
<g id="edge10" class="edge">
<title>Node1&#45;&gt;Node11</title>
<path fill="none" stroke="midnightblue" d="M469.49,-104.3C463.83,-96.25 457.9,-86.16 455,-76 449.4,-56.39 454.64,-32.22 458.25,-19.6"/>
<polygon fill="midnightblue" stroke="midnightblue" points="466.78,-106.52 475.59,-112.41 472.38,-102.31 466.78,-106.52"/>
</g>
<!-- Node12 -->
<g id="node12" class="node">
<title>Node12</title>
<g id="a_node12"><a xlink:href="global_8c.html" target="_top" xlink:title="Constant and global variables.">
<polygon fill="white" stroke="black" points="789,-56.5 789,-75.5 839,-75.5 839,-56.5 789,-56.5"/>
<text text-anchor="middle" x="814" y="-63.5" font-family="Helvetica,sans-Serif" font-size="10.00">global.c</text>
</a>
</g>
</g>
<!-- Node1&#45;&gt;Node12 -->
<g id="edge11" class="edge">
<title>Node1&#45;&gt;Node12</title>
<path fill="none" stroke="midnightblue" d="M517,-117.07C572.41,-110.38 685.5,-95.61 780,-76 782.87,-75.4 785.86,-74.72 788.82,-73.99"/>
<polygon fill="midnightblue" stroke="midnightblue" points="516.54,-113.6 507.03,-118.26 517.37,-120.55 516.54,-113.6"/>
</g>
<!-- Node13 -->
<g id="node13" class="node">
<title>Node13</title>
<g id="a_node13"><a xlink:href="mrubyc_8h.html" target="_top" xlink:title="Include at once the necessary header files for user program.">
<polygon fill="white" stroke="black" points="501.5,-0.5 501.5,-19.5 558.5,-19.5 558.5,-0.5 501.5,-0.5"/>
<text text-anchor="middle" x="530" y="-7.5" font-family="Helvetica,sans-Serif" font-size="10.00">mrubyc.h</text>
</a>
</g>
</g>
<!-- Node1&#45;&gt;Node13 -->
<g id="edge12" class="edge">
<title>Node1&#45;&gt;Node13</title>
<path fill="none" stroke="midnightblue" d="M495.02,-104.14C500.46,-95.94 506.63,-85.76 511,-76 519.64,-56.68 525.52,-32.39 528.25,-19.68"/>
<polygon fill="midnightblue" stroke="midnightblue" points="492.1,-102.21 489.32,-112.43 497.87,-106.17 492.1,-102.21"/>
</g>
<!-- Node14 -->
<g id="node14" class="node">
<title>Node14</title>
<g id="a_node14"><a xlink:href="rrt0_8c.html" target="_top" xlink:title="Realtime multitask monitor for mruby/c.">
<polygon fill="white" stroke="black" points="576.5,-0.5 576.5,-19.5 615.5,-19.5 615.5,-0.5 576.5,-0.5"/>
<text text-anchor="middle" x="596" y="-7.5" font-family="Helvetica,sans-Serif" font-size="10.00">rrt0.c</text>
</a>
</g>
</g>
<!-- Node1&#45;&gt;Node14 -->
<g id="edge13" class="edge">
<title>Node1&#45;&gt;Node14</title>
<path fill="none" stroke="midnightblue" d="M499.23,-105.21C523.45,-81.63 568.23,-38.03 587.17,-19.59"/>
<polygon fill="midnightblue" stroke="midnightblue" points="496.59,-102.89 491.87,-112.37 501.47,-107.9 496.59,-102.89"/>
</g>
<!-- Node15 -->
<g id="node15" class="node">
<title>Node15</title>
<g id="a_node15"><a xlink:href="symbol_8c.html" target="_top" xlink:title="mruby/c Symbol class">
<polygon fill="white" stroke="black" points="857,-56.5 857,-75.5 913,-75.5 913,-56.5 857,-56.5"/>
<text text-anchor="middle" x="885" y="-63.5" font-family="Helvetica,sans-Serif" font-size="10.00">symbol.c</text>
</a>
</g>
</g>
<!-- Node1&#45;&gt;Node15 -->
<g id="edge14" class="edge">
<title>Node1&#45;&gt;Node15</title>
<path fill="none" stroke="midnightblue" d="M517.12,-118.12C581.95,-112.37 727.22,-98.06 848,-76 850.86,-75.48 853.83,-74.87 856.79,-74.22"/>
<polygon fill="midnightblue" stroke="midnightblue" points="516.72,-114.65 507.06,-119.01 517.33,-121.62 516.72,-114.65"/>
</g>
<!-- Node16 -->
<g id="node16" class="node">
<title>Node16</title>
<g id="a_node16"><a xlink:href="value_8c.html" target="_top" xlink:title="mruby/c value definitions">
<polygon fill="white" stroke="black" points="931,-56.5 931,-75.5 979,-75.5 979,-56.5 931,-56.5"/>
<text text-anchor="middle" x="955" y="-63.5" font-family="Helvetica,sans-Serif" font-size="10.00">value.c</text>
</a>
</g>
</g>
<!-- Node1&#45;&gt;Node16 -->
<g id="edge15" class="edge">
<title>Node1&#45;&gt;Node16</title>
<path fill="none" stroke="midnightblue" d="M517.68,-119.38C592.23,-115.48 773.04,-103.75 922,-76 924.92,-75.46 927.96,-74.78 930.96,-74.05"/>
<polygon fill="midnightblue" stroke="midnightblue" points="517.28,-115.9 507.47,-119.9 517.64,-122.89 517.28,-115.9"/>
</g>
<!-- Node17 -->
<g id="node17" class="node">
<title>Node17</title>
<g id="a_node17"><a xlink:href="vm_8c.html" target="_top" xlink:title="mruby bytecode executor.">
<polygon fill="white" stroke="black" points="634,-0.5 634,-19.5 672,-19.5 672,-0.5 634,-0.5"/>
<text text-anchor="middle" x="653" y="-7.5" font-family="Helvetica,sans-Serif" font-size="10.00">vm.c</text>
</a>
</g>
</g>
<!-- Node1&#45;&gt;Node17 -->
<g id="edge16" class="edge">
<title>Node1&#45;&gt;Node17</title>
<path fill="none" stroke="midnightblue" d="M505.16,-107.08C519.19,-98.24 537.7,-86.51 554,-76 584.93,-56.05 621.01,-32.22 639.91,-19.69"/>
<polygon fill="midnightblue" stroke="midnightblue" points="503.25,-104.15 496.65,-112.44 506.98,-110.07 503.25,-104.15"/>
</g>
<!-- Node18 -->
<g id="node18" class="node">
<title>Node18</title>
<g id="a_node18"><a xlink:href="vm_8h.html" target="_top" xlink:title="mruby bytecode executor.">
<polygon fill="white" stroke="red" points="464,-56.5 464,-75.5 502,-75.5 502,-56.5 464,-56.5"/>
<text text-anchor="middle" x="483" y="-63.5" font-family="Helvetica,sans-Serif" font-size="10.00">vm.h</text>
</a>
</g>
</g>
<!-- Node1&#45;&gt;Node18 -->
<g id="edge17" class="edge">
<title>Node1&#45;&gt;Node18</title>
<path fill="none" stroke="midnightblue" d="M483,-101.8C483,-92.91 483,-82.78 483,-75.75"/>
<polygon fill="midnightblue" stroke="midnightblue" points="479.5,-102.08 483,-112.08 486.5,-102.08 479.5,-102.08"/>
</g>
<!-- Node18&#45;&gt;Node6 -->
<g id="edge18" class="edge">
<title>Node18&#45;&gt;Node6</title>
<path fill="none" stroke="midnightblue" d="M453.61,-58.3C408.62,-48.05 323.07,-28.56 277.09,-18.08"/>
<polygon fill="midnightblue" stroke="midnightblue" points="453.08,-61.77 463.61,-60.58 454.63,-54.95 453.08,-61.77"/>
</g>
<!-- Node18&#45;&gt;Node8 -->
<g id="edge19" class="edge">
<title>Node18&#45;&gt;Node8</title>
<path fill="none" stroke="midnightblue" d="M454.14,-55.14C424.38,-44.97 378.43,-29.26 350.12,-19.58"/>
<polygon fill="midnightblue" stroke="midnightblue" points="453.35,-58.56 463.94,-58.49 455.61,-51.94 453.35,-58.56"/>
</g>
<!-- Node18&#45;&gt;Node9 -->
<g id="edge20" class="edge">
<title>Node18&#45;&gt;Node9</title>
<path fill="none" stroke="midnightblue" d="M460.55,-50.9C444.78,-41 424.19,-28.07 410.78,-19.65"/>
<polygon fill="midnightblue" stroke="midnightblue" points="458.85,-53.97 469.18,-56.32 462.57,-48.04 458.85,-53.97"/>
</g>
<!-- Node18&#45;&gt;Node11 -->
<g id="edge21" class="edge">
<title>Node18&#45;&gt;Node11</title>
<path fill="none" stroke="midnightblue" d="M475.54,-46.69C471.83,-37.59 467.52,-27.01 464.57,-19.75"/>
<polygon fill="midnightblue" stroke="midnightblue" points="472.35,-48.14 479.37,-56.08 478.84,-45.5 472.35,-48.14"/>
</g>
<!-- Node18&#45;&gt;Node13 -->
<g id="edge22" class="edge">
<title>Node18&#45;&gt;Node13</title>
<path fill="none" stroke="midnightblue" d="M497.42,-48.43C505.66,-38.97 515.65,-27.48 522.38,-19.75"/>
<polygon fill="midnightblue" stroke="midnightblue" points="494.69,-46.24 490.76,-56.08 499.97,-50.84 494.69,-46.24"/>
</g>
<!-- Node18&#45;&gt;Node14 -->
<g id="edge23" class="edge">
<title>Node18&#45;&gt;Node14</title>
<path fill="none" stroke="midnightblue" d="M510,-52.1C531.11,-42.01 559.86,-28.27 578.18,-19.52"/>
<polygon fill="midnightblue" stroke="midnightblue" points="508.42,-48.97 500.91,-56.44 511.44,-55.29 508.42,-48.97"/>
</g>
<!-- Node18&#45;&gt;Node17 -->
<g id="edge24" class="edge">
<title>Node18&#45;&gt;Node17</title>
<path fill="none" stroke="midnightblue" d="M512.09,-55.82C540.8,-46.75 585.94,-32.47 625,-20 627.82,-19.1 630.8,-18.15 633.72,-17.21"/>
<polygon fill="midnightblue" stroke="midnightblue" points="510.78,-52.56 502.3,-58.91 512.89,-59.24 510.78,-52.56"/>
</g>
</g>
</svg>
