<?xml version="1.0" encoding="UTF-8" standalone="no"?>
<!DOCTYPE svg PUBLIC "-//W3C//DTD SVG 1.1//EN"
 "http://www.w3.org/Graphics/SVG/1.1/DTD/svg11.dtd">
<!-- Generated by graphviz version 3.0.0 (20220226.1711)
 -->
<!-- Title: mrbc_instance_delete Pages: 1 -->
<svg width="383pt" height="47pt"
 viewBox="0.00 0.00 383.00 47.00" xmlns="http://www.w3.org/2000/svg" xmlns:xlink="http://www.w3.org/1999/xlink">
<g id="graph0" class="graph" transform="scale(1 1) rotate(0) translate(4 43)">
<title>mrbc_instance_delete</title>
<polygon fill="white" stroke="transparent" points="-4,4 -4,-43 379,-43 379,4 -4,4"/>
<!-- Node1 -->
<g id="node1" class="node">
<title>Node1</title>
<g id="a_node1"><a xlink:title=" ">
<polygon fill="#bfbfbf" stroke="black" points="0,-0.5 0,-19.5 112,-19.5 112,-0.5 0,-0.5"/>
<text text-anchor="middle" x="56" y="-7.5" font-family="Helvetica,sans-Serif" font-size="10.00">mrbc_instance_delete</text>
</a>
</g>
</g>
<!-- Node2 -->
<g id="node2" class="node">
<title>Node2</title>
<g id="a_node2"><a xlink:href="keyvalue_8c.html#aaadb690b23d5c4cec82764c05b52cab8" target="_top" xlink:title=" ">
<polygon fill="white" stroke="red" points="148,-19.5 148,-38.5 258,-38.5 258,-19.5 148,-19.5"/>
<text text-anchor="middle" x="203" y="-26.5" font-family="Helvetica,sans-Serif" font-size="10.00">mrbc_kv_delete_data</text>
</a>
</g>
</g>
<!-- Node1&#45;&gt;Node2 -->
<g id="edge1" class="edge">
<title>Node1&#45;&gt;Node2</title>
<path fill="none" stroke="midnightblue" d="M112.23,-17.24C120.63,-18.34 129.36,-19.48 137.92,-20.6"/>
<polygon fill="midnightblue" stroke="midnightblue" points="137.51,-24.08 147.88,-21.91 138.42,-17.14 137.51,-24.08"/>
</g>
<!-- Node4 -->
<g id="node3" class="node">
<title>Node4</title>
<g id="a_node3"><a xlink:href="alloc_8c.html#add284a6bc6f81677d520f64896974572" target="_top" xlink:title=" ">
<polygon fill="white" stroke="black" points="294,-0.5 294,-19.5 375,-19.5 375,-0.5 294,-0.5"/>
<text text-anchor="middle" x="334.5" y="-7.5" font-family="Helvetica,sans-Serif" font-size="10.00">mrbc_raw_free</text>
</a>
</g>
</g>
<!-- Node1&#45;&gt;Node4 -->
<g id="edge3" class="edge">
<title>Node1&#45;&gt;Node4</title>
<path fill="none" stroke="midnightblue" d="M112.29,-10C162.36,-10 235.46,-10 283.73,-10"/>
<polygon fill="midnightblue" stroke="midnightblue" points="283.94,-13.5 293.94,-10 283.94,-6.5 283.94,-13.5"/>
</g>
<!-- Node2&#45;&gt;Node4 -->
<g id="edge2" class="edge">
<title>Node2&#45;&gt;Node4</title>
<path fill="none" stroke="midnightblue" d="M258.17,-21.05C266.64,-19.81 275.37,-18.53 283.74,-17.3"/>
<polygon fill="midnightblue" stroke="midnightblue" points="284.35,-20.75 293.73,-15.83 283.33,-13.82 284.35,-20.75"/>
</g>
</g>
</svg>
