<?xml version="1.0" encoding="UTF-8" standalone="no"?>
<!DOCTYPE svg PUBLIC "-//W3C//DTD SVG 1.1//EN"
 "http://www.w3.org/Graphics/SVG/1.1/DTD/svg11.dtd">
<!-- Generated by graphviz version 3.0.0 (20220226.1711)
 -->
<!-- Title: console.h Pages: 1 -->
<svg width="924pt" height="84pt"
 viewBox="0.00 0.00 924.00 84.00" xmlns="http://www.w3.org/2000/svg" xmlns:xlink="http://www.w3.org/1999/xlink">
<g id="graph0" class="graph" transform="scale(1 1) rotate(0) translate(4 80)">
<title>console.h</title>
<polygon fill="white" stroke="transparent" points="-4,4 -4,-80 920,-80 920,4 -4,4"/>
<!-- Node1 -->
<g id="node1" class="node">
<title>Node1</title>
<g id="a_node1"><a xlink:title="console output module. (not yet input)">
<polygon fill="#bfbfbf" stroke="black" points="463.5,-56.5 463.5,-75.5 522.5,-75.5 522.5,-56.5 463.5,-56.5"/>
<text text-anchor="middle" x="493" y="-63.5" font-family="Helvetica,sans-Serif" font-size="10.00">console.h</text>
</a>
</g>
</g>
<!-- Node2 -->
<g id="node2" class="node">
<title>Node2</title>
<g id="a_node2"><a xlink:href="c__array_8c.html" target="_top" xlink:title="mruby/c Array class">
<polygon fill="white" stroke="black" points="0,-0.5 0,-19.5 56,-19.5 56,-0.5 0,-0.5"/>
<text text-anchor="middle" x="28" y="-7.5" font-family="Helvetica,sans-Serif" font-size="10.00">c_array.c</text>
</a>
</g>
</g>
<!-- Node1&#45;&gt;Node2 -->
<g id="edge1" class="edge">
<title>Node1&#45;&gt;Node2</title>
<path fill="none" stroke="midnightblue" d="M453.44,-62.62C377.64,-57.66 206.85,-44.6 65,-20 62.13,-19.5 59.16,-18.91 56.2,-18.27"/>
<polygon fill="midnightblue" stroke="midnightblue" points="453.29,-66.11 463.49,-63.26 453.74,-59.13 453.29,-66.11"/>
</g>
<!-- Node3 -->
<g id="node3" class="node">
<title>Node3</title>
<g id="a_node3"><a xlink:href="c__numeric_8c.html" target="_top" xlink:title="mruby/c Integer and Float class">
<polygon fill="white" stroke="black" points="74,-0.5 74,-19.5 144,-19.5 144,-0.5 74,-0.5"/>
<text text-anchor="middle" x="109" y="-7.5" font-family="Helvetica,sans-Serif" font-size="10.00">c_numeric.c</text>
</a>
</g>
</g>
<!-- Node1&#45;&gt;Node3 -->
<g id="edge2" class="edge">
<title>Node1&#45;&gt;Node3</title>
<path fill="none" stroke="midnightblue" d="M453.34,-60.67C389.76,-53.51 261.18,-38.2 153,-20 150.08,-19.51 147.05,-18.96 144.02,-18.39"/>
<polygon fill="midnightblue" stroke="midnightblue" points="453.01,-64.15 463.33,-61.78 453.79,-57.19 453.01,-64.15"/>
</g>
<!-- Node4 -->
<g id="node4" class="node">
<title>Node4</title>
<g id="a_node4"><a xlink:href="c__object_8c.html" target="_top" xlink:title="Object, Proc, Nil, True and False class.">
<polygon fill="white" stroke="black" points="162,-0.5 162,-19.5 224,-19.5 224,-0.5 162,-0.5"/>
<text text-anchor="middle" x="193" y="-7.5" font-family="Helvetica,sans-Serif" font-size="10.00">c_object.c</text>
</a>
</g>
</g>
<!-- Node1&#45;&gt;Node4 -->
<g id="edge3" class="edge">
<title>Node1&#45;&gt;Node4</title>
<path fill="none" stroke="midnightblue" d="M453.31,-58.76C402.22,-50.59 310.76,-35.47 233,-20 230.21,-19.44 227.31,-18.84 224.41,-18.22"/>
<polygon fill="midnightblue" stroke="midnightblue" points="452.85,-62.23 463.28,-60.35 453.95,-55.32 452.85,-62.23"/>
</g>
<!-- Node5 -->
<g id="node5" class="node">
<title>Node5</title>
<g id="a_node5"><a xlink:href="c__range_8c.html" target="_top" xlink:title="mruby/c Range class">
<polygon fill="white" stroke="black" points="242.5,-0.5 242.5,-19.5 301.5,-19.5 301.5,-0.5 242.5,-0.5"/>
<text text-anchor="middle" x="272" y="-7.5" font-family="Helvetica,sans-Serif" font-size="10.00">c_range.c</text>
</a>
</g>
</g>
<!-- Node1&#45;&gt;Node5 -->
<g id="edge4" class="edge">
<title>Node1&#45;&gt;Node5</title>
<path fill="none" stroke="midnightblue" d="M453.23,-55.28C409.66,-44.64 340.78,-27.81 301.68,-18.25"/>
<polygon fill="midnightblue" stroke="midnightblue" points="452.65,-58.74 463.19,-57.72 454.31,-51.94 452.65,-58.74"/>
</g>
<!-- Node6 -->
<g id="node6" class="node">
<title>Node6</title>
<g id="a_node6"><a xlink:href="c__string_8c.html" target="_top" xlink:title="mruby/c String class">
<polygon fill="white" stroke="black" points="319.5,-0.5 319.5,-19.5 378.5,-19.5 378.5,-0.5 319.5,-0.5"/>
<text text-anchor="middle" x="349" y="-7.5" font-family="Helvetica,sans-Serif" font-size="10.00">c_string.c</text>
</a>
</g>
</g>
<!-- Node1&#45;&gt;Node6 -->
<g id="edge5" class="edge">
<title>Node1&#45;&gt;Node6</title>
<path fill="none" stroke="midnightblue" d="M460.75,-52.91C433.68,-42.75 395.68,-28.51 371.71,-19.52"/>
<polygon fill="midnightblue" stroke="midnightblue" points="459.59,-56.21 470.18,-56.44 462.05,-49.66 459.59,-56.21"/>
</g>
<!-- Node7 -->
<g id="node7" class="node">
<title>Node7</title>
<g id="a_node7"><a xlink:href="class_8c.html" target="_top" xlink:title="Class related functions.">
<polygon fill="white" stroke="black" points="397,-0.5 397,-19.5 445,-19.5 445,-0.5 397,-0.5"/>
<text text-anchor="middle" x="421" y="-7.5" font-family="Helvetica,sans-Serif" font-size="10.00">class.c</text>
</a>
</g>
</g>
<!-- Node1&#45;&gt;Node7 -->
<g id="edge6" class="edge">
<title>Node1&#45;&gt;Node7</title>
<path fill="none" stroke="midnightblue" d="M473.13,-50.1C460.18,-40.38 443.7,-28.03 432.78,-19.83"/>
<polygon fill="midnightblue" stroke="midnightblue" points="471.33,-53.12 481.43,-56.32 475.53,-47.52 471.33,-53.12"/>
</g>
<!-- Node8 -->
<g id="node8" class="node">
<title>Node8</title>
<g id="a_node8"><a xlink:href="console_8c.html" target="_top" xlink:title="console output module. (not yet input)">
<polygon fill="white" stroke="black" points="463.5,-0.5 463.5,-19.5 522.5,-19.5 522.5,-0.5 463.5,-0.5"/>
<text text-anchor="middle" x="493" y="-7.5" font-family="Helvetica,sans-Serif" font-size="10.00">console.c</text>
</a>
</g>
</g>
<!-- Node1&#45;&gt;Node8 -->
<g id="edge7" class="edge">
<title>Node1&#45;&gt;Node8</title>
<path fill="none" stroke="midnightblue" d="M493,-45.8C493,-36.91 493,-26.78 493,-19.75"/>
<polygon fill="midnightblue" stroke="midnightblue" points="489.5,-46.08 493,-56.08 496.5,-46.08 489.5,-46.08"/>
</g>
<!-- Node9 -->
<g id="node9" class="node">
<title>Node9</title>
<g id="a_node9"><a xlink:href="error_8c.html" target="_top" xlink:title="exception classes">
<polygon fill="white" stroke="black" points="541,-0.5 541,-19.5 585,-19.5 585,-0.5 541,-0.5"/>
<text text-anchor="middle" x="563" y="-7.5" font-family="Helvetica,sans-Serif" font-size="10.00">error.c</text>
</a>
</g>
</g>
<!-- Node1&#45;&gt;Node9 -->
<g id="edge8" class="edge">
<title>Node1&#45;&gt;Node9</title>
<path fill="none" stroke="midnightblue" d="M512.31,-50.1C524.91,-40.38 540.93,-28.03 551.55,-19.83"/>
<polygon fill="midnightblue" stroke="midnightblue" points="510.03,-47.44 504.25,-56.32 514.3,-52.99 510.03,-47.44"/>
</g>
<!-- Node10 -->
<g id="node10" class="node">
<title>Node10</title>
<g id="a_node10"><a xlink:href="global_8c.html" target="_top" xlink:title="Constant and global variables.">
<polygon fill="white" stroke="black" points="603,-0.5 603,-19.5 653,-19.5 653,-0.5 603,-0.5"/>
<text text-anchor="middle" x="628" y="-7.5" font-family="Helvetica,sans-Serif" font-size="10.00">global.c</text>
</a>
</g>
</g>
<!-- Node1&#45;&gt;Node10 -->
<g id="edge9" class="edge">
<title>Node1&#45;&gt;Node10</title>
<path fill="none" stroke="midnightblue" d="M523.91,-52.64C549.24,-42.5 584.43,-28.43 606.71,-19.52"/>
<polygon fill="midnightblue" stroke="midnightblue" points="522.38,-49.48 514.39,-56.44 524.98,-55.98 522.38,-49.48"/>
</g>
<!-- Node11 -->
<g id="node11" class="node">
<title>Node11</title>
<g id="a_node11"><a xlink:href="mrubyc_8h.html" target="_top" xlink:title="Include at once the necessary header files for user program.">
<polygon fill="white" stroke="black" points="671.5,-0.5 671.5,-19.5 728.5,-19.5 728.5,-0.5 671.5,-0.5"/>
<text text-anchor="middle" x="700" y="-7.5" font-family="Helvetica,sans-Serif" font-size="10.00">mrubyc.h</text>
</a>
</g>
</g>
<!-- Node1&#45;&gt;Node11 -->
<g id="edge10" class="edge">
<title>Node1&#45;&gt;Node11</title>
<path fill="none" stroke="midnightblue" d="M532.48,-54.7C573.08,-44.11 635.31,-27.88 671.4,-18.46"/>
<polygon fill="midnightblue" stroke="midnightblue" points="531.45,-51.35 522.66,-57.26 533.22,-58.13 531.45,-51.35"/>
</g>
<!-- Node12 -->
<g id="node12" class="node">
<title>Node12</title>
<g id="a_node12"><a xlink:href="rrt0_8c.html" target="_top" xlink:title="Realtime multitask monitor for mruby/c.">
<polygon fill="white" stroke="black" points="746.5,-0.5 746.5,-19.5 785.5,-19.5 785.5,-0.5 746.5,-0.5"/>
<text text-anchor="middle" x="766" y="-7.5" font-family="Helvetica,sans-Serif" font-size="10.00">rrt0.c</text>
</a>
</g>
</g>
<!-- Node1&#45;&gt;Node12 -->
<g id="edge11" class="edge">
<title>Node1&#45;&gt;Node12</title>
<path fill="none" stroke="midnightblue" d="M532.81,-59.31C581.57,-51.97 666.49,-37.98 738,-20 740.67,-19.33 743.47,-18.54 746.21,-17.71"/>
<polygon fill="midnightblue" stroke="midnightblue" points="532.06,-55.88 522.68,-60.82 533.09,-62.81 532.06,-55.88"/>
</g>
<!-- Node13 -->
<g id="node13" class="node">
<title>Node13</title>
<g id="a_node13"><a xlink:href="symbol_8c.html" target="_top" xlink:title="mruby/c Symbol class">
<polygon fill="white" stroke="black" points="804,-0.5 804,-19.5 860,-19.5 860,-0.5 804,-0.5"/>
<text text-anchor="middle" x="832" y="-7.5" font-family="Helvetica,sans-Serif" font-size="10.00">symbol.c</text>
</a>
</g>
</g>
<!-- Node1&#45;&gt;Node13 -->
<g id="edge12" class="edge">
<title>Node1&#45;&gt;Node13</title>
<path fill="none" stroke="midnightblue" d="M532.93,-60.22C590.92,-53.02 701.7,-38.26 795,-20 797.85,-19.44 800.82,-18.81 803.78,-18.14"/>
<polygon fill="midnightblue" stroke="midnightblue" points="532.23,-56.78 522.73,-61.48 533.08,-63.73 532.23,-56.78"/>
</g>
<!-- Node14 -->
<g id="node14" class="node">
<title>Node14</title>
<g id="a_node14"><a xlink:href="vm_8c.html" target="_top" xlink:title="mruby bytecode executor.">
<polygon fill="white" stroke="black" points="878,-0.5 878,-19.5 916,-19.5 916,-0.5 878,-0.5"/>
<text text-anchor="middle" x="897" y="-7.5" font-family="Helvetica,sans-Serif" font-size="10.00">vm.c</text>
</a>
</g>
</g>
<!-- Node1&#45;&gt;Node14 -->
<g id="edge13" class="edge">
<title>Node1&#45;&gt;Node14</title>
<path fill="none" stroke="midnightblue" d="M532.57,-62.77C601.56,-58.32 748.04,-46.42 869,-20 871.89,-19.37 874.91,-18.56 877.85,-17.69"/>
<polygon fill="midnightblue" stroke="midnightblue" points="532.33,-59.28 522.57,-63.39 532.77,-66.26 532.33,-59.28"/>
</g>
</g>
</svg>
