<?xml version="1.0" encoding="UTF-8" standalone="no"?>
<!DOCTYPE svg PUBLIC "-//W3C//DTD SVG 1.1//EN"
 "http://www.w3.org/Graphics/SVG/1.1/DTD/svg11.dtd">
<!-- Generated by graphviz version 3.0.0 (20220226.1711)
 -->
<!-- Title: mrbc_printf Pages: 1 -->
<svg width="368pt" height="80pt"
 viewBox="0.00 0.00 368.00 80.50" xmlns="http://www.w3.org/2000/svg" xmlns:xlink="http://www.w3.org/1999/xlink">
<g id="graph0" class="graph" transform="scale(1 1) rotate(0) translate(4 76.5)">
<title>mrbc_printf</title>
<polygon fill="white" stroke="transparent" points="-4,4 -4,-76.5 364,-76.5 364,4 -4,4"/>
<!-- Node1 -->
<g id="node1" class="node">
<title>Node1</title>
<g id="a_node1"><a xlink:title=" ">
<polygon fill="#bfbfbf" stroke="black" points="295,-38.5 295,-57.5 360,-57.5 360,-38.5 295,-38.5"/>
<text text-anchor="middle" x="327.5" y="-45.5" font-family="Helvetica,sans-Serif" font-size="10.00">mrbc_printf</text>
</a>
</g>
</g>
<!-- Node2 -->
<g id="node2" class="node">
<title>Node2</title>
<g id="a_node2"><a xlink:href="rrt0_8c.html#a48d2ad8da9b64902068a7a3a68d141a8" target="_top" xlink:title=" ">
<polygon fill="white" stroke="black" points="0,-38.5 0,-57.5 95,-57.5 95,-38.5 0,-38.5"/>
<text text-anchor="middle" x="47.5" y="-45.5" font-family="Helvetica,sans-Serif" font-size="10.00">mrbc_create_task</text>
</a>
</g>
</g>
<!-- Node1&#45;&gt;Node2 -->
<g id="edge1" class="edge">
<title>Node1&#45;&gt;Node2</title>
<path fill="none" stroke="midnightblue" d="M289.44,-60.4C279.66,-63.13 269.02,-65.62 259,-67 202.65,-74.78 187.52,-73.42 131,-67 114.64,-65.14 96.81,-61.27 81.92,-57.51"/>
<polygon fill="midnightblue" stroke="midnightblue" points="290.67,-63.68 299.28,-57.5 288.69,-56.97 290.67,-63.68"/>
</g>
<!-- Node3 -->
<g id="node3" class="node">
<title>Node3</title>
<g id="a_node3"><a xlink:href="error_8c.html#a11b51c29bed1e498a82f6f88968c48e6" target="_top" xlink:title=" ">
<polygon fill="white" stroke="black" points="140,-38.5 140,-57.5 250,-57.5 250,-38.5 140,-38.5"/>
<text text-anchor="middle" x="195" y="-45.5" font-family="Helvetica,sans-Serif" font-size="10.00">mrbc_print_exception</text>
</a>
</g>
</g>
<!-- Node1&#45;&gt;Node3 -->
<g id="edge2" class="edge">
<title>Node1&#45;&gt;Node3</title>
<path fill="none" stroke="midnightblue" d="M284.74,-48C273.76,-48 261.75,-48 250.22,-48"/>
<polygon fill="midnightblue" stroke="midnightblue" points="284.91,-51.5 294.91,-48 284.91,-44.5 284.91,-51.5"/>
</g>
<!-- Node4 -->
<g id="node4" class="node">
<title>Node4</title>
<g id="a_node4"><a xlink:href="error_8c.html#a4f5331c3ce013c01b0dc65d18b43f9fb" target="_top" xlink:title=" ">
<polygon fill="white" stroke="black" points="131,-0.5 131,-19.5 259,-19.5 259,-0.5 131,-0.5"/>
<text text-anchor="middle" x="195" y="-7.5" font-family="Helvetica,sans-Serif" font-size="10.00">mrbc_print_vm_exception</text>
</a>
</g>
</g>
<!-- Node1&#45;&gt;Node4 -->
<g id="edge3" class="edge">
<title>Node1&#45;&gt;Node4</title>
<path fill="none" stroke="midnightblue" d="M285.12,-35.95C266.88,-30.64 245.76,-24.49 228.66,-19.51"/>
<polygon fill="midnightblue" stroke="midnightblue" points="284.33,-39.37 294.91,-38.8 286.29,-32.64 284.33,-39.37"/>
</g>
<!-- Node4&#45;&gt;Node2 -->
<g id="edge4" class="edge">
<title>Node4&#45;&gt;Node2</title>
<path fill="none" stroke="midnightblue" d="M147.35,-22.18C127.15,-27.46 103.85,-33.54 84.95,-38.48"/>
<polygon fill="midnightblue" stroke="midnightblue" points="148.49,-25.5 157.28,-19.59 146.72,-18.73 148.49,-25.5"/>
</g>
</g>
</svg>
