<?xml version="1.0" encoding="UTF-8" standalone="no"?>
<!DOCTYPE svg PUBLIC "-//W3C//DTD SVG 1.1//EN"
 "http://www.w3.org/Graphics/SVG/1.1/DTD/svg11.dtd">
<!-- Generated by graphviz version 3.0.0 (20220226.1711)
 -->
<!-- Title: mrbc_printf Pages: 1 -->
<svg width="350pt" height="47pt"
 viewBox="0.00 0.00 350.00 47.00" xmlns="http://www.w3.org/2000/svg" xmlns:xlink="http://www.w3.org/1999/xlink">
<g id="graph0" class="graph" transform="scale(1 1) rotate(0) translate(4 43)">
<title>mrbc_printf</title>
<polygon fill="white" stroke="transparent" points="-4,4 -4,-43 346,-43 346,4 -4,4"/>
<!-- Node1 -->
<g id="node1" class="node">
<title>Node1</title>
<g id="a_node1"><a xlink:title=" ">
<polygon fill="#bfbfbf" stroke="black" points="277,-19.5 277,-38.5 342,-38.5 342,-19.5 277,-19.5"/>
<text text-anchor="middle" x="309.5" y="-26.5" font-family="Helvetica,sans-Serif" font-size="10.00">mrbc_printf</text>
</a>
</g>
</g>
<!-- Node2 -->
<g id="node2" class="node">
<title>Node2</title>
<g id="a_node2"><a xlink:href="rrt0_8c.html#a48d2ad8da9b64902068a7a3a68d141a8" target="_top" xlink:title=" ">
<polygon fill="white" stroke="black" points="0,-19.5 0,-38.5 95,-38.5 95,-19.5 0,-19.5"/>
<text text-anchor="middle" x="47.5" y="-26.5" font-family="Helvetica,sans-Serif" font-size="10.00">mrbc_create_task</text>
</a>
</g>
</g>
<!-- Node1&#45;&gt;Node2 -->
<g id="edge1" class="edge">
<title>Node1&#45;&gt;Node2</title>
<path fill="none" stroke="midnightblue" d="M266.77,-29C219.92,-29 144.07,-29 95.26,-29"/>
<polygon fill="midnightblue" stroke="midnightblue" points="266.88,-32.5 276.88,-29 266.88,-25.5 266.88,-32.5"/>
</g>
<!-- Node3 -->
<g id="node3" class="node">
<title>Node3</title>
<g id="a_node3"><a xlink:href="error_8c.html#a11b51c29bed1e498a82f6f88968c48e6" target="_top" xlink:title=" ">
<polygon fill="white" stroke="black" points="131,-0.5 131,-19.5 241,-19.5 241,-0.5 131,-0.5"/>
<text text-anchor="middle" x="186" y="-7.5" font-family="Helvetica,sans-Serif" font-size="10.00">mrbc_print_exception</text>
</a>
</g>
</g>
<!-- Node1&#45;&gt;Node3 -->
<g id="edge2" class="edge">
<title>Node1&#45;&gt;Node3</title>
<path fill="none" stroke="midnightblue" d="M266.74,-22.47C258.46,-21.17 249.66,-19.8 241.04,-18.45"/>
<polygon fill="midnightblue" stroke="midnightblue" points="266.47,-25.97 276.89,-24.06 267.56,-19.05 266.47,-25.97"/>
</g>
<!-- Node3&#45;&gt;Node2 -->
<g id="edge3" class="edge">
<title>Node3&#45;&gt;Node2</title>
<path fill="none" stroke="midnightblue" d="M120.64,-18.96C112.05,-20.15 103.38,-21.36 95.17,-22.5"/>
<polygon fill="midnightblue" stroke="midnightblue" points="121.24,-22.41 130.66,-17.56 120.27,-15.48 121.24,-22.41"/>
</g>
</g>
</svg>
