<?xml version="1.0" encoding="UTF-8" standalone="no"?>
<!DOCTYPE svg PUBLIC "-//W3C//DTD SVG 1.1//EN"
 "http://www.w3.org/Graphics/SVG/1.1/DTD/svg11.dtd">
<!-- Generated by graphviz version 3.0.0 (20220226.1711)
 -->
<!-- Title: console.c Pages: 1 -->
<!--zoomable 196 -->
<svg id="main" version="1.1" xmlns="http://www.w3.org/2000/svg" xmlns:xlink="http://www.w3.org/1999/xlink" xml:space="preserve" onload="init(evt)">
<style type="text/css"><![CDATA[
.edge:hover path { stroke: red; }
.edge:hover polygon { stroke: red; fill: red; }
]]></style>
<script type="text/javascript"><![CDATA[
var edges = document.getElementsByTagName('g');
if (edges && edges.length) {
  for (var i=0;i<edges.length;i++) {
    if (edges[i].id.substr(0,4)=='edge') {
      edges[i].setAttribute('class','edge');
    }
  }
}
]]></script>
        <defs>
                <circle id="rim" cx="0" cy="0" r="7"/>
                <circle id="rim2" cx="0" cy="0" r="3.5"/>
                <g id="zoomPlus">
                        <use xlink:href="#rim" fill="#404040">
                                <set attributeName="fill" to="#808080" begin="zoomplus.mouseover" end="zoomplus.mouseout"/>
                        </use>
                        <path d="M-4,0h8M0,-4v8" fill="none" stroke="white" stroke-width="1.5" pointer-events="none"/>
                </g>
                <g id="zoomMin">
                        <use xlink:href="#rim" fill="#404040">
                                <set attributeName="fill" to="#808080" begin="zoomminus.mouseover" end="zoomminus.mouseout"/>
                        </use>
                        <path d="M-4,0h8" fill="none" stroke="white" stroke-width="1.5" pointer-events="none"/>
                </g>
                <g id="dirArrow">
                        <path fill="none" stroke="white" stroke-width="1.5" d="M0,-3.0v7 M-2.5,-0.5L0,-3.0L2.5,-0.5"/>
                </g>
               <g id="resetDef">
                       <use xlink:href="#rim2" fill="#404040">
                               <set attributeName="fill" to="#808080" begin="reset.mouseover" end="reset.mouseout"/>
                       </use>
               </g>
        </defs>

<script type="text/javascript">
var viewWidth = 616;
var viewHeight = 196;
var sectionId = 'dynsection-0';
</script>
<script xlink:href="svgpan.js"/>
<svg id="graph" class="graph">
<g id="viewport">
<title>console.c</title>
<polygon fill="white" stroke="transparent" points="-4,4 -4,-192 612.03,-192 612.03,4 -4,4"/>
<!-- Node1 -->
<g id="node1" class="node">
<title>Node1</title>
<g id="a_node1"><a xlink:title="console output module. (not yet input)">
<polygon fill="#bfbfbf" stroke="black" points="302,-168.5 302,-187.5 361,-187.5 361,-168.5 302,-168.5"/>
<text text-anchor="middle" x="331.5" y="-175.5" font-family="Helvetica,sans-Serif" font-size="10.00">console.c</text>
</a>
</g>
</g>
<!-- Node2 -->
<g id="node2" class="node">
<title>Node2</title>
<g id="a_node2"><a xlink:href="hal__selector_8h.html" target="_top" xlink:title="Selector of hardware abstraction layer.">
<polygon fill="white" stroke="red" points="0,-112.5 0,-131.5 77,-131.5 77,-112.5 0,-112.5"/>
<text text-anchor="middle" x="38.5" y="-119.5" font-family="Helvetica,sans-Serif" font-size="10.00">hal_selector.h</text>
</a>
</g>
</g>
<!-- Node1&#45;&gt;Node2 -->
<g id="edge1" class="edge">
<title>Node1&#45;&gt;Node2</title>
<path fill="none" stroke="midnightblue" d="M301.79,-171.53C251.32,-162.22 148.36,-143.25 87.22,-131.98"/>
<polygon fill="midnightblue" stroke="midnightblue" points="87.51,-128.47 77.04,-130.1 86.24,-135.36 87.51,-128.47"/>
</g>
<!-- Node4 -->
<g id="node3" class="node">
<title>Node4</title>
<g id="a_node3"><a xlink:href="alloc_8h.html" target="_top" xlink:title="mruby/c memory management.">
<polygon fill="white" stroke="black" points="111,-0.5 111,-19.5 156,-19.5 156,-0.5 111,-0.5"/>
<text text-anchor="middle" x="133.5" y="-7.5" font-family="Helvetica,sans-Serif" font-size="10.00">alloc.h</text>
</a>
</g>
</g>
<!-- Node1&#45;&gt;Node4 -->
<g id="edge2" class="edge">
<title>Node1&#45;&gt;Node4</title>
<path fill="none" stroke="midnightblue" d="M301.74,-174.87C266.47,-171.09 207.22,-160.65 165.5,-132 140.07,-114.54 134.09,-105.32 124.5,-76 119.52,-60.77 122.73,-42.66 126.63,-29.43"/>
<polygon fill="midnightblue" stroke="midnightblue" points="130.05,-30.23 129.91,-19.63 123.42,-28 130.05,-30.23"/>
</g>
<!-- Node5 -->
<g id="node4" class="node">
<title>Node5</title>
<g id="a_node4"><a xlink:href="value_8h.html" target="_top" xlink:title="mruby/c value definitions">
<polygon fill="white" stroke="black" points="395.5,-0.5 395.5,-19.5 443.5,-19.5 443.5,-0.5 395.5,-0.5"/>
<text text-anchor="middle" x="419.5" y="-7.5" font-family="Helvetica,sans-Serif" font-size="10.00">value.h</text>
</a>
</g>
</g>
<!-- Node1&#45;&gt;Node5 -->
<g id="edge3" class="edge">
<title>Node1&#45;&gt;Node5</title>
<path fill="none" stroke="midnightblue" d="M361.17,-176.97C406.17,-175.67 493.03,-168.19 555.5,-132 584.12,-115.42 592.87,-106.96 604.5,-76 607.63,-67.68 609.99,-62.99 604.5,-56 586.09,-32.57 501.87,-19.83 453.65,-14.33"/>
<polygon fill="midnightblue" stroke="midnightblue" points="453.98,-10.85 443.66,-13.24 453.22,-17.81 453.98,-10.85"/>
</g>
<!-- Node6 -->
<g id="node5" class="node">
<title>Node6</title>
<g id="a_node5"><a xlink:href="class_8h.html" target="_top" xlink:title="Class related functions.">
<polygon fill="white" stroke="red" points="397.5,-112.5 397.5,-131.5 445.5,-131.5 445.5,-112.5 397.5,-112.5"/>
<text text-anchor="middle" x="421.5" y="-119.5" font-family="Helvetica,sans-Serif" font-size="10.00">class.h</text>
</a>
</g>
</g>
<!-- Node1&#45;&gt;Node6 -->
<g id="edge4" class="edge">
<title>Node1&#45;&gt;Node6</title>
<path fill="none" stroke="midnightblue" d="M345.96,-168.32C360,-159.9 381.55,-146.97 398.04,-137.07"/>
<polygon fill="midnightblue" stroke="midnightblue" points="400.3,-139.8 407.08,-131.65 396.7,-133.8 400.3,-139.8"/>
</g>
<!-- Node8 -->
<g id="node6" class="node">
<title>Node8</title>
<g id="a_node6"><a xlink:href="error_8h.html" target="_top" xlink:title="exception classes">
<polygon fill="white" stroke="black" points="397.5,-56.5 397.5,-75.5 441.5,-75.5 441.5,-56.5 397.5,-56.5"/>
<text text-anchor="middle" x="419.5" y="-63.5" font-family="Helvetica,sans-Serif" font-size="10.00">error.h</text>
</a>
</g>
</g>
<!-- Node1&#45;&gt;Node8 -->
<g id="edge12" class="edge">
<title>Node1&#45;&gt;Node8</title>
<path fill="none" stroke="midnightblue" d="M338.41,-168.37C352.99,-150.14 387.16,-107.43 406.16,-83.68"/>
<polygon fill="midnightblue" stroke="midnightblue" points="409.11,-85.59 412.63,-75.59 403.65,-81.21 409.11,-85.59"/>
</g>
<!-- Node9 -->
<g id="node7" class="node">
<title>Node9</title>
<g id="a_node7"><a xlink:href="console_8h.html" target="_top" xlink:title="console output module. (not yet input)">
<polygon fill="white" stroke="black" points="246,-56.5 246,-75.5 305,-75.5 305,-56.5 246,-56.5"/>
<text text-anchor="middle" x="275.5" y="-63.5" font-family="Helvetica,sans-Serif" font-size="10.00">console.h</text>
</a>
</g>
</g>
<!-- Node1&#45;&gt;Node9 -->
<g id="edge8" class="edge">
<title>Node1&#45;&gt;Node9</title>
<path fill="none" stroke="midnightblue" d="M327.11,-168.37C317.95,-150.38 296.65,-108.55 284.47,-84.63"/>
<polygon fill="midnightblue" stroke="midnightblue" points="287.53,-82.92 279.87,-75.59 281.29,-86.09 287.53,-82.92"/>
</g>
<!-- Node10 -->
<g id="node8" class="node">
<title>Node10</title>
<g id="a_node8"><a xlink:href="symbol_8h.html" target="_top" xlink:title="mruby/c Symbol class">
<polygon fill="white" stroke="red" points="323.5,-56.5 323.5,-75.5 379.5,-75.5 379.5,-56.5 323.5,-56.5"/>
<text text-anchor="middle" x="351.5" y="-63.5" font-family="Helvetica,sans-Serif" font-size="10.00">symbol.h</text>
</a>
</g>
</g>
<!-- Node1&#45;&gt;Node10 -->
<g id="edge10" class="edge">
<title>Node1&#45;&gt;Node10</title>
<path fill="none" stroke="midnightblue" d="M333.07,-168.37C336.3,-150.62 343.74,-109.67 348.12,-85.6"/>
<polygon fill="midnightblue" stroke="midnightblue" points="351.59,-86.06 349.94,-75.59 344.71,-84.8 351.59,-86.06"/>
</g>
<!-- Node12 -->
<g id="node9" class="node">
<title>Node12</title>
<g id="a_node9"><a xlink:href="c__string_8h.html" target="_top" xlink:title="mruby/c String class">
<polygon fill="white" stroke="black" points="466,-112.5 466,-131.5 525,-131.5 525,-112.5 466,-112.5"/>
<text text-anchor="middle" x="495.5" y="-119.5" font-family="Helvetica,sans-Serif" font-size="10.00">c_string.h</text>
</a>
</g>
</g>
<!-- Node1&#45;&gt;Node12 -->
<g id="edge13" class="edge">
<title>Node1&#45;&gt;Node12</title>
<path fill="none" stroke="midnightblue" d="M357.49,-168.44C385.2,-159.32 429.25,-144.81 460.12,-134.65"/>
<polygon fill="midnightblue" stroke="midnightblue" points="461.23,-137.97 469.64,-131.52 459.04,-131.32 461.23,-137.97"/>
</g>
<!-- Node13 -->
<g id="node10" class="node">
<title>Node13</title>
<g id="a_node10"><a xlink:href="c__array_8h.html" target="_top" xlink:title="mruby/c Array class">
<polygon fill="white" stroke="black" points="133.5,-56.5 133.5,-75.5 189.5,-75.5 189.5,-56.5 133.5,-56.5"/>
<text text-anchor="middle" x="161.5" y="-63.5" font-family="Helvetica,sans-Serif" font-size="10.00">c_array.h</text>
</a>
</g>
</g>
<!-- Node1&#45;&gt;Node13 -->
<g id="edge15" class="edge">
<title>Node1&#45;&gt;Node13</title>
<path fill="none" stroke="midnightblue" d="M301.73,-176.25C267.81,-173.78 212.91,-164.58 180.5,-132 168.46,-119.9 163.97,-100.62 162.33,-86.19"/>
<polygon fill="midnightblue" stroke="midnightblue" points="165.8,-85.6 161.54,-75.89 158.82,-86.13 165.8,-85.6"/>
</g>
<!-- Node14 -->
<g id="node11" class="node">
<title>Node14</title>
<g id="a_node11"><a xlink:href="c__hash_8h.html" target="_top" xlink:title="mruby/c Hash class">
<polygon fill="white" stroke="black" points="189.5,-112.5 189.5,-131.5 245.5,-131.5 245.5,-112.5 189.5,-112.5"/>
<text text-anchor="middle" x="217.5" y="-119.5" font-family="Helvetica,sans-Serif" font-size="10.00">c_hash.h</text>
</a>
</g>
</g>
<!-- Node1&#45;&gt;Node14 -->
<g id="edge18" class="edge">
<title>Node1&#45;&gt;Node14</title>
<path fill="none" stroke="midnightblue" d="M313.44,-168.44C294.93,-159.68 265.92,-145.94 244.64,-135.86"/>
<polygon fill="midnightblue" stroke="midnightblue" points="246.01,-132.63 235.48,-131.52 243.02,-138.96 246.01,-132.63"/>
</g>
<!-- Node15 -->
<g id="node12" class="node">
<title>Node15</title>
<g id="a_node12"><a xlink:href="c__range_8h.html" target="_top" xlink:title="mruby/c Range class">
<polygon fill="white" stroke="black" points="536,-56.5 536,-75.5 595,-75.5 595,-56.5 536,-56.5"/>
<text text-anchor="middle" x="565.5" y="-63.5" font-family="Helvetica,sans-Serif" font-size="10.00">c_range.h</text>
</a>
</g>
</g>
<!-- Node1&#45;&gt;Node15 -->
<g id="edge21" class="edge">
<title>Node1&#45;&gt;Node15</title>
<path fill="none" stroke="midnightblue" d="M361.24,-173.63C410.91,-167.49 507.94,-153.12 534.5,-132 549,-120.46 557.1,-100.5 561.35,-85.73"/>
<polygon fill="midnightblue" stroke="midnightblue" points="564.84,-86.23 563.9,-75.67 558.05,-84.51 564.84,-86.23"/>
</g>
<!-- Node6&#45;&gt;Node5 -->
<g id="edge5" class="edge">
<title>Node6&#45;&gt;Node5</title>
<path fill="none" stroke="midnightblue" d="M429.76,-112.42C440.46,-100.22 457.03,-77 450.5,-56 447.27,-45.62 440.72,-35.52 434.48,-27.53"/>
<polygon fill="midnightblue" stroke="midnightblue" points="437.08,-25.19 427.98,-19.77 431.71,-29.68 437.08,-25.19"/>
</g>
<!-- Node6&#45;&gt;Node8 -->
<g id="edge6" class="edge">
<title>Node6&#45;&gt;Node8</title>
<path fill="none" stroke="midnightblue" d="M421.17,-112.08C420.91,-105.01 420.53,-94.86 420.2,-85.99"/>
<polygon fill="midnightblue" stroke="midnightblue" points="423.69,-85.61 419.82,-75.75 416.7,-85.87 423.69,-85.61"/>
</g>
<!-- Node8&#45;&gt;Node5 -->
<g id="edge7" class="edge">
<title>Node8&#45;&gt;Node5</title>
<path fill="none" stroke="midnightblue" d="M419.5,-56.08C419.5,-49.01 419.5,-38.86 419.5,-29.99"/>
<polygon fill="midnightblue" stroke="midnightblue" points="423,-29.75 419.5,-19.75 416,-29.75 423,-29.75"/>
</g>
<!-- Node9&#45;&gt;Node5 -->
<g id="edge9" class="edge">
<title>Node9&#45;&gt;Node5</title>
<path fill="none" stroke="midnightblue" d="M298.32,-56.44C322.33,-47.44 360.33,-33.19 387.37,-23.05"/>
<polygon fill="midnightblue" stroke="midnightblue" points="388.66,-26.3 396.79,-19.52 386.2,-19.75 388.66,-26.3"/>
</g>
<!-- Node10&#45;&gt;Node5 -->
<g id="edge11" class="edge">
<title>Node10&#45;&gt;Node5</title>
<path fill="none" stroke="midnightblue" d="M362.43,-56.32C372.67,-48.18 388.22,-35.84 400.5,-26.09"/>
<polygon fill="midnightblue" stroke="midnightblue" points="402.72,-28.79 408.38,-19.83 398.37,-23.31 402.72,-28.79"/>
</g>
<!-- Node12&#45;&gt;Node5 -->
<g id="edge14" class="edge">
<title>Node12&#45;&gt;Node5</title>
<path fill="none" stroke="midnightblue" d="M492.7,-112.48C488.2,-99.54 478.54,-74.48 465.5,-56 457.81,-45.1 447.28,-34.57 438.24,-26.45"/>
<polygon fill="midnightblue" stroke="midnightblue" points="440.32,-23.62 430.47,-19.72 435.74,-28.91 440.32,-23.62"/>
</g>
<!-- Node13&#45;&gt;Node4 -->
<g id="edge16" class="edge">
<title>Node13&#45;&gt;Node4</title>
<path fill="none" stroke="midnightblue" d="M156.88,-56.08C153.04,-48.69 147.48,-37.95 142.74,-28.81"/>
<polygon fill="midnightblue" stroke="midnightblue" points="145.75,-27.02 138.04,-19.75 139.53,-30.24 145.75,-27.02"/>
</g>
<!-- Node13&#45;&gt;Node5 -->
<g id="edge17" class="edge">
<title>Node13&#45;&gt;Node5</title>
<path fill="none" stroke="midnightblue" d="M189.51,-58.97C194.18,-57.98 198.98,-56.96 203.5,-56 267.73,-42.43 342.76,-26.86 385.35,-18.05"/>
<polygon fill="midnightblue" stroke="midnightblue" points="386.11,-21.47 395.2,-16.02 384.69,-14.61 386.11,-21.47"/>
</g>
<!-- Node14&#45;&gt;Node5 -->
<g id="edge19" class="edge">
<title>Node14&#45;&gt;Node5</title>
<path fill="none" stroke="midnightblue" d="M217.44,-112.47C217.83,-98.58 220.71,-71.12 236.5,-56 257.59,-35.8 338.24,-21.89 385.14,-15.32"/>
<polygon fill="midnightblue" stroke="midnightblue" points="385.72,-18.78 395.16,-13.96 384.78,-11.84 385.72,-18.78"/>
</g>
<!-- Node14&#45;&gt;Node13 -->
<g id="edge20" class="edge">
<title>Node14&#45;&gt;Node13</title>
<path fill="none" stroke="midnightblue" d="M208.5,-112.32C200.31,-104.42 187.99,-92.55 178.03,-82.94"/>
<polygon fill="midnightblue" stroke="midnightblue" points="180.29,-80.26 170.66,-75.83 175.43,-85.29 180.29,-80.26"/>
</g>
<!-- Node15&#45;&gt;Node5 -->
<g id="edge22" class="edge">
<title>Node15&#45;&gt;Node5</title>
<path fill="none" stroke="midnightblue" d="M542.37,-56.44C518.02,-47.44 479.49,-33.19 452.08,-23.05"/>
<polygon fill="midnightblue" stroke="midnightblue" points="453.12,-19.7 442.53,-19.52 450.69,-26.27 453.12,-19.7"/>
</g>
</g>
</svg>
        <g id="navigator" transform="translate(0 0)" fill="#404254">
                <rect fill="#f2f5e9" fill-opacity="0.5" stroke="#606060" stroke-width=".5" x="0" y="0" width="60" height="60"/>
                <use id="zoomplus" xlink:href="#zoomPlus" x="17" y="9" onmousedown="handleZoom(evt,'in')"/>
                <use id="zoomminus" xlink:href="#zoomMin" x="42" y="9" onmousedown="handleZoom(evt,'out')"/>
                <use id="reset" xlink:href="#resetDef" x="30" y="36" onmousedown="handleReset()"/>
                <g id="arrowUp" xlink:href="#dirArrow" transform="translate(30 24)" onmousedown="handlePan(0,-1)">
                  <use xlink:href="#rim" fill="#404040">
                        <set attributeName="fill" to="#808080" begin="arrowUp.mouseover" end="arrowUp.mouseout"/>
                  </use>
                  <path fill="none" stroke="white" stroke-width="1.5" d="M0,-3.0v7 M-2.5,-0.5L0,-3.0L2.5,-0.5"/>
                </g>
                <g id="arrowRight" xlink:href="#dirArrow" transform="rotate(90) translate(36 -43)" onmousedown="handlePan(1,0)">
                  <use xlink:href="#rim" fill="#404040">
                        <set attributeName="fill" to="#808080" begin="arrowRight.mouseover" end="arrowRight.mouseout"/>
                  </use>
                  <path fill="none" stroke="white" stroke-width="1.5" d="M0,-3.0v7 M-2.5,-0.5L0,-3.0L2.5,-0.5"/>
                </g>
                <g id="arrowDown" xlink:href="#dirArrow" transform="rotate(180) translate(-30 -48)" onmousedown="handlePan(0,1)">
                  <use xlink:href="#rim" fill="#404040">
                        <set attributeName="fill" to="#808080" begin="arrowDown.mouseover" end="arrowDown.mouseout"/>
                  </use>
                  <path fill="none" stroke="white" stroke-width="1.5" d="M0,-3.0v7 M-2.5,-0.5L0,-3.0L2.5,-0.5"/>
                </g>
                <g id="arrowLeft" xlink:href="#dirArrow" transform="rotate(270) translate(-36 17)" onmousedown="handlePan(-1,0)">
                  <use xlink:href="#rim" fill="#404040">
                        <set attributeName="fill" to="#808080" begin="arrowLeft.mouseover" end="arrowLeft.mouseout"/>
                  </use>
                  <path fill="none" stroke="white" stroke-width="1.5" d="M0,-3.0v7 M-2.5,-0.5L0,-3.0L2.5,-0.5"/>
                </g>
        </g>
        <svg viewBox="0 0 15 15" width="100%" height="30px" preserveAspectRatio="xMaxYMin meet">
         <g id="arrow_out" transform="scale(0.3 0.3)">
          <a xlink:href="console_8c__incl_org.svg" target="_base">
           <rect id="button" ry="5" rx="5" y="6" x="6" height="38" width="38"
                fill="#f2f5e9" fill-opacity="0.5" stroke="#606060" stroke-width="1.0"/>
           <path id="arrow"
             d="M 11.500037,31.436501 C 11.940474,20.09759 22.043105,11.32322 32.158766,21.979434 L 37.068811,17.246167 C 37.068811,17.246167 37.088388,32 37.088388,32 L 22.160133,31.978069 C 22.160133,31.978069 26.997745,27.140456 26.997745,27.140456 C 18.528582,18.264221 13.291696,25.230495 11.500037,31.436501 z"
             style="fill:#404040;"/>
          </a>
         </g>
        </svg>
</svg>
