<?xml version="1.0" encoding="UTF-8" standalone="no"?>
<!DOCTYPE svg PUBLIC "-//W3C//DTD SVG 1.1//EN"
 "http://www.w3.org/Graphics/SVG/1.1/DTD/svg11.dtd">
<!-- Generated by graphviz version 3.0.0 (20220226.1711)
 -->
<!-- Title: error.h Pages: 1 -->
<!--zoomable 140 -->
<svg id="main" version="1.1" xmlns="http://www.w3.org/2000/svg" xmlns:xlink="http://www.w3.org/1999/xlink" xml:space="preserve" onload="init(evt)">
<style type="text/css"><![CDATA[
.edge:hover path { stroke: red; }
.edge:hover polygon { stroke: red; fill: red; }
]]></style>
<script type="text/javascript"><![CDATA[
var edges = document.getElementsByTagName('g');
if (edges && edges.length) {
  for (var i=0;i<edges.length;i++) {
    if (edges[i].id.substr(0,4)=='edge') {
      edges[i].setAttribute('class','edge');
    }
  }
}
]]></script>
        <defs>
                <circle id="rim" cx="0" cy="0" r="7"/>
                <circle id="rim2" cx="0" cy="0" r="3.5"/>
                <g id="zoomPlus">
                        <use xlink:href="#rim" fill="#404040">
                                <set attributeName="fill" to="#808080" begin="zoomplus.mouseover" end="zoomplus.mouseout"/>
                        </use>
                        <path d="M-4,0h8M0,-4v8" fill="none" stroke="white" stroke-width="1.5" pointer-events="none"/>
                </g>
                <g id="zoomMin">
                        <use xlink:href="#rim" fill="#404040">
                                <set attributeName="fill" to="#808080" begin="zoomminus.mouseover" end="zoomminus.mouseout"/>
                        </use>
                        <path d="M-4,0h8" fill="none" stroke="white" stroke-width="1.5" pointer-events="none"/>
                </g>
                <g id="dirArrow">
                        <path fill="none" stroke="white" stroke-width="1.5" d="M0,-3.0v7 M-2.5,-0.5L0,-3.0L2.5,-0.5"/>
                </g>
               <g id="resetDef">
                       <use xlink:href="#rim2" fill="#404040">
                               <set attributeName="fill" to="#808080" begin="reset.mouseover" end="reset.mouseout"/>
                       </use>
               </g>
        </defs>

<script type="text/javascript">
var viewWidth = 638;
var viewHeight = 140;
var sectionId = 'dynsection-1';
</script>
<script xlink:href="svgpan.js"/>
<svg id="graph" class="graph">
<g id="viewport">
<title>error.h</title>
<polygon fill="white" stroke="transparent" points="-4,4 -4,-136 633.5,-136 633.5,4 -4,4"/>
<!-- Node1 -->
<g id="node1" class="node">
<title>Node1</title>
<g id="a_node1"><a xlink:title="exception classes">
<polygon fill="#bfbfbf" stroke="black" points="335.5,-112.5 335.5,-131.5 379.5,-131.5 379.5,-112.5 335.5,-112.5"/>
<text text-anchor="middle" x="357.5" y="-119.5" font-family="Helvetica,sans-Serif" font-size="10.00">error.h</text>
</a>
</g>
</g>
<!-- Node2 -->
<g id="node2" class="node">
<title>Node2</title>
<g id="a_node2"><a xlink:href="c__math_8c.html" target="_top" xlink:title="mruby/c Math class">
<polygon fill="white" stroke="black" points="0,-0.5 0,-19.5 57,-19.5 57,-0.5 0,-0.5"/>
<text text-anchor="middle" x="28.5" y="-7.5" font-family="Helvetica,sans-Serif" font-size="10.00">c_math.c</text>
</a>
</g>
</g>
<!-- Node1&#45;&gt;Node2 -->
<g id="edge1" class="edge">
<title>Node1&#45;&gt;Node2</title>
<path fill="none" stroke="midnightblue" d="M325.43,-111.85C295.15,-103.08 248.54,-89.27 208.5,-76 151.41,-57.09 85.07,-32.43 51.1,-19.6"/>
<polygon fill="midnightblue" stroke="midnightblue" points="324.84,-115.32 335.42,-114.73 326.78,-108.6 324.84,-115.32"/>
</g>
<!-- Node3 -->
<g id="node3" class="node">
<title>Node3</title>
<g id="a_node3"><a xlink:href="c__numeric_8c.html" target="_top" xlink:title="mruby/c Integer and Float class">
<polygon fill="white" stroke="black" points="75.5,-0.5 75.5,-19.5 145.5,-19.5 145.5,-0.5 75.5,-0.5"/>
<text text-anchor="middle" x="110.5" y="-7.5" font-family="Helvetica,sans-Serif" font-size="10.00">c_numeric.c</text>
</a>
</g>
</g>
<!-- Node1&#45;&gt;Node3 -->
<g id="edge2" class="edge">
<title>Node1&#45;&gt;Node3</title>
<path fill="none" stroke="midnightblue" d="M328.68,-108.16C277.71,-85.47 172.99,-38.83 129.79,-19.59"/>
<polygon fill="midnightblue" stroke="midnightblue" points="327.56,-111.5 338.12,-112.37 330.41,-105.1 327.56,-111.5"/>
</g>
<!-- Node4 -->
<g id="node4" class="node">
<title>Node4</title>
<g id="a_node4"><a xlink:href="c__object_8c.html" target="_top" xlink:title="Object, Proc, Nil, True and False class.">
<polygon fill="white" stroke="black" points="163.5,-0.5 163.5,-19.5 225.5,-19.5 225.5,-0.5 163.5,-0.5"/>
<text text-anchor="middle" x="194.5" y="-7.5" font-family="Helvetica,sans-Serif" font-size="10.00">c_object.c</text>
</a>
</g>
</g>
<!-- Node1&#45;&gt;Node4 -->
<g id="edge3" class="edge">
<title>Node1&#45;&gt;Node4</title>
<path fill="none" stroke="midnightblue" d="M336.33,-106.71C301.98,-83.53 235.15,-38.43 207.23,-19.59"/>
<polygon fill="midnightblue" stroke="midnightblue" points="334.46,-109.68 344.71,-112.37 338.38,-103.87 334.46,-109.68"/>
</g>
<!-- Node5 -->
<g id="node5" class="node">
<title>Node5</title>
<g id="a_node5"><a xlink:href="class_8c.html" target="_top" xlink:title="Class related functions.">
<polygon fill="white" stroke="black" points="243.5,-0.5 243.5,-19.5 291.5,-19.5 291.5,-0.5 243.5,-0.5"/>
<text text-anchor="middle" x="267.5" y="-7.5" font-family="Helvetica,sans-Serif" font-size="10.00">class.c</text>
</a>
</g>
</g>
<!-- Node1&#45;&gt;Node5 -->
<g id="edge4" class="edge">
<title>Node1&#45;&gt;Node5</title>
<path fill="none" stroke="midnightblue" d="M343.13,-104.81C335.68,-96.32 326.49,-85.69 318.5,-76 302.07,-56.08 283.53,-32.04 273.97,-19.52"/>
<polygon fill="midnightblue" stroke="midnightblue" points="340.66,-107.3 349.9,-112.48 345.91,-102.66 340.66,-107.3"/>
</g>
<!-- Node6 -->
<g id="node6" class="node">
<title>Node6</title>
<g id="a_node6"><a xlink:href="class_8h.html" target="_top" xlink:title="Class related functions.">
<polygon fill="white" stroke="red" points="333.5,-56.5 333.5,-75.5 381.5,-75.5 381.5,-56.5 333.5,-56.5"/>
<text text-anchor="middle" x="357.5" y="-63.5" font-family="Helvetica,sans-Serif" font-size="10.00">class.h</text>
</a>
</g>
</g>
<!-- Node1&#45;&gt;Node6 -->
<g id="edge5" class="edge">
<title>Node1&#45;&gt;Node6</title>
<path fill="none" stroke="midnightblue" d="M357.5,-101.8C357.5,-92.91 357.5,-82.78 357.5,-75.75"/>
<polygon fill="midnightblue" stroke="midnightblue" points="354,-102.08 357.5,-112.08 361,-102.08 354,-102.08"/>
</g>
<!-- Node11 -->
<g id="node7" class="node">
<title>Node11</title>
<g id="a_node7"><a xlink:href="console_8c.html" target="_top" xlink:title="console output module. (not yet input)">
<polygon fill="white" stroke="black" points="310,-0.5 310,-19.5 369,-19.5 369,-0.5 310,-0.5"/>
<text text-anchor="middle" x="339.5" y="-7.5" font-family="Helvetica,sans-Serif" font-size="10.00">console.c</text>
</a>
</g>
</g>
<!-- Node1&#45;&gt;Node11 -->
<g id="edge15" class="edge">
<title>Node1&#45;&gt;Node11</title>
<path fill="none" stroke="midnightblue" d="M341.79,-104.88C335.07,-96.88 327.99,-86.66 324.5,-76 318.01,-56.19 328.06,-32.1 334.6,-19.55"/>
<polygon fill="midnightblue" stroke="midnightblue" points="339.2,-107.24 348.48,-112.34 344.4,-102.56 339.2,-107.24"/>
</g>
<!-- Node12 -->
<g id="node8" class="node">
<title>Node12</title>
<g id="a_node8"><a xlink:href="error_8c.html" target="_top" xlink:title="exception classes">
<polygon fill="white" stroke="black" points="387.5,-0.5 387.5,-19.5 431.5,-19.5 431.5,-0.5 387.5,-0.5"/>
<text text-anchor="middle" x="409.5" y="-7.5" font-family="Helvetica,sans-Serif" font-size="10.00">error.c</text>
</a>
</g>
</g>
<!-- Node1&#45;&gt;Node12 -->
<g id="edge16" class="edge">
<title>Node1&#45;&gt;Node12</title>
<path fill="none" stroke="midnightblue" d="M371.84,-104.39C378.28,-96.27 385.52,-86.08 390.5,-76 399.87,-57.02 405.46,-32.6 407.95,-19.77"/>
<polygon fill="midnightblue" stroke="midnightblue" points="368.99,-102.36 365.33,-112.3 374.39,-106.81 368.99,-102.36"/>
</g>
<!-- Node14 -->
<g id="node9" class="node">
<title>Node14</title>
<g id="a_node9"><a xlink:href="mrubyc_8h.html" target="_top" xlink:title="Include at once the necessary header files for user program.">
<polygon fill="white" stroke="black" points="450,-0.5 450,-19.5 507,-19.5 507,-0.5 450,-0.5"/>
<text text-anchor="middle" x="478.5" y="-7.5" font-family="Helvetica,sans-Serif" font-size="10.00">mrubyc.h</text>
</a>
</g>
</g>
<!-- Node1&#45;&gt;Node14 -->
<g id="edge18" class="edge">
<title>Node1&#45;&gt;Node14</title>
<path fill="none" stroke="midnightblue" d="M374.93,-105.81C384.83,-97.14 397.42,-86.03 408.5,-76 430.39,-56.19 455.68,-32.5 469.06,-19.91"/>
<polygon fill="midnightblue" stroke="midnightblue" points="372.57,-103.23 367.34,-112.45 377.18,-108.5 372.57,-103.23"/>
</g>
<!-- Node17 -->
<g id="node10" class="node">
<title>Node17</title>
<g id="a_node10"><a xlink:href="value_8c.html" target="_top" xlink:title="mruby/c value definitions">
<polygon fill="white" stroke="black" points="525.5,-0.5 525.5,-19.5 573.5,-19.5 573.5,-0.5 525.5,-0.5"/>
<text text-anchor="middle" x="549.5" y="-7.5" font-family="Helvetica,sans-Serif" font-size="10.00">value.c</text>
</a>
</g>
</g>
<!-- Node1&#45;&gt;Node17 -->
<g id="edge19" class="edge">
<title>Node1&#45;&gt;Node17</title>
<path fill="none" stroke="midnightblue" d="M381.41,-107.3C421.55,-84.3 501.34,-38.59 534.5,-19.59"/>
<polygon fill="midnightblue" stroke="midnightblue" points="379.5,-104.36 372.57,-112.37 382.98,-110.43 379.5,-104.36"/>
</g>
<!-- Node18 -->
<g id="node11" class="node">
<title>Node18</title>
<g id="a_node11"><a xlink:href="vm_8c.html" target="_top" xlink:title="mruby bytecode executor.">
<polygon fill="white" stroke="black" points="591.5,-0.5 591.5,-19.5 629.5,-19.5 629.5,-0.5 591.5,-0.5"/>
<text text-anchor="middle" x="610.5" y="-7.5" font-family="Helvetica,sans-Serif" font-size="10.00">vm.c</text>
</a>
</g>
</g>
<!-- Node1&#45;&gt;Node18 -->
<g id="edge20" class="edge">
<title>Node1&#45;&gt;Node18</title>
<path fill="none" stroke="midnightblue" d="M388.63,-108.8C410.97,-99.95 441.72,-87.55 468.5,-76 513.31,-56.67 565.31,-32.39 592.23,-19.67"/>
<polygon fill="midnightblue" stroke="midnightblue" points="387.33,-105.56 379.31,-112.49 389.9,-112.07 387.33,-105.56"/>
</g>
<!-- Node20 -->
<g id="node12" class="node">
<title>Node20</title>
<g id="a_node12"><a xlink:href="load_8c.html" target="_top" xlink:title="mruby bytecode loader.">
<polygon fill="white" stroke="black" points="552,-56.5 552,-75.5 595,-75.5 595,-56.5 552,-56.5"/>
<text text-anchor="middle" x="573.5" y="-63.5" font-family="Helvetica,sans-Serif" font-size="10.00">load.c</text>
</a>
</g>
</g>
<!-- Node1&#45;&gt;Node20 -->
<g id="edge17" class="edge">
<title>Node1&#45;&gt;Node20</title>
<path fill="none" stroke="midnightblue" d="M389.56,-112.99C434.17,-101.83 513.81,-81.92 551.96,-72.38"/>
<polygon fill="midnightblue" stroke="midnightblue" points="388.65,-109.6 379.8,-115.42 390.35,-116.39 388.65,-109.6"/>
</g>
<!-- Node6&#45;&gt;Node2 -->
<g id="edge6" class="edge">
<title>Node6&#45;&gt;Node2</title>
<path fill="none" stroke="midnightblue" d="M323.08,-60.58C268.46,-53.35 158.69,-38.02 66.5,-20 63.44,-19.4 60.25,-18.73 57.08,-18.03"/>
<polygon fill="midnightblue" stroke="midnightblue" points="322.87,-64.08 333.24,-61.91 323.78,-57.14 322.87,-64.08"/>
</g>
<!-- Node6&#45;&gt;Node3 -->
<g id="edge7" class="edge">
<title>Node6&#45;&gt;Node3</title>
<path fill="none" stroke="midnightblue" d="M323.43,-57.55C276.7,-47.34 193.14,-29.07 145.79,-18.71"/>
<polygon fill="midnightblue" stroke="midnightblue" points="322.85,-61.01 333.37,-59.72 324.35,-54.17 322.85,-61.01"/>
</g>
<!-- Node6&#45;&gt;Node4 -->
<g id="edge8" class="edge">
<title>Node6&#45;&gt;Node4</title>
<path fill="none" stroke="midnightblue" d="M323.6,-53.77C292.85,-43.58 248.18,-28.78 220.27,-19.54"/>
<polygon fill="midnightblue" stroke="midnightblue" points="322.86,-57.21 333.45,-57.03 325.06,-50.56 322.86,-57.21"/>
</g>
<!-- Node6&#45;&gt;Node5 -->
<g id="edge9" class="edge">
<title>Node6&#45;&gt;Node5</title>
<path fill="none" stroke="midnightblue" d="M334.46,-51.18C317.9,-41.24 296.08,-28.15 281.92,-19.65"/>
<polygon fill="midnightblue" stroke="midnightblue" points="332.66,-54.18 343.04,-56.32 336.27,-48.18 332.66,-54.18"/>
</g>
<!-- Node6&#45;&gt;Node11 -->
<g id="edge10" class="edge">
<title>Node6&#45;&gt;Node11</title>
<path fill="none" stroke="midnightblue" d="M351.3,-46.4C348.29,-37.36 344.81,-26.94 342.42,-19.75"/>
<polygon fill="midnightblue" stroke="midnightblue" points="348.04,-47.7 354.53,-56.08 354.69,-45.49 348.04,-47.7"/>
</g>
<!-- Node6&#45;&gt;Node12 -->
<g id="edge11" class="edge">
<title>Node6&#45;&gt;Node12</title>
<path fill="none" stroke="midnightblue" d="M373.18,-48.72C382.34,-39.2 393.55,-27.56 401.07,-19.75"/>
<polygon fill="midnightblue" stroke="midnightblue" points="370.5,-46.45 366.09,-56.08 375.54,-51.31 370.5,-46.45"/>
</g>
<!-- Node6&#45;&gt;Node14 -->
<g id="edge12" class="edge">
<title>Node6&#45;&gt;Node14</title>
<path fill="none" stroke="midnightblue" d="M385.81,-52.37C408.47,-42.26 439.63,-28.35 459.42,-19.52"/>
<polygon fill="midnightblue" stroke="midnightblue" points="384.38,-49.17 376.67,-56.44 387.23,-55.56 384.38,-49.17"/>
</g>
<!-- Node6&#45;&gt;Node17 -->
<g id="edge13" class="edge">
<title>Node6&#45;&gt;Node17</title>
<path fill="none" stroke="midnightblue" d="M391.53,-55.43C429.98,-44.61 491.59,-27.29 525.38,-17.78"/>
<polygon fill="midnightblue" stroke="midnightblue" points="390.5,-52.08 381.82,-58.16 392.39,-58.82 390.5,-52.08"/>
</g>
<!-- Node6&#45;&gt;Node18 -->
<g id="edge14" class="edge">
<title>Node6&#45;&gt;Node18</title>
<path fill="none" stroke="midnightblue" d="M391.63,-59.42C435.96,-51.89 515.57,-37.39 582.5,-20 585.37,-19.26 588.37,-18.39 591.3,-17.49"/>
<polygon fill="midnightblue" stroke="midnightblue" points="390.96,-55.98 381.68,-61.09 392.12,-62.89 390.96,-55.98"/>
</g>
</g>
</svg>
        <g id="navigator" transform="translate(0 0)" fill="#404254">
                <rect fill="#f2f5e9" fill-opacity="0.5" stroke="#606060" stroke-width=".5" x="0" y="0" width="60" height="60"/>
                <use id="zoomplus" xlink:href="#zoomPlus" x="17" y="9" onmousedown="handleZoom(evt,'in')"/>
                <use id="zoomminus" xlink:href="#zoomMin" x="42" y="9" onmousedown="handleZoom(evt,'out')"/>
                <use id="reset" xlink:href="#resetDef" x="30" y="36" onmousedown="handleReset()"/>
                <g id="arrowUp" xlink:href="#dirArrow" transform="translate(30 24)" onmousedown="handlePan(0,-1)">
                  <use xlink:href="#rim" fill="#404040">
                        <set attributeName="fill" to="#808080" begin="arrowUp.mouseover" end="arrowUp.mouseout"/>
                  </use>
                  <path fill="none" stroke="white" stroke-width="1.5" d="M0,-3.0v7 M-2.5,-0.5L0,-3.0L2.5,-0.5"/>
                </g>
                <g id="arrowRight" xlink:href="#dirArrow" transform="rotate(90) translate(36 -43)" onmousedown="handlePan(1,0)">
                  <use xlink:href="#rim" fill="#404040">
                        <set attributeName="fill" to="#808080" begin="arrowRight.mouseover" end="arrowRight.mouseout"/>
                  </use>
                  <path fill="none" stroke="white" stroke-width="1.5" d="M0,-3.0v7 M-2.5,-0.5L0,-3.0L2.5,-0.5"/>
                </g>
                <g id="arrowDown" xlink:href="#dirArrow" transform="rotate(180) translate(-30 -48)" onmousedown="handlePan(0,1)">
                  <use xlink:href="#rim" fill="#404040">
                        <set attributeName="fill" to="#808080" begin="arrowDown.mouseover" end="arrowDown.mouseout"/>
                  </use>
                  <path fill="none" stroke="white" stroke-width="1.5" d="M0,-3.0v7 M-2.5,-0.5L0,-3.0L2.5,-0.5"/>
                </g>
                <g id="arrowLeft" xlink:href="#dirArrow" transform="rotate(270) translate(-36 17)" onmousedown="handlePan(-1,0)">
                  <use xlink:href="#rim" fill="#404040">
                        <set attributeName="fill" to="#808080" begin="arrowLeft.mouseover" end="arrowLeft.mouseout"/>
                  </use>
                  <path fill="none" stroke="white" stroke-width="1.5" d="M0,-3.0v7 M-2.5,-0.5L0,-3.0L2.5,-0.5"/>
                </g>
        </g>
        <svg viewBox="0 0 15 15" width="100%" height="30px" preserveAspectRatio="xMaxYMin meet">
         <g id="arrow_out" transform="scale(0.3 0.3)">
          <a xlink:href="error_8h__dep__incl_org.svg" target="_base">
           <rect id="button" ry="5" rx="5" y="6" x="6" height="38" width="38"
                fill="#f2f5e9" fill-opacity="0.5" stroke="#606060" stroke-width="1.0"/>
           <path id="arrow"
             d="M 11.500037,31.436501 C 11.940474,20.09759 22.043105,11.32322 32.158766,21.979434 L 37.068811,17.246167 C 37.068811,17.246167 37.088388,32 37.088388,32 L 22.160133,31.978069 C 22.160133,31.978069 26.997745,27.140456 26.997745,27.140456 C 18.528582,18.264221 13.291696,25.230495 11.500037,31.436501 z"
             style="fill:#404040;"/>
          </a>
         </g>
        </svg>
</svg>
