<?xml version="1.0" encoding="UTF-8" standalone="no"?>
<!DOCTYPE svg PUBLIC "-//W3C//DTD SVG 1.1//EN"
 "http://www.w3.org/Graphics/SVG/1.1/DTD/svg11.dtd">
<!-- Generated by graphviz version 3.0.0 (20220226.1711)
 -->
<!-- Title: error.h Pages: 1 -->
<svg width="550pt" height="140pt"
 viewBox="0.00 0.00 549.50 140.00" xmlns="http://www.w3.org/2000/svg" xmlns:xlink="http://www.w3.org/1999/xlink">
<g id="graph0" class="graph" transform="scale(1 1) rotate(0) translate(4 136)">
<title>error.h</title>
<polygon fill="white" stroke="transparent" points="-4,4 -4,-136 545.5,-136 545.5,4 -4,4"/>
<!-- Node1 -->
<g id="node1" class="node">
<title>Node1</title>
<g id="a_node1"><a xlink:title="exception classes">
<polygon fill="#bfbfbf" stroke="black" points="288.5,-112.5 288.5,-131.5 332.5,-131.5 332.5,-112.5 288.5,-112.5"/>
<text text-anchor="middle" x="310.5" y="-119.5" font-family="Helvetica,sans-Serif" font-size="10.00">error.h</text>
</a>
</g>
</g>
<!-- Node2 -->
<g id="node2" class="node">
<title>Node2</title>
<g id="a_node2"><a xlink:href="c__math_8c.html" target="_top" xlink:title="mruby/c Math class">
<polygon fill="white" stroke="black" points="0,-0.5 0,-19.5 57,-19.5 57,-0.5 0,-0.5"/>
<text text-anchor="middle" x="28.5" y="-7.5" font-family="Helvetica,sans-Serif" font-size="10.00">c_math.c</text>
</a>
</g>
</g>
<!-- Node1&#45;&gt;Node2 -->
<g id="edge1" class="edge">
<title>Node1&#45;&gt;Node2</title>
<path fill="none" stroke="midnightblue" d="M278.73,-110.7C252.27,-101.96 213.69,-88.82 180.5,-76 132.04,-57.28 76.12,-32.54 47.52,-19.65"/>
<polygon fill="midnightblue" stroke="midnightblue" points="277.65,-114.03 288.24,-113.83 279.84,-107.38 277.65,-114.03"/>
</g>
<!-- Node3 -->
<g id="node3" class="node">
<title>Node3</title>
<g id="a_node3"><a xlink:href="c__object_8c.html" target="_top" xlink:title="Object, Proc, Nil, True and False class.">
<polygon fill="white" stroke="black" points="75.5,-0.5 75.5,-19.5 137.5,-19.5 137.5,-0.5 75.5,-0.5"/>
<text text-anchor="middle" x="106.5" y="-7.5" font-family="Helvetica,sans-Serif" font-size="10.00">c_object.c</text>
</a>
</g>
</g>
<!-- Node1&#45;&gt;Node3 -->
<g id="edge2" class="edge">
<title>Node1&#45;&gt;Node3</title>
<path fill="none" stroke="midnightblue" d="M282.72,-108.04C264.33,-99.31 239.77,-87.36 218.5,-76 182.6,-56.84 141.48,-32.28 120.46,-19.53"/>
<polygon fill="midnightblue" stroke="midnightblue" points="281.44,-111.31 291.98,-112.41 284.43,-104.98 281.44,-111.31"/>
</g>
<!-- Node4 -->
<g id="node4" class="node">
<title>Node4</title>
<g id="a_node4"><a xlink:href="class_8c.html" target="_top" xlink:title="Class related functions.">
<polygon fill="white" stroke="black" points="155.5,-0.5 155.5,-19.5 203.5,-19.5 203.5,-0.5 155.5,-0.5"/>
<text text-anchor="middle" x="179.5" y="-7.5" font-family="Helvetica,sans-Serif" font-size="10.00">class.c</text>
</a>
</g>
</g>
<!-- Node1&#45;&gt;Node4 -->
<g id="edge3" class="edge">
<title>Node1&#45;&gt;Node4</title>
<path fill="none" stroke="midnightblue" d="M286.82,-107.09C273.33,-98.75 256.4,-87.53 242.5,-76 220.49,-57.73 197.93,-32.59 186.73,-19.57"/>
<polygon fill="midnightblue" stroke="midnightblue" points="285.17,-110.19 295.53,-112.38 288.8,-104.2 285.17,-110.19"/>
</g>
<!-- Node5 -->
<g id="node5" class="node">
<title>Node5</title>
<g id="a_node5"><a xlink:href="class_8h.html" target="_top" xlink:title="Class related functions.">
<polygon fill="white" stroke="red" points="260.5,-56.5 260.5,-75.5 308.5,-75.5 308.5,-56.5 260.5,-56.5"/>
<text text-anchor="middle" x="284.5" y="-63.5" font-family="Helvetica,sans-Serif" font-size="10.00">class.h</text>
</a>
</g>
</g>
<!-- Node1&#45;&gt;Node5 -->
<g id="edge4" class="edge">
<title>Node1&#45;&gt;Node5</title>
<path fill="none" stroke="midnightblue" d="M301.83,-102.98C297.41,-93.82 292.25,-83.09 288.71,-75.75"/>
<polygon fill="midnightblue" stroke="midnightblue" points="298.71,-104.59 306.21,-112.08 305.02,-101.55 298.71,-104.59"/>
</g>
<!-- Node11 -->
<g id="node6" class="node">
<title>Node11</title>
<g id="a_node6"><a xlink:href="console_8c.html" target="_top" xlink:title="console output module. (not yet input)">
<polygon fill="white" stroke="black" points="222,-0.5 222,-19.5 281,-19.5 281,-0.5 222,-0.5"/>
<text text-anchor="middle" x="251.5" y="-7.5" font-family="Helvetica,sans-Serif" font-size="10.00">console.c</text>
</a>
</g>
</g>
<!-- Node1&#45;&gt;Node11 -->
<g id="edge13" class="edge">
<title>Node1&#45;&gt;Node11</title>
<path fill="none" stroke="midnightblue" d="M282.67,-107.27C270.76,-99.81 258.1,-89.34 251.5,-76 242.39,-57.59 246.23,-32.51 249.22,-19.54"/>
<polygon fill="midnightblue" stroke="midnightblue" points="281.11,-110.41 291.52,-112.4 284.62,-104.36 281.11,-110.41"/>
</g>
<!-- Node12 -->
<g id="node7" class="node">
<title>Node12</title>
<g id="a_node7"><a xlink:href="error_8c.html" target="_top" xlink:title="exception classes">
<polygon fill="white" stroke="black" points="299.5,-0.5 299.5,-19.5 343.5,-19.5 343.5,-0.5 299.5,-0.5"/>
<text text-anchor="middle" x="321.5" y="-7.5" font-family="Helvetica,sans-Serif" font-size="10.00">error.c</text>
</a>
</g>
</g>
<!-- Node1&#45;&gt;Node12 -->
<g id="edge14" class="edge">
<title>Node1&#45;&gt;Node12</title>
<path fill="none" stroke="midnightblue" d="M313.77,-102.52C315.1,-94.41 316.55,-84.75 317.5,-76 319.67,-55.99 320.75,-32.38 321.22,-19.85"/>
<polygon fill="midnightblue" stroke="midnightblue" points="310.32,-101.96 312.08,-112.4 317.22,-103.14 310.32,-101.96"/>
</g>
<!-- Node14 -->
<g id="node8" class="node">
<title>Node14</title>
<g id="a_node8"><a xlink:href="mrubyc_8h.html" target="_top" xlink:title="Include at once the necessary header files for user program.">
<polygon fill="white" stroke="black" points="362,-0.5 362,-19.5 419,-19.5 419,-0.5 362,-0.5"/>
<text text-anchor="middle" x="390.5" y="-7.5" font-family="Helvetica,sans-Serif" font-size="10.00">mrubyc.h</text>
</a>
</g>
</g>
<!-- Node1&#45;&gt;Node14 -->
<g id="edge16" class="edge">
<title>Node1&#45;&gt;Node14</title>
<path fill="none" stroke="midnightblue" d="M322.67,-104.27C339.96,-80.49 371.02,-37.79 384.25,-19.59"/>
<polygon fill="midnightblue" stroke="midnightblue" points="319.83,-102.22 316.78,-112.37 325.49,-106.34 319.83,-102.22"/>
</g>
<!-- Node17 -->
<g id="node9" class="node">
<title>Node17</title>
<g id="a_node9"><a xlink:href="value_8c.html" target="_top" xlink:title="mruby/c value definitions">
<polygon fill="white" stroke="black" points="437.5,-0.5 437.5,-19.5 485.5,-19.5 485.5,-0.5 437.5,-0.5"/>
<text text-anchor="middle" x="461.5" y="-7.5" font-family="Helvetica,sans-Serif" font-size="10.00">value.c</text>
</a>
</g>
</g>
<!-- Node1&#45;&gt;Node17 -->
<g id="edge17" class="edge">
<title>Node1&#45;&gt;Node17</title>
<path fill="none" stroke="midnightblue" d="M330.52,-106.42C362.46,-83.15 423.96,-38.35 449.71,-19.59"/>
<polygon fill="midnightblue" stroke="midnightblue" points="328.37,-103.65 322.35,-112.37 332.49,-109.31 328.37,-103.65"/>
</g>
<!-- Node18 -->
<g id="node10" class="node">
<title>Node18</title>
<g id="a_node10"><a xlink:href="vm_8c.html" target="_top" xlink:title="mruby bytecode executor.">
<polygon fill="white" stroke="black" points="503.5,-0.5 503.5,-19.5 541.5,-19.5 541.5,-0.5 503.5,-0.5"/>
<text text-anchor="middle" x="522.5" y="-7.5" font-family="Helvetica,sans-Serif" font-size="10.00">vm.c</text>
</a>
</g>
</g>
<!-- Node1&#45;&gt;Node18 -->
<g id="edge18" class="edge">
<title>Node1&#45;&gt;Node18</title>
<path fill="none" stroke="midnightblue" d="M337.43,-107.76C355.36,-98.89 379.41,-86.89 400.5,-76 438.88,-56.18 483.61,-32.1 506.78,-19.55"/>
<polygon fill="midnightblue" stroke="midnightblue" points="335.58,-104.77 328.16,-112.34 338.67,-111.05 335.58,-104.77"/>
</g>
<!-- Node20 -->
<g id="node11" class="node">
<title>Node20</title>
<g id="a_node11"><a xlink:href="load_8c.html" target="_top" xlink:title="mruby bytecode loader.">
<polygon fill="white" stroke="black" points="479,-56.5 479,-75.5 522,-75.5 522,-56.5 479,-56.5"/>
<text text-anchor="middle" x="500.5" y="-63.5" font-family="Helvetica,sans-Serif" font-size="10.00">load.c</text>
</a>
</g>
</g>
<!-- Node1&#45;&gt;Node20 -->
<g id="edge15" class="edge">
<title>Node1&#45;&gt;Node20</title>
<path fill="none" stroke="midnightblue" d="M342.39,-111.94C381.1,-100.93 445.33,-82.68 478.77,-73.18"/>
<polygon fill="midnightblue" stroke="midnightblue" points="341.33,-108.6 332.67,-114.7 343.24,-115.33 341.33,-108.6"/>
</g>
<!-- Node5&#45;&gt;Node2 -->
<g id="edge5" class="edge">
<title>Node5&#45;&gt;Node2</title>
<path fill="none" stroke="midnightblue" d="M250.32,-58.26C207.35,-49.72 131.33,-34.37 66.5,-20 63.46,-19.33 60.28,-18.6 57.11,-17.87"/>
<polygon fill="midnightblue" stroke="midnightblue" points="249.77,-61.72 260.26,-60.23 251.13,-54.86 249.77,-61.72"/>
</g>
<!-- Node5&#45;&gt;Node3 -->
<g id="edge6" class="edge">
<title>Node5&#45;&gt;Node3</title>
<path fill="none" stroke="midnightblue" d="M250.68,-54.74C217.13,-44.56 166.3,-29.14 134.82,-19.59"/>
<polygon fill="midnightblue" stroke="midnightblue" points="249.91,-58.16 260.49,-57.72 251.94,-51.46 249.91,-58.16"/>
</g>
<!-- Node5&#45;&gt;Node4 -->
<g id="edge7" class="edge">
<title>Node5&#45;&gt;Node4</title>
<path fill="none" stroke="midnightblue" d="M258.69,-51.73C239.25,-41.73 213.15,-28.31 196.33,-19.65"/>
<polygon fill="midnightblue" stroke="midnightblue" points="257.14,-54.86 267.63,-56.32 260.34,-48.64 257.14,-54.86"/>
</g>
<!-- Node5&#45;&gt;Node11 -->
<g id="edge8" class="edge">
<title>Node5&#45;&gt;Node11</title>
<path fill="none" stroke="midnightblue" d="M273.67,-47.27C268.03,-38.05 261.38,-27.17 256.85,-19.75"/>
<polygon fill="midnightblue" stroke="midnightblue" points="270.85,-49.38 279.05,-56.08 276.82,-45.73 270.85,-49.38"/>
</g>
<!-- Node5&#45;&gt;Node12 -->
<g id="edge9" class="edge">
<title>Node5&#45;&gt;Node12</title>
<path fill="none" stroke="midnightblue" d="M296.45,-47.57C302.81,-38.27 310.37,-27.25 315.5,-19.75"/>
<polygon fill="midnightblue" stroke="midnightblue" points="293.37,-45.86 290.61,-56.08 299.15,-49.81 293.37,-45.86"/>
</g>
<!-- Node5&#45;&gt;Node14 -->
<g id="edge10" class="edge">
<title>Node5&#45;&gt;Node14</title>
<path fill="none" stroke="midnightblue" d="M310.56,-51.73C330.18,-41.73 356.53,-28.31 373.51,-19.65"/>
<polygon fill="midnightblue" stroke="midnightblue" points="308.85,-48.67 301.53,-56.32 312.03,-54.9 308.85,-48.67"/>
</g>
<!-- Node5&#45;&gt;Node17 -->
<g id="edge11" class="edge">
<title>Node5&#45;&gt;Node17</title>
<path fill="none" stroke="midnightblue" d="M318.47,-54.64C353.27,-44.02 406.51,-27.78 437.27,-18.39"/>
<polygon fill="midnightblue" stroke="midnightblue" points="317.28,-51.34 308.74,-57.6 319.33,-58.03 317.28,-51.34"/>
</g>
<!-- Node5&#45;&gt;Node18 -->
<g id="edge12" class="edge">
<title>Node5&#45;&gt;Node18</title>
<path fill="none" stroke="midnightblue" d="M318.54,-58.79C360.28,-50.93 433.06,-36.41 494.5,-20 497.36,-19.24 500.36,-18.36 503.3,-17.45"/>
<polygon fill="midnightblue" stroke="midnightblue" points="317.81,-55.37 308.62,-60.64 319.09,-62.25 317.81,-55.37"/>
</g>
</g>
</svg>
