<?xml version="1.0" encoding="UTF-8" standalone="no"?>
<!DOCTYPE svg PUBLIC "-//W3C//DTD SVG 1.1//EN"
 "http://www.w3.org/Graphics/SVG/1.1/DTD/svg11.dtd">
<!-- Generated by graphviz version 3.0.0 (20220226.1711)
 -->
<!-- Title: mrbc_print_exception Pages: 1 -->
<svg width="254pt" height="66pt"
 viewBox="0.00 0.00 254.00 66.00" xmlns="http://www.w3.org/2000/svg" xmlns:xlink="http://www.w3.org/1999/xlink">
<g id="graph0" class="graph" transform="scale(1 1) rotate(0) translate(4 62)">
<title>mrbc_print_exception</title>
<polygon fill="white" stroke="transparent" points="-4,4 -4,-62 250,-62 250,4 -4,4"/>
<!-- Node1 -->
<g id="node1" class="node">
<title>Node1</title>
<g id="a_node1"><a xlink:title=" ">
<polygon fill="#bfbfbf" stroke="black" points="0,-19.5 0,-38.5 110,-38.5 110,-19.5 0,-19.5"/>
<text text-anchor="middle" x="55" y="-26.5" font-family="Helvetica,sans-Serif" font-size="10.00">mrbc_print_exception</text>
</a>
</g>
</g>
<!-- Node2 -->
<g id="node2" class="node">
<title>Node2</title>
<g id="a_node2"><a xlink:href="console_8c.html#a12c0f878ea460b2ab1f1a0d7cd4a4ec6" target="_top" xlink:title=" ">
<polygon fill="white" stroke="red" points="163.5,-38.5 163.5,-57.5 228.5,-57.5 228.5,-38.5 163.5,-38.5"/>
<text text-anchor="middle" x="196" y="-45.5" font-family="Helvetica,sans-Serif" font-size="10.00">mrbc_printf</text>
</a>
</g>
</g>
<!-- Node1&#45;&gt;Node2 -->
<g id="edge1" class="edge">
<title>Node1&#45;&gt;Node2</title>
<path fill="none" stroke="midnightblue" d="M110.14,-36.4C124.47,-38.36 139.73,-40.44 153.29,-42.3"/>
<polygon fill="midnightblue" stroke="midnightblue" points="152.91,-45.78 163.29,-43.67 153.86,-38.84 152.91,-45.78"/>
</g>
<!-- Node4 -->
<g id="node3" class="node">
<title>Node4</title>
<g id="a_node3"><a xlink:href="symbol_8c.html#aae45634d8c243e5695b34e5cd0e43311" target="_top" xlink:title=" ">
<polygon fill="white" stroke="black" points="146,-0.5 146,-19.5 246,-19.5 246,-0.5 146,-0.5"/>
<text text-anchor="middle" x="196" y="-7.5" font-family="Helvetica,sans-Serif" font-size="10.00">mrbc_symid_to_str</text>
</a>
</g>
</g>
<!-- Node1&#45;&gt;Node4 -->
<g id="edge2" class="edge">
<title>Node1&#45;&gt;Node4</title>
<path fill="none" stroke="midnightblue" d="M110.14,-21.6C118.48,-20.46 127.14,-19.28 135.6,-18.12"/>
<polygon fill="midnightblue" stroke="midnightblue" points="136.34,-21.55 145.77,-16.73 135.39,-14.62 136.34,-21.55"/>
</g>
</g>
</svg>
