<?xml version="1.0" encoding="UTF-8" standalone="no"?>
<!DOCTYPE svg PUBLIC "-//W3C//DTD SVG 1.1//EN"
 "http://www.w3.org/Graphics/SVG/1.1/DTD/svg11.dtd">
<!-- Generated by graphviz version 3.0.0 (20220226.1711)
 -->
<!-- Title: error.c Pages: 1 -->
<svg width="542pt" height="252pt"
 viewBox="0.00 0.00 541.50 252.00" xmlns="http://www.w3.org/2000/svg" xmlns:xlink="http://www.w3.org/1999/xlink">
<g id="graph0" class="graph" transform="scale(1 1) rotate(0) translate(4 248)">
<title>error.c</title>
<polygon fill="white" stroke="transparent" points="-4,4 -4,-248 537.5,-248 537.5,4 -4,4"/>
<!-- Node1 -->
<g id="node1" class="node">
<title>Node1</title>
<g id="a_node1"><a xlink:title="exception classes">
<polygon fill="#bfbfbf" stroke="black" points="206.5,-224.5 206.5,-243.5 250.5,-243.5 250.5,-224.5 206.5,-224.5"/>
<text text-anchor="middle" x="228.5" y="-231.5" font-family="Helvetica,sans-Serif" font-size="10.00">error.c</text>
</a>
</g>
</g>
<!-- Node2 -->
<g id="node2" class="node">
<title>Node2</title>
<g id="a_node2"><a xlink:href="alloc_8h.html" target="_top" xlink:title="mruby/c memory management.">
<polygon fill="white" stroke="black" points="0,-168.5 0,-187.5 45,-187.5 45,-168.5 0,-168.5"/>
<text text-anchor="middle" x="22.5" y="-175.5" font-family="Helvetica,sans-Serif" font-size="10.00">alloc.h</text>
</a>
</g>
</g>
<!-- Node1&#45;&gt;Node2 -->
<g id="edge1" class="edge">
<title>Node1&#45;&gt;Node2</title>
<path fill="none" stroke="midnightblue" d="M206.45,-227.22C170.02,-217.67 97.07,-198.55 54.8,-187.47"/>
<polygon fill="midnightblue" stroke="midnightblue" points="55.57,-184.05 45.01,-184.9 53.8,-190.82 55.57,-184.05"/>
</g>
<!-- Node3 -->
<g id="node3" class="node">
<title>Node3</title>
<g id="a_node3"><a xlink:href="value_8h.html" target="_top" xlink:title="mruby/c value definitions">
<polygon fill="white" stroke="black" points="213.5,-0.5 213.5,-19.5 261.5,-19.5 261.5,-0.5 213.5,-0.5"/>
<text text-anchor="middle" x="237.5" y="-7.5" font-family="Helvetica,sans-Serif" font-size="10.00">value.h</text>
</a>
</g>
</g>
<!-- Node1&#45;&gt;Node3 -->
<g id="edge2" class="edge">
<title>Node1&#45;&gt;Node3</title>
<path fill="none" stroke="midnightblue" d="M206.38,-225.87C162.61,-210.36 70.95,-170.24 92.5,-112 110.26,-64 166.44,-35.67 203.43,-21.76"/>
<polygon fill="midnightblue" stroke="midnightblue" points="205.08,-24.88 213.31,-18.21 202.71,-18.3 205.08,-24.88"/>
</g>
<!-- Node4 -->
<g id="node4" class="node">
<title>Node4</title>
<g id="a_node4"><a xlink:href="symbol_8h.html" target="_top" xlink:title="mruby/c Symbol class">
<polygon fill="white" stroke="red" points="101.5,-112.5 101.5,-131.5 157.5,-131.5 157.5,-112.5 101.5,-112.5"/>
<text text-anchor="middle" x="129.5" y="-119.5" font-family="Helvetica,sans-Serif" font-size="10.00">symbol.h</text>
</a>
</g>
</g>
<!-- Node1&#45;&gt;Node4 -->
<g id="edge3" class="edge">
<title>Node1&#45;&gt;Node4</title>
<path fill="none" stroke="midnightblue" d="M215.26,-224.43C203.01,-216.08 184.73,-202.55 171.5,-188 158.26,-173.44 146.42,-154.27 138.72,-140.52"/>
<polygon fill="midnightblue" stroke="midnightblue" points="141.73,-138.73 133.87,-131.62 135.58,-142.08 141.73,-138.73"/>
</g>
<!-- Node6 -->
<g id="node5" class="node">
<title>Node6</title>
<g id="a_node5"><a xlink:href="error_8h.html" target="_top" xlink:title="exception classes">
<polygon fill="white" stroke="black" points="165.5,-56.5 165.5,-75.5 209.5,-75.5 209.5,-56.5 165.5,-56.5"/>
<text text-anchor="middle" x="187.5" y="-63.5" font-family="Helvetica,sans-Serif" font-size="10.00">error.h</text>
</a>
</g>
</g>
<!-- Node1&#45;&gt;Node6 -->
<g id="edge5" class="edge">
<title>Node1&#45;&gt;Node6</title>
<path fill="none" stroke="midnightblue" d="M226.3,-224.08C219.84,-197.95 200.89,-121.21 192.09,-85.58"/>
<polygon fill="midnightblue" stroke="midnightblue" points="195.41,-84.44 189.62,-75.57 188.62,-86.12 195.41,-84.44"/>
</g>
<!-- Node7 -->
<g id="node6" class="node">
<title>Node7</title>
<g id="a_node6"><a xlink:href="class_8h.html" target="_top" xlink:title="Class related functions.">
<polygon fill="white" stroke="red" points="213.5,-112.5 213.5,-131.5 261.5,-131.5 261.5,-112.5 213.5,-112.5"/>
<text text-anchor="middle" x="237.5" y="-119.5" font-family="Helvetica,sans-Serif" font-size="10.00">class.h</text>
</a>
</g>
</g>
<!-- Node1&#45;&gt;Node7 -->
<g id="edge7" class="edge">
<title>Node1&#45;&gt;Node7</title>
<path fill="none" stroke="midnightblue" d="M229.21,-224.37C230.66,-206.62 234.01,-165.67 235.98,-141.6"/>
<polygon fill="midnightblue" stroke="midnightblue" points="239.47,-141.84 236.8,-131.59 232.49,-141.27 239.47,-141.84"/>
</g>
<!-- Node9 -->
<g id="node7" class="node">
<title>Node9</title>
<g id="a_node7"><a xlink:href="c__string_8h.html" target="_top" xlink:title="mruby/c String class">
<polygon fill="white" stroke="black" points="304,-56.5 304,-75.5 363,-75.5 363,-56.5 304,-56.5"/>
<text text-anchor="middle" x="333.5" y="-63.5" font-family="Helvetica,sans-Serif" font-size="10.00">c_string.h</text>
</a>
</g>
</g>
<!-- Node1&#45;&gt;Node9 -->
<g id="edge10" class="edge">
<title>Node1&#45;&gt;Node9</title>
<path fill="none" stroke="midnightblue" d="M250.84,-225.09C267.78,-217.96 290.32,-205.83 303.5,-188 326.26,-157.21 331.89,-111.2 333.2,-85.7"/>
<polygon fill="midnightblue" stroke="midnightblue" points="336.7,-85.67 333.54,-75.55 329.7,-85.43 336.7,-85.67"/>
</g>
<!-- Node10 -->
<g id="node8" class="node">
<title>Node10</title>
<g id="a_node8"><a xlink:href="vm_8h.html" target="_top" xlink:title="mruby bytecode executor.">
<polygon fill="white" stroke="black" points="256.5,-168.5 256.5,-187.5 294.5,-187.5 294.5,-168.5 256.5,-168.5"/>
<text text-anchor="middle" x="275.5" y="-175.5" font-family="Helvetica,sans-Serif" font-size="10.00">vm.h</text>
</a>
</g>
</g>
<!-- Node1&#45;&gt;Node10 -->
<g id="edge12" class="edge">
<title>Node1&#45;&gt;Node10</title>
<path fill="none" stroke="midnightblue" d="M236.26,-224.08C243.04,-216.3 253.04,-204.8 261.26,-195.37"/>
<polygon fill="midnightblue" stroke="midnightblue" points="263.96,-197.59 267.88,-187.75 258.68,-193 263.96,-197.59"/>
</g>
<!-- Node11 -->
<g id="node9" class="node">
<title>Node11</title>
<g id="a_node9"><a xlink:href="console_8h.html" target="_top" xlink:title="console output module. (not yet input)">
<polygon fill="white" stroke="black" points="359,-112.5 359,-131.5 418,-131.5 418,-112.5 359,-112.5"/>
<text text-anchor="middle" x="388.5" y="-119.5" font-family="Helvetica,sans-Serif" font-size="10.00">console.h</text>
</a>
</g>
</g>
<!-- Node1&#45;&gt;Node11 -->
<g id="edge15" class="edge">
<title>Node1&#45;&gt;Node11</title>
<path fill="none" stroke="midnightblue" d="M250.77,-228.1C275.02,-221.92 314.01,-209.41 341.5,-188 357.92,-175.2 371.19,-155.19 379.39,-140.75"/>
<polygon fill="midnightblue" stroke="midnightblue" points="382.55,-142.26 384.23,-131.8 376.4,-138.93 382.55,-142.26"/>
</g>
<!-- Node12 -->
<g id="node10" class="node">
<title>Node12</title>
<g id="a_node10"><a xlink:title=" ">
<polygon fill="white" stroke="#bfbfbf" points="393.5,-168.5 393.5,-187.5 533.5,-187.5 533.5,-168.5 393.5,-168.5"/>
<text text-anchor="middle" x="463.5" y="-175.5" font-family="Helvetica,sans-Serif" font-size="10.00">_autogen_class_exception.h</text>
</a>
</g>
</g>
<!-- Node1&#45;&gt;Node12 -->
<g id="edge17" class="edge">
<title>Node1&#45;&gt;Node12</title>
<path fill="none" stroke="midnightblue" d="M250.61,-227.92C288.34,-219.25 365.97,-201.41 416.33,-189.84"/>
<polygon fill="midnightblue" stroke="midnightblue" points="417.37,-193.19 426.33,-187.54 415.8,-186.37 417.37,-193.19"/>
</g>
<!-- Node4&#45;&gt;Node3 -->
<g id="edge4" class="edge">
<title>Node4&#45;&gt;Node3</title>
<path fill="none" stroke="midnightblue" d="M131.15,-112.45C134.13,-99.01 141.53,-72.77 156.5,-56 169.27,-41.69 187.72,-30.95 203.79,-23.55"/>
<polygon fill="midnightblue" stroke="midnightblue" points="205.63,-26.57 213.41,-19.38 202.84,-20.15 205.63,-26.57"/>
</g>
<!-- Node6&#45;&gt;Node3 -->
<g id="edge6" class="edge">
<title>Node6&#45;&gt;Node3</title>
<path fill="none" stroke="midnightblue" d="M195.76,-56.08C202.96,-48.3 213.61,-36.8 222.35,-27.37"/>
<polygon fill="midnightblue" stroke="midnightblue" points="225.17,-29.47 229.4,-19.75 220.03,-24.71 225.17,-29.47"/>
</g>
<!-- Node7&#45;&gt;Node3 -->
<g id="edge8" class="edge">
<title>Node7&#45;&gt;Node3</title>
<path fill="none" stroke="midnightblue" d="M237.5,-112.37C237.5,-94.62 237.5,-53.67 237.5,-29.6"/>
<polygon fill="midnightblue" stroke="midnightblue" points="241,-29.59 237.5,-19.59 234,-29.59 241,-29.59"/>
</g>
<!-- Node7&#45;&gt;Node6 -->
<g id="edge9" class="edge">
<title>Node7&#45;&gt;Node6</title>
<path fill="none" stroke="midnightblue" d="M229.24,-112.08C222.04,-104.3 211.39,-92.8 202.65,-83.37"/>
<polygon fill="midnightblue" stroke="midnightblue" points="204.97,-80.71 195.6,-75.75 199.83,-85.47 204.97,-80.71"/>
</g>
<!-- Node9&#45;&gt;Node3 -->
<g id="edge11" class="edge">
<title>Node9&#45;&gt;Node3</title>
<path fill="none" stroke="midnightblue" d="M318.08,-56.32C302.96,-47.82 279.68,-34.73 262.03,-24.8"/>
<polygon fill="midnightblue" stroke="midnightblue" points="263.32,-21.51 252.89,-19.65 259.89,-27.61 263.32,-21.51"/>
</g>
<!-- Node10&#45;&gt;Node3 -->
<g id="edge13" class="edge">
<title>Node10&#45;&gt;Node3</title>
<path fill="none" stroke="midnightblue" d="M275.49,-168.5C275.33,-156 274.47,-131.98 270.5,-112 264.58,-82.25 252.65,-49.04 244.87,-29.1"/>
<polygon fill="midnightblue" stroke="midnightblue" points="248.09,-27.72 241.14,-19.73 241.59,-30.31 248.09,-27.72"/>
</g>
<!-- Node10&#45;&gt;Node7 -->
<g id="edge14" class="edge">
<title>Node10&#45;&gt;Node7</title>
<path fill="none" stroke="midnightblue" d="M269.23,-168.08C263.86,-160.46 255.98,-149.26 249.42,-139.94"/>
<polygon fill="midnightblue" stroke="midnightblue" points="252.28,-137.91 243.66,-131.75 246.55,-141.94 252.28,-137.91"/>
</g>
<!-- Node11&#45;&gt;Node3 -->
<g id="edge16" class="edge">
<title>Node11&#45;&gt;Node3</title>
<path fill="none" stroke="midnightblue" d="M388.86,-112.2C388.92,-98.42 387,-71.72 372.5,-56 346.57,-27.9 302.66,-17.33 271.98,-13.36"/>
<polygon fill="midnightblue" stroke="midnightblue" points="272.06,-9.85 261.73,-12.22 271.28,-16.81 272.06,-9.85"/>
</g>
</g>
</svg>
