<?xml version="1.0" encoding="UTF-8" standalone="no"?>
<!DOCTYPE svg PUBLIC "-//W3C//DTD SVG 1.1//EN"
 "http://www.w3.org/Graphics/SVG/1.1/DTD/svg11.dtd">
<!-- Generated by graphviz version 3.0.0 (20220226.1711)
 -->
<!-- Title: global.c Pages: 1 -->
<svg width="324pt" height="196pt"
 viewBox="0.00 0.00 323.84 196.00" xmlns="http://www.w3.org/2000/svg" xmlns:xlink="http://www.w3.org/1999/xlink">
<g id="graph0" class="graph" transform="scale(1 1) rotate(0) translate(4 192)">
<title>global.c</title>
<polygon fill="white" stroke="transparent" points="-4,4 -4,-192 319.84,-192 319.84,4 -4,4"/>
<!-- Node1 -->
<g id="node1" class="node">
<title>Node1</title>
<g id="a_node1"><a xlink:title="Constant and global variables.">
<polygon fill="#bfbfbf" stroke="black" points="118.34,-168.5 118.34,-187.5 168.34,-187.5 168.34,-168.5 118.34,-168.5"/>
<text text-anchor="middle" x="143.34" y="-175.5" font-family="Helvetica,sans-Serif" font-size="10.00">global.c</text>
</a>
</g>
</g>
<!-- Node2 -->
<g id="node2" class="node">
<title>Node2</title>
<g id="a_node2"><a xlink:href="value_8h.html" target="_top" xlink:title="mruby/c value definitions">
<polygon fill="white" stroke="black" points="123.34,-0.5 123.34,-19.5 171.34,-19.5 171.34,-0.5 123.34,-0.5"/>
<text text-anchor="middle" x="147.34" y="-7.5" font-family="Helvetica,sans-Serif" font-size="10.00">value.h</text>
</a>
</g>
</g>
<!-- Node1&#45;&gt;Node2 -->
<g id="edge1" class="edge">
<title>Node1&#45;&gt;Node2</title>
<path fill="none" stroke="midnightblue" d="M118.59,-168.4C70.47,-150.31 -27.94,-105.89 8.34,-56 32.1,-23.33 80.1,-13.89 112.98,-11.43"/>
<polygon fill="midnightblue" stroke="midnightblue" points="113.29,-14.91 123.07,-10.85 112.89,-7.93 113.29,-14.91"/>
</g>
<!-- Node3 -->
<g id="node3" class="node">
<title>Node3</title>
<g id="a_node3"><a xlink:href="global_8h.html" target="_top" xlink:title="Constant and global variables.">
<polygon fill="white" stroke="black" points="17.34,-56.5 17.34,-75.5 67.34,-75.5 67.34,-56.5 17.34,-56.5"/>
<text text-anchor="middle" x="42.34" y="-63.5" font-family="Helvetica,sans-Serif" font-size="10.00">global.h</text>
</a>
</g>
</g>
<!-- Node1&#45;&gt;Node3 -->
<g id="edge2" class="edge">
<title>Node1&#45;&gt;Node3</title>
<path fill="none" stroke="midnightblue" d="M135.42,-168.37C118.53,-149.97 78.77,-106.67 57.08,-83.05"/>
<polygon fill="midnightblue" stroke="midnightblue" points="59.57,-80.59 50.23,-75.59 54.42,-85.32 59.57,-80.59"/>
</g>
<!-- Node4 -->
<g id="node4" class="node">
<title>Node4</title>
<g id="a_node4"><a xlink:href="keyvalue_8h.html" target="_top" xlink:title="mruby/c Key(Symbol) &#45; Value store.">
<polygon fill="white" stroke="black" points="85.34,-56.5 85.34,-75.5 149.34,-75.5 149.34,-56.5 85.34,-56.5"/>
<text text-anchor="middle" x="117.34" y="-63.5" font-family="Helvetica,sans-Serif" font-size="10.00">keyvalue.h</text>
</a>
</g>
</g>
<!-- Node1&#45;&gt;Node4 -->
<g id="edge4" class="edge">
<title>Node1&#45;&gt;Node4</title>
<path fill="none" stroke="midnightblue" d="M141.3,-168.37C137.11,-150.62 127.43,-109.67 121.74,-85.6"/>
<polygon fill="midnightblue" stroke="midnightblue" points="125.08,-84.52 119.37,-75.59 118.27,-86.13 125.08,-84.52"/>
</g>
<!-- Node5 -->
<g id="node5" class="node">
<title>Node5</title>
<g id="a_node5"><a xlink:href="class_8h.html" target="_top" xlink:title="Class related functions.">
<polygon fill="white" stroke="red" points="145.34,-112.5 145.34,-131.5 193.34,-131.5 193.34,-112.5 145.34,-112.5"/>
<text text-anchor="middle" x="169.34" y="-119.5" font-family="Helvetica,sans-Serif" font-size="10.00">class.h</text>
</a>
</g>
</g>
<!-- Node1&#45;&gt;Node5 -->
<g id="edge6" class="edge">
<title>Node1&#45;&gt;Node5</title>
<path fill="none" stroke="midnightblue" d="M147.64,-168.08C151.19,-160.69 156.37,-149.95 160.77,-140.81"/>
<polygon fill="midnightblue" stroke="midnightblue" points="163.94,-142.28 165.13,-131.75 157.64,-139.24 163.94,-142.28"/>
</g>
<!-- Node7 -->
<g id="node6" class="node">
<title>Node7</title>
<g id="a_node6"><a xlink:href="symbol_8h.html" target="_top" xlink:title="mruby/c Symbol class">
<polygon fill="white" stroke="red" points="205.34,-56.5 205.34,-75.5 261.34,-75.5 261.34,-56.5 205.34,-56.5"/>
<text text-anchor="middle" x="233.34" y="-63.5" font-family="Helvetica,sans-Serif" font-size="10.00">symbol.h</text>
</a>
</g>
</g>
<!-- Node1&#45;&gt;Node7 -->
<g id="edge9" class="edge">
<title>Node1&#45;&gt;Node7</title>
<path fill="none" stroke="midnightblue" d="M158.28,-168.44C171.27,-160.39 189.92,-147.3 202.34,-132 213.66,-118.06 222.04,-99.31 227.21,-85.53"/>
<polygon fill="midnightblue" stroke="midnightblue" points="230.64,-86.32 230.67,-75.73 224.04,-83.99 230.64,-86.32"/>
</g>
<!-- Node9 -->
<g id="node7" class="node">
<title>Node9</title>
<g id="a_node7"><a xlink:href="console_8h.html" target="_top" xlink:title="console output module. (not yet input)">
<polygon fill="white" stroke="black" points="256.84,-112.5 256.84,-131.5 315.84,-131.5 315.84,-112.5 256.84,-112.5"/>
<text text-anchor="middle" x="286.34" y="-119.5" font-family="Helvetica,sans-Serif" font-size="10.00">console.h</text>
</a>
</g>
</g>
<!-- Node1&#45;&gt;Node9 -->
<g id="edge11" class="edge">
<title>Node1&#45;&gt;Node9</title>
<path fill="none" stroke="midnightblue" d="M166,-168.44C189.74,-159.48 227.25,-145.31 254.08,-135.18"/>
<polygon fill="midnightblue" stroke="midnightblue" points="255.67,-138.32 263.79,-131.52 253.2,-131.77 255.67,-138.32"/>
</g>
<!-- Node3&#45;&gt;Node2 -->
<g id="edge3" class="edge">
<title>Node3&#45;&gt;Node2</title>
<path fill="none" stroke="midnightblue" d="M59.21,-56.32C76.05,-47.66 102.15,-34.24 121.58,-24.25"/>
<polygon fill="midnightblue" stroke="midnightblue" points="123.22,-27.34 130.51,-19.65 120.02,-21.12 123.22,-27.34"/>
</g>
<!-- Node4&#45;&gt;Node2 -->
<g id="edge5" class="edge">
<title>Node4&#45;&gt;Node2</title>
<path fill="none" stroke="midnightblue" d="M122.3,-56.08C126.45,-48.61 132.5,-37.72 137.61,-28.52"/>
<polygon fill="midnightblue" stroke="midnightblue" points="140.68,-30.19 142.48,-19.75 134.56,-26.79 140.68,-30.19"/>
</g>
<!-- Node5&#45;&gt;Node2 -->
<g id="edge7" class="edge">
<title>Node5&#45;&gt;Node2</title>
<path fill="none" stroke="midnightblue" d="M168.05,-112.13C166.17,-99.58 162.46,-75.95 158.34,-56 156.53,-47.23 154.21,-37.57 152.17,-29.46"/>
<polygon fill="midnightblue" stroke="midnightblue" points="155.51,-28.4 149.64,-19.59 148.73,-30.14 155.51,-28.4"/>
</g>
<!-- Node5&#45;&gt;Node4 -->
<g id="edge8" class="edge">
<title>Node5&#45;&gt;Node4</title>
<path fill="none" stroke="midnightblue" d="M160.76,-112.08C153.18,-104.22 141.96,-92.57 132.83,-83.08"/>
<polygon fill="midnightblue" stroke="midnightblue" points="135.23,-80.53 125.77,-75.75 130.18,-85.38 135.23,-80.53"/>
</g>
<!-- Node7&#45;&gt;Node2 -->
<g id="edge10" class="edge">
<title>Node7&#45;&gt;Node2</title>
<path fill="none" stroke="midnightblue" d="M219.53,-56.32C206.11,-47.9 185.52,-34.97 169.76,-25.07"/>
<polygon fill="midnightblue" stroke="midnightblue" points="171.46,-22.01 161.13,-19.65 167.73,-27.94 171.46,-22.01"/>
</g>
<!-- Node9&#45;&gt;Node2 -->
<g id="edge12" class="edge">
<title>Node9&#45;&gt;Node2</title>
<path fill="none" stroke="midnightblue" d="M286.64,-112.25C286.64,-98.54 284.61,-71.92 270.34,-56 247.6,-30.62 209.34,-19.54 181.52,-14.71"/>
<polygon fill="midnightblue" stroke="midnightblue" points="181.84,-11.21 171.42,-13.14 180.77,-18.13 181.84,-11.21"/>
</g>
</g>
</svg>
