<?xml version="1.0" encoding="UTF-8" standalone="no"?>
<!DOCTYPE svg PUBLIC "-//W3C//DTD SVG 1.1//EN"
 "http://www.w3.org/Graphics/SVG/1.1/DTD/svg11.dtd">
<!-- Generated by graphviz version 3.0.0 (20220226.1711)
 -->
<!-- Title: global.h Pages: 1 -->
<svg width="389pt" height="84pt"
 viewBox="0.00 0.00 388.50 84.00" xmlns="http://www.w3.org/2000/svg" xmlns:xlink="http://www.w3.org/1999/xlink">
<g id="graph0" class="graph" transform="scale(1 1) rotate(0) translate(4 80)">
<title>global.h</title>
<polygon fill="white" stroke="transparent" points="-4,4 -4,-80 384.5,-80 384.5,4 -4,4"/>
<!-- Node1 -->
<g id="node1" class="node">
<title>Node1</title>
<g id="a_node1"><a xlink:title="Constant and global variables.">
<polygon fill="#bfbfbf" stroke="black" points="177.5,-56.5 177.5,-75.5 227.5,-75.5 227.5,-56.5 177.5,-56.5"/>
<text text-anchor="middle" x="202.5" y="-63.5" font-family="Helvetica,sans-Serif" font-size="10.00">global.h</text>
</a>
</g>
</g>
<!-- Node2 -->
<g id="node2" class="node">
<title>Node2</title>
<g id="a_node2"><a xlink:href="c__math_8c.html" target="_top" xlink:title="mruby/c Math class">
<polygon fill="white" stroke="black" points="0,-0.5 0,-19.5 57,-19.5 57,-0.5 0,-0.5"/>
<text text-anchor="middle" x="28.5" y="-7.5" font-family="Helvetica,sans-Serif" font-size="10.00">c_math.c</text>
</a>
</g>
</g>
<!-- Node1&#45;&gt;Node2 -->
<g id="edge1" class="edge">
<title>Node1&#45;&gt;Node2</title>
<path fill="none" stroke="midnightblue" d="M167.56,-54.16C134.75,-43.97 86.32,-28.95 56.13,-19.58"/>
<polygon fill="midnightblue" stroke="midnightblue" points="166.61,-57.53 177.2,-57.15 168.69,-50.84 166.61,-57.53"/>
</g>
<!-- Node3 -->
<g id="node3" class="node">
<title>Node3</title>
<g id="a_node3"><a xlink:href="class_8c.html" target="_top" xlink:title="Class related functions.">
<polygon fill="white" stroke="black" points="75.5,-0.5 75.5,-19.5 123.5,-19.5 123.5,-0.5 75.5,-0.5"/>
<text text-anchor="middle" x="99.5" y="-7.5" font-family="Helvetica,sans-Serif" font-size="10.00">class.c</text>
</a>
</g>
</g>
<!-- Node1&#45;&gt;Node3 -->
<g id="edge2" class="edge">
<title>Node1&#45;&gt;Node3</title>
<path fill="none" stroke="midnightblue" d="M176.92,-51.59C157.88,-41.61 132.44,-28.27 116.01,-19.65"/>
<polygon fill="midnightblue" stroke="midnightblue" points="175.47,-54.78 185.95,-56.32 178.72,-48.58 175.47,-54.78"/>
</g>
<!-- Node4 -->
<g id="node4" class="node">
<title>Node4</title>
<g id="a_node4"><a xlink:href="global_8c.html" target="_top" xlink:title="Constant and global variables.">
<polygon fill="white" stroke="black" points="141.5,-0.5 141.5,-19.5 191.5,-19.5 191.5,-0.5 141.5,-0.5"/>
<text text-anchor="middle" x="166.5" y="-7.5" font-family="Helvetica,sans-Serif" font-size="10.00">global.c</text>
</a>
</g>
</g>
<!-- Node1&#45;&gt;Node4 -->
<g id="edge3" class="edge">
<title>Node1&#45;&gt;Node4</title>
<path fill="none" stroke="midnightblue" d="M190.88,-47.57C184.68,-38.27 177.33,-27.25 172.33,-19.75"/>
<polygon fill="midnightblue" stroke="midnightblue" points="188.1,-49.7 196.56,-56.08 193.92,-45.82 188.1,-49.7"/>
</g>
<!-- Node5 -->
<g id="node5" class="node">
<title>Node5</title>
<g id="a_node5"><a xlink:href="mrubyc_8h.html" target="_top" xlink:title="Include at once the necessary header files for user program.">
<polygon fill="white" stroke="black" points="210,-0.5 210,-19.5 267,-19.5 267,-0.5 210,-0.5"/>
<text text-anchor="middle" x="238.5" y="-7.5" font-family="Helvetica,sans-Serif" font-size="10.00">mrubyc.h</text>
</a>
</g>
</g>
<!-- Node1&#45;&gt;Node5 -->
<g id="edge4" class="edge">
<title>Node1&#45;&gt;Node5</title>
<path fill="none" stroke="midnightblue" d="M214.12,-47.57C220.32,-38.27 227.67,-27.25 232.67,-19.75"/>
<polygon fill="midnightblue" stroke="midnightblue" points="211.08,-45.82 208.44,-56.08 216.9,-49.7 211.08,-45.82"/>
</g>
<!-- Node6 -->
<g id="node6" class="node">
<title>Node6</title>
<g id="a_node6"><a xlink:href="rrt0_8c.html" target="_top" xlink:title="Realtime multitask monitor for mruby/c.">
<polygon fill="white" stroke="black" points="285,-0.5 285,-19.5 324,-19.5 324,-0.5 285,-0.5"/>
<text text-anchor="middle" x="304.5" y="-7.5" font-family="Helvetica,sans-Serif" font-size="10.00">rrt0.c</text>
</a>
</g>
</g>
<!-- Node1&#45;&gt;Node6 -->
<g id="edge5" class="edge">
<title>Node1&#45;&gt;Node6</title>
<path fill="none" stroke="midnightblue" d="M227.83,-51.59C246.69,-41.61 271.88,-28.27 288.15,-19.65"/>
<polygon fill="midnightblue" stroke="midnightblue" points="226.09,-48.55 218.89,-56.32 229.36,-54.74 226.09,-48.55"/>
</g>
<!-- Node7 -->
<g id="node7" class="node">
<title>Node7</title>
<g id="a_node7"><a xlink:href="vm_8c.html" target="_top" xlink:title="mruby bytecode executor.">
<polygon fill="white" stroke="black" points="342.5,-0.5 342.5,-19.5 380.5,-19.5 380.5,-0.5 342.5,-0.5"/>
<text text-anchor="middle" x="361.5" y="-7.5" font-family="Helvetica,sans-Serif" font-size="10.00">vm.c</text>
</a>
</g>
</g>
<!-- Node1&#45;&gt;Node7 -->
<g id="edge6" class="edge">
<title>Node1&#45;&gt;Node7</title>
<path fill="none" stroke="midnightblue" d="M237.21,-53.21C269.5,-42.24 316.44,-26.3 342.41,-17.48"/>
<polygon fill="midnightblue" stroke="midnightblue" points="236.04,-49.91 227.69,-56.44 238.29,-56.54 236.04,-49.91"/>
</g>
</g>
</svg>
