<?xml version="1.0" encoding="UTF-8" standalone="no"?>
<!DOCTYPE svg PUBLIC "-//W3C//DTD SVG 1.1//EN"
 "http://www.w3.org/Graphics/SVG/1.1/DTD/svg11.dtd">
<!-- Generated by graphviz version 3.0.0 (20220226.1711)
 -->
<!-- Title: mrbc_set_class_const Pages: 1 -->
<svg width="257pt" height="66pt"
 viewBox="0.00 0.00 257.00 66.00" xmlns="http://www.w3.org/2000/svg" xmlns:xlink="http://www.w3.org/1999/xlink">
<g id="graph0" class="graph" transform="scale(1 1) rotate(0) translate(4 62)">
<title>mrbc_set_class_const</title>
<polygon fill="white" stroke="transparent" points="-4,4 -4,-62 253,-62 253,4 -4,4"/>
<!-- Node1 -->
<g id="node1" class="node">
<title>Node1</title>
<g id="a_node1"><a xlink:title=" ">
<polygon fill="#bfbfbf" stroke="black" points="0,-19.5 0,-38.5 115,-38.5 115,-19.5 0,-19.5"/>
<text text-anchor="middle" x="57.5" y="-26.5" font-family="Helvetica,sans-Serif" font-size="10.00">mrbc_set_class_const</text>
</a>
</g>
</g>
<!-- Node2 -->
<g id="node2" class="node">
<title>Node2</title>
<g id="a_node2"><a xlink:href="global_8c.html#ad81782b5b744fc35584b7764690ea605" target="_top" xlink:title=" ">
<polygon fill="white" stroke="red" points="157,-38.5 157,-57.5 243,-57.5 243,-38.5 157,-38.5"/>
<text text-anchor="middle" x="200" y="-45.5" font-family="Helvetica,sans-Serif" font-size="10.00">mrbc_set_const</text>
</a>
</g>
</g>
<!-- Node1&#45;&gt;Node2 -->
<g id="edge1" class="edge">
<title>Node1&#45;&gt;Node2</title>
<path fill="none" stroke="midnightblue" d="M115.24,-36.67C125.64,-38.08 136.44,-39.54 146.7,-40.93"/>
<polygon fill="midnightblue" stroke="midnightblue" points="146.36,-44.41 156.74,-42.29 147.3,-37.48 146.36,-44.41"/>
</g>
<!-- Node4 -->
<g id="node3" class="node">
<title>Node4</title>
<g id="a_node3"><a xlink:href="symbol_8c.html#a1c50a295f8cfdc0e9963d022c421d380" target="_top" xlink:title=" ">
<polygon fill="white" stroke="red" points="151,-0.5 151,-19.5 249,-19.5 249,-0.5 151,-0.5"/>
<text text-anchor="middle" x="200" y="-7.5" font-family="Helvetica,sans-Serif" font-size="10.00">mrbc_symbol_new</text>
</a>
</g>
</g>
<!-- Node1&#45;&gt;Node4 -->
<g id="edge2" class="edge">
<title>Node1&#45;&gt;Node4</title>
<path fill="none" stroke="midnightblue" d="M115.24,-21.33C123.58,-20.2 132.18,-19.04 140.55,-17.9"/>
<polygon fill="midnightblue" stroke="midnightblue" points="141.18,-21.35 150.62,-16.54 140.24,-14.41 141.18,-21.35"/>
</g>
</g>
</svg>
