<?xml version="1.0" encoding="UTF-8" standalone="no"?>
<!DOCTYPE svg PUBLIC "-//W3C//DTD SVG 1.1//EN"
 "http://www.w3.org/Graphics/SVG/1.1/DTD/svg11.dtd">
<!-- Generated by graphviz version 3.0.0 (20220226.1711)
 -->
<!-- Title: hal_selector.h Pages: 1 -->
<svg width="262pt" height="84pt"
 viewBox="0.00 0.00 262.00 84.00" xmlns="http://www.w3.org/2000/svg" xmlns:xlink="http://www.w3.org/1999/xlink">
<g id="graph0" class="graph" transform="scale(1 1) rotate(0) translate(4 80)">
<title>hal_selector.h</title>
<polygon fill="white" stroke="transparent" points="-4,4 -4,-80 258,-80 258,4 -4,4"/>
<!-- Node1 -->
<g id="node1" class="node">
<title>Node1</title>
<g id="a_node1"><a xlink:title="Selector of hardware abstraction layer.">
<polygon fill="#bfbfbf" stroke="black" points="92,-56.5 92,-75.5 169,-75.5 169,-56.5 92,-56.5"/>
<text text-anchor="middle" x="130.5" y="-63.5" font-family="Helvetica,sans-Serif" font-size="10.00">hal_selector.h</text>
</a>
</g>
</g>
<!-- Node2 -->
<g id="node2" class="node">
<title>Node2</title>
<g id="a_node2"><a xlink:href="alloc_8c.html" target="_top" xlink:title="mruby/c memory management.">
<polygon fill="white" stroke="black" points="0,-0.5 0,-19.5 45,-19.5 45,-0.5 0,-0.5"/>
<text text-anchor="middle" x="22.5" y="-7.5" font-family="Helvetica,sans-Serif" font-size="10.00">alloc.c</text>
</a>
</g>
</g>
<!-- Node1&#45;&gt;Node2 -->
<g id="edge1" class="edge">
<title>Node1&#45;&gt;Node2</title>
<path fill="none" stroke="midnightblue" d="M103.95,-51.73C83.95,-41.73 57.11,-28.31 39.81,-19.65"/>
<polygon fill="midnightblue" stroke="midnightblue" points="102.64,-54.98 113.15,-56.32 105.77,-48.72 102.64,-54.98"/>
</g>
<!-- Node3 -->
<g id="node3" class="node">
<title>Node3</title>
<g id="a_node3"><a xlink:href="console_8c.html" target="_top" xlink:title="console output module. (not yet input)">
<polygon fill="white" stroke="black" points="63,-0.5 63,-19.5 122,-19.5 122,-0.5 63,-0.5"/>
<text text-anchor="middle" x="92.5" y="-7.5" font-family="Helvetica,sans-Serif" font-size="10.00">console.c</text>
</a>
</g>
</g>
<!-- Node1&#45;&gt;Node3 -->
<g id="edge2" class="edge">
<title>Node1&#45;&gt;Node3</title>
<path fill="none" stroke="midnightblue" d="M118.44,-47.86C111.86,-38.5 103.99,-27.33 98.66,-19.75"/>
<polygon fill="midnightblue" stroke="midnightblue" points="115.61,-49.92 124.23,-56.08 121.33,-45.89 115.61,-49.92"/>
</g>
<!-- Node4 -->
<g id="node4" class="node">
<title>Node4</title>
<g id="a_node4"><a xlink:href="mrubyc_8h.html" target="_top" xlink:title="Include at once the necessary header files for user program.">
<polygon fill="white" stroke="black" points="140,-0.5 140,-19.5 197,-19.5 197,-0.5 140,-0.5"/>
<text text-anchor="middle" x="168.5" y="-7.5" font-family="Helvetica,sans-Serif" font-size="10.00">mrubyc.h</text>
</a>
</g>
</g>
<!-- Node1&#45;&gt;Node4 -->
<g id="edge3" class="edge">
<title>Node1&#45;&gt;Node4</title>
<path fill="none" stroke="midnightblue" d="M142.56,-47.86C149.14,-38.5 157.01,-27.33 162.34,-19.75"/>
<polygon fill="midnightblue" stroke="midnightblue" points="139.67,-45.89 136.77,-56.08 145.39,-49.92 139.67,-45.89"/>
</g>
<!-- Node5 -->
<g id="node5" class="node">
<title>Node5</title>
<g id="a_node5"><a xlink:href="rrt0_8c.html" target="_top" xlink:title="Realtime multitask monitor for mruby/c.">
<polygon fill="white" stroke="black" points="215,-0.5 215,-19.5 254,-19.5 254,-0.5 215,-0.5"/>
<text text-anchor="middle" x="234.5" y="-7.5" font-family="Helvetica,sans-Serif" font-size="10.00">rrt0.c</text>
</a>
</g>
</g>
<!-- Node1&#45;&gt;Node5 -->
<g id="edge4" class="edge">
<title>Node1&#45;&gt;Node5</title>
<path fill="none" stroke="midnightblue" d="M156.33,-51.59C175.56,-41.61 201.24,-28.27 217.83,-19.65"/>
<polygon fill="midnightblue" stroke="midnightblue" points="154.47,-48.61 147.21,-56.32 157.7,-54.82 154.47,-48.61"/>
</g>
</g>
</svg>
