<?xml version="1.0" encoding="UTF-8" standalone="no"?>
<!DOCTYPE svg PUBLIC "-//W3C//DTD SVG 1.1//EN"
 "http://www.w3.org/Graphics/SVG/1.1/DTD/svg11.dtd">
<!-- Generated by graphviz version 3.0.0 (20220226.1711)
 -->
<!-- Title: Graphical Class Hierarchy Pages: 1 -->
<svg width="161pt" height="256pt"
 viewBox="0.00 0.00 161.00 256.00" xmlns="http://www.w3.org/2000/svg" xmlns:xlink="http://www.w3.org/1999/xlink">
<g id="graph0" class="graph" transform="scale(1 1) rotate(0) translate(4 252)">
<title>Graphical Class Hierarchy</title>
<polygon fill="white" stroke="transparent" points="-4,4 -4,-252 157,-252 157,4 -4,4"/>
<!-- Node0 -->
<g id="node1" class="node">
<title>Node0</title>
<g id="a_node1"><a xlink:href="struct_r_basic.html" target="_top" xlink:title="Base class for some objects.">
<polygon fill="white" stroke="black" points="0,-114.5 0,-133.5 49,-133.5 49,-114.5 0,-114.5"/>
<text text-anchor="middle" x="24.5" y="-121.5" font-family="Helvetica,sans-Serif" font-size="10.00">RBasic</text>
</a>
</g>
</g>
<!-- Node1 -->
<g id="node2" class="node">
<title>Node1</title>
<g id="a_node2"><a xlink:href="struct_r_array.html" target="_top" xlink:title="Array object.">
<polygon fill="white" stroke="black" points="95.5,-228.5 95.5,-247.5 142.5,-247.5 142.5,-228.5 95.5,-228.5"/>
<text text-anchor="middle" x="119" y="-235.5" font-family="Helvetica,sans-Serif" font-size="10.00">RArray</text>
</a>
</g>
</g>
<!-- Node0&#45;&gt;Node1 -->
<g id="edge1" class="edge">
<title>Node0&#45;&gt;Node1</title>
<path fill="none" stroke="midnightblue" d="M33.93,-142.99C43.82,-163.65 61.86,-196.71 85,-219 88.71,-222.58 93.23,-225.74 97.71,-228.41"/>
<polygon fill="midnightblue" stroke="midnightblue" points="37,-141.3 29.62,-133.69 30.65,-144.24 37,-141.3"/>
</g>
<!-- Node2 -->
<g id="node3" class="node">
<title>Node2</title>
<g id="a_node3"><a xlink:href="struct_r_exception.html" target="_top" xlink:title="Exception object.">
<polygon fill="white" stroke="black" points="85,-190.5 85,-209.5 153,-209.5 153,-190.5 85,-190.5"/>
<text text-anchor="middle" x="119" y="-197.5" font-family="Helvetica,sans-Serif" font-size="10.00">RException</text>
</a>
</g>
</g>
<!-- Node0&#45;&gt;Node2 -->
<g id="edge2" class="edge">
<title>Node0&#45;&gt;Node2</title>
<path fill="none" stroke="midnightblue" d="M41.27,-141.17C52.74,-153.12 69,-169.01 85,-181 89.44,-184.33 94.52,-187.52 99.35,-190.3"/>
<polygon fill="midnightblue" stroke="midnightblue" points="43.56,-138.5 34.15,-133.62 38.46,-143.3 43.56,-138.5"/>
</g>
<!-- Node3 -->
<g id="node4" class="node">
<title>Node3</title>
<g id="a_node4"><a xlink:href="struct_r_hash.html" target="_top" xlink:title="Hash object.">
<polygon fill="white" stroke="black" points="95.5,-152.5 95.5,-171.5 142.5,-171.5 142.5,-152.5 95.5,-152.5"/>
<text text-anchor="middle" x="119" y="-159.5" font-family="Helvetica,sans-Serif" font-size="10.00">RHash</text>
</a>
</g>
</g>
<!-- Node0&#45;&gt;Node3 -->
<g id="edge3" class="edge">
<title>Node0&#45;&gt;Node3</title>
<path fill="none" stroke="midnightblue" d="M58.29,-137.47C70.54,-142.5 84.17,-148.1 95.31,-152.68"/>
<polygon fill="midnightblue" stroke="midnightblue" points="59.42,-134.15 48.84,-133.59 56.76,-140.63 59.42,-134.15"/>
</g>
<!-- Node4 -->
<g id="node5" class="node">
<title>Node4</title>
<g id="a_node5"><a xlink:href="struct_r_instance.html" target="_top" xlink:title="Instance object.">
<polygon fill="white" stroke="black" points="88,-114.5 88,-133.5 150,-133.5 150,-114.5 88,-114.5"/>
<text text-anchor="middle" x="119" y="-121.5" font-family="Helvetica,sans-Serif" font-size="10.00">RInstance</text>
</a>
</g>
</g>
<!-- Node0&#45;&gt;Node4 -->
<g id="edge4" class="edge">
<title>Node0&#45;&gt;Node4</title>
<path fill="none" stroke="midnightblue" d="M59.47,-124C68.8,-124 78.86,-124 87.96,-124"/>
<polygon fill="midnightblue" stroke="midnightblue" points="59.32,-120.5 49.32,-124 59.32,-127.5 59.32,-120.5"/>
</g>
<!-- Node5 -->
<g id="node6" class="node">
<title>Node5</title>
<g id="a_node6"><a xlink:href="struct_r_proc.html" target="_top" xlink:title="Proc object.">
<polygon fill="white" stroke="black" points="97,-76.5 97,-95.5 141,-95.5 141,-76.5 97,-76.5"/>
<text text-anchor="middle" x="119" y="-83.5" font-family="Helvetica,sans-Serif" font-size="10.00">RProc</text>
</a>
</g>
</g>
<!-- Node0&#45;&gt;Node5 -->
<g id="edge5" class="edge">
<title>Node0&#45;&gt;Node5</title>
<path fill="none" stroke="midnightblue" d="M58.29,-110.53C71.12,-105.26 85.47,-99.37 96.88,-94.68"/>
<polygon fill="midnightblue" stroke="midnightblue" points="56.76,-107.37 48.84,-114.41 59.42,-113.85 56.76,-107.37"/>
</g>
<!-- Node6 -->
<g id="node7" class="node">
<title>Node6</title>
<g id="a_node7"><a xlink:href="struct_r_range.html" target="_top" xlink:title="Range object.">
<polygon fill="white" stroke="black" points="92.5,-38.5 92.5,-57.5 145.5,-57.5 145.5,-38.5 92.5,-38.5"/>
<text text-anchor="middle" x="119" y="-45.5" font-family="Helvetica,sans-Serif" font-size="10.00">RRange</text>
</a>
</g>
</g>
<!-- Node0&#45;&gt;Node6 -->
<g id="edge6" class="edge">
<title>Node0&#45;&gt;Node6</title>
<path fill="none" stroke="midnightblue" d="M41.27,-106.83C52.74,-94.88 69,-78.99 85,-67 89.44,-63.67 94.52,-60.48 99.35,-57.7"/>
<polygon fill="midnightblue" stroke="midnightblue" points="38.46,-104.7 34.15,-114.38 43.56,-109.5 38.46,-104.7"/>
</g>
<!-- Node7 -->
<g id="node8" class="node">
<title>Node7</title>
<g id="a_node8"><a xlink:href="struct_r_string.html" target="_top" xlink:title="String object.">
<polygon fill="white" stroke="black" points="94,-0.5 94,-19.5 144,-19.5 144,-0.5 94,-0.5"/>
<text text-anchor="middle" x="119" y="-7.5" font-family="Helvetica,sans-Serif" font-size="10.00">RString</text>
</a>
</g>
</g>
<!-- Node0&#45;&gt;Node7 -->
<g id="edge7" class="edge">
<title>Node0&#45;&gt;Node7</title>
<path fill="none" stroke="midnightblue" d="M33.93,-105.01C43.82,-84.35 61.86,-51.29 85,-29 88.71,-25.42 93.23,-22.26 97.71,-19.59"/>
<polygon fill="midnightblue" stroke="midnightblue" points="30.65,-103.76 29.62,-114.31 37,-106.7 30.65,-103.76"/>
</g>
</g>
</svg>
