<?xml version="1.0" encoding="UTF-8" standalone="no"?>
<!DOCTYPE svg PUBLIC "-//W3C//DTD SVG 1.1//EN"
 "http://www.w3.org/Graphics/SVG/1.1/DTD/svg11.dtd">
<!-- Generated by graphviz version 3.0.0 (20220226.1711)
 -->
<!-- Title: keyvalue.h Pages: 1 -->
<svg width="265pt" height="140pt"
 viewBox="0.00 0.00 265.00 140.00" xmlns="http://www.w3.org/2000/svg" xmlns:xlink="http://www.w3.org/1999/xlink">
<g id="graph0" class="graph" transform="scale(1 1) rotate(0) translate(4 136)">
<title>keyvalue.h</title>
<polygon fill="white" stroke="transparent" points="-4,4 -4,-136 261,-136 261,4 -4,4"/>
<!-- Node1 -->
<g id="node1" class="node">
<title>Node1</title>
<g id="a_node1"><a xlink:title="mruby/c Key(Symbol) &#45; Value store.">
<polygon fill="#bfbfbf" stroke="black" points="81,-112.5 81,-131.5 145,-131.5 145,-112.5 81,-112.5"/>
<text text-anchor="middle" x="113" y="-119.5" font-family="Helvetica,sans-Serif" font-size="10.00">keyvalue.h</text>
</a>
</g>
</g>
<!-- Node2 -->
<g id="node2" class="node">
<title>Node2</title>
<g id="a_node2"><a xlink:href="class_8c.html" target="_top" xlink:title="Class related functions.">
<polygon fill="white" stroke="black" points="0,-0.5 0,-19.5 48,-19.5 48,-0.5 0,-0.5"/>
<text text-anchor="middle" x="24" y="-7.5" font-family="Helvetica,sans-Serif" font-size="10.00">class.c</text>
</a>
</g>
</g>
<!-- Node1&#45;&gt;Node2 -->
<g id="edge1" class="edge">
<title>Node1&#45;&gt;Node2</title>
<path fill="none" stroke="midnightblue" d="M97.86,-104.61C90.23,-96.2 80.95,-85.7 73,-76 56.88,-56.32 39.2,-32.18 30.13,-19.58"/>
<polygon fill="midnightblue" stroke="midnightblue" points="95.48,-107.2 104.81,-112.22 100.65,-102.48 95.48,-107.2"/>
</g>
<!-- Node3 -->
<g id="node3" class="node">
<title>Node3</title>
<g id="a_node3"><a xlink:href="class_8h.html" target="_top" xlink:title="Class related functions.">
<polygon fill="white" stroke="red" points="89,-56.5 89,-75.5 137,-75.5 137,-56.5 89,-56.5"/>
<text text-anchor="middle" x="113" y="-63.5" font-family="Helvetica,sans-Serif" font-size="10.00">class.h</text>
</a>
</g>
</g>
<!-- Node1&#45;&gt;Node3 -->
<g id="edge2" class="edge">
<title>Node1&#45;&gt;Node3</title>
<path fill="none" stroke="midnightblue" d="M113,-101.8C113,-92.91 113,-82.78 113,-75.75"/>
<polygon fill="midnightblue" stroke="midnightblue" points="109.5,-102.08 113,-112.08 116.5,-102.08 109.5,-102.08"/>
</g>
<!-- Node13 -->
<g id="node4" class="node">
<title>Node13</title>
<g id="a_node4"><a xlink:href="global_8c.html" target="_top" xlink:title="Constant and global variables.">
<polygon fill="white" stroke="black" points="67,-0.5 67,-19.5 117,-19.5 117,-0.5 67,-0.5"/>
<text text-anchor="middle" x="92" y="-7.5" font-family="Helvetica,sans-Serif" font-size="10.00">global.c</text>
</a>
</g>
</g>
<!-- Node1&#45;&gt;Node13 -->
<g id="edge6" class="edge">
<title>Node1&#45;&gt;Node13</title>
<path fill="none" stroke="midnightblue" d="M97.29,-104.88C90.57,-96.88 83.49,-86.66 80,-76 73.57,-56.37 82.12,-32.21 87.76,-19.59"/>
<polygon fill="midnightblue" stroke="midnightblue" points="94.7,-107.24 103.98,-112.34 99.9,-102.56 94.7,-107.24"/>
</g>
<!-- Node14 -->
<g id="node5" class="node">
<title>Node14</title>
<g id="a_node5"><a xlink:href="mrubyc_8h.html" target="_top" xlink:title="Include at once the necessary header files for user program.">
<polygon fill="white" stroke="black" points="135.5,-0.5 135.5,-19.5 192.5,-19.5 192.5,-0.5 135.5,-0.5"/>
<text text-anchor="middle" x="164" y="-7.5" font-family="Helvetica,sans-Serif" font-size="10.00">mrubyc.h</text>
</a>
</g>
</g>
<!-- Node1&#45;&gt;Node14 -->
<g id="edge8" class="edge">
<title>Node1&#45;&gt;Node14</title>
<path fill="none" stroke="midnightblue" d="M127.41,-104.42C133.86,-96.31 141.1,-86.11 146,-76 155.2,-57.03 160.36,-32.6 162.61,-19.77"/>
<polygon fill="midnightblue" stroke="midnightblue" points="124.55,-102.39 120.87,-112.32 129.94,-106.85 124.55,-102.39"/>
</g>
<!-- Node22 -->
<g id="node6" class="node">
<title>Node22</title>
<g id="a_node6"><a xlink:href="keyvalue_8c.html" target="_top" xlink:title="mruby/c Key(Symbol) &#45; Value store.">
<polygon fill="white" stroke="black" points="193,-56.5 193,-75.5 257,-75.5 257,-56.5 193,-56.5"/>
<text text-anchor="middle" x="225" y="-63.5" font-family="Helvetica,sans-Serif" font-size="10.00">keyvalue.c</text>
</a>
</g>
</g>
<!-- Node1&#45;&gt;Node22 -->
<g id="edge7" class="edge">
<title>Node1&#45;&gt;Node22</title>
<path fill="none" stroke="midnightblue" d="M140.25,-107.86C161.02,-97.85 189.02,-84.35 207.05,-75.65"/>
<polygon fill="midnightblue" stroke="midnightblue" points="138.48,-104.83 130.99,-112.32 141.52,-111.13 138.48,-104.83"/>
</g>
<!-- Node3&#45;&gt;Node2 -->
<g id="edge3" class="edge">
<title>Node3&#45;&gt;Node2</title>
<path fill="none" stroke="midnightblue" d="M89.76,-50.9C73.44,-41 52.13,-28.07 38.26,-19.65"/>
<polygon fill="midnightblue" stroke="midnightblue" points="88.34,-54.13 98.7,-56.32 91.97,-48.14 88.34,-54.13"/>
</g>
<!-- Node3&#45;&gt;Node13 -->
<g id="edge4" class="edge">
<title>Node3&#45;&gt;Node13</title>
<path fill="none" stroke="midnightblue" d="M105.88,-46.69C102.34,-37.59 98.23,-27.01 95.4,-19.75"/>
<polygon fill="midnightblue" stroke="midnightblue" points="102.65,-48.03 109.53,-56.08 109.17,-45.49 102.65,-48.03"/>
</g>
<!-- Node3&#45;&gt;Node14 -->
<g id="edge5" class="edge">
<title>Node3&#45;&gt;Node14</title>
<path fill="none" stroke="midnightblue" d="M128.38,-48.72C137.37,-39.2 148.36,-27.56 155.74,-19.75"/>
<polygon fill="midnightblue" stroke="midnightblue" points="125.74,-46.41 121.42,-56.08 130.83,-51.22 125.74,-46.41"/>
</g>
</g>
</svg>
