<?xml version="1.0" encoding="UTF-8" standalone="no"?>
<!DOCTYPE svg PUBLIC "-//W3C//DTD SVG 1.1//EN"
 "http://www.w3.org/Graphics/SVG/1.1/DTD/svg11.dtd">
<!-- Generated by graphviz version 3.0.0 (20220226.1711)
 -->
<!-- Title: keyvalue.c Pages: 1 -->
<svg width="147pt" height="140pt"
 viewBox="0.00 0.00 147.48 140.00" xmlns="http://www.w3.org/2000/svg" xmlns:xlink="http://www.w3.org/1999/xlink">
<g id="graph0" class="graph" transform="scale(1 1) rotate(0) translate(4 136)">
<title>keyvalue.c</title>
<polygon fill="white" stroke="transparent" points="-4,4 -4,-136 143.48,-136 143.48,4 -4,4"/>
<!-- Node1 -->
<g id="node1" class="node">
<title>Node1</title>
<g id="a_node1"><a xlink:title="mruby/c Key(Symbol) &#45; Value store.">
<polygon fill="#bfbfbf" stroke="black" points="2.48,-112.5 2.48,-131.5 66.48,-131.5 66.48,-112.5 2.48,-112.5"/>
<text text-anchor="middle" x="34.48" y="-119.5" font-family="Helvetica,sans-Serif" font-size="10.00">keyvalue.c</text>
</a>
</g>
</g>
<!-- Node2 -->
<g id="node2" class="node">
<title>Node2</title>
<g id="a_node2"><a xlink:href="value_8h.html" target="_top" xlink:title="mruby/c value definitions">
<polygon fill="white" stroke="black" points="21.48,-0.5 21.48,-19.5 69.48,-19.5 69.48,-0.5 21.48,-0.5"/>
<text text-anchor="middle" x="45.48" y="-7.5" font-family="Helvetica,sans-Serif" font-size="10.00">value.h</text>
</a>
</g>
</g>
<!-- Node1&#45;&gt;Node2 -->
<g id="edge1" class="edge">
<title>Node1&#45;&gt;Node2</title>
<path fill="none" stroke="midnightblue" d="M25.05,-112.36C12.87,-100.09 -5.86,-76.78 2.48,-56 7.16,-44.33 16.47,-33.97 25.23,-26.14"/>
<polygon fill="midnightblue" stroke="midnightblue" points="27.53,-28.78 32.98,-19.7 23.05,-23.4 27.53,-28.78"/>
</g>
<!-- Node3 -->
<g id="node3" class="node">
<title>Node3</title>
<g id="a_node3"><a xlink:href="alloc_8h.html" target="_top" xlink:title="mruby/c memory management.">
<polygon fill="white" stroke="black" points="11.98,-56.5 11.98,-75.5 56.98,-75.5 56.98,-56.5 11.98,-56.5"/>
<text text-anchor="middle" x="34.48" y="-63.5" font-family="Helvetica,sans-Serif" font-size="10.00">alloc.h</text>
</a>
</g>
</g>
<!-- Node1&#45;&gt;Node3 -->
<g id="edge2" class="edge">
<title>Node1&#45;&gt;Node3</title>
<path fill="none" stroke="midnightblue" d="M34.48,-112.08C34.48,-105.01 34.48,-94.86 34.48,-85.99"/>
<polygon fill="midnightblue" stroke="midnightblue" points="37.98,-85.75 34.48,-75.75 30.98,-85.75 37.98,-85.75"/>
</g>
<!-- Node4 -->
<g id="node4" class="node">
<title>Node4</title>
<g id="a_node4"><a xlink:href="keyvalue_8h.html" target="_top" xlink:title="mruby/c Key(Symbol) &#45; Value store.">
<polygon fill="white" stroke="black" points="75.48,-56.5 75.48,-75.5 139.48,-75.5 139.48,-56.5 75.48,-56.5"/>
<text text-anchor="middle" x="107.48" y="-63.5" font-family="Helvetica,sans-Serif" font-size="10.00">keyvalue.h</text>
</a>
</g>
</g>
<!-- Node1&#45;&gt;Node4 -->
<g id="edge3" class="edge">
<title>Node1&#45;&gt;Node4</title>
<path fill="none" stroke="midnightblue" d="M46.2,-112.32C57.31,-104.11 74.22,-91.6 87.46,-81.81"/>
<polygon fill="midnightblue" stroke="midnightblue" points="89.57,-84.59 95.53,-75.83 85.41,-78.97 89.57,-84.59"/>
</g>
<!-- Node4&#45;&gt;Node2 -->
<g id="edge4" class="edge">
<title>Node4&#45;&gt;Node2</title>
<path fill="none" stroke="midnightblue" d="M97.51,-56.32C88.35,-48.34 74.54,-36.31 63.45,-26.65"/>
<polygon fill="midnightblue" stroke="midnightblue" points="65.46,-23.76 55.62,-19.83 60.86,-29.04 65.46,-23.76"/>
</g>
</g>
</svg>
