<?xml version="1.0" encoding="UTF-8" standalone="no"?>
<!DOCTYPE svg PUBLIC "-//W3C//DTD SVG 1.1//EN"
 "http://www.w3.org/Graphics/SVG/1.1/DTD/svg11.dtd">
<!-- Generated by graphviz version 3.0.0 (20220226.1711)
 -->
<!-- Title: mrbc_kv_delete Pages: 1 -->
<svg width="357pt" height="47pt"
 viewBox="0.00 0.00 357.00 47.00" xmlns="http://www.w3.org/2000/svg" xmlns:xlink="http://www.w3.org/1999/xlink">
<g id="graph0" class="graph" transform="scale(1 1) rotate(0) translate(4 43)">
<title>mrbc_kv_delete</title>
<polygon fill="white" stroke="transparent" points="-4,4 -4,-43 353,-43 353,4 -4,4"/>
<!-- Node1 -->
<g id="node1" class="node">
<title>Node1</title>
<g id="a_node1"><a xlink:title=" ">
<polygon fill="#bfbfbf" stroke="black" points="0,-0.5 0,-19.5 86,-19.5 86,-0.5 0,-0.5"/>
<text text-anchor="middle" x="43" y="-7.5" font-family="Helvetica,sans-Serif" font-size="10.00">mrbc_kv_delete</text>
</a>
</g>
</g>
<!-- Node2 -->
<g id="node2" class="node">
<title>Node2</title>
<g id="a_node2"><a xlink:href="keyvalue_8c.html#aaadb690b23d5c4cec82764c05b52cab8" target="_top" xlink:title=" ">
<polygon fill="white" stroke="red" points="122,-19.5 122,-38.5 232,-38.5 232,-19.5 122,-19.5"/>
<text text-anchor="middle" x="177" y="-26.5" font-family="Helvetica,sans-Serif" font-size="10.00">mrbc_kv_delete_data</text>
</a>
</g>
</g>
<!-- Node1&#45;&gt;Node2 -->
<g id="edge1" class="edge">
<title>Node1&#45;&gt;Node2</title>
<path fill="none" stroke="midnightblue" d="M86.13,-16.06C94.26,-17.23 102.96,-18.49 111.61,-19.73"/>
<polygon fill="midnightblue" stroke="midnightblue" points="111.33,-23.23 121.72,-21.19 112.32,-16.3 111.33,-23.23"/>
</g>
<!-- Node4 -->
<g id="node3" class="node">
<title>Node4</title>
<g id="a_node3"><a xlink:href="alloc_8c.html#add284a6bc6f81677d520f64896974572" target="_top" xlink:title=" ">
<polygon fill="white" stroke="black" points="268,-0.5 268,-19.5 349,-19.5 349,-0.5 268,-0.5"/>
<text text-anchor="middle" x="308.5" y="-7.5" font-family="Helvetica,sans-Serif" font-size="10.00">mrbc_raw_free</text>
</a>
</g>
</g>
<!-- Node1&#45;&gt;Node4 -->
<g id="edge3" class="edge">
<title>Node1&#45;&gt;Node4</title>
<path fill="none" stroke="midnightblue" d="M86.04,-10C132.71,-10 207.96,-10 257.58,-10"/>
<polygon fill="midnightblue" stroke="midnightblue" points="257.76,-13.5 267.76,-10 257.76,-6.5 257.76,-13.5"/>
</g>
<!-- Node2&#45;&gt;Node4 -->
<g id="edge2" class="edge">
<title>Node2&#45;&gt;Node4</title>
<path fill="none" stroke="midnightblue" d="M232.17,-21.05C240.64,-19.81 249.37,-18.53 257.74,-17.3"/>
<polygon fill="midnightblue" stroke="midnightblue" points="258.35,-20.75 267.73,-15.83 257.33,-13.82 258.35,-20.75"/>
</g>
</g>
</svg>
