<?xml version="1.0" encoding="UTF-8" standalone="no"?>
<!DOCTYPE svg PUBLIC "-//W3C//DTD SVG 1.1//EN"
 "http://www.w3.org/Graphics/SVG/1.1/DTD/svg11.dtd">
<!-- Generated by graphviz version 3.0.0 (20220226.1711)
 -->
<!-- Title: mrbc_kv_get Pages: 1 -->
<svg width="232pt" height="180pt"
 viewBox="0.00 0.00 232.00 180.00" xmlns="http://www.w3.org/2000/svg" xmlns:xlink="http://www.w3.org/1999/xlink">
<g id="graph0" class="graph" transform="scale(1 1) rotate(0) translate(4 176)">
<title>mrbc_kv_get</title>
<polygon fill="white" stroke="transparent" points="-4,4 -4,-176 228,-176 228,4 -4,4"/>
<!-- Node1 -->
<g id="node1" class="node">
<title>Node1</title>
<g id="a_node1"><a xlink:title=" ">
<polygon fill="#bfbfbf" stroke="black" points="151,-76.5 151,-95.5 224,-95.5 224,-76.5 151,-76.5"/>
<text text-anchor="middle" x="187.5" y="-83.5" font-family="Helvetica,sans-Serif" font-size="10.00">mrbc_kv_get</text>
</a>
</g>
</g>
<!-- Node2 -->
<g id="node2" class="node">
<title>Node2</title>
<g id="a_node2"><a xlink:href="global_8c.html#a2d4d975d4d4f5769a815c83595b84f8c" target="_top" xlink:title=" ">
<polygon fill="white" stroke="black" points="0,-152.5 0,-171.5 115,-171.5 115,-152.5 0,-152.5"/>
<text text-anchor="middle" x="57.5" y="-159.5" font-family="Helvetica,sans-Serif" font-size="10.00">mrbc_get_class_const</text>
</a>
</g>
</g>
<!-- Node1&#45;&gt;Node2 -->
<g id="edge1" class="edge">
<title>Node1&#45;&gt;Node2</title>
<path fill="none" stroke="midnightblue" d="M168.97,-102.88C155.22,-115.38 135.09,-132.06 115,-143 108.27,-146.66 100.72,-149.8 93.37,-152.4"/>
<polygon fill="midnightblue" stroke="midnightblue" points="171.72,-105.11 176.66,-95.73 166.95,-99.98 171.72,-105.11"/>
</g>
<!-- Node3 -->
<g id="node3" class="node">
<title>Node3</title>
<g id="a_node3"><a xlink:href="global_8c.html#a9c14b559b38791260adeb0a47a5ef74e" target="_top" xlink:title=" ">
<polygon fill="white" stroke="red" points="14.5,-114.5 14.5,-133.5 100.5,-133.5 100.5,-114.5 14.5,-114.5"/>
<text text-anchor="middle" x="57.5" y="-121.5" font-family="Helvetica,sans-Serif" font-size="10.00">mrbc_get_const</text>
</a>
</g>
</g>
<!-- Node1&#45;&gt;Node3 -->
<g id="edge2" class="edge">
<title>Node1&#45;&gt;Node3</title>
<path fill="none" stroke="midnightblue" d="M144.28,-98.54C126.86,-103.7 107.01,-109.6 90.79,-114.41"/>
<polygon fill="midnightblue" stroke="midnightblue" points="145.61,-101.79 154.2,-95.59 143.62,-95.08 145.61,-101.79"/>
</g>
<!-- Node5 -->
<g id="node4" class="node">
<title>Node5</title>
<g id="a_node4"><a xlink:href="global_8c.html#a9d173342af33d3137eaefdc6fbe42534" target="_top" xlink:title=" ">
<polygon fill="white" stroke="black" points="13.5,-76.5 13.5,-95.5 101.5,-95.5 101.5,-76.5 13.5,-76.5"/>
<text text-anchor="middle" x="57.5" y="-83.5" font-family="Helvetica,sans-Serif" font-size="10.00">mrbc_get_global</text>
</a>
</g>
</g>
<!-- Node1&#45;&gt;Node5 -->
<g id="edge3" class="edge">
<title>Node1&#45;&gt;Node5</title>
<path fill="none" stroke="midnightblue" d="M140.51,-86C127.86,-86 114.19,-86 101.7,-86"/>
<polygon fill="midnightblue" stroke="midnightblue" points="140.84,-89.5 150.84,-86 140.84,-82.5 140.84,-89.5"/>
</g>
<!-- Node6 -->
<g id="node5" class="node">
<title>Node6</title>
<g id="a_node5"><a xlink:href="class_8c.html#a6d2b0091921436c5f7ce6d75422ce59e" target="_top" xlink:title=" ">
<polygon fill="white" stroke="black" points="4,-38.5 4,-57.5 111,-57.5 111,-38.5 4,-38.5"/>
<text text-anchor="middle" x="57.5" y="-45.5" font-family="Helvetica,sans-Serif" font-size="10.00">mrbc_instance_getiv</text>
</a>
</g>
</g>
<!-- Node1&#45;&gt;Node6 -->
<g id="edge4" class="edge">
<title>Node1&#45;&gt;Node6</title>
<path fill="none" stroke="midnightblue" d="M144.28,-73.46C126.86,-68.3 107.01,-62.4 90.79,-57.59"/>
<polygon fill="midnightblue" stroke="midnightblue" points="143.62,-76.92 154.2,-76.41 145.61,-70.21 143.62,-76.92"/>
</g>
<!-- Node7 -->
<g id="node6" class="node">
<title>Node7</title>
<g id="a_node6"><a xlink:href="global_8c.html#ad81782b5b744fc35584b7764690ea605" target="_top" xlink:title=" ">
<polygon fill="white" stroke="red" points="14.5,-0.5 14.5,-19.5 100.5,-19.5 100.5,-0.5 14.5,-0.5"/>
<text text-anchor="middle" x="57.5" y="-7.5" font-family="Helvetica,sans-Serif" font-size="10.00">mrbc_set_const</text>
</a>
</g>
</g>
<!-- Node1&#45;&gt;Node7 -->
<g id="edge5" class="edge">
<title>Node1&#45;&gt;Node7</title>
<path fill="none" stroke="midnightblue" d="M168.97,-69.12C155.22,-56.62 135.09,-39.94 115,-29 108.27,-25.34 100.72,-22.2 93.37,-19.6"/>
<polygon fill="midnightblue" stroke="midnightblue" points="166.95,-72.02 176.66,-76.27 171.72,-66.89 166.95,-72.02"/>
</g>
</g>
</svg>
