<?xml version="1.0" encoding="UTF-8" standalone="no"?>
<!DOCTYPE svg PUBLIC "-//W3C//DTD SVG 1.1//EN"
 "http://www.w3.org/Graphics/SVG/1.1/DTD/svg11.dtd">
<!-- Generated by graphviz version 3.0.0 (20220226.1711)
 -->
<!-- Title: mrbc_kv_delete_data Pages: 1 -->
<svg width="266pt" height="66pt"
 viewBox="0.00 0.00 266.00 66.00" xmlns="http://www.w3.org/2000/svg" xmlns:xlink="http://www.w3.org/1999/xlink">
<g id="graph0" class="graph" transform="scale(1 1) rotate(0) translate(4 62)">
<title>mrbc_kv_delete_data</title>
<polygon fill="white" stroke="transparent" points="-4,4 -4,-62 262,-62 262,4 -4,4"/>
<!-- Node1 -->
<g id="node1" class="node">
<title>Node1</title>
<g id="a_node1"><a xlink:title=" ">
<polygon fill="#bfbfbf" stroke="black" points="148,-19.5 148,-38.5 258,-38.5 258,-19.5 148,-19.5"/>
<text text-anchor="middle" x="203" y="-26.5" font-family="Helvetica,sans-Serif" font-size="10.00">mrbc_kv_delete_data</text>
</a>
</g>
</g>
<!-- Node2 -->
<g id="node2" class="node">
<title>Node2</title>
<g id="a_node2"><a xlink:href="class_8c.html#ab65c16388fcf33ff5fd13cc9f8e0af1f" target="_top" xlink:title=" ">
<polygon fill="white" stroke="black" points="0,-38.5 0,-57.5 112,-57.5 112,-38.5 0,-38.5"/>
<text text-anchor="middle" x="56" y="-45.5" font-family="Helvetica,sans-Serif" font-size="10.00">mrbc_instance_delete</text>
</a>
</g>
</g>
<!-- Node1&#45;&gt;Node2 -->
<g id="edge1" class="edge">
<title>Node1&#45;&gt;Node2</title>
<path fill="none" stroke="midnightblue" d="M137.43,-37.46C129.01,-38.56 120.44,-39.69 112.19,-40.77"/>
<polygon fill="midnightblue" stroke="midnightblue" points="138.13,-40.9 147.59,-36.13 137.22,-33.96 138.13,-40.9"/>
</g>
<!-- Node3 -->
<g id="node3" class="node">
<title>Node3</title>
<g id="a_node3"><a xlink:href="keyvalue_8c.html#a450e6844b6e260f02700354f5b5040bd" target="_top" xlink:title=" ">
<polygon fill="white" stroke="black" points="13,-0.5 13,-19.5 99,-19.5 99,-0.5 13,-0.5"/>
<text text-anchor="middle" x="56" y="-7.5" font-family="Helvetica,sans-Serif" font-size="10.00">mrbc_kv_delete</text>
</a>
</g>
</g>
<!-- Node1&#45;&gt;Node3 -->
<g id="edge2" class="edge">
<title>Node1&#45;&gt;Node3</title>
<path fill="none" stroke="midnightblue" d="M137.67,-20.57C124.57,-18.85 111.1,-17.09 99.02,-15.51"/>
<polygon fill="midnightblue" stroke="midnightblue" points="137.22,-24.04 147.59,-21.87 138.13,-17.1 137.22,-24.04"/>
</g>
</g>
</svg>
