<?xml version="1.0" encoding="UTF-8" standalone="no"?>
<!DOCTYPE svg PUBLIC "-//W3C//DTD SVG 1.1//EN"
 "http://www.w3.org/Graphics/SVG/1.1/DTD/svg11.dtd">
<!-- Generated by graphviz version 3.0.0 (20220226.1711)
 -->
<!-- Title: mrbc_irep_free Pages: 1 -->
<svg width="206pt" height="46pt"
 viewBox="0.00 0.00 206.00 46.00" xmlns="http://www.w3.org/2000/svg" xmlns:xlink="http://www.w3.org/1999/xlink">
<g id="graph0" class="graph" transform="scale(1 1) rotate(0) translate(4 42)">
<title>mrbc_irep_free</title>
<polygon fill="white" stroke="transparent" points="-4,4 -4,-42 202,-42 202,4 -4,4"/>
<!-- Node1 -->
<g id="node1" class="node">
<title>Node1</title>
<g id="a_node1"><a xlink:title=" ">
<polygon fill="#bfbfbf" stroke="black" points="0,-0.5 0,-19.5 81,-19.5 81,-0.5 0,-0.5"/>
<text text-anchor="middle" x="40.5" y="-7.5" font-family="Helvetica,sans-Serif" font-size="10.00">mrbc_irep_free</text>
</a>
</g>
</g>
<!-- Node1&#45;&gt;Node1 -->
<g id="edge1" class="edge">
<title>Node1&#45;&gt;Node1</title>
<path fill="none" stroke="midnightblue" d="M22.62,-19.76C13.92,-28.57 19.88,-38 40.5,-38 53.39,-38 60.55,-34.31 61.98,-29.4"/>
<polygon fill="midnightblue" stroke="midnightblue" points="65.16,-27.9 58.38,-19.76 58.6,-30.35 65.16,-27.9"/>
</g>
<!-- Node2 -->
<g id="node2" class="node">
<title>Node2</title>
<g id="a_node2"><a xlink:href="alloc_8c.html#add284a6bc6f81677d520f64896974572" target="_top" xlink:title=" ">
<polygon fill="white" stroke="black" points="117,-0.5 117,-19.5 198,-19.5 198,-0.5 117,-0.5"/>
<text text-anchor="middle" x="157.5" y="-7.5" font-family="Helvetica,sans-Serif" font-size="10.00">mrbc_raw_free</text>
</a>
</g>
</g>
<!-- Node1&#45;&gt;Node2 -->
<g id="edge2" class="edge">
<title>Node1&#45;&gt;Node2</title>
<path fill="none" stroke="midnightblue" d="M81.08,-10C89.3,-10 98.06,-10 106.6,-10"/>
<polygon fill="midnightblue" stroke="midnightblue" points="106.85,-13.5 116.85,-10 106.85,-6.5 106.85,-13.5"/>
</g>
</g>
</svg>
