<?xml version="1.0" encoding="UTF-8" standalone="no"?>
<!DOCTYPE svg PUBLIC "-//W3C//DTD SVG 1.1//EN"
 "http://www.w3.org/Graphics/SVG/1.1/DTD/svg11.dtd">
<!-- Generated by graphviz version 3.0.0 (20220226.1711)
 -->
<!-- Title: load.c Pages: 1 -->
<svg width="423pt" height="140pt"
 viewBox="0.00 0.00 422.50 140.00" xmlns="http://www.w3.org/2000/svg" xmlns:xlink="http://www.w3.org/1999/xlink">
<g id="graph0" class="graph" transform="scale(1 1) rotate(0) translate(4 136)">
<title>load.c</title>
<polygon fill="white" stroke="transparent" points="-4,4 -4,-136 418.5,-136 418.5,4 -4,4"/>
<!-- Node1 -->
<g id="node1" class="node">
<title>Node1</title>
<g id="a_node1"><a xlink:title="mruby bytecode loader.">
<polygon fill="#bfbfbf" stroke="black" points="164.5,-112.5 164.5,-131.5 207.5,-131.5 207.5,-112.5 164.5,-112.5"/>
<text text-anchor="middle" x="186" y="-119.5" font-family="Helvetica,sans-Serif" font-size="10.00">load.c</text>
</a>
</g>
</g>
<!-- Node2 -->
<g id="node2" class="node">
<title>Node2</title>
<g id="a_node2"><a xlink:href="vm_8h.html" target="_top" xlink:title="mruby bytecode executor.">
<polygon fill="white" stroke="red" points="0,-56.5 0,-75.5 38,-75.5 38,-56.5 0,-56.5"/>
<text text-anchor="middle" x="19" y="-63.5" font-family="Helvetica,sans-Serif" font-size="10.00">vm.h</text>
</a>
</g>
</g>
<!-- Node1&#45;&gt;Node2 -->
<g id="edge1" class="edge">
<title>Node1&#45;&gt;Node2</title>
<path fill="none" stroke="midnightblue" d="M164.17,-113.94C134.36,-104.3 80.87,-87.01 47.81,-76.31"/>
<polygon fill="midnightblue" stroke="midnightblue" points="48.84,-72.97 38.25,-73.22 46.69,-79.63 48.84,-72.97"/>
</g>
<!-- Node3 -->
<g id="node3" class="node">
<title>Node3</title>
<g id="a_node3"><a xlink:href="value_8h.html" target="_top" xlink:title="mruby/c value definitions">
<polygon fill="white" stroke="black" points="196,-0.5 196,-19.5 244,-19.5 244,-0.5 196,-0.5"/>
<text text-anchor="middle" x="220" y="-7.5" font-family="Helvetica,sans-Serif" font-size="10.00">value.h</text>
</a>
</g>
</g>
<!-- Node1&#45;&gt;Node3 -->
<g id="edge4" class="edge">
<title>Node1&#45;&gt;Node3</title>
<path fill="none" stroke="midnightblue" d="M164.42,-116.61C128.34,-108.27 61.9,-88.06 85,-56 107.78,-24.4 153.71,-14.65 185.63,-11.83"/>
<polygon fill="midnightblue" stroke="midnightblue" points="186.14,-15.3 195.87,-11.12 185.65,-8.32 186.14,-15.3"/>
</g>
<!-- Node7 -->
<g id="node4" class="node">
<title>Node7</title>
<g id="a_node4"><a xlink:href="alloc_8h.html" target="_top" xlink:title="mruby/c memory management.">
<polygon fill="white" stroke="black" points="94.5,-56.5 94.5,-75.5 139.5,-75.5 139.5,-56.5 94.5,-56.5"/>
<text text-anchor="middle" x="117" y="-63.5" font-family="Helvetica,sans-Serif" font-size="10.00">alloc.h</text>
</a>
</g>
</g>
<!-- Node1&#45;&gt;Node7 -->
<g id="edge3" class="edge">
<title>Node1&#45;&gt;Node7</title>
<path fill="none" stroke="midnightblue" d="M174.91,-112.32C164.51,-104.18 148.74,-91.84 136.28,-82.09"/>
<polygon fill="midnightblue" stroke="midnightblue" points="138.32,-79.24 128.29,-75.83 134.01,-84.75 138.32,-79.24"/>
</g>
<!-- Node8 -->
<g id="node5" class="node">
<title>Node8</title>
<g id="a_node5"><a xlink:href="symbol_8h.html" target="_top" xlink:title="mruby/c Symbol class">
<polygon fill="white" stroke="red" points="158,-56.5 158,-75.5 214,-75.5 214,-56.5 158,-56.5"/>
<text text-anchor="middle" x="186" y="-63.5" font-family="Helvetica,sans-Serif" font-size="10.00">symbol.h</text>
</a>
</g>
</g>
<!-- Node1&#45;&gt;Node8 -->
<g id="edge5" class="edge">
<title>Node1&#45;&gt;Node8</title>
<path fill="none" stroke="midnightblue" d="M186,-112.08C186,-105.01 186,-94.86 186,-85.99"/>
<polygon fill="midnightblue" stroke="midnightblue" points="189.5,-85.75 186,-75.75 182.5,-85.75 189.5,-85.75"/>
</g>
<!-- Node6 -->
<g id="node6" class="node">
<title>Node6</title>
<g id="a_node6"><a xlink:href="error_8h.html" target="_top" xlink:title="exception classes">
<polygon fill="white" stroke="black" points="232,-56.5 232,-75.5 276,-75.5 276,-56.5 232,-56.5"/>
<text text-anchor="middle" x="254" y="-63.5" font-family="Helvetica,sans-Serif" font-size="10.00">error.h</text>
</a>
</g>
</g>
<!-- Node1&#45;&gt;Node6 -->
<g id="edge7" class="edge">
<title>Node1&#45;&gt;Node6</title>
<path fill="none" stroke="midnightblue" d="M196.93,-112.32C207.17,-104.18 222.72,-91.84 235,-82.09"/>
<polygon fill="midnightblue" stroke="midnightblue" points="237.22,-84.79 242.88,-75.83 232.87,-79.31 237.22,-84.79"/>
</g>
<!-- Node10 -->
<g id="node7" class="node">
<title>Node10</title>
<g id="a_node7"><a xlink:href="c__string_8h.html" target="_top" xlink:title="mruby/c String class">
<polygon fill="white" stroke="black" points="294.5,-56.5 294.5,-75.5 353.5,-75.5 353.5,-56.5 294.5,-56.5"/>
<text text-anchor="middle" x="324" y="-63.5" font-family="Helvetica,sans-Serif" font-size="10.00">c_string.h</text>
</a>
</g>
</g>
<!-- Node1&#45;&gt;Node10 -->
<g id="edge9" class="edge">
<title>Node1&#45;&gt;Node10</title>
<path fill="none" stroke="midnightblue" d="M207.56,-112.56C230.42,-103.62 266.73,-89.41 292.72,-79.24"/>
<polygon fill="midnightblue" stroke="midnightblue" points="294.1,-82.46 302.13,-75.56 291.55,-75.94 294.1,-82.46"/>
</g>
<!-- Node11 -->
<g id="node8" class="node">
<title>Node11</title>
<g id="a_node8"><a xlink:href="load_8h.html" target="_top" xlink:title="mruby bytecode loader.">
<polygon fill="white" stroke="black" points="371.5,-56.5 371.5,-75.5 414.5,-75.5 414.5,-56.5 371.5,-56.5"/>
<text text-anchor="middle" x="393" y="-63.5" font-family="Helvetica,sans-Serif" font-size="10.00">load.h</text>
</a>
</g>
</g>
<!-- Node1&#45;&gt;Node11 -->
<g id="edge11" class="edge">
<title>Node1&#45;&gt;Node11</title>
<path fill="none" stroke="midnightblue" d="M207.6,-115.82C239.33,-108.15 300.59,-93.08 361.62,-76.3"/>
<polygon fill="midnightblue" stroke="midnightblue" points="362.7,-79.64 371.4,-73.6 360.83,-72.89 362.7,-79.64"/>
</g>
<!-- Node2&#45;&gt;Node3 -->
<g id="edge2" class="edge">
<title>Node2&#45;&gt;Node3</title>
<path fill="none" stroke="midnightblue" d="M38.19,-59.75C42.72,-58.52 47.53,-57.21 52,-56 98.36,-43.47 151.96,-29.14 185.91,-20.08"/>
<polygon fill="midnightblue" stroke="midnightblue" points="187.03,-23.41 195.79,-17.45 185.22,-16.64 187.03,-23.41"/>
</g>
<!-- Node8&#45;&gt;Node3 -->
<g id="edge6" class="edge">
<title>Node8&#45;&gt;Node3</title>
<path fill="none" stroke="midnightblue" d="M191.61,-56.08C196.37,-48.53 203.32,-37.49 209.15,-28.23"/>
<polygon fill="midnightblue" stroke="midnightblue" points="212.12,-30.08 214.49,-19.75 206.2,-26.35 212.12,-30.08"/>
</g>
<!-- Node6&#45;&gt;Node3 -->
<g id="edge8" class="edge">
<title>Node6&#45;&gt;Node3</title>
<path fill="none" stroke="midnightblue" d="M248.39,-56.08C243.63,-48.53 236.68,-37.49 230.85,-28.23"/>
<polygon fill="midnightblue" stroke="midnightblue" points="233.8,-26.35 225.51,-19.75 227.88,-30.08 233.8,-26.35"/>
</g>
<!-- Node10&#45;&gt;Node3 -->
<g id="edge10" class="edge">
<title>Node10&#45;&gt;Node3</title>
<path fill="none" stroke="midnightblue" d="M307.29,-56.32C290.69,-47.7 265,-34.36 245.78,-24.39"/>
<polygon fill="midnightblue" stroke="midnightblue" points="247.16,-21.16 236.67,-19.65 243.93,-27.37 247.16,-21.16"/>
</g>
<!-- Node11&#45;&gt;Node3 -->
<g id="edge12" class="edge">
<title>Node11&#45;&gt;Node3</title>
<path fill="none" stroke="midnightblue" d="M371.44,-58.27C341.93,-49.06 288.64,-32.43 253.8,-21.55"/>
<polygon fill="midnightblue" stroke="midnightblue" points="254.65,-18.15 244.06,-18.51 252.56,-24.83 254.65,-18.15"/>
</g>
</g>
</svg>
