<?xml version="1.0" encoding="UTF-8" standalone="no"?>
<!DOCTYPE svg PUBLIC "-//W3C//DTD SVG 1.1//EN"
 "http://www.w3.org/Graphics/SVG/1.1/DTD/svg11.dtd">
<!-- Generated by graphviz version 3.0.0 (20220226.1711)
 -->
<!-- Title: load.h Pages: 1 -->
<svg width="306pt" height="84pt"
 viewBox="0.00 0.00 306.00 84.00" xmlns="http://www.w3.org/2000/svg" xmlns:xlink="http://www.w3.org/1999/xlink">
<g id="graph0" class="graph" transform="scale(1 1) rotate(0) translate(4 80)">
<title>load.h</title>
<polygon fill="white" stroke="transparent" points="-4,4 -4,-80 302,-80 302,4 -4,4"/>
<!-- Node1 -->
<g id="node1" class="node">
<title>Node1</title>
<g id="a_node1"><a xlink:title="mruby bytecode loader.">
<polygon fill="#bfbfbf" stroke="black" points="134.5,-56.5 134.5,-75.5 177.5,-75.5 177.5,-56.5 134.5,-56.5"/>
<text text-anchor="middle" x="156" y="-63.5" font-family="Helvetica,sans-Serif" font-size="10.00">load.h</text>
</a>
</g>
</g>
<!-- Node2 -->
<g id="node2" class="node">
<title>Node2</title>
<g id="a_node2"><a xlink:href="class_8c.html" target="_top" xlink:title="Class related functions.">
<polygon fill="white" stroke="black" points="0,-0.5 0,-19.5 48,-19.5 48,-0.5 0,-0.5"/>
<text text-anchor="middle" x="24" y="-7.5" font-family="Helvetica,sans-Serif" font-size="10.00">class.c</text>
</a>
</g>
</g>
<!-- Node1&#45;&gt;Node2 -->
<g id="edge1" class="edge">
<title>Node1&#45;&gt;Node2</title>
<path fill="none" stroke="midnightblue" d="M125.78,-52.64C101.01,-42.5 66.6,-28.43 44.82,-19.52"/>
<polygon fill="midnightblue" stroke="midnightblue" points="124.5,-55.9 135.08,-56.44 127.15,-49.42 124.5,-55.9"/>
</g>
<!-- Node3 -->
<g id="node3" class="node">
<title>Node3</title>
<g id="a_node3"><a xlink:href="load_8c.html" target="_top" xlink:title="mruby bytecode loader.">
<polygon fill="white" stroke="black" points="66.5,-0.5 66.5,-19.5 109.5,-19.5 109.5,-0.5 66.5,-0.5"/>
<text text-anchor="middle" x="88" y="-7.5" font-family="Helvetica,sans-Serif" font-size="10.00">load.c</text>
</a>
</g>
</g>
<!-- Node1&#45;&gt;Node3 -->
<g id="edge2" class="edge">
<title>Node1&#45;&gt;Node3</title>
<path fill="none" stroke="midnightblue" d="M137.24,-50.1C125,-40.38 109.44,-28.03 99.12,-19.83"/>
<polygon fill="midnightblue" stroke="midnightblue" points="135.07,-52.85 145.07,-56.32 139.42,-47.36 135.07,-52.85"/>
</g>
<!-- Node4 -->
<g id="node4" class="node">
<title>Node4</title>
<g id="a_node4"><a xlink:href="mrubyc_8h.html" target="_top" xlink:title="Include at once the necessary header files for user program.">
<polygon fill="white" stroke="black" points="127.5,-0.5 127.5,-19.5 184.5,-19.5 184.5,-0.5 127.5,-0.5"/>
<text text-anchor="middle" x="156" y="-7.5" font-family="Helvetica,sans-Serif" font-size="10.00">mrubyc.h</text>
</a>
</g>
</g>
<!-- Node1&#45;&gt;Node4 -->
<g id="edge3" class="edge">
<title>Node1&#45;&gt;Node4</title>
<path fill="none" stroke="midnightblue" d="M156,-45.8C156,-36.91 156,-26.78 156,-19.75"/>
<polygon fill="midnightblue" stroke="midnightblue" points="152.5,-46.08 156,-56.08 159.5,-46.08 152.5,-46.08"/>
</g>
<!-- Node5 -->
<g id="node5" class="node">
<title>Node5</title>
<g id="a_node5"><a xlink:href="rrt0_8c.html" target="_top" xlink:title="Realtime multitask monitor for mruby/c.">
<polygon fill="white" stroke="black" points="202.5,-0.5 202.5,-19.5 241.5,-19.5 241.5,-0.5 202.5,-0.5"/>
<text text-anchor="middle" x="222" y="-7.5" font-family="Helvetica,sans-Serif" font-size="10.00">rrt0.c</text>
</a>
</g>
</g>
<!-- Node1&#45;&gt;Node5 -->
<g id="edge4" class="edge">
<title>Node1&#45;&gt;Node5</title>
<path fill="none" stroke="midnightblue" d="M174.55,-49.82C186.38,-40.15 201.29,-27.95 211.2,-19.83"/>
<polygon fill="midnightblue" stroke="midnightblue" points="172.13,-47.28 166.6,-56.32 176.56,-52.7 172.13,-47.28"/>
</g>
<!-- Node6 -->
<g id="node6" class="node">
<title>Node6</title>
<g id="a_node6"><a xlink:href="vm_8c.html" target="_top" xlink:title="mruby bytecode executor.">
<polygon fill="white" stroke="black" points="260,-0.5 260,-19.5 298,-19.5 298,-0.5 260,-0.5"/>
<text text-anchor="middle" x="279" y="-7.5" font-family="Helvetica,sans-Serif" font-size="10.00">vm.c</text>
</a>
</g>
</g>
<!-- Node1&#45;&gt;Node6 -->
<g id="edge5" class="edge">
<title>Node1&#45;&gt;Node6</title>
<path fill="none" stroke="midnightblue" d="M184.77,-52.37C207.81,-42.26 239.48,-28.35 259.6,-19.52"/>
<polygon fill="midnightblue" stroke="midnightblue" points="183.24,-49.22 175.49,-56.44 186.05,-55.63 183.24,-49.22"/>
</g>
</g>
</svg>
