<?xml version="1.0" encoding="UTF-8" standalone="no"?>
<!DOCTYPE svg PUBLIC "-//W3C//DTD SVG 1.1//EN"
 "http://www.w3.org/Graphics/SVG/1.1/DTD/svg11.dtd">
<!-- Generated by graphviz version 3.0.0 (20220226.1711)
 -->
<!-- Title: mrubyc.h Pages: 1 -->
<!--zoomable 308 -->
<svg id="main" version="1.1" xmlns="http://www.w3.org/2000/svg" xmlns:xlink="http://www.w3.org/1999/xlink" xml:space="preserve" onload="init(evt)">
<style type="text/css"><![CDATA[
.edge:hover path { stroke: red; }
.edge:hover polygon { stroke: red; fill: red; }
]]></style>
<script type="text/javascript"><![CDATA[
var edges = document.getElementsByTagName('g');
if (edges && edges.length) {
  for (var i=0;i<edges.length;i++) {
    if (edges[i].id.substr(0,4)=='edge') {
      edges[i].setAttribute('class','edge');
    }
  }
}
]]></script>
        <defs>
                <circle id="rim" cx="0" cy="0" r="7"/>
                <circle id="rim2" cx="0" cy="0" r="3.5"/>
                <g id="zoomPlus">
                        <use xlink:href="#rim" fill="#404040">
                                <set attributeName="fill" to="#808080" begin="zoomplus.mouseover" end="zoomplus.mouseout"/>
                        </use>
                        <path d="M-4,0h8M0,-4v8" fill="none" stroke="white" stroke-width="1.5" pointer-events="none"/>
                </g>
                <g id="zoomMin">
                        <use xlink:href="#rim" fill="#404040">
                                <set attributeName="fill" to="#808080" begin="zoomminus.mouseover" end="zoomminus.mouseout"/>
                        </use>
                        <path d="M-4,0h8" fill="none" stroke="white" stroke-width="1.5" pointer-events="none"/>
                </g>
                <g id="dirArrow">
                        <path fill="none" stroke="white" stroke-width="1.5" d="M0,-3.0v7 M-2.5,-0.5L0,-3.0L2.5,-0.5"/>
                </g>
               <g id="resetDef">
                       <use xlink:href="#rim2" fill="#404040">
                               <set attributeName="fill" to="#808080" begin="reset.mouseover" end="reset.mouseout"/>
                       </use>
               </g>
        </defs>

<script type="text/javascript">
var viewWidth = 1079;
var viewHeight = 308;
var sectionId = 'dynsection-0';
</script>
<script xlink:href="svgpan.js"/>
<svg id="graph" class="graph">
<g id="viewport">
<title>mrubyc.h</title>
<polygon fill="white" stroke="transparent" points="-4,4 -4,-304 1075,-304 1075,4 -4,4"/>
<!-- Node1 -->
<g id="node1" class="node">
<title>Node1</title>
<g id="a_node1"><a xlink:title="Include at once the necessary header files for user program.">
<polygon fill="#bfbfbf" stroke="black" points="481.5,-280.5 481.5,-299.5 538.5,-299.5 538.5,-280.5 481.5,-280.5"/>
<text text-anchor="middle" x="510" y="-287.5" font-family="Helvetica,sans-Serif" font-size="10.00">mrubyc.h</text>
</a>
</g>
</g>
<!-- Node2 -->
<g id="node2" class="node">
<title>Node2</title>
<g id="a_node2"><a xlink:href="vm__config_8h.html" target="_top" xlink:title="Global configration of mruby/c VM&#39;s.">
<polygon fill="white" stroke="black" points="0,-224.5 0,-243.5 70,-243.5 70,-224.5 0,-224.5"/>
<text text-anchor="middle" x="35" y="-231.5" font-family="Helvetica,sans-Serif" font-size="10.00">vm_config.h</text>
</a>
</g>
</g>
<!-- Node1&#45;&gt;Node2 -->
<g id="edge1" class="edge">
<title>Node1&#45;&gt;Node2</title>
<path fill="none" stroke="midnightblue" d="M481.38,-286.98C413.55,-282 237.54,-267.86 80.33,-244.06"/>
<polygon fill="midnightblue" stroke="midnightblue" points="80.42,-240.54 70.01,-242.48 79.36,-247.46 80.42,-240.54"/>
</g>
<!-- Node3 -->
<g id="node3" class="node">
<title>Node3</title>
<g id="a_node3"><a xlink:href="hal__selector_8h.html" target="_top" xlink:title="Selector of hardware abstraction layer.">
<polygon fill="white" stroke="red" points="88.5,-224.5 88.5,-243.5 165.5,-243.5 165.5,-224.5 88.5,-224.5"/>
<text text-anchor="middle" x="127" y="-231.5" font-family="Helvetica,sans-Serif" font-size="10.00">hal_selector.h</text>
</a>
</g>
</g>
<!-- Node1&#45;&gt;Node3 -->
<g id="edge2" class="edge">
<title>Node1&#45;&gt;Node3</title>
<path fill="none" stroke="midnightblue" d="M481.26,-285.4C423.9,-278.15 291.17,-261.01 180,-244 178.7,-243.8 177.39,-243.6 176.06,-243.39"/>
<polygon fill="midnightblue" stroke="midnightblue" points="176.19,-239.87 165.76,-241.73 175.08,-246.78 176.19,-239.87"/>
</g>
<!-- Node5 -->
<g id="node4" class="node">
<title>Node5</title>
<g id="a_node4"><a xlink:href="value_8h.html" target="_top" xlink:title="mruby/c value definitions">
<polygon fill="white" stroke="black" points="486,-0.5 486,-19.5 534,-19.5 534,-0.5 486,-0.5"/>
<text text-anchor="middle" x="510" y="-7.5" font-family="Helvetica,sans-Serif" font-size="10.00">value.h</text>
</a>
</g>
</g>
<!-- Node1&#45;&gt;Node5 -->
<g id="edge3" class="edge">
<title>Node1&#45;&gt;Node5</title>
<path fill="none" stroke="midnightblue" d="M481.09,-286.88C420.36,-281.99 281.81,-268.43 242,-244 211.39,-225.21 194,-214.91 194,-179 194,-179 194,-179 194,-121 194,-81.08 220.82,-74.87 256,-56 327.48,-17.67 424.96,-11.05 475.86,-10.46"/>
<polygon fill="midnightblue" stroke="midnightblue" points="476.01,-13.96 485.99,-10.42 475.98,-6.96 476.01,-13.96"/>
</g>
<!-- Node6 -->
<g id="node5" class="node">
<title>Node6</title>
<g id="a_node5"><a xlink:href="vm_8h.html" target="_top" xlink:title="mruby bytecode executor.">
<polygon fill="white" stroke="black" points="247,-168.5 247,-187.5 285,-187.5 285,-168.5 247,-168.5"/>
<text text-anchor="middle" x="266" y="-175.5" font-family="Helvetica,sans-Serif" font-size="10.00">vm.h</text>
</a>
</g>
</g>
<!-- Node1&#45;&gt;Node6 -->
<g id="edge4" class="edge">
<title>Node1&#45;&gt;Node6</title>
<path fill="none" stroke="midnightblue" d="M481.08,-288.46C419.82,-286.63 280.16,-278.66 251,-244 239.85,-230.75 246.84,-210.81 254.58,-196.51"/>
<polygon fill="midnightblue" stroke="midnightblue" points="257.74,-198.05 259.85,-187.66 251.73,-194.46 257.74,-198.05"/>
</g>
<!-- Node7 -->
<g id="node6" class="node">
<title>Node7</title>
<g id="a_node6"><a xlink:href="class_8h.html" target="_top" xlink:title="Class related functions.">
<polygon fill="white" stroke="black" points="340,-112.5 340,-131.5 388,-131.5 388,-112.5 340,-112.5"/>
<text text-anchor="middle" x="364" y="-119.5" font-family="Helvetica,sans-Serif" font-size="10.00">class.h</text>
</a>
</g>
</g>
<!-- Node1&#45;&gt;Node7 -->
<g id="edge18" class="edge">
<title>Node1&#45;&gt;Node7</title>
<path fill="none" stroke="midnightblue" d="M481.32,-286.05C453.8,-281.66 413.11,-270.79 390,-244 364.94,-214.95 362.19,-167.55 362.82,-141.54"/>
<polygon fill="midnightblue" stroke="midnightblue" points="366.32,-141.67 363.26,-131.52 359.32,-141.36 366.32,-141.67"/>
</g>
<!-- Node8 -->
<g id="node7" class="node">
<title>Node8</title>
<g id="a_node7"><a xlink:href="keyvalue_8h.html" target="_top" xlink:title="mruby/c Key(Symbol) &#45; Value store.">
<polygon fill="white" stroke="black" points="280,-56.5 280,-75.5 344,-75.5 344,-56.5 280,-56.5"/>
<text text-anchor="middle" x="312" y="-63.5" font-family="Helvetica,sans-Serif" font-size="10.00">keyvalue.h</text>
</a>
</g>
</g>
<!-- Node1&#45;&gt;Node8 -->
<g id="edge12" class="edge">
<title>Node1&#45;&gt;Node8</title>
<path fill="none" stroke="midnightblue" d="M481.37,-286.65C451.03,-282.7 403.51,-272.15 374,-244 328.51,-200.6 316.37,-121.96 313.15,-85.94"/>
<polygon fill="midnightblue" stroke="midnightblue" points="316.63,-85.55 312.39,-75.85 309.65,-86.08 316.63,-85.55"/>
</g>
<!-- Node9 -->
<g id="node8" class="node">
<title>Node9</title>
<g id="a_node8"><a xlink:href="error_8h.html" target="_top" xlink:title="exception classes">
<polygon fill="white" stroke="black" points="400,-56.5 400,-75.5 444,-75.5 444,-56.5 400,-56.5"/>
<text text-anchor="middle" x="422" y="-63.5" font-family="Helvetica,sans-Serif" font-size="10.00">error.h</text>
</a>
</g>
</g>
<!-- Node1&#45;&gt;Node9 -->
<g id="edge17" class="edge">
<title>Node1&#45;&gt;Node9</title>
<path fill="none" stroke="midnightblue" d="M498.41,-280.28C478.48,-264.48 438.39,-228.94 423,-188 410.11,-153.71 414.31,-109.99 418.31,-85.6"/>
<polygon fill="midnightblue" stroke="midnightblue" points="421.79,-86.04 420.12,-75.58 414.9,-84.8 421.79,-86.04"/>
</g>
<!-- Node10 -->
<g id="node9" class="node">
<title>Node10</title>
<g id="a_node9"><a xlink:href="global_8h.html" target="_top" xlink:title="Constant and global variables.">
<polygon fill="white" stroke="black" points="432,-168.5 432,-187.5 482,-187.5 482,-168.5 432,-168.5"/>
<text text-anchor="middle" x="457" y="-175.5" font-family="Helvetica,sans-Serif" font-size="10.00">global.h</text>
</a>
</g>
</g>
<!-- Node1&#45;&gt;Node10 -->
<g id="edge13" class="edge">
<title>Node1&#45;&gt;Node10</title>
<path fill="none" stroke="midnightblue" d="M505.84,-280.37C497.17,-262.38 477.02,-220.55 465.49,-196.63"/>
<polygon fill="midnightblue" stroke="midnightblue" points="468.63,-195.08 461.14,-187.59 462.33,-198.12 468.63,-195.08"/>
</g>
<!-- Node11 -->
<g id="node10" class="node">
<title>Node11</title>
<g id="a_node10"><a xlink:href="symbol_8h.html" target="_top" xlink:title="mruby/c Symbol class">
<polygon fill="white" stroke="red" points="482,-112.5 482,-131.5 538,-131.5 538,-112.5 482,-112.5"/>
<text text-anchor="middle" x="510" y="-119.5" font-family="Helvetica,sans-Serif" font-size="10.00">symbol.h</text>
</a>
</g>
</g>
<!-- Node1&#45;&gt;Node11 -->
<g id="edge15" class="edge">
<title>Node1&#45;&gt;Node11</title>
<path fill="none" stroke="midnightblue" d="M510,-280.08C510,-253.95 510,-177.21 510,-141.58"/>
<polygon fill="midnightblue" stroke="midnightblue" points="513.5,-141.57 510,-131.57 506.5,-141.57 513.5,-141.57"/>
</g>
<!-- Node13 -->
<g id="node11" class="node">
<title>Node13</title>
<g id="a_node11"><a xlink:title=" ">
<polygon fill="white" stroke="#bfbfbf" points="845.5,-224.5 845.5,-243.5 902.5,-243.5 902.5,-224.5 845.5,-224.5"/>
<text text-anchor="middle" x="874" y="-231.5" font-family="Helvetica,sans-Serif" font-size="10.00">c_math.h</text>
</a>
</g>
</g>
<!-- Node1&#45;&gt;Node13 -->
<g id="edge19" class="edge">
<title>Node1&#45;&gt;Node13</title>
<path fill="none" stroke="midnightblue" d="M538.88,-285.61C595.23,-278.85 723.73,-262.72 831,-244 832.46,-243.75 833.94,-243.48 835.43,-243.2"/>
<polygon fill="midnightblue" stroke="midnightblue" points="836.22,-246.61 845.37,-241.27 834.89,-239.74 836.22,-246.61"/>
</g>
<!-- Node14 -->
<g id="node12" class="node">
<title>Node14</title>
<g id="a_node12"><a xlink:href="c__array_8h.html" target="_top" xlink:title="mruby/c Array class">
<polygon fill="white" stroke="red" points="538,-168.5 538,-187.5 594,-187.5 594,-168.5 538,-168.5"/>
<text text-anchor="middle" x="566" y="-175.5" font-family="Helvetica,sans-Serif" font-size="10.00">c_array.h</text>
</a>
</g>
</g>
<!-- Node1&#45;&gt;Node14 -->
<g id="edge20" class="edge">
<title>Node1&#45;&gt;Node14</title>
<path fill="none" stroke="midnightblue" d="M514.39,-280.37C523.55,-262.38 544.85,-220.55 557.03,-196.63"/>
<polygon fill="midnightblue" stroke="midnightblue" points="560.21,-198.09 561.63,-187.59 553.97,-194.92 560.21,-198.09"/>
</g>
<!-- Node16 -->
<g id="node13" class="node">
<title>Node16</title>
<g id="a_node13"><a xlink:href="c__hash_8h.html" target="_top" xlink:title="mruby/c Hash class">
<polygon fill="white" stroke="black" points="576,-224.5 576,-243.5 632,-243.5 632,-224.5 576,-224.5"/>
<text text-anchor="middle" x="604" y="-231.5" font-family="Helvetica,sans-Serif" font-size="10.00">c_hash.h</text>
</a>
</g>
</g>
<!-- Node1&#45;&gt;Node16 -->
<g id="edge22" class="edge">
<title>Node1&#45;&gt;Node16</title>
<path fill="none" stroke="midnightblue" d="M525.1,-280.32C539.9,-271.82 562.69,-258.73 579.98,-248.8"/>
<polygon fill="midnightblue" stroke="midnightblue" points="582.01,-251.67 588.93,-243.65 578.52,-245.6 582.01,-251.67"/>
</g>
<!-- Node17 -->
<g id="node14" class="node">
<title>Node17</title>
<g id="a_node14"><a xlink:title=" ">
<polygon fill="white" stroke="#bfbfbf" points="921,-224.5 921,-243.5 983,-243.5 983,-224.5 921,-224.5"/>
<text text-anchor="middle" x="952" y="-231.5" font-family="Helvetica,sans-Serif" font-size="10.00">c_object.h</text>
</a>
</g>
</g>
<!-- Node1&#45;&gt;Node17 -->
<g id="edge25" class="edge">
<title>Node1&#45;&gt;Node17</title>
<path fill="none" stroke="midnightblue" d="M538.91,-286.86C603.71,-281.83 765.65,-267.96 910.65,-244.07"/>
<polygon fill="midnightblue" stroke="midnightblue" points="911.33,-247.5 920.62,-242.4 910.18,-240.6 911.33,-247.5"/>
</g>
<!-- Node18 -->
<g id="node15" class="node">
<title>Node18</title>
<g id="a_node15"><a xlink:title=" ">
<polygon fill="white" stroke="#bfbfbf" points="1001,-224.5 1001,-243.5 1071,-243.5 1071,-224.5 1001,-224.5"/>
<text text-anchor="middle" x="1036" y="-231.5" font-family="Helvetica,sans-Serif" font-size="10.00">c_numeric.h</text>
</a>
</g>
</g>
<!-- Node1&#45;&gt;Node18 -->
<g id="edge26" class="edge">
<title>Node1&#45;&gt;Node18</title>
<path fill="none" stroke="midnightblue" d="M538.65,-287.42C612.11,-283.12 813.3,-269.9 990.95,-244"/>
<polygon fill="midnightblue" stroke="midnightblue" points="991.61,-247.44 1001,-242.52 990.59,-240.51 991.61,-247.44"/>
</g>
<!-- Node19 -->
<g id="node16" class="node">
<title>Node19</title>
<g id="a_node16"><a xlink:href="c__range_8h.html" target="_top" xlink:title="mruby/c Range class">
<polygon fill="white" stroke="black" points="632.5,-112.5 632.5,-131.5 691.5,-131.5 691.5,-112.5 632.5,-112.5"/>
<text text-anchor="middle" x="662" y="-119.5" font-family="Helvetica,sans-Serif" font-size="10.00">c_range.h</text>
</a>
</g>
</g>
<!-- Node1&#45;&gt;Node19 -->
<g id="edge27" class="edge">
<title>Node1&#45;&gt;Node19</title>
<path fill="none" stroke="midnightblue" d="M538.68,-287.37C568.85,-284.04 615.42,-274.01 641,-244 665.7,-215.02 666.16,-167.6 664.18,-141.56"/>
<polygon fill="midnightblue" stroke="midnightblue" points="667.65,-141.15 663.21,-131.53 660.69,-141.82 667.65,-141.15"/>
</g>
<!-- Node20 -->
<g id="node17" class="node">
<title>Node20</title>
<g id="a_node17"><a xlink:href="c__string_8h.html" target="_top" xlink:title="mruby/c String class">
<polygon fill="white" stroke="black" points="688.5,-168.5 688.5,-187.5 747.5,-187.5 747.5,-168.5 688.5,-168.5"/>
<text text-anchor="middle" x="718" y="-175.5" font-family="Helvetica,sans-Serif" font-size="10.00">c_string.h</text>
</a>
</g>
</g>
<!-- Node1&#45;&gt;Node20 -->
<g id="edge29" class="edge">
<title>Node1&#45;&gt;Node20</title>
<path fill="none" stroke="midnightblue" d="M538.66,-287.14C573.57,-283.61 632.96,-273.41 674,-244 690.74,-232 703.05,-211.52 710.33,-196.75"/>
<polygon fill="midnightblue" stroke="midnightblue" points="713.53,-198.16 714.55,-187.61 707.18,-195.22 713.53,-198.16"/>
</g>
<!-- Node21 -->
<g id="node18" class="node">
<title>Node21</title>
<g id="a_node18"><a xlink:href="load_8h.html" target="_top" xlink:title="mruby bytecode loader.">
<polygon fill="white" stroke="black" points="748.5,-112.5 748.5,-131.5 791.5,-131.5 791.5,-112.5 748.5,-112.5"/>
<text text-anchor="middle" x="770" y="-119.5" font-family="Helvetica,sans-Serif" font-size="10.00">load.h</text>
</a>
</g>
</g>
<!-- Node1&#45;&gt;Node21 -->
<g id="edge31" class="edge">
<title>Node1&#45;&gt;Node21</title>
<path fill="none" stroke="midnightblue" d="M538.76,-286.85C577.16,-282.95 646.35,-272.31 698,-244 729.42,-226.78 738.58,-219.32 756,-188 763.98,-173.66 767.41,-155.19 768.89,-141.61"/>
<polygon fill="midnightblue" stroke="midnightblue" points="772.39,-141.81 769.73,-131.55 765.41,-141.23 772.39,-141.81"/>
</g>
<!-- Node22 -->
<g id="node19" class="node">
<title>Node22</title>
<g id="a_node19"><a xlink:href="console_8h.html" target="_top" xlink:title="console output module. (not yet input)">
<polygon fill="white" stroke="black" points="789.5,-56.5 789.5,-75.5 848.5,-75.5 848.5,-56.5 789.5,-56.5"/>
<text text-anchor="middle" x="819" y="-63.5" font-family="Helvetica,sans-Serif" font-size="10.00">console.h</text>
</a>
</g>
</g>
<!-- Node1&#45;&gt;Node22 -->
<g id="edge33" class="edge">
<title>Node1&#45;&gt;Node22</title>
<path fill="none" stroke="midnightblue" d="M538.66,-289.02C582.54,-287.81 667.63,-280.46 728,-244 785.9,-209.03 808.46,-124.05 815.87,-85.99"/>
<polygon fill="midnightblue" stroke="midnightblue" points="819.38,-86.25 817.71,-75.79 812.49,-85.01 819.38,-86.25"/>
</g>
<!-- Node23 -->
<g id="node20" class="node">
<title>Node23</title>
<g id="a_node20"><a xlink:href="rrt0_8h.html" target="_top" xlink:title="Realtime multitask monitor for mruby/c.">
<polygon fill="white" stroke="black" points="260.5,-224.5 260.5,-243.5 299.5,-243.5 299.5,-224.5 260.5,-224.5"/>
<text text-anchor="middle" x="280" y="-231.5" font-family="Helvetica,sans-Serif" font-size="10.00">rrt0.h</text>
</a>
</g>
</g>
<!-- Node1&#45;&gt;Node23 -->
<g id="edge35" class="edge">
<title>Node1&#45;&gt;Node23</title>
<path fill="none" stroke="midnightblue" d="M481.37,-282.74C443.13,-274.3 373.31,-258.66 314,-244 312.56,-243.64 311.08,-243.27 309.59,-242.89"/>
<polygon fill="midnightblue" stroke="midnightblue" points="310.31,-239.47 299.75,-240.35 308.55,-246.24 310.31,-239.47"/>
</g>
<!-- Node6&#45;&gt;Node5 -->
<g id="edge5" class="edge">
<title>Node6&#45;&gt;Node5</title>
<path fill="none" stroke="midnightblue" d="M263.16,-168.39C256.56,-146.58 242.81,-88.6 271,-56 297.25,-25.65 416.29,-15.56 475.85,-12.38"/>
<polygon fill="midnightblue" stroke="midnightblue" points="476.09,-15.87 485.9,-11.88 475.74,-8.88 476.09,-15.87"/>
</g>
<!-- Node6&#45;&gt;Node7 -->
<g id="edge6" class="edge">
<title>Node6&#45;&gt;Node7</title>
<path fill="none" stroke="midnightblue" d="M281.75,-168.32C297.32,-159.74 321.38,-146.49 339.46,-136.52"/>
<polygon fill="midnightblue" stroke="midnightblue" points="341.22,-139.55 348.29,-131.65 337.85,-133.42 341.22,-139.55"/>
</g>
<!-- Node7&#45;&gt;Node5 -->
<g id="edge7" class="edge">
<title>Node7&#45;&gt;Node5</title>
<path fill="none" stroke="midnightblue" d="M365.37,-112.18C367.97,-98.38 374.85,-71.64 391,-56 414.25,-33.48 449.88,-22 476.09,-16.3"/>
<polygon fill="midnightblue" stroke="midnightblue" points="476.86,-19.71 485.98,-14.32 475.49,-12.85 476.86,-19.71"/>
</g>
<!-- Node7&#45;&gt;Node8 -->
<g id="edge8" class="edge">
<title>Node7&#45;&gt;Node8</title>
<path fill="none" stroke="midnightblue" d="M355.41,-112.08C347.84,-104.22 336.62,-92.57 327.49,-83.08"/>
<polygon fill="midnightblue" stroke="midnightblue" points="329.88,-80.53 320.43,-75.75 324.84,-85.38 329.88,-80.53"/>
</g>
<!-- Node7&#45;&gt;Node9 -->
<g id="edge10" class="edge">
<title>Node7&#45;&gt;Node9</title>
<path fill="none" stroke="midnightblue" d="M373.32,-112.32C381.89,-104.34 394.81,-92.31 405.19,-82.65"/>
<polygon fill="midnightblue" stroke="midnightblue" points="407.58,-85.21 412.51,-75.83 402.81,-80.09 407.58,-85.21"/>
</g>
<!-- Node8&#45;&gt;Node5 -->
<g id="edge9" class="edge">
<title>Node8&#45;&gt;Node5</title>
<path fill="none" stroke="midnightblue" d="M343.37,-56.44C379.56,-46.58 438.82,-30.41 476.06,-20.26"/>
<polygon fill="midnightblue" stroke="midnightblue" points="477.21,-23.57 485.94,-17.56 475.37,-16.82 477.21,-23.57"/>
</g>
<!-- Node9&#45;&gt;Node5 -->
<g id="edge11" class="edge">
<title>Node9&#45;&gt;Node5</title>
<path fill="none" stroke="midnightblue" d="M436.14,-56.32C449.87,-47.9 470.94,-34.97 487.06,-25.07"/>
<polygon fill="midnightblue" stroke="midnightblue" points="489.2,-27.87 495.9,-19.65 485.54,-21.9 489.2,-27.87"/>
</g>
<!-- Node10&#45;&gt;Node5 -->
<g id="edge14" class="edge">
<title>Node10&#45;&gt;Node5</title>
<path fill="none" stroke="midnightblue" d="M458.87,-168.08C461.58,-155.48 466.96,-131.79 473,-112 482.01,-82.48 494.81,-48.97 502.75,-28.94"/>
<polygon fill="midnightblue" stroke="midnightblue" points="506.04,-30.12 506.51,-19.54 499.55,-27.52 506.04,-30.12"/>
</g>
<!-- Node11&#45;&gt;Node5 -->
<g id="edge16" class="edge">
<title>Node11&#45;&gt;Node5</title>
<path fill="none" stroke="midnightblue" d="M510,-112.37C510,-94.62 510,-53.67 510,-29.6"/>
<polygon fill="midnightblue" stroke="midnightblue" points="513.5,-29.59 510,-19.59 506.5,-29.59 513.5,-29.59"/>
</g>
<!-- Node14&#45;&gt;Node5 -->
<g id="edge21" class="edge">
<title>Node14&#45;&gt;Node5</title>
<path fill="none" stroke="midnightblue" d="M563.6,-168.11C560.17,-155.54 553.54,-131.88 547,-112 537.36,-82.68 524.74,-49.11 517.01,-29.01"/>
<polygon fill="midnightblue" stroke="midnightblue" points="520.23,-27.64 513.36,-19.58 513.71,-30.17 520.23,-27.64"/>
</g>
<!-- Node16&#45;&gt;Node5 -->
<g id="edge23" class="edge">
<title>Node16&#45;&gt;Node5</title>
<path fill="none" stroke="midnightblue" d="M605.1,-224.42C606.44,-211.83 607.96,-187.7 603,-168 588.69,-111.17 546.51,-54.5 524.2,-27.42"/>
<polygon fill="midnightblue" stroke="midnightblue" points="526.83,-25.11 517.71,-19.71 521.47,-29.62 526.83,-25.11"/>
</g>
<!-- Node16&#45;&gt;Node14 -->
<g id="edge24" class="edge">
<title>Node16&#45;&gt;Node14</title>
<path fill="none" stroke="midnightblue" d="M597.73,-224.08C592.36,-216.46 584.48,-205.26 577.92,-195.94"/>
<polygon fill="midnightblue" stroke="midnightblue" points="580.78,-193.91 572.16,-187.75 575.05,-197.94 580.78,-193.91"/>
</g>
<!-- Node19&#45;&gt;Node5 -->
<g id="edge28" class="edge">
<title>Node19&#45;&gt;Node5</title>
<path fill="none" stroke="midnightblue" d="M658.12,-112.23C651.65,-98.51 637.41,-71.87 618,-56 596.45,-38.39 567.03,-26.74 544.34,-19.71"/>
<polygon fill="midnightblue" stroke="midnightblue" points="545.02,-16.26 534.44,-16.81 543.05,-22.98 545.02,-16.26"/>
</g>
<!-- Node20&#45;&gt;Node5 -->
<g id="edge30" class="edge">
<title>Node20&#45;&gt;Node5</title>
<path fill="none" stroke="midnightblue" d="M717.11,-168.43C715.44,-155.42 710.97,-130.27 700,-112 681.39,-81.01 671.91,-74.75 641,-56 610.55,-37.54 571.5,-25.38 543.98,-18.4"/>
<polygon fill="midnightblue" stroke="midnightblue" points="544.58,-14.95 534.04,-15.98 542.93,-21.75 544.58,-14.95"/>
</g>
<!-- Node21&#45;&gt;Node5 -->
<g id="edge32" class="edge">
<title>Node21&#45;&gt;Node5</title>
<path fill="none" stroke="midnightblue" d="M767.74,-112.26C763.59,-98.06 753.36,-70.17 734,-56 704.15,-34.16 598.93,-20.26 543.98,-14.32"/>
<polygon fill="midnightblue" stroke="midnightblue" points="544.33,-10.84 534.02,-13.27 543.6,-17.8 544.33,-10.84"/>
</g>
<!-- Node22&#45;&gt;Node5 -->
<g id="edge34" class="edge">
<title>Node22&#45;&gt;Node5</title>
<path fill="none" stroke="midnightblue" d="M789.49,-58.97C784.33,-57.96 779.01,-56.93 774,-56 691.63,-40.75 594.42,-24.67 544.08,-16.49"/>
<polygon fill="midnightblue" stroke="midnightblue" points="544.5,-13.01 534.07,-14.87 543.38,-19.92 544.5,-13.01"/>
</g>
<!-- Node23&#45;&gt;Node6 -->
<g id="edge36" class="edge">
<title>Node23&#45;&gt;Node6</title>
<path fill="none" stroke="midnightblue" d="M277.69,-224.08C275.83,-216.93 273.16,-206.64 270.85,-197.69"/>
<polygon fill="midnightblue" stroke="midnightblue" points="274.17,-196.55 268.27,-187.75 267.39,-198.31 274.17,-196.55"/>
</g>
</g>
</svg>
        <g id="navigator" transform="translate(0 0)" fill="#404254">
                <rect fill="#f2f5e9" fill-opacity="0.5" stroke="#606060" stroke-width=".5" x="0" y="0" width="60" height="60"/>
                <use id="zoomplus" xlink:href="#zoomPlus" x="17" y="9" onmousedown="handleZoom(evt,'in')"/>
                <use id="zoomminus" xlink:href="#zoomMin" x="42" y="9" onmousedown="handleZoom(evt,'out')"/>
                <use id="reset" xlink:href="#resetDef" x="30" y="36" onmousedown="handleReset()"/>
                <g id="arrowUp" xlink:href="#dirArrow" transform="translate(30 24)" onmousedown="handlePan(0,-1)">
                  <use xlink:href="#rim" fill="#404040">
                        <set attributeName="fill" to="#808080" begin="arrowUp.mouseover" end="arrowUp.mouseout"/>
                  </use>
                  <path fill="none" stroke="white" stroke-width="1.5" d="M0,-3.0v7 M-2.5,-0.5L0,-3.0L2.5,-0.5"/>
                </g>
                <g id="arrowRight" xlink:href="#dirArrow" transform="rotate(90) translate(36 -43)" onmousedown="handlePan(1,0)">
                  <use xlink:href="#rim" fill="#404040">
                        <set attributeName="fill" to="#808080" begin="arrowRight.mouseover" end="arrowRight.mouseout"/>
                  </use>
                  <path fill="none" stroke="white" stroke-width="1.5" d="M0,-3.0v7 M-2.5,-0.5L0,-3.0L2.5,-0.5"/>
                </g>
                <g id="arrowDown" xlink:href="#dirArrow" transform="rotate(180) translate(-30 -48)" onmousedown="handlePan(0,1)">
                  <use xlink:href="#rim" fill="#404040">
                        <set attributeName="fill" to="#808080" begin="arrowDown.mouseover" end="arrowDown.mouseout"/>
                  </use>
                  <path fill="none" stroke="white" stroke-width="1.5" d="M0,-3.0v7 M-2.5,-0.5L0,-3.0L2.5,-0.5"/>
                </g>
                <g id="arrowLeft" xlink:href="#dirArrow" transform="rotate(270) translate(-36 17)" onmousedown="handlePan(-1,0)">
                  <use xlink:href="#rim" fill="#404040">
                        <set attributeName="fill" to="#808080" begin="arrowLeft.mouseover" end="arrowLeft.mouseout"/>
                  </use>
                  <path fill="none" stroke="white" stroke-width="1.5" d="M0,-3.0v7 M-2.5,-0.5L0,-3.0L2.5,-0.5"/>
                </g>
        </g>
        <svg viewBox="0 0 15 15" width="100%" height="30px" preserveAspectRatio="xMaxYMin meet">
         <g id="arrow_out" transform="scale(0.3 0.3)">
          <a xlink:href="mrubyc_8h__incl_org.svg" target="_base">
           <rect id="button" ry="5" rx="5" y="6" x="6" height="38" width="38"
                fill="#f2f5e9" fill-opacity="0.5" stroke="#606060" stroke-width="1.0"/>
           <path id="arrow"
             d="M 11.500037,31.436501 C 11.940474,20.09759 22.043105,11.32322 32.158766,21.979434 L 37.068811,17.246167 C 37.068811,17.246167 37.088388,32 37.088388,32 L 22.160133,31.978069 C 22.160133,31.978069 26.997745,27.140456 26.997745,27.140456 C 18.528582,18.264221 13.291696,25.230495 11.500037,31.436501 z"
             style="fill:#404040;"/>
          </a>
         </g>
        </svg>
</svg>
