<?xml version="1.0" encoding="UTF-8" standalone="no"?>
<!DOCTYPE svg PUBLIC "-//W3C//DTD SVG 1.1//EN"
 "http://www.w3.org/Graphics/SVG/1.1/DTD/svg11.dtd">
<!-- Generated by graphviz version 3.0.0 (20220226.1711)
 -->
<!-- Title: mrbc_init Pages: 1 -->
<svg width="207pt" height="142pt"
 viewBox="0.00 0.00 207.00 142.00" xmlns="http://www.w3.org/2000/svg" xmlns:xlink="http://www.w3.org/1999/xlink">
<g id="graph0" class="graph" transform="scale(1 1) rotate(0) translate(4 138)">
<title>mrbc_init</title>
<polygon fill="white" stroke="transparent" points="-4,4 -4,-138 203,-138 203,4 -4,4"/>
<!-- Node1 -->
<g id="node1" class="node">
<title>Node1</title>
<g id="a_node1"><a xlink:title=" ">
<polygon fill="#bfbfbf" stroke="black" points="0,-57.5 0,-76.5 56,-76.5 56,-57.5 0,-57.5"/>
<text text-anchor="middle" x="28" y="-64.5" font-family="Helvetica,sans-Serif" font-size="10.00">mrbc_init</text>
</a>
</g>
</g>
<!-- Node2 -->
<g id="node2" class="node">
<title>Node2</title>
<g id="a_node2"><a xlink:href="class_8c.html#a6887243bf6bdcd25ced9fe82eb75f6e4" target="_top" xlink:title=" ">
<polygon fill="white" stroke="black" points="92,-114.5 92,-133.5 199,-133.5 199,-114.5 92,-114.5"/>
<text text-anchor="middle" x="145.5" y="-121.5" font-family="Helvetica,sans-Serif" font-size="10.00">mrbc_define_method</text>
</a>
</g>
</g>
<!-- Node1&#45;&gt;Node2 -->
<g id="edge1" class="edge">
<title>Node1&#45;&gt;Node2</title>
<path fill="none" stroke="midnightblue" d="M43.07,-76.58C55.55,-84.81 74.48,-96.64 92,-105 96.31,-107.06 100.91,-109.02 105.52,-110.86"/>
<polygon fill="midnightblue" stroke="midnightblue" points="104.34,-114.16 114.93,-114.44 106.82,-107.61 104.34,-114.16"/>
</g>
<!-- Node3 -->
<g id="node3" class="node">
<title>Node3</title>
<g id="a_node3"><a xlink:href="alloc_8c.html#ab41bffc2e774829e287ebf8d9716d51e" target="_top" xlink:title=" ">
<polygon fill="white" stroke="black" points="104.5,-76.5 104.5,-95.5 186.5,-95.5 186.5,-76.5 104.5,-76.5"/>
<text text-anchor="middle" x="145.5" y="-83.5" font-family="Helvetica,sans-Serif" font-size="10.00">mrbc_init_alloc</text>
</a>
</g>
</g>
<!-- Node1&#45;&gt;Node3 -->
<g id="edge2" class="edge">
<title>Node1&#45;&gt;Node3</title>
<path fill="none" stroke="midnightblue" d="M56.08,-71.45C67.56,-73.34 81.31,-75.61 94.51,-77.78"/>
<polygon fill="midnightblue" stroke="midnightblue" points="94.02,-81.24 104.45,-79.41 95.15,-74.34 94.02,-81.24"/>
</g>
<!-- Node4 -->
<g id="node4" class="node">
<title>Node4</title>
<g id="a_node4"><a xlink:href="class_8c.html#a33245c1a2325726c07d41ee637fe943d" target="_top" xlink:title=" ">
<polygon fill="white" stroke="black" points="103,-38.5 103,-57.5 188,-57.5 188,-38.5 103,-38.5"/>
<text text-anchor="middle" x="145.5" y="-45.5" font-family="Helvetica,sans-Serif" font-size="10.00">mrbc_init_class</text>
</a>
</g>
</g>
<!-- Node1&#45;&gt;Node4 -->
<g id="edge3" class="edge">
<title>Node1&#45;&gt;Node4</title>
<path fill="none" stroke="midnightblue" d="M56.08,-62.55C67.02,-60.75 80.04,-58.6 92.67,-56.53"/>
<polygon fill="midnightblue" stroke="midnightblue" points="93.37,-59.96 102.67,-54.88 92.23,-53.05 93.37,-59.96"/>
</g>
<!-- Node5 -->
<g id="node5" class="node">
<title>Node5</title>
<g id="a_node5"><a xlink:href="global_8c.html#a74ee45911f837cdb455fae9dcc2b24ae" target="_top" xlink:title=" ">
<polygon fill="white" stroke="red" points="102,-0.5 102,-19.5 189,-19.5 189,-0.5 102,-0.5"/>
<text text-anchor="middle" x="145.5" y="-7.5" font-family="Helvetica,sans-Serif" font-size="10.00">mrbc_init_global</text>
</a>
</g>
</g>
<!-- Node1&#45;&gt;Node5 -->
<g id="edge4" class="edge">
<title>Node1&#45;&gt;Node5</title>
<path fill="none" stroke="midnightblue" d="M43.07,-57.42C55.55,-49.19 74.48,-37.36 92,-29 96.31,-26.94 100.91,-24.98 105.52,-23.14"/>
<polygon fill="midnightblue" stroke="midnightblue" points="106.82,-26.39 114.93,-19.56 104.34,-19.84 106.82,-26.39"/>
</g>
</g>
</svg>
