<?xml version="1.0" encoding="UTF-8" standalone="no"?>
<!DOCTYPE svg PUBLIC "-//W3C//DTD SVG 1.1//EN"
 "http://www.w3.org/Graphics/SVG/1.1/DTD/svg11.dtd">
<!-- Generated by graphviz version 3.0.0 (20220226.1711)
 -->
<!-- Title: rrt0.c Pages: 1 -->
<svg width="562pt" height="196pt"
 viewBox="0.00 0.00 562.00 196.00" xmlns="http://www.w3.org/2000/svg" xmlns:xlink="http://www.w3.org/1999/xlink">
<g id="graph0" class="graph" transform="scale(1 1) rotate(0) translate(4 192)">
<title>rrt0.c</title>
<polygon fill="white" stroke="transparent" points="-4,4 -4,-192 558,-192 558,4 -4,4"/>
<!-- Node1 -->
<g id="node1" class="node">
<title>Node1</title>
<g id="a_node1"><a xlink:title="Realtime multitask monitor for mruby/c.">
<polygon fill="#bfbfbf" stroke="black" points="239,-168.5 239,-187.5 278,-187.5 278,-168.5 239,-168.5"/>
<text text-anchor="middle" x="258.5" y="-175.5" font-family="Helvetica,sans-Serif" font-size="10.00">rrt0.c</text>
</a>
</g>
</g>
<!-- Node2 -->
<g id="node2" class="node">
<title>Node2</title>
<g id="a_node2"><a xlink:href="alloc_8h.html" target="_top" xlink:title="mruby/c memory management.">
<polygon fill="white" stroke="black" points="0,-112.5 0,-131.5 45,-131.5 45,-112.5 0,-112.5"/>
<text text-anchor="middle" x="22.5" y="-119.5" font-family="Helvetica,sans-Serif" font-size="10.00">alloc.h</text>
</a>
</g>
</g>
<!-- Node1&#45;&gt;Node2 -->
<g id="edge1" class="edge">
<title>Node1&#45;&gt;Node2</title>
<path fill="none" stroke="midnightblue" d="M238.89,-173.15C203.86,-166.17 128.01,-150.63 54.96,-132.25"/>
<polygon fill="midnightblue" stroke="midnightblue" points="55.69,-128.83 45.14,-129.76 53.97,-135.61 55.69,-128.83"/>
</g>
<!-- Node3 -->
<g id="node3" class="node">
<title>Node3</title>
<g id="a_node3"><a xlink:href="load_8h.html" target="_top" xlink:title="mruby bytecode loader.">
<polygon fill="white" stroke="red" points="63,-112.5 63,-131.5 106,-131.5 106,-112.5 63,-112.5"/>
<text text-anchor="middle" x="84.5" y="-119.5" font-family="Helvetica,sans-Serif" font-size="10.00">load.h</text>
</a>
</g>
</g>
<!-- Node1&#45;&gt;Node3 -->
<g id="edge2" class="edge">
<title>Node1&#45;&gt;Node3</title>
<path fill="none" stroke="midnightblue" d="M238.88,-170.91C209.03,-161.65 151.91,-143.92 116.15,-132.82"/>
<polygon fill="midnightblue" stroke="midnightblue" points="116.81,-129.36 106.23,-129.74 114.74,-136.05 116.81,-129.36"/>
</g>
<!-- Node5 -->
<g id="node4" class="node">
<title>Node5</title>
<g id="a_node4"><a xlink:href="class_8h.html" target="_top" xlink:title="Class related functions.">
<polygon fill="white" stroke="red" points="200.5,-0.5 200.5,-19.5 248.5,-19.5 248.5,-0.5 200.5,-0.5"/>
<text text-anchor="middle" x="224.5" y="-7.5" font-family="Helvetica,sans-Serif" font-size="10.00">class.h</text>
</a>
</g>
</g>
<!-- Node1&#45;&gt;Node5 -->
<g id="edge3" class="edge">
<title>Node1&#45;&gt;Node5</title>
<path fill="none" stroke="midnightblue" d="M238.93,-174.97C214.18,-171.24 172.5,-160.81 153.5,-132 128.97,-94.8 175.76,-48.98 204.46,-25.85"/>
<polygon fill="midnightblue" stroke="midnightblue" points="206.62,-28.61 212.34,-19.7 202.31,-23.09 206.62,-28.61"/>
</g>
<!-- Node8 -->
<g id="node5" class="node">
<title>Node8</title>
<g id="a_node5"><a xlink:href="global_8h.html" target="_top" xlink:title="Constant and global variables.">
<polygon fill="white" stroke="red" points="162.5,-112.5 162.5,-131.5 212.5,-131.5 212.5,-112.5 162.5,-112.5"/>
<text text-anchor="middle" x="187.5" y="-119.5" font-family="Helvetica,sans-Serif" font-size="10.00">global.h</text>
</a>
</g>
</g>
<!-- Node1&#45;&gt;Node8 -->
<g id="edge4" class="edge">
<title>Node1&#45;&gt;Node8</title>
<path fill="none" stroke="midnightblue" d="M247.09,-168.32C236.39,-160.18 220.16,-147.84 207.34,-138.09"/>
<polygon fill="midnightblue" stroke="midnightblue" points="209.19,-135.1 199.11,-131.83 204.96,-140.67 209.19,-135.1"/>
</g>
<!-- Node9 -->
<g id="node6" class="node">
<title>Node9</title>
<g id="a_node6"><a xlink:href="symbol_8h.html" target="_top" xlink:title="mruby/c Symbol class">
<polygon fill="white" stroke="red" points="230.5,-112.5 230.5,-131.5 286.5,-131.5 286.5,-112.5 230.5,-112.5"/>
<text text-anchor="middle" x="258.5" y="-119.5" font-family="Helvetica,sans-Serif" font-size="10.00">symbol.h</text>
</a>
</g>
</g>
<!-- Node1&#45;&gt;Node9 -->
<g id="edge5" class="edge">
<title>Node1&#45;&gt;Node9</title>
<path fill="none" stroke="midnightblue" d="M258.5,-168.08C258.5,-161.01 258.5,-150.86 258.5,-141.99"/>
<polygon fill="midnightblue" stroke="midnightblue" points="262,-141.75 258.5,-131.75 255,-141.75 262,-141.75"/>
</g>
<!-- Node11 -->
<g id="node7" class="node">
<title>Node11</title>
<g id="a_node7"><a xlink:href="vm_8h.html" target="_top" xlink:title="mruby bytecode executor.">
<polygon fill="white" stroke="red" points="295.5,-56.5 295.5,-75.5 333.5,-75.5 333.5,-56.5 295.5,-56.5"/>
<text text-anchor="middle" x="314.5" y="-63.5" font-family="Helvetica,sans-Serif" font-size="10.00">vm.h</text>
</a>
</g>
</g>
<!-- Node1&#45;&gt;Node11 -->
<g id="edge6" class="edge">
<title>Node1&#45;&gt;Node11</title>
<path fill="none" stroke="midnightblue" d="M267.33,-168.48C275.69,-159.96 288.03,-146.13 295.5,-132 303.23,-117.38 308.2,-99.21 311.11,-85.8"/>
<polygon fill="midnightblue" stroke="midnightblue" points="314.57,-86.33 313.09,-75.84 307.71,-84.97 314.57,-86.33"/>
</g>
<!-- Node12 -->
<g id="node8" class="node">
<title>Node12</title>
<g id="a_node8"><a xlink:href="console_8h.html" target="_top" xlink:title="console output module. (not yet input)">
<polygon fill="white" stroke="red" points="343,-112.5 343,-131.5 402,-131.5 402,-112.5 343,-112.5"/>
<text text-anchor="middle" x="372.5" y="-119.5" font-family="Helvetica,sans-Serif" font-size="10.00">console.h</text>
</a>
</g>
</g>
<!-- Node1&#45;&gt;Node12 -->
<g id="edge8" class="edge">
<title>Node1&#45;&gt;Node12</title>
<path fill="none" stroke="midnightblue" d="M276.56,-168.44C295.07,-159.68 324.08,-145.94 345.36,-135.86"/>
<polygon fill="midnightblue" stroke="midnightblue" points="346.98,-138.96 354.52,-131.52 343.99,-132.63 346.98,-138.96"/>
</g>
<!-- Node13 -->
<g id="node9" class="node">
<title>Node13</title>
<g id="a_node9"><a xlink:href="rrt0_8h.html" target="_top" xlink:title="Realtime multitask monitor for mruby/c.">
<polygon fill="white" stroke="black" points="420,-112.5 420,-131.5 459,-131.5 459,-112.5 420,-112.5"/>
<text text-anchor="middle" x="439.5" y="-119.5" font-family="Helvetica,sans-Serif" font-size="10.00">rrt0.h</text>
</a>
</g>
</g>
<!-- Node1&#45;&gt;Node13 -->
<g id="edge9" class="edge">
<title>Node1&#45;&gt;Node13</title>
<path fill="none" stroke="midnightblue" d="M278.35,-171.33C305.86,-163.44 357.36,-148.54 410.08,-132.39"/>
<polygon fill="midnightblue" stroke="midnightblue" points="411.41,-135.64 419.94,-129.36 409.35,-128.95 411.41,-135.64"/>
</g>
<!-- Node14 -->
<g id="node10" class="node">
<title>Node14</title>
<g id="a_node10"><a xlink:href="hal__selector_8h.html" target="_top" xlink:title="Selector of hardware abstraction layer.">
<polygon fill="white" stroke="red" points="477,-112.5 477,-131.5 554,-131.5 554,-112.5 477,-112.5"/>
<text text-anchor="middle" x="515.5" y="-119.5" font-family="Helvetica,sans-Serif" font-size="10.00">hal_selector.h</text>
</a>
</g>
</g>
<!-- Node1&#45;&gt;Node14 -->
<g id="edge11" class="edge">
<title>Node1&#45;&gt;Node14</title>
<path fill="none" stroke="midnightblue" d="M278.24,-172.85C318.27,-164.44 410.01,-145.16 466.97,-133.2"/>
<polygon fill="midnightblue" stroke="midnightblue" points="467.77,-136.61 476.83,-131.12 466.33,-129.76 467.77,-136.61"/>
</g>
<!-- Node11&#45;&gt;Node5 -->
<g id="edge7" class="edge">
<title>Node11&#45;&gt;Node5</title>
<path fill="none" stroke="midnightblue" d="M300.04,-56.32C286,-47.9 264.45,-34.97 247.96,-25.07"/>
<polygon fill="midnightblue" stroke="midnightblue" points="249.3,-21.8 238.92,-19.65 245.7,-27.8 249.3,-21.8"/>
</g>
<!-- Node13&#45;&gt;Node11 -->
<g id="edge10" class="edge">
<title>Node13&#45;&gt;Node11</title>
<path fill="none" stroke="midnightblue" d="M419.97,-112.56C399.42,-103.69 366.86,-89.62 343.35,-79.46"/>
<polygon fill="midnightblue" stroke="midnightblue" points="344.46,-76.13 333.89,-75.38 341.69,-82.56 344.46,-76.13"/>
</g>
</g>
</svg>
