<?xml version="1.0" encoding="UTF-8" standalone="no"?>
<!DOCTYPE svg PUBLIC "-//W3C//DTD SVG 1.1//EN"
 "http://www.w3.org/Graphics/SVG/1.1/DTD/svg11.dtd">
<!-- Generated by graphviz version 3.0.0 (20220226.1711)
 -->
<!-- Title: mrbc_create_task Pages: 1 -->
<svg width="388pt" height="256pt"
 viewBox="0.00 0.00 388.00 256.00" xmlns="http://www.w3.org/2000/svg" xmlns:xlink="http://www.w3.org/1999/xlink">
<g id="graph0" class="graph" transform="scale(1 1) rotate(0) translate(4 252)">
<title>mrbc_create_task</title>
<polygon fill="white" stroke="transparent" points="-4,4 -4,-252 384,-252 384,4 -4,4"/>
<!-- Node1 -->
<g id="node1" class="node">
<title>Node1</title>
<g id="a_node1"><a xlink:title=" ">
<polygon fill="#bfbfbf" stroke="black" points="0,-114.5 0,-133.5 95,-133.5 95,-114.5 0,-114.5"/>
<text text-anchor="middle" x="47.5" y="-121.5" font-family="Helvetica,sans-Serif" font-size="10.00">mrbc_create_task</text>
</a>
</g>
</g>
<!-- Node2 -->
<g id="node2" class="node">
<title>Node2</title>
<g id="a_node2"><a xlink:href="rrt0_8c.html#a70ddf86d32abfeb7f2f1a4dbf8c1dafb" target="_top" xlink:title=" ">
<polygon fill="white" stroke="black" points="157.5,-228.5 157.5,-247.5 232.5,-247.5 232.5,-228.5 157.5,-228.5"/>
<text text-anchor="middle" x="195" y="-235.5" font-family="Helvetica,sans-Serif" font-size="10.00">mrbc_init_tcb</text>
</a>
</g>
</g>
<!-- Node1&#45;&gt;Node2 -->
<g id="edge1" class="edge">
<title>Node1&#45;&gt;Node2</title>
<path fill="none" stroke="midnightblue" d="M54.23,-133.67C66.09,-152.85 95.24,-195.86 131,-219 136.1,-222.3 141.8,-225.05 147.63,-227.33"/>
<polygon fill="midnightblue" stroke="midnightblue" points="146.88,-230.78 157.48,-230.75 149.18,-224.17 146.88,-230.78"/>
</g>
<!-- Node3 -->
<g id="node3" class="node">
<title>Node3</title>
<g id="a_node3"><a xlink:href="load_8c.html#a5e188b0d15b9d5c974670c148db97c49" target="_top" xlink:title=" ">
<polygon fill="white" stroke="black" points="153.5,-190.5 153.5,-209.5 236.5,-209.5 236.5,-190.5 153.5,-190.5"/>
<text text-anchor="middle" x="195" y="-197.5" font-family="Helvetica,sans-Serif" font-size="10.00">mrbc_load_mrb</text>
</a>
</g>
</g>
<!-- Node1&#45;&gt;Node3 -->
<g id="edge2" class="edge">
<title>Node1&#45;&gt;Node3</title>
<path fill="none" stroke="midnightblue" d="M59.81,-133.54C75.08,-146 103.55,-167.78 131,-181 135.64,-183.23 140.6,-185.27 145.63,-187.11"/>
<polygon fill="midnightblue" stroke="midnightblue" points="144.7,-190.49 155.3,-190.41 146.96,-183.87 144.7,-190.49"/>
</g>
<!-- Node4 -->
<g id="node4" class="node">
<title>Node4</title>
<g id="a_node4"><a xlink:href="error_8c.html#a4f5331c3ce013c01b0dc65d18b43f9fb" target="_top" xlink:title=" ">
<polygon fill="white" stroke="red" points="131,-152.5 131,-171.5 259,-171.5 259,-152.5 131,-152.5"/>
<text text-anchor="middle" x="195" y="-159.5" font-family="Helvetica,sans-Serif" font-size="10.00">mrbc_print_vm_exception</text>
</a>
</g>
</g>
<!-- Node1&#45;&gt;Node4 -->
<g id="edge3" class="edge">
<title>Node1&#45;&gt;Node4</title>
<path fill="none" stroke="midnightblue" d="M85.22,-133.59C104.16,-138.54 127.46,-144.62 147.63,-149.89"/>
<polygon fill="midnightblue" stroke="midnightblue" points="146.99,-153.34 157.55,-152.48 148.76,-146.57 146.99,-153.34"/>
</g>
<!-- Node5 -->
<g id="node5" class="node">
<title>Node5</title>
<g id="a_node5"><a xlink:href="console_8c.html#a12c0f878ea460b2ab1f1a0d7cd4a4ec6" target="_top" xlink:title=" ">
<polygon fill="white" stroke="red" points="305,-133.5 305,-152.5 370,-152.5 370,-133.5 305,-133.5"/>
<text text-anchor="middle" x="337.5" y="-140.5" font-family="Helvetica,sans-Serif" font-size="10.00">mrbc_printf</text>
</a>
</g>
</g>
<!-- Node1&#45;&gt;Node5 -->
<g id="edge5" class="edge">
<title>Node1&#45;&gt;Node5</title>
<path fill="none" stroke="midnightblue" d="M95.09,-127.07C150.31,-130.72 241.52,-136.73 294.6,-140.24"/>
<polygon fill="midnightblue" stroke="midnightblue" points="294.48,-143.74 304.69,-140.9 294.94,-136.75 294.48,-143.74"/>
</g>
<!-- Node8 -->
<g id="node6" class="node">
<title>Node8</title>
<g id="a_node6"><a xlink:href="alloc_8c.html#a20488f515fa00a7f76e400191605d0e5" target="_top" xlink:title=" ">
<polygon fill="white" stroke="black" points="295,-57.5 295,-76.5 380,-76.5 380,-57.5 295,-57.5"/>
<text text-anchor="middle" x="337.5" y="-64.5" font-family="Helvetica,sans-Serif" font-size="10.00">mrbc_raw_alloc</text>
</a>
</g>
</g>
<!-- Node1&#45;&gt;Node8 -->
<g id="edge6" class="edge">
<title>Node1&#45;&gt;Node8</title>
<path fill="none" stroke="midnightblue" d="M95.09,-114.78C146.99,-104.51 230.66,-87.95 284.61,-77.27"/>
<polygon fill="midnightblue" stroke="midnightblue" points="285.53,-80.66 294.66,-75.28 284.17,-73.79 285.53,-80.66"/>
</g>
<!-- Node9 -->
<g id="node7" class="node">
<title>Node9</title>
<g id="a_node7"><a xlink:href="vm_8c.html#aed26a79f39269e724fde5d01c4164cac" target="_top" xlink:title=" ">
<polygon fill="white" stroke="black" points="152,-38.5 152,-57.5 238,-57.5 238,-38.5 152,-38.5"/>
<text text-anchor="middle" x="195" y="-45.5" font-family="Helvetica,sans-Serif" font-size="10.00">mrbc_vm_close</text>
</a>
</g>
</g>
<!-- Node1&#45;&gt;Node9 -->
<g id="edge7" class="edge">
<title>Node1&#45;&gt;Node9</title>
<path fill="none" stroke="midnightblue" d="M61.74,-114.49C77.65,-103.35 105.4,-84.78 131,-72 138.83,-68.09 147.45,-64.42 155.75,-61.18"/>
<polygon fill="midnightblue" stroke="midnightblue" points="157.14,-64.39 165.26,-57.58 154.67,-57.84 157.14,-64.39"/>
</g>
<!-- Node10 -->
<g id="node8" class="node">
<title>Node10</title>
<g id="a_node8"><a xlink:href="vm_8c.html#abfc6caf79c0e62d19b8fd79fa2c735d1" target="_top" xlink:title=" ">
<polygon fill="white" stroke="black" points="153.5,-0.5 153.5,-19.5 236.5,-19.5 236.5,-0.5 153.5,-0.5"/>
<text text-anchor="middle" x="195" y="-7.5" font-family="Helvetica,sans-Serif" font-size="10.00">mrbc_vm_open</text>
</a>
</g>
</g>
<!-- Node1&#45;&gt;Node10 -->
<g id="edge8" class="edge">
<title>Node1&#45;&gt;Node10</title>
<path fill="none" stroke="midnightblue" d="M54.23,-114.33C66.09,-95.15 95.24,-52.14 131,-29 134.99,-26.42 139.34,-24.18 143.83,-22.23"/>
<polygon fill="midnightblue" stroke="midnightblue" points="145.11,-25.49 153.19,-18.64 142.6,-18.96 145.11,-25.49"/>
</g>
<!-- Node4&#45;&gt;Node5 -->
<g id="edge4" class="edge">
<title>Node4&#45;&gt;Node5</title>
<path fill="none" stroke="midnightblue" d="M259.26,-153.44C271.19,-151.83 283.38,-150.18 294.45,-148.69"/>
<polygon fill="midnightblue" stroke="midnightblue" points="295.24,-152.11 304.68,-147.3 294.3,-145.18 295.24,-152.11"/>
</g>
<!-- Node10&#45;&gt;Node8 -->
<g id="edge9" class="edge">
<title>Node10&#45;&gt;Node8</title>
<path fill="none" stroke="midnightblue" d="M231.34,-19.55C240.45,-22.32 250.17,-25.53 259,-29 276.39,-35.83 295.23,-45.02 309.97,-52.66"/>
<polygon fill="midnightblue" stroke="midnightblue" points="308.54,-55.86 319.02,-57.41 311.79,-49.66 308.54,-55.86"/>
</g>
</g>
</svg>
