<?xml version="1.0" encoding="UTF-8" standalone="no"?>
<!DOCTYPE svg PUBLIC "-//W3C//DTD SVG 1.1//EN"
 "http://www.w3.org/Graphics/SVG/1.1/DTD/svg11.dtd">
<!-- Generated by graphviz version 3.0.0 (20220226.1711)
 -->
<!-- Title: RObject Pages: 1 -->
<!--zoomable 480 -->
<svg id="main" version="1.1" xmlns="http://www.w3.org/2000/svg" xmlns:xlink="http://www.w3.org/1999/xlink" xml:space="preserve" onload="init(evt)">
<style type="text/css"><![CDATA[
.edge:hover path { stroke: red; }
.edge:hover polygon { stroke: red; fill: red; }
]]></style>
<script type="text/javascript"><![CDATA[
var edges = document.getElementsByTagName('g');
if (edges && edges.length) {
  for (var i=0;i<edges.length;i++) {
    if (edges[i].id.substr(0,4)=='edge') {
      edges[i].setAttribute('class','edge');
    }
  }
}
]]></script>
        <defs>
                <circle id="rim" cx="0" cy="0" r="7"/>
                <circle id="rim2" cx="0" cy="0" r="3.5"/>
                <g id="zoomPlus">
                        <use xlink:href="#rim" fill="#404040">
                                <set attributeName="fill" to="#808080" begin="zoomplus.mouseover" end="zoomplus.mouseout"/>
                        </use>
                        <path d="M-4,0h8M0,-4v8" fill="none" stroke="white" stroke-width="1.5" pointer-events="none"/>
                </g>
                <g id="zoomMin">
                        <use xlink:href="#rim" fill="#404040">
                                <set attributeName="fill" to="#808080" begin="zoomminus.mouseover" end="zoomminus.mouseout"/>
                        </use>
                        <path d="M-4,0h8" fill="none" stroke="white" stroke-width="1.5" pointer-events="none"/>
                </g>
                <g id="dirArrow">
                        <path fill="none" stroke="white" stroke-width="1.5" d="M0,-3.0v7 M-2.5,-0.5L0,-3.0L2.5,-0.5"/>
                </g>
               <g id="resetDef">
                       <use xlink:href="#rim2" fill="#404040">
                               <set attributeName="fill" to="#808080" begin="reset.mouseover" end="reset.mouseout"/>
                       </use>
               </g>
        </defs>

<script type="text/javascript">
var viewWidth = 808;
var viewHeight = 480;
var sectionId = 'dynsection-0';
</script>
<script xlink:href="svgpan.js"/>
<svg id="graph" class="graph">
<g id="viewport">
<title>RObject</title>
<polygon fill="white" stroke="transparent" points="-4,4 -4,-476 804,-476 804,4 -4,4"/>
<!-- Node1 -->
<g id="node1" class="node">
<title>Node1</title>
<g id="a_node1"><a xlink:title="Value object.">
<polygon fill="#bfbfbf" stroke="black" points="410.5,-138.5 410.5,-228.5 464.5,-228.5 464.5,-138.5 410.5,-138.5"/>
<text text-anchor="middle" x="437.5" y="-216.5" font-family="Helvetica,sans-Serif" font-size="10.00">RObject</text>
<polyline fill="none" stroke="black" points="410.5,-209.5 464.5,-209.5 "/>
<text text-anchor="start" x="418.5" y="-197.5" font-family="Helvetica,sans-Serif" font-size="10.00">+ tt</text>
<text text-anchor="start" x="418.5" y="-186.5" font-family="Helvetica,sans-Serif" font-size="10.00">+ i</text>
<text text-anchor="start" x="418.5" y="-175.5" font-family="Helvetica,sans-Serif" font-size="10.00">+ handle</text>
<text text-anchor="start" x="418.5" y="-164.5" font-family="Helvetica,sans-Serif" font-size="10.00">+ @9</text>
<polyline fill="none" stroke="black" points="410.5,-157.5 464.5,-157.5 "/>
<text text-anchor="middle" x="437.5" y="-145.5" font-family="Helvetica,sans-Serif" font-size="10.00"> </text>
</a>
</g>
</g>
<!-- Node8 -->
<g id="node5" class="node">
<title>Node8</title>
<g id="a_node5"><a xlink:href="struct_r_proc.html" target="_top" xlink:title="Proc object.">
<polygon fill="white" stroke="red" points="484,-11.5 484,-68.5 633,-68.5 633,-11.5 484,-11.5"/>
<text text-anchor="middle" x="558.5" y="-56.5" font-family="Helvetica,sans-Serif" font-size="10.00">RProc</text>
<polyline fill="none" stroke="red" points="484,-49.5 633,-49.5 "/>
<text text-anchor="start" x="492" y="-37.5" font-family="Helvetica,sans-Serif" font-size="10.00">+ MRBC_OBJECT_HEADER</text>
<polyline fill="none" stroke="red" points="484,-30.5 633,-30.5 "/>
<text text-anchor="middle" x="558.5" y="-18.5" font-family="Helvetica,sans-Serif" font-size="10.00"> </text>
</a>
</g>
</g>
<!-- Node1&#45;&gt;Node8 -->
<g id="edge9" class="edge">
<title>Node1&#45;&gt;Node8</title>
<path fill="none" stroke="#404040" d="M464.78,-165.57C481.51,-154.2 502.52,-138.03 517.5,-120 527.45,-108.02 535.92,-93.23 542.53,-79.7"/>
<polygon fill="none" stroke="#404040" points="542.58,-79.6 541.49,-72.47 547.64,-68.72 548.74,-75.84 542.58,-79.6"/>
<text text-anchor="middle" x="550" y="-106.5" font-family="Helvetica,sans-Serif" font-size="10.00"> +ret_val</text>
</g>
<!-- Node12 -->
<g id="node6" class="node">
<title>Node12</title>
<g id="a_node6"><a xlink:href="struct_r_array.html" target="_top" xlink:title="Array object.">
<polygon fill="white" stroke="black" points="651,-0.5 651,-79.5 800,-79.5 800,-0.5 651,-0.5"/>
<text text-anchor="middle" x="725.5" y="-67.5" font-family="Helvetica,sans-Serif" font-size="10.00">RArray</text>
<polyline fill="none" stroke="black" points="651,-60.5 800,-60.5 "/>
<text text-anchor="start" x="659" y="-48.5" font-family="Helvetica,sans-Serif" font-size="10.00">+ MRBC_OBJECT_HEADER</text>
<text text-anchor="start" x="659" y="-37.5" font-family="Helvetica,sans-Serif" font-size="10.00">+ data_size</text>
<text text-anchor="start" x="659" y="-26.5" font-family="Helvetica,sans-Serif" font-size="10.00">+ n_stored</text>
<polyline fill="none" stroke="black" points="651,-19.5 800,-19.5 "/>
<text text-anchor="middle" x="725.5" y="-7.5" font-family="Helvetica,sans-Serif" font-size="10.00"> </text>
</a>
</g>
</g>
<!-- Node1&#45;&gt;Node12 -->
<g id="edge12" class="edge">
<title>Node1&#45;&gt;Node12</title>
<path fill="none" stroke="#404040" d="M464.55,-179.17C506.88,-172.99 590.15,-156.87 650.5,-120 664,-111.75 676.68,-100.46 687.64,-89"/>
<polygon fill="none" stroke="#404040" points="687.94,-88.67 689.04,-81.54 696.05,-79.82 694.95,-86.95 687.94,-88.67"/>
<text text-anchor="middle" x="692.5" y="-106.5" font-family="Helvetica,sans-Serif" font-size="10.00"> +data</text>
</g>
<!-- Node14 -->
<g id="node8" class="node">
<title>Node14</title>
<g id="a_node8"><a xlink:href="struct_r_range.html" target="_top" xlink:title="Range object.">
<polygon fill="white" stroke="black" points="150,-6 150,-74 299,-74 299,-6 150,-6"/>
<text text-anchor="middle" x="224.5" y="-62" font-family="Helvetica,sans-Serif" font-size="10.00">RRange</text>
<polyline fill="none" stroke="black" points="150,-55 299,-55 "/>
<text text-anchor="start" x="158" y="-43" font-family="Helvetica,sans-Serif" font-size="10.00">+ MRBC_OBJECT_HEADER</text>
<text text-anchor="start" x="158" y="-32" font-family="Helvetica,sans-Serif" font-size="10.00">+ flag_exclude</text>
<polyline fill="none" stroke="black" points="150,-25 299,-25 "/>
<text text-anchor="middle" x="224.5" y="-13" font-family="Helvetica,sans-Serif" font-size="10.00"> </text>
</a>
</g>
</g>
<!-- Node1&#45;&gt;Node14 -->
<g id="edge17" class="edge">
<title>Node1&#45;&gt;Node14</title>
<path fill="none" stroke="#404040" d="M410.25,-176.4C377.35,-167.99 321.57,-150.35 282.5,-120 269.99,-110.28 258.91,-97.18 249.87,-84.45"/>
<polygon fill="none" stroke="#404040" points="249.79,-84.33 243.11,-81.59 243.07,-74.38 249.74,-77.12 249.79,-84.33"/>
<text text-anchor="middle" x="295.5" y="-112" font-family="Helvetica,sans-Serif" font-size="10.00"> +first</text>
<text text-anchor="middle" x="295.5" y="-101" font-family="Helvetica,sans-Serif" font-size="10.00">+last</text>
</g>
<!-- Node15 -->
<g id="node9" class="node">
<title>Node15</title>
<g id="a_node9"><a xlink:href="struct_r_hash.html" target="_top" xlink:title="Hash object.">
<polygon fill="white" stroke="black" points="317,-0.5 317,-79.5 466,-79.5 466,-0.5 317,-0.5"/>
<text text-anchor="middle" x="391.5" y="-67.5" font-family="Helvetica,sans-Serif" font-size="10.00">RHash</text>
<polyline fill="none" stroke="black" points="317,-60.5 466,-60.5 "/>
<text text-anchor="start" x="325" y="-48.5" font-family="Helvetica,sans-Serif" font-size="10.00">+ MRBC_OBJECT_HEADER</text>
<text text-anchor="start" x="325" y="-37.5" font-family="Helvetica,sans-Serif" font-size="10.00">+ data_size</text>
<text text-anchor="start" x="325" y="-26.5" font-family="Helvetica,sans-Serif" font-size="10.00">+ n_stored</text>
<polyline fill="none" stroke="black" points="317,-19.5 466,-19.5 "/>
<text text-anchor="middle" x="391.5" y="-7.5" font-family="Helvetica,sans-Serif" font-size="10.00"> </text>
</a>
</g>
</g>
<!-- Node1&#45;&gt;Node15 -->
<g id="edge20" class="edge">
<title>Node1&#45;&gt;Node15</title>
<path fill="none" stroke="#404040" d="M427.27,-138.29C423.9,-125.2 419.88,-110.92 415.5,-98 414.71,-95.66 413.86,-93.27 412.98,-90.87"/>
<polygon fill="none" stroke="#404040" points="412.97,-90.85 407.08,-86.69 408.65,-79.65 414.54,-83.81 412.97,-90.85"/>
<text text-anchor="middle" x="435.5" y="-106.5" font-family="Helvetica,sans-Serif" font-size="10.00"> +data</text>
</g>
<!-- Node2 -->
<g id="node2" class="node">
<title>Node2</title>
<g id="a_node2"><a xlink:href="struct_r_basic.html" target="_top" xlink:title="Base class for some objects.">
<polygon fill="white" stroke="black" points="529,-409 529,-466 678,-466 678,-409 529,-409"/>
<text text-anchor="middle" x="603.5" y="-454" font-family="Helvetica,sans-Serif" font-size="10.00">RBasic</text>
<polyline fill="none" stroke="black" points="529,-447 678,-447 "/>
<text text-anchor="start" x="537" y="-435" font-family="Helvetica,sans-Serif" font-size="10.00">+ MRBC_OBJECT_HEADER</text>
<polyline fill="none" stroke="black" points="529,-428 678,-428 "/>
<text text-anchor="middle" x="603.5" y="-416" font-family="Helvetica,sans-Serif" font-size="10.00"> </text>
</a>
</g>
</g>
<!-- Node2&#45;&gt;Node1 -->
<g id="edge1" class="edge">
<title>Node2&#45;&gt;Node1</title>
<path fill="none" stroke="#404040" d="M611.79,-408.73C620.18,-374.84 628.78,-317 604.5,-276 576.94,-229.47 516.41,-205.05 476.31,-193.47"/>
<polygon fill="none" stroke="#404040" points="476.15,-193.43 469.31,-195.72 464.57,-190.28 471.41,-188 476.15,-193.43"/>
<text text-anchor="middle" x="630.5" y="-313.5" font-family="Helvetica,sans-Serif" font-size="10.00"> +obj</text>
</g>
<!-- Node9 -->
<g id="node4" class="node">
<title>Node9</title>
<g id="a_node4"><a xlink:href="struct_r_instance.html" target="_top" xlink:title="Instance object.">
<polygon fill="white" stroke="red" points="279,-282 279,-350 428,-350 428,-282 279,-282"/>
<text text-anchor="middle" x="353.5" y="-338" font-family="Helvetica,sans-Serif" font-size="10.00">RInstance</text>
<polyline fill="none" stroke="red" points="279,-331 428,-331 "/>
<text text-anchor="start" x="287" y="-319" font-family="Helvetica,sans-Serif" font-size="10.00">+ MRBC_OBJECT_HEADER</text>
<text text-anchor="start" x="287" y="-308" font-family="Helvetica,sans-Serif" font-size="10.00">+ data</text>
<polyline fill="none" stroke="red" points="279,-301 428,-301 "/>
<text text-anchor="middle" x="353.5" y="-289" font-family="Helvetica,sans-Serif" font-size="10.00"> </text>
</a>
</g>
</g>
<!-- Node2&#45;&gt;Node9 -->
<g id="edge5" class="edge">
<title>Node2&#45;&gt;Node9</title>
<path fill="none" stroke="midnightblue" d="M536.61,-404.52C501.45,-387.72 458.41,-367.15 422.89,-350.17"/>
<polygon fill="none" stroke="midnightblue" points="535.3,-407.78 545.83,-408.93 538.32,-401.46 535.3,-407.78"/>
</g>
<!-- Node2&#45;&gt;Node8 -->
<g id="edge8" class="edge">
<title>Node2&#45;&gt;Node8</title>
<path fill="none" stroke="midnightblue" d="M679.99,-402.71C686.01,-397.54 691.35,-391.67 695.5,-385 729.24,-330.79 748.35,-148.67 709.5,-98 690.74,-73.53 671.48,-90.53 642.5,-80 633.28,-76.65 623.69,-72.68 614.42,-68.58"/>
<polygon fill="none" stroke="midnightblue" points="677.8,-399.98 672.05,-408.88 682.1,-405.51 677.8,-399.98"/>
</g>
<!-- Node2&#45;&gt;Node12 -->
<g id="edge11" class="edge">
<title>Node2&#45;&gt;Node12</title>
<path fill="none" stroke="midnightblue" d="M687.02,-404.98C705.98,-393.03 722.8,-377.05 730.5,-356 765,-261.75 747.47,-140.77 734.78,-79.81"/>
<polygon fill="none" stroke="midnightblue" points="685.02,-402.09 678.19,-410.19 688.58,-408.12 685.02,-402.09"/>
</g>
<!-- Node13 -->
<g id="node7" class="node">
<title>Node13</title>
<g id="a_node7"><a xlink:href="struct_r_string.html" target="_top" xlink:title="String object.">
<polygon fill="white" stroke="black" points="446,-276.5 446,-355.5 595,-355.5 595,-276.5 446,-276.5"/>
<text text-anchor="middle" x="520.5" y="-343.5" font-family="Helvetica,sans-Serif" font-size="10.00">RString</text>
<polyline fill="none" stroke="black" points="446,-336.5 595,-336.5 "/>
<text text-anchor="start" x="454" y="-324.5" font-family="Helvetica,sans-Serif" font-size="10.00">+ MRBC_OBJECT_HEADER</text>
<text text-anchor="start" x="454" y="-313.5" font-family="Helvetica,sans-Serif" font-size="10.00">+ size</text>
<text text-anchor="start" x="454" y="-302.5" font-family="Helvetica,sans-Serif" font-size="10.00">+ data</text>
<polyline fill="none" stroke="black" points="446,-295.5 595,-295.5 "/>
<text text-anchor="middle" x="520.5" y="-283.5" font-family="Helvetica,sans-Serif" font-size="10.00"> </text>
</a>
</g>
</g>
<!-- Node2&#45;&gt;Node13 -->
<g id="edge14" class="edge">
<title>Node2&#45;&gt;Node13</title>
<path fill="none" stroke="midnightblue" d="M578.39,-400.34C568.63,-386.29 557.43,-370.18 547.51,-355.88"/>
<polygon fill="none" stroke="midnightblue" points="575.67,-402.57 584.25,-408.78 581.42,-398.57 575.67,-402.57"/>
</g>
<!-- Node2&#45;&gt;Node14 -->
<g id="edge16" class="edge">
<title>Node2&#45;&gt;Node14</title>
<path fill="none" stroke="midnightblue" d="M518.62,-436.46C388.75,-434.29 150.66,-421.26 102.5,-356 35.99,-265.87 136.64,-134.89 192.03,-74.18"/>
<polygon fill="none" stroke="midnightblue" points="518.87,-439.96 528.92,-436.61 518.98,-432.96 518.87,-439.96"/>
</g>
<!-- Node2&#45;&gt;Node15 -->
<g id="edge19" class="edge">
<title>Node2&#45;&gt;Node15</title>
<path fill="none" stroke="midnightblue" d="M627.56,-400.02C634.93,-386.74 642.02,-371.23 645.5,-356 672.05,-239.95 665.77,-173.23 573.5,-98 539.18,-70.02 517.7,-93.43 475.5,-80 472.44,-79.02 469.34,-77.96 466.23,-76.84"/>
<polygon fill="none" stroke="midnightblue" points="624.44,-398.43 622.45,-408.83 630.5,-401.94 624.44,-398.43"/>
</g>
<!-- Node16 -->
<g id="node10" class="node">
<title>Node16</title>
<g id="a_node10"><a xlink:href="struct_r_exception.html" target="_top" xlink:title="Exception object.">
<polygon fill="white" stroke="black" points="112,-276.5 112,-355.5 261,-355.5 261,-276.5 112,-276.5"/>
<text text-anchor="middle" x="186.5" y="-343.5" font-family="Helvetica,sans-Serif" font-size="10.00">RException</text>
<polyline fill="none" stroke="black" points="112,-336.5 261,-336.5 "/>
<text text-anchor="start" x="120" y="-324.5" font-family="Helvetica,sans-Serif" font-size="10.00">+ MRBC_OBJECT_HEADER</text>
<text text-anchor="start" x="120" y="-313.5" font-family="Helvetica,sans-Serif" font-size="10.00">+ message_size</text>
<text text-anchor="start" x="120" y="-302.5" font-family="Helvetica,sans-Serif" font-size="10.00">+ message</text>
<polyline fill="none" stroke="black" points="112,-295.5 261,-295.5 "/>
<text text-anchor="middle" x="186.5" y="-283.5" font-family="Helvetica,sans-Serif" font-size="10.00"> </text>
</a>
</g>
</g>
<!-- Node2&#45;&gt;Node16 -->
<g id="edge22" class="edge">
<title>Node2&#45;&gt;Node16</title>
<path fill="none" stroke="midnightblue" d="M519.09,-421.09C450.73,-407.44 352.5,-385.16 269.5,-356 266.8,-355.05 264.06,-354.04 261.32,-352.99"/>
<polygon fill="none" stroke="midnightblue" points="518.47,-424.54 528.96,-423.04 519.82,-417.67 518.47,-424.54"/>
</g>
<!-- Node3 -->
<g id="node3" class="node">
<title>Node3</title>
<g id="a_node3"><a xlink:href="struct_r_class.html" target="_top" xlink:title="Class object.">
<polygon fill="white" stroke="red" points="0,-403.5 0,-471.5 113,-471.5 113,-403.5 0,-403.5"/>
<text text-anchor="middle" x="56.5" y="-459.5" font-family="Helvetica,sans-Serif" font-size="10.00">RClass</text>
<polyline fill="none" stroke="red" points="0,-452.5 113,-452.5 "/>
<text text-anchor="start" x="8" y="-440.5" font-family="Helvetica,sans-Serif" font-size="10.00">+ sym_id</text>
<text text-anchor="start" x="8" y="-429.5" font-family="Helvetica,sans-Serif" font-size="10.00">+ num_builtin_method</text>
<polyline fill="none" stroke="red" points="0,-422.5 113,-422.5 "/>
<text text-anchor="middle" x="56.5" y="-410.5" font-family="Helvetica,sans-Serif" font-size="10.00"> </text>
</a>
</g>
</g>
<!-- Node3&#45;&gt;Node1 -->
<g id="edge2" class="edge">
<title>Node3&#45;&gt;Node1</title>
<path fill="none" stroke="#404040" d="M51.67,-403.49C48.38,-367.55 49.26,-310.62 80.5,-276 123.11,-228.79 314.82,-199.72 398.37,-189.09"/>
<polygon fill="none" stroke="#404040" points="398.44,-189.08 403.9,-184.37 410.35,-187.6 404.89,-192.31 398.44,-189.08"/>
<text text-anchor="middle" x="91.5" y="-313.5" font-family="Helvetica,sans-Serif" font-size="10.00"> +cls</text>
</g>
<!-- Node3&#45;&gt;Node3 -->
<g id="edge3" class="edge">
<title>Node3&#45;&gt;Node3</title>
<path fill="none" stroke="#404040" d="M113.03,-447.82C123.57,-446.55 131,-443.11 131,-437.5 131,-434.35 128.65,-431.88 124.72,-430.1"/>
<polygon fill="none" stroke="#404040" points="124.67,-430.08 117.88,-432.52 113.03,-427.18 119.81,-424.75 124.67,-430.08"/>
<text text-anchor="middle" x="148" y="-435" font-family="Helvetica,sans-Serif" font-size="10.00"> +super</text>
</g>
<!-- Node3&#45;&gt;Node9 -->
<g id="edge6" class="edge">
<title>Node3&#45;&gt;Node9</title>
<path fill="none" stroke="#404040" d="M113,-416.43C156.19,-400.78 217.02,-378.06 269.5,-356 270.33,-355.65 271.17,-355.3 272.01,-354.94"/>
<polygon fill="none" stroke="#404040" points="272.07,-354.91 275.99,-348.86 283.09,-350.15 279.17,-356.2 272.07,-354.91"/>
<text text-anchor="middle" x="234.5" y="-377" font-family="Helvetica,sans-Serif" font-size="10.00"> +cls</text>
</g>
<!-- Node3&#45;&gt;Node16 -->
<g id="edge23" class="edge">
<title>Node3&#45;&gt;Node16</title>
<path fill="none" stroke="#404040" d="M92.71,-403.21C105.9,-391.09 121.07,-377.14 135.31,-364.05"/>
<polygon fill="none" stroke="#404040" points="135.67,-363.72 137.38,-356.72 144.51,-355.6 142.8,-362.61 135.67,-363.72"/>
<text text-anchor="middle" x="132.5" y="-377" font-family="Helvetica,sans-Serif" font-size="10.00"> +cls</text>
</g>
<!-- Node9&#45;&gt;Node1 -->
<g id="edge4" class="edge">
<title>Node9&#45;&gt;Node1</title>
<path fill="none" stroke="#404040" d="M374.91,-281.73C383.68,-268.11 394.04,-252.02 403.78,-236.89"/>
<polygon fill="none" stroke="#404040" points="403.9,-236.7 403.78,-229.49 410.4,-226.61 410.51,-233.82 403.9,-236.7"/>
<text text-anchor="middle" x="418.5" y="-250" font-family="Helvetica,sans-Serif" font-size="10.00"> +instance</text>
</g>
<!-- Node8&#45;&gt;Node1 -->
<g id="edge7" class="edge">
<title>Node8&#45;&gt;Node1</title>
<path fill="none" stroke="#404040" d="M520.67,-68.51C509.93,-77.27 498.68,-87.45 489.5,-98 481.53,-107.16 474,-117.69 467.29,-128.13"/>
<polygon fill="none" stroke="#404040" points="467.18,-128.29 467.41,-135.5 460.85,-138.49 460.62,-131.28 467.18,-128.29"/>
<text text-anchor="middle" x="503.5" y="-106.5" font-family="Helvetica,sans-Serif" font-size="10.00"> +proc</text>
</g>
<!-- Node12&#45;&gt;Node1 -->
<g id="edge10" class="edge">
<title>Node12&#45;&gt;Node1</title>
<path fill="none" stroke="#404040" d="M652.8,-79.7C627.8,-92.76 599.55,-107.26 573.5,-120 540.72,-136.04 502.98,-153.29 475.58,-165.6"/>
<polygon fill="none" stroke="#404040" points="475.47,-165.64 471.63,-171.75 464.52,-170.55 468.36,-164.45 475.47,-165.64"/>
<text text-anchor="middle" x="631" y="-106.5" font-family="Helvetica,sans-Serif" font-size="10.00"> +array</text>
</g>
<!-- Node13&#45;&gt;Node1 -->
<g id="edge13" class="edge">
<title>Node13&#45;&gt;Node1</title>
<path fill="none" stroke="#404040" d="M495.82,-276.2C488.05,-263.99 479.34,-250.29 471.06,-237.27"/>
<polygon fill="none" stroke="#404040" points="470.99,-237.15 464.39,-234.24 464.55,-227.03 471.14,-229.94 470.99,-237.15"/>
<text text-anchor="middle" x="500.5" y="-250" font-family="Helvetica,sans-Serif" font-size="10.00"> +string</text>
</g>
<!-- Node14&#45;&gt;Node1 -->
<g id="edge15" class="edge">
<title>Node14&#45;&gt;Node1</title>
<path fill="none" stroke="#404040" d="M274.59,-74.28C312.94,-99.75 365.01,-134.35 399.86,-157.5"/>
<polygon fill="none" stroke="#404040" points="400.09,-157.65 407.31,-157.64 410.09,-164.29 402.88,-164.3 400.09,-157.65"/>
<text text-anchor="middle" x="354.5" y="-106.5" font-family="Helvetica,sans-Serif" font-size="10.00"> +range</text>
</g>
<!-- Node15&#45;&gt;Node1 -->
<g id="edge18" class="edge">
<title>Node15&#45;&gt;Node1</title>
<path fill="none" stroke="#404040" d="M381.48,-79.66C379.79,-92.79 379.85,-107.33 384.5,-120 388.42,-130.69 395.07,-140.81 402.36,-149.66"/>
<polygon fill="none" stroke="#404040" points="402.46,-149.77 409.43,-151.6 410.43,-158.74 403.45,-156.91 402.46,-149.77"/>
<text text-anchor="middle" x="400" y="-106.5" font-family="Helvetica,sans-Serif" font-size="10.00"> +hash</text>
</g>
<!-- Node16&#45;&gt;Node1 -->
<g id="edge21" class="edge">
<title>Node16&#45;&gt;Node1</title>
<path fill="none" stroke="#404040" d="M260.79,-276.38C306.38,-252.67 362.85,-223.31 399.5,-204.26"/>
<polygon fill="none" stroke="#404040" points="399.56,-204.23 403.04,-197.91 410.21,-198.69 406.73,-205.01 399.56,-204.23"/>
<text text-anchor="middle" x="338.5" y="-250" font-family="Helvetica,sans-Serif" font-size="10.00"> +exception</text>
</g>
</g>
</svg>
        <g id="navigator" transform="translate(0 0)" fill="#404254">
                <rect fill="#f2f5e9" fill-opacity="0.5" stroke="#606060" stroke-width=".5" x="0" y="0" width="60" height="60"/>
                <use id="zoomplus" xlink:href="#zoomPlus" x="17" y="9" onmousedown="handleZoom(evt,'in')"/>
                <use id="zoomminus" xlink:href="#zoomMin" x="42" y="9" onmousedown="handleZoom(evt,'out')"/>
                <use id="reset" xlink:href="#resetDef" x="30" y="36" onmousedown="handleReset()"/>
                <g id="arrowUp" xlink:href="#dirArrow" transform="translate(30 24)" onmousedown="handlePan(0,-1)">
                  <use xlink:href="#rim" fill="#404040">
                        <set attributeName="fill" to="#808080" begin="arrowUp.mouseover" end="arrowUp.mouseout"/>
                  </use>
                  <path fill="none" stroke="white" stroke-width="1.5" d="M0,-3.0v7 M-2.5,-0.5L0,-3.0L2.5,-0.5"/>
                </g>
                <g id="arrowRight" xlink:href="#dirArrow" transform="rotate(90) translate(36 -43)" onmousedown="handlePan(1,0)">
                  <use xlink:href="#rim" fill="#404040">
                        <set attributeName="fill" to="#808080" begin="arrowRight.mouseover" end="arrowRight.mouseout"/>
                  </use>
                  <path fill="none" stroke="white" stroke-width="1.5" d="M0,-3.0v7 M-2.5,-0.5L0,-3.0L2.5,-0.5"/>
                </g>
                <g id="arrowDown" xlink:href="#dirArrow" transform="rotate(180) translate(-30 -48)" onmousedown="handlePan(0,1)">
                  <use xlink:href="#rim" fill="#404040">
                        <set attributeName="fill" to="#808080" begin="arrowDown.mouseover" end="arrowDown.mouseout"/>
                  </use>
                  <path fill="none" stroke="white" stroke-width="1.5" d="M0,-3.0v7 M-2.5,-0.5L0,-3.0L2.5,-0.5"/>
                </g>
                <g id="arrowLeft" xlink:href="#dirArrow" transform="rotate(270) translate(-36 17)" onmousedown="handlePan(-1,0)">
                  <use xlink:href="#rim" fill="#404040">
                        <set attributeName="fill" to="#808080" begin="arrowLeft.mouseover" end="arrowLeft.mouseout"/>
                  </use>
                  <path fill="none" stroke="white" stroke-width="1.5" d="M0,-3.0v7 M-2.5,-0.5L0,-3.0L2.5,-0.5"/>
                </g>
        </g>
        <svg viewBox="0 0 15 15" width="100%" height="30px" preserveAspectRatio="xMaxYMin meet">
         <g id="arrow_out" transform="scale(0.3 0.3)">
          <a xlink:href="struct_r_object__coll__graph_org.svg" target="_base">
           <rect id="button" ry="5" rx="5" y="6" x="6" height="38" width="38"
                fill="#f2f5e9" fill-opacity="0.5" stroke="#606060" stroke-width="1.0"/>
           <path id="arrow"
             d="M 11.500037,31.436501 C 11.940474,20.09759 22.043105,11.32322 32.158766,21.979434 L 37.068811,17.246167 C 37.068811,17.246167 37.088388,32 37.088388,32 L 22.160133,31.978069 C 22.160133,31.978069 26.997745,27.140456 26.997745,27.140456 C 18.528582,18.264221 13.291696,25.230495 11.500037,31.436501 z"
             style="fill:#404040;"/>
          </a>
         </g>
        </svg>
</svg>
