<?xml version="1.0" encoding="UTF-8" standalone="no"?>
<!DOCTYPE svg PUBLIC "-//W3C//DTD SVG 1.1//EN"
 "http://www.w3.org/Graphics/SVG/1.1/DTD/svg11.dtd">
<!-- Generated by graphviz version 3.0.0 (20220226.1711)
 -->
<!-- Title: RBuiltinClass Pages: 1 -->
<svg width="220pt" height="364pt"
 viewBox="0.00 0.00 220.00 364.00" xmlns="http://www.w3.org/2000/svg" xmlns:xlink="http://www.w3.org/1999/xlink">
<g id="graph0" class="graph" transform="scale(1 1) rotate(0) translate(4 360)">
<title>RBuiltinClass</title>
<polygon fill="white" stroke="transparent" points="-4,4 -4,-360 216,-360 216,4 -4,4"/>
<!-- Node1 -->
<g id="node1" class="node">
<title>Node1</title>
<g id="a_node1"><a xlink:title="Built&#45;in class object.">
<polygon fill="#bfbfbf" stroke="black" points="0,-0.5 0,-90.5 113,-90.5 113,-0.5 0,-0.5"/>
<text text-anchor="middle" x="56.5" y="-78.5" font-family="Helvetica,sans-Serif" font-size="10.00">RBuiltinClass</text>
<polyline fill="none" stroke="black" points="0,-71.5 113,-71.5 "/>
<text text-anchor="start" x="8" y="-59.5" font-family="Helvetica,sans-Serif" font-size="10.00">+ sym_id</text>
<text text-anchor="start" x="8" y="-48.5" font-family="Helvetica,sans-Serif" font-size="10.00">+ num_builtin_method</text>
<text text-anchor="start" x="8" y="-37.5" font-family="Helvetica,sans-Serif" font-size="10.00">+ method_symbols</text>
<text text-anchor="start" x="8" y="-26.5" font-family="Helvetica,sans-Serif" font-size="10.00">+ method_functions</text>
<polyline fill="none" stroke="black" points="0,-19.5 113,-19.5 "/>
<text text-anchor="middle" x="56.5" y="-7.5" font-family="Helvetica,sans-Serif" font-size="10.00"> </text>
</a>
</g>
</g>
<!-- Node2 -->
<g id="node2" class="node">
<title>Node2</title>
<g id="a_node2"><a xlink:href="struct_r_class.html" target="_top" xlink:title="Class object.">
<polygon fill="white" stroke="black" points="16,-287.5 16,-355.5 129,-355.5 129,-287.5 16,-287.5"/>
<text text-anchor="middle" x="72.5" y="-343.5" font-family="Helvetica,sans-Serif" font-size="10.00">RClass</text>
<polyline fill="none" stroke="black" points="16,-336.5 129,-336.5 "/>
<text text-anchor="start" x="24" y="-324.5" font-family="Helvetica,sans-Serif" font-size="10.00">+ sym_id</text>
<text text-anchor="start" x="24" y="-313.5" font-family="Helvetica,sans-Serif" font-size="10.00">+ num_builtin_method</text>
<polyline fill="none" stroke="black" points="16,-306.5 129,-306.5 "/>
<text text-anchor="middle" x="72.5" y="-294.5" font-family="Helvetica,sans-Serif" font-size="10.00"> </text>
</a>
</g>
</g>
<!-- Node2&#45;&gt;Node1 -->
<g id="edge1" class="edge">
<title>Node2&#45;&gt;Node1</title>
<path fill="none" stroke="midnightblue" d="M46.74,-278.22C45.22,-275.15 43.78,-272.05 42.5,-269 37.31,-256.68 36.29,-253.25 34.5,-240 28.42,-195.08 29.16,-183.02 34.5,-138 36.35,-122.42 39.9,-105.66 43.62,-90.8"/>
<polygon fill="none" stroke="midnightblue" points="43.78,-280.12 51.52,-287.35 49.98,-276.87 43.78,-280.12"/>
</g>
<!-- Node2&#45;&gt;Node1 -->
<g id="edge6" class="edge">
<title>Node2&#45;&gt;Node1</title>
<path fill="none" stroke="#404040" d="M69.85,-287.22C68.74,-272.72 67.48,-255.53 66.5,-240 63.59,-193.8 60.91,-141.36 59.07,-102.74"/>
<polygon fill="none" stroke="#404040" points="59.07,-102.69 54.79,-96.89 58.5,-90.71 62.78,-96.51 59.07,-102.69"/>
<text text-anchor="middle" x="83.5" y="-186.5" font-family="Helvetica,sans-Serif" font-size="10.00"> +super</text>
</g>
<!-- Node2&#45;&gt;Node2 -->
<g id="edge2" class="edge">
<title>Node2&#45;&gt;Node2</title>
<path fill="none" stroke="#404040" d="M129.03,-331.82C139.57,-330.55 147,-327.11 147,-321.5 147,-318.35 144.65,-315.88 140.72,-314.1"/>
<polygon fill="none" stroke="#404040" points="140.67,-314.08 133.88,-316.52 129.03,-311.18 135.81,-308.75 140.67,-314.08"/>
<text text-anchor="middle" x="164" y="-319" font-family="Helvetica,sans-Serif" font-size="10.00"> +super</text>
</g>
<!-- Node3 -->
<g id="node3" class="node">
<title>Node3</title>
<g id="a_node3"><a xlink:href="struct_r_method.html" target="_top" xlink:title="Method management structure.">
<polygon fill="white" stroke="red" points="109,-138.5 109,-239.5 166,-239.5 166,-138.5 109,-138.5"/>
<text text-anchor="middle" x="137.5" y="-227.5" font-family="Helvetica,sans-Serif" font-size="10.00">RMethod</text>
<polyline fill="none" stroke="red" points="109,-220.5 166,-220.5 "/>
<text text-anchor="start" x="117" y="-208.5" font-family="Helvetica,sans-Serif" font-size="10.00">+ type</text>
<text text-anchor="start" x="117" y="-197.5" font-family="Helvetica,sans-Serif" font-size="10.00">+ c_func</text>
<text text-anchor="start" x="117" y="-186.5" font-family="Helvetica,sans-Serif" font-size="10.00">+ sym_id</text>
<text text-anchor="start" x="117" y="-175.5" font-family="Helvetica,sans-Serif" font-size="10.00">+ @1</text>
<text text-anchor="start" x="117" y="-164.5" font-family="Helvetica,sans-Serif" font-size="10.00">+ @3</text>
<polyline fill="none" stroke="red" points="109,-157.5 166,-157.5 "/>
<text text-anchor="middle" x="137.5" y="-145.5" font-family="Helvetica,sans-Serif" font-size="10.00"> </text>
</a>
</g>
</g>
<!-- Node2&#45;&gt;Node3 -->
<g id="edge5" class="edge">
<title>Node2&#45;&gt;Node3</title>
<path fill="none" stroke="#404040" d="M78.57,-287.26C80.98,-277.57 84.23,-267.13 88.5,-258 92.23,-250.03 96.93,-242.02 101.94,-234.45"/>
<polygon fill="none" stroke="#404040" points="102.05,-234.29 102.19,-227.08 108.9,-224.43 108.76,-231.64 102.05,-234.29"/>
<text text-anchor="middle" x="99.5" y="-261" font-family="Helvetica,sans-Serif" font-size="10.00"> +cls</text>
</g>
<!-- Node3&#45;&gt;Node1 -->
<g id="edge7" class="edge">
<title>Node3&#45;&gt;Node1</title>
<path fill="none" stroke="#404040" d="M108.94,-138.11C102.11,-126.17 94.78,-113.36 87.82,-101.22"/>
<polygon fill="none" stroke="#404040" points="87.8,-101.17 81.34,-97.95 81.83,-90.76 88.29,-93.98 87.8,-101.17"/>
<text text-anchor="middle" x="127.5" y="-112" font-family="Helvetica,sans-Serif" font-size="10.00"> +method_link</text>
</g>
<!-- Node3&#45;&gt;Node2 -->
<g id="edge3" class="edge">
<title>Node3&#45;&gt;Node2</title>
<path fill="none" stroke="#404040" d="M126.35,-239.66C123.2,-249.66 119.28,-259.9 114.5,-269 113.07,-271.73 111.48,-274.44 109.78,-277.12"/>
<polygon fill="none" stroke="#404040" points="109.62,-277.36 109.49,-284.57 102.79,-287.22 102.91,-280.01 109.62,-277.36"/>
<text text-anchor="middle" x="149.5" y="-261" font-family="Helvetica,sans-Serif" font-size="10.00"> +method_link</text>
</g>
<!-- Node3&#45;&gt;Node3 -->
<g id="edge4" class="edge">
<title>Node3&#45;&gt;Node3</title>
<path fill="none" stroke="#404040" d="M166.11,-202.87C176.01,-203.02 184,-198.39 184,-189 184,-183.86 181.61,-180.15 177.82,-177.87"/>
<polygon fill="none" stroke="#404040" points="177.79,-177.86 171.04,-180.39 166.11,-175.13 172.86,-172.6 177.79,-177.86"/>
<text text-anchor="middle" x="198" y="-186.5" font-family="Helvetica,sans-Serif" font-size="10.00"> +next</text>
</g>
</g>
</svg>
