<?xml version="1.0" encoding="UTF-8" standalone="no"?>
<!DOCTYPE svg PUBLIC "-//W3C//DTD SVG 1.1//EN"
 "http://www.w3.org/Graphics/SVG/1.1/DTD/svg11.dtd">
<!-- Generated by graphviz version 3.0.0 (20220226.1711)
 -->
<!-- Title: RProc Pages: 1 -->
<svg width="265pt" height="568pt"
 viewBox="0.00 0.00 265.00 568.00" xmlns="http://www.w3.org/2000/svg" xmlns:xlink="http://www.w3.org/1999/xlink">
<g id="graph0" class="graph" transform="scale(1 1) rotate(0) translate(4 564)">
<title>RProc</title>
<polygon fill="white" stroke="transparent" points="-4,4 -4,-564 261,-564 261,4 -4,4"/>
<!-- Node1 -->
<g id="node1" class="node">
<title>Node1</title>
<g id="a_node1"><a xlink:title="Proc object.">
<polygon fill="#bfbfbf" stroke="black" points="16,-287.5 16,-344.5 165,-344.5 165,-287.5 16,-287.5"/>
<text text-anchor="middle" x="90.5" y="-332.5" font-family="Helvetica,sans-Serif" font-size="10.00">RProc</text>
<polyline fill="none" stroke="black" points="16,-325.5 165,-325.5 "/>
<text text-anchor="start" x="24" y="-313.5" font-family="Helvetica,sans-Serif" font-size="10.00">+ MRBC_OBJECT_HEADER</text>
<polyline fill="none" stroke="black" points="16,-306.5 165,-306.5 "/>
<text text-anchor="middle" x="90.5" y="-294.5" font-family="Helvetica,sans-Serif" font-size="10.00"> </text>
</a>
</g>
</g>
<!-- Node5 -->
<g id="node5" class="node">
<title>Node5</title>
<g id="a_node5"><a xlink:href="struct_r_object.html" target="_top" xlink:title="Value object.">
<polygon fill="white" stroke="red" points="122.5,-149.5 122.5,-239.5 176.5,-239.5 176.5,-149.5 122.5,-149.5"/>
<text text-anchor="middle" x="149.5" y="-227.5" font-family="Helvetica,sans-Serif" font-size="10.00">RObject</text>
<polyline fill="none" stroke="red" points="122.5,-220.5 176.5,-220.5 "/>
<text text-anchor="start" x="130.5" y="-208.5" font-family="Helvetica,sans-Serif" font-size="10.00">+ tt</text>
<text text-anchor="start" x="130.5" y="-197.5" font-family="Helvetica,sans-Serif" font-size="10.00">+ i</text>
<text text-anchor="start" x="130.5" y="-186.5" font-family="Helvetica,sans-Serif" font-size="10.00">+ handle</text>
<text text-anchor="start" x="130.5" y="-175.5" font-family="Helvetica,sans-Serif" font-size="10.00">+ @9</text>
<polyline fill="none" stroke="red" points="122.5,-168.5 176.5,-168.5 "/>
<text text-anchor="middle" x="149.5" y="-156.5" font-family="Helvetica,sans-Serif" font-size="10.00"> </text>
</a>
</g>
</g>
<!-- Node1&#45;&gt;Node5 -->
<g id="edge7" class="edge">
<title>Node1&#45;&gt;Node5</title>
<path fill="none" stroke="#404040" d="M89.5,-287.49C90.02,-277.85 91.63,-267.15 95.5,-258 96.84,-254.83 104.78,-245.23 114.18,-234.48"/>
<polygon fill="none" stroke="#404040" points="114.36,-234.28 115.34,-227.14 122.31,-225.29 121.33,-232.44 114.36,-234.28"/>
<text text-anchor="middle" x="109.5" y="-261" font-family="Helvetica,sans-Serif" font-size="10.00"> +proc</text>
</g>
<!-- Node2 -->
<g id="node2" class="node">
<title>Node2</title>
<g id="a_node2"><a xlink:href="struct_r_basic.html" target="_top" xlink:title="Base class for some objects.">
<polygon fill="white" stroke="black" points="108,-447.5 108,-504.5 257,-504.5 257,-447.5 108,-447.5"/>
<text text-anchor="middle" x="182.5" y="-492.5" font-family="Helvetica,sans-Serif" font-size="10.00">RBasic</text>
<polyline fill="none" stroke="black" points="108,-485.5 257,-485.5 "/>
<text text-anchor="start" x="116" y="-473.5" font-family="Helvetica,sans-Serif" font-size="10.00">+ MRBC_OBJECT_HEADER</text>
<polyline fill="none" stroke="black" points="108,-466.5 257,-466.5 "/>
<text text-anchor="middle" x="182.5" y="-454.5" font-family="Helvetica,sans-Serif" font-size="10.00"> </text>
</a>
</g>
</g>
<!-- Node2&#45;&gt;Node1 -->
<g id="edge1" class="edge">
<title>Node2&#45;&gt;Node1</title>
<path fill="none" stroke="midnightblue" d="M161.31,-438.6C144.66,-410.02 121.84,-370.82 106.65,-344.74"/>
<polygon fill="none" stroke="midnightblue" points="158.42,-440.6 166.47,-447.48 164.47,-437.08 158.42,-440.6"/>
</g>
<!-- Node2&#45;&gt;Node5 -->
<g id="edge6" class="edge">
<title>Node2&#45;&gt;Node5</title>
<path fill="none" stroke="#404040" d="M184.03,-447.16C185.65,-405.43 186.11,-324.49 170.5,-258 169.97,-255.74 169.39,-253.45 168.78,-251.15"/>
<polygon fill="none" stroke="#404040" points="168.77,-251.12 163.27,-246.46 165.45,-239.59 170.96,-244.25 168.77,-251.12"/>
<text text-anchor="middle" x="193.5" y="-313.5" font-family="Helvetica,sans-Serif" font-size="10.00"> +obj</text>
</g>
<!-- Node3 -->
<g id="node3" class="node">
<title>Node3</title>
<g id="a_node3"><a xlink:href="struct_c_a_l_l_i_n_f_o.html" target="_top" xlink:title="Call information.">
<polygon fill="white" stroke="red" points="0,-0.5 0,-101.5 93,-101.5 93,-0.5 0,-0.5"/>
<text text-anchor="middle" x="46.5" y="-89.5" font-family="Helvetica,sans-Serif" font-size="10.00">CALLINFO</text>
<polyline fill="none" stroke="red" points="0,-82.5 93,-82.5 "/>
<text text-anchor="start" x="8" y="-70.5" font-family="Helvetica,sans-Serif" font-size="10.00">+ inst</text>
<text text-anchor="start" x="8" y="-59.5" font-family="Helvetica,sans-Serif" font-size="10.00">+ method_id</text>
<text text-anchor="start" x="8" y="-48.5" font-family="Helvetica,sans-Serif" font-size="10.00">+ reg_offset</text>
<text text-anchor="start" x="8" y="-37.5" font-family="Helvetica,sans-Serif" font-size="10.00">+ n_args</text>
<text text-anchor="start" x="8" y="-26.5" font-family="Helvetica,sans-Serif" font-size="10.00">+ is_called_super</text>
<polyline fill="none" stroke="red" points="0,-19.5 93,-19.5 "/>
<text text-anchor="middle" x="46.5" y="-7.5" font-family="Helvetica,sans-Serif" font-size="10.00"> </text>
</a>
</g>
</g>
<!-- Node3&#45;&gt;Node1 -->
<g id="edge2" class="edge">
<title>Node3&#45;&gt;Node1</title>
<path fill="none" stroke="#404040" d="M43.69,-101.84C42.77,-140.17 44.17,-194.16 55.5,-240 58.55,-252.35 63.67,-265.12 69.07,-276.55"/>
<polygon fill="none" stroke="#404040" points="69.16,-276.72 75.41,-280.31 74.5,-287.46 68.25,-283.87 69.16,-276.72"/>
<text text-anchor="middle" x="84.5" y="-197.5" font-family="Helvetica,sans-Serif" font-size="10.00"> +callinfo</text>
<text text-anchor="middle" x="84.5" y="-186.5" font-family="Helvetica,sans-Serif" font-size="10.00">+callinfo_self</text>
</g>
<!-- Node3&#45;&gt;Node3 -->
<g id="edge3" class="edge">
<title>Node3&#45;&gt;Node3</title>
<path fill="none" stroke="#404040" d="M93.17,-64.5C103.49,-63.23 111,-58.73 111,-51 111,-46.65 108.62,-43.32 104.71,-41.02"/>
<polygon fill="none" stroke="#404040" points="104.65,-41 97.74,-43.08 93.17,-37.5 100.08,-35.42 104.65,-41"/>
<text text-anchor="middle" x="125" y="-48.5" font-family="Helvetica,sans-Serif" font-size="10.00"> +prev</text>
</g>
<!-- Node4 -->
<g id="node4" class="node">
<title>Node4</title>
<g id="a_node4"><a xlink:href="struct_i_r_e_p.html" target="_top" xlink:title="IREP Internal REPresentation.">
<polygon fill="white" stroke="black" points="6,-392.5 6,-559.5 71,-559.5 71,-392.5 6,-392.5"/>
<text text-anchor="middle" x="38.5" y="-547.5" font-family="Helvetica,sans-Serif" font-size="10.00">IREP</text>
<polyline fill="none" stroke="black" points="6,-540.5 71,-540.5 "/>
<text text-anchor="start" x="14" y="-528.5" font-family="Helvetica,sans-Serif" font-size="10.00">+ nlocals</text>
<text text-anchor="start" x="14" y="-517.5" font-family="Helvetica,sans-Serif" font-size="10.00">+ nregs</text>
<text text-anchor="start" x="14" y="-506.5" font-family="Helvetica,sans-Serif" font-size="10.00">+ rlen</text>
<text text-anchor="start" x="14" y="-495.5" font-family="Helvetica,sans-Serif" font-size="10.00">+ clen</text>
<text text-anchor="start" x="14" y="-484.5" font-family="Helvetica,sans-Serif" font-size="10.00">+ ilen</text>
<text text-anchor="start" x="14" y="-473.5" font-family="Helvetica,sans-Serif" font-size="10.00">+ plen</text>
<text text-anchor="start" x="14" y="-462.5" font-family="Helvetica,sans-Serif" font-size="10.00">+ slen</text>
<text text-anchor="start" x="14" y="-451.5" font-family="Helvetica,sans-Serif" font-size="10.00">+ ofs_ireps</text>
<text text-anchor="start" x="14" y="-440.5" font-family="Helvetica,sans-Serif" font-size="10.00">+ inst</text>
<text text-anchor="start" x="14" y="-429.5" font-family="Helvetica,sans-Serif" font-size="10.00">+ pool</text>
<text text-anchor="start" x="14" y="-418.5" font-family="Helvetica,sans-Serif" font-size="10.00">+ data</text>
<polyline fill="none" stroke="black" points="6,-411.5 71,-411.5 "/>
<text text-anchor="middle" x="38.5" y="-399.5" font-family="Helvetica,sans-Serif" font-size="10.00"> </text>
</a>
</g>
</g>
<!-- Node4&#45;&gt;Node1 -->
<g id="edge8" class="edge">
<title>Node4&#45;&gt;Node1</title>
<path fill="none" stroke="#404040" d="M65.72,-392.3C69.82,-379.82 73.89,-367.47 77.5,-356.49"/>
<polygon fill="none" stroke="#404040" points="77.62,-356.13 75.7,-349.19 81.37,-344.74 83.3,-351.69 77.62,-356.13"/>
<text text-anchor="middle" x="87" y="-366" font-family="Helvetica,sans-Serif" font-size="10.00"> +irep</text>
</g>
<!-- Node4&#45;&gt;Node3 -->
<g id="edge4" class="edge">
<title>Node4&#45;&gt;Node3</title>
<path fill="none" stroke="#404040" d="M14.99,-392.33C11.46,-376.73 8.37,-360.46 6.5,-345 -3.21,-264.89 14.08,-172.71 28.88,-113.47"/>
<polygon fill="none" stroke="#404040" points="28.91,-113.34 26.52,-106.53 31.89,-101.71 34.27,-108.52 28.91,-113.34"/>
<text text-anchor="middle" x="27.5" y="-261" font-family="Helvetica,sans-Serif" font-size="10.00"> +cur_irep</text>
</g>
<!-- Node5&#45;&gt;Node1 -->
<g id="edge9" class="edge">
<title>Node5&#45;&gt;Node1</title>
<path fill="none" stroke="#404040" d="M136.22,-239.5C132.6,-249.43 128.32,-259.76 123.5,-269 122.11,-271.67 120.57,-274.36 118.96,-277.02"/>
<polygon fill="none" stroke="#404040" points="118.95,-277.04 119.03,-284.25 112.4,-287.1 112.32,-279.89 118.95,-277.04"/>
<text text-anchor="middle" x="147" y="-261" font-family="Helvetica,sans-Serif" font-size="10.00"> +ret_val</text>
</g>
<!-- Node5&#45;&gt;Node3 -->
<g id="edge5" class="edge">
<title>Node5&#45;&gt;Node3</title>
<path fill="none" stroke="#404040" d="M122.44,-156.32C112.46,-142.62 100.9,-126.73 89.84,-111.55"/>
<polygon fill="none" stroke="#404040" points="89.74,-111.4 82.98,-108.91 82.68,-101.7 89.44,-104.2 89.74,-111.4"/>
<text text-anchor="middle" x="124" y="-123" font-family="Helvetica,sans-Serif" font-size="10.00"> +cur_regs</text>
</g>
</g>
</svg>
