<?xml version="1.0" encoding="UTF-8" standalone="no"?>
<!DOCTYPE svg PUBLIC "-//W3C//DTD SVG 1.1//EN"
 "http://www.w3.org/Graphics/SVG/1.1/DTD/svg11.dtd">
<!-- Generated by graphviz version 3.0.0 (20220226.1711)
 -->
<!-- Title: RTcb Pages: 1 -->
<svg width="164pt" height="408pt"
 viewBox="0.00 0.00 163.50 408.00" xmlns="http://www.w3.org/2000/svg" xmlns:xlink="http://www.w3.org/1999/xlink">
<g id="graph0" class="graph" transform="scale(1 1) rotate(0) translate(4 404)">
<title>RTcb</title>
<polygon fill="white" stroke="transparent" points="-4,4 -4,-404 159.5,-404 159.5,4 -4,4"/>
<!-- Node1 -->
<g id="node1" class="node">
<title>Node1</title>
<g id="a_node1"><a xlink:title="Task control block.">
<polygon fill="#bfbfbf" stroke="black" points="1.5,-105.5 1.5,-228.5 109.5,-228.5 109.5,-105.5 1.5,-105.5"/>
<text text-anchor="middle" x="55.5" y="-216.5" font-family="Helvetica,sans-Serif" font-size="10.00">RTcb</text>
<polyline fill="none" stroke="black" points="1.5,-209.5 109.5,-209.5 "/>
<text text-anchor="start" x="9.5" y="-197.5" font-family="Helvetica,sans-Serif" font-size="10.00">+ priority</text>
<text text-anchor="start" x="9.5" y="-186.5" font-family="Helvetica,sans-Serif" font-size="10.00">+ priority_preemption</text>
<text text-anchor="start" x="9.5" y="-175.5" font-family="Helvetica,sans-Serif" font-size="10.00">+ timeslice</text>
<text text-anchor="start" x="9.5" y="-164.5" font-family="Helvetica,sans-Serif" font-size="10.00">+ state</text>
<text text-anchor="start" x="9.5" y="-153.5" font-family="Helvetica,sans-Serif" font-size="10.00">+ reason</text>
<text text-anchor="start" x="9.5" y="-142.5" font-family="Helvetica,sans-Serif" font-size="10.00">+ wakeup_tick</text>
<text text-anchor="start" x="9.5" y="-131.5" font-family="Helvetica,sans-Serif" font-size="10.00">+ @7</text>
<polyline fill="none" stroke="black" points="1.5,-124.5 109.5,-124.5 "/>
<text text-anchor="middle" x="55.5" y="-112.5" font-family="Helvetica,sans-Serif" font-size="10.00"> </text>
</a>
</g>
</g>
<!-- Node1&#45;&gt;Node1 -->
<g id="edge1" class="edge">
<title>Node1&#45;&gt;Node1</title>
<path fill="none" stroke="#404040" d="M109.51,-182.05C120.03,-180.3 127.5,-175.29 127.5,-167 127.5,-162.21 125,-158.51 120.86,-155.91"/>
<polygon fill="none" stroke="#404040" points="120.84,-155.9 113.86,-157.7 109.51,-151.95 116.49,-150.15 120.84,-155.9"/>
<text text-anchor="middle" x="141.5" y="-164.5" font-family="Helvetica,sans-Serif" font-size="10.00"> +next</text>
</g>
<!-- Node2 -->
<g id="node2" class="node">
<title>Node2</title>
<g id="a_node2"><a xlink:href="struct_r_mutex.html" target="_top" xlink:title="Mutex.">
<polygon fill="white" stroke="black" points="30,-0.5 30,-57.5 81,-57.5 81,-0.5 30,-0.5"/>
<text text-anchor="middle" x="55.5" y="-45.5" font-family="Helvetica,sans-Serif" font-size="10.00">RMutex</text>
<polyline fill="none" stroke="black" points="30,-38.5 81,-38.5 "/>
<text text-anchor="start" x="38" y="-26.5" font-family="Helvetica,sans-Serif" font-size="10.00">+ lock</text>
<polyline fill="none" stroke="black" points="30,-19.5 81,-19.5 "/>
<text text-anchor="middle" x="55.5" y="-7.5" font-family="Helvetica,sans-Serif" font-size="10.00"> </text>
</a>
</g>
</g>
<!-- Node1&#45;&gt;Node2 -->
<g id="edge3" class="edge">
<title>Node1&#45;&gt;Node2</title>
<path fill="none" stroke="#404040" d="M28.75,-105.11C27.13,-95.39 27.02,-85.44 29.5,-76 30.14,-73.57 30.94,-71.14 31.85,-68.73"/>
<polygon fill="none" stroke="#404040" points="31.89,-68.65 30.73,-61.53 36.86,-57.73 38.01,-64.85 31.89,-68.65"/>
<text text-anchor="middle" x="41" y="-79" font-family="Helvetica,sans-Serif" font-size="10.00"> +tcb</text>
</g>
<!-- Node2&#45;&gt;Node1 -->
<g id="edge2" class="edge">
<title>Node2&#45;&gt;Node1</title>
<path fill="none" stroke="#404040" d="M56.2,-57.73C56.33,-63.75 56.44,-70.09 56.5,-76 56.56,-81.66 56.59,-87.52 56.58,-93.41"/>
<polygon fill="none" stroke="#404040" points="56.58,-93.49 60.56,-99.5 56.54,-105.49 52.56,-99.47 56.58,-93.49"/>
<text text-anchor="middle" x="75" y="-79" font-family="Helvetica,sans-Serif" font-size="10.00"> +mutex</text>
</g>
<!-- Node3 -->
<g id="node3" class="node">
<title>Node3</title>
<g id="a_node3"><a xlink:href="struct_v_m.html" target="_top" xlink:title="Virtual Machine.">
<polygon fill="white" stroke="red" points="0,-276.5 0,-399.5 111,-399.5 111,-276.5 0,-276.5"/>
<text text-anchor="middle" x="55.5" y="-387.5" font-family="Helvetica,sans-Serif" font-size="10.00">VM</text>
<polyline fill="none" stroke="red" points="0,-380.5 111,-380.5 "/>
<text text-anchor="start" x="8" y="-368.5" font-family="Helvetica,sans-Serif" font-size="10.00">+ vm_id</text>
<text text-anchor="start" x="8" y="-357.5" font-family="Helvetica,sans-Serif" font-size="10.00">+ flag_preemption</text>
<text text-anchor="start" x="8" y="-346.5" font-family="Helvetica,sans-Serif" font-size="10.00">+ flag_need_memfree</text>
<text text-anchor="start" x="8" y="-335.5" font-family="Helvetica,sans-Serif" font-size="10.00">+ flag_stop</text>
<text text-anchor="start" x="8" y="-324.5" font-family="Helvetica,sans-Serif" font-size="10.00">+ flag_permanence</text>
<text text-anchor="start" x="8" y="-313.5" font-family="Helvetica,sans-Serif" font-size="10.00">+ regs_size</text>
<text text-anchor="start" x="8" y="-302.5" font-family="Helvetica,sans-Serif" font-size="10.00">+ inst</text>
<polyline fill="none" stroke="red" points="0,-295.5 111,-295.5 "/>
<text text-anchor="middle" x="55.5" y="-283.5" font-family="Helvetica,sans-Serif" font-size="10.00"> </text>
</a>
</g>
</g>
<!-- Node3&#45;&gt;Node1 -->
<g id="edge4" class="edge">
<title>Node3&#45;&gt;Node1</title>
<path fill="none" stroke="#404040" d="M55.5,-276.46C55.5,-264.94 55.5,-252.76 55.5,-240.89"/>
<polygon fill="none" stroke="#404040" points="55.5,-240.68 51.5,-234.68 55.5,-228.68 59.5,-234.68 55.5,-240.68"/>
<text text-anchor="middle" x="67" y="-250" font-family="Helvetica,sans-Serif" font-size="10.00"> +vm</text>
</g>
</g>
</svg>
