<?xml version="1.0" encoding="UTF-8" standalone="no"?>
<!DOCTYPE svg PUBLIC "-//W3C//DTD SVG 1.1//EN"
 "http://www.w3.org/Graphics/SVG/1.1/DTD/svg11.dtd">
<!-- Generated by graphviz version 3.0.0 (20220226.1711)
 -->
<!-- Title: CALLINFO Pages: 1 -->
<svg width="242pt" height="441pt"
 viewBox="0.00 0.00 241.50 441.00" xmlns="http://www.w3.org/2000/svg" xmlns:xlink="http://www.w3.org/1999/xlink">
<g id="graph0" class="graph" transform="scale(1 1) rotate(0) translate(4 437)">
<title>CALLINFO</title>
<polygon fill="white" stroke="transparent" points="-4,4 -4,-437 237.5,-437 237.5,4 -4,4"/>
<!-- Node1 -->
<g id="node1" class="node">
<title>Node1</title>
<g id="a_node1"><a xlink:title="Call information.">
<polygon fill="#bfbfbf" stroke="black" points="55,-0.5 55,-101.5 148,-101.5 148,-0.5 55,-0.5"/>
<text text-anchor="middle" x="101.5" y="-89.5" font-family="Helvetica,sans-Serif" font-size="10.00">CALLINFO</text>
<polyline fill="none" stroke="black" points="55,-82.5 148,-82.5 "/>
<text text-anchor="start" x="63" y="-70.5" font-family="Helvetica,sans-Serif" font-size="10.00">+ inst</text>
<text text-anchor="start" x="63" y="-59.5" font-family="Helvetica,sans-Serif" font-size="10.00">+ method_id</text>
<text text-anchor="start" x="63" y="-48.5" font-family="Helvetica,sans-Serif" font-size="10.00">+ reg_offset</text>
<text text-anchor="start" x="63" y="-37.5" font-family="Helvetica,sans-Serif" font-size="10.00">+ n_args</text>
<text text-anchor="start" x="63" y="-26.5" font-family="Helvetica,sans-Serif" font-size="10.00">+ is_called_super</text>
<polyline fill="none" stroke="black" points="55,-19.5 148,-19.5 "/>
<text text-anchor="middle" x="101.5" y="-7.5" font-family="Helvetica,sans-Serif" font-size="10.00"> </text>
</a>
</g>
</g>
<!-- Node1&#45;&gt;Node1 -->
<g id="edge1" class="edge">
<title>Node1&#45;&gt;Node1</title>
<path fill="none" stroke="#404040" d="M148.17,-64.5C158.49,-63.23 166,-58.73 166,-51 166,-46.65 163.62,-43.32 159.71,-41.02"/>
<polygon fill="none" stroke="#404040" points="159.65,-41 152.74,-43.08 148.17,-37.5 155.08,-35.42 159.65,-41"/>
<text text-anchor="middle" x="180" y="-48.5" font-family="Helvetica,sans-Serif" font-size="10.00"> +prev</text>
</g>
<!-- Node2 -->
<g id="node2" class="node">
<title>Node2</title>
<g id="a_node2"><a xlink:href="struct_i_r_e_p.html" target="_top" xlink:title="IREP Internal REPresentation.">
<polygon fill="white" stroke="black" points="0,-149.5 0,-316.5 65,-316.5 65,-149.5 0,-149.5"/>
<text text-anchor="middle" x="32.5" y="-304.5" font-family="Helvetica,sans-Serif" font-size="10.00">IREP</text>
<polyline fill="none" stroke="black" points="0,-297.5 65,-297.5 "/>
<text text-anchor="start" x="8" y="-285.5" font-family="Helvetica,sans-Serif" font-size="10.00">+ nlocals</text>
<text text-anchor="start" x="8" y="-274.5" font-family="Helvetica,sans-Serif" font-size="10.00">+ nregs</text>
<text text-anchor="start" x="8" y="-263.5" font-family="Helvetica,sans-Serif" font-size="10.00">+ rlen</text>
<text text-anchor="start" x="8" y="-252.5" font-family="Helvetica,sans-Serif" font-size="10.00">+ clen</text>
<text text-anchor="start" x="8" y="-241.5" font-family="Helvetica,sans-Serif" font-size="10.00">+ ilen</text>
<text text-anchor="start" x="8" y="-230.5" font-family="Helvetica,sans-Serif" font-size="10.00">+ plen</text>
<text text-anchor="start" x="8" y="-219.5" font-family="Helvetica,sans-Serif" font-size="10.00">+ slen</text>
<text text-anchor="start" x="8" y="-208.5" font-family="Helvetica,sans-Serif" font-size="10.00">+ ofs_ireps</text>
<text text-anchor="start" x="8" y="-197.5" font-family="Helvetica,sans-Serif" font-size="10.00">+ inst</text>
<text text-anchor="start" x="8" y="-186.5" font-family="Helvetica,sans-Serif" font-size="10.00">+ pool</text>
<text text-anchor="start" x="8" y="-175.5" font-family="Helvetica,sans-Serif" font-size="10.00">+ data</text>
<polyline fill="none" stroke="black" points="0,-168.5 65,-168.5 "/>
<text text-anchor="middle" x="32.5" y="-156.5" font-family="Helvetica,sans-Serif" font-size="10.00"> </text>
</a>
</g>
</g>
<!-- Node2&#45;&gt;Node1 -->
<g id="edge2" class="edge">
<title>Node2&#45;&gt;Node1</title>
<path fill="none" stroke="#404040" d="M34.86,-149.2C36.82,-139.13 39.6,-129.17 43.5,-120 44.94,-116.61 46.61,-113.27 48.46,-109.99"/>
<polygon fill="none" stroke="#404040" points="48.51,-109.91 48.32,-102.7 54.9,-99.76 55.09,-106.96 48.51,-109.91"/>
<text text-anchor="middle" x="65.5" y="-123" font-family="Helvetica,sans-Serif" font-size="10.00"> +cur_irep</text>
</g>
<!-- Node3 -->
<g id="node3" class="node">
<title>Node3</title>
<g id="a_node3"><a xlink:href="struct_r_object.html" target="_top" xlink:title="Value object.">
<polygon fill="white" stroke="red" points="179.5,-188 179.5,-278 233.5,-278 233.5,-188 179.5,-188"/>
<text text-anchor="middle" x="206.5" y="-266" font-family="Helvetica,sans-Serif" font-size="10.00">RObject</text>
<polyline fill="none" stroke="red" points="179.5,-259 233.5,-259 "/>
<text text-anchor="start" x="187.5" y="-247" font-family="Helvetica,sans-Serif" font-size="10.00">+ tt</text>
<text text-anchor="start" x="187.5" y="-236" font-family="Helvetica,sans-Serif" font-size="10.00">+ i</text>
<text text-anchor="start" x="187.5" y="-225" font-family="Helvetica,sans-Serif" font-size="10.00">+ handle</text>
<text text-anchor="start" x="187.5" y="-214" font-family="Helvetica,sans-Serif" font-size="10.00">+ @9</text>
<polyline fill="none" stroke="red" points="179.5,-207 233.5,-207 "/>
<text text-anchor="middle" x="206.5" y="-195" font-family="Helvetica,sans-Serif" font-size="10.00"> </text>
</a>
</g>
</g>
<!-- Node3&#45;&gt;Node1 -->
<g id="edge3" class="edge">
<title>Node3&#45;&gt;Node1</title>
<path fill="none" stroke="#404040" d="M186.01,-187.96C179.74,-175.22 172.62,-161.41 165.5,-149 158.44,-136.7 150.43,-123.83 142.52,-111.65"/>
<polygon fill="none" stroke="#404040" points="142.51,-111.63 135.88,-108.81 135.93,-101.6 142.57,-104.42 142.51,-111.63"/>
<text text-anchor="middle" x="178" y="-123" font-family="Helvetica,sans-Serif" font-size="10.00"> +cur_regs</text>
</g>
<!-- Node5 -->
<g id="node4" class="node">
<title>Node5</title>
<g id="a_node4"><a xlink:href="struct_r_class.html" target="_top" xlink:title="Class object.">
<polygon fill="white" stroke="red" points="61,-364.5 61,-432.5 174,-432.5 174,-364.5 61,-364.5"/>
<text text-anchor="middle" x="117.5" y="-420.5" font-family="Helvetica,sans-Serif" font-size="10.00">RClass</text>
<polyline fill="none" stroke="red" points="61,-413.5 174,-413.5 "/>
<text text-anchor="start" x="69" y="-401.5" font-family="Helvetica,sans-Serif" font-size="10.00">+ sym_id</text>
<text text-anchor="start" x="69" y="-390.5" font-family="Helvetica,sans-Serif" font-size="10.00">+ num_builtin_method</text>
<polyline fill="none" stroke="red" points="61,-383.5 174,-383.5 "/>
<text text-anchor="middle" x="117.5" y="-371.5" font-family="Helvetica,sans-Serif" font-size="10.00"> </text>
</a>
</g>
</g>
<!-- Node5&#45;&gt;Node1 -->
<g id="edge6" class="edge">
<title>Node5&#45;&gt;Node1</title>
<path fill="none" stroke="#404040" d="M114.21,-364.24C112.88,-349.74 111.44,-332.54 110.5,-317 106.3,-247.51 103.92,-167.65 102.68,-113.92"/>
<polygon fill="none" stroke="#404040" points="102.68,-113.85 98.54,-107.94 102.41,-101.86 106.54,-107.76 102.68,-113.85"/>
<text text-anchor="middle" x="140.5" y="-236" font-family="Helvetica,sans-Serif" font-size="10.00"> +own_class</text>
<text text-anchor="middle" x="140.5" y="-225" font-family="Helvetica,sans-Serif" font-size="10.00">+target_class</text>
</g>
<!-- Node5&#45;&gt;Node3 -->
<g id="edge4" class="edge">
<title>Node5&#45;&gt;Node3</title>
<path fill="none" stroke="#404040" d="M138.18,-364.16C146.88,-349.8 156.95,-332.72 165.5,-317 170.36,-308.07 175.32,-298.49 180.03,-289.12"/>
<polygon fill="none" stroke="#404040" points="180.09,-289.01 179.18,-281.86 185.44,-278.27 186.34,-285.42 180.09,-289.01"/>
<text text-anchor="middle" x="165.5" y="-338" font-family="Helvetica,sans-Serif" font-size="10.00"> +cls</text>
</g>
<!-- Node5&#45;&gt;Node5 -->
<g id="edge5" class="edge">
<title>Node5&#45;&gt;Node5</title>
<path fill="none" stroke="#404040" d="M174.03,-408.82C184.57,-407.55 192,-404.11 192,-398.5 192,-395.35 189.65,-392.88 185.72,-391.1"/>
<polygon fill="none" stroke="#404040" points="185.67,-391.08 178.88,-393.52 174.03,-388.18 180.81,-385.75 185.67,-391.08"/>
<text text-anchor="middle" x="209" y="-396" font-family="Helvetica,sans-Serif" font-size="10.00"> +super</text>
</g>
</g>
</svg>
