<?xml version="1.0" encoding="UTF-8" standalone="no"?>
<!DOCTYPE svg PUBLIC "-//W3C//DTD SVG 1.1//EN"
 "http://www.w3.org/Graphics/SVG/1.1/DTD/svg11.dtd">
<!-- Generated by graphviz version 3.0.0 (20220226.1711)
 -->
<!-- Title: RKeyValue Pages: 1 -->
<svg width="74pt" height="204pt"
 viewBox="0.00 0.00 73.50 204.00" xmlns="http://www.w3.org/2000/svg" xmlns:xlink="http://www.w3.org/1999/xlink">
<g id="graph0" class="graph" transform="scale(1 1) rotate(0) translate(4 200)">
<title>RKeyValue</title>
<polygon fill="white" stroke="transparent" points="-4,4 -4,-200 69.5,-200 69.5,4 -4,4"/>
<!-- Node1 -->
<g id="node1" class="node">
<title>Node1</title>
<g id="a_node1"><a xlink:title="Key&#45;Value data.">
<polygon fill="#bfbfbf" stroke="black" points="0,-0.5 0,-57.5 65,-57.5 65,-0.5 0,-0.5"/>
<text text-anchor="middle" x="32.5" y="-45.5" font-family="Helvetica,sans-Serif" font-size="10.00">RKeyValue</text>
<polyline fill="none" stroke="black" points="0,-38.5 65,-38.5 "/>
<text text-anchor="start" x="8" y="-26.5" font-family="Helvetica,sans-Serif" font-size="10.00">+ sym_id</text>
<polyline fill="none" stroke="black" points="0,-19.5 65,-19.5 "/>
<text text-anchor="middle" x="32.5" y="-7.5" font-family="Helvetica,sans-Serif" font-size="10.00"> </text>
</a>
</g>
</g>
<!-- Node2 -->
<g id="node2" class="node">
<title>Node2</title>
<g id="a_node2"><a xlink:href="struct_r_object.html" target="_top" xlink:title="Value object.">
<polygon fill="white" stroke="red" points="5.5,-105.5 5.5,-195.5 59.5,-195.5 59.5,-105.5 5.5,-105.5"/>
<text text-anchor="middle" x="32.5" y="-183.5" font-family="Helvetica,sans-Serif" font-size="10.00">RObject</text>
<polyline fill="none" stroke="red" points="5.5,-176.5 59.5,-176.5 "/>
<text text-anchor="start" x="13.5" y="-164.5" font-family="Helvetica,sans-Serif" font-size="10.00">+ tt</text>
<text text-anchor="start" x="13.5" y="-153.5" font-family="Helvetica,sans-Serif" font-size="10.00">+ i</text>
<text text-anchor="start" x="13.5" y="-142.5" font-family="Helvetica,sans-Serif" font-size="10.00">+ handle</text>
<text text-anchor="start" x="13.5" y="-131.5" font-family="Helvetica,sans-Serif" font-size="10.00">+ @9</text>
<polyline fill="none" stroke="red" points="5.5,-124.5 59.5,-124.5 "/>
<text text-anchor="middle" x="32.5" y="-112.5" font-family="Helvetica,sans-Serif" font-size="10.00"> </text>
</a>
</g>
</g>
<!-- Node2&#45;&gt;Node1 -->
<g id="edge1" class="edge">
<title>Node2&#45;&gt;Node1</title>
<path fill="none" stroke="#404040" d="M32.5,-105.34C32.5,-93.75 32.5,-81.31 32.5,-69.95"/>
<polygon fill="none" stroke="#404040" points="32.5,-69.69 28.5,-63.69 32.5,-57.69 36.5,-63.69 32.5,-69.69"/>
<text text-anchor="middle" x="49" y="-79" font-family="Helvetica,sans-Serif" font-size="10.00"> +value</text>
</g>
</g>
</svg>
