<?xml version="1.0" encoding="UTF-8" standalone="no"?>
<!DOCTYPE svg PUBLIC "-//W3C//DTD SVG 1.1//EN"
 "http://www.w3.org/Graphics/SVG/1.1/DTD/svg11.dtd">
<!-- Generated by graphviz version 3.0.0 (20220226.1711)
 -->
<!-- Title: RHashIterator Pages: 1 -->
<svg width="157pt" height="342pt"
 viewBox="0.00 0.00 157.00 342.00" xmlns="http://www.w3.org/2000/svg" xmlns:xlink="http://www.w3.org/1999/xlink">
<g id="graph0" class="graph" transform="scale(1 1) rotate(0) translate(4 338)">
<title>RHashIterator</title>
<polygon fill="white" stroke="transparent" points="-4,4 -4,-338 153,-338 153,4 -4,4"/>
<!-- Node1 -->
<g id="node1" class="node">
<title>Node1</title>
<g id="a_node1"><a xlink:title="Define Hash iterator.">
<polygon fill="#bfbfbf" stroke="black" points="18.5,-0.5 18.5,-57.5 96.5,-57.5 96.5,-0.5 18.5,-0.5"/>
<text text-anchor="middle" x="57.5" y="-45.5" font-family="Helvetica,sans-Serif" font-size="10.00">RHashIterator</text>
<polyline fill="none" stroke="black" points="18.5,-38.5 96.5,-38.5 "/>
<text text-anchor="middle" x="57.5" y="-26.5" font-family="Helvetica,sans-Serif" font-size="10.00"> </text>
<polyline fill="none" stroke="black" points="18.5,-19.5 96.5,-19.5 "/>
<text text-anchor="middle" x="57.5" y="-7.5" font-family="Helvetica,sans-Serif" font-size="10.00"> </text>
</a>
</g>
</g>
<!-- Node2 -->
<g id="node2" class="node">
<title>Node2</title>
<g id="a_node2"><a xlink:href="struct_r_hash.html" target="_top" xlink:title="Hash object.">
<polygon fill="white" stroke="red" points="0,-254.5 0,-333.5 149,-333.5 149,-254.5 0,-254.5"/>
<text text-anchor="middle" x="74.5" y="-321.5" font-family="Helvetica,sans-Serif" font-size="10.00">RHash</text>
<polyline fill="none" stroke="red" points="0,-314.5 149,-314.5 "/>
<text text-anchor="start" x="8" y="-302.5" font-family="Helvetica,sans-Serif" font-size="10.00">+ MRBC_OBJECT_HEADER</text>
<text text-anchor="start" x="8" y="-291.5" font-family="Helvetica,sans-Serif" font-size="10.00">+ data_size</text>
<text text-anchor="start" x="8" y="-280.5" font-family="Helvetica,sans-Serif" font-size="10.00">+ n_stored</text>
<polyline fill="none" stroke="red" points="0,-273.5 149,-273.5 "/>
<text text-anchor="middle" x="74.5" y="-261.5" font-family="Helvetica,sans-Serif" font-size="10.00"> </text>
</a>
</g>
</g>
<!-- Node2&#45;&gt;Node1 -->
<g id="edge1" class="edge">
<title>Node2&#45;&gt;Node1</title>
<path fill="none" stroke="#404040" d="M61.22,-254.08C56.89,-239.5 52.64,-222.66 50.5,-207 44.08,-160.12 47.91,-105.66 51.98,-69.66"/>
<polygon fill="none" stroke="#404040" points="51.98,-69.65 48.73,-63.22 53.42,-57.74 56.67,-64.17 51.98,-69.65"/>
<text text-anchor="middle" x="67.5" y="-159" font-family="Helvetica,sans-Serif" font-size="10.00"> +target</text>
</g>
<!-- Node4 -->
<g id="node3" class="node">
<title>Node4</title>
<g id="a_node3"><a xlink:href="struct_r_object.html" target="_top" xlink:title="Value object.">
<polygon fill="white" stroke="red" points="93.5,-116.5 93.5,-206.5 147.5,-206.5 147.5,-116.5 93.5,-116.5"/>
<text text-anchor="middle" x="120.5" y="-194.5" font-family="Helvetica,sans-Serif" font-size="10.00">RObject</text>
<polyline fill="none" stroke="red" points="93.5,-187.5 147.5,-187.5 "/>
<text text-anchor="start" x="101.5" y="-175.5" font-family="Helvetica,sans-Serif" font-size="10.00">+ tt</text>
<text text-anchor="start" x="101.5" y="-164.5" font-family="Helvetica,sans-Serif" font-size="10.00">+ i</text>
<text text-anchor="start" x="101.5" y="-153.5" font-family="Helvetica,sans-Serif" font-size="10.00">+ handle</text>
<text text-anchor="start" x="101.5" y="-142.5" font-family="Helvetica,sans-Serif" font-size="10.00">+ @9</text>
<polyline fill="none" stroke="red" points="93.5,-135.5 147.5,-135.5 "/>
<text text-anchor="middle" x="120.5" y="-123.5" font-family="Helvetica,sans-Serif" font-size="10.00"> </text>
</a>
</g>
</g>
<!-- Node2&#45;&gt;Node4 -->
<g id="edge3" class="edge">
<title>Node2&#45;&gt;Node4</title>
<path fill="none" stroke="#404040" d="M67.84,-254.16C67.51,-244.43 68.34,-234.16 71.5,-225 74.73,-215.64 80,-206.62 85.92,-198.47"/>
<polygon fill="none" stroke="#404040" points="85.94,-198.45 86.51,-191.26 93.36,-189.01 92.8,-196.2 85.94,-198.45"/>
<text text-anchor="middle" x="87" y="-228" font-family="Helvetica,sans-Serif" font-size="10.00"> +hash</text>
</g>
<!-- Node4&#45;&gt;Node1 -->
<g id="edge4" class="edge">
<title>Node4&#45;&gt;Node1</title>
<path fill="none" stroke="#404040" d="M99.17,-116.32C91.72,-100.88 83.41,-83.68 76.19,-68.72"/>
<polygon fill="none" stroke="#404040" points="76.13,-68.59 69.92,-64.93 70.91,-57.79 77.12,-61.45 76.13,-68.59"/>
<text text-anchor="middle" x="106.5" y="-90" font-family="Helvetica,sans-Serif" font-size="10.00"> +p_end</text>
<text text-anchor="middle" x="106.5" y="-79" font-family="Helvetica,sans-Serif" font-size="10.00">+point</text>
</g>
<!-- Node4&#45;&gt;Node2 -->
<g id="edge2" class="edge">
<title>Node4&#45;&gt;Node2</title>
<path fill="none" stroke="#404040" d="M114.49,-206.66C112.49,-216.48 109.88,-226.73 106.5,-236 105.63,-238.37 104.68,-240.77 103.65,-243.15"/>
<polygon fill="none" stroke="#404040" points="103.54,-243.38 104.6,-250.51 98.43,-254.24 97.37,-247.1 103.54,-243.38"/>
<text text-anchor="middle" x="123.5" y="-228" font-family="Helvetica,sans-Serif" font-size="10.00"> +data</text>
</g>
</g>
</svg>
