<?xml version="1.0" encoding="UTF-8" standalone="no"?>
<!DOCTYPE svg PUBLIC "-//W3C//DTD SVG 1.1//EN"
 "http://www.w3.org/Graphics/SVG/1.1/DTD/svg11.dtd">
<!-- Generated by graphviz version 3.0.0 (20220226.1711)
 -->
<!-- Title: VM Pages: 1 -->
<svg width="499pt" height="750pt"
 viewBox="0.00 0.00 499.00 750.00" xmlns="http://www.w3.org/2000/svg" xmlns:xlink="http://www.w3.org/1999/xlink">
<g id="graph0" class="graph" transform="scale(1 1) rotate(0) translate(4 746)">
<title>VM</title>
<polygon fill="white" stroke="transparent" points="-4,4 -4,-746 495,-746 495,4 -4,4"/>
<!-- Node1 -->
<g id="node1" class="node">
<title>Node1</title>
<g id="a_node1"><a xlink:title="Virtual Machine.">
<polygon fill="#bfbfbf" stroke="black" points="70.5,-0.5 70.5,-123.5 181.5,-123.5 181.5,-0.5 70.5,-0.5"/>
<text text-anchor="middle" x="126" y="-111.5" font-family="Helvetica,sans-Serif" font-size="10.00">VM</text>
<polyline fill="none" stroke="black" points="70.5,-104.5 181.5,-104.5 "/>
<text text-anchor="start" x="78.5" y="-92.5" font-family="Helvetica,sans-Serif" font-size="10.00">+ vm_id</text>
<text text-anchor="start" x="78.5" y="-81.5" font-family="Helvetica,sans-Serif" font-size="10.00">+ flag_preemption</text>
<text text-anchor="start" x="78.5" y="-70.5" font-family="Helvetica,sans-Serif" font-size="10.00">+ flag_need_memfree</text>
<text text-anchor="start" x="78.5" y="-59.5" font-family="Helvetica,sans-Serif" font-size="10.00">+ flag_stop</text>
<text text-anchor="start" x="78.5" y="-48.5" font-family="Helvetica,sans-Serif" font-size="10.00">+ flag_permanence</text>
<text text-anchor="start" x="78.5" y="-37.5" font-family="Helvetica,sans-Serif" font-size="10.00">+ regs_size</text>
<text text-anchor="start" x="78.5" y="-26.5" font-family="Helvetica,sans-Serif" font-size="10.00">+ inst</text>
<polyline fill="none" stroke="black" points="70.5,-19.5 181.5,-19.5 "/>
<text text-anchor="middle" x="126" y="-7.5" font-family="Helvetica,sans-Serif" font-size="10.00"> </text>
</a>
</g>
</g>
<!-- Node2 -->
<g id="node2" class="node">
<title>Node2</title>
<g id="a_node2"><a xlink:href="struct_i_r_e_p.html" target="_top" xlink:title="IREP Internal REPresentation.">
<polygon fill="white" stroke="black" points="102.5,-574.5 102.5,-741.5 167.5,-741.5 167.5,-574.5 102.5,-574.5"/>
<text text-anchor="middle" x="135" y="-729.5" font-family="Helvetica,sans-Serif" font-size="10.00">IREP</text>
<polyline fill="none" stroke="black" points="102.5,-722.5 167.5,-722.5 "/>
<text text-anchor="start" x="110.5" y="-710.5" font-family="Helvetica,sans-Serif" font-size="10.00">+ nlocals</text>
<text text-anchor="start" x="110.5" y="-699.5" font-family="Helvetica,sans-Serif" font-size="10.00">+ nregs</text>
<text text-anchor="start" x="110.5" y="-688.5" font-family="Helvetica,sans-Serif" font-size="10.00">+ rlen</text>
<text text-anchor="start" x="110.5" y="-677.5" font-family="Helvetica,sans-Serif" font-size="10.00">+ clen</text>
<text text-anchor="start" x="110.5" y="-666.5" font-family="Helvetica,sans-Serif" font-size="10.00">+ ilen</text>
<text text-anchor="start" x="110.5" y="-655.5" font-family="Helvetica,sans-Serif" font-size="10.00">+ plen</text>
<text text-anchor="start" x="110.5" y="-644.5" font-family="Helvetica,sans-Serif" font-size="10.00">+ slen</text>
<text text-anchor="start" x="110.5" y="-633.5" font-family="Helvetica,sans-Serif" font-size="10.00">+ ofs_ireps</text>
<text text-anchor="start" x="110.5" y="-622.5" font-family="Helvetica,sans-Serif" font-size="10.00">+ inst</text>
<text text-anchor="start" x="110.5" y="-611.5" font-family="Helvetica,sans-Serif" font-size="10.00">+ pool</text>
<text text-anchor="start" x="110.5" y="-600.5" font-family="Helvetica,sans-Serif" font-size="10.00">+ data</text>
<polyline fill="none" stroke="black" points="102.5,-593.5 167.5,-593.5 "/>
<text text-anchor="middle" x="135" y="-581.5" font-family="Helvetica,sans-Serif" font-size="10.00"> </text>
</a>
</g>
</g>
<!-- Node2&#45;&gt;Node1 -->
<g id="edge1" class="edge">
<title>Node2&#45;&gt;Node1</title>
<path fill="none" stroke="#404040" d="M102.32,-637.14C62.37,-610.07 0,-557.55 0,-493.5 0,-493.5 0,-493.5 0,-221 0,-176.93 30.33,-138.07 61.23,-109.92"/>
<polygon fill="none" stroke="#404040" points="61.35,-109.82 63.22,-102.85 70.37,-101.9 68.5,-108.86 61.35,-109.82"/>
<text text-anchor="middle" x="22" y="-368.5" font-family="Helvetica,sans-Serif" font-size="10.00"> +cur_irep</text>
<text text-anchor="middle" x="22" y="-357.5" font-family="Helvetica,sans-Serif" font-size="10.00">+top_irep</text>
</g>
<!-- Node10 -->
<g id="node5" class="node">
<title>Node10</title>
<g id="a_node5"><a xlink:href="struct_r_proc.html" target="_top" xlink:title="Proc object.">
<polygon fill="white" stroke="red" points="60.5,-464 60.5,-521 209.5,-521 209.5,-464 60.5,-464"/>
<text text-anchor="middle" x="135" y="-509" font-family="Helvetica,sans-Serif" font-size="10.00">RProc</text>
<polyline fill="none" stroke="red" points="60.5,-502 209.5,-502 "/>
<text text-anchor="start" x="68.5" y="-490" font-family="Helvetica,sans-Serif" font-size="10.00">+ MRBC_OBJECT_HEADER</text>
<polyline fill="none" stroke="red" points="60.5,-483 209.5,-483 "/>
<text text-anchor="middle" x="135" y="-471" font-family="Helvetica,sans-Serif" font-size="10.00"> </text>
</a>
</g>
</g>
<!-- Node2&#45;&gt;Node10 -->
<g id="edge11" class="edge">
<title>Node2&#45;&gt;Node10</title>
<path fill="none" stroke="#404040" d="M135,-574.29C135,-560.07 135,-545.88 135,-533.45"/>
<polygon fill="none" stroke="#404040" points="135,-533.22 131,-527.22 135,-521.22 139,-527.22 135,-533.22"/>
<text text-anchor="middle" x="147.5" y="-548" font-family="Helvetica,sans-Serif" font-size="10.00"> +irep</text>
</g>
<!-- Node11 -->
<g id="node6" class="node">
<title>Node11</title>
<g id="a_node6"><a xlink:href="struct_c_a_l_l_i_n_f_o.html" target="_top" xlink:title="Call information.">
<polygon fill="white" stroke="black" points="193.5,-171.5 193.5,-272.5 286.5,-272.5 286.5,-171.5 193.5,-171.5"/>
<text text-anchor="middle" x="240" y="-260.5" font-family="Helvetica,sans-Serif" font-size="10.00">CALLINFO</text>
<polyline fill="none" stroke="black" points="193.5,-253.5 286.5,-253.5 "/>
<text text-anchor="start" x="201.5" y="-241.5" font-family="Helvetica,sans-Serif" font-size="10.00">+ inst</text>
<text text-anchor="start" x="201.5" y="-230.5" font-family="Helvetica,sans-Serif" font-size="10.00">+ method_id</text>
<text text-anchor="start" x="201.5" y="-219.5" font-family="Helvetica,sans-Serif" font-size="10.00">+ reg_offset</text>
<text text-anchor="start" x="201.5" y="-208.5" font-family="Helvetica,sans-Serif" font-size="10.00">+ n_args</text>
<text text-anchor="start" x="201.5" y="-197.5" font-family="Helvetica,sans-Serif" font-size="10.00">+ is_called_super</text>
<polyline fill="none" stroke="black" points="193.5,-190.5 286.5,-190.5 "/>
<text text-anchor="middle" x="240" y="-178.5" font-family="Helvetica,sans-Serif" font-size="10.00"> </text>
</a>
</g>
</g>
<!-- Node2&#45;&gt;Node11 -->
<g id="edge8" class="edge">
<title>Node2&#45;&gt;Node11</title>
<path fill="none" stroke="#404040" d="M167.59,-609.74C183.8,-585.46 203.25,-555.14 219,-527 242.6,-484.85 239.25,-469.22 266,-429 271.93,-420.09 278.2,-421 282,-411 297.62,-369.92 286.14,-321.48 271.26,-284.06"/>
<polygon fill="none" stroke="#404040" points="271.19,-283.89 265.18,-279.9 266.56,-272.82 272.57,-276.81 271.19,-283.89"/>
<text text-anchor="middle" x="288" y="-432" font-family="Helvetica,sans-Serif" font-size="10.00"> +cur_irep</text>
</g>
<!-- Node3 -->
<g id="node3" class="node">
<title>Node3</title>
<g id="a_node3"><a xlink:href="struct_r_object.html" target="_top" xlink:title="Value object.">
<polygon fill="white" stroke="red" points="120,-320.5 120,-410.5 174,-410.5 174,-320.5 120,-320.5"/>
<text text-anchor="middle" x="147" y="-398.5" font-family="Helvetica,sans-Serif" font-size="10.00">RObject</text>
<polyline fill="none" stroke="red" points="120,-391.5 174,-391.5 "/>
<text text-anchor="start" x="128" y="-379.5" font-family="Helvetica,sans-Serif" font-size="10.00">+ tt</text>
<text text-anchor="start" x="128" y="-368.5" font-family="Helvetica,sans-Serif" font-size="10.00">+ i</text>
<text text-anchor="start" x="128" y="-357.5" font-family="Helvetica,sans-Serif" font-size="10.00">+ handle</text>
<text text-anchor="start" x="128" y="-346.5" font-family="Helvetica,sans-Serif" font-size="10.00">+ @9</text>
<polyline fill="none" stroke="red" points="120,-339.5 174,-339.5 "/>
<text text-anchor="middle" x="147" y="-327.5" font-family="Helvetica,sans-Serif" font-size="10.00"> </text>
</a>
</g>
</g>
<!-- Node3&#45;&gt;Node1 -->
<g id="edge2" class="edge">
<title>Node3&#45;&gt;Node1</title>
<path fill="none" stroke="#404040" d="M141.04,-320.35C139.19,-305.35 137.3,-288.47 136,-273 132.19,-227.51 129.71,-176.35 128.18,-135.91"/>
<polygon fill="none" stroke="#404040" points="128.17,-135.72 123.96,-129.87 127.73,-123.73 131.95,-129.58 128.17,-135.72"/>
<text text-anchor="middle" x="160.5" y="-230.5" font-family="Helvetica,sans-Serif" font-size="10.00"> +cur_regs</text>
<text text-anchor="middle" x="160.5" y="-219.5" font-family="Helvetica,sans-Serif" font-size="10.00">+exception</text>
<text text-anchor="middle" x="160.5" y="-208.5" font-family="Helvetica,sans-Serif" font-size="10.00">+regs</text>
</g>
<!-- Node3&#45;&gt;Node10 -->
<g id="edge12" class="edge">
<title>Node3&#45;&gt;Node10</title>
<path fill="none" stroke="#404040" d="M119.91,-396.17C112.65,-405.93 105.78,-417.29 102,-429 99.42,-437 100.58,-445.2 103.68,-452.91"/>
<polygon fill="none" stroke="#404040" points="103.8,-453.16 110.13,-456.62 109.37,-463.79 103.04,-460.33 103.8,-453.16"/>
<text text-anchor="middle" x="121.5" y="-432" font-family="Helvetica,sans-Serif" font-size="10.00"> +ret_val</text>
</g>
<!-- Node3&#45;&gt;Node11 -->
<g id="edge9" class="edge">
<title>Node3&#45;&gt;Node11</title>
<path fill="none" stroke="#404040" d="M149.75,-320.41C151.72,-310.28 154.91,-299.88 160,-291 161.02,-289.22 171.25,-280.25 184.08,-269.38"/>
<polygon fill="none" stroke="#404040" points="184.11,-269.35 186.12,-262.43 193.29,-261.62 191.28,-268.55 184.11,-269.35"/>
<text text-anchor="middle" x="183.5" y="-294" font-family="Helvetica,sans-Serif" font-size="10.00"> +cur_regs</text>
</g>
<!-- Node5 -->
<g id="node4" class="node">
<title>Node5</title>
<g id="a_node4"><a xlink:href="struct_r_class.html" target="_top" xlink:title="Class object.">
<polygon fill="white" stroke="red" points="316.5,-458.5 316.5,-526.5 429.5,-526.5 429.5,-458.5 316.5,-458.5"/>
<text text-anchor="middle" x="373" y="-514.5" font-family="Helvetica,sans-Serif" font-size="10.00">RClass</text>
<polyline fill="none" stroke="red" points="316.5,-507.5 429.5,-507.5 "/>
<text text-anchor="start" x="324.5" y="-495.5" font-family="Helvetica,sans-Serif" font-size="10.00">+ sym_id</text>
<text text-anchor="start" x="324.5" y="-484.5" font-family="Helvetica,sans-Serif" font-size="10.00">+ num_builtin_method</text>
<polyline fill="none" stroke="red" points="316.5,-477.5 429.5,-477.5 "/>
<text text-anchor="middle" x="373" y="-465.5" font-family="Helvetica,sans-Serif" font-size="10.00"> </text>
</a>
</g>
</g>
<!-- Node5&#45;&gt;Node1 -->
<g id="edge13" class="edge">
<title>Node5&#45;&gt;Node1</title>
<path fill="none" stroke="#404040" d="M398.15,-458.49C407.23,-444.6 416.38,-427.79 421,-411 450.83,-302.74 422.35,-249.45 342,-171 300.1,-130.09 239.63,-101.67 193.32,-84.29"/>
<polygon fill="none" stroke="#404040" points="193.15,-84.23 186.14,-85.93 181.87,-80.11 188.88,-78.41 193.15,-84.23"/>
<text text-anchor="middle" x="459.5" y="-294" font-family="Helvetica,sans-Serif" font-size="10.00"> +target_class</text>
</g>
<!-- Node5&#45;&gt;Node3 -->
<g id="edge3" class="edge">
<title>Node5&#45;&gt;Node3</title>
<path fill="none" stroke="#404040" d="M349.31,-458.46C339.63,-447.35 327.51,-436 314,-429 263.77,-402.98 238.07,-437.33 188,-411 186.64,-410.28 185.3,-409.51 183.99,-408.67"/>
<polygon fill="none" stroke="#404040" points="183.96,-408.65 176.76,-408.21 174.4,-401.39 181.6,-401.84 183.96,-408.65"/>
<text text-anchor="middle" x="340" y="-432" font-family="Helvetica,sans-Serif" font-size="10.00"> +cls</text>
</g>
<!-- Node5&#45;&gt;Node5 -->
<g id="edge4" class="edge">
<title>Node5&#45;&gt;Node5</title>
<path fill="none" stroke="#404040" d="M429.53,-502.82C440.07,-501.55 447.5,-498.11 447.5,-492.5 447.5,-489.35 445.15,-486.88 441.22,-485.1"/>
<polygon fill="none" stroke="#404040" points="441.17,-485.08 434.38,-487.52 429.53,-482.18 436.31,-479.75 441.17,-485.08"/>
<text text-anchor="middle" x="464.5" y="-490" font-family="Helvetica,sans-Serif" font-size="10.00"> +super</text>
</g>
<!-- Node5&#45;&gt;Node11 -->
<g id="edge10" class="edge">
<title>Node5&#45;&gt;Node11</title>
<path fill="none" stroke="#404040" d="M367.89,-458.47C360.33,-416.88 343.3,-344.41 310,-291 305.72,-284.14 300.61,-277.48 295.12,-271.18"/>
<polygon fill="none" stroke="#404040" points="295,-271.04 287.99,-269.34 286.86,-262.22 293.87,-263.92 295,-271.04"/>
<text text-anchor="middle" x="387" y="-368.5" font-family="Helvetica,sans-Serif" font-size="10.00"> +own_class</text>
<text text-anchor="middle" x="387" y="-357.5" font-family="Helvetica,sans-Serif" font-size="10.00">+target_class</text>
</g>
<!-- Node10&#45;&gt;Node1 -->
<g id="edge15" class="edge">
<title>Node10&#45;&gt;Node1</title>
<path fill="none" stroke="#404040" d="M109.18,-463.98C103.82,-456.7 98.92,-448.48 96,-440 61.13,-338.63 82.94,-213.22 103.32,-135.67"/>
<polygon fill="none" stroke="#404040" points="103.43,-135.22 101.14,-128.39 106.56,-123.64 108.86,-130.48 103.43,-135.22"/>
<text text-anchor="middle" x="98.5" y="-294" font-family="Helvetica,sans-Serif" font-size="10.00"> +ret_blk</text>
</g>
<!-- Node10&#45;&gt;Node3 -->
<g id="edge5" class="edge">
<title>Node10&#45;&gt;Node3</title>
<path fill="none" stroke="#404040" d="M141.24,-463.83C142.73,-456.15 144.14,-447.79 145,-440 145.6,-434.57 146.05,-428.9 146.39,-423.23"/>
<polygon fill="none" stroke="#404040" points="146.41,-422.88 142.69,-416.69 146.97,-410.89 150.68,-417.07 146.41,-422.88"/>
<text text-anchor="middle" x="159" y="-432" font-family="Helvetica,sans-Serif" font-size="10.00"> +proc</text>
</g>
<!-- Node11&#45;&gt;Node1 -->
<g id="edge14" class="edge">
<title>Node11&#45;&gt;Node1</title>
<path fill="none" stroke="#404040" d="M204.24,-171.44C195.64,-159.52 186.28,-146.55 177.13,-133.86"/>
<polygon fill="none" stroke="#404040" points="176.87,-133.5 170.11,-130.98 169.85,-123.77 176.6,-126.3 176.87,-133.5"/>
<text text-anchor="middle" x="218" y="-145" font-family="Helvetica,sans-Serif" font-size="10.00"> +callinfo_tail</text>
</g>
<!-- Node11&#45;&gt;Node10 -->
<g id="edge6" class="edge">
<title>Node11&#45;&gt;Node10</title>
<path fill="none" stroke="#404040" d="M231.51,-272.54C222.39,-317.97 205.26,-386.16 177,-440 174.49,-444.78 171.49,-449.54 168.27,-454.12"/>
<polygon fill="none" stroke="#404040" points="168.19,-454.23 167.77,-461.43 160.96,-463.81 161.38,-456.61 168.19,-454.23"/>
<text text-anchor="middle" x="249" y="-368.5" font-family="Helvetica,sans-Serif" font-size="10.00"> +callinfo</text>
<text text-anchor="middle" x="249" y="-357.5" font-family="Helvetica,sans-Serif" font-size="10.00">+callinfo_self</text>
</g>
<!-- Node11&#45;&gt;Node11 -->
<g id="edge7" class="edge">
<title>Node11&#45;&gt;Node11</title>
<path fill="none" stroke="#404040" d="M286.67,-235.5C296.99,-234.23 304.5,-229.73 304.5,-222 304.5,-217.65 302.12,-214.32 298.21,-212.02"/>
<polygon fill="none" stroke="#404040" points="298.15,-212 291.24,-214.08 286.67,-208.5 293.58,-206.42 298.15,-212"/>
<text text-anchor="middle" x="318.5" y="-219.5" font-family="Helvetica,sans-Serif" font-size="10.00"> +prev</text>
</g>
</g>
</svg>
