<?xml version="1.0" encoding="UTF-8" standalone="no"?>
<!DOCTYPE svg PUBLIC "-//W3C//DTD SVG 1.1//EN"
 "http://www.w3.org/Graphics/SVG/1.1/DTD/svg11.dtd">
<!-- Generated by graphviz version 3.0.0 (20220226.1711)
 -->
<!-- Title: RKeyValueHandle Pages: 1 -->
<svg width="202pt" height="259pt"
 viewBox="0.00 0.00 202.00 259.00" xmlns="http://www.w3.org/2000/svg" xmlns:xlink="http://www.w3.org/1999/xlink">
<g id="graph0" class="graph" transform="scale(1 1) rotate(0) translate(4 255)">
<title>RKeyValueHandle</title>
<polygon fill="white" stroke="transparent" points="-4,4 -4,-255 198,-255 198,4 -4,4"/>
<!-- Node1 -->
<g id="node1" class="node">
<title>Node1</title>
<g id="a_node1"><a xlink:title="Key&#45;Value handle.">
<polygon fill="#bfbfbf" stroke="black" points="37.5,-0.5 37.5,-79.5 133.5,-79.5 133.5,-0.5 37.5,-0.5"/>
<text text-anchor="middle" x="85.5" y="-67.5" font-family="Helvetica,sans-Serif" font-size="10.00">RKeyValueHandle</text>
<polyline fill="none" stroke="black" points="37.5,-60.5 133.5,-60.5 "/>
<text text-anchor="start" x="45.5" y="-48.5" font-family="Helvetica,sans-Serif" font-size="10.00">+ data_size</text>
<text text-anchor="start" x="45.5" y="-37.5" font-family="Helvetica,sans-Serif" font-size="10.00">+ n_stored</text>
<text text-anchor="start" x="45.5" y="-26.5" font-family="Helvetica,sans-Serif" font-size="10.00">+ @5</text>
<polyline fill="none" stroke="black" points="37.5,-19.5 133.5,-19.5 "/>
<text text-anchor="middle" x="85.5" y="-7.5" font-family="Helvetica,sans-Serif" font-size="10.00"> </text>
</a>
</g>
</g>
<!-- Node2 -->
<g id="node2" class="node">
<title>Node2</title>
<g id="a_node2"><a xlink:href="struct_r_key_value.html" target="_top" xlink:title="Key&#45;Value data.">
<polygon fill="white" stroke="red" points="0,-160.5 0,-217.5 65,-217.5 65,-160.5 0,-160.5"/>
<text text-anchor="middle" x="32.5" y="-205.5" font-family="Helvetica,sans-Serif" font-size="10.00">RKeyValue</text>
<polyline fill="none" stroke="red" points="0,-198.5 65,-198.5 "/>
<text text-anchor="start" x="8" y="-186.5" font-family="Helvetica,sans-Serif" font-size="10.00">+ sym_id</text>
<polyline fill="none" stroke="red" points="0,-179.5 65,-179.5 "/>
<text text-anchor="middle" x="32.5" y="-167.5" font-family="Helvetica,sans-Serif" font-size="10.00"> </text>
</a>
</g>
</g>
<!-- Node2&#45;&gt;Node1 -->
<g id="edge1" class="edge">
<title>Node2&#45;&gt;Node1</title>
<path fill="none" stroke="#404040" d="M42.47,-160.35C49.5,-140.86 59.11,-114.2 67.47,-91.02"/>
<polygon fill="none" stroke="#404040" points="67.51,-90.91 65.78,-83.91 71.58,-79.62 73.3,-86.62 67.51,-90.91"/>
<text text-anchor="middle" x="78.5" y="-101" font-family="Helvetica,sans-Serif" font-size="10.00"> +data</text>
</g>
<!-- Node8 -->
<g id="node3" class="node">
<title>Node8</title>
<g id="a_node3"><a xlink:href="struct_v_m.html" target="_top" xlink:title="Virtual Machine.">
<polygon fill="white" stroke="red" points="83,-127.5 83,-250.5 194,-250.5 194,-127.5 83,-127.5"/>
<text text-anchor="middle" x="138.5" y="-238.5" font-family="Helvetica,sans-Serif" font-size="10.00">VM</text>
<polyline fill="none" stroke="red" points="83,-231.5 194,-231.5 "/>
<text text-anchor="start" x="91" y="-219.5" font-family="Helvetica,sans-Serif" font-size="10.00">+ vm_id</text>
<text text-anchor="start" x="91" y="-208.5" font-family="Helvetica,sans-Serif" font-size="10.00">+ flag_preemption</text>
<text text-anchor="start" x="91" y="-197.5" font-family="Helvetica,sans-Serif" font-size="10.00">+ flag_need_memfree</text>
<text text-anchor="start" x="91" y="-186.5" font-family="Helvetica,sans-Serif" font-size="10.00">+ flag_stop</text>
<text text-anchor="start" x="91" y="-175.5" font-family="Helvetica,sans-Serif" font-size="10.00">+ flag_permanence</text>
<text text-anchor="start" x="91" y="-164.5" font-family="Helvetica,sans-Serif" font-size="10.00">+ regs_size</text>
<text text-anchor="start" x="91" y="-153.5" font-family="Helvetica,sans-Serif" font-size="10.00">+ inst</text>
<polyline fill="none" stroke="red" points="83,-146.5 194,-146.5 "/>
<text text-anchor="middle" x="138.5" y="-134.5" font-family="Helvetica,sans-Serif" font-size="10.00"> </text>
</a>
</g>
</g>
<!-- Node8&#45;&gt;Node1 -->
<g id="edge2" class="edge">
<title>Node8&#45;&gt;Node1</title>
<path fill="none" stroke="#404040" d="M116.64,-127.36C112.27,-115.26 107.74,-102.68 103.52,-90.99"/>
<polygon fill="none" stroke="#404040" points="103.5,-90.93 97.7,-86.64 99.43,-79.64 105.23,-83.93 103.5,-90.93"/>
<text text-anchor="middle" x="120" y="-101" font-family="Helvetica,sans-Serif" font-size="10.00"> +vm</text>
</g>
</g>
</svg>
