<?xml version="1.0" encoding="UTF-8" standalone="no"?>
<!DOCTYPE svg PUBLIC "-//W3C//DTD SVG 1.1//EN"
 "http://www.w3.org/Graphics/SVG/1.1/DTD/svg11.dtd">
<!-- Generated by graphviz version 3.0.0 (20220226.1711)
 -->
<!-- Title: RRange Pages: 1 -->
<svg width="212pt" height="321pt"
 viewBox="0.00 0.00 212.00 321.00" xmlns="http://www.w3.org/2000/svg" xmlns:xlink="http://www.w3.org/1999/xlink">
<g id="graph0" class="graph" transform="scale(1 1) rotate(0) translate(4 317)">
<title>RRange</title>
<polygon fill="white" stroke="transparent" points="-4,4 -4,-317 208,-317 208,4 -4,4"/>
<!-- Node1 -->
<g id="node1" class="node">
<title>Node1</title>
<g id="a_node1"><a xlink:title="Range object.">
<polygon fill="#bfbfbf" stroke="black" points="0,-149.5 0,-217.5 149,-217.5 149,-149.5 0,-149.5"/>
<text text-anchor="middle" x="74.5" y="-205.5" font-family="Helvetica,sans-Serif" font-size="10.00">RRange</text>
<polyline fill="none" stroke="black" points="0,-198.5 149,-198.5 "/>
<text text-anchor="start" x="8" y="-186.5" font-family="Helvetica,sans-Serif" font-size="10.00">+ MRBC_OBJECT_HEADER</text>
<text text-anchor="start" x="8" y="-175.5" font-family="Helvetica,sans-Serif" font-size="10.00">+ flag_exclude</text>
<polyline fill="none" stroke="black" points="0,-168.5 149,-168.5 "/>
<text text-anchor="middle" x="74.5" y="-156.5" font-family="Helvetica,sans-Serif" font-size="10.00"> </text>
</a>
</g>
</g>
<!-- Node3 -->
<g id="node3" class="node">
<title>Node3</title>
<g id="a_node3"><a xlink:href="struct_r_object.html" target="_top" xlink:title="Value object.">
<polygon fill="white" stroke="red" points="104.5,-0.5 104.5,-90.5 158.5,-90.5 158.5,-0.5 104.5,-0.5"/>
<text text-anchor="middle" x="131.5" y="-78.5" font-family="Helvetica,sans-Serif" font-size="10.00">RObject</text>
<polyline fill="none" stroke="red" points="104.5,-71.5 158.5,-71.5 "/>
<text text-anchor="start" x="112.5" y="-59.5" font-family="Helvetica,sans-Serif" font-size="10.00">+ tt</text>
<text text-anchor="start" x="112.5" y="-48.5" font-family="Helvetica,sans-Serif" font-size="10.00">+ i</text>
<text text-anchor="start" x="112.5" y="-37.5" font-family="Helvetica,sans-Serif" font-size="10.00">+ handle</text>
<text text-anchor="start" x="112.5" y="-26.5" font-family="Helvetica,sans-Serif" font-size="10.00">+ @9</text>
<polyline fill="none" stroke="red" points="104.5,-19.5 158.5,-19.5 "/>
<text text-anchor="middle" x="131.5" y="-7.5" font-family="Helvetica,sans-Serif" font-size="10.00"> </text>
</a>
</g>
</g>
<!-- Node1&#45;&gt;Node3 -->
<g id="edge4" class="edge">
<title>Node1&#45;&gt;Node3</title>
<path fill="none" stroke="#404040" d="M67.41,-149.3C66.09,-136.32 66.45,-121.56 71.5,-109 76.66,-96.18 85.84,-84.51 95.5,-74.82"/>
<polygon fill="none" stroke="#404040" points="95.63,-74.69 97.28,-67.67 104.4,-66.5 102.74,-73.52 95.63,-74.69"/>
<text text-anchor="middle" x="88.5" y="-117.5" font-family="Helvetica,sans-Serif" font-size="10.00"> +range</text>
</g>
<!-- Node2 -->
<g id="node2" class="node">
<title>Node2</title>
<g id="a_node2"><a xlink:href="struct_r_basic.html" target="_top" xlink:title="Base class for some objects.">
<polygon fill="white" stroke="black" points="55,-255.5 55,-312.5 204,-312.5 204,-255.5 55,-255.5"/>
<text text-anchor="middle" x="129.5" y="-300.5" font-family="Helvetica,sans-Serif" font-size="10.00">RBasic</text>
<polyline fill="none" stroke="black" points="55,-293.5 204,-293.5 "/>
<text text-anchor="start" x="63" y="-281.5" font-family="Helvetica,sans-Serif" font-size="10.00">+ MRBC_OBJECT_HEADER</text>
<polyline fill="none" stroke="black" points="55,-274.5 204,-274.5 "/>
<text text-anchor="middle" x="129.5" y="-262.5" font-family="Helvetica,sans-Serif" font-size="10.00"> </text>
</a>
</g>
</g>
<!-- Node2&#45;&gt;Node1 -->
<g id="edge1" class="edge">
<title>Node2&#45;&gt;Node1</title>
<path fill="none" stroke="midnightblue" d="M109.11,-246.48C103.82,-237.01 98.15,-226.86 92.97,-217.58"/>
<polygon fill="none" stroke="midnightblue" points="106.1,-248.28 114.03,-255.3 112.21,-244.86 106.1,-248.28"/>
</g>
<!-- Node2&#45;&gt;Node3 -->
<g id="edge3" class="edge">
<title>Node2&#45;&gt;Node3</title>
<path fill="none" stroke="#404040" d="M144.89,-255.4C150.33,-244.16 155.77,-230.81 158.5,-218 166.64,-179.8 159.62,-136.33 150.7,-102.71"/>
<polygon fill="none" stroke="#404040" points="150.6,-102.35 145.13,-97.66 147.35,-90.8 152.83,-95.49 150.6,-102.35"/>
<text text-anchor="middle" x="172.5" y="-181" font-family="Helvetica,sans-Serif" font-size="10.00"> +obj</text>
</g>
<!-- Node3&#45;&gt;Node1 -->
<g id="edge2" class="edge">
<title>Node3&#45;&gt;Node1</title>
<path fill="none" stroke="#404040" d="M122.96,-90.9C119.63,-104.13 115.2,-118.44 109.5,-131 108.31,-133.62 107,-136.25 105.59,-138.85"/>
<polygon fill="none" stroke="#404040" points="105.47,-139.05 105.88,-146.25 99.39,-149.4 98.98,-142.2 105.47,-139.05"/>
<text text-anchor="middle" x="130.5" y="-123" font-family="Helvetica,sans-Serif" font-size="10.00"> +first</text>
<text text-anchor="middle" x="130.5" y="-112" font-family="Helvetica,sans-Serif" font-size="10.00">+last</text>
</g>
</g>
</svg>
