<?xml version="1.0" encoding="UTF-8" standalone="no"?>
<!DOCTYPE svg PUBLIC "-//W3C//DTD SVG 1.1//EN"
 "http://www.w3.org/Graphics/SVG/1.1/DTD/svg11.dtd">
<!-- Generated by graphviz version 3.0.0 (20220226.1711)
 -->
<!-- Title: RKeyValueIterator Pages: 1 -->
<svg width="104pt" height="193pt"
 viewBox="0.00 0.00 104.00 193.00" xmlns="http://www.w3.org/2000/svg" xmlns:xlink="http://www.w3.org/1999/xlink">
<g id="graph0" class="graph" transform="scale(1 1) rotate(0) translate(4 189)">
<title>RKeyValueIterator</title>
<polygon fill="white" stroke="transparent" points="-4,4 -4,-189 100,-189 100,4 -4,4"/>
<!-- Node1 -->
<g id="node1" class="node">
<title>Node1</title>
<g id="a_node1"><a xlink:title="Key&#45;Value iterator.">
<polygon fill="#bfbfbf" stroke="black" points="0,-0.5 0,-57.5 96,-57.5 96,-0.5 0,-0.5"/>
<text text-anchor="middle" x="48" y="-45.5" font-family="Helvetica,sans-Serif" font-size="10.00">RKeyValueIterator</text>
<polyline fill="none" stroke="black" points="0,-38.5 96,-38.5 "/>
<text text-anchor="start" x="8" y="-26.5" font-family="Helvetica,sans-Serif" font-size="10.00">+ i</text>
<polyline fill="none" stroke="black" points="0,-19.5 96,-19.5 "/>
<text text-anchor="middle" x="48" y="-7.5" font-family="Helvetica,sans-Serif" font-size="10.00"> </text>
</a>
</g>
</g>
<!-- Node2 -->
<g id="node2" class="node">
<title>Node2</title>
<g id="a_node2"><a xlink:href="struct_r_key_value_handle.html" target="_top" xlink:title="Key&#45;Value handle.">
<polygon fill="white" stroke="red" points="0,-105.5 0,-184.5 96,-184.5 96,-105.5 0,-105.5"/>
<text text-anchor="middle" x="48" y="-172.5" font-family="Helvetica,sans-Serif" font-size="10.00">RKeyValueHandle</text>
<polyline fill="none" stroke="red" points="0,-165.5 96,-165.5 "/>
<text text-anchor="start" x="8" y="-153.5" font-family="Helvetica,sans-Serif" font-size="10.00">+ data_size</text>
<text text-anchor="start" x="8" y="-142.5" font-family="Helvetica,sans-Serif" font-size="10.00">+ n_stored</text>
<text text-anchor="start" x="8" y="-131.5" font-family="Helvetica,sans-Serif" font-size="10.00">+ @5</text>
<polyline fill="none" stroke="red" points="0,-124.5 96,-124.5 "/>
<text text-anchor="middle" x="48" y="-112.5" font-family="Helvetica,sans-Serif" font-size="10.00"> </text>
</a>
</g>
</g>
<!-- Node2&#45;&gt;Node1 -->
<g id="edge1" class="edge">
<title>Node2&#45;&gt;Node1</title>
<path fill="none" stroke="#404040" d="M48,-105.4C48,-93.93 48,-81.33 48,-69.78"/>
<polygon fill="none" stroke="#404040" points="48,-69.75 44,-63.75 48,-57.75 52,-63.75 48,-69.75"/>
<text text-anchor="middle" x="65" y="-79" font-family="Helvetica,sans-Serif" font-size="10.00"> +target</text>
</g>
</g>
</svg>
