<?xml version="1.0" encoding="UTF-8" standalone="no"?>
<!DOCTYPE svg PUBLIC "-//W3C//DTD SVG 1.1//EN"
 "http://www.w3.org/Graphics/SVG/1.1/DTD/svg11.dtd">
<!-- Generated by graphviz version 3.0.0 (20220226.1711)
 -->
<!-- Title: RInstance Pages: 1 -->
<svg width="455pt" height="204pt"
 viewBox="0.00 0.00 454.50 204.00" xmlns="http://www.w3.org/2000/svg" xmlns:xlink="http://www.w3.org/1999/xlink">
<g id="graph0" class="graph" transform="scale(1 1) rotate(0) translate(4 200)">
<title>RInstance</title>
<polygon fill="white" stroke="transparent" points="-4,4 -4,-200 450.5,-200 450.5,4 -4,4"/>
<!-- Node1 -->
<g id="node1" class="node">
<title>Node1</title>
<g id="a_node1"><a xlink:title="Instance object.">
<polygon fill="#bfbfbf" stroke="black" points="149,-0.5 149,-68.5 298,-68.5 298,-0.5 149,-0.5"/>
<text text-anchor="middle" x="223.5" y="-56.5" font-family="Helvetica,sans-Serif" font-size="10.00">RInstance</text>
<polyline fill="none" stroke="black" points="149,-49.5 298,-49.5 "/>
<text text-anchor="start" x="157" y="-37.5" font-family="Helvetica,sans-Serif" font-size="10.00">+ MRBC_OBJECT_HEADER</text>
<text text-anchor="start" x="157" y="-26.5" font-family="Helvetica,sans-Serif" font-size="10.00">+ data</text>
<polyline fill="none" stroke="black" points="149,-19.5 298,-19.5 "/>
<text text-anchor="middle" x="223.5" y="-7.5" font-family="Helvetica,sans-Serif" font-size="10.00"> </text>
</a>
</g>
</g>
<!-- Node2 -->
<g id="node2" class="node">
<title>Node2</title>
<g id="a_node2"><a xlink:href="struct_r_basic.html" target="_top" xlink:title="Base class for some objects.">
<polygon fill="white" stroke="black" points="0,-127.5 0,-184.5 149,-184.5 149,-127.5 0,-127.5"/>
<text text-anchor="middle" x="74.5" y="-172.5" font-family="Helvetica,sans-Serif" font-size="10.00">RBasic</text>
<polyline fill="none" stroke="black" points="0,-165.5 149,-165.5 "/>
<text text-anchor="start" x="8" y="-153.5" font-family="Helvetica,sans-Serif" font-size="10.00">+ MRBC_OBJECT_HEADER</text>
<polyline fill="none" stroke="black" points="0,-146.5 149,-146.5 "/>
<text text-anchor="middle" x="74.5" y="-134.5" font-family="Helvetica,sans-Serif" font-size="10.00"> </text>
</a>
</g>
</g>
<!-- Node2&#45;&gt;Node1 -->
<g id="edge1" class="edge">
<title>Node2&#45;&gt;Node1</title>
<path fill="none" stroke="midnightblue" d="M116.98,-120.93C137.46,-104.5 161.93,-84.88 182.24,-68.59"/>
<polygon fill="none" stroke="midnightblue" points="114.67,-118.3 109.06,-127.28 119.05,-123.76 114.67,-118.3"/>
</g>
<!-- Node3 -->
<g id="node3" class="node">
<title>Node3</title>
<g id="a_node3"><a xlink:href="struct_r_class.html" target="_top" xlink:title="Class object.">
<polygon fill="white" stroke="red" points="167,-122 167,-190 280,-190 280,-122 167,-122"/>
<text text-anchor="middle" x="223.5" y="-178" font-family="Helvetica,sans-Serif" font-size="10.00">RClass</text>
<polyline fill="none" stroke="red" points="167,-171 280,-171 "/>
<text text-anchor="start" x="175" y="-159" font-family="Helvetica,sans-Serif" font-size="10.00">+ sym_id</text>
<text text-anchor="start" x="175" y="-148" font-family="Helvetica,sans-Serif" font-size="10.00">+ num_builtin_method</text>
<polyline fill="none" stroke="red" points="167,-141 280,-141 "/>
<text text-anchor="middle" x="223.5" y="-129" font-family="Helvetica,sans-Serif" font-size="10.00"> </text>
</a>
</g>
</g>
<!-- Node3&#45;&gt;Node1 -->
<g id="edge2" class="edge">
<title>Node3&#45;&gt;Node1</title>
<path fill="none" stroke="#404040" d="M223.5,-121.71C223.5,-109.02 223.5,-94.34 223.5,-80.72"/>
<polygon fill="none" stroke="#404040" points="223.5,-80.61 219.5,-74.61 223.5,-68.61 227.5,-74.61 223.5,-80.61"/>
<text text-anchor="middle" x="234.5" y="-90" font-family="Helvetica,sans-Serif" font-size="10.00"> +cls</text>
</g>
<!-- Node3&#45;&gt;Node3 -->
<g id="edge3" class="edge">
<title>Node3&#45;&gt;Node3</title>
<path fill="none" stroke="#404040" d="M280.03,-167.03C290.57,-165.67 298,-161.99 298,-156 298,-152.63 295.65,-149.99 291.72,-148.09"/>
<polygon fill="none" stroke="#404040" points="291.62,-148.06 284.79,-150.38 280.03,-144.97 286.85,-142.65 291.62,-148.06"/>
<text text-anchor="middle" x="315" y="-153.5" font-family="Helvetica,sans-Serif" font-size="10.00"> +super</text>
</g>
<!-- Node15 -->
<g id="node4" class="node">
<title>Node15</title>
<g id="a_node4"><a xlink:href="struct_r_key_value_handle.html" target="_top" xlink:title="Key&#45;Value handle.">
<polygon fill="white" stroke="red" points="350.5,-116.5 350.5,-195.5 446.5,-195.5 446.5,-116.5 350.5,-116.5"/>
<text text-anchor="middle" x="398.5" y="-183.5" font-family="Helvetica,sans-Serif" font-size="10.00">RKeyValueHandle</text>
<polyline fill="none" stroke="red" points="350.5,-176.5 446.5,-176.5 "/>
<text text-anchor="start" x="358.5" y="-164.5" font-family="Helvetica,sans-Serif" font-size="10.00">+ data_size</text>
<text text-anchor="start" x="358.5" y="-153.5" font-family="Helvetica,sans-Serif" font-size="10.00">+ n_stored</text>
<text text-anchor="start" x="358.5" y="-142.5" font-family="Helvetica,sans-Serif" font-size="10.00">+ @5</text>
<polyline fill="none" stroke="red" points="350.5,-135.5 446.5,-135.5 "/>
<text text-anchor="middle" x="398.5" y="-123.5" font-family="Helvetica,sans-Serif" font-size="10.00"> </text>
</a>
</g>
</g>
<!-- Node15&#45;&gt;Node1 -->
<g id="edge4" class="edge">
<title>Node15&#45;&gt;Node1</title>
<path fill="none" stroke="#404040" d="M350.3,-122.02C347.32,-119.98 344.37,-117.96 341.5,-116 322.15,-102.78 301,-88.35 282.02,-75.4"/>
<polygon fill="none" stroke="#404040" points="281.94,-75.34 274.73,-75.27 272.02,-68.58 279.23,-68.66 281.94,-75.34"/>
<text text-anchor="middle" x="325" y="-90" font-family="Helvetica,sans-Serif" font-size="10.00"> +ivar</text>
</g>
</g>
</svg>
