<?xml version="1.0" encoding="UTF-8" standalone="no"?>
<!DOCTYPE svg PUBLIC "-//W3C//DTD SVG 1.1//EN"
 "http://www.w3.org/Graphics/SVG/1.1/DTD/svg11.dtd">
<!-- Generated by graphviz version 3.0.0 (20220226.1711)
 -->
<!-- Title: RHash Pages: 1 -->
<svg width="212pt" height="321pt"
 viewBox="0.00 0.00 212.00 321.00" xmlns="http://www.w3.org/2000/svg" xmlns:xlink="http://www.w3.org/1999/xlink">
<g id="graph0" class="graph" transform="scale(1 1) rotate(0) translate(4 317)">
<title>RHash</title>
<polygon fill="white" stroke="transparent" points="-4,4 -4,-317 208,-317 208,4 -4,4"/>
<!-- Node1 -->
<g id="node1" class="node">
<title>Node1</title>
<g id="a_node1"><a xlink:title="Hash object.">
<polygon fill="#bfbfbf" stroke="black" points="0,-138.5 0,-217.5 149,-217.5 149,-138.5 0,-138.5"/>
<text text-anchor="middle" x="74.5" y="-205.5" font-family="Helvetica,sans-Serif" font-size="10.00">RHash</text>
<polyline fill="none" stroke="black" points="0,-198.5 149,-198.5 "/>
<text text-anchor="start" x="8" y="-186.5" font-family="Helvetica,sans-Serif" font-size="10.00">+ MRBC_OBJECT_HEADER</text>
<text text-anchor="start" x="8" y="-175.5" font-family="Helvetica,sans-Serif" font-size="10.00">+ data_size</text>
<text text-anchor="start" x="8" y="-164.5" font-family="Helvetica,sans-Serif" font-size="10.00">+ n_stored</text>
<polyline fill="none" stroke="black" points="0,-157.5 149,-157.5 "/>
<text text-anchor="middle" x="74.5" y="-145.5" font-family="Helvetica,sans-Serif" font-size="10.00"> </text>
</a>
</g>
</g>
<!-- Node3 -->
<g id="node3" class="node">
<title>Node3</title>
<g id="a_node3"><a xlink:href="struct_r_object.html" target="_top" xlink:title="Value object.">
<polygon fill="white" stroke="red" points="101.5,-0.5 101.5,-90.5 155.5,-90.5 155.5,-0.5 101.5,-0.5"/>
<text text-anchor="middle" x="128.5" y="-78.5" font-family="Helvetica,sans-Serif" font-size="10.00">RObject</text>
<polyline fill="none" stroke="red" points="101.5,-71.5 155.5,-71.5 "/>
<text text-anchor="start" x="109.5" y="-59.5" font-family="Helvetica,sans-Serif" font-size="10.00">+ tt</text>
<text text-anchor="start" x="109.5" y="-48.5" font-family="Helvetica,sans-Serif" font-size="10.00">+ i</text>
<text text-anchor="start" x="109.5" y="-37.5" font-family="Helvetica,sans-Serif" font-size="10.00">+ handle</text>
<text text-anchor="start" x="109.5" y="-26.5" font-family="Helvetica,sans-Serif" font-size="10.00">+ @9</text>
<polyline fill="none" stroke="red" points="101.5,-19.5 155.5,-19.5 "/>
<text text-anchor="middle" x="128.5" y="-7.5" font-family="Helvetica,sans-Serif" font-size="10.00"> </text>
</a>
</g>
</g>
<!-- Node1&#45;&gt;Node3 -->
<g id="edge4" class="edge">
<title>Node1&#45;&gt;Node3</title>
<path fill="none" stroke="#404040" d="M67.39,-138.34C67.03,-128.51 67.96,-118.15 71.5,-109 76.08,-97.19 84.04,-86.24 92.59,-76.92"/>
<polygon fill="none" stroke="#404040" points="92.8,-76.7 94.17,-69.62 101.23,-68.16 99.86,-75.24 92.8,-76.7"/>
<text text-anchor="middle" x="87" y="-112" font-family="Helvetica,sans-Serif" font-size="10.00"> +hash</text>
</g>
<!-- Node2 -->
<g id="node2" class="node">
<title>Node2</title>
<g id="a_node2"><a xlink:href="struct_r_basic.html" target="_top" xlink:title="Base class for some objects.">
<polygon fill="white" stroke="black" points="55,-255.5 55,-312.5 204,-312.5 204,-255.5 55,-255.5"/>
<text text-anchor="middle" x="129.5" y="-300.5" font-family="Helvetica,sans-Serif" font-size="10.00">RBasic</text>
<polyline fill="none" stroke="black" points="55,-293.5 204,-293.5 "/>
<text text-anchor="start" x="63" y="-281.5" font-family="Helvetica,sans-Serif" font-size="10.00">+ MRBC_OBJECT_HEADER</text>
<polyline fill="none" stroke="black" points="55,-274.5 204,-274.5 "/>
<text text-anchor="middle" x="129.5" y="-262.5" font-family="Helvetica,sans-Serif" font-size="10.00"> </text>
</a>
</g>
</g>
<!-- Node2&#45;&gt;Node1 -->
<g id="edge1" class="edge">
<title>Node2&#45;&gt;Node1</title>
<path fill="none" stroke="midnightblue" d="M110.14,-246.4C105.23,-237.1 99.93,-227.08 94.96,-217.69"/>
<polygon fill="none" stroke="midnightblue" points="107.14,-248.2 114.91,-255.4 113.32,-244.93 107.14,-248.2"/>
</g>
<!-- Node2&#45;&gt;Node3 -->
<g id="edge3" class="edge">
<title>Node2&#45;&gt;Node3</title>
<path fill="none" stroke="#404040" d="M144.89,-255.4C150.33,-244.16 155.77,-230.81 158.5,-218 165.91,-183.22 164.11,-173.11 158.5,-138 156.64,-126.36 153.53,-114.19 150,-102.67"/>
<polygon fill="none" stroke="#404040" points="149.9,-102.36 144.24,-97.88 146.2,-90.94 151.85,-95.42 149.9,-102.36"/>
<text text-anchor="middle" x="173.5" y="-175.5" font-family="Helvetica,sans-Serif" font-size="10.00"> +obj</text>
</g>
<!-- Node3&#45;&gt;Node1 -->
<g id="edge2" class="edge">
<title>Node3&#45;&gt;Node1</title>
<path fill="none" stroke="#404040" d="M117.03,-90.59C114,-100.42 110.45,-110.68 106.5,-120 105.46,-122.46 104.33,-124.95 103.15,-127.45"/>
<polygon fill="none" stroke="#404040" points="103.08,-127.6 103.97,-134.75 97.7,-138.33 96.82,-131.17 103.08,-127.6"/>
<text text-anchor="middle" x="124.5" y="-112" font-family="Helvetica,sans-Serif" font-size="10.00"> +data</text>
</g>
</g>
</svg>
