<?xml version="1.0" encoding="UTF-8" standalone="no"?>
<!DOCTYPE svg PUBLIC "-//W3C//DTD SVG 1.1//EN"
 "http://www.w3.org/Graphics/SVG/1.1/DTD/svg11.dtd">
<!-- Generated by graphviz version 3.0.0 (20220226.1711)
 -->
<!-- Title: RBasic Pages: 1 -->
<svg width="1159pt" height="204pt"
 viewBox="0.00 0.00 1159.00 204.00" xmlns="http://www.w3.org/2000/svg" xmlns:xlink="http://www.w3.org/1999/xlink">
<g id="graph0" class="graph" transform="scale(1 1) rotate(0) translate(4 200)">
<title>RBasic</title>
<polygon fill="white" stroke="transparent" points="-4,4 -4,-200 1155,-200 1155,4 -4,4"/>
<!-- Node1 -->
<g id="node1" class="node">
<title>Node1</title>
<g id="a_node1"><a xlink:title="Base class for some objects.">
<polygon fill="#bfbfbf" stroke="black" points="501,-138.5 501,-195.5 650,-195.5 650,-138.5 501,-138.5"/>
<text text-anchor="middle" x="575.5" y="-183.5" font-family="Helvetica,sans-Serif" font-size="10.00">RBasic</text>
<polyline fill="none" stroke="black" points="501,-176.5 650,-176.5 "/>
<text text-anchor="start" x="509" y="-164.5" font-family="Helvetica,sans-Serif" font-size="10.00">+ MRBC_OBJECT_HEADER</text>
<polyline fill="none" stroke="black" points="501,-157.5 650,-157.5 "/>
<text text-anchor="middle" x="575.5" y="-145.5" font-family="Helvetica,sans-Serif" font-size="10.00"> </text>
</a>
</g>
</g>
<!-- Node2 -->
<g id="node2" class="node">
<title>Node2</title>
<g id="a_node2"><a xlink:href="struct_r_array.html" target="_top" xlink:title="Array object.">
<polygon fill="white" stroke="black" points="0,-6 0,-96 149,-96 149,-6 0,-6"/>
<text text-anchor="middle" x="74.5" y="-84" font-family="Helvetica,sans-Serif" font-size="10.00">RArray</text>
<polyline fill="none" stroke="black" points="0,-77 149,-77 "/>
<text text-anchor="start" x="8" y="-65" font-family="Helvetica,sans-Serif" font-size="10.00">+ MRBC_OBJECT_HEADER</text>
<text text-anchor="start" x="8" y="-54" font-family="Helvetica,sans-Serif" font-size="10.00">+ data_size</text>
<text text-anchor="start" x="8" y="-43" font-family="Helvetica,sans-Serif" font-size="10.00">+ n_stored</text>
<text text-anchor="start" x="8" y="-32" font-family="Helvetica,sans-Serif" font-size="10.00">+ data</text>
<polyline fill="none" stroke="black" points="0,-25 149,-25 "/>
<text text-anchor="middle" x="74.5" y="-13" font-family="Helvetica,sans-Serif" font-size="10.00"> </text>
</a>
</g>
</g>
<!-- Node1&#45;&gt;Node2 -->
<g id="edge1" class="edge">
<title>Node1&#45;&gt;Node2</title>
<path fill="none" stroke="midnightblue" d="M490.87,-162.67C404.71,-157.08 268.4,-142.11 157.5,-102 152.75,-100.28 147.98,-98.28 143.25,-96.09"/>
<polygon fill="none" stroke="midnightblue" points="490.67,-166.17 500.87,-163.29 491.1,-159.18 490.67,-166.17"/>
</g>
<!-- Node3 -->
<g id="node3" class="node">
<title>Node3</title>
<g id="a_node3"><a xlink:href="struct_r_exception.html" target="_top" xlink:title="Exception object.">
<polygon fill="white" stroke="black" points="167,-6 167,-96 316,-96 316,-6 167,-6"/>
<text text-anchor="middle" x="241.5" y="-84" font-family="Helvetica,sans-Serif" font-size="10.00">RException</text>
<polyline fill="none" stroke="black" points="167,-77 316,-77 "/>
<text text-anchor="start" x="175" y="-65" font-family="Helvetica,sans-Serif" font-size="10.00">+ MRBC_OBJECT_HEADER</text>
<text text-anchor="start" x="175" y="-54" font-family="Helvetica,sans-Serif" font-size="10.00">+ cls</text>
<text text-anchor="start" x="175" y="-43" font-family="Helvetica,sans-Serif" font-size="10.00">+ message_size</text>
<text text-anchor="start" x="175" y="-32" font-family="Helvetica,sans-Serif" font-size="10.00">+ message</text>
<polyline fill="none" stroke="black" points="167,-25 316,-25 "/>
<text text-anchor="middle" x="241.5" y="-13" font-family="Helvetica,sans-Serif" font-size="10.00"> </text>
</a>
</g>
</g>
<!-- Node1&#45;&gt;Node3 -->
<g id="edge2" class="edge">
<title>Node1&#45;&gt;Node3</title>
<path fill="none" stroke="midnightblue" d="M490.84,-150.86C441.21,-140.42 377.97,-124.35 324.5,-102 320.15,-100.18 315.77,-98.17 311.4,-96.01"/>
<polygon fill="none" stroke="midnightblue" points="490.39,-154.34 500.9,-152.94 491.81,-147.49 490.39,-154.34"/>
</g>
<!-- Node4 -->
<g id="node4" class="node">
<title>Node4</title>
<g id="a_node4"><a xlink:href="struct_r_hash.html" target="_top" xlink:title="Hash object.">
<polygon fill="white" stroke="black" points="334,-6 334,-96 483,-96 483,-6 334,-6"/>
<text text-anchor="middle" x="408.5" y="-84" font-family="Helvetica,sans-Serif" font-size="10.00">RHash</text>
<polyline fill="none" stroke="black" points="334,-77 483,-77 "/>
<text text-anchor="start" x="342" y="-65" font-family="Helvetica,sans-Serif" font-size="10.00">+ MRBC_OBJECT_HEADER</text>
<text text-anchor="start" x="342" y="-54" font-family="Helvetica,sans-Serif" font-size="10.00">+ data_size</text>
<text text-anchor="start" x="342" y="-43" font-family="Helvetica,sans-Serif" font-size="10.00">+ n_stored</text>
<text text-anchor="start" x="342" y="-32" font-family="Helvetica,sans-Serif" font-size="10.00">+ data</text>
<polyline fill="none" stroke="black" points="334,-25 483,-25 "/>
<text text-anchor="middle" x="408.5" y="-13" font-family="Helvetica,sans-Serif" font-size="10.00"> </text>
</a>
</g>
</g>
<!-- Node1&#45;&gt;Node4 -->
<g id="edge3" class="edge">
<title>Node1&#45;&gt;Node4</title>
<path fill="none" stroke="midnightblue" d="M526.54,-132.58C509.78,-121.14 490.77,-108.16 472.98,-96.02"/>
<polygon fill="none" stroke="midnightblue" points="524.84,-135.66 535.07,-138.4 528.79,-129.88 524.84,-135.66"/>
</g>
<!-- Node5 -->
<g id="node5" class="node">
<title>Node5</title>
<g id="a_node5"><a xlink:href="struct_r_instance.html" target="_top" xlink:title="Instance object.">
<polygon fill="white" stroke="black" points="501,-6 501,-96 650,-96 650,-6 501,-6"/>
<text text-anchor="middle" x="575.5" y="-84" font-family="Helvetica,sans-Serif" font-size="10.00">RInstance</text>
<polyline fill="none" stroke="black" points="501,-77 650,-77 "/>
<text text-anchor="start" x="509" y="-65" font-family="Helvetica,sans-Serif" font-size="10.00">+ MRBC_OBJECT_HEADER</text>
<text text-anchor="start" x="509" y="-54" font-family="Helvetica,sans-Serif" font-size="10.00">+ cls</text>
<text text-anchor="start" x="509" y="-43" font-family="Helvetica,sans-Serif" font-size="10.00">+ ivar</text>
<text text-anchor="start" x="509" y="-32" font-family="Helvetica,sans-Serif" font-size="10.00">+ data</text>
<polyline fill="none" stroke="black" points="501,-25 650,-25 "/>
<text text-anchor="middle" x="575.5" y="-13" font-family="Helvetica,sans-Serif" font-size="10.00"> </text>
</a>
</g>
</g>
<!-- Node1&#45;&gt;Node5 -->
<g id="edge4" class="edge">
<title>Node1&#45;&gt;Node5</title>
<path fill="none" stroke="midnightblue" d="M575.5,-128.15C575.5,-117.93 575.5,-106.78 575.5,-96.24"/>
<polygon fill="none" stroke="midnightblue" points="572,-128.4 575.5,-138.4 579,-128.4 572,-128.4"/>
</g>
<!-- Node6 -->
<g id="node6" class="node">
<title>Node6</title>
<g id="a_node6"><a xlink:href="struct_r_proc.html" target="_top" xlink:title="Proc object.">
<polygon fill="white" stroke="black" points="668,-0.5 668,-101.5 817,-101.5 817,-0.5 668,-0.5"/>
<text text-anchor="middle" x="742.5" y="-89.5" font-family="Helvetica,sans-Serif" font-size="10.00">RProc</text>
<polyline fill="none" stroke="black" points="668,-82.5 817,-82.5 "/>
<text text-anchor="start" x="676" y="-70.5" font-family="Helvetica,sans-Serif" font-size="10.00">+ MRBC_OBJECT_HEADER</text>
<text text-anchor="start" x="676" y="-59.5" font-family="Helvetica,sans-Serif" font-size="10.00">+ callinfo</text>
<text text-anchor="start" x="676" y="-48.5" font-family="Helvetica,sans-Serif" font-size="10.00">+ callinfo_self</text>
<text text-anchor="start" x="676" y="-37.5" font-family="Helvetica,sans-Serif" font-size="10.00">+ irep</text>
<text text-anchor="start" x="676" y="-26.5" font-family="Helvetica,sans-Serif" font-size="10.00">+ ret_val</text>
<polyline fill="none" stroke="black" points="668,-19.5 817,-19.5 "/>
<text text-anchor="middle" x="742.5" y="-7.5" font-family="Helvetica,sans-Serif" font-size="10.00"> </text>
</a>
</g>
</g>
<!-- Node1&#45;&gt;Node6 -->
<g id="edge5" class="edge">
<title>Node1&#45;&gt;Node6</title>
<path fill="none" stroke="midnightblue" d="M624.53,-132.53C638.72,-122.84 654.52,-112.06 669.83,-101.61"/>
<polygon fill="none" stroke="midnightblue" points="622.21,-129.88 615.93,-138.4 626.16,-135.66 622.21,-129.88"/>
</g>
<!-- Node7 -->
<g id="node7" class="node">
<title>Node7</title>
<g id="a_node7"><a xlink:href="struct_r_range.html" target="_top" xlink:title="Range object.">
<polygon fill="white" stroke="black" points="835,-6 835,-96 984,-96 984,-6 835,-6"/>
<text text-anchor="middle" x="909.5" y="-84" font-family="Helvetica,sans-Serif" font-size="10.00">RRange</text>
<polyline fill="none" stroke="black" points="835,-77 984,-77 "/>
<text text-anchor="start" x="843" y="-65" font-family="Helvetica,sans-Serif" font-size="10.00">+ MRBC_OBJECT_HEADER</text>
<text text-anchor="start" x="843" y="-54" font-family="Helvetica,sans-Serif" font-size="10.00">+ flag_exclude</text>
<text text-anchor="start" x="843" y="-43" font-family="Helvetica,sans-Serif" font-size="10.00">+ first</text>
<text text-anchor="start" x="843" y="-32" font-family="Helvetica,sans-Serif" font-size="10.00">+ last</text>
<polyline fill="none" stroke="black" points="835,-25 984,-25 "/>
<text text-anchor="middle" x="909.5" y="-13" font-family="Helvetica,sans-Serif" font-size="10.00"> </text>
</a>
</g>
</g>
<!-- Node1&#45;&gt;Node7 -->
<g id="edge6" class="edge">
<title>Node1&#45;&gt;Node7</title>
<path fill="none" stroke="midnightblue" d="M660.16,-150.86C709.79,-140.42 773.03,-124.35 826.5,-102 830.85,-100.18 835.23,-98.17 839.6,-96.01"/>
<polygon fill="none" stroke="midnightblue" points="659.19,-147.49 650.1,-152.94 660.61,-154.34 659.19,-147.49"/>
</g>
<!-- Node8 -->
<g id="node8" class="node">
<title>Node8</title>
<g id="a_node8"><a xlink:href="struct_r_string.html" target="_top" xlink:title="String object.">
<polygon fill="white" stroke="black" points="1002,-11.5 1002,-90.5 1151,-90.5 1151,-11.5 1002,-11.5"/>
<text text-anchor="middle" x="1076.5" y="-78.5" font-family="Helvetica,sans-Serif" font-size="10.00">RString</text>
<polyline fill="none" stroke="black" points="1002,-71.5 1151,-71.5 "/>
<text text-anchor="start" x="1010" y="-59.5" font-family="Helvetica,sans-Serif" font-size="10.00">+ MRBC_OBJECT_HEADER</text>
<text text-anchor="start" x="1010" y="-48.5" font-family="Helvetica,sans-Serif" font-size="10.00">+ size</text>
<text text-anchor="start" x="1010" y="-37.5" font-family="Helvetica,sans-Serif" font-size="10.00">+ data</text>
<polyline fill="none" stroke="black" points="1002,-30.5 1151,-30.5 "/>
<text text-anchor="middle" x="1076.5" y="-18.5" font-family="Helvetica,sans-Serif" font-size="10.00"> </text>
</a>
</g>
</g>
<!-- Node1&#45;&gt;Node8 -->
<g id="edge7" class="edge">
<title>Node1&#45;&gt;Node8</title>
<path fill="none" stroke="midnightblue" d="M660.13,-162.67C746.29,-157.08 882.6,-142.11 993.5,-102 1001.88,-98.97 1010.35,-95.05 1018.52,-90.74"/>
<polygon fill="none" stroke="midnightblue" points="659.9,-159.18 650.13,-163.29 660.33,-166.17 659.9,-159.18"/>
</g>
</g>
</svg>
