<?xml version="1.0" encoding="UTF-8" standalone="no"?>
<!DOCTYPE svg PUBLIC "-//W3C//DTD SVG 1.1//EN"
 "http://www.w3.org/Graphics/SVG/1.1/DTD/svg11.dtd">
<!-- Generated by graphviz version 3.0.0 (20220226.1711)
 -->
<!-- Title: RException Pages: 1 -->
<svg width="340pt" height="204pt"
 viewBox="0.00 0.00 340.00 204.00" xmlns="http://www.w3.org/2000/svg" xmlns:xlink="http://www.w3.org/1999/xlink">
<g id="graph0" class="graph" transform="scale(1 1) rotate(0) translate(4 200)">
<title>RException</title>
<polygon fill="white" stroke="transparent" points="-4,4 -4,-200 336,-200 336,4 -4,4"/>
<!-- Node1 -->
<g id="node1" class="node">
<title>Node1</title>
<g id="a_node1"><a xlink:title="Exception object.">
<polygon fill="#bfbfbf" stroke="black" points="45,-0.5 45,-79.5 194,-79.5 194,-0.5 45,-0.5"/>
<text text-anchor="middle" x="119.5" y="-67.5" font-family="Helvetica,sans-Serif" font-size="10.00">RException</text>
<polyline fill="none" stroke="black" points="45,-60.5 194,-60.5 "/>
<text text-anchor="start" x="53" y="-48.5" font-family="Helvetica,sans-Serif" font-size="10.00">+ MRBC_OBJECT_HEADER</text>
<text text-anchor="start" x="53" y="-37.5" font-family="Helvetica,sans-Serif" font-size="10.00">+ message_size</text>
<text text-anchor="start" x="53" y="-26.5" font-family="Helvetica,sans-Serif" font-size="10.00">+ message</text>
<polyline fill="none" stroke="black" points="45,-19.5 194,-19.5 "/>
<text text-anchor="middle" x="119.5" y="-7.5" font-family="Helvetica,sans-Serif" font-size="10.00"> </text>
</a>
</g>
</g>
<!-- Node2 -->
<g id="node2" class="node">
<title>Node2</title>
<g id="a_node2"><a xlink:href="struct_r_basic.html" target="_top" xlink:title="Base class for some objects.">
<polygon fill="white" stroke="black" points="0,-133 0,-190 149,-190 149,-133 0,-133"/>
<text text-anchor="middle" x="74.5" y="-178" font-family="Helvetica,sans-Serif" font-size="10.00">RBasic</text>
<polyline fill="none" stroke="black" points="0,-171 149,-171 "/>
<text text-anchor="start" x="8" y="-159" font-family="Helvetica,sans-Serif" font-size="10.00">+ MRBC_OBJECT_HEADER</text>
<polyline fill="none" stroke="black" points="0,-152 149,-152 "/>
<text text-anchor="middle" x="74.5" y="-140" font-family="Helvetica,sans-Serif" font-size="10.00"> </text>
</a>
</g>
</g>
<!-- Node2&#45;&gt;Node1 -->
<g id="edge1" class="edge">
<title>Node2&#45;&gt;Node1</title>
<path fill="none" stroke="midnightblue" d="M88.57,-123.14C93.75,-109.38 99.63,-93.77 104.86,-79.88"/>
<polygon fill="none" stroke="midnightblue" points="85.19,-122.19 84.94,-132.78 91.74,-124.66 85.19,-122.19"/>
</g>
<!-- Node3 -->
<g id="node3" class="node">
<title>Node3</title>
<g id="a_node3"><a xlink:href="struct_r_class.html" target="_top" xlink:title="Class object.">
<polygon fill="white" stroke="red" points="167,-127.5 167,-195.5 280,-195.5 280,-127.5 167,-127.5"/>
<text text-anchor="middle" x="223.5" y="-183.5" font-family="Helvetica,sans-Serif" font-size="10.00">RClass</text>
<polyline fill="none" stroke="red" points="167,-176.5 280,-176.5 "/>
<text text-anchor="start" x="175" y="-164.5" font-family="Helvetica,sans-Serif" font-size="10.00">+ sym_id</text>
<text text-anchor="start" x="175" y="-153.5" font-family="Helvetica,sans-Serif" font-size="10.00">+ num_builtin_method</text>
<polyline fill="none" stroke="red" points="167,-146.5 280,-146.5 "/>
<text text-anchor="middle" x="223.5" y="-134.5" font-family="Helvetica,sans-Serif" font-size="10.00"> </text>
</a>
</g>
</g>
<!-- Node3&#45;&gt;Node1 -->
<g id="edge2" class="edge">
<title>Node3&#45;&gt;Node1</title>
<path fill="none" stroke="#404040" d="M194.53,-127.21C184.18,-115.32 172.3,-101.67 161.1,-88.8"/>
<polygon fill="none" stroke="#404040" points="160.97,-88.65 154.01,-86.75 153.09,-79.6 160.05,-81.5 160.97,-88.65"/>
<text text-anchor="middle" x="188.5" y="-101" font-family="Helvetica,sans-Serif" font-size="10.00"> +cls</text>
</g>
<!-- Node3&#45;&gt;Node3 -->
<g id="edge3" class="edge">
<title>Node3&#45;&gt;Node3</title>
<path fill="none" stroke="#404040" d="M280.03,-171.82C290.57,-170.55 298,-167.11 298,-161.5 298,-158.35 295.65,-155.88 291.72,-154.1"/>
<polygon fill="none" stroke="#404040" points="291.67,-154.08 284.88,-156.52 280.03,-151.18 286.81,-148.75 291.67,-154.08"/>
<text text-anchor="middle" x="315" y="-159" font-family="Helvetica,sans-Serif" font-size="10.00"> +super</text>
</g>
</g>
</svg>
