<?xml version="1.0" encoding="UTF-8" standalone="no"?>
<!DOCTYPE svg PUBLIC "-//W3C//DTD SVG 1.1//EN"
 "http://www.w3.org/Graphics/SVG/1.1/DTD/svg11.dtd">
<!-- Generated by graphviz version 3.0.0 (20220226.1711)
 -->
<!-- Title: RClass Pages: 1 -->
<svg width="121pt" height="248pt"
 viewBox="0.00 0.00 121.00 248.00" xmlns="http://www.w3.org/2000/svg" xmlns:xlink="http://www.w3.org/1999/xlink">
<g id="graph0" class="graph" transform="scale(1 1) rotate(0) translate(4 244)">
<title>RClass</title>
<polygon fill="white" stroke="transparent" points="-4,4 -4,-244 117,-244 117,4 -4,4"/>
<!-- Node1 -->
<g id="node1" class="node">
<title>Node1</title>
<g id="a_node1"><a xlink:title="Class object.">
<polygon fill="#bfbfbf" stroke="black" points="0,-149.5 0,-239.5 113,-239.5 113,-149.5 0,-149.5"/>
<text text-anchor="middle" x="56.5" y="-227.5" font-family="Helvetica,sans-Serif" font-size="10.00">RClass</text>
<polyline fill="none" stroke="black" points="0,-220.5 113,-220.5 "/>
<text text-anchor="start" x="8" y="-208.5" font-family="Helvetica,sans-Serif" font-size="10.00">+ sym_id</text>
<text text-anchor="start" x="8" y="-197.5" font-family="Helvetica,sans-Serif" font-size="10.00">+ num_builtin_method</text>
<text text-anchor="start" x="8" y="-186.5" font-family="Helvetica,sans-Serif" font-size="10.00">+ super</text>
<text text-anchor="start" x="8" y="-175.5" font-family="Helvetica,sans-Serif" font-size="10.00">+ method_link</text>
<polyline fill="none" stroke="black" points="0,-168.5 113,-168.5 "/>
<text text-anchor="middle" x="56.5" y="-156.5" font-family="Helvetica,sans-Serif" font-size="10.00"> </text>
</a>
</g>
</g>
<!-- Node2 -->
<g id="node2" class="node">
<title>Node2</title>
<g id="a_node2"><a xlink:href="struct_r_builtin_class.html" target="_top" xlink:title="Built&#45;in class object.">
<polygon fill="white" stroke="black" points="0,-0.5 0,-112.5 113,-112.5 113,-0.5 0,-0.5"/>
<text text-anchor="middle" x="56.5" y="-100.5" font-family="Helvetica,sans-Serif" font-size="10.00">RBuiltinClass</text>
<polyline fill="none" stroke="black" points="0,-93.5 113,-93.5 "/>
<text text-anchor="start" x="8" y="-81.5" font-family="Helvetica,sans-Serif" font-size="10.00">+ sym_id</text>
<text text-anchor="start" x="8" y="-70.5" font-family="Helvetica,sans-Serif" font-size="10.00">+ num_builtin_method</text>
<text text-anchor="start" x="8" y="-59.5" font-family="Helvetica,sans-Serif" font-size="10.00">+ super</text>
<text text-anchor="start" x="8" y="-48.5" font-family="Helvetica,sans-Serif" font-size="10.00">+ method_link</text>
<text text-anchor="start" x="8" y="-37.5" font-family="Helvetica,sans-Serif" font-size="10.00">+ method_symbols</text>
<text text-anchor="start" x="8" y="-26.5" font-family="Helvetica,sans-Serif" font-size="10.00">+ method_functions</text>
<polyline fill="none" stroke="black" points="0,-19.5 113,-19.5 "/>
<text text-anchor="middle" x="56.5" y="-7.5" font-family="Helvetica,sans-Serif" font-size="10.00"> </text>
</a>
</g>
</g>
<!-- Node1&#45;&gt;Node2 -->
<g id="edge1" class="edge">
<title>Node1&#45;&gt;Node2</title>
<path fill="none" stroke="midnightblue" d="M56.5,-139.31C56.5,-130.61 56.5,-121.59 56.5,-112.87"/>
<polygon fill="none" stroke="midnightblue" points="53,-139.34 56.5,-149.34 60,-139.34 53,-139.34"/>
</g>
</g>
</svg>
