<?xml version="1.0" encoding="UTF-8" standalone="no"?>
<!DOCTYPE svg PUBLIC "-//W3C//DTD SVG 1.1//EN"
 "http://www.w3.org/Graphics/SVG/1.1/DTD/svg11.dtd">
<!-- Generated by graphviz version 3.0.0 (20220226.1711)
 -->
<!-- Title: RClass Pages: 1 -->
<svg width="173pt" height="226pt"
 viewBox="0.00 0.00 173.00 226.00" xmlns="http://www.w3.org/2000/svg" xmlns:xlink="http://www.w3.org/1999/xlink">
<g id="graph0" class="graph" transform="scale(1 1) rotate(0) translate(4 222)">
<title>RClass</title>
<polygon fill="white" stroke="transparent" points="-4,4 -4,-222 169,-222 169,4 -4,4"/>
<!-- Node1 -->
<g id="node1" class="node">
<title>Node1</title>
<g id="a_node1"><a xlink:title="Class object.">
<polygon fill="#bfbfbf" stroke="black" points="0,-149.5 0,-217.5 113,-217.5 113,-149.5 0,-149.5"/>
<text text-anchor="middle" x="56.5" y="-205.5" font-family="Helvetica,sans-Serif" font-size="10.00">RClass</text>
<polyline fill="none" stroke="black" points="0,-198.5 113,-198.5 "/>
<text text-anchor="start" x="8" y="-186.5" font-family="Helvetica,sans-Serif" font-size="10.00">+ sym_id</text>
<text text-anchor="start" x="8" y="-175.5" font-family="Helvetica,sans-Serif" font-size="10.00">+ num_builtin_method</text>
<polyline fill="none" stroke="black" points="0,-168.5 113,-168.5 "/>
<text text-anchor="middle" x="56.5" y="-156.5" font-family="Helvetica,sans-Serif" font-size="10.00"> </text>
</a>
</g>
</g>
<!-- Node1&#45;&gt;Node1 -->
<g id="edge1" class="edge">
<title>Node1&#45;&gt;Node1</title>
<path fill="none" stroke="#404040" d="M113.03,-193.82C123.57,-192.55 131,-189.11 131,-183.5 131,-180.35 128.65,-177.88 124.72,-176.1"/>
<polygon fill="none" stroke="#404040" points="124.67,-176.08 117.88,-178.52 113.03,-173.18 119.81,-170.75 124.67,-176.08"/>
<text text-anchor="middle" x="148" y="-181" font-family="Helvetica,sans-Serif" font-size="10.00"> +super</text>
</g>
<!-- Node2 -->
<g id="node2" class="node">
<title>Node2</title>
<g id="a_node2"><a xlink:href="struct_r_method.html" target="_top" xlink:title="Method management structure.">
<polygon fill="white" stroke="red" points="28,-0.5 28,-101.5 85,-101.5 85,-0.5 28,-0.5"/>
<text text-anchor="middle" x="56.5" y="-89.5" font-family="Helvetica,sans-Serif" font-size="10.00">RMethod</text>
<polyline fill="none" stroke="red" points="28,-82.5 85,-82.5 "/>
<text text-anchor="start" x="36" y="-70.5" font-family="Helvetica,sans-Serif" font-size="10.00">+ type</text>
<text text-anchor="start" x="36" y="-59.5" font-family="Helvetica,sans-Serif" font-size="10.00">+ c_func</text>
<text text-anchor="start" x="36" y="-48.5" font-family="Helvetica,sans-Serif" font-size="10.00">+ sym_id</text>
<text text-anchor="start" x="36" y="-37.5" font-family="Helvetica,sans-Serif" font-size="10.00">+ @1</text>
<text text-anchor="start" x="36" y="-26.5" font-family="Helvetica,sans-Serif" font-size="10.00">+ @3</text>
<polyline fill="none" stroke="red" points="28,-19.5 85,-19.5 "/>
<text text-anchor="middle" x="56.5" y="-7.5" font-family="Helvetica,sans-Serif" font-size="10.00"> </text>
</a>
</g>
</g>
<!-- Node1&#45;&gt;Node2 -->
<g id="edge4" class="edge">
<title>Node1&#45;&gt;Node2</title>
<path fill="none" stroke="#404040" d="M37.69,-149.23C35.13,-143.32 32.9,-137.1 31.5,-131 30.2,-125.34 29.93,-119.5 30.4,-113.68"/>
<polygon fill="none" stroke="#404040" points="30.4,-113.66 27.41,-107.1 32.31,-101.81 35.3,-108.37 30.4,-113.66"/>
<text text-anchor="middle" x="42.5" y="-123" font-family="Helvetica,sans-Serif" font-size="10.00"> +cls</text>
</g>
<!-- Node2&#45;&gt;Node1 -->
<g id="edge2" class="edge">
<title>Node2&#45;&gt;Node1</title>
<path fill="none" stroke="#404040" d="M57.47,-101.73C57.56,-111.43 57.59,-121.54 57.5,-131 57.48,-133.03 57.46,-135.1 57.43,-137.2"/>
<polygon fill="none" stroke="#404040" points="57.43,-137.26 61.33,-143.32 57.24,-149.26 53.33,-143.2 57.43,-137.26"/>
<text text-anchor="middle" x="88.5" y="-123" font-family="Helvetica,sans-Serif" font-size="10.00"> +method_link</text>
</g>
<!-- Node2&#45;&gt;Node2 -->
<g id="edge3" class="edge">
<title>Node2&#45;&gt;Node2</title>
<path fill="none" stroke="#404040" d="M85.11,-64.87C95.01,-65.02 103,-60.39 103,-51 103,-45.86 100.61,-42.15 96.82,-39.87"/>
<polygon fill="none" stroke="#404040" points="96.79,-39.86 90.04,-42.39 85.11,-37.13 91.86,-34.6 96.79,-39.86"/>
<text text-anchor="middle" x="117" y="-48.5" font-family="Helvetica,sans-Serif" font-size="10.00"> +next</text>
</g>
</g>
</svg>
