<?xml version="1.0" encoding="UTF-8" standalone="no"?>
<!DOCTYPE svg PUBLIC "-//W3C//DTD SVG 1.1//EN"
 "http://www.w3.org/Graphics/SVG/1.1/DTD/svg11.dtd">
<!-- Generated by graphviz version 3.0.0 (20220226.1711)
 -->
<!-- Title: RPrintf Pages: 1 -->
<svg width="86pt" height="270pt"
 viewBox="0.00 0.00 86.00 270.00" xmlns="http://www.w3.org/2000/svg" xmlns:xlink="http://www.w3.org/1999/xlink">
<g id="graph0" class="graph" transform="scale(1 1) rotate(0) translate(4 266)">
<title>RPrintf</title>
<polygon fill="white" stroke="transparent" points="-4,4 -4,-266 82,-266 82,4 -4,4"/>
<!-- Node1 -->
<g id="node1" class="node">
<title>Node1</title>
<g id="a_node1"><a xlink:title="printf tiny (mruby/c) version data container.">
<polygon fill="#bfbfbf" stroke="black" points="9,-0.5 9,-90.5 69,-90.5 69,-0.5 9,-0.5"/>
<text text-anchor="middle" x="39" y="-78.5" font-family="Helvetica,sans-Serif" font-size="10.00">RPrintf</text>
<polyline fill="none" stroke="black" points="9,-71.5 69,-71.5 "/>
<text text-anchor="start" x="17" y="-59.5" font-family="Helvetica,sans-Serif" font-size="10.00">+ buf</text>
<text text-anchor="start" x="17" y="-48.5" font-family="Helvetica,sans-Serif" font-size="10.00">+ buf_end</text>
<text text-anchor="start" x="17" y="-37.5" font-family="Helvetica,sans-Serif" font-size="10.00">+ p</text>
<text text-anchor="start" x="17" y="-26.5" font-family="Helvetica,sans-Serif" font-size="10.00">+ fstr</text>
<polyline fill="none" stroke="black" points="9,-19.5 69,-19.5 "/>
<text text-anchor="middle" x="39" y="-7.5" font-family="Helvetica,sans-Serif" font-size="10.00"> </text>
</a>
</g>
</g>
<!-- Node2 -->
<g id="node2" class="node">
<title>Node2</title>
<g id="a_node2"><a xlink:href="struct_r_printf_format.html" target="_top" xlink:title="printf tiny (mruby/c) version format container.">
<polygon fill="white" stroke="black" points="0,-138.5 0,-261.5 78,-261.5 78,-138.5 0,-138.5"/>
<text text-anchor="middle" x="39" y="-249.5" font-family="Helvetica,sans-Serif" font-size="10.00">RPrintfFormat</text>
<polyline fill="none" stroke="black" points="0,-242.5 78,-242.5 "/>
<text text-anchor="start" x="8" y="-230.5" font-family="Helvetica,sans-Serif" font-size="10.00">+ type</text>
<text text-anchor="start" x="8" y="-219.5" font-family="Helvetica,sans-Serif" font-size="10.00">+ flag_plus</text>
<text text-anchor="start" x="8" y="-208.5" font-family="Helvetica,sans-Serif" font-size="10.00">+ flag_minus</text>
<text text-anchor="start" x="8" y="-197.5" font-family="Helvetica,sans-Serif" font-size="10.00">+ flag_space</text>
<text text-anchor="start" x="8" y="-186.5" font-family="Helvetica,sans-Serif" font-size="10.00">+ flag_zero</text>
<text text-anchor="start" x="8" y="-175.5" font-family="Helvetica,sans-Serif" font-size="10.00">+ width</text>
<text text-anchor="start" x="8" y="-164.5" font-family="Helvetica,sans-Serif" font-size="10.00">+ precision</text>
<polyline fill="none" stroke="black" points="0,-157.5 78,-157.5 "/>
<text text-anchor="middle" x="39" y="-145.5" font-family="Helvetica,sans-Serif" font-size="10.00"> </text>
</a>
</g>
</g>
<!-- Node2&#45;&gt;Node1 -->
<g id="edge1" class="edge">
<title>Node2&#45;&gt;Node1</title>
<path fill="none" stroke="#404040" d="M39,-138.29C39,-126.58 39,-114.36 39,-102.79"/>
<polygon fill="none" stroke="#404040" points="39,-102.56 35,-96.56 39,-90.56 43,-96.56 39,-102.56"/>
<text text-anchor="middle" x="51" y="-112" font-family="Helvetica,sans-Serif" font-size="10.00"> +fmt</text>
</g>
</g>
</svg>
