<?xml version="1.0" encoding="UTF-8" standalone="no"?>
<!DOCTYPE svg PUBLIC "-//W3C//DTD SVG 1.1//EN"
 "http://www.w3.org/Graphics/SVG/1.1/DTD/svg11.dtd">
<!-- Generated by graphviz version 3.0.0 (20220226.1711)
 -->
<!-- Title: RMutex Pages: 1 -->
<svg width="162pt" height="237pt"
 viewBox="0.00 0.00 162.00 237.00" xmlns="http://www.w3.org/2000/svg" xmlns:xlink="http://www.w3.org/1999/xlink">
<g id="graph0" class="graph" transform="scale(1 1) rotate(0) translate(4 233)">
<title>RMutex</title>
<polygon fill="white" stroke="transparent" points="-4,4 -4,-233 158,-233 158,4 -4,4"/>
<!-- Node1 -->
<g id="node1" class="node">
<title>Node1</title>
<g id="a_node1"><a xlink:title="Mutex.">
<polygon fill="#bfbfbf" stroke="black" points="28.5,-171.5 28.5,-228.5 79.5,-228.5 79.5,-171.5 28.5,-171.5"/>
<text text-anchor="middle" x="54" y="-216.5" font-family="Helvetica,sans-Serif" font-size="10.00">RMutex</text>
<polyline fill="none" stroke="black" points="28.5,-209.5 79.5,-209.5 "/>
<text text-anchor="start" x="36.5" y="-197.5" font-family="Helvetica,sans-Serif" font-size="10.00">+ lock</text>
<polyline fill="none" stroke="black" points="28.5,-190.5 79.5,-190.5 "/>
<text text-anchor="middle" x="54" y="-178.5" font-family="Helvetica,sans-Serif" font-size="10.00"> </text>
</a>
</g>
</g>
<!-- Node2 -->
<g id="node2" class="node">
<title>Node2</title>
<g id="a_node2"><a xlink:href="struct_r_tcb.html" target="_top" xlink:title="Task control block.">
<polygon fill="white" stroke="red" points="0,-0.5 0,-123.5 108,-123.5 108,-0.5 0,-0.5"/>
<text text-anchor="middle" x="54" y="-111.5" font-family="Helvetica,sans-Serif" font-size="10.00">RTcb</text>
<polyline fill="none" stroke="red" points="0,-104.5 108,-104.5 "/>
<text text-anchor="start" x="8" y="-92.5" font-family="Helvetica,sans-Serif" font-size="10.00">+ priority</text>
<text text-anchor="start" x="8" y="-81.5" font-family="Helvetica,sans-Serif" font-size="10.00">+ priority_preemption</text>
<text text-anchor="start" x="8" y="-70.5" font-family="Helvetica,sans-Serif" font-size="10.00">+ timeslice</text>
<text text-anchor="start" x="8" y="-59.5" font-family="Helvetica,sans-Serif" font-size="10.00">+ state</text>
<text text-anchor="start" x="8" y="-48.5" font-family="Helvetica,sans-Serif" font-size="10.00">+ reason</text>
<text text-anchor="start" x="8" y="-37.5" font-family="Helvetica,sans-Serif" font-size="10.00">+ wakeup_tick</text>
<text text-anchor="start" x="8" y="-26.5" font-family="Helvetica,sans-Serif" font-size="10.00">+ @7</text>
<polyline fill="none" stroke="red" points="0,-19.5 108,-19.5 "/>
<text text-anchor="middle" x="54" y="-7.5" font-family="Helvetica,sans-Serif" font-size="10.00"> </text>
</a>
</g>
</g>
<!-- Node1&#45;&gt;Node2 -->
<g id="edge3" class="edge">
<title>Node1&#45;&gt;Node2</title>
<path fill="none" stroke="#404040" d="M30.06,-171.31C26.33,-165.59 23.05,-159.36 21,-153 19.18,-147.36 18.51,-141.54 18.7,-135.71"/>
<polygon fill="none" stroke="#404040" points="18.71,-135.67 15.49,-129.22 20.21,-123.77 23.43,-130.22 18.71,-135.67"/>
<text text-anchor="middle" x="39.5" y="-145" font-family="Helvetica,sans-Serif" font-size="10.00"> +mutex</text>
</g>
<!-- Node2&#45;&gt;Node1 -->
<g id="edge1" class="edge">
<title>Node2&#45;&gt;Node1</title>
<path fill="none" stroke="#404040" d="M62.29,-123.51C62.8,-133.37 62.82,-143.47 62,-153 61.82,-155.05 61.6,-157.15 61.35,-159.27"/>
<polygon fill="none" stroke="#404040" points="61.32,-159.49 64.42,-166 59.6,-171.37 56.5,-164.86 61.32,-159.49"/>
<text text-anchor="middle" x="73.5" y="-145" font-family="Helvetica,sans-Serif" font-size="10.00"> +tcb</text>
</g>
<!-- Node2&#45;&gt;Node2 -->
<g id="edge2" class="edge">
<title>Node2&#45;&gt;Node2</title>
<path fill="none" stroke="#404040" d="M108.01,-77.05C118.53,-75.3 126,-70.29 126,-62 126,-57.21 123.5,-53.51 119.36,-50.91"/>
<polygon fill="none" stroke="#404040" points="119.34,-50.9 112.36,-52.7 108.01,-46.95 114.99,-45.15 119.34,-50.9"/>
<text text-anchor="middle" x="140" y="-59.5" font-family="Helvetica,sans-Serif" font-size="10.00"> +next</text>
</g>
</g>
</svg>
