<?xml version="1.0" encoding="UTF-8" standalone="no"?>
<!DOCTYPE svg PUBLIC "-//W3C//DTD SVG 1.1//EN"
 "http://www.w3.org/Graphics/SVG/1.1/DTD/svg11.dtd">
<!-- Generated by graphviz version 3.0.0 (20220226.1711)
 -->
<!-- Title: RMethod Pages: 1 -->
<!--zoomable 623 -->
<svg id="main" version="1.1" xmlns="http://www.w3.org/2000/svg" xmlns:xlink="http://www.w3.org/1999/xlink" xml:space="preserve" onload="init(evt)">
<style type="text/css"><![CDATA[
.edge:hover path { stroke: red; }
.edge:hover polygon { stroke: red; fill: red; }
]]></style>
<script type="text/javascript"><![CDATA[
var edges = document.getElementsByTagName('g');
if (edges && edges.length) {
  for (var i=0;i<edges.length;i++) {
    if (edges[i].id.substr(0,4)=='edge') {
      edges[i].setAttribute('class','edge');
    }
  }
}
]]></script>
        <defs>
                <circle id="rim" cx="0" cy="0" r="7"/>
                <circle id="rim2" cx="0" cy="0" r="3.5"/>
                <g id="zoomPlus">
                        <use xlink:href="#rim" fill="#404040">
                                <set attributeName="fill" to="#808080" begin="zoomplus.mouseover" end="zoomplus.mouseout"/>
                        </use>
                        <path d="M-4,0h8M0,-4v8" fill="none" stroke="white" stroke-width="1.5" pointer-events="none"/>
                </g>
                <g id="zoomMin">
                        <use xlink:href="#rim" fill="#404040">
                                <set attributeName="fill" to="#808080" begin="zoomminus.mouseover" end="zoomminus.mouseout"/>
                        </use>
                        <path d="M-4,0h8" fill="none" stroke="white" stroke-width="1.5" pointer-events="none"/>
                </g>
                <g id="dirArrow">
                        <path fill="none" stroke="white" stroke-width="1.5" d="M0,-3.0v7 M-2.5,-0.5L0,-3.0L2.5,-0.5"/>
                </g>
               <g id="resetDef">
                       <use xlink:href="#rim2" fill="#404040">
                               <set attributeName="fill" to="#808080" begin="reset.mouseover" end="reset.mouseout"/>
                       </use>
               </g>
        </defs>

<script type="text/javascript">
var viewWidth = 289;
var viewHeight = 623;
var sectionId = 'dynsection-0';
</script>
<script xlink:href="svgpan.js"/>
<svg id="graph" class="graph">
<g id="viewport">
<title>RMethod</title>
<polygon fill="white" stroke="transparent" points="-4,4 -4,-619 284.5,-619 284.5,4 -4,4"/>
<!-- Node1 -->
<g id="node1" class="node">
<title>Node1</title>
<g id="a_node1"><a xlink:title="Method management structure.">
<polygon fill="#bfbfbf" stroke="black" points="123,-298.5 123,-399.5 180,-399.5 180,-298.5 123,-298.5"/>
<text text-anchor="middle" x="151.5" y="-387.5" font-family="Helvetica,sans-Serif" font-size="10.00">RMethod</text>
<polyline fill="none" stroke="black" points="123,-380.5 180,-380.5 "/>
<text text-anchor="start" x="131" y="-368.5" font-family="Helvetica,sans-Serif" font-size="10.00">+ type</text>
<text text-anchor="start" x="131" y="-357.5" font-family="Helvetica,sans-Serif" font-size="10.00">+ c_func</text>
<text text-anchor="start" x="131" y="-346.5" font-family="Helvetica,sans-Serif" font-size="10.00">+ sym_id</text>
<text text-anchor="start" x="131" y="-335.5" font-family="Helvetica,sans-Serif" font-size="10.00">+ @1</text>
<text text-anchor="start" x="131" y="-324.5" font-family="Helvetica,sans-Serif" font-size="10.00">+ @3</text>
<polyline fill="none" stroke="black" points="123,-317.5 180,-317.5 "/>
<text text-anchor="middle" x="151.5" y="-305.5" font-family="Helvetica,sans-Serif" font-size="10.00"> </text>
</a>
</g>
</g>
<!-- Node1&#45;&gt;Node1 -->
<g id="edge7" class="edge">
<title>Node1&#45;&gt;Node1</title>
<path fill="none" stroke="#404040" d="M180.11,-362.87C190.01,-363.02 198,-358.39 198,-349 198,-343.86 195.61,-340.15 191.82,-337.87"/>
<polygon fill="none" stroke="#404040" points="191.79,-337.86 185.04,-340.39 180.11,-335.13 186.86,-332.6 191.79,-337.86"/>
<text text-anchor="middle" x="212" y="-346.5" font-family="Helvetica,sans-Serif" font-size="10.00"> +next</text>
</g>
<!-- Node6 -->
<g id="node4" class="node">
<title>Node6</title>
<g id="a_node4"><a xlink:href="struct_r_class.html" target="_top" xlink:title="Class object.">
<polygon fill="white" stroke="black" points="0,-171.5 0,-239.5 113,-239.5 113,-171.5 0,-171.5"/>
<text text-anchor="middle" x="56.5" y="-227.5" font-family="Helvetica,sans-Serif" font-size="10.00">RClass</text>
<polyline fill="none" stroke="black" points="0,-220.5 113,-220.5 "/>
<text text-anchor="start" x="8" y="-208.5" font-family="Helvetica,sans-Serif" font-size="10.00">+ sym_id</text>
<text text-anchor="start" x="8" y="-197.5" font-family="Helvetica,sans-Serif" font-size="10.00">+ num_builtin_method</text>
<polyline fill="none" stroke="black" points="0,-190.5 113,-190.5 "/>
<text text-anchor="middle" x="56.5" y="-178.5" font-family="Helvetica,sans-Serif" font-size="10.00"> </text>
</a>
</g>
</g>
<!-- Node1&#45;&gt;Node6 -->
<g id="edge6" class="edge">
<title>Node1&#45;&gt;Node6</title>
<path fill="none" stroke="#404040" d="M122.6,-334.58C101.72,-323.22 74.92,-304.8 61.5,-280 56.88,-271.46 54.56,-261.52 53.58,-251.76"/>
<polygon fill="none" stroke="#404040" points="53.58,-251.6 49.29,-245.8 52.99,-239.61 57.28,-245.41 53.58,-251.6"/>
<text text-anchor="middle" x="92.5" y="-266.5" font-family="Helvetica,sans-Serif" font-size="10.00"> +method_link</text>
</g>
<!-- Node2 -->
<g id="node2" class="node">
<title>Node2</title>
<g id="a_node2"><a xlink:href="struct_i_r_e_p.html" target="_top" xlink:title="IREP Internal REPresentation.">
<polygon fill="white" stroke="black" points="174,-447.5 174,-614.5 239,-614.5 239,-447.5 174,-447.5"/>
<text text-anchor="middle" x="206.5" y="-602.5" font-family="Helvetica,sans-Serif" font-size="10.00">IREP</text>
<polyline fill="none" stroke="black" points="174,-595.5 239,-595.5 "/>
<text text-anchor="start" x="182" y="-583.5" font-family="Helvetica,sans-Serif" font-size="10.00">+ nlocals</text>
<text text-anchor="start" x="182" y="-572.5" font-family="Helvetica,sans-Serif" font-size="10.00">+ nregs</text>
<text text-anchor="start" x="182" y="-561.5" font-family="Helvetica,sans-Serif" font-size="10.00">+ rlen</text>
<text text-anchor="start" x="182" y="-550.5" font-family="Helvetica,sans-Serif" font-size="10.00">+ clen</text>
<text text-anchor="start" x="182" y="-539.5" font-family="Helvetica,sans-Serif" font-size="10.00">+ ilen</text>
<text text-anchor="start" x="182" y="-528.5" font-family="Helvetica,sans-Serif" font-size="10.00">+ plen</text>
<text text-anchor="start" x="182" y="-517.5" font-family="Helvetica,sans-Serif" font-size="10.00">+ slen</text>
<text text-anchor="start" x="182" y="-506.5" font-family="Helvetica,sans-Serif" font-size="10.00">+ ofs_ireps</text>
<text text-anchor="start" x="182" y="-495.5" font-family="Helvetica,sans-Serif" font-size="10.00">+ inst</text>
<text text-anchor="start" x="182" y="-484.5" font-family="Helvetica,sans-Serif" font-size="10.00">+ pool</text>
<text text-anchor="start" x="182" y="-473.5" font-family="Helvetica,sans-Serif" font-size="10.00">+ data</text>
<polyline fill="none" stroke="black" points="174,-466.5 239,-466.5 "/>
<text text-anchor="middle" x="206.5" y="-454.5" font-family="Helvetica,sans-Serif" font-size="10.00"> </text>
</a>
</g>
</g>
<!-- Node2&#45;&gt;Node1 -->
<g id="edge1" class="edge">
<title>Node2&#45;&gt;Node1</title>
<path fill="none" stroke="#404040" d="M181.25,-447.38C177.54,-435.23 173.78,-422.91 170.23,-411.3"/>
<polygon fill="none" stroke="#404040" points="170.13,-410.98 164.55,-406.41 166.63,-399.5 172.2,-404.07 170.13,-410.98"/>
<text text-anchor="middle" x="187" y="-421" font-family="Helvetica,sans-Serif" font-size="10.00"> +irep</text>
</g>
<!-- Node3 -->
<g id="node3" class="node">
<title>Node3</title>
<g id="a_node3"><a xlink:href="struct_v_m.html" target="_top" xlink:title="Virtual Machine.">
<polygon fill="white" stroke="red" points="146,-0.5 146,-123.5 257,-123.5 257,-0.5 146,-0.5"/>
<text text-anchor="middle" x="201.5" y="-111.5" font-family="Helvetica,sans-Serif" font-size="10.00">VM</text>
<polyline fill="none" stroke="red" points="146,-104.5 257,-104.5 "/>
<text text-anchor="start" x="154" y="-92.5" font-family="Helvetica,sans-Serif" font-size="10.00">+ vm_id</text>
<text text-anchor="start" x="154" y="-81.5" font-family="Helvetica,sans-Serif" font-size="10.00">+ flag_preemption</text>
<text text-anchor="start" x="154" y="-70.5" font-family="Helvetica,sans-Serif" font-size="10.00">+ flag_need_memfree</text>
<text text-anchor="start" x="154" y="-59.5" font-family="Helvetica,sans-Serif" font-size="10.00">+ flag_stop</text>
<text text-anchor="start" x="154" y="-48.5" font-family="Helvetica,sans-Serif" font-size="10.00">+ flag_permanence</text>
<text text-anchor="start" x="154" y="-37.5" font-family="Helvetica,sans-Serif" font-size="10.00">+ regs_size</text>
<text text-anchor="start" x="154" y="-26.5" font-family="Helvetica,sans-Serif" font-size="10.00">+ inst</text>
<polyline fill="none" stroke="red" points="146,-19.5 257,-19.5 "/>
<text text-anchor="middle" x="201.5" y="-7.5" font-family="Helvetica,sans-Serif" font-size="10.00"> </text>
</a>
</g>
</g>
<!-- Node2&#45;&gt;Node3 -->
<g id="edge3" class="edge">
<title>Node2&#45;&gt;Node3</title>
<path fill="none" stroke="#404040" d="M227.81,-447.23C231.01,-431.64 233.8,-415.4 235.5,-400 245.54,-308.88 230.74,-203.77 217.64,-135.5"/>
<polygon fill="none" stroke="#404040" points="217.62,-135.38 212.53,-130.27 215.3,-123.61 220.38,-128.72 217.62,-135.38"/>
<text text-anchor="middle" x="258.5" y="-272" font-family="Helvetica,sans-Serif" font-size="10.00"> +cur_irep</text>
<text text-anchor="middle" x="258.5" y="-261" font-family="Helvetica,sans-Serif" font-size="10.00">+top_irep</text>
</g>
<!-- Node3&#45;&gt;Node1 -->
<g id="edge2" class="edge">
<title>Node3&#45;&gt;Node1</title>
<path fill="none" stroke="#404040" d="M192.13,-123.52C190.59,-133.38 189.01,-143.47 187.5,-153 181.38,-191.68 180.52,-201.47 173.5,-240 170.75,-255.08 167.57,-271.29 164.5,-286.45"/>
<polygon fill="none" stroke="#404040" points="164.47,-286.59 167.18,-293.27 162.06,-298.35 159.35,-291.67 164.47,-286.59"/>
<text text-anchor="middle" x="198.5" y="-203" font-family="Helvetica,sans-Serif" font-size="10.00"> +func</text>
</g>
<!-- Node6&#45;&gt;Node1 -->
<g id="edge8" class="edge">
<title>Node6&#45;&gt;Node1</title>
<path fill="none" stroke="#404040" d="M107.02,-239.65C113.16,-245.23 118.89,-251.38 123.5,-258 129.55,-266.68 134.33,-276.72 138.09,-286.88"/>
<polygon fill="none" stroke="#404040" points="138.12,-286.95 143.82,-291.37 141.93,-298.33 136.23,-293.91 138.12,-286.95"/>
<text text-anchor="middle" x="146.5" y="-266.5" font-family="Helvetica,sans-Serif" font-size="10.00"> +cls</text>
</g>
<!-- Node6&#45;&gt;Node3 -->
<g id="edge4" class="edge">
<title>Node6&#45;&gt;Node3</title>
<path fill="none" stroke="#404040" d="M90.5,-171.32C104.41,-157.75 120.99,-141.57 137.04,-125.91"/>
<polygon fill="none" stroke="#404040" points="137.29,-125.66 138.79,-118.61 145.88,-117.28 144.38,-124.33 137.29,-125.66"/>
<text text-anchor="middle" x="152" y="-145" font-family="Helvetica,sans-Serif" font-size="10.00"> +target_class</text>
</g>
<!-- Node6&#45;&gt;Node6 -->
<g id="edge5" class="edge">
<title>Node6&#45;&gt;Node6</title>
<path fill="none" stroke="#404040" d="M113.03,-215.82C123.57,-214.55 131,-211.11 131,-205.5 131,-202.35 128.65,-199.88 124.72,-198.1"/>
<polygon fill="none" stroke="#404040" points="124.67,-198.08 117.88,-200.52 113.03,-195.18 119.81,-192.75 124.67,-198.08"/>
<text text-anchor="middle" x="148" y="-203" font-family="Helvetica,sans-Serif" font-size="10.00"> +super</text>
</g>
</g>
</svg>
        <g id="navigator" transform="translate(0 0)" fill="#404254">
                <rect fill="#f2f5e9" fill-opacity="0.5" stroke="#606060" stroke-width=".5" x="0" y="0" width="60" height="60"/>
                <use id="zoomplus" xlink:href="#zoomPlus" x="17" y="9" onmousedown="handleZoom(evt,'in')"/>
                <use id="zoomminus" xlink:href="#zoomMin" x="42" y="9" onmousedown="handleZoom(evt,'out')"/>
                <use id="reset" xlink:href="#resetDef" x="30" y="36" onmousedown="handleReset()"/>
                <g id="arrowUp" xlink:href="#dirArrow" transform="translate(30 24)" onmousedown="handlePan(0,-1)">
                  <use xlink:href="#rim" fill="#404040">
                        <set attributeName="fill" to="#808080" begin="arrowUp.mouseover" end="arrowUp.mouseout"/>
                  </use>
                  <path fill="none" stroke="white" stroke-width="1.5" d="M0,-3.0v7 M-2.5,-0.5L0,-3.0L2.5,-0.5"/>
                </g>
                <g id="arrowRight" xlink:href="#dirArrow" transform="rotate(90) translate(36 -43)" onmousedown="handlePan(1,0)">
                  <use xlink:href="#rim" fill="#404040">
                        <set attributeName="fill" to="#808080" begin="arrowRight.mouseover" end="arrowRight.mouseout"/>
                  </use>
                  <path fill="none" stroke="white" stroke-width="1.5" d="M0,-3.0v7 M-2.5,-0.5L0,-3.0L2.5,-0.5"/>
                </g>
                <g id="arrowDown" xlink:href="#dirArrow" transform="rotate(180) translate(-30 -48)" onmousedown="handlePan(0,1)">
                  <use xlink:href="#rim" fill="#404040">
                        <set attributeName="fill" to="#808080" begin="arrowDown.mouseover" end="arrowDown.mouseout"/>
                  </use>
                  <path fill="none" stroke="white" stroke-width="1.5" d="M0,-3.0v7 M-2.5,-0.5L0,-3.0L2.5,-0.5"/>
                </g>
                <g id="arrowLeft" xlink:href="#dirArrow" transform="rotate(270) translate(-36 17)" onmousedown="handlePan(-1,0)">
                  <use xlink:href="#rim" fill="#404040">
                        <set attributeName="fill" to="#808080" begin="arrowLeft.mouseover" end="arrowLeft.mouseout"/>
                  </use>
                  <path fill="none" stroke="white" stroke-width="1.5" d="M0,-3.0v7 M-2.5,-0.5L0,-3.0L2.5,-0.5"/>
                </g>
        </g>
        <svg viewBox="0 0 15 15" width="100%" height="30px" preserveAspectRatio="xMaxYMin meet">
         <g id="arrow_out" transform="scale(0.3 0.3)">
          <a xlink:href="struct_r_method__coll__graph_org.svg" target="_base">
           <rect id="button" ry="5" rx="5" y="6" x="6" height="38" width="38"
                fill="#f2f5e9" fill-opacity="0.5" stroke="#606060" stroke-width="1.0"/>
           <path id="arrow"
             d="M 11.500037,31.436501 C 11.940474,20.09759 22.043105,11.32322 32.158766,21.979434 L 37.068811,17.246167 C 37.068811,17.246167 37.088388,32 37.088388,32 L 22.160133,31.978069 C 22.160133,31.978069 26.997745,27.140456 26.997745,27.140456 C 18.528582,18.264221 13.291696,25.230495 11.500037,31.436501 z"
             style="fill:#404040;"/>
          </a>
         </g>
        </svg>
</svg>
