<?xml version="1.0" encoding="UTF-8" standalone="no"?>
<!DOCTYPE svg PUBLIC "-//W3C//DTD SVG 1.1//EN"
 "http://www.w3.org/Graphics/SVG/1.1/DTD/svg11.dtd">
<!-- Generated by graphviz version 3.0.0 (20220226.1711)
 -->
<!-- Title: mrbc_search_symid Pages: 1 -->
<svg width="279pt" height="104pt"
 viewBox="0.00 0.00 279.00 104.00" xmlns="http://www.w3.org/2000/svg" xmlns:xlink="http://www.w3.org/1999/xlink">
<g id="graph0" class="graph" transform="scale(1 1) rotate(0) translate(4 100)">
<title>mrbc_search_symid</title>
<polygon fill="white" stroke="transparent" points="-4,4 -4,-100 275,-100 275,4 -4,4"/>
<!-- Node1 -->
<g id="node1" class="node">
<title>Node1</title>
<g id="a_node1"><a xlink:title=" ">
<polygon fill="#bfbfbf" stroke="black" points="167,-38.5 167,-57.5 271,-57.5 271,-38.5 167,-38.5"/>
<text text-anchor="middle" x="219" y="-45.5" font-family="Helvetica,sans-Serif" font-size="10.00">mrbc_search_symid</text>
</a>
</g>
</g>
<!-- Node2 -->
<g id="node2" class="node">
<title>Node2</title>
<g id="a_node2"><a xlink:href="class_8c.html#a2154a96fcc63d15c581329842cf5479e" target="_top" xlink:title=" ">
<polygon fill="white" stroke="black" points="0,-76.5 0,-95.5 131,-95.5 131,-76.5 0,-76.5"/>
<text text-anchor="middle" x="65.5" y="-83.5" font-family="Helvetica,sans-Serif" font-size="10.00">mrbc_get_class_by_name</text>
</a>
</g>
</g>
<!-- Node1&#45;&gt;Node2 -->
<g id="edge1" class="edge">
<title>Node1&#45;&gt;Node2</title>
<path fill="none" stroke="midnightblue" d="M170,-60.04C148.83,-65.35 124.31,-71.5 104.45,-76.48"/>
<polygon fill="midnightblue" stroke="midnightblue" points="170.92,-63.42 179.77,-57.59 169.22,-56.63 170.92,-63.42"/>
</g>
<!-- Node3 -->
<g id="node3" class="node">
<title>Node3</title>
<g id="a_node3"><a xlink:href="global_8c.html#a2d4d975d4d4f5769a815c83595b84f8c" target="_top" xlink:title=" ">
<polygon fill="white" stroke="black" points="8,-38.5 8,-57.5 123,-57.5 123,-38.5 8,-38.5"/>
<text text-anchor="middle" x="65.5" y="-45.5" font-family="Helvetica,sans-Serif" font-size="10.00">mrbc_get_class_const</text>
</a>
</g>
</g>
<!-- Node1&#45;&gt;Node3 -->
<g id="edge2" class="edge">
<title>Node1&#45;&gt;Node3</title>
<path fill="none" stroke="midnightblue" d="M156.69,-48C145.63,-48 134.13,-48 123.2,-48"/>
<polygon fill="midnightblue" stroke="midnightblue" points="156.71,-51.5 166.71,-48 156.71,-44.5 156.71,-51.5"/>
</g>
<!-- Node4 -->
<g id="node4" class="node">
<title>Node4</title>
<g id="a_node4"><a xlink:href="symbol_8c.html#a1c50a295f8cfdc0e9963d022c421d380" target="_top" xlink:title=" ">
<polygon fill="white" stroke="red" points="16.5,-0.5 16.5,-19.5 114.5,-19.5 114.5,-0.5 16.5,-0.5"/>
<text text-anchor="middle" x="65.5" y="-7.5" font-family="Helvetica,sans-Serif" font-size="10.00">mrbc_symbol_new</text>
</a>
</g>
</g>
<!-- Node1&#45;&gt;Node4 -->
<g id="edge3" class="edge">
<title>Node1&#45;&gt;Node4</title>
<path fill="none" stroke="midnightblue" d="M170,-35.96C148.83,-30.65 124.31,-24.5 104.45,-19.52"/>
<polygon fill="midnightblue" stroke="midnightblue" points="169.22,-39.37 179.77,-38.41 170.92,-32.58 169.22,-39.37"/>
</g>
</g>
</svg>
