<?xml version="1.0" encoding="UTF-8" standalone="no"?>
<!DOCTYPE svg PUBLIC "-//W3C//DTD SVG 1.1//EN"
 "http://www.w3.org/Graphics/SVG/1.1/DTD/svg11.dtd">
<!-- Generated by graphviz version 3.0.0 (20220226.1711)
 -->
<!-- Title: symbol.c Pages: 1 -->
<svg width="659pt" height="140pt"
 viewBox="0.00 0.00 659.00 140.00" xmlns="http://www.w3.org/2000/svg" xmlns:xlink="http://www.w3.org/1999/xlink">
<g id="graph0" class="graph" transform="scale(1 1) rotate(0) translate(4 136)">
<title>symbol.c</title>
<polygon fill="white" stroke="transparent" points="-4,4 -4,-136 655,-136 655,4 -4,4"/>
<!-- Node1 -->
<g id="node1" class="node">
<title>Node1</title>
<g id="a_node1"><a xlink:title="mruby/c Symbol class">
<polygon fill="#bfbfbf" stroke="black" points="270,-112.5 270,-131.5 326,-131.5 326,-112.5 270,-112.5"/>
<text text-anchor="middle" x="298" y="-119.5" font-family="Helvetica,sans-Serif" font-size="10.00">symbol.c</text>
</a>
</g>
</g>
<!-- Node2 -->
<g id="node2" class="node">
<title>Node2</title>
<g id="a_node2"><a xlink:title=" ">
<polygon fill="white" stroke="#bfbfbf" points="0,-56.5 0,-75.5 132,-75.5 132,-56.5 0,-56.5"/>
<text text-anchor="middle" x="66" y="-63.5" font-family="Helvetica,sans-Serif" font-size="10.00">_autogen_builtin_symbol.h</text>
</a>
</g>
</g>
<!-- Node1&#45;&gt;Node2 -->
<g id="edge1" class="edge">
<title>Node1&#45;&gt;Node2</title>
<path fill="none" stroke="midnightblue" d="M269.55,-114.38C230.44,-105.27 159.57,-88.78 112.64,-77.85"/>
<polygon fill="midnightblue" stroke="midnightblue" points="113.25,-74.4 102.71,-75.55 111.66,-81.22 113.25,-74.4"/>
</g>
<!-- Node3 -->
<g id="node3" class="node">
<title>Node3</title>
<g id="a_node3"><a xlink:href="alloc_8h.html" target="_top" xlink:title="mruby/c memory management.">
<polygon fill="white" stroke="black" points="165.5,-0.5 165.5,-19.5 210.5,-19.5 210.5,-0.5 165.5,-0.5"/>
<text text-anchor="middle" x="188" y="-7.5" font-family="Helvetica,sans-Serif" font-size="10.00">alloc.h</text>
</a>
</g>
</g>
<!-- Node1&#45;&gt;Node3 -->
<g id="edge2" class="edge">
<title>Node1&#45;&gt;Node3</title>
<path fill="none" stroke="midnightblue" d="M269.88,-119.16C241.59,-115.64 199.34,-105.44 179,-76 169.61,-62.41 173.75,-43.35 179.1,-29.39"/>
<polygon fill="midnightblue" stroke="midnightblue" points="182.46,-30.44 183.22,-19.88 176.03,-27.66 182.46,-30.44"/>
</g>
<!-- Node4 -->
<g id="node4" class="node">
<title>Node4</title>
<g id="a_node4"><a xlink:href="value_8h.html" target="_top" xlink:title="mruby/c value definitions">
<polygon fill="white" stroke="black" points="300,-0.5 300,-19.5 348,-19.5 348,-0.5 300,-0.5"/>
<text text-anchor="middle" x="324" y="-7.5" font-family="Helvetica,sans-Serif" font-size="10.00">value.h</text>
</a>
</g>
</g>
<!-- Node1&#45;&gt;Node4 -->
<g id="edge3" class="edge">
<title>Node1&#45;&gt;Node4</title>
<path fill="none" stroke="midnightblue" d="M294.83,-112.35C290.69,-99.66 284.64,-75.42 291,-56 294.49,-45.34 301.57,-35.12 308.29,-27.12"/>
<polygon fill="midnightblue" stroke="midnightblue" points="310.9,-29.44 314.98,-19.66 305.7,-24.76 310.9,-29.44"/>
</g>
<!-- Node5 -->
<g id="node5" class="node">
<title>Node5</title>
<g id="a_node5"><a xlink:href="class_8h.html" target="_top" xlink:title="Class related functions.">
<polygon fill="white" stroke="red" points="300,-56.5 300,-75.5 348,-75.5 348,-56.5 300,-56.5"/>
<text text-anchor="middle" x="324" y="-63.5" font-family="Helvetica,sans-Serif" font-size="10.00">class.h</text>
</a>
</g>
</g>
<!-- Node1&#45;&gt;Node5 -->
<g id="edge4" class="edge">
<title>Node1&#45;&gt;Node5</title>
<path fill="none" stroke="midnightblue" d="M302.29,-112.08C305.85,-104.69 311.02,-93.95 315.42,-84.81"/>
<polygon fill="midnightblue" stroke="midnightblue" points="318.6,-86.28 319.79,-75.75 312.29,-83.24 318.6,-86.28"/>
</g>
<!-- Node8 -->
<g id="node6" class="node">
<title>Node8</title>
<g id="a_node6"><a xlink:href="c__string_8h.html" target="_top" xlink:title="mruby/c String class">
<polygon fill="white" stroke="black" points="366.5,-56.5 366.5,-75.5 425.5,-75.5 425.5,-56.5 366.5,-56.5"/>
<text text-anchor="middle" x="396" y="-63.5" font-family="Helvetica,sans-Serif" font-size="10.00">c_string.h</text>
</a>
</g>
</g>
<!-- Node1&#45;&gt;Node8 -->
<g id="edge6" class="edge">
<title>Node1&#45;&gt;Node8</title>
<path fill="none" stroke="midnightblue" d="M313.75,-112.32C329.32,-103.74 353.38,-90.49 371.46,-80.52"/>
<polygon fill="midnightblue" stroke="midnightblue" points="373.22,-83.55 380.29,-75.65 369.85,-77.42 373.22,-83.55"/>
</g>
<!-- Node9 -->
<g id="node7" class="node">
<title>Node9</title>
<g id="a_node7"><a xlink:href="c__array_8h.html" target="_top" xlink:title="mruby/c Array class">
<polygon fill="white" stroke="black" points="188,-56.5 188,-75.5 244,-75.5 244,-56.5 188,-56.5"/>
<text text-anchor="middle" x="216" y="-63.5" font-family="Helvetica,sans-Serif" font-size="10.00">c_array.h</text>
</a>
</g>
</g>
<!-- Node1&#45;&gt;Node9 -->
<g id="edge8" class="edge">
<title>Node1&#45;&gt;Node9</title>
<path fill="none" stroke="midnightblue" d="M284.83,-112.32C272.15,-103.98 252.77,-91.21 237.79,-81.35"/>
<polygon fill="midnightblue" stroke="midnightblue" points="239.42,-78.23 229.14,-75.65 235.57,-84.08 239.42,-78.23"/>
</g>
<!-- Node10 -->
<g id="node8" class="node">
<title>Node10</title>
<g id="a_node8"><a xlink:href="console_8h.html" target="_top" xlink:title="console output module. (not yet input)">
<polygon fill="white" stroke="black" points="443.5,-56.5 443.5,-75.5 502.5,-75.5 502.5,-56.5 443.5,-56.5"/>
<text text-anchor="middle" x="473" y="-63.5" font-family="Helvetica,sans-Serif" font-size="10.00">console.h</text>
</a>
</g>
</g>
<!-- Node1&#45;&gt;Node10 -->
<g id="edge11" class="edge">
<title>Node1&#45;&gt;Node10</title>
<path fill="none" stroke="midnightblue" d="M325.73,-112.44C355.43,-103.28 402.72,-88.69 435.67,-78.52"/>
<polygon fill="midnightblue" stroke="midnightblue" points="436.88,-81.81 445.4,-75.52 434.81,-75.12 436.88,-81.81"/>
</g>
<!-- Node11 -->
<g id="node9" class="node">
<title>Node11</title>
<g id="a_node9"><a xlink:title=" ">
<polygon fill="white" stroke="#bfbfbf" points="521,-56.5 521,-75.5 651,-75.5 651,-56.5 521,-56.5"/>
<text text-anchor="middle" x="586" y="-63.5" font-family="Helvetica,sans-Serif" font-size="10.00">_autogen_class_symbol.h</text>
</a>
</g>
</g>
<!-- Node1&#45;&gt;Node11 -->
<g id="edge13" class="edge">
<title>Node1&#45;&gt;Node11</title>
<path fill="none" stroke="midnightblue" d="M326.14,-115.72C373.4,-106.86 469.54,-88.84 530.71,-77.37"/>
<polygon fill="midnightblue" stroke="midnightblue" points="531.4,-80.8 540.58,-75.52 530.11,-73.92 531.4,-80.8"/>
</g>
<!-- Node5&#45;&gt;Node4 -->
<g id="edge5" class="edge">
<title>Node5&#45;&gt;Node4</title>
<path fill="none" stroke="midnightblue" d="M324,-56.08C324,-49.01 324,-38.86 324,-29.99"/>
<polygon fill="midnightblue" stroke="midnightblue" points="327.5,-29.75 324,-19.75 320.5,-29.75 327.5,-29.75"/>
</g>
<!-- Node8&#45;&gt;Node4 -->
<g id="edge7" class="edge">
<title>Node8&#45;&gt;Node4</title>
<path fill="none" stroke="midnightblue" d="M384.43,-56.32C373.58,-48.18 357.12,-35.84 344.12,-26.09"/>
<polygon fill="midnightblue" stroke="midnightblue" points="345.88,-23.03 335.78,-19.83 341.68,-28.63 345.88,-23.03"/>
</g>
<!-- Node9&#45;&gt;Node3 -->
<g id="edge9" class="edge">
<title>Node9&#45;&gt;Node3</title>
<path fill="none" stroke="midnightblue" d="M211.38,-56.08C207.54,-48.69 201.98,-37.95 197.24,-28.81"/>
<polygon fill="midnightblue" stroke="midnightblue" points="200.25,-27.02 192.54,-19.75 194.03,-30.24 200.25,-27.02"/>
</g>
<!-- Node9&#45;&gt;Node4 -->
<g id="edge10" class="edge">
<title>Node9&#45;&gt;Node4</title>
<path fill="none" stroke="midnightblue" d="M233.35,-56.32C250.67,-47.66 277.52,-34.24 297.5,-24.25"/>
<polygon fill="midnightblue" stroke="midnightblue" points="299.31,-27.26 306.69,-19.65 296.18,-21 299.31,-27.26"/>
</g>
<!-- Node10&#45;&gt;Node4 -->
<g id="edge12" class="edge">
<title>Node10&#45;&gt;Node4</title>
<path fill="none" stroke="midnightblue" d="M449.39,-56.44C424.54,-47.44 385.23,-33.19 357.25,-23.05"/>
<polygon fill="midnightblue" stroke="midnightblue" points="358.09,-19.63 347.5,-19.52 355.71,-26.21 358.09,-19.63"/>
</g>
</g>
</svg>
