<?xml version="1.0" encoding="UTF-8" standalone="no"?>
<!DOCTYPE svg PUBLIC "-//W3C//DTD SVG 1.1//EN"
 "http://www.w3.org/Graphics/SVG/1.1/DTD/svg11.dtd">
<!-- Generated by graphviz version 3.0.0 (20220226.1711)
 -->
<!-- Title: symbol.h Pages: 1 -->
<svg width="814pt" height="84pt"
 viewBox="0.00 0.00 813.50 84.00" xmlns="http://www.w3.org/2000/svg" xmlns:xlink="http://www.w3.org/1999/xlink">
<g id="graph0" class="graph" transform="scale(1 1) rotate(0) translate(4 80)">
<title>symbol.h</title>
<polygon fill="white" stroke="transparent" points="-4,4 -4,-80 809.5,-80 809.5,4 -4,4"/>
<!-- Node1 -->
<g id="node1" class="node">
<title>Node1</title>
<g id="a_node1"><a xlink:title="mruby/c Symbol class">
<polygon fill="#bfbfbf" stroke="black" points="403.5,-56.5 403.5,-75.5 459.5,-75.5 459.5,-56.5 403.5,-56.5"/>
<text text-anchor="middle" x="431.5" y="-63.5" font-family="Helvetica,sans-Serif" font-size="10.00">symbol.h</text>
</a>
</g>
</g>
<!-- Node2 -->
<g id="node2" class="node">
<title>Node2</title>
<g id="a_node2"><a xlink:href="c__math_8c.html" target="_top" xlink:title="mruby/c Math class">
<polygon fill="white" stroke="black" points="0,-0.5 0,-19.5 57,-19.5 57,-0.5 0,-0.5"/>
<text text-anchor="middle" x="28.5" y="-7.5" font-family="Helvetica,sans-Serif" font-size="10.00">c_math.c</text>
</a>
</g>
</g>
<!-- Node1&#45;&gt;Node2 -->
<g id="edge1" class="edge">
<title>Node1&#45;&gt;Node2</title>
<path fill="none" stroke="midnightblue" d="M393.38,-61.69C326.74,-55.6 184.91,-41.26 66.5,-20 63.43,-19.45 60.24,-18.81 57.06,-18.12"/>
<polygon fill="midnightblue" stroke="midnightblue" points="393.14,-65.18 403.41,-62.6 393.77,-58.21 393.14,-65.18"/>
</g>
<!-- Node3 -->
<g id="node3" class="node">
<title>Node3</title>
<g id="a_node3"><a xlink:href="c__object_8c.html" target="_top" xlink:title="Object, Proc, Nil, True and False class.">
<polygon fill="white" stroke="black" points="75.5,-0.5 75.5,-19.5 137.5,-19.5 137.5,-0.5 75.5,-0.5"/>
<text text-anchor="middle" x="106.5" y="-7.5" font-family="Helvetica,sans-Serif" font-size="10.00">c_object.c</text>
</a>
</g>
</g>
<!-- Node1&#45;&gt;Node3 -->
<g id="edge2" class="edge">
<title>Node1&#45;&gt;Node3</title>
<path fill="none" stroke="midnightblue" d="M393.53,-59.8C338.78,-52.13 234.55,-36.84 146.5,-20 143.7,-19.47 140.8,-18.88 137.9,-18.27"/>
<polygon fill="midnightblue" stroke="midnightblue" points="393.1,-63.28 403.48,-61.19 394.06,-56.34 393.1,-63.28"/>
</g>
<!-- Node4 -->
<g id="node4" class="node">
<title>Node4</title>
<g id="a_node4"><a xlink:href="c__string_8c.html" target="_top" xlink:title="mruby/c String class">
<polygon fill="white" stroke="black" points="156,-0.5 156,-19.5 215,-19.5 215,-0.5 156,-0.5"/>
<text text-anchor="middle" x="185.5" y="-7.5" font-family="Helvetica,sans-Serif" font-size="10.00">c_string.c</text>
</a>
</g>
</g>
<!-- Node1&#45;&gt;Node4 -->
<g id="edge3" class="edge">
<title>Node1&#45;&gt;Node4</title>
<path fill="none" stroke="midnightblue" d="M393.39,-56.87C351.83,-47.96 283.39,-33.2 224.5,-20 221.52,-19.33 218.41,-18.63 215.3,-17.92"/>
<polygon fill="midnightblue" stroke="midnightblue" points="392.84,-60.33 403.35,-59 394.3,-53.48 392.84,-60.33"/>
</g>
<!-- Node5 -->
<g id="node5" class="node">
<title>Node5</title>
<g id="a_node5"><a xlink:href="class_8c.html" target="_top" xlink:title="Class related functions.">
<polygon fill="white" stroke="black" points="233.5,-0.5 233.5,-19.5 281.5,-19.5 281.5,-0.5 233.5,-0.5"/>
<text text-anchor="middle" x="257.5" y="-7.5" font-family="Helvetica,sans-Serif" font-size="10.00">class.c</text>
</a>
</g>
</g>
<!-- Node1&#45;&gt;Node5 -->
<g id="edge4" class="edge">
<title>Node1&#45;&gt;Node5</title>
<path fill="none" stroke="midnightblue" d="M394.32,-53.46C360.23,-42.88 310.76,-27.53 281.58,-18.47"/>
<polygon fill="midnightblue" stroke="midnightblue" points="393.34,-56.82 403.93,-56.44 395.42,-50.14 393.34,-56.82"/>
</g>
<!-- Node6 -->
<g id="node6" class="node">
<title>Node6</title>
<g id="a_node6"><a xlink:href="console_8c.html" target="_top" xlink:title="console output module. (not yet input)">
<polygon fill="white" stroke="black" points="300,-0.5 300,-19.5 359,-19.5 359,-0.5 300,-0.5"/>
<text text-anchor="middle" x="329.5" y="-7.5" font-family="Helvetica,sans-Serif" font-size="10.00">console.c</text>
</a>
</g>
</g>
<!-- Node1&#45;&gt;Node6 -->
<g id="edge5" class="edge">
<title>Node1&#45;&gt;Node6</title>
<path fill="none" stroke="midnightblue" d="M406.17,-51.59C387.31,-41.61 362.12,-28.27 345.85,-19.65"/>
<polygon fill="midnightblue" stroke="midnightblue" points="404.64,-54.74 415.11,-56.32 407.91,-48.55 404.64,-54.74"/>
</g>
<!-- Node7 -->
<g id="node7" class="node">
<title>Node7</title>
<g id="a_node7"><a xlink:href="error_8c.html" target="_top" xlink:title="exception classes">
<polygon fill="white" stroke="black" points="377.5,-0.5 377.5,-19.5 421.5,-19.5 421.5,-0.5 377.5,-0.5"/>
<text text-anchor="middle" x="399.5" y="-7.5" font-family="Helvetica,sans-Serif" font-size="10.00">error.c</text>
</a>
</g>
</g>
<!-- Node1&#45;&gt;Node7 -->
<g id="edge6" class="edge">
<title>Node1&#45;&gt;Node7</title>
<path fill="none" stroke="midnightblue" d="M421,-47.27C415.53,-38.05 409.08,-27.17 404.69,-19.75"/>
<polygon fill="midnightblue" stroke="midnightblue" points="418.11,-49.26 426.22,-56.08 424.13,-45.7 418.11,-49.26"/>
</g>
<!-- Node8 -->
<g id="node8" class="node">
<title>Node8</title>
<g id="a_node8"><a xlink:href="global_8c.html" target="_top" xlink:title="Constant and global variables.">
<polygon fill="white" stroke="black" points="439.5,-0.5 439.5,-19.5 489.5,-19.5 489.5,-0.5 439.5,-0.5"/>
<text text-anchor="middle" x="464.5" y="-7.5" font-family="Helvetica,sans-Serif" font-size="10.00">global.c</text>
</a>
</g>
</g>
<!-- Node1&#45;&gt;Node8 -->
<g id="edge7" class="edge">
<title>Node1&#45;&gt;Node8</title>
<path fill="none" stroke="midnightblue" d="M442.33,-47.27C447.97,-38.05 454.62,-27.17 459.15,-19.75"/>
<polygon fill="midnightblue" stroke="midnightblue" points="439.18,-45.73 436.95,-56.08 445.15,-49.38 439.18,-45.73"/>
</g>
<!-- Node9 -->
<g id="node9" class="node">
<title>Node9</title>
<g id="a_node9"><a xlink:href="load_8c.html" target="_top" xlink:title="mruby bytecode loader.">
<polygon fill="white" stroke="black" points="508,-0.5 508,-19.5 551,-19.5 551,-0.5 508,-0.5"/>
<text text-anchor="middle" x="529.5" y="-7.5" font-family="Helvetica,sans-Serif" font-size="10.00">load.c</text>
</a>
</g>
</g>
<!-- Node1&#45;&gt;Node9 -->
<g id="edge8" class="edge">
<title>Node1&#45;&gt;Node9</title>
<path fill="none" stroke="midnightblue" d="M456.09,-51.45C474.18,-41.48 498.23,-28.23 513.79,-19.65"/>
<polygon fill="midnightblue" stroke="midnightblue" points="454.31,-48.43 447.25,-56.32 457.69,-54.56 454.31,-48.43"/>
</g>
<!-- Node10 -->
<g id="node10" class="node">
<title>Node10</title>
<g id="a_node10"><a xlink:href="mrubyc_8h.html" target="_top" xlink:title="Include at once the necessary header files for user program.">
<polygon fill="white" stroke="black" points="569,-0.5 569,-19.5 626,-19.5 626,-0.5 569,-0.5"/>
<text text-anchor="middle" x="597.5" y="-7.5" font-family="Helvetica,sans-Serif" font-size="10.00">mrubyc.h</text>
</a>
</g>
</g>
<!-- Node1&#45;&gt;Node10 -->
<g id="edge9" class="edge">
<title>Node1&#45;&gt;Node10</title>
<path fill="none" stroke="midnightblue" d="M467.45,-53.3C498.73,-43.13 543.32,-28.62 571.32,-19.52"/>
<polygon fill="midnightblue" stroke="midnightblue" points="466.23,-50.02 457.8,-56.44 468.4,-56.68 466.23,-50.02"/>
</g>
<!-- Node11 -->
<g id="node11" class="node">
<title>Node11</title>
<g id="a_node11"><a xlink:href="rrt0_8c.html" target="_top" xlink:title="Realtime multitask monitor for mruby/c.">
<polygon fill="white" stroke="black" points="644,-0.5 644,-19.5 683,-19.5 683,-0.5 644,-0.5"/>
<text text-anchor="middle" x="663.5" y="-7.5" font-family="Helvetica,sans-Serif" font-size="10.00">rrt0.c</text>
</a>
</g>
</g>
<!-- Node1&#45;&gt;Node11 -->
<g id="edge10" class="edge">
<title>Node1&#45;&gt;Node11</title>
<path fill="none" stroke="midnightblue" d="M469.63,-57.7C510.81,-49.56 578.21,-35.49 635.5,-20 638.26,-19.25 641.15,-18.4 643.99,-17.53"/>
<polygon fill="midnightblue" stroke="midnightblue" points="468.89,-54.28 459.75,-59.64 470.24,-61.15 468.89,-54.28"/>
</g>
<!-- Node12 -->
<g id="node12" class="node">
<title>Node12</title>
<g id="a_node12"><a xlink:href="value_8c.html" target="_top" xlink:title="mruby/c value definitions">
<polygon fill="white" stroke="black" points="701.5,-0.5 701.5,-19.5 749.5,-19.5 749.5,-0.5 701.5,-0.5"/>
<text text-anchor="middle" x="725.5" y="-7.5" font-family="Helvetica,sans-Serif" font-size="10.00">value.c</text>
</a>
</g>
</g>
<!-- Node1&#45;&gt;Node12 -->
<g id="edge11" class="edge">
<title>Node1&#45;&gt;Node12</title>
<path fill="none" stroke="midnightblue" d="M469.81,-59.57C520.88,-52.06 613.97,-37.44 692.5,-20 695.4,-19.36 698.42,-18.62 701.42,-17.85"/>
<polygon fill="midnightblue" stroke="midnightblue" points="469.26,-56.11 459.87,-61.02 470.27,-63.04 469.26,-56.11"/>
</g>
<!-- Node13 -->
<g id="node13" class="node">
<title>Node13</title>
<g id="a_node13"><a xlink:href="vm_8c.html" target="_top" xlink:title="mruby bytecode executor.">
<polygon fill="white" stroke="black" points="767.5,-0.5 767.5,-19.5 805.5,-19.5 805.5,-0.5 767.5,-0.5"/>
<text text-anchor="middle" x="786.5" y="-7.5" font-family="Helvetica,sans-Serif" font-size="10.00">vm.c</text>
</a>
</g>
</g>
<!-- Node1&#45;&gt;Node13 -->
<g id="edge12" class="edge">
<title>Node1&#45;&gt;Node13</title>
<path fill="none" stroke="midnightblue" d="M469.81,-61.91C531.29,-56.46 655.5,-43.45 758.5,-20 761.39,-19.34 764.4,-18.52 767.34,-17.64"/>
<polygon fill="midnightblue" stroke="midnightblue" points="469.45,-58.43 459.79,-62.78 470.06,-65.4 469.45,-58.43"/>
</g>
</g>
</svg>
