<?xml version="1.0" encoding="UTF-8" standalone="no"?>
<!DOCTYPE svg PUBLIC "-//W3C//DTD SVG 1.1//EN"
 "http://www.w3.org/Graphics/SVG/1.1/DTD/svg11.dtd">
<!-- Generated by graphviz version 3.0.0 (20220226.1711)
 -->
<!-- Title: value.c Pages: 1 -->
<svg width="415pt" height="196pt"
 viewBox="0.00 0.00 414.55 196.00" xmlns="http://www.w3.org/2000/svg" xmlns:xlink="http://www.w3.org/1999/xlink">
<g id="graph0" class="graph" transform="scale(1 1) rotate(0) translate(4 192)">
<title>value.c</title>
<polygon fill="white" stroke="transparent" points="-4,4 -4,-192 410.55,-192 410.55,4 -4,4"/>
<!-- Node1 -->
<g id="node1" class="node">
<title>Node1</title>
<g id="a_node1"><a xlink:title="mruby/c value definitions">
<polygon fill="#bfbfbf" stroke="black" points="163.55,-168.5 163.55,-187.5 211.55,-187.5 211.55,-168.5 163.55,-168.5"/>
<text text-anchor="middle" x="187.55" y="-175.5" font-family="Helvetica,sans-Serif" font-size="10.00">value.c</text>
</a>
</g>
</g>
<!-- Node2 -->
<g id="node2" class="node">
<title>Node2</title>
<g id="a_node2"><a xlink:href="value_8h.html" target="_top" xlink:title="mruby/c value definitions">
<polygon fill="white" stroke="black" points="163.55,-0.5 163.55,-19.5 211.55,-19.5 211.55,-0.5 163.55,-0.5"/>
<text text-anchor="middle" x="187.55" y="-7.5" font-family="Helvetica,sans-Serif" font-size="10.00">value.h</text>
</a>
</g>
</g>
<!-- Node1&#45;&gt;Node2 -->
<g id="edge1" class="edge">
<title>Node1&#45;&gt;Node2</title>
<path fill="none" stroke="midnightblue" d="M163.13,-171.6C104.24,-157.47 -37.4,-116.29 9.55,-56 27.03,-33.55 106.67,-20.53 153.29,-14.7"/>
<polygon fill="midnightblue" stroke="midnightblue" points="153.75,-18.17 163.26,-13.5 152.91,-11.22 153.75,-18.17"/>
</g>
<!-- Node3 -->
<g id="node3" class="node">
<title>Node3</title>
<g id="a_node3"><a xlink:href="symbol_8h.html" target="_top" xlink:title="mruby/c Symbol class">
<polygon fill="white" stroke="red" points="18.55,-56.5 18.55,-75.5 74.55,-75.5 74.55,-56.5 18.55,-56.5"/>
<text text-anchor="middle" x="46.55" y="-63.5" font-family="Helvetica,sans-Serif" font-size="10.00">symbol.h</text>
</a>
</g>
</g>
<!-- Node1&#45;&gt;Node3 -->
<g id="edge2" class="edge">
<title>Node1&#45;&gt;Node3</title>
<path fill="none" stroke="midnightblue" d="M163.24,-171.27C140.45,-164.87 106.55,-152.62 83.55,-132 69.23,-119.17 59.1,-99.44 53.1,-85.08"/>
<polygon fill="midnightblue" stroke="midnightblue" points="56.35,-83.79 49.46,-75.75 49.83,-86.34 56.35,-83.79"/>
</g>
<!-- Node5 -->
<g id="node4" class="node">
<title>Node5</title>
<g id="a_node4"><a xlink:href="class_8h.html" target="_top" xlink:title="Class related functions.">
<polygon fill="white" stroke="red" points="92.55,-112.5 92.55,-131.5 140.55,-131.5 140.55,-112.5 92.55,-112.5"/>
<text text-anchor="middle" x="116.55" y="-119.5" font-family="Helvetica,sans-Serif" font-size="10.00">class.h</text>
</a>
</g>
</g>
<!-- Node1&#45;&gt;Node5 -->
<g id="edge4" class="edge">
<title>Node1&#45;&gt;Node5</title>
<path fill="none" stroke="midnightblue" d="M176.14,-168.32C165.44,-160.18 149.21,-147.84 136.38,-138.09"/>
<polygon fill="midnightblue" stroke="midnightblue" points="138.24,-135.1 128.16,-131.83 134,-140.67 138.24,-135.1"/>
</g>
<!-- Node7 -->
<g id="node5" class="node">
<title>Node7</title>
<g id="a_node5"><a xlink:href="error_8h.html" target="_top" xlink:title="exception classes">
<polygon fill="white" stroke="black" points="130.55,-56.5 130.55,-75.5 174.55,-75.5 174.55,-56.5 130.55,-56.5"/>
<text text-anchor="middle" x="152.55" y="-63.5" font-family="Helvetica,sans-Serif" font-size="10.00">error.h</text>
</a>
</g>
</g>
<!-- Node1&#45;&gt;Node7 -->
<g id="edge8" class="edge">
<title>Node1&#45;&gt;Node7</title>
<path fill="none" stroke="midnightblue" d="M184.8,-168.37C179.13,-150.54 166,-109.3 158.36,-85.27"/>
<polygon fill="midnightblue" stroke="midnightblue" points="161.65,-84.06 155.28,-75.59 154.98,-86.18 161.65,-84.06"/>
</g>
<!-- Node8 -->
<g id="node6" class="node">
<title>Node8</title>
<g id="a_node6"><a xlink:href="c__string_8h.html" target="_top" xlink:title="mruby/c String class">
<polygon fill="white" stroke="black" points="193.05,-56.5 193.05,-75.5 252.05,-75.5 252.05,-56.5 193.05,-56.5"/>
<text text-anchor="middle" x="222.55" y="-63.5" font-family="Helvetica,sans-Serif" font-size="10.00">c_string.h</text>
</a>
</g>
</g>
<!-- Node1&#45;&gt;Node8 -->
<g id="edge9" class="edge">
<title>Node1&#45;&gt;Node8</title>
<path fill="none" stroke="midnightblue" d="M190.29,-168.37C195.97,-150.54 209.09,-109.3 216.73,-85.27"/>
<polygon fill="midnightblue" stroke="midnightblue" points="220.12,-86.18 219.81,-75.59 213.45,-84.06 220.12,-86.18"/>
</g>
<!-- Node9 -->
<g id="node7" class="node">
<title>Node9</title>
<g id="a_node7"><a xlink:href="c__range_8h.html" target="_top" xlink:title="mruby/c Range class">
<polygon fill="white" stroke="black" points="235.05,-112.5 235.05,-131.5 294.05,-131.5 294.05,-112.5 235.05,-112.5"/>
<text text-anchor="middle" x="264.55" y="-119.5" font-family="Helvetica,sans-Serif" font-size="10.00">c_range.h</text>
</a>
</g>
</g>
<!-- Node1&#45;&gt;Node9 -->
<g id="edge11" class="edge">
<title>Node1&#45;&gt;Node9</title>
<path fill="none" stroke="midnightblue" d="M199.92,-168.32C211.71,-160.06 229.68,-147.45 243.68,-137.63"/>
<polygon fill="midnightblue" stroke="midnightblue" points="246.03,-140.26 252.21,-131.65 242.01,-134.53 246.03,-140.26"/>
</g>
<!-- Node10 -->
<g id="node8" class="node">
<title>Node10</title>
<g id="a_node8"><a xlink:href="c__array_8h.html" target="_top" xlink:title="mruby/c Array class">
<polygon fill="white" stroke="red" points="308.55,-56.5 308.55,-75.5 364.55,-75.5 364.55,-56.5 308.55,-56.5"/>
<text text-anchor="middle" x="336.55" y="-63.5" font-family="Helvetica,sans-Serif" font-size="10.00">c_array.h</text>
</a>
</g>
</g>
<!-- Node1&#45;&gt;Node10 -->
<g id="edge13" class="edge">
<title>Node1&#45;&gt;Node10</title>
<path fill="none" stroke="midnightblue" d="M211.75,-172.73C237.02,-167.19 276.53,-155.33 302.55,-132 316.45,-119.53 325.58,-100.03 330.85,-85.63"/>
<polygon fill="midnightblue" stroke="midnightblue" points="334.27,-86.41 334.13,-75.82 327.64,-84.19 334.27,-86.41"/>
</g>
<!-- Node12 -->
<g id="node9" class="node">
<title>Node12</title>
<g id="a_node9"><a xlink:href="c__hash_8h.html" target="_top" xlink:title="mruby/c Hash class">
<polygon fill="white" stroke="black" points="350.55,-112.5 350.55,-131.5 406.55,-131.5 406.55,-112.5 350.55,-112.5"/>
<text text-anchor="middle" x="378.55" y="-119.5" font-family="Helvetica,sans-Serif" font-size="10.00">c_hash.h</text>
</a>
</g>
</g>
<!-- Node1&#45;&gt;Node12 -->
<g id="edge15" class="edge">
<title>Node1&#45;&gt;Node12</title>
<path fill="none" stroke="midnightblue" d="M211.74,-170.16C244.27,-160.96 302.44,-144.52 340.76,-133.68"/>
<polygon fill="midnightblue" stroke="midnightblue" points="341.86,-137.01 350.53,-130.92 339.95,-130.27 341.86,-137.01"/>
</g>
<!-- Node3&#45;&gt;Node2 -->
<g id="edge3" class="edge">
<title>Node3&#45;&gt;Node2</title>
<path fill="none" stroke="midnightblue" d="M68.89,-56.44C92.3,-47.48 129.28,-33.31 155.74,-23.18"/>
<polygon fill="midnightblue" stroke="midnightblue" points="157.22,-26.36 165.31,-19.52 154.72,-19.82 157.22,-26.36"/>
</g>
<!-- Node5&#45;&gt;Node2 -->
<g id="edge5" class="edge">
<title>Node5&#45;&gt;Node2</title>
<path fill="none" stroke="midnightblue" d="M114.97,-112.32C113.06,-99.16 111.23,-73.83 121.55,-56 129.62,-42.05 143.96,-31.5 157.21,-24.13"/>
<polygon fill="midnightblue" stroke="midnightblue" points="158.84,-27.22 166.13,-19.53 155.64,-21 158.84,-27.22"/>
</g>
<!-- Node5&#45;&gt;Node7 -->
<g id="edge6" class="edge">
<title>Node5&#45;&gt;Node7</title>
<path fill="none" stroke="midnightblue" d="M122.49,-112.08C127.52,-104.53 134.88,-93.49 141.06,-84.23"/>
<polygon fill="midnightblue" stroke="midnightblue" points="144.08,-86.01 146.71,-75.75 138.25,-82.13 144.08,-86.01"/>
</g>
<!-- Node7&#45;&gt;Node2 -->
<g id="edge7" class="edge">
<title>Node7&#45;&gt;Node2</title>
<path fill="none" stroke="midnightblue" d="M158.33,-56.08C163.22,-48.53 170.37,-37.49 176.38,-28.23"/>
<polygon fill="midnightblue" stroke="midnightblue" points="179.37,-30.05 181.88,-19.75 173.5,-26.24 179.37,-30.05"/>
</g>
<!-- Node8&#45;&gt;Node2 -->
<g id="edge10" class="edge">
<title>Node8&#45;&gt;Node2</title>
<path fill="none" stroke="midnightblue" d="M216.77,-56.08C211.87,-48.53 204.72,-37.49 198.71,-28.23"/>
<polygon fill="midnightblue" stroke="midnightblue" points="201.6,-26.24 193.22,-19.75 195.72,-30.05 201.6,-26.24"/>
</g>
<!-- Node9&#45;&gt;Node2 -->
<g id="edge12" class="edge">
<title>Node9&#45;&gt;Node2</title>
<path fill="none" stroke="midnightblue" d="M266.39,-112.27C268.68,-99.06 271.13,-73.65 260.55,-56 251.63,-41.12 235.72,-30.47 221.02,-23.27"/>
<polygon fill="midnightblue" stroke="midnightblue" points="222.17,-19.96 211.62,-19.04 219.29,-26.34 222.17,-19.96"/>
</g>
<!-- Node10&#45;&gt;Node2 -->
<g id="edge14" class="edge">
<title>Node10&#45;&gt;Node2</title>
<path fill="none" stroke="midnightblue" d="M312.94,-56.44C288.09,-47.44 248.77,-33.19 220.79,-23.05"/>
<polygon fill="midnightblue" stroke="midnightblue" points="221.64,-19.63 211.05,-19.52 219.26,-26.21 221.64,-19.63"/>
</g>
<!-- Node12&#45;&gt;Node2 -->
<g id="edge16" class="edge">
<title>Node12&#45;&gt;Node2</title>
<path fill="none" stroke="midnightblue" d="M380.79,-112.23C383.72,-98.5 387.04,-71.86 373.55,-56 354.14,-33.19 269.83,-20.19 221.65,-14.5"/>
<polygon fill="midnightblue" stroke="midnightblue" points="222,-11.01 211.67,-13.36 221.21,-17.97 222,-11.01"/>
</g>
<!-- Node12&#45;&gt;Node10 -->
<g id="edge17" class="edge">
<title>Node12&#45;&gt;Node10</title>
<path fill="none" stroke="midnightblue" d="M371.61,-112.08C365.62,-104.38 356.8,-93.03 349.5,-83.65"/>
<polygon fill="midnightblue" stroke="midnightblue" points="352.26,-81.5 343.35,-75.75 346.73,-85.79 352.26,-81.5"/>
</g>
</g>
</svg>
