<?xml version="1.0" encoding="UTF-8" standalone="no"?>
<!DOCTYPE svg PUBLIC "-//W3C//DTD SVG 1.1//EN"
 "http://www.w3.org/Graphics/SVG/1.1/DTD/svg11.dtd">
<!-- Generated by graphviz version 3.0.0 (20220226.1711)
 -->
<!-- Title: mrbc_compare Pages: 1 -->
<svg width="235pt" height="104pt"
 viewBox="0.00 0.00 235.00 104.00" xmlns="http://www.w3.org/2000/svg" xmlns:xlink="http://www.w3.org/1999/xlink">
<g id="graph0" class="graph" transform="scale(1 1) rotate(0) translate(4 100)">
<title>mrbc_compare</title>
<polygon fill="white" stroke="transparent" points="-4,4 -4,-100 231,-100 231,4 -4,4"/>
<!-- Node1 -->
<g id="node1" class="node">
<title>Node1</title>
<g id="a_node1"><a xlink:title=" ">
<polygon fill="#bfbfbf" stroke="black" points="146,-38.5 146,-57.5 227,-57.5 227,-38.5 146,-38.5"/>
<text text-anchor="middle" x="186.5" y="-45.5" font-family="Helvetica,sans-Serif" font-size="10.00">mrbc_compare</text>
</a>
</g>
</g>
<!-- Node2 -->
<g id="node2" class="node">
<title>Node2</title>
<g id="a_node2"><a xlink:href="c__array_8c.html#aa4e1bd4104950d992c442bbbb19eb445" target="_top" xlink:title=" ">
<polygon fill="white" stroke="black" points="2.5,-76.5 2.5,-95.5 107.5,-95.5 107.5,-76.5 2.5,-76.5"/>
<text text-anchor="middle" x="55" y="-83.5" font-family="Helvetica,sans-Serif" font-size="10.00">mrbc_array_minmax</text>
</a>
</g>
</g>
<!-- Node1&#45;&gt;Node2 -->
<g id="edge1" class="edge">
<title>Node1&#45;&gt;Node2</title>
<path fill="none" stroke="midnightblue" d="M142.78,-60.54C125.16,-65.7 105.08,-71.6 88.67,-76.41"/>
<polygon fill="midnightblue" stroke="midnightblue" points="144.21,-63.76 152.82,-57.59 142.24,-57.05 144.21,-63.76"/>
</g>
<!-- Node3 -->
<g id="node3" class="node">
<title>Node3</title>
<g id="a_node3"><a xlink:href="c__hash_8c.html#a0e4c17d3dce62a7ff54dcbcd7788003f" target="_top" xlink:title=" ">
<polygon fill="white" stroke="red" points="5.5,-38.5 5.5,-57.5 104.5,-57.5 104.5,-38.5 5.5,-38.5"/>
<text text-anchor="middle" x="55" y="-45.5" font-family="Helvetica,sans-Serif" font-size="10.00">mrbc_hash_search</text>
</a>
</g>
</g>
<!-- Node1&#45;&gt;Node3 -->
<g id="edge2" class="edge">
<title>Node1&#45;&gt;Node3</title>
<path fill="none" stroke="midnightblue" d="M135.66,-48C125.57,-48 114.97,-48 104.92,-48"/>
<polygon fill="midnightblue" stroke="midnightblue" points="135.94,-51.5 145.94,-48 135.94,-44.5 135.94,-51.5"/>
</g>
<!-- Node7 -->
<g id="node4" class="node">
<title>Node7</title>
<g id="a_node4"><a xlink:href="c__range_8c.html#ae60c393224d6c118ac1bc30219477bc2" target="_top" xlink:title=" ">
<polygon fill="white" stroke="black" points="0,-0.5 0,-19.5 110,-19.5 110,-0.5 0,-0.5"/>
<text text-anchor="middle" x="55" y="-7.5" font-family="Helvetica,sans-Serif" font-size="10.00">mrbc_range_compare</text>
</a>
</g>
</g>
<!-- Node1&#45;&gt;Node7 -->
<g id="edge3" class="edge">
<title>Node1&#45;&gt;Node7</title>
<path fill="none" stroke="midnightblue" d="M142.78,-35.46C125.16,-30.3 105.08,-24.4 88.67,-19.59"/>
<polygon fill="midnightblue" stroke="midnightblue" points="142.24,-38.95 152.82,-38.41 144.21,-32.24 142.24,-38.95"/>
</g>
</g>
</svg>
