<?xml version="1.0" encoding="UTF-8" standalone="no"?>
<!DOCTYPE svg PUBLIC "-//W3C//DTD SVG 1.1//EN"
 "http://www.w3.org/Graphics/SVG/1.1/DTD/svg11.dtd">
<!-- Generated by graphviz version 3.0.0 (20220226.1711)
 -->
<!-- Title: vm.h Pages: 1 -->
<svg width="528pt" height="140pt"
 viewBox="0.00 0.00 528.00 140.00" xmlns="http://www.w3.org/2000/svg" xmlns:xlink="http://www.w3.org/1999/xlink">
<g id="graph0" class="graph" transform="scale(1 1) rotate(0) translate(4 136)">
<title>vm.h</title>
<polygon fill="white" stroke="transparent" points="-4,4 -4,-136 524,-136 524,4 -4,4"/>
<!-- Node1 -->
<g id="node1" class="node">
<title>Node1</title>
<g id="a_node1"><a xlink:title="mruby bytecode executor.">
<polygon fill="#bfbfbf" stroke="black" points="289,-112.5 289,-131.5 327,-131.5 327,-112.5 289,-112.5"/>
<text text-anchor="middle" x="308" y="-119.5" font-family="Helvetica,sans-Serif" font-size="10.00">vm.h</text>
</a>
</g>
</g>
<!-- Node2 -->
<g id="node2" class="node">
<title>Node2</title>
<g id="a_node2"><a xlink:href="c__object_8c.html" target="_top" xlink:title="Object, Proc, Nil, True and False class.">
<polygon fill="white" stroke="black" points="0,-56.5 0,-75.5 62,-75.5 62,-56.5 0,-56.5"/>
<text text-anchor="middle" x="31" y="-63.5" font-family="Helvetica,sans-Serif" font-size="10.00">c_object.c</text>
</a>
</g>
</g>
<!-- Node1&#45;&gt;Node2 -->
<g id="edge1" class="edge">
<title>Node1&#45;&gt;Node2</title>
<path fill="none" stroke="midnightblue" d="M279.03,-115.82C234.3,-107.76 145.79,-91.51 71,-76 68.21,-75.42 65.32,-74.8 62.42,-74.17"/>
<polygon fill="midnightblue" stroke="midnightblue" points="278.45,-119.28 288.91,-117.6 279.69,-112.39 278.45,-119.28"/>
</g>
<!-- Node3 -->
<g id="node3" class="node">
<title>Node3</title>
<g id="a_node3"><a xlink:href="c__string_8c.html" target="_top" xlink:title="mruby/c String class">
<polygon fill="white" stroke="black" points="80.5,-56.5 80.5,-75.5 139.5,-75.5 139.5,-56.5 80.5,-56.5"/>
<text text-anchor="middle" x="110" y="-63.5" font-family="Helvetica,sans-Serif" font-size="10.00">c_string.c</text>
</a>
</g>
</g>
<!-- Node1&#45;&gt;Node3 -->
<g id="edge2" class="edge">
<title>Node1&#45;&gt;Node3</title>
<path fill="none" stroke="midnightblue" d="M278.89,-113.06C241.58,-102.89 177.23,-85.34 139.66,-75.09"/>
<polygon fill="midnightblue" stroke="midnightblue" points="278.09,-116.47 288.65,-115.72 279.93,-109.72 278.09,-116.47"/>
</g>
<!-- Node4 -->
<g id="node4" class="node">
<title>Node4</title>
<g id="a_node4"><a xlink:href="class_8c.html" target="_top" xlink:title="Class related functions.">
<polygon fill="white" stroke="black" points="158,-56.5 158,-75.5 206,-75.5 206,-56.5 158,-56.5"/>
<text text-anchor="middle" x="182" y="-63.5" font-family="Helvetica,sans-Serif" font-size="10.00">class.c</text>
</a>
</g>
</g>
<!-- Node1&#45;&gt;Node4 -->
<g id="edge3" class="edge">
<title>Node1&#45;&gt;Node4</title>
<path fill="none" stroke="midnightblue" d="M279.4,-108.74C255.84,-98.65 223.03,-84.58 202.15,-75.64"/>
<polygon fill="midnightblue" stroke="midnightblue" points="278.29,-112.08 288.86,-112.8 281.05,-105.64 278.29,-112.08"/>
</g>
<!-- Node5 -->
<g id="node5" class="node">
<title>Node5</title>
<g id="a_node5"><a xlink:href="error_8c.html" target="_top" xlink:title="exception classes">
<polygon fill="white" stroke="black" points="224,-56.5 224,-75.5 268,-75.5 268,-56.5 224,-56.5"/>
<text text-anchor="middle" x="246" y="-63.5" font-family="Helvetica,sans-Serif" font-size="10.00">error.c</text>
</a>
</g>
</g>
<!-- Node1&#45;&gt;Node5 -->
<g id="edge4" class="edge">
<title>Node1&#45;&gt;Node5</title>
<path fill="none" stroke="midnightblue" d="M290.25,-105.54C279.19,-95.91 265.37,-83.87 256.14,-75.83"/>
<polygon fill="midnightblue" stroke="midnightblue" points="288.2,-108.4 298.04,-112.32 292.8,-103.12 288.2,-108.4"/>
</g>
<!-- Node6 -->
<g id="node6" class="node">
<title>Node6</title>
<g id="a_node6"><a xlink:href="load_8c.html" target="_top" xlink:title="mruby bytecode loader.">
<polygon fill="white" stroke="black" points="286.5,-56.5 286.5,-75.5 329.5,-75.5 329.5,-56.5 286.5,-56.5"/>
<text text-anchor="middle" x="308" y="-63.5" font-family="Helvetica,sans-Serif" font-size="10.00">load.c</text>
</a>
</g>
</g>
<!-- Node1&#45;&gt;Node6 -->
<g id="edge5" class="edge">
<title>Node1&#45;&gt;Node6</title>
<path fill="none" stroke="midnightblue" d="M308,-101.8C308,-92.91 308,-82.78 308,-75.75"/>
<polygon fill="midnightblue" stroke="midnightblue" points="304.5,-102.08 308,-112.08 311.5,-102.08 304.5,-102.08"/>
</g>
<!-- Node7 -->
<g id="node7" class="node">
<title>Node7</title>
<g id="a_node7"><a xlink:href="mrubyc_8h.html" target="_top" xlink:title="Include at once the necessary header files for user program.">
<polygon fill="white" stroke="black" points="344.5,-0.5 344.5,-19.5 401.5,-19.5 401.5,-0.5 344.5,-0.5"/>
<text text-anchor="middle" x="373" y="-7.5" font-family="Helvetica,sans-Serif" font-size="10.00">mrubyc.h</text>
</a>
</g>
</g>
<!-- Node1&#45;&gt;Node7 -->
<g id="edge6" class="edge">
<title>Node1&#45;&gt;Node7</title>
<path fill="none" stroke="midnightblue" d="M320.03,-103.78C325.68,-95.49 332.38,-85.36 338,-76 349.88,-56.22 362.36,-32.12 368.72,-19.56"/>
<polygon fill="midnightblue" stroke="midnightblue" points="317.02,-101.98 314.23,-112.19 322.79,-105.95 317.02,-101.98"/>
</g>
<!-- Node8 -->
<g id="node8" class="node">
<title>Node8</title>
<g id="a_node8"><a xlink:href="rrt0_8c.html" target="_top" xlink:title="Realtime multitask monitor for mruby/c.">
<polygon fill="white" stroke="black" points="426.5,-0.5 426.5,-19.5 465.5,-19.5 465.5,-0.5 426.5,-0.5"/>
<text text-anchor="middle" x="446" y="-7.5" font-family="Helvetica,sans-Serif" font-size="10.00">rrt0.c</text>
</a>
</g>
</g>
<!-- Node1&#45;&gt;Node8 -->
<g id="edge7" class="edge">
<title>Node1&#45;&gt;Node8</title>
<path fill="none" stroke="midnightblue" d="M337.37,-118.93C366.67,-115.22 410.74,-104.87 435,-76 448.55,-59.88 448.3,-33.35 447.09,-19.71"/>
<polygon fill="midnightblue" stroke="midnightblue" points="336.87,-115.47 327.3,-120.02 337.62,-122.43 336.87,-115.47"/>
</g>
<!-- Node9 -->
<g id="node9" class="node">
<title>Node9</title>
<g id="a_node9"><a xlink:href="rrt0_8h.html" target="_top" xlink:title="Realtime multitask monitor for mruby/c.">
<polygon fill="white" stroke="black" points="386.5,-56.5 386.5,-75.5 425.5,-75.5 425.5,-56.5 386.5,-56.5"/>
<text text-anchor="middle" x="406" y="-63.5" font-family="Helvetica,sans-Serif" font-size="10.00">rrt0.h</text>
</a>
</g>
</g>
<!-- Node1&#45;&gt;Node9 -->
<g id="edge8" class="edge">
<title>Node1&#45;&gt;Node9</title>
<path fill="none" stroke="midnightblue" d="M332.59,-107.45C350.68,-97.48 374.73,-84.23 390.29,-75.65"/>
<polygon fill="midnightblue" stroke="midnightblue" points="330.81,-104.43 323.75,-112.32 334.19,-110.56 330.81,-104.43"/>
</g>
<!-- Node10 -->
<g id="node10" class="node">
<title>Node10</title>
<g id="a_node10"><a xlink:href="vm_8c.html" target="_top" xlink:title="mruby bytecode executor.">
<polygon fill="white" stroke="black" points="482,-56.5 482,-75.5 520,-75.5 520,-56.5 482,-56.5"/>
<text text-anchor="middle" x="501" y="-63.5" font-family="Helvetica,sans-Serif" font-size="10.00">vm.c</text>
</a>
</g>
</g>
<!-- Node1&#45;&gt;Node10 -->
<g id="edge11" class="edge">
<title>Node1&#45;&gt;Node10</title>
<path fill="none" stroke="midnightblue" d="M336.89,-112.92C376.85,-101.74 447.89,-81.86 481.87,-72.35"/>
<polygon fill="midnightblue" stroke="midnightblue" points="335.9,-109.56 327.21,-115.62 337.78,-116.3 335.9,-109.56"/>
</g>
<!-- Node9&#45;&gt;Node7 -->
<g id="edge9" class="edge">
<title>Node9&#45;&gt;Node7</title>
<path fill="none" stroke="midnightblue" d="M395.17,-47.27C389.53,-38.05 382.88,-27.17 378.35,-19.75"/>
<polygon fill="midnightblue" stroke="midnightblue" points="392.35,-49.38 400.55,-56.08 398.32,-45.73 392.35,-49.38"/>
</g>
<!-- Node9&#45;&gt;Node8 -->
<g id="edge10" class="edge">
<title>Node9&#45;&gt;Node8</title>
<path fill="none" stroke="midnightblue" d="M418.7,-47.86C425.63,-38.5 433.91,-27.33 439.52,-19.75"/>
<polygon fill="midnightblue" stroke="midnightblue" points="415.75,-45.96 412.61,-56.08 421.37,-50.13 415.75,-45.96"/>
</g>
</g>
</svg>
