<?xml version="1.0" encoding="UTF-8" standalone="no"?>
<!DOCTYPE svg PUBLIC "-//W3C//DTD SVG 1.1//EN"
 "http://www.w3.org/Graphics/SVG/1.1/DTD/svg11.dtd">
<!-- Generated by graphviz version 3.0.0 (20220226.1711)
 -->
<!-- Title: vm.h Pages: 1 -->
<svg width="82pt" height="140pt"
 viewBox="0.00 0.00 82.00 140.00" xmlns="http://www.w3.org/2000/svg" xmlns:xlink="http://www.w3.org/1999/xlink">
<g id="graph0" class="graph" transform="scale(1 1) rotate(0) translate(4 136)">
<title>vm.h</title>
<polygon fill="white" stroke="transparent" points="-4,4 -4,-136 78,-136 78,4 -4,4"/>
<!-- Node1 -->
<g id="node1" class="node">
<title>Node1</title>
<g id="a_node1"><a xlink:title="mruby bytecode executor.">
<polygon fill="#bfbfbf" stroke="black" points="5,-112.5 5,-131.5 43,-131.5 43,-112.5 5,-112.5"/>
<text text-anchor="middle" x="24" y="-119.5" font-family="Helvetica,sans-Serif" font-size="10.00">vm.h</text>
</a>
</g>
</g>
<!-- Node2 -->
<g id="node2" class="node">
<title>Node2</title>
<g id="a_node2"><a xlink:href="value_8h.html" target="_top" xlink:title="mruby/c value definitions">
<polygon fill="white" stroke="black" points="0,-0.5 0,-19.5 48,-19.5 48,-0.5 0,-0.5"/>
<text text-anchor="middle" x="24" y="-7.5" font-family="Helvetica,sans-Serif" font-size="10.00">value.h</text>
</a>
</g>
</g>
<!-- Node1&#45;&gt;Node2 -->
<g id="edge1" class="edge">
<title>Node1&#45;&gt;Node2</title>
<path fill="none" stroke="midnightblue" d="M22.26,-112.42C20.53,-103.4 17.99,-88.77 17,-76 15.8,-60.42 17.91,-42.8 20.12,-29.84"/>
<polygon fill="midnightblue" stroke="midnightblue" points="23.6,-30.29 22.01,-19.82 16.72,-28.99 23.6,-30.29"/>
</g>
<!-- Node3 -->
<g id="node3" class="node">
<title>Node3</title>
<g id="a_node3"><a xlink:href="class_8h.html" target="_top" xlink:title="Class related functions.">
<polygon fill="white" stroke="red" points="26,-56.5 26,-75.5 74,-75.5 74,-56.5 26,-56.5"/>
<text text-anchor="middle" x="50" y="-63.5" font-family="Helvetica,sans-Serif" font-size="10.00">class.h</text>
</a>
</g>
</g>
<!-- Node1&#45;&gt;Node3 -->
<g id="edge2" class="edge">
<title>Node1&#45;&gt;Node3</title>
<path fill="none" stroke="midnightblue" d="M28.29,-112.08C31.85,-104.69 37.02,-93.95 41.42,-84.81"/>
<polygon fill="midnightblue" stroke="midnightblue" points="44.6,-86.28 45.79,-75.75 38.29,-83.24 44.6,-86.28"/>
</g>
<!-- Node3&#45;&gt;Node2 -->
<g id="edge3" class="edge">
<title>Node3&#45;&gt;Node2</title>
<path fill="none" stroke="midnightblue" d="M45.71,-56.08C42.15,-48.69 36.98,-37.95 32.58,-28.81"/>
<polygon fill="midnightblue" stroke="midnightblue" points="35.71,-27.24 28.21,-19.75 29.4,-30.28 35.71,-27.24"/>
</g>
</g>
</svg>
