<?xml version="1.0" encoding="UTF-8" standalone="no"?>
<!DOCTYPE svg PUBLIC "-//W3C//DTD SVG 1.1//EN"
 "http://www.w3.org/Graphics/SVG/1.1/DTD/svg11.dtd">
<!-- Generated by graphviz version 3.0.0 (20220226.1711)
 -->
<!-- Title: vm.c Pages: 1 -->
<svg width="728pt" height="252pt"
 viewBox="0.00 0.00 727.63 252.00" xmlns="http://www.w3.org/2000/svg" xmlns:xlink="http://www.w3.org/1999/xlink">
<g id="graph0" class="graph" transform="scale(1 1) rotate(0) translate(4 248)">
<title>vm.c</title>
<polygon fill="white" stroke="transparent" points="-4,4 -4,-248 723.63,-248 723.63,4 -4,4"/>
<!-- Node1 -->
<g id="node1" class="node">
<title>Node1</title>
<g id="a_node1"><a xlink:title="mruby bytecode executor.">
<polygon fill="#bfbfbf" stroke="black" points="350,-224.5 350,-243.5 388,-243.5 388,-224.5 350,-224.5"/>
<text text-anchor="middle" x="369" y="-231.5" font-family="Helvetica,sans-Serif" font-size="10.00">vm.c</text>
</a>
</g>
</g>
<!-- Node2 -->
<g id="node2" class="node">
<title>Node2</title>
<g id="a_node2"><a xlink:href="alloc_8h.html" target="_top" xlink:title="mruby/c memory management.">
<polygon fill="white" stroke="black" points="189.5,-56.5 189.5,-75.5 234.5,-75.5 234.5,-56.5 189.5,-56.5"/>
<text text-anchor="middle" x="212" y="-63.5" font-family="Helvetica,sans-Serif" font-size="10.00">alloc.h</text>
</a>
</g>
</g>
<!-- Node1&#45;&gt;Node2 -->
<g id="edge1" class="edge">
<title>Node1&#45;&gt;Node2</title>
<path fill="none" stroke="midnightblue" d="M349.82,-230.4C323.69,-225.96 276.77,-214.65 247,-188 217.63,-161.71 212.27,-112.45 211.67,-85.61"/>
<polygon fill="midnightblue" stroke="midnightblue" points="215.17,-85.6 211.64,-75.61 208.17,-85.61 215.17,-85.6"/>
</g>
<!-- Node3 -->
<g id="node3" class="node">
<title>Node3</title>
<g id="a_node3"><a xlink:href="value_8h.html" target="_top" xlink:title="mruby/c value definitions">
<polygon fill="white" stroke="black" points="363,-0.5 363,-19.5 411,-19.5 411,-0.5 363,-0.5"/>
<text text-anchor="middle" x="387" y="-7.5" font-family="Helvetica,sans-Serif" font-size="10.00">value.h</text>
</a>
</g>
</g>
<!-- Node1&#45;&gt;Node3 -->
<g id="edge2" class="edge">
<title>Node1&#45;&gt;Node3</title>
<path fill="none" stroke="midnightblue" d="M388.04,-233.29C449.11,-233.76 638.31,-231.61 676,-188 702.06,-157.84 769.52,-168.52 653,-56 620.45,-24.56 485.47,-14.95 421.25,-12.12"/>
<polygon fill="midnightblue" stroke="midnightblue" points="421.35,-8.62 411.21,-11.71 421.06,-15.61 421.35,-8.62"/>
</g>
<!-- Node4 -->
<g id="node4" class="node">
<title>Node4</title>
<g id="a_node4"><a xlink:href="symbol_8h.html" target="_top" xlink:title="mruby/c Symbol class">
<polygon fill="white" stroke="red" points="0,-112.5 0,-131.5 56,-131.5 56,-112.5 0,-112.5"/>
<text text-anchor="middle" x="28" y="-119.5" font-family="Helvetica,sans-Serif" font-size="10.00">symbol.h</text>
</a>
</g>
</g>
<!-- Node1&#45;&gt;Node4 -->
<g id="edge3" class="edge">
<title>Node1&#45;&gt;Node4</title>
<path fill="none" stroke="midnightblue" d="M349.65,-232.53C289.27,-230.69 105.63,-222.35 59,-188 43.93,-176.9 35.89,-156.56 31.8,-141.58"/>
<polygon fill="midnightblue" stroke="midnightblue" points="35.2,-140.75 29.49,-131.83 28.39,-142.37 35.2,-140.75"/>
</g>
<!-- Node6 -->
<g id="node5" class="node">
<title>Node6</title>
<g id="a_node5"><a xlink:href="class_8h.html" target="_top" xlink:title="Class related functions.">
<polygon fill="white" stroke="red" points="378,-112.5 378,-131.5 426,-131.5 426,-112.5 378,-112.5"/>
<text text-anchor="middle" x="402" y="-119.5" font-family="Helvetica,sans-Serif" font-size="10.00">class.h</text>
</a>
</g>
</g>
<!-- Node1&#45;&gt;Node6 -->
<g id="edge5" class="edge">
<title>Node1&#45;&gt;Node6</title>
<path fill="none" stroke="midnightblue" d="M371.59,-224.37C376.94,-206.54 389.31,-165.3 396.52,-141.27"/>
<polygon fill="midnightblue" stroke="midnightblue" points="399.9,-142.18 399.42,-131.59 393.2,-140.16 399.9,-142.18"/>
</g>
<!-- Node8 -->
<g id="node6" class="node">
<title>Node8</title>
<g id="a_node6"><a xlink:href="error_8h.html" target="_top" xlink:title="exception classes">
<polygon fill="white" stroke="black" points="340,-56.5 340,-75.5 384,-75.5 384,-56.5 340,-56.5"/>
<text text-anchor="middle" x="362" y="-63.5" font-family="Helvetica,sans-Serif" font-size="10.00">error.h</text>
</a>
</g>
</g>
<!-- Node1&#45;&gt;Node8 -->
<g id="edge9" class="edge">
<title>Node1&#45;&gt;Node8</title>
<path fill="none" stroke="midnightblue" d="M368.62,-224.08C367.52,-197.95 364.29,-121.21 362.78,-85.58"/>
<polygon fill="midnightblue" stroke="midnightblue" points="366.28,-85.41 362.36,-75.57 359.29,-85.71 366.28,-85.41"/>
</g>
<!-- Node9 -->
<g id="node7" class="node">
<title>Node9</title>
<g id="a_node7"><a xlink:href="c__string_8h.html" target="_top" xlink:title="mruby/c String class">
<polygon fill="white" stroke="black" points="68.5,-168.5 68.5,-187.5 127.5,-187.5 127.5,-168.5 68.5,-168.5"/>
<text text-anchor="middle" x="98" y="-175.5" font-family="Helvetica,sans-Serif" font-size="10.00">c_string.h</text>
</a>
</g>
</g>
<!-- Node1&#45;&gt;Node9 -->
<g id="edge10" class="edge">
<title>Node1&#45;&gt;Node9</title>
<path fill="none" stroke="midnightblue" d="M349.94,-229.2C306.07,-220.46 197.17,-198.76 137.92,-186.96"/>
<polygon fill="midnightblue" stroke="midnightblue" points="138.31,-183.46 127.82,-184.94 136.94,-190.33 138.31,-183.46"/>
</g>
<!-- Node10 -->
<g id="node8" class="node">
<title>Node10</title>
<g id="a_node8"><a xlink:href="c__range_8h.html" target="_top" xlink:title="mruby/c Range class">
<polygon fill="white" stroke="black" points="112.5,-112.5 112.5,-131.5 171.5,-131.5 171.5,-112.5 112.5,-112.5"/>
<text text-anchor="middle" x="142" y="-119.5" font-family="Helvetica,sans-Serif" font-size="10.00">c_range.h</text>
</a>
</g>
</g>
<!-- Node1&#45;&gt;Node10 -->
<g id="edge12" class="edge">
<title>Node1&#45;&gt;Node10</title>
<path fill="none" stroke="midnightblue" d="M349.79,-232.69C314.31,-231.23 237.41,-223.81 186,-188 169.1,-176.23 156.82,-155.7 149.59,-140.86"/>
<polygon fill="midnightblue" stroke="midnightblue" points="152.74,-139.32 145.41,-131.67 146.37,-142.22 152.74,-139.32"/>
</g>
<!-- Node11 -->
<g id="node9" class="node">
<title>Node11</title>
<g id="a_node9"><a xlink:href="c__array_8h.html" target="_top" xlink:title="mruby/c Array class">
<polygon fill="white" stroke="black" points="228,-112.5 228,-131.5 284,-131.5 284,-112.5 228,-112.5"/>
<text text-anchor="middle" x="256" y="-119.5" font-family="Helvetica,sans-Serif" font-size="10.00">c_array.h</text>
</a>
</g>
</g>
<!-- Node1&#45;&gt;Node11 -->
<g id="edge14" class="edge">
<title>Node1&#45;&gt;Node11</title>
<path fill="none" stroke="midnightblue" d="M349.59,-231.52C323.51,-228.38 278.01,-218.57 257,-188 247.82,-174.64 248.63,-155.82 251.1,-141.86"/>
<polygon fill="midnightblue" stroke="midnightblue" points="254.56,-142.43 253.29,-131.91 247.72,-140.93 254.56,-142.43"/>
</g>
<!-- Node12 -->
<g id="node10" class="node">
<title>Node12</title>
<g id="a_node10"><a xlink:href="c__hash_8h.html" target="_top" xlink:title="mruby/c Hash class">
<polygon fill="white" stroke="black" points="266,-168.5 266,-187.5 322,-187.5 322,-168.5 266,-168.5"/>
<text text-anchor="middle" x="294" y="-175.5" font-family="Helvetica,sans-Serif" font-size="10.00">c_hash.h</text>
</a>
</g>
</g>
<!-- Node1&#45;&gt;Node12 -->
<g id="edge17" class="edge">
<title>Node1&#45;&gt;Node12</title>
<path fill="none" stroke="midnightblue" d="M356.95,-224.32C345.54,-216.11 328.17,-203.6 314.57,-193.81"/>
<polygon fill="midnightblue" stroke="midnightblue" points="316.43,-190.84 306.27,-187.83 312.34,-196.52 316.43,-190.84"/>
</g>
<!-- Node13 -->
<g id="node11" class="node">
<title>Node13</title>
<g id="a_node11"><a xlink:href="global_8h.html" target="_top" xlink:title="Constant and global variables.">
<polygon fill="white" stroke="black" points="478,-56.5 478,-75.5 528,-75.5 528,-56.5 478,-56.5"/>
<text text-anchor="middle" x="503" y="-63.5" font-family="Helvetica,sans-Serif" font-size="10.00">global.h</text>
</a>
</g>
</g>
<!-- Node1&#45;&gt;Node13 -->
<g id="edge20" class="edge">
<title>Node1&#45;&gt;Node13</title>
<path fill="none" stroke="midnightblue" d="M388.33,-228.58C409.52,-222.77 443.16,-210.54 463,-188 488.98,-158.49 498.16,-111.64 501.35,-85.75"/>
<polygon fill="midnightblue" stroke="midnightblue" points="504.84,-86.07 502.41,-75.76 497.88,-85.33 504.84,-86.07"/>
</g>
<!-- Node14 -->
<g id="node12" class="node">
<title>Node14</title>
<g id="a_node12"><a xlink:href="load_8h.html" target="_top" xlink:title="mruby bytecode loader.">
<polygon fill="white" stroke="black" points="520.5,-112.5 520.5,-131.5 563.5,-131.5 563.5,-112.5 520.5,-112.5"/>
<text text-anchor="middle" x="542" y="-119.5" font-family="Helvetica,sans-Serif" font-size="10.00">load.h</text>
</a>
</g>
</g>
<!-- Node1&#45;&gt;Node14 -->
<g id="edge22" class="edge">
<title>Node1&#45;&gt;Node14</title>
<path fill="none" stroke="midnightblue" d="M388.4,-231.11C417.06,-227.42 471.09,-216.88 506,-188 520.72,-175.82 530.45,-155.99 536.05,-141.43"/>
<polygon fill="midnightblue" stroke="midnightblue" points="539.37,-142.54 539.4,-131.94 532.77,-140.2 539.37,-142.54"/>
</g>
<!-- Node15 -->
<g id="node13" class="node">
<title>Node15</title>
<g id="a_node13"><a xlink:href="console_8h.html" target="_top" xlink:title="console output module. (not yet input)">
<polygon fill="white" stroke="black" points="584.5,-56.5 584.5,-75.5 643.5,-75.5 643.5,-56.5 584.5,-56.5"/>
<text text-anchor="middle" x="614" y="-63.5" font-family="Helvetica,sans-Serif" font-size="10.00">console.h</text>
</a>
</g>
</g>
<!-- Node1&#45;&gt;Node15 -->
<g id="edge24" class="edge">
<title>Node1&#45;&gt;Node15</title>
<path fill="none" stroke="midnightblue" d="M388.08,-231.47C419.79,-228.13 484.27,-217.92 529,-188 567.81,-162.04 594.37,-111.9 606.51,-85.04"/>
<polygon fill="midnightblue" stroke="midnightblue" points="609.8,-86.25 610.57,-75.68 603.38,-83.46 609.8,-86.25"/>
</g>
<!-- Node16 -->
<g id="node14" class="node">
<title>Node16</title>
<g id="a_node14"><a xlink:href="opcode_8h.html" target="_top" xlink:title="Define operation codes and associated macros.">
<polygon fill="white" stroke="black" points="611,-168.5 611,-187.5 667,-187.5 667,-168.5 611,-168.5"/>
<text text-anchor="middle" x="639" y="-175.5" font-family="Helvetica,sans-Serif" font-size="10.00">opcode.h</text>
</a>
</g>
</g>
<!-- Node1&#45;&gt;Node16 -->
<g id="edge26" class="edge">
<title>Node1&#45;&gt;Node16</title>
<path fill="none" stroke="midnightblue" d="M388.24,-229.31C427.51,-221.76 519.74,-203.9 597,-188 598.27,-187.74 599.57,-187.47 600.88,-187.2"/>
<polygon fill="midnightblue" stroke="midnightblue" points="601.93,-190.55 611,-185.07 600.49,-183.7 601.93,-190.55"/>
</g>
<!-- Node17 -->
<g id="node15" class="node">
<title>Node17</title>
<g id="a_node15"><a xlink:href="vm_8h.html" target="_top" xlink:title="mruby bytecode executor.">
<polygon fill="white" stroke="black" points="416,-168.5 416,-187.5 454,-187.5 454,-168.5 416,-168.5"/>
<text text-anchor="middle" x="435" y="-175.5" font-family="Helvetica,sans-Serif" font-size="10.00">vm.h</text>
</a>
</g>
</g>
<!-- Node1&#45;&gt;Node17 -->
<g id="edge27" class="edge">
<title>Node1&#45;&gt;Node17</title>
<path fill="none" stroke="midnightblue" d="M379.6,-224.32C389.46,-216.26 404.35,-204.08 416.22,-194.37"/>
<polygon fill="midnightblue" stroke="midnightblue" points="418.68,-196.88 424.2,-187.83 414.25,-191.46 418.68,-196.88"/>
</g>
<!-- Node4&#45;&gt;Node3 -->
<g id="edge4" class="edge">
<title>Node4&#45;&gt;Node3</title>
<path fill="none" stroke="midnightblue" d="M30.98,-112.1C36.32,-97.68 48.95,-69.47 70,-56 116.32,-26.37 280.38,-15.66 352.53,-12.32"/>
<polygon fill="midnightblue" stroke="midnightblue" points="353.05,-15.81 362.88,-11.87 352.74,-8.81 353.05,-15.81"/>
</g>
<!-- Node6&#45;&gt;Node3 -->
<g id="edge6" class="edge">
<title>Node6&#45;&gt;Node3</title>
<path fill="none" stroke="midnightblue" d="M400.82,-112.37C398.4,-94.62 392.82,-53.67 389.54,-29.6"/>
<polygon fill="midnightblue" stroke="midnightblue" points="392.99,-29.03 388.17,-19.59 386.05,-29.97 392.99,-29.03"/>
</g>
<!-- Node6&#45;&gt;Node8 -->
<g id="edge7" class="edge">
<title>Node6&#45;&gt;Node8</title>
<path fill="none" stroke="midnightblue" d="M395.39,-112.08C389.74,-104.46 381.46,-93.26 374.55,-83.94"/>
<polygon fill="midnightblue" stroke="midnightblue" points="377.25,-81.7 368.48,-75.75 371.62,-85.87 377.25,-81.7"/>
</g>
<!-- Node8&#45;&gt;Node3 -->
<g id="edge8" class="edge">
<title>Node8&#45;&gt;Node3</title>
<path fill="none" stroke="midnightblue" d="M366.13,-56.08C369.51,-48.77 374.42,-38.18 378.62,-29.1"/>
<polygon fill="midnightblue" stroke="midnightblue" points="381.92,-30.3 382.95,-19.75 375.57,-27.36 381.92,-30.3"/>
</g>
<!-- Node9&#45;&gt;Node3 -->
<g id="edge11" class="edge">
<title>Node9&#45;&gt;Node3</title>
<path fill="none" stroke="midnightblue" d="M96.81,-168.11C95.47,-155.12 94.49,-130.51 103,-112 117.71,-80.02 127.95,-72.57 159,-56 221.75,-22.52 306.18,-13.81 352.69,-11.63"/>
<polygon fill="midnightblue" stroke="midnightblue" points="352.98,-15.12 362.84,-11.24 352.71,-8.13 352.98,-15.12"/>
</g>
<!-- Node10&#45;&gt;Node3 -->
<g id="edge13" class="edge">
<title>Node10&#45;&gt;Node3</title>
<path fill="none" stroke="midnightblue" d="M144.56,-112.28C149.18,-98.12 160.32,-70.28 180,-56 231.69,-18.48 308.52,-11.16 352.59,-10.33"/>
<polygon fill="midnightblue" stroke="midnightblue" points="352.82,-13.83 362.79,-10.24 352.76,-6.83 352.82,-13.83"/>
</g>
<!-- Node11&#45;&gt;Node2 -->
<g id="edge15" class="edge">
<title>Node11&#45;&gt;Node2</title>
<path fill="none" stroke="midnightblue" d="M248.73,-112.08C242.46,-104.38 233.21,-93.03 225.57,-83.65"/>
<polygon fill="midnightblue" stroke="midnightblue" points="228.16,-81.29 219.13,-75.75 222.73,-85.71 228.16,-81.29"/>
</g>
<!-- Node11&#45;&gt;Node3 -->
<g id="edge16" class="edge">
<title>Node11&#45;&gt;Node3</title>
<path fill="none" stroke="midnightblue" d="M259.74,-112.39C265.96,-98.88 279.62,-72.53 298,-56 313.96,-41.64 335.35,-30.63 353.16,-23.1"/>
<polygon fill="midnightblue" stroke="midnightblue" points="354.67,-26.26 362.63,-19.27 352.04,-19.77 354.67,-26.26"/>
</g>
<!-- Node12&#45;&gt;Node3 -->
<g id="edge18" class="edge">
<title>Node12&#45;&gt;Node3</title>
<path fill="none" stroke="midnightblue" d="M294.89,-168.34C297.38,-147.37 305.99,-92.92 331,-56 339.33,-43.7 352.04,-33.1 363.24,-25.28"/>
<polygon fill="midnightblue" stroke="midnightblue" points="365.38,-28.06 371.8,-19.63 361.52,-22.22 365.38,-28.06"/>
</g>
<!-- Node12&#45;&gt;Node11 -->
<g id="edge19" class="edge">
<title>Node12&#45;&gt;Node11</title>
<path fill="none" stroke="midnightblue" d="M287.73,-168.08C282.36,-160.46 274.48,-149.26 267.92,-139.94"/>
<polygon fill="midnightblue" stroke="midnightblue" points="270.78,-137.91 262.16,-131.75 265.05,-141.94 270.78,-137.91"/>
</g>
<!-- Node13&#45;&gt;Node3 -->
<g id="edge21" class="edge">
<title>Node13&#45;&gt;Node3</title>
<path fill="none" stroke="midnightblue" d="M484.62,-56.44C465.78,-47.68 436.27,-33.94 414.62,-23.86"/>
<polygon fill="midnightblue" stroke="midnightblue" points="415.84,-20.56 405.29,-19.52 412.88,-26.91 415.84,-20.56"/>
</g>
<!-- Node14&#45;&gt;Node3 -->
<g id="edge23" class="edge">
<title>Node14&#45;&gt;Node3</title>
<path fill="none" stroke="midnightblue" d="M544.14,-112.32C546.93,-98.7 550.06,-72.22 537,-56 509.33,-21.65 456.5,-12.77 421.5,-10.86"/>
<polygon fill="midnightblue" stroke="midnightblue" points="421.39,-7.36 411.26,-10.48 421.12,-14.35 421.39,-7.36"/>
</g>
<!-- Node15&#45;&gt;Node3 -->
<g id="edge25" class="edge">
<title>Node15&#45;&gt;Node3</title>
<path fill="none" stroke="midnightblue" d="M584.32,-57.94C542.18,-47.91 465.2,-29.6 420.87,-19.06"/>
<polygon fill="midnightblue" stroke="midnightblue" points="421.68,-15.65 411.14,-16.74 420.06,-22.46 421.68,-15.65"/>
</g>
<!-- Node17&#45;&gt;Node3 -->
<g id="edge28" class="edge">
<title>Node17&#45;&gt;Node3</title>
<path fill="none" stroke="midnightblue" d="M436.16,-168.46C437.6,-155.91 439.38,-131.83 435,-112 428.09,-80.7 410.13,-47.76 398.24,-28.32"/>
<polygon fill="midnightblue" stroke="midnightblue" points="401.11,-26.3 392.82,-19.69 395.18,-30.02 401.11,-26.3"/>
</g>
<!-- Node17&#45;&gt;Node6 -->
<g id="edge29" class="edge">
<title>Node17&#45;&gt;Node6</title>
<path fill="none" stroke="midnightblue" d="M429.55,-168.08C424.99,-160.61 418.33,-149.72 412.71,-140.52"/>
<polygon fill="midnightblue" stroke="midnightblue" points="415.55,-138.46 407.35,-131.75 409.58,-142.11 415.55,-138.46"/>
</g>
</g>
</svg>
